<svg xmlns="http://www.w3.org/2000/svg" width="24" height="24" viewBox="0 0 31.376 27.424">
  <g id="Group_20021" data-name="Group 20021" transform="translate(-14396.473 10379.216)">
    <path id="Path_72773" data-name="Path 72773" d="M1577.988,29.005v1.409c-.051.31-.094.622-.153.931a10.2,10.2,0,0,1-4.074,6.369,1.092,1.092,0,0,0-.481,1.023,3.393,3.393,0,0,0,.091.82c.218.719.464,1.43.72,2.137a1.174,1.174,0,0,1-.186,1.207,1.12,1.12,0,0,1-1.147.42A8.347,8.347,0,0,1,1571.55,43a18.567,18.567,0,0,1-3.805-1.946,2.275,2.275,0,0,0-1.931-.48.391.391,0,0,1-.091,0,15.123,15.123,0,0,1-6.632-1.185,11.9,11.9,0,0,1-5.89-5.133,8.985,8.985,0,0,1-.761-7.389,10.877,10.877,0,0,1,5.347-6.24,14.612,14.612,0,0,1,9.651-1.636,13.346,13.346,0,0,1,7.481,3.682,9.877,9.877,0,0,1,2.709,4.512c.159.6.242,1.213.36,1.82m-18.45.4a1.921,1.921,0,1,0,3.842-.005,1.921,1.921,0,0,0-3.842.005m8.98,1.929a1.925,1.925,0,1,0-1.924-1.932,1.945,1.945,0,0,0,1.924,1.932" transform="translate(12849.861 -10398)" fill="#fff"/>
    <path id="Path_72774" data-name="Path 72774" d="M1498.011,88.483c-.231.554-.485,1.064-.662,1.6a10,10,0,0,0,1.584,9.608,13.342,13.342,0,0,0,7.262,4.821,15.449,15.449,0,0,0,5.023.583,2.165,2.165,0,0,1,.548.04c-.216.113-.427.235-.648.338a14.107,14.107,0,0,1-7.658,1.266,1.168,1.168,0,0,0-.8.179,25.881,25.881,0,0,1-4.106,2.232c-.422.171-.874.269-1.312.4-.214.065-.446.064-.535-.148a.734.734,0,0,1,.033-.533,7.375,7.375,0,0,0,.74-2.572,12.048,12.048,0,0,0-.02-1.342.668.668,0,0,0-.344-.534,9.6,9.6,0,0,1-3.988-5.438,8.585,8.585,0,0,1,1.975-8.123,10.784,10.784,0,0,1,2.739-2.285c.049-.029.1-.054.173-.094" transform="translate(12903.664 -10461.383)" fill="#9c9c9c"/>
  </g>
</svg>
