<svg id="Group_20064" data-name="Group 20064" xmlns="http://www.w3.org/2000/svg" xmlns:xlink="http://www.w3.org/1999/xlink" width="22.317" height="22.316" viewBox="0 0 22.317 22.316">
  <defs>
    <clipPath id="clip-path">
      <rect id="Rectangle_9272" data-name="Rectangle 9272" width="22.317" height="22.316" fill="none"/>
    </clipPath>
  </defs>
  <g id="Group_20063" data-name="Group 20063" clip-path="url(#clip-path)">
    <path id="Path_72805" data-name="Path 72805" d="M0,22.674A11.368,11.368,0,0,1,3.169,14.5,1.592,1.592,0,0,1,5.5,14.366a1.561,1.561,0,0,1-.022,2.321,7.9,7.9,0,0,0-.144,10.975,7.55,7.55,0,0,0,8.534,2.068A7.553,7.553,0,0,0,19.1,22.838a7.673,7.673,0,0,0-2.235-6.151,1.555,1.555,0,0,1,.005-2.344,1.574,1.574,0,0,1,2.247.105A10.89,10.89,0,0,1,22.161,20.4,11.153,11.153,0,0,1,.271,24.656C.109,23.881.054,23.083,0,22.674" transform="translate(0 -11.13)" fill="#fff"/>
    <path id="Path_72806" data-name="Path 72806" d="M47.8,4.759c0-1.082-.014-2.164,0-3.246a1.545,1.545,0,0,1,1.351-1.5,1.578,1.578,0,0,1,1.753,1.126,1.323,1.323,0,0,1,.056.366c0,2.176.013,4.352,0,6.528a1.523,1.523,0,0,1-1.316,1.492,1.558,1.558,0,0,1-1.722-.943,2.228,2.228,0,0,1-.124-.764c-.013-1.02-.005-2.039-.005-3.059h0" transform="translate(-38.214 0)" fill="#fff"/>
  </g>
</svg>
