<svg xmlns="http://www.w3.org/2000/svg" width="24" height="24" viewBox="0 0 27.111 28">
  <g id="Group_20019" data-name="Group 20019" transform="translate(-12427.029 10395.334)">
    <path id="Path_72793" data-name="Path 72793" d="M534.754,205.241a15.911,15.911,0,0,0-1.832-.106,14.888,14.888,0,0,0-7.576,2,10.482,10.482,0,0,0-3.844,3.833,1.137,1.137,0,0,0,.84,1.641,51.863,51.863,0,0,0,14.728.924v-.1h-1.383a4.149,4.149,0,0,1-.933-8.191" transform="translate(11905.664 -10583.878)" fill="#fff" fill-rule="evenodd"/>
    <path id="Path_72790" data-name="Path 72790" d="M744.251,181.69a1.728,1.728,0,0,1-1.728-1.728V168.9a1.728,1.728,0,1,1,3.457,0v11.061a1.728,1.728,0,0,1-1.728,1.728" transform="translate(11702.63 -10549.024)" fill="#fff"/>
    <path id="Path_72791" data-name="Path 72791" d="M687.824,238.119H676.762a1.728,1.728,0,1,1,0-3.457h11.061a1.728,1.728,0,0,1,0,3.457" transform="translate(11764.589 -10610.984)" fill="#fff"/>
    <path id="Path_72792" data-name="Path 72792" d="M584.931,2.666a6.913,6.913,0,1,1-6.913,6.913,6.914,6.914,0,0,1,6.913-6.913" transform="translate(11853.655 -10398)" fill="#fff"/>
  </g>
</svg>
