<svg xmlns="http://www.w3.org/2000/svg" width="21.05" height="22" viewBox="0 0 21.05 22">
  <g id="Group_20024" data-name="Group 20024" transform="translate(-13943.376 10395.334)">
    <path id="Path_72779" data-name="Path 72779" d="M1108.249,2.666a6.046,6.046,0,1,1-6.046,6.046,6.046,6.046,0,0,1,6.046-6.046" transform="translate(12845.652 -10398)" fill="#fff"/>
    <path id="Path_72780" data-name="Path 72780" d="M1060.643,210.236a9.169,9.169,0,0,0-3.362-3.352,13.021,13.021,0,0,0-6.625-1.749q-.209,0-.418.006t-.418-.006a13.02,13.02,0,0,0-6.625,1.749,9.167,9.167,0,0,0-3.362,3.352.994.994,0,0,0,.734,1.435,49.614,49.614,0,0,0,19.342,0,.994.994,0,0,0,.734-1.435" transform="translate(12903.664 -10585.959)" fill="#9c9c9c" fill-rule="evenodd"/>
  </g>
</svg>
