<svg xmlns="http://www.w3.org/2000/svg" width="18.134" height="22.273" viewBox="0 0 18.134 22.273">
  <g id="Audio_Mute" data-name="Audio Mute" transform="translate(-13234 16296)">
    <path id="Path_72816" data-name="Path 72816" d="M4.33,5.91l7.1,7.477A4.929,4.929,0,0,1,4.21,9.769a5.49,5.49,0,0,1-.05-.7c0-1.12-.01-2.229,0-3.339.04.04.08.09.12.13.02.02.04.03.05.05" transform="translate(13233.998 -16296.001)" fill="#fff"/>
    <path id="Path_72817" data-name="Path 72817" d="M14.017,7h-.03c0,.73.01,1.459,0,2.189a4.9,4.9,0,0,1-1.18,3.069L5.28,4.318c-.29-.31-.58-.62-.88-.93a4.911,4.911,0,0,1,9.527.8c.11.93.06,1.879.09,2.809" transform="translate(13233.998 -16296)" fill="#fff"/>
    <path id="Path_72818" data-name="Path 72818" d="M18.134,9.04v.09a9.034,9.034,0,0,1-2.469,6.138,8.387,8.387,0,0,1-1.34,1.18,8.962,8.962,0,0,1-3.409,1.489c-.34.07-.69.12-1.07.18v2.269c.52.13,1.02.24,1.519.37a.759.759,0,0,1,.55.72.733.733,0,0,1-.52.74,1.3,1.3,0,0,1-.52.01,10.8,10.8,0,0,0-1.779-.28,9.745,9.745,0,0,0-1.859.3.78.78,0,0,1-.98-.96.744.744,0,0,1,.57-.55l.72-.18c.25-.06.48-.1.73-.15l.01-.01V18.147a17.073,17.073,0,0,1-2-.47A8.9,8.9,0,0,1,.14,10.569,9.954,9.954,0,0,1,.01,9.22.807.807,0,0,1,.66,8.3a.41.41,0,0,1,.11-.01.815.815,0,0,1,.8.83v.04a7.309,7.309,0,0,0,3.209,6.058,7.526,7.526,0,0,0,9.817-1.08,9.913,9.913,0,0,0,.63-.79,7.492,7.492,0,0,0,1.23-2.959c.07-.43.1-.87.13-1.3a.775.775,0,1,1,1.549-.05" transform="translate(13234 -16296.004)" fill="#9c9c9c"/>
    <path id="Path_72819" data-name="Path 72819" d="M17.313,19.545a.865.865,0,0,1-.6.743.816.816,0,0,1-.9-.25l-2.1-2.211c-.051-.057-.1-.118-.169-.192l-.011.009-1.247-1.316-.6-.643L3.343,6.9A.643.643,0,0,0,3.3,6.846Q2.2,5.706,1.119,4.556a.953.953,0,0,1-.1-1.27.836.836,0,0,1,1.31-.048c.659.688,1.312,1.381,1.966,2.072L16.951,18.646a1.043,1.043,0,0,1,.358.9" transform="translate(13233.999 -16296.001)" fill="red"/>
  </g>
</svg>
