<svg xmlns="http://www.w3.org/2000/svg" xmlns:xlink="http://www.w3.org/1999/xlink" width="27.285" height="21.759" viewBox="0 0 27.285 21.759">
  <defs>
    <clipPath id="clip-path">
      <rect id="Rectangle_9289" data-name="Rectangle 9289" width="27.285" height="21.759" transform="translate(0 0)" fill="none"/>
    </clipPath>
  </defs>
  <g id="Video_Mute" data-name="Video Mute" transform="translate(0 0)">
    <g id="Group_20166" data-name="Group 20166" clip-path="url(#clip-path)">
      <path id="Path_72821" data-name="Path 72821" d="M15.305,1.806c-3.56-.02-7.11-.02-10.67,0l14.48,15.27a12.536,12.536,0,0,0,.1-1.84V7.146c0-.47.01-.94,0-1.42a3.957,3.957,0,0,0-3.91-3.92M10.275,13.9l-7.94-8.37c-.48-.49-.98-1.01-1.47-1.53a3.833,3.833,0,0,0-.42,1.72q-.03,5.475,0,10.95a3.942,3.942,0,0,0,3.88,3.91q5.505.03,11.02,0a3.666,3.666,0,0,0,1.1-.17l-3.68-3.88a.585.585,0,0,1-.13.02c-.48.01-.96,0-1.45,0s-.96.01-1.44,0a1.2,1.2,0,0,1-.5-.14.817.817,0,0,1-.2-.12.69.69,0,0,1-.18-.16.9.9,0,0,1-.15-.19.65.65,0,0,1-.11-.22,1.176,1.176,0,0,1-.07-.2.5.5,0,0,1-.02-.12,1.45,1.45,0,0,1,0-.34.277.277,0,0,1,.03-.13,1.1,1.1,0,0,1,.17-.42,2.2,2.2,0,0,1,.14-.18c.06-.06.12-.11.18-.16a2.392,2.392,0,0,1,.21-.13.989.989,0,0,1,.24-.09,1.866,1.866,0,0,1,.25-.04h.54Z" fill="#fff"/>
      <path id="Path_72822" data-name="Path 72822" d="M19.214,15.238V7.145l2.327-1.716c.48-.356.951-.725,1.436-1.074a2.581,2.581,0,0,1,2.818-.26A2.534,2.534,0,0,1,27.279,6.5q.012,4.691,0,9.381A2.536,2.536,0,0,1,25.8,18.289a2.562,2.562,0,0,1-2.817-.262c-1.166-.857-2.317-1.735-3.476-2.6-.091-.068-.192-.125-.288-.186Z" fill="#9c9c9c"/>
      <path id="Path_72823" data-name="Path 72823" d="M10.275,13.9h-.54a1.008,1.008,0,0,0-.25.05.989.989,0,0,0-.24.09,2.392,2.392,0,0,0-.21.13c-.06.05-.12.1-.18.16a2.2,2.2,0,0,0-.14.18,1.1,1.1,0,0,0-.17.42.277.277,0,0,0-.03.13.22.22,0,0,0-.01.08v.09a.915.915,0,0,0,.01.17.5.5,0,0,0,.02.12,1.176,1.176,0,0,0,.07.2.906.906,0,0,0,.11.22.9.9,0,0,0,.15.19.934.934,0,0,0,.18.16.817.817,0,0,0,.2.12,1.2,1.2,0,0,0,.5.14c.48.01.96,0,1.44,0s.97.01,1.45,0a.585.585,0,0,0,.13-.02l-2.49-2.62Z" fill="#9c9c9c"/>
      <path id="Path_72824" data-name="Path 72824" d="M20.633,20.771a1.084,1.084,0,0,1-.751.93,1.021,1.021,0,0,1-1.126-.313l-2.627-2.767c-.064-.071-.126-.147-.212-.24l-.014.011-1.56-1.646-.751-.805L3.153,4.949A.566.566,0,0,0,3.1,4.882Q1.723,3.456.37,2.016A1.194,1.194,0,0,1,.245.427,1.047,1.047,0,0,1,1.708.2a1.013,1.013,0,0,1,.176.164c.825.861,1.642,1.728,2.46,2.593L20.18,19.646a1.3,1.3,0,0,1,.448,1.126" fill="red"/>
    </g>
  </g>
</svg>
