<svg xmlns="http://www.w3.org/2000/svg" width="24" height="24" viewBox="0 0 26.851 18.797">
  <g id="Group_20023" data-name="Group 20023" transform="translate(-13338.117 11122.92)">
    <path id="Path_72784" data-name="Path 72784" d="M2904.76,84.39a15.2,15.2,0,0,1-.147,2.373,3.865,3.865,0,0,1-3.725,2.966q-5.507.023-11.014,0a3.95,3.95,0,0,1-3.885-3.91q-.021-5.476,0-10.953a3.949,3.949,0,0,1,3.885-3.908q5.491-.027,10.982,0a3.962,3.962,0,0,1,3.906,3.923c.006.472,0,.944,0,1.416V84.39m-8.024,1.309c.481,0,.963.007,1.445,0a1.327,1.327,0,0,0-.008-2.647q-1.445-.014-2.89,0a1.327,1.327,0,0,0,.008,2.648c.482.008.963,0,1.445,0" transform="translate(10452.138 -11193.864)" fill="#fff"/>
    <path id="Path_72785" data-name="Path 72785" d="M3109.317,106.171V98.078q1.164-.858,2.327-1.716c.48-.356.951-.725,1.436-1.074a2.58,2.58,0,0,1,2.818-.26,2.535,2.535,0,0,1,1.484,2.406q.011,4.69,0,9.381a2.536,2.536,0,0,1-1.484,2.407,2.563,2.563,0,0,1-2.817-.262c-1.166-.857-2.317-1.735-3.476-2.6-.091-.068-.192-.125-.288-.186" transform="translate(10247.581 -11215.646)" fill="#9c9c9c"/>
    <path id="Path_72786" data-name="Path 72786" d="M2984.633,217.474c-.482,0-.964.006-1.445,0a1.327,1.327,0,0,1-.008-2.648q1.445-.013,2.89,0a1.327,1.327,0,0,1,.008,2.647c-.481.009-.963,0-1.445,0" transform="translate(10364.241 -11325.64)" fill="#9c9c9c"/>
  </g>
</svg>
