<svg class="svg-icon" width='24' height='24' viewBox="0 0 1024 1024" version="1.1" xmlns="http://www.w3.org/2000/svg"><path d="M833.92 545.216c-29.056-28.992-71.872-31.68-100.928-2.688l-83.072 83.136c-21.632 21.504-47.68 21.632-62.848 3.648-10.112-11.904-6.144-48.576-3.264-71.872l41.6-342.4c3.84-30.592-18.048-60.096-48.64-63.872-30.592-3.648-58.432 19.84-62.08 50.432l-46.016 268.928c-2.368 6.72-7.616 7.872-8.192-1.152l-15.552-349.568a55.808 55.808 0 0 0-111.68 0L332.16 472c0.256 4.096-3.264 5.248-3.84 0.576l-49.664-274.88c-5.44-30.336-34.56-52.224-64.896-46.72-30.336 5.44-50.432 36.224-44.992 66.56l44.224 321.664c0 5.76-1.856 9.088-4.608 1.792l-65.92-176.512c-10.304-29.056-42.24-45.952-71.296-35.648-29.056 10.368-44.224 43.968-33.92 73.024l115.648 377.92 1.92 6.144 0.256 0.768 0.064 0.256A246.144 246.144 0 0 0 389.12 956.8a333.184 333.184 0 0 0 198.016-67.136c59.776-36.032 251.2-241.728 251.2-241.728 28.992-29.248 24.576-73.728-4.416-102.72m0 0z"  /></svg>