<svg xmlns="http://www.w3.org/2000/svg" xmlns:xlink="http://www.w3.org/1999/xlink" width="24" height="24" viewBox="0 0 26.044 19.515">
  <defs>
    <clipPath id="clip-path">
      <rect id="Rectangle_9269" data-name="Rectangle 9269" width="6.441" height="6.697" transform="matrix(0.048, -0.999, 0.999, 0.048, 0, 6.433)" fill="none"/>
    </clipPath>
    <clipPath id="clip-path-2">
      <rect id="Rectangle_9270" data-name="Rectangle 9270" width="22.883" height="16.215" rx="4" fill="none"/>
    </clipPath>
  </defs>
  <g id="Group_20036" data-name="Group 20036" transform="translate(0 0)">
    <g id="Group_20033" data-name="Group 20033" transform="translate(19.046 0)">
      <g id="Group_20032" data-name="Group 20032" clip-path="url(#clip-path)">
        <path id="Path_72799" data-name="Path 72799" d="M24.087,5.851a.852.852,0,0,1-.845.867.865.865,0,0,1-.9-.816.679.679,0,0,1,.007-.134c.042-.863.083-1.727.124-2.585L20.133,5.209l-.178-.187-.891-.954-.125-.134-.032.024-.046-.031,2.361-2.061c-.068,0-.144-.022-.218-.025l-2.48-.119a.871.871,0,0,1-.9-.833V.853a.87.87,0,0,1,.919-.816l.059,0,4.823.232a.866.866,0,0,1,.888.837c0,.034,0,.068-.005.1q-.1,2.319-.224,4.638" transform="translate(-17.359 0.003)" fill="#9c9c9c"/>
      </g>
    </g>
    <g id="Group_20035" data-name="Group 20035" transform="translate(0 3.3)">
      <g id="Group_20034" data-name="Group 20034" clip-path="url(#clip-path-2)">
        <path id="Path_72800" data-name="Path 72800" d="M22.9,6.031a2.35,2.35,0,0,0-.068-.566,2.324,2.324,0,0,0-.6-1.075,2.123,2.123,0,0,1-.219.214q-3.21,2.28-6.425,4.554l-1.5,1.06a1.185,1.185,0,0,1-.865.21.877.877,0,0,1-.752-.451c-.133-.294,0-.533.306-.744q4.03-2.848,8.053-5.7c.021-.015.046-.03.084-.054a.192.192,0,0,1-.026-.033,5.806,5.806,0,0,0-2.344-.438q-7.107.01-14.214,0a6.266,6.266,0,0,0-.657.022C1.5,3.269.027,4.48.025,6.04V16.152c0,1.774,1.818,3.068,4.316,3.068H18.585a6.668,6.668,0,0,0,.947-.06c2.011-.29,3.377-1.474,3.378-2.934q.007-5.1-.007-10.2" transform="translate(0.002 -3.012)" fill="#fff"/>
        <path id="Path_72801" data-name="Path 72801" d="M25.018,1.269c0-.43-.4-.715-1.011-.718q-2.638,0-5.274,0c-.6,0-1.034.3-1.023.688s.438.657,1.024.657h2.712c.083,0,.165.008.24.012l-1.98,1.4a.255.255,0,0,1,.121.122.312.312,0,0,1,.025.028.474.474,0,0,1,.183.1,1.008,1.008,0,0,0,.423.194,1.109,1.109,0,0,1,.568.272.161.161,0,0,1,.035.211l.013.021a.321.321,0,0,1,.073.041L23.12,2.915V5c0,.416.394.719.932.728s.97-.3.972-.725q.007-1.869,0-3.736" transform="translate(1.695 -3.247)" fill="#fff"/>
      </g>
    </g>
  </g>
</svg>
