<svg xmlns="http://www.w3.org/2000/svg" xmlns:xlink="http://www.w3.org/1999/xlink" width="22.006" height="22" viewBox="0 0 22.006 22">
  <defs>
    <clipPath id="clip-path">
      <rect id="Rectangle_9268" data-name="Rectangle 9268" width="22.006" height="22" transform="translate(0 0)" fill="none"/>
    </clipPath>
  </defs>
  <g id="Group_20031" data-name="Group 20031" transform="translate(0 0)">
    <g id="Group_20030" data-name="Group 20030" transform="translate(0 0)" clip-path="url(#clip-path)">
      <path id="Path_72797" data-name="Path 72797" d="M40.451.021a12.648,12.648,0,0,1,1.687.052,1.547,1.547,0,0,1,1.245,1.564c0,.305.005.611,0,.916,0,.116.026.179.144.214.258.075.536.271.76.218s.385-.348.574-.537a1.667,1.667,0,0,1,2.016-.42,1.891,1.891,0,0,1,.479.346q.893.889,1.766,1.8a1.62,1.62,0,0,1-.014,2.337c-.2.2-.407.393-.593.6a.343.343,0,0,0-.045.25,1.221,1.221,0,0,0,.108.274c.184.439.184.434.676.441a4.928,4.928,0,0,1,.955.051A1.579,1.579,0,0,1,51.45,9.7q0,1.317,0,2.634a1.615,1.615,0,0,1-1.59,1.614c-.313,0-.626.007-.939,0a.2.2,0,0,0-.231.156,3.945,3.945,0,0,1-.226.547.2.2,0,0,0,.05.277c.211.2.415.406.616.615a1.611,1.611,0,0,1,.013,2.286q-.915.947-1.863,1.863a1.66,1.66,0,0,1-2.314-.01c-.2-.2-.4-.395-.6-.6a.2.2,0,0,0-.276-.056c-.224.111-.547.14-.664.314s-.031.485-.042.735a3.965,3.965,0,0,1-.055.726,1.6,1.6,0,0,1-1.552,1.214c-.443,0-.885,0-1.328-.007V14.689c.2-.019.4-.027.591-.06a3.67,3.67,0,0,0-.591-7.288V.021" transform="translate(-29.444 -0.014)" fill="#9c9c9c"/>
      <path id="Path_72798" data-name="Path 72798" d="M11.007.007V7.327l-.114.008A3.557,3.557,0,0,0,7.771,9.291a3.481,3.481,0,0,0,.162,3.693,3.6,3.6,0,0,0,3.074,1.69v7.319a13.684,13.684,0,0,1-1.621-.04,1.561,1.561,0,0,1-1.316-1.559c-.005-.3-.013-.6,0-.893a.241.241,0,0,0-.207-.292,1.835,1.835,0,0,1-.276-.108c-.382-.163-.381-.164-.682.136-.146.146-.288.3-.439.436a1.643,1.643,0,0,1-2.281,0q-.969-.925-1.894-1.9a1.6,1.6,0,0,1,.021-2.236c.2-.216.415-.427.632-.631A.2.2,0,0,0,3,14.635a3.857,3.857,0,0,1-.227-.549c-.041-.128-.107-.155-.232-.156a8.366,8.366,0,0,1-1.232-.045,1.573,1.573,0,0,1-1.3-1.533q-.018-1.363,0-2.726A1.639,1.639,0,0,1,1.682,8.033c.275-.007.55-.008.825,0,.133,0,.218-.027.247-.167a.881.881,0,0,1,.056-.15c.072-.176.231-.373.193-.522-.044-.174-.257-.305-.4-.453-.116-.121-.241-.235-.352-.361a1.6,1.6,0,0,1,.028-2.2q.937-.957,1.92-1.869a1.642,1.642,0,0,1,2.314.047c.2.191.385.393.587.579a.263.263,0,0,0,.208.074c.257-.092.506-.208.764-.318,0-.348,0-.691,0-1.035A1.631,1.631,0,0,1,9.724,0c.427,0,.855,0,1.282.006" transform="translate(0 0)" fill="#fff"/>
    </g>
  </g>
</svg>
