<svg xmlns="http://www.w3.org/2000/svg" width="22.469" height="22.459" viewBox="0 0 22.469 22.459">
  <g id="Group_20018" data-name="Group 20018" transform="translate(-12903.664 10395.334)">
    <path id="Path_72769" data-name="Path 72769" d="M.032,10.216q0-2.561,0-5.121A2.242,2.242,0,0,1,2.393,2.732q2.876,0,5.752,0a2.24,2.24,0,0,1,2.362,2.362q0,5.121,0,10.242A2.241,2.241,0,0,1,8.146,17.7q-2.876,0-5.752,0A2.243,2.243,0,0,1,.032,15.336q0-2.561,0-5.121" transform="translate(12903.636 -10398.061)" fill="#fff"/>
    <path id="Path_72770" data-name="Path 72770" d="M178.821,115.431q0,2.549,0,5.1a2.243,2.243,0,0,1-2.389,2.382h-5.7a2.246,2.246,0,0,1-2.382-2.39q0-5.1,0-10.2a2.246,2.246,0,0,1,2.389-2.382h5.7a2.244,2.244,0,0,1,2.381,2.39q0,2.549,0,5.1" transform="translate(12747.294 -10495.789)" fill="#fff"/>
    <path id="Path_72771" data-name="Path 72771" d="M173.529,8.658c-.966,0-1.933,0-2.9,0a2.236,2.236,0,0,1-2.323-2.329,14.042,14.042,0,0,1,.048-1.8,2.158,2.158,0,0,1,2.117-1.855q3.074-.023,6.148,0a2.161,2.161,0,0,1,2.132,1.974,10.1,10.1,0,0,1-.023,2.144,2.168,2.168,0,0,1-2.137,1.86h-3.063" transform="translate(12747.335 -10398)" fill="#9c9c9c"/>
    <path id="Path_72772" data-name="Path 72772" d="M5.24,240.115c-.966,0-1.933,0-2.9,0A2.237,2.237,0,0,1,0,237.776a14.1,14.1,0,0,1,.049-1.8,2.155,2.155,0,0,1,2.1-1.844q3.086-.025,6.172,0a2.186,2.186,0,0,1,2.136,2.051,11.713,11.713,0,0,1-.035,2.053,2.159,2.159,0,0,1-2.149,1.871c-1.013.013-2.026,0-3.039,0Z" transform="translate(12903.664 -10612.992)" fill="#9c9c9c"/>
  </g>
</svg>
