<svg xmlns="http://www.w3.org/2000/svg" width="24" height="24" viewBox="0 0 18.133 22.274">
  <g id="Group_20022" data-name="Group 20022" transform="translate(-13288.885 11200.573)">
    <path id="Path_72782" data-name="Path 72782" d="M2464.038,7.014c0,.728.014,1.457,0,2.185a4.914,4.914,0,0,1-9.777.578,5.06,5.06,0,0,1-.05-.7c0-1.384-.012-2.768,0-4.152a4.909,4.909,0,0,1,9.765-.722c.114.927.067,1.874.093,2.811h-.029" transform="translate(10838.826 -11200.574)" fill="#fff"/>
    <path id="Path_72783" data-name="Path 72783" d="M2398.631,139.938v-2.25a18.84,18.84,0,0,1-1.991-.471,8.9,8.9,0,0,1-6.153-7.109,10,10,0,0,1-.13-1.35.8.8,0,0,1,.754-.936.819.819,0,0,1,.8.875,7.33,7.33,0,0,0,3.217,6.061,7.506,7.506,0,0,0,11.675-4.833c.074-.429.1-.867.128-1.3a.779.779,0,1,1,1.555.039,9.08,9.08,0,0,1-7.224,8.81c-.34.067-.685.115-1.067.179v2.27c.518.126,1.021.238,1.519.372a.769.769,0,0,1,.555.72.74.74,0,0,1-.52.74,1.258,1.258,0,0,1-.522.01,11.524,11.524,0,0,0-1.786-.286,9.838,9.838,0,0,0-1.857.3.784.784,0,0,1-.982-.96.748.748,0,0,1,.569-.541c.243-.06.485-.126.729-.183s.474-.1.73-.156" transform="translate(10898.53 -11320.098)" fill="#9c9c9c"/>
  </g>
</svg>
