<svg width="110" height="109" viewBox="0 0 110 109" fill="none" xmlns="http://www.w3.org/2000/svg">
<g clip-path="url(#clip0_1343_2757)">
<ellipse cx="55.2619" cy="54.2404" rx="50.5476" ry="50.0881" fill="#48C764"/>
<path d="M74.9978 34.8432L48.3629 61.1992L35.0372 47.7986C33.6832 46.4324 31.6965 45.8872 29.8252 46.365C27.9539 46.8449 26.4824 48.2765 25.9651 50.1226C25.4479 51.9687 25.9651 53.9476 27.3191 55.3117L44.4493 72.6006C44.6059 72.7435 44.7728 72.8783 44.9459 73.0029C45.0634 73.0928 45.1623 73.199 45.2798 73.2704C45.4694 73.3868 45.6652 73.491 45.8651 73.5829C45.9826 73.6441 46.1 73.7177 46.2175 73.7708C46.4442 73.8545 46.6771 73.9239 46.912 73.977C47.0192 73.977 47.1202 74.0485 47.2273 74.0669C47.9095 74.1976 48.6102 74.1976 49.2923 74.0669C49.3995 74.0669 49.5005 74.0056 49.6077 73.977C49.8405 73.926 50.0693 73.8606 50.2939 73.781C50.4197 73.7279 50.5371 73.6564 50.6628 73.5931C50.8586 73.5053 51.0482 73.4073 51.2296 73.297C51.3471 73.2173 51.4542 73.1173 51.5717 73.0294C51.7448 72.909 51.9097 72.7762 52.0684 72.6353L82.6437 42.393C83.7731 41.4149 84.4429 40.016 84.4903 38.5313C84.5397 37.0467 83.9648 35.607 82.9013 34.5573C81.84 33.5076 80.385 32.944 78.8867 32.9971C77.3885 33.0502 75.9788 33.72 74.9958 34.8412L74.9978 34.8432Z" fill="white"/>
<path d="M54.999 0C40.412 0 26.4227 5.74254 16.1079 15.9615C5.79522 26.1825 0 40.0446 0 54.499C0 68.9533 5.79522 82.8155 16.1079 93.0365C26.4227 103.257 40.412 108.998 54.999 108.998C69.586 108.998 83.5753 103.255 93.89 93.0365C104.205 82.8155 109.998 68.9533 109.998 54.499C109.981 40.0507 104.182 26.1968 93.8715 15.9799C83.5608 5.76296 69.5798 0.0163372 54.999 0ZM54.999 98.2787C43.2808 98.2787 32.0448 93.6655 23.7579 85.456C15.4732 77.2465 10.8176 66.1107 10.8176 54.499C10.8176 42.8873 15.4732 31.7535 23.7579 23.542C32.0427 15.3325 43.2808 10.7193 54.999 10.7193C66.7172 10.7193 77.9532 15.3325 86.24 23.542C94.5248 31.7514 99.1803 42.8873 99.1803 54.499C99.1659 66.1066 94.5062 77.2322 86.2235 85.4397C77.9408 93.6471 66.7131 98.2644 54.999 98.2787V98.2787Z" fill="white"/>
</g>
<defs>
<clipPath id="clip0_1343_2757">
<rect width="110" height="109" fill="white"/>
</clipPath>
</defs>
</svg>
