<svg xmlns="http://www.w3.org/2000/svg" width="22" height="17.602" viewBox="0 0 22 17.602">
    <path id="Shield" d="M11,17.6a.775.775,0,0,1-.552-.23L.232,7.125A.811.811,0,0,1,.094,6.18L3.168.417A.782.782,0,0,1,3.859,0H18.144a.782.782,0,0,1,.69.417L21.907,6.18a.81.81,0,0,1-.14.946L11.552,17.372A.775.775,0,0,1,11,17.6ZM4.526,1.886,2.137,6.362,11,15.254l8.862-8.892L17.477,1.886Zm6.065,12.322h-.03a.224.224,0,0,1-.195-.175v-.07l.534-4.29a.221.221,0,0,0-.156-.209l-.072-.011-3.832.014a.236.236,0,0,1-.126-.039.218.218,0,0,1-.1-.249l.031-.063,4.916-6.759a.226.226,0,0,1,.182-.093h.034a.223.223,0,0,1,.189.18v.072l-.65,4.225v.033a.221.221,0,0,0,.155.209l.073.01L15.2,6.983a.231.231,0,0,1,.126.036.215.215,0,0,1,.094.24l-.029.064-4.614,6.79a.226.226,0,0,1-.192.094Z" transform="translate(-0.001)" fill="#2a9cff"/>
</svg>