<svg width="19" height="19" viewBox="0 0 19 19" fill="none" xmlns="http://www.w3.org/2000/svg">
<path d="M6.61318 8.97571C8.8642 8.97571 10.689 7.21308 10.689 5.03876C10.689 2.86444 8.8642 1.10181 6.61318 1.10181C4.36217 1.10181 2.53735 2.86444 2.53735 5.03876C2.53735 7.21308 4.36217 8.97571 6.61318 8.97571Z" stroke="currentColor" stroke-width="2" stroke-miterlimit="10"/>
<path d="M1 17.2018C1 14.1897 3.52983 11.7461 6.64819 11.7461C9.76655 11.7461 12.2964 14.1897 12.2964 17.2018" stroke="currentColor" stroke-width="2" stroke-miterlimit="10" stroke-linecap="round"/>
<path d="M11.6066 8.87391C13.8576 8.87391 15.6824 7.11127 15.6824 4.93695C15.6824 2.76263 13.8576 1 11.6066 1C9.35557 1 7.53076 2.76263 7.53076 4.93695C7.53076 7.11127 9.35557 8.87391 11.6066 8.87391Z" stroke="currentColor" stroke-width="2" stroke-miterlimit="10"/>
<path d="M5.99365 17.1042C5.99365 14.0921 8.52348 11.6484 11.6418 11.6484C14.7602 11.6484 17.29 14.0921 17.29 17.1042" stroke="currentColor" stroke-width="2" stroke-miterlimit="10" stroke-linecap="round"/>
</svg>
