<svg width="28" height="28" viewBox="0 0 28 28" fill="none" xmlns="http://www.w3.org/2000/svg">
<path d="M6.02772 17.3901L5.20581 15.2163L6.02772 11.9557L9.86329 9.78196L14.7947 9.23853L20.5481 10.8688L22.7399 14.1295L21.644 17.3901L17.8084 16.0315L17.5344 13.0426L14.2468 12.2274L10.4112 13.0426L10.1373 16.0315L6.02772 17.3901Z" fill="currentColor"/>
<path d="M13.9726 8.69507C8.95169 8.69507 4.98206 11.059 4.93538 14.0788C4.91325 14.8549 4.98947 15.6307 5.16211 16.3867C5.34099 17.0704 5.64049 17.5179 6.07827 17.7551C6.30326 17.8755 6.55391 17.9368 6.80771 17.9334C7.10247 17.9268 7.39407 17.8695 7.67032 17.7639L9.46478 17.1217C9.88329 16.9977 10.2458 16.7265 10.4886 16.3558C10.7314 15.985 10.8391 15.5385 10.7926 15.0945L10.7069 13.4304C10.7046 13.3918 10.7156 13.3536 10.738 13.3225C10.7604 13.2914 10.7928 13.2694 10.8295 13.2604C11.8607 13.0201 12.9152 12.9009 13.9726 12.9052C15.0301 12.901 16.0846 13.0201 17.1157 13.2603C17.1524 13.2694 17.1848 13.2914 17.2073 13.3226C17.2297 13.3537 17.2407 13.3919 17.2383 13.4306L17.1526 15.093C17.1059 15.5372 17.2135 15.9841 17.4563 16.3551C17.6991 16.7261 18.0617 16.9976 18.4804 17.1218L20.2745 17.7638C20.9126 17.9926 21.4335 17.9901 21.8668 17.7552C22.3043 17.5181 22.6042 17.0705 22.7829 16.387C22.9558 15.6302 23.0321 14.8536 23.0099 14.0766C22.9632 11.0588 18.9935 8.69497 13.9726 8.69507ZM21.813 16.1203C21.712 16.5067 21.5722 16.7505 21.3976 16.8451C21.2274 16.9372 20.961 16.9194 20.606 16.7921L18.8115 16.1501C18.5995 16.0981 18.4142 15.9663 18.2926 15.7808C18.1711 15.5953 18.122 15.3697 18.1553 15.1488L18.241 13.485C18.2562 13.2048 18.1744 12.9281 18.0102 12.7036C17.8459 12.4791 17.6096 12.3211 17.3428 12.2577C16.2372 11.9998 15.1065 11.8717 13.9726 11.8759C12.8387 11.8717 11.708 11.9998 10.6024 12.2578C10.3357 12.3212 10.0994 12.479 9.9351 12.7035C9.77081 12.928 9.68907 13.2047 9.70427 13.4848L9.78998 15.1503C9.82299 15.3709 9.77383 15.5963 9.65225 15.7815C9.53066 15.9667 9.34556 16.0982 9.1337 16.15L7.33885 16.7922C6.98403 16.9194 6.71788 16.9372 6.54743 16.8451C6.37287 16.7505 6.23322 16.5067 6.13201 16.1201C5.98441 15.4554 5.91975 14.7742 5.9396 14.0929C5.97667 11.684 9.58031 9.72425 13.9726 9.72435C18.3649 9.72425 21.9686 11.684 22.0056 14.0907C22.0256 14.7728 21.9609 15.4548 21.813 16.1203Z" fill="currentColor"/>
</svg>
