<svg width="22" height="23" viewBox="0 0 22 23" fill="none" xmlns="http://www.w3.org/2000/svg">
<mask id="path-1-inside-1_464_34" fill="white">
<path fill-rule="evenodd" clip-rule="evenodd" d="M2 0C0.895431 0 0 0.895428 0 2V16.0066H0.0231641L0.0523442 21.0477C0.057325 21.9082 1.07458 22.361 1.71727 21.7888L8.2121 16.0066H20.0091C21.1137 16.0066 22.0091 15.1112 22.0091 14.0066V2C22.0091 0.895431 21.1137 0 20.0091 0H2Z"/>
</mask>
<path d="M0 16.0066H-2C-2 17.1112 -1.10457 18.0066 0 18.0066L0 16.0066ZM0.0231641 16.0066L2.02313 15.9951C2.01676 14.895 1.12322 14.0066 0.0231641 14.0066V16.0066ZM0.0523442 21.0477L2.05231 21.0361L0.0523442 21.0477ZM1.71727 21.7888L0.387385 20.295H0.387384L1.71727 21.7888ZM8.2121 16.0066V14.0066C7.72174 14.0066 7.24846 14.1868 6.88222 14.5128L8.2121 16.0066ZM2 2V2V-2C-0.209136 -2 -2 -0.209144 -2 2H2ZM2 16.0066V2H-2V16.0066H2ZM0.0231641 14.0066H0V18.0066H0.0231641V14.0066ZM2.05231 21.0361L2.02313 15.9951L-1.9768 16.0182L-1.94762 21.0593L2.05231 21.0361ZM0.387384 20.295C1.03008 19.7228 2.04733 20.1757 2.05231 21.0361L-1.94762 21.0593C-1.93268 23.6407 1.11908 24.9991 3.04715 23.2826L0.387384 20.295ZM6.88222 14.5128L0.387385 20.295L3.04715 23.2826L9.54198 17.5004L6.88222 14.5128ZM20.0091 14.0066H8.2121V18.0066H20.0091V14.0066ZM20.0091 14.0066V14.0066V18.0066C22.2183 18.0066 24.0091 16.2158 24.0091 14.0066H20.0091ZM20.0091 2V14.0066H24.0091V2H20.0091ZM20.0091 2H20.0091H24.0091C24.0091 -0.209136 22.2183 -2 20.0091 -2V2ZM2 2H20.0091V-2H2V2Z" fill="currentColor" mask="url(#path-1-inside-1_464_34)"/>
<path d="M6.0025 6.00244H16.0067" stroke="currentColor" stroke-width="2" stroke-linecap="round" stroke-linejoin="round"/>
<path d="M6.0025 10.0044H11.0052" stroke="currentColor" stroke-width="2" stroke-linecap="round" stroke-linejoin="round"/>
</svg>
