<svg width="20" height="28" viewBox="0 0 20 28" fill="none" xmlns="http://www.w3.org/2000/svg">
<path d="M16.5455 6.68732C16.2664 6.68732 15.9904 6.73493 15.7273 6.82697V5.06232C15.7284 3.7166 14.63 2.62587 13.276 2.62482C12.9649 2.62482 12.657 2.683 12.3683 2.79726C12.0114 1.4981 10.6627 0.732154 9.35438 1.08657C8.51596 1.31402 7.86077 1.96467 7.63173 2.79726C6.37249 2.30004 4.94599 2.91152 4.44627 4.16097C4.33122 4.44767 4.27262 4.75342 4.27262 5.06233V10.0771C2.99421 9.62854 1.59223 10.294 1.14062 11.5625C1.04794 11.8238 1 12.0978 1 12.375V18.0625C1 22.999 5.029 27 10 27C14.971 27 19 22.999 19 18.0625V9.12495C18.9979 7.77923 17.9006 6.68838 16.5455 6.68732ZM17.3637 18.0624C17.3637 22.1005 14.0664 25.3749 10 25.3749C5.93367 25.3749 2.6364 22.1005 2.6364 18.0624V12.3748C2.6364 11.9263 3.00289 11.5623 3.45458 11.5623C3.90627 11.5623 4.27277 11.9263 4.27277 12.3748V18.0624C4.27277 18.5109 4.63926 18.8749 5.09095 18.8749C5.54264 18.8749 5.90913 18.5109 5.90913 18.0624V5.06232C5.90913 4.61376 6.27562 4.24982 6.72731 4.24982C7.179 4.24982 7.54549 4.61376 7.54549 5.06232V13.1873C7.54549 13.6359 7.91198 13.9998 8.36367 13.9998C8.81537 13.9998 9.18186 13.6359 9.18186 13.1873V3.43731C9.18186 2.98876 9.54835 2.62481 10 2.62481C10.4517 2.62481 10.8182 2.98876 10.8182 3.43731V13.1873C10.8182 13.6359 11.1847 13.9998 11.6364 13.9998C12.0881 13.9998 12.4546 13.6359 12.4546 13.1873V5.06232C12.4546 4.61376 12.8211 4.24982 13.2728 4.24982C13.7245 4.24982 14.0909 4.61376 14.0909 5.06232V13.1873C14.0909 13.6359 14.4574 13.9998 14.9091 13.9998C15.3608 13.9998 15.7273 13.6359 15.7273 13.1873V9.12483C15.7273 8.67628 16.0938 8.31233 16.5455 8.31233C16.9972 8.31233 17.3637 8.67628 17.3637 9.12483V18.0624Z" fill="currentColor" stroke="currentColor" stroke-width="0.25"/>
</svg>
