<svg width="16" height="15" viewBox="0 0 16 15" fill="none" xmlns="http://www.w3.org/2000/svg">
<path d="M12.9361 0.375H2.88722C1.50256 0.375 0.375 1.4933 0.375 2.86658V5.85648C0.375 6.13096 0.600708 6.3548 0.877445 6.3548C5.03241 6.3548 8.41411 9.70872 8.41411 13.8296C8.41411 14.104 8.63982 14.3279 8.91656 14.3279H12.9361C14.3208 14.3279 15.4483 13.2096 15.4483 11.8363V2.86658C15.4483 1.4933 14.3208 0.375 12.9361 0.375ZM14.4434 11.8363C14.4434 12.6607 13.7673 13.3312 12.9361 13.3312H9.41398L9.36393 12.8874C8.92723 8.98861 5.75663 5.84373 1.82726 5.41268L1.37978 5.36305V2.86648C1.37978 2.04211 2.05592 1.37153 2.88712 1.37153H12.936C13.7672 1.37153 14.4433 2.04211 14.4433 2.86648L14.4434 11.8363Z" fill="currentColor" stroke="currentColor" stroke-width="0.75"/>
<path d="M0.877445 9.34473C0.600698 9.34473 0.375 9.56858 0.375 9.84304C0.375 10.1175 0.600708 10.3414 0.877445 10.3414C2.81658 10.3414 4.39456 11.9064 4.39456 13.8296C4.39456 14.1041 4.62026 14.3279 4.897 14.3279C5.17374 14.3279 5.39945 14.104 5.39945 13.8296C5.39945 11.3575 3.37201 9.34473 0.877445 9.34473Z" fill="currentColor" stroke="currentColor" stroke-width="0.75"/>
<path d="M1.37989 13.8296C1.37989 14.4944 0.375 14.4944 0.375 13.8296C0.375 13.1649 1.37989 13.1649 1.37989 13.8296Z" fill="currentColor" stroke="currentColor" stroke-width="0.75"/>
</svg>
