<svg width="18" height="18" viewBox="0 0 18 18" fill="none" xmlns="http://www.w3.org/2000/svg">
<mask id="path-1-inside-1_236_35" fill="white">
<path d="M3.84026 16.3741C2.65206 15.5427 1.68237 14.4365 1.01373 13.1496C0.34509 11.8628 -0.00268347 10.4334 1.5588e-05 8.98325C0.00271465 7.53307 0.355807 6.10501 1.02923 4.82067C1.70265 3.53632 2.67646 2.43373 3.86775 1.60676L5.1073 3.3924C4.20374 4.01963 3.46513 4.85593 2.95435 5.83007C2.44358 6.80422 2.17577 7.88736 2.17372 8.9873C2.17167 10.0872 2.43545 11.1714 2.9426 12.1474C3.44974 13.1234 4.18524 13.9625 5.08646 14.5931L3.84026 16.3741Z"/>
</mask>
<path d="M3.84026 16.3741C2.65206 15.5427 1.68237 14.4365 1.01373 13.1496C0.34509 11.8628 -0.00268347 10.4334 1.5588e-05 8.98325C0.00271465 7.53307 0.355807 6.10501 1.02923 4.82067C1.70265 3.53632 2.67646 2.43373 3.86775 1.60676L5.1073 3.3924C4.20374 4.01963 3.46513 4.85593 2.95435 5.83007C2.44358 6.80422 2.17577 7.88736 2.17372 8.9873C2.17167 10.0872 2.43545 11.1714 2.9426 12.1474C3.44974 13.1234 4.18524 13.9625 5.08646 14.5931L3.84026 16.3741Z" fill="#D9D9D9" stroke="currentColor" stroke-width="4" stroke-linejoin="round" mask="url(#path-1-inside-1_236_35)"/>
<mask id="path-2-inside-2_236_35" fill="white">
<path d="M5.796 12.8385C5.23186 12.3677 4.77845 11.7782 4.46803 11.1122C4.15762 10.4461 3.99782 9.71985 4.00002 8.98502C4.00222 8.2502 4.16637 7.52489 4.48077 6.86071C4.79517 6.19654 5.25211 5.60983 5.81905 5.14234L6.91242 6.46831C6.54035 6.77512 6.24048 7.16016 6.03414 7.59604C5.82781 8.03192 5.72009 8.50792 5.71864 8.99017C5.7172 9.47242 5.82207 9.94906 6.02578 10.3862C6.2295 10.8233 6.52707 11.2101 6.89729 11.5191L5.796 12.8385Z"/>
</mask>
<path d="M5.796 12.8385C5.23186 12.3677 4.77845 11.7782 4.46803 11.1122C4.15762 10.4461 3.99782 9.71985 4.00002 8.98502C4.00222 8.2502 4.16637 7.52489 4.48077 6.86071C4.79517 6.19654 5.25211 5.60983 5.81905 5.14234L6.91242 6.46831C6.54035 6.77512 6.24048 7.16016 6.03414 7.59604C5.82781 8.03192 5.72009 8.50792 5.71864 8.99017C5.7172 9.47242 5.82207 9.94906 6.02578 10.3862C6.2295 10.8233 6.52707 11.2101 6.89729 11.5191L5.796 12.8385Z" fill="#D9D9D9" stroke="currentColor" stroke-width="4" stroke-linejoin="round" mask="url(#path-2-inside-2_236_35)"/>
<mask id="path-3-inside-3_236_35" fill="white">
<path d="M12.0514 5.03908C12.6335 5.48753 13.1097 6.05879 13.4459 6.71218C13.7821 7.36557 13.9702 8.08505 13.9967 8.8194C14.0233 9.55375 13.8876 10.2849 13.5994 10.9609C13.3113 11.6369 12.8776 12.241 12.3294 12.7303L11.2058 11.4714C11.569 11.1472 11.8563 10.7469 12.0472 10.2991C12.2381 9.85127 12.328 9.36686 12.3104 8.88035C12.2928 8.39384 12.1682 7.91718 11.9454 7.4843C11.7227 7.05142 11.4072 6.67296 11.0216 6.37585L12.0514 5.03908Z"/>
</mask>
<path d="M12.0514 5.03908C12.6335 5.48753 13.1097 6.05879 13.4459 6.71218C13.7821 7.36557 13.9702 8.08505 13.9967 8.8194C14.0233 9.55375 13.8876 10.2849 13.5994 10.9609C13.3113 11.6369 12.8776 12.241 12.3294 12.7303L11.2058 11.4714C11.569 11.1472 11.8563 10.7469 12.0472 10.2991C12.2381 9.85127 12.328 9.36686 12.3104 8.88035C12.2928 8.39384 12.1682 7.91718 11.9454 7.4843C11.7227 7.05142 11.4072 6.67296 11.0216 6.37585L12.0514 5.03908Z" fill="#D9D9D9" stroke="currentColor" stroke-width="4" stroke-linejoin="round" mask="url(#path-3-inside-3_236_35)"/>
<mask id="path-4-inside-4_236_35" fill="white">
<path d="M13.928 1.46909C15.1415 2.26315 16.1451 3.33868 16.8534 4.60412C17.5617 5.86955 17.9538 7.28741 17.9962 8.73698C18.0385 10.1865 17.73 11.6249 17.0968 12.9295C16.4637 14.2342 15.5246 15.3665 14.3596 16.2301L13.0651 14.4839C13.9488 13.8289 14.661 12.97 15.1413 11.9805C15.6215 10.9909 15.8555 9.89997 15.8234 8.8005C15.7912 7.70104 15.4939 6.62563 14.9566 5.66582C14.4194 4.70602 13.6582 3.89025 12.7378 3.28798L13.928 1.46909Z"/>
</mask>
<path d="M13.928 1.46909C15.1415 2.26315 16.1451 3.33868 16.8534 4.60412C17.5617 5.86955 17.9538 7.28741 17.9962 8.73698C18.0385 10.1865 17.73 11.6249 17.0968 12.9295C16.4637 14.2342 15.5246 15.3665 14.3596 16.2301L13.0651 14.4839C13.9488 13.8289 14.661 12.97 15.1413 11.9805C15.6215 10.9909 15.8555 9.89997 15.8234 8.8005C15.7912 7.70104 15.4939 6.62563 14.9566 5.66582C14.4194 4.70602 13.6582 3.89025 12.7378 3.28798L13.928 1.46909Z" fill="#D9D9D9" stroke="currentColor" stroke-width="4" stroke-linejoin="round" mask="url(#path-4-inside-4_236_35)"/>
<circle cx="9" cy="9" r="2" fill="currentColor"/>
<line x1="2" y1="16" x2="16" y2="2" stroke="currentColor" stroke-width="2" stroke-linecap="round"/>
</svg>
