<svg width="22" height="23" viewBox="0 0 22 23" fill="none" xmlns="http://www.w3.org/2000/svg">
<path d="M7.89138 10.8731C10.655 10.8731 12.8954 8.69117 12.8954 5.99956C12.8954 3.30795 10.655 1.12598 7.89138 1.12598C5.12772 1.12598 2.88733 3.30795 2.88733 5.99956C2.88733 8.69117 5.12772 10.8731 7.89138 10.8731Z" stroke="currentColor" stroke-width="2" stroke-miterlimit="10"/>
<path d="M1 21.0562C1 17.3275 4.10596 14.3025 7.93449 14.3025C11.763 14.3025 14.869 17.3275 14.869 21.0562" stroke="currentColor" stroke-width="2" stroke-miterlimit="10" stroke-linecap="round"/>
<path d="M14.0224 10.7472C16.786 10.7472 19.0264 8.56519 19.0264 5.87358C19.0264 3.18198 16.786 1 14.0224 1C11.2587 1 9.01831 3.18198 9.01831 5.87358C9.01831 8.56519 11.2587 10.7472 14.0224 10.7472Z" stroke="currentColor" stroke-width="2" stroke-miterlimit="10"/>
<path d="M7.13098 20.9353C7.13098 17.2066 10.2369 14.1816 14.0655 14.1816C17.894 14.1816 21 17.2066 21 20.9353" stroke="currentColor" stroke-width="2" stroke-miterlimit="10" stroke-linecap="round"/>
</svg>
