<svg width="28" height="20" viewBox="0 0 28 20" fill="none" xmlns="http://www.w3.org/2000/svg">
<path d="M1 7.40381C1 5.19467 2.79086 3.40381 5 3.40381H11.8538V15.9715H5C2.79086 15.9715 1 14.1806 1 11.9715V7.40381Z" stroke="currentColor" stroke-width="2"/>
<path fill-rule="evenodd" clip-rule="evenodd" d="M11.8304 15.0028L16.0522 17.4915L15.912 2.0029L11.8234 4.36346C11.3894 3.79763 10.8371 3.32727 10.2035 2.98932L14.912 0.270849C16.2384 -0.494934 17.8981 0.453294 17.9119 1.9848L18.0521 17.4734C18.0662 19.029 16.3768 20.0044 15.0366 19.2144L10.2219 16.3763C10.8512 16.0372 11.3996 15.5672 11.8304 15.0028Z" fill="currentColor"/>
<path d="M20.4828 3.62476C24.7061 6.71187 23.672 14.2582 20.4828 16.6592" stroke="currentColor" stroke-width="2" stroke-linecap="round"/>
<path d="M24.2069 2.6936C28.4303 6.22173 27.3961 14.8461 24.2069 17.5902" stroke="currentColor" stroke-width="2" stroke-linecap="round"/>
</svg>
