<svg width="131" height="40" viewBox="0 0 131 40" fill="none" xmlns="http://www.w3.org/2000/svg">
<path fill-rule="evenodd" clip-rule="evenodd" d="M43.7626 21.6758V7.94073H45.0796C46.1527 7.94073 47.0225 8.80851 47.0225 9.87897V15.986C49.1332 14.1073 50.9281 13.3553 53.3204 13.3071C57.9088 13.2134 61.8912 16.6132 62.2695 21.1764C62.7218 26.6279 58.7479 30.7314 53.5708 30.7314C47.8873 30.7314 43.7626 27.2153 43.7626 21.6758ZM46.9685 22.7542C47.2899 25.5921 50.0065 27.9361 52.871 27.9815C56.6031 28.0383 59.1462 25.6119 59.1462 22.0221C59.1462 18.4322 56.66 16.0626 53.0331 16.0626C49.156 16.0541 46.5276 18.8636 46.9685 22.7542V22.7542Z" fill="#5E6175"/>
<path fill-rule="evenodd" clip-rule="evenodd" d="M67.7084 13.6504V16.0966C69.7593 13.8264 70.974 13.2162 73.3748 13.2162C74.0732 13.217 74.7704 13.273 75.4599 13.3837V16.633C74.7242 16.4312 73.9643 16.33 73.2013 16.3322C71.4633 16.3322 70.004 16.8997 68.9344 17.9724C67.9957 18.9118 67.7169 19.6468 67.7169 21.1224V30.1694H64.3376V13.6504H67.7084Z" fill="#5E6175"/>
<path fill-rule="evenodd" clip-rule="evenodd" d="M76.262 19.1132C76.4355 17.5042 76.7484 16.633 77.4425 15.7958C78.8335 14.0931 81.3368 13.2162 84.8811 13.2162C87.6973 13.2162 89.7482 13.6533 91.1734 14.5897C92.3567 15.3588 92.8431 16.4996 92.8431 18.5088V25.8446C92.8431 27.4536 93.2613 28.0212 94.4076 27.99C94.6638 27.981 94.9192 27.9582 95.1728 27.9219V30.1326C94.603 30.3268 94.0027 30.4172 93.4007 30.3993C91.2814 30.3993 90.3086 29.7636 89.6487 27.919C87.5636 29.8289 85.4074 30.632 82.3153 30.632C78.1793 30.632 75.6419 28.7562 75.6419 25.7055C75.6238 23.9659 76.6496 22.3839 78.2475 21.6872C79.4992 21.1508 80.2644 20.9834 83.8428 20.6145C86.9008 20.3137 87.4242 20.2455 88.2918 19.9759C89.2305 19.6751 89.6487 19.1728 89.6487 18.3357C89.6487 16.5592 88.1552 15.7561 85.0262 15.7561C82.0678 15.7561 80.5431 16.3407 79.9315 17.8334C79.6286 18.5967 78.8912 19.0999 78.0683 19.1047L76.262 19.1132ZM89.6316 21.9283C87.4876 22.5504 85.2861 22.9545 83.0606 23.1344C80.0368 23.4352 79.098 24.0056 79.098 25.5125C79.098 27.1869 80.489 28.0666 83.2341 28.0666C85.4927 28.0666 87.1966 27.499 88.4141 26.3923C89.3869 25.487 89.6316 24.8513 89.6316 23.2706V21.9283Z" fill="#5E6175"/>
<path fill-rule="evenodd" clip-rule="evenodd" d="M103.331 30.1666H102.461C101.694 30.1714 100.992 29.7366 100.657 29.0485L93.3666 13.6504H95.392C96.5722 13.641 97.6466 14.3278 98.1313 15.4014L102.996 26.4689L108.022 15.3588C108.514 14.3021 109.579 13.6298 110.747 13.6391H112.588L105.126 29.0655C104.787 29.7442 104.091 30.1714 103.331 30.1666V30.1666Z" fill="#5E6175"/>
<path fill-rule="evenodd" clip-rule="evenodd" d="M114.872 22.8648C115.219 26.0489 117.716 28.024 121.44 28.024C123.553 28.024 125.138 27.3969 126.119 26.1454C126.692 25.4277 127.561 25.0098 128.48 25.0102H130.44C128.733 28.7618 125.678 30.6064 121.124 30.6064C115.435 30.6064 111.6 27.1556 111.6 21.9965C111.6 16.8373 115.529 13.219 121.195 13.219C125.294 13.219 128.591 15.0608 129.92 18.1455C130.511 19.5644 130.753 20.8244 130.753 22.8677L114.872 22.8648ZM127.314 20.3108C126.549 17.3963 124.29 15.7532 121.161 15.7532C118.032 15.7532 115.773 17.3963 114.974 20.3108H127.314Z" fill="#5E6175"/>
<path fill-rule="evenodd" clip-rule="evenodd" d="M33.3074 9.57576L34.2447 7.27789C34.2447 7.27789 33.0518 6.00129 31.6034 4.55448C30.155 3.10767 27.0877 3.95874 27.0877 3.95874L23.5944 1.52588e-05H17.4598H11.3252L7.83192 3.95874C7.83192 3.95874 4.76464 3.10767 3.31619 4.55448C1.86775 6.00129 0.674919 7.27789 0.674919 7.27789L1.61215 9.57576L0.419312 12.98C0.419312 12.98 3.92752 26.2528 4.33862 27.8736C5.14805 31.0651 5.70186 32.2992 8.00233 33.9162C10.3028 35.5332 14.4777 38.3417 15.1593 38.7672C15.841 39.1928 16.693 39.9176 17.4598 39.9176C18.2266 39.9176 19.0786 39.1928 19.7603 38.7672C20.4419 38.3417 24.6168 35.5332 26.9173 33.9162C29.2177 32.2992 29.7715 31.0651 30.581 27.8736C30.992 26.2528 34.5003 12.98 34.5003 12.98L33.3074 9.57576Z" fill="url(#paint0_linear)"/>
<path fill-rule="evenodd" clip-rule="evenodd" d="M21.8051 7.19276C22.3163 7.19276 26.1078 6.46935 26.1078 6.46935C26.1078 6.46935 30.6011 11.8949 30.6011 13.0545C30.6011 14.0132 30.2147 14.3885 29.7596 14.8304C29.6643 14.923 29.566 15.0185 29.4675 15.1229L26.0985 18.6964C26.0651 18.7318 26.0279 18.7692 25.9885 18.8087C25.6523 19.1464 25.1571 19.6438 25.5065 20.4698C25.5298 20.525 25.5539 20.5811 25.5782 20.6381C25.9613 21.533 26.4343 22.6377 25.8323 23.7573C25.1919 24.9481 24.0949 25.7429 23.392 25.6115C22.6891 25.48 21.0383 24.6183 20.4312 24.2247C19.8242 23.8311 17.9001 22.246 17.9001 21.6396C17.9001 21.1338 19.2838 20.2923 19.9561 19.8835C20.0899 19.8022 20.1954 19.738 20.2564 19.6969C20.3258 19.6502 20.4419 19.5782 20.5847 19.4895C21.1984 19.1087 22.3064 18.4211 22.3342 18.1162C22.3685 17.7403 22.3554 17.6301 21.8608 16.7014C21.7557 16.504 21.6326 16.2924 21.5054 16.0738C21.0344 15.2644 20.5071 14.358 20.6238 13.7088C20.7556 12.9758 21.9053 12.5556 22.8791 12.1997C23.0008 12.1552 23.1198 12.1117 23.2337 12.0688C23.5179 11.9616 23.875 11.8279 24.2481 11.6884C25.2204 11.3246 26.3007 10.9203 26.4789 10.8383C26.7256 10.7247 26.6618 10.6165 25.9149 10.5458C25.816 10.5364 25.6932 10.5234 25.5522 10.5084C24.6275 10.4103 22.9221 10.2292 22.093 10.4601C21.9299 10.5055 21.7471 10.5549 21.5555 10.6068C20.624 10.8587 19.4824 11.1675 19.3728 11.3455C19.3536 11.3767 19.3347 11.4034 19.3169 11.4287C19.212 11.5777 19.1436 11.6748 19.2597 12.3078C19.2942 12.4963 19.3653 12.8671 19.4532 13.3256C19.7105 14.6679 20.1119 16.7618 20.1624 17.2322C20.1695 17.298 20.1773 17.3615 20.1848 17.4226C20.2492 17.9474 20.292 18.2966 19.6819 18.436C19.6311 18.4476 19.5777 18.4598 19.5222 18.4725C18.8338 18.6303 17.8245 18.8617 17.4598 18.8617C17.095 18.8617 16.0849 18.6301 15.3964 18.4723C15.3413 18.4597 15.2882 18.4475 15.2377 18.436C14.6275 18.2966 14.6703 17.9474 14.7347 17.4226C14.7422 17.3615 14.75 17.298 14.7571 17.2322C14.8078 16.7611 15.2101 14.6621 15.4674 13.32C15.5548 12.8641 15.6255 12.4956 15.6599 12.3078C15.7759 11.6749 15.7075 11.5777 15.6027 11.4288C15.5849 11.4035 15.566 11.3767 15.5468 11.3455C15.4372 11.1675 14.2957 10.8588 13.3642 10.6068C13.1725 10.555 12.9896 10.5055 12.8265 10.4601C11.9974 10.2293 10.2922 10.4102 9.3675 10.5084C9.22642 10.5234 9.10351 10.5364 9.00464 10.5458C8.25776 10.6165 8.19403 10.7247 8.4406 10.8383C8.61876 10.9203 9.69853 11.3243 10.6706 11.688C11.044 11.8277 11.4015 11.9615 11.6859 12.0688C11.7998 12.1117 11.9188 12.1552 12.0406 12.1998C13.0144 12.5557 14.164 12.9759 14.2958 13.7088C14.4125 14.3579 13.8853 15.2641 13.4144 16.0735C13.2871 16.2922 13.164 16.5038 13.0587 16.7014C12.5641 17.6301 12.551 17.7403 12.5854 18.1162C12.6131 18.421 13.7207 19.1084 14.3344 19.4893C14.4775 19.5781 14.5937 19.6502 14.6631 19.6969C14.724 19.7379 14.8295 19.8021 14.9631 19.8833C15.6353 20.2921 17.0194 21.1337 17.0194 21.6396C17.0194 22.246 15.0954 23.8311 14.4884 24.2247C13.8813 24.6183 12.2305 25.48 11.5276 25.6115C10.8247 25.7429 9.72767 24.9481 9.08729 23.7573C8.48536 22.6378 8.95816 21.5332 9.34118 20.6383C9.36559 20.5812 9.38964 20.5251 9.41302 20.4698C9.76248 19.6437 9.26719 19.1463 8.93086 18.8086C8.89154 18.7691 8.8544 18.7318 8.82103 18.6964L5.45196 15.1229C5.35355 15.0185 5.25524 14.923 5.15994 14.8305C4.70488 14.3885 4.31851 14.0132 4.31851 13.0545C4.31851 11.8949 8.81175 6.46935 8.81175 6.46935C8.81175 6.46935 12.6033 7.19276 13.1145 7.19276C13.5224 7.19276 14.3101 6.92181 15.1312 6.63935C15.3391 6.56783 15.5492 6.49558 15.7557 6.4268C16.7782 6.08638 17.4598 6.08391 17.4598 6.08391C17.4598 6.08391 18.1414 6.08638 19.1638 6.4268C19.3704 6.49558 19.5805 6.56784 19.7884 6.63935C20.6095 6.92181 21.3972 7.19276 21.8051 7.19276ZM21.1543 26.3835C21.9558 26.796 22.5244 27.0887 22.7394 27.2231C23.0175 27.397 22.8479 27.725 22.5946 27.9038C22.3412 28.0827 18.9364 30.7163 18.606 31.0073C18.5637 31.0446 18.5189 31.0849 18.4722 31.127C18.1538 31.4136 17.7477 31.7793 17.4598 31.7793C17.1717 31.7793 16.7654 31.4133 16.447 31.1267C16.4004 31.0847 16.3557 31.0445 16.3135 31.0073C15.983 30.7163 12.5784 28.0827 12.325 27.9038C12.0716 27.725 11.902 27.397 12.1801 27.2231C12.3953 27.0886 12.9644 26.7957 13.7667 26.3827C14.0019 26.2617 14.2571 26.1303 14.5292 25.9896C15.7298 25.369 17.2262 24.8414 17.4598 24.8414C17.6933 24.8414 19.1896 25.369 20.3904 25.9896C20.6631 26.1306 20.9188 26.2622 21.1543 26.3835Z" fill="white"/>
<path fill-rule="evenodd" clip-rule="evenodd" d="M27.0877 3.95874L23.5944 1.52588e-05H17.4598H11.3252L7.83192 3.95874C7.83192 3.95874 4.76463 3.10767 3.31619 4.55448C3.31619 4.55448 7.40591 4.18572 8.81175 6.46938C8.81175 6.46938 12.6033 7.19278 13.1145 7.19278C13.6257 7.19278 14.7333 6.76725 15.7557 6.42682C16.7782 6.0864 17.4598 6.08393 17.4598 6.08393C17.4598 6.08393 18.1414 6.0864 19.1638 6.42682C20.1863 6.76725 21.2939 7.19278 21.8051 7.19278C22.3163 7.19278 26.1078 6.46938 26.1078 6.46938C27.5137 4.18572 31.6034 4.55448 31.6034 4.55448C30.155 3.10767 27.0877 3.95874 27.0877 3.95874" fill="url(#paint1_linear)"/>
<mask id="mask0" mask-type="alpha" maskUnits="userSpaceOnUse" x="3" y="0" width="29" height="8">
<path fill-rule="evenodd" clip-rule="evenodd" d="M27.0877 3.95874L23.5944 1.52588e-05H17.4598H11.3252L7.83192 3.95874C7.83192 3.95874 4.76463 3.10767 3.31619 4.55448C3.31619 4.55448 7.40591 4.18572 8.81175 6.46938C8.81175 6.46938 12.6033 7.19278 13.1145 7.19278C13.6257 7.19278 14.7333 6.76725 15.7557 6.42682C16.7782 6.0864 17.4598 6.08393 17.4598 6.08393C17.4598 6.08393 18.1414 6.0864 19.1638 6.42682C20.1863 6.76725 21.2939 7.19278 21.8051 7.19278C22.3163 7.19278 26.1078 6.46938 26.1078 6.46938C27.5137 4.18572 31.6034 4.55448 31.6034 4.55448C30.155 3.10767 27.0877 3.95874 27.0877 3.95874" fill="white"/>
</mask>
<g mask="url(#mask0)">
</g>
<defs>
<linearGradient id="paint0_linear" x1="0.419312" y1="40.1993" x2="34.5003" y2="40.1993" gradientUnits="userSpaceOnUse">
<stop stop-color="#FF5500"/>
<stop offset="0.409877" stop-color="#FF5500"/>
<stop offset="0.581981" stop-color="#FF2000"/>
<stop offset="1" stop-color="#FF2000"/>
</linearGradient>
<linearGradient id="paint1_linear" x1="3.92393" y1="7.16626" x2="31.6034" y2="7.16626" gradientUnits="userSpaceOnUse">
<stop stop-color="#FF452A"/>
<stop offset="1" stop-color="#FF2000"/>
</linearGradient>
</defs>
</svg>
