<?xml version="1.0" encoding="utf-8"?>
<!-- Generator: Adobe Illustrator 23.0.4, SVG Export Plug-In . SVG Version: 6.00 Build 0)  -->
<svg version="1.1" id="Ebene_1" xmlns="http://www.w3.org/2000/svg" xmlns:xlink="http://www.w3.org/1999/xlink" x="0px" y="0px"
	 viewBox="0 0 506 133" style="enable-background:new 0 0 506 133;" xml:space="preserve">
<style type="text/css">
	.st0{fill:#3A4A66;}
	.st1{fill:url(#SVGID_1_);}
</style>
<g>
	<g>
		<path class="st0" d="M181.16,86.17c2.87,0,5.75-0.92,7.93-2.3c1.27-0.81,2.42-1.5,3.79-1.5c3.34,0,5.4,2.88,5.4,5.64
			c0,2.07-1.26,3.56-2.99,4.71c-3.79,2.76-9.54,4.14-14.49,4.14c-14.37,0-25.29-10.58-25.29-26.67c0-15.75,10.46-26.56,25.29-26.56
			c4.83,0,10.46,1.15,14.49,3.91c2.07,1.38,2.99,2.87,2.99,4.6c0,2.64-1.84,5.98-5.29,5.98c-1.27,0-2.19-0.58-3.91-1.5
			c-2.53-1.49-4.83-2.3-7.93-2.3c-8.28,0-12.88,5.98-12.88,15.64C168.28,79.5,172.76,86.17,181.16,86.17z"/>
		<path class="st0" d="M226.68,54.09c-3.45,0-6.67,1.03-9.54,2.53c-1.95,1.04-2.99,1.84-4.37,1.84c-3.22,0-5.06-3.45-5.06-5.98
			c0-1.73,1.03-3.22,3.79-4.83c4.6-2.64,10.35-4.02,16.44-4.02c8.28,0,13.34,2.3,16.56,6.21c2.3,2.76,3.33,7.01,3.33,12.65v28.74
			c0,3.56-1.38,5.29-5.86,5.29c-3.68,0-5.52-1.15-5.52-3.68v-2.07c-3.45,3.91-8.39,5.86-14.6,5.86c-10.35,0-16.44-5.75-16.44-14.72
			c0-10.46,8.62-16.44,30.35-18.05v-1.15C235.77,56.96,233.12,54.09,226.68,54.09z M218.52,80.88c0,3.22,2.19,5.75,7.47,5.75
			c3.33,0,6.67-1.15,9.77-3.56V71.91C224.16,73.29,218.52,75.47,218.52,80.88z"/>
		<path class="st0" d="M274.86,91.45c0,3.34-2.07,5.06-6.21,5.06c-4.14,0-6.21-1.72-6.21-5.06V22.7c0-3.33,2.07-5.06,6.21-5.06
			c4.14,0,6.21,1.73,6.21,5.06V91.45z"/>
		<path class="st0" d="M331.65,87.78c0,1.84-1.15,3.45-3.56,4.94c-4.37,2.76-9.77,4.14-16.1,4.14c-15.87,0-25.29-10-25.29-26.45
			c0-16.33,9.31-27.02,23.8-27.02c13.57,0,22.42,9.54,22.42,22.76c0,7.24-2.99,8.05-7.36,8.05H299c1.15,7.59,5.4,12.07,13.57,12.07
			c3.56,0,6.9-0.81,9.66-2.41c1.61-0.92,2.87-1.61,4.25-1.61C330.04,82.26,331.65,85.48,331.65,87.78z M298.88,65.13h21.96
			c0-6.9-3.56-11.84-10.58-11.84C303.83,53.28,299.92,57.54,298.88,65.13z"/>
		<path class="st0" d="M356.48,49.03v2.53c3.1-4.72,8.51-7.82,15.98-7.82c6.32,0,11.5,1.96,14.83,6.9c2.19,3.22,3.22,7.7,3.22,13.45
			v27.36c0,3.34-2.07,5.06-6.21,5.06c-4.14,0-6.21-1.72-6.21-5.06V66.16c0-3.1-0.46-5.86-1.84-7.82c-1.73-2.53-4.48-3.68-8.16-3.68
			c-5.06,0-8.62,2.3-10.92,5.29v31.5c0,3.34-2.07,5.06-6.21,5.06s-6.21-1.72-6.21-5.06V49.03c0-3.33,1.95-5.06,5.98-5.06
			C354.99,43.97,356.6,46.04,356.48,49.03z"/>
		<path class="st0" d="M402.24,58.8c0-9.08,7.13-15.18,19.09-15.18c5.63,0,11.15,1.38,15.06,3.68c2.64,1.61,3.8,3.22,3.8,5.18
			c0,2.41-1.84,5.86-5.17,5.86c-1.15,0-2.3-0.57-4.6-1.73c-3.1-1.61-6.21-2.53-9.54-2.53c-4.25,0-6.67,1.73-6.67,4.37
			c0,7.93,26.67,4.83,26.67,22.77c0,9.54-7.36,15.64-19.43,15.64c-5.86,0-11.38-1.38-15.87-4.25c-2.53-1.61-3.8-3.33-3.8-5.29
			c0-2.41,1.96-5.86,5.4-5.86c1.27,0,2.19,0.69,4.02,1.73c3.56,1.95,6.44,3.22,10.35,3.22c4.37,0,7.24-1.84,7.24-4.83
			C428.8,73.29,402.24,76.39,402.24,58.8z"/>
		<path class="st0" d="M475.25,43.4c15.87,0,25.75,10.58,25.75,26.67c0,16.44-10.23,27.02-25.98,27.02
			c-15.87,0-25.76-10.58-25.76-26.67C449.26,53.97,459.49,43.4,475.25,43.4z M475.25,86.97c7.93,0,12.99-6.44,12.99-16.56
			c0-10.46-5.18-17.01-13.22-17.01c-7.93,0-12.99,6.55-12.99,16.67C462.02,80.53,467.2,86.97,475.25,86.97z"/>
	</g>
	<linearGradient id="SVGID_1_" gradientUnits="userSpaceOnUse" x1="12.8527" y1="26.0533" x2="127.3906" y2="117.2953">
		<stop  offset="0" style="stop-color:#7676FF"/>
		<stop  offset="1" style="stop-color:#76B1FF"/>
	</linearGradient>
	<path class="st1" d="M119.42,17.15h-1.14v-2.86c0-3.36-2.72-6.08-6.08-6.08s-6.08,2.72-6.08,6.08v2.86h-11.4v-2.86
		c0-3.36-2.72-6.08-6.08-6.08c-3.36,0-6.08,2.72-6.08,6.08v2.86H58.24v-2.86c0-3.36-2.72-6.08-6.08-6.08
		c-3.36,0-6.08,2.72-6.08,6.08v2.86h-11.4v-2.86c0-3.36-2.72-6.08-6.08-6.08c-3.36,0-6.08,2.72-6.08,6.08v2.86h-1.14
		c-6.93,0-12.54,5.61-12.54,12.54v87.12c0,5.41,4.38,9.79,9.79,9.79h74.8c4.15,0,8.13-1.65,11.07-4.58l22.88-22.85
		c2.94-2.94,4.59-6.92,4.59-11.08v-58.4C131.96,22.77,126.35,17.15,119.42,17.15z M110.76,58.86l-41.8,41.8
		c-2.22,2.23-5.14,3.34-8.06,3.34c-2.92,0-5.84-1.11-8.06-3.34l-22.8-22.8c-4.45-4.45-4.45-11.67,0-16.12
		c4.45-4.45,11.67-4.45,16.12,0L60.9,76.48l33.74-33.74c4.45-4.45,11.67-4.45,16.12,0C115.22,47.19,115.22,54.41,110.76,58.86z"/>
</g>
</svg>
