<?xml version="1.0" encoding="UTF-8"?>
<svg width="493px" height="119px" viewBox="0 0 493 119" version="1.1" xmlns="http://www.w3.org/2000/svg" xmlns:xlink="http://www.w3.org/1999/xlink">
    <defs>
        <linearGradient x1="3.25891334%" y1="17.7090643%" x2="96.2808414%" y2="88.9586032%" id="linearGradient-1">
            <stop stop-color="#7676FF" offset="0%"></stop>
            <stop stop-color="#76B1FF" offset="100%"></stop>
        </linearGradient>
    </defs>
    <g id="Page-1" stroke="none" stroke-width="1" fill="none" fill-rule="evenodd">
        <g id="Group-2">
            <rect id="Rectangle" fill="#FFFFFF" x="12" y="19" width="96" height="81"></rect>
            <g id="calenso_logo_new" fill-rule="nonzero">
                <g id="Group" transform="translate(147.000000, 9.000000)" fill="#3A4A66">
                    <path d="M26.16,69.17 C29.03,69.17 31.91,68.25 34.09,66.87 C35.36,66.06 36.51,65.37 37.88,65.37 C41.22,65.37 43.28,68.25 43.28,71.01 C43.28,73.08 42.02,74.57 40.29,75.72 C36.5,78.48 30.75,79.86 25.8,79.86 C11.43,79.86 0.51,69.28 0.51,53.19 C0.51,37.44 10.97,26.63 25.8,26.63 C30.63,26.63 36.26,27.78 40.29,30.54 C42.36,31.92 43.28,33.41 43.28,35.14 C43.28,37.78 41.44,41.12 37.99,41.12 C36.72,41.12 35.8,40.54 34.08,39.62 C31.55,38.13 29.25,37.32 26.15,37.32 C17.87,37.32 13.27,43.3 13.27,52.96 C13.28,62.5 17.76,69.17 26.16,69.17 Z" id="Path"></path>
                    <path d="M71.68,37.09 C68.23,37.09 65.01,38.12 62.14,39.62 C60.19,40.66 59.15,41.46 57.77,41.46 C54.55,41.46 52.71,38.01 52.71,35.48 C52.71,33.75 53.74,32.26 56.5,30.65 C61.1,28.01 66.85,26.63 72.94,26.63 C81.22,26.63 86.28,28.93 89.5,32.84 C91.8,35.6 92.83,39.85 92.83,45.49 L92.83,74.23 C92.83,77.79 91.45,79.52 86.97,79.52 C83.29,79.52 81.45,78.37 81.45,75.84 L81.45,73.77 C78,77.68 73.06,79.63 66.85,79.63 C56.5,79.63 50.41,73.88 50.41,64.91 C50.41,54.45 59.03,48.47 80.76,46.86 L80.76,45.71 C80.77,39.96 78.12,37.09 71.68,37.09 Z M63.52,63.88 C63.52,67.1 65.71,69.63 70.99,69.63 C74.32,69.63 77.66,68.48 80.76,66.07 L80.76,54.91 C69.16,56.29 63.52,58.47 63.52,63.88 Z" id="Shape"></path>
                    <path d="M119.86,74.45 C119.86,77.79 117.79,79.51 113.65,79.51 C109.51,79.51 107.44,77.79 107.44,74.45 L107.44,5.7 C107.44,2.37 109.51,0.64 113.65,0.64 C117.79,0.64 119.86,2.37 119.86,5.7 L119.86,74.45 Z" id="Path"></path>
                    <path d="M176.65,70.78 C176.65,72.62 175.5,74.23 173.09,75.72 C168.72,78.48 163.32,79.86 156.99,79.86 C141.12,79.86 131.7,69.86 131.7,53.41 C131.7,37.08 141.01,26.39 155.5,26.39 C169.07,26.39 177.92,35.93 177.92,49.15 C177.92,56.39 174.93,57.2 170.56,57.2 L144,57.2 C145.15,64.79 149.4,69.27 157.57,69.27 C161.13,69.27 164.47,68.46 167.23,66.86 C168.84,65.94 170.1,65.25 171.48,65.25 C175.04,65.26 176.65,68.48 176.65,70.78 Z M143.88,48.13 L165.84,48.13 C165.84,41.23 162.28,36.2899824 155.26,36.2899824 C148.83,36.28 144.92,40.54 143.88,48.13 Z" id="Shape"></path>
                    <path d="M201.48,32.03 L201.48,34.56 C204.58,29.84 209.99,26.74 217.46,26.74 C223.78,26.74 228.96,28.7 232.29,33.64 C234.48,36.86 235.51,41.34 235.51,47.09 L235.51,74.45 C235.51,77.79 233.44,79.51 229.3,79.51 C225.16,79.51 223.09,77.79 223.09,74.45 L223.09,49.16 C223.09,46.06 222.63,43.3 221.25,41.34 C219.52,38.81 216.77,37.66 213.09,37.66 C208.03,37.66 204.47,39.96 202.17,42.95 L202.17,74.45 C202.17,77.79 200.1,79.51 195.96,79.51 C191.82,79.51 189.75,77.79 189.75,74.45 L189.75,32.03 C189.75,28.7 191.7,26.97 195.73,26.97 C199.99,26.97 201.6,29.04 201.48,32.03 Z" id="Path"></path>
                    <path d="M247.24,41.8 C247.24,32.72 254.37,26.62 266.33,26.62 C271.96,26.62 277.48,28 281.39,30.3 C284.03,31.91 285.19,33.52 285.19,35.48 C285.19,37.89 283.35,41.34 280.02,41.34 C278.87,41.34 277.72,40.77 275.42,39.61 C272.32,38 269.21,37.08 265.88,37.08 C261.63,37.08 259.21,38.81 259.21,41.45 C259.21,49.38 285.88,46.28 285.88,64.22 C285.88,73.76 278.52,79.86 266.45,79.86 C260.59,79.86 255.07,78.48 250.58,75.61 C248.05,74 246.78,72.28 246.78,70.32 C246.78,67.91 248.74,64.46 252.18,64.46 C253.45,64.46 254.37,65.15 256.2,66.19 C259.76,68.14 262.64,69.41 266.55,69.41 C270.92,69.41 273.79,67.57 273.79,64.58 C273.8,56.29 247.24,59.39 247.24,41.8 Z" id="Path"></path>
                    <path d="M320.25,26.4 C336.12,26.4 346,36.98 346,53.07 C346,69.51 335.77,80.09 320.02,80.09 C304.15,80.09 294.26,69.51 294.26,53.42 C294.26,36.97 304.49,26.4 320.25,26.4 Z M320.25,69.97 C328.18,69.97 333.24,63.53 333.24,53.41 C333.24,42.95 328.06,36.4 320.02,36.4 C312.09,36.4 307.029986,42.95 307.029986,53.07 C307.02,63.53 312.2,69.97 320.25,69.97 Z" id="Shape"></path>
                </g>
                <path d="M111.42,9.15 L110.28,9.15 L110.28,6.29 C110.28,2.93 107.56,0.21 104.2,0.21 C100.84,0.21 98.12,2.93 98.12,6.29 L98.12,9.15 L86.72,9.15 L86.72,6.29 C86.72,2.93 84,0.21 80.64,0.21 C77.28,0.21 74.56,2.93 74.56,6.29 L74.56,9.15 L50.24,9.15 L50.24,6.29 C50.24,2.93 47.52,0.21 44.16,0.21 C40.8,0.21 38.08,2.93 38.08,6.29 L38.08,9.15 L26.68,9.15 L26.68,6.29 C26.68,2.93 23.96,0.21 20.6,0.21 C17.24,0.21 14.52,2.93 14.52,6.29 L14.52,9.15 L13.38,9.15 C6.45,9.15 0.84,14.76 0.84,21.69 L0.84,108.81 C0.84,114.22 5.22,118.6 10.63,118.6 L85.43,118.6 C89.58,118.6 93.56,116.95 96.5,114.02 L119.38,91.17 C122.32,88.23 123.97,84.25 123.97,80.09 L123.97,21.69 C123.96,14.77 118.35,9.15 111.42,9.15 Z M102.76,50.86 L60.96,92.66 C58.74,94.89 55.82,96 52.9,96 C49.98,96 47.06,94.89 44.84,92.66 L22.04,69.86 C17.59,65.41 17.59,58.19 22.04,53.74 C26.49,49.29 33.71,49.29 38.16,53.74 L52.9,68.48 L86.64,34.74 C91.09,30.29 98.31,30.29 102.76,34.74 C107.22,39.19 107.22,46.41 102.76,50.86 Z" id="Shape" fill="url(#linearGradient-1)"></path>
            </g>
        </g>
    </g>
</svg>