<svg width="68" height="72" viewBox="0 0 68 72" fill="none" xmlns="http://www.w3.org/2000/svg">
<rect x="1" y="5.64514" width="65.3548" height="65.3548" rx="7" stroke="#A4B8D1" stroke-width="2"/>
<rect y="23.2258" width="67.3548" height="2.0213" fill="#A4B8D1"/>
<rect x="14.5161" width="2.32258" height="14.5161" fill="#A4B8D1"/>
<rect x="11.6129" y="12.1935" width="8.12903" height="2.32258" fill="#A4B8D1"/>
<rect x="50.5161" width="2.32258" height="14.5161" fill="#A4B8D1"/>
<rect x="47.6129" y="12.1935" width="8.12903" height="2.32258" fill="#A4B8D1"/>
<circle cx="24.387" cy="37.7419" r="2.32258" fill="#A4B8D1"/>
<circle cx="33.6774" cy="37.7419" r="2.32258" fill="#A4B8D1"/>
<circle cx="42.9677" cy="37.7419" r="2.32258" fill="#A4B8D1"/>
<circle cx="52.258" cy="37.7419" r="2.32258" fill="#A4B8D1"/>
<circle cx="24.387" cy="47.0322" r="2.32258" fill="#A4B8D1"/>
<circle cx="15.0968" cy="47.0322" r="2.32258" fill="#A4B8D1"/>
<circle cx="33.6774" cy="47.0322" r="2.32258" fill="#A4B8D1"/>
<circle cx="42.9677" cy="47.0322" r="2.32258" fill="#A4B8D1"/>
<circle cx="24.387" cy="56.3226" r="2.32258" fill="#A4B8D1"/>
<circle cx="15.0968" cy="56.3226" r="2.32258" fill="#A4B8D1"/>
<circle cx="33.6774" cy="56.3226" r="2.32258" fill="#A4B8D1"/>
<circle cx="42.9677" cy="56.3226" r="2.32258" fill="#A4B8D1"/>
<circle cx="52.258" cy="47.0322" r="2.32258" fill="#A4B8D1"/>
</svg>
