<svg xmlns="http://www.w3.org/2000/svg" width="68" height="72" fill="none" viewBox="0 0 68 72"><rect width="65.355" height="65.355" x="1" y="5.645" stroke="#A4B8D1" stroke-width="2" rx="7"/><rect width="67.355" height="2.021" y="23.226" fill="#A4B8D1"/><rect width="2.323" height="14.516" x="14.516" fill="#A4B8D1"/><rect width="8.129" height="2.323" x="11.613" y="12.194" fill="#A4B8D1"/><rect width="2.323" height="14.516" x="50.516" fill="#A4B8D1"/><rect width="8.129" height="2.323" x="47.613" y="12.194" fill="#A4B8D1"/><circle cx="24.387" cy="37.742" r="2.323" fill="#A4B8D1"/><circle cx="33.677" cy="37.742" r="2.323" fill="#A4B8D1"/><circle cx="42.968" cy="37.742" r="2.323" fill="#A4B8D1"/><circle cx="52.258" cy="37.742" r="2.323" fill="#A4B8D1"/><circle cx="24.387" cy="47.032" r="2.323" fill="#A4B8D1"/><circle cx="15.097" cy="47.032" r="2.323" fill="#A4B8D1"/><circle cx="33.677" cy="47.032" r="2.323" fill="#A4B8D1"/><circle cx="42.968" cy="47.032" r="2.323" fill="#A4B8D1"/><circle cx="24.387" cy="56.323" r="2.323" fill="#A4B8D1"/><circle cx="15.097" cy="56.323" r="2.323" fill="#A4B8D1"/><circle cx="33.677" cy="56.323" r="2.323" fill="#A4B8D1"/><circle cx="42.968" cy="56.323" r="2.323" fill="#A4B8D1"/><circle cx="52.258" cy="47.032" r="2.323" fill="#A4B8D1"/></svg>