<svg width="24" height="24" viewBox="0 0 24 24" fill="none" xmlns="http://www.w3.org/2000/svg">
<path fill-rule="evenodd" clip-rule="evenodd" d="M12 21.2293C11.9002 21.2293 11.7997 21.2275 11.6986 21.224L10.3282 23.3117C9.97495 23.8499 9.30655 24.106 8.68566 23.927C6.80094 23.3909 5.08586 22.4064 3.6805 21.0646C3.20967 20.6137 3.09817 19.9056 3.39337 19.3292L4.53245 17.106C4.42912 16.9416 4.33151 16.7743 4.23979 16.6042L1.72227 16.4708C1.07881 16.44 0.521388 15.9956 0.361081 15.3658C0.122987 14.4213 0 13.4601 0 12.4917C0 11.5234 0.122987 10.5622 0.361612 9.61564C0.521388 8.98794 1.07881 8.54347 1.71742 8.51294L4.23979 8.37926C4.33151 8.20917 4.42912 8.04187 4.53245 7.8775L3.39332 5.65416C3.09817 5.07792 3.20967 4.36984 3.68161 3.91781C5.08586 2.57713 6.80094 1.59261 8.68248 1.05737C9.30655 0.877462 9.97495 1.13355 10.3281 1.67171L11.6986 3.75951C11.7997 3.75599 11.9002 3.75421 12 3.75421C12.0998 3.75421 12.2003 3.75599 12.3014 3.75951L13.6718 1.6718C14.0251 1.13351 14.6931 0.877876 15.3155 1.0565C17.1994 1.59273 18.9144 2.57734 20.3195 3.91886C20.7898 4.36933 20.9002 5.07559 20.6066 5.65426L19.4674 7.8777C19.5704 8.04174 19.6679 8.20896 19.7597 8.37923L22.2779 8.5127C22.9204 8.54356 23.4786 8.98806 23.6389 9.61773C23.877 10.5622 24 11.5234 24 12.4917C24 13.4601 23.877 14.4213 23.6384 15.3679C23.4786 15.9954 22.9204 16.4399 22.2826 16.4706L19.7597 16.6043C19.6679 16.7745 19.5704 16.9418 19.4674 17.1058L20.6083 19.3326C20.9002 19.9079 20.7898 20.6142 20.3184 21.0657C18.9144 22.4062 17.1994 23.3908 15.3175 23.9264C14.6931 24.1056 14.0251 23.85 13.6719 23.3118L12.3014 21.224C12.2003 21.2275 12.0998 21.2293 12 21.2293ZM8.91769 22.0331L10.4267 19.7342C10.6179 19.443 10.9545 19.2813 11.3013 19.314C11.5422 19.3368 11.7749 19.3485 12 19.3485C12.2251 19.3485 12.4578 19.3368 12.6987 19.314C13.0455 19.2813 13.3821 19.443 13.5733 19.7342L15.0825 22.0334C16.4624 21.5971 17.7266 20.873 18.7934 19.9149L17.5405 17.4695C17.3792 17.1546 17.4083 16.7758 17.6157 16.4892C17.886 16.1159 18.1171 15.72 18.307 15.3038C18.4525 14.9851 18.763 14.7737 19.1128 14.7551L21.8856 14.6082C22.0401 13.9087 22.1192 13.2017 22.1192 12.4918C22.1192 11.7813 22.04 11.0738 21.8857 10.3753L19.1128 10.2284C18.763 10.2098 18.4525 9.99837 18.307 9.67967C18.1171 9.26351 17.886 8.86758 17.6157 8.49428C17.4083 8.20769 17.3792 7.8289 17.5405 7.51401L18.7934 5.06868C17.7263 4.11049 16.4629 3.38685 15.0825 2.95014L13.5733 5.24928C13.3821 5.54055 13.0455 5.70223 12.6987 5.66946C12.4578 5.6467 12.2251 5.63498 12 5.63498C11.7749 5.63498 11.5422 5.6467 11.3013 5.66946C10.9545 5.70223 10.6179 5.54055 10.4267 5.24928L8.91765 2.95032C7.5374 3.38663 6.27339 4.1105 5.2066 5.06864L6.45949 7.51401C6.62082 7.8289 6.59175 8.20769 6.38427 8.49428C6.11212 8.8702 5.88095 9.26578 5.69367 9.67815C5.54856 9.99766 5.23764 10.2098 4.88722 10.2284L2.11439 10.3753C1.95994 11.0748 1.88078 11.7818 1.88078 12.4918C1.88078 13.2022 1.96004 13.9097 2.11434 14.6082L4.88722 14.7551C5.23764 14.7737 5.54856 14.9858 5.69367 15.3053C5.88095 15.7177 6.11212 16.1133 6.38427 16.4892C6.59175 16.7758 6.62082 17.1546 6.45949 17.4695L5.20661 19.9148C6.27341 20.8728 7.53638 21.5961 8.91769 22.0331ZM7.62733 12.4917C7.62733 10.0767 9.585 8.11907 12 8.11907C14.415 8.11907 16.3727 10.0767 16.3727 12.4917C16.3727 14.9067 14.415 16.8644 12 16.8644C9.585 16.8644 7.62733 14.9067 7.62733 12.4917ZM9.50812 12.4918C9.50812 13.868 10.6237 14.9837 12 14.9837C13.3763 14.9837 14.4919 13.868 14.4919 12.4918C14.4919 11.1155 13.3763 9.99985 12 9.99985C10.6237 9.99985 9.50812 11.1155 9.50812 12.4918Z" fill="#5E6175"/>
</svg>
