<svg xmlns="http://www.w3.org/2000/svg" viewBox="0 0 1862.89 641.11"><defs><style>.cls-1{fill:#f7f7f7;}</style></defs><g id="Camada_2" data-name="Camada 2"><g id="Camada_1-2" data-name="Camada 1"><path class="cls-1" d="M1862.89,340.46c-.78,6.53-1.54,13.07-2.35,19.59-8,63.91-32.87,120.52-74.93,169.23C1735.3,587.53,1672,624.33,1596,636.44,1491.8,653,1399.79,625.5,1322.17,553.77c-52.5-48.51-85.11-108.81-96.28-179.37-16.47-104.12,11-196,82.75-273.6,48.45-52.35,108.82-83.89,179.08-96.3,10.74-1.9,21.7-2.57,32.55-3.84a8.6,8.6,0,0,0,1.88-.66H1562a35.74,35.74,0,0,0,3.53.75c10.3,1.24,20.69,1.94,30.89,3.74C1667,17,1727.17,49.07,1776.18,101.3,1823.72,152,1851.77,212,1860.53,281c.83,6.54,1.58,13.08,2.36,19.62Zm-320.83-254c-129.18,0-234.16,104.63-234.22,233.76-.06,128.56,102.79,231.63,229.1,234.27,131.41,2.74,237-101.75,239.37-229.37C1778.78,192.82,1671.92,86.34,1542.06,86.5Z"/><path class="cls-1" d="M474.76,267.24v56.52H358.91v93.06H488.07V473h-199V128.08H481.31v59.54H362.14v79.62Z"/><path class="cls-1" d="M1107,141.56c-5,19.07-10,37.83-15,57-16.45-9.75-34.3-13.27-52.46-15.4a76.54,76.54,0,0,0-38.32,4.83c-26.14,10.67-31,40.06-9.84,59,9,8,19.38,13.8,30.26,18.65,20.52,9.14,40.49,19.23,58.55,32.66,18.27,13.59,31.93,30.6,37.23,53.25,8.31,35.59-4.17,86.58-52.58,111-18.77,9.48-38.79,13.61-59.62,14.2-34.09,1-66.76-6.18-98.75-17.31-3.14-1.09-3.93-2.27-3.08-5.61,4.48-17.67,8.67-35.41,12.95-53.06,23.89,12,49.42,16.55,75.6,18.25,12.86.84,25.4-.75,37-7a37.57,37.57,0,0,0,9.21-59.1c-9.11-9.42-20.52-15.46-32-21.28-20.47-10.4-40.91-20.74-59.58-34.33-17.42-12.69-31.07-28.19-36.81-49.17-8.8-32.21.55-60.14,22.79-84,20-21.44,45.76-32.1,74.3-36.13,33.18-4.67,65.34.42,96.61,11.9C1104.51,140.34,1105.48,140.86,1107,141.56Z"/><path class="cls-1" d="M232.72,195.54c-18.09-7.63-36.71-12-56.16-12.41-48.95-1-81.22,27.36-94.55,68.81-12.17,37.83-10.79,76,4.4,112.88,13.4,32.51,39.23,49.81,73.66,54.49,23.66,3.21,46.61-.28,68.87-8.71l5.11-1.92c3.29,18.5,6.54,36.82,9.93,55.93-7.69,2.27-15.23,4.83-22.94,6.72a240.25,240.25,0,0,1-80.29,6.31A152.62,152.62,0,0,1,7.9,368.08c-9.36-32-9.75-64.31-4.58-96.93,4.26-26.88,12.36-52.37,27-75.57,20.45-32.35,49.93-52.14,86.23-62.7,22.9-6.66,46.39-7.26,69.94-6.93,14.85.2,29.57,1.85,43.83,6.22A127.44,127.44,0,0,1,245,138c1,.44,2.19,2.37,2,3.29-4.39,17.84-9,35.62-13.55,53.42C233.33,194.91,233.07,195.1,232.72,195.54Z"/><path class="cls-1" d="M608.14,187.52v86.4H720.66v56.51H608.06V473H538.4V128.12h189v59.4Z"/><path class="cls-1" d="M784.41,131.4h69.33V473H784.41Z"/><path class="cls-1" d="M1520.6,507a191.57,191.57,0,0,0-6.76-47.86c-12.76-46.73-39.2-82.81-82.8-105.31-21-10.83-43.47-17.06-66.83-19.94-12.76-1.58-25.62-2.25-39-3.37.77-1.94,1.52-4.21,2.55-6.35,10.28-21.43,23.58-41,38.12-59.67,27.28-35.12,58.7-66.23,92.56-95a7.49,7.49,0,0,1,4.37-1.76q107.4-.09,214.82,0a3.05,3.05,0,0,1,.54.14c0,.34,0,.82-.16,1-27.26,29.61-49,63.1-68.47,98.11-36.59,65.79-62.17,135.78-79.09,209-2.14,9.29-4,18.65-6,28C1524.11,506,1524,508.42,1520.6,507Z"/><path class="cls-1" d="M1534.78,508.91c2.67-9.93,5.31-20.05,8.14-30.12,15-53.49,32-106.33,54.07-157.41,9.23-21.33,19.54-42.1,32-61.77,2.31-3.63,4.42-4.77,8.89-4,29.19,4.8,58.45,9.2,88.19,13.81a15.8,15.8,0,0,1-1.79,1.87c-35.23,25.67-65.81,56.23-93.73,89.52a605.92,605.92,0,0,0-91.18,146.3C1538.62,508.86,1538.12,511.48,1534.78,508.91Z"/><path class="cls-1" d="M1544.15,509.74c5.21-10.16,10.12-20.48,15.68-30.44,29.07-52,64.35-99.61,104.08-143.95q8.86-9.89,18.08-19.45c.93-1,3-1.86,4.1-1.51,21.64,6.71,43.22,13.62,64.81,20.5.35.12.62.49.87.69-82,42.81-148.53,103.8-206.62,174.77Z"/></g></g></svg>