<svg version="1.1" width="60" height="45.223" id="prefix__svg1" xmlns="http://www.w3.org/2000/svg"><path d="M35.333.556c.967 1.716.967 1.716 1.743 3.985l.897 2.482c.452 1.301.898 2.605 1.341 3.91 2.212 6.427 4.296 10.311 10.154 13.842 2.204 1.408 3.58 2.37 4.535 4.864.447 2.055.75 4.08.997 6.167l.313 2.162c.25 1.75.478 3.5.687 5.255l4 .667v1.333H0V43.89h4l.245-2.636c.597-6.279 1.237-12.497 2.422-18.698l1.68-.203c2.271-.393 4.213-.853 6.32-1.797 1.36-2.039 1.598-4.274 2-6.666.625-3.485 1.337-6.378 3.333-9.334 3.95-2.735 10.587-5.845 15.333-4zm-14 5.334c-2.583 4.232-3.607 9.207-4.666 14l8-2c-.667 1.333-.667 1.333-2.13 1.839l-1.91.481-2.071.561c-1.448.383-2.9.755-4.354 1.115-1.954.54-3.727 1.086-5.535 2.004-1.26 2.113-1.26 2.113-1.334 4.666-.139.932-.28 1.864-.422 2.795-.113.97-.222 1.942-.328 2.914l-.174 1.472C6.095 38.507 6 41.07 6 43.89h15.333l.625-4.709c.618-3.711 1.379-5.884 4.5-8.25a46.13 46.13 0 012.875-1.708l1.185.596c1.278.636 2.567 1.251 3.857 1.862 2.647 1.852 3.048 4.399 3.583 7.417l.709 4.792H54l-.792-6.792-.224-2.123-.221-1.697-.201-1.725c-1.213-3.59-4.548-5.487-7.513-7.598-4.441-3.596-6.032-7.828-7.84-13.107-.318-.873-.638-1.745-.96-2.616-.77-2.108-1.519-4.22-2.249-6.342-4.397 0-9.26 1.09-12.667 4zm5.334 26.791l-1.459 1.196c-2.618 2.917-1.875 6.15-1.875 10.013h13.334c.288-5.539.288-5.539-2.024-10.281-4.017-3.304-4.017-3.304-7.976-.928z" fill="#727272" id="prefix__path1" stroke-width=".667"/><style>@media (prefers-color-scheme:dark){path{fill:#fff}}</style></svg>