<?xml version="1.0" encoding="UTF-8" standalone="no"?>
<svg
   xmlns:dc="http://purl.org/dc/elements/1.1/"
   xmlns:cc="http://creativecommons.org/ns#"
   xmlns:rdf="http://www.w3.org/1999/02/22-rdf-syntax-ns#"
   xmlns:svg="http://www.w3.org/2000/svg"
   xmlns="http://www.w3.org/2000/svg"
   id="svg6"
   xml:space="preserve"
   enable-background="new 0 0 200 200"
   viewBox="0 0 200 200"
   y="0px"
   x="0px"
   version="1.1"><metadata
     id="metadata12"><rdf:RDF><cc:Work
         rdf:about=""><dc:format>image/svg+xml</dc:format><dc:type
           rdf:resource="http://purl.org/dc/dcmitype/StillImage" /></cc:Work></rdf:RDF></metadata><defs
     id="defs10" /><rect
     id="rect2"
     fill="#FFFFFF"
     height="200"
     width="200" /><path
     id="path4"
     d="m64.266372 23.749668-20.774384-0.001668-10.248192 17.7503c-5.636728 9.762804-10.306016 17.85316-10.376072 17.97826l-0.12788 0.228516 10.366064 17.952684 10.365508 17.95324 20.784392 0.01334 20.784392 0.01279 10.3416-17.915988c5.68788-9.853988 10.34104-17.966584 10.34049-18.027744-0.001-0.06116-4.65483-8.1732-10.341602-18.026632l-10.340488-17.91543zm71.638928 40.544632-20.78717-0.0139-10.34049 17.912096c-5.687876 9.851208-10.339928 17.964364-10.338816 18.028304 0.0011 0.0639 4.654832 8.17764 10.341596 18.03108l10.33938 17.91487 20.7716 0.002 20.77216 0.002 3.05689-5.2959c1.68135-2.91288 6.3523-11.0038 10.37997-17.97993l7.32307-12.68302-10.36551-17.952128-10.36495-17.951572zm-71.641152 39.90801-20.775496-0.001-0.971888 1.6819c-0.534872 0.92518-5.203048 9.00998-10.374404 17.96714l-9.402516 16.28468 0.12788 0.22852c0.07006 0.1251 4.739344 8.21546 10.376072 17.97826l10.248748 17.7503 20.773828-0.002 20.773828-0.002 10.340488-17.91543c5.686772-9.85343 10.340492-17.96547 10.341602-18.02663 0.00055-0.0612-4.65261-8.17376-10.34049-18.02719l-10.3416-17.91599z"
     fill="#EE514F" /></svg>