<svg width="616" height="370" viewBox="0 0 616 370" fill="none" xmlns="http://www.w3.org/2000/svg">
<g clip-path="url(#clip0)">
<path d="M354.76 42.72H614.78" stroke="#60C3AD" stroke-width="1.1717" stroke-miterlimit="10"/>
<path d="M609.55 234.77H359.99C357.1 234.77 354.76 232.43 354.76 229.54V21.68C354.76 18.79 357.1 16.45 359.99 16.45H609.55C612.44 16.45 614.78 18.79 614.78 21.68V229.54C614.78 232.43 612.44 234.77 609.55 234.77Z" stroke="#60C3AD" stroke-width="1.1717" stroke-miterlimit="10"/>
<path d="M380.4 29.85C380.4 31.87 378.76 33.52 376.73 33.52C374.71 33.52 373.06 31.88 373.06 29.85C373.06 27.82 374.7 26.18 376.73 26.18C378.76 26.19 380.4 27.83 380.4 29.85Z" stroke="#60C3AD" stroke-width="1.1717" stroke-miterlimit="10"/>
<path d="M394.65 29.85C394.65 31.87 393.01 33.52 390.98 33.52C388.96 33.52 387.31 31.88 387.31 29.85C387.31 27.82 388.95 26.18 390.98 26.18C393.01 26.19 394.65 27.83 394.65 29.85Z" stroke="#60C3AD" stroke-width="1.1717" stroke-miterlimit="10"/>
<path d="M405.23 33.52C407.257 33.52 408.9 31.8769 408.9 29.85C408.9 27.8231 407.257 26.18 405.23 26.18C403.203 26.18 401.56 27.8231 401.56 29.85C401.56 31.8769 403.203 33.52 405.23 33.52Z" stroke="#60C3AD" stroke-width="1.1717" stroke-miterlimit="10"/>
<path d="M595.52 56.94H374.78V214.71H595.52V56.94Z" fill="#A89FD4"/>
<mask id="mask0" mask-type="alpha" maskUnits="userSpaceOnUse" x="374" y="56" width="222" height="159">
<path d="M595.52 56.94H374.78V214.71H595.52V56.94Z" fill="#A89FD4"/>
</mask>
<g mask="url(#mask0)">
<path d="M469.84 155.29C469.84 155.29 439.68 152.24 433.52 192.83L409.21 219.85L457.71 224.97L469.84 155.29Z" fill="#5F4F73"/>
<path d="M512.36 155.29H464.79C462.7 155.29 460.77 156.49 459.9 158.4C441.04 199.66 437.39 248.97 436.69 266.49C436.54 270.22 439.31 273.41 443.03 273.75C459.82 275.27 504.49 278.84 522.24 280.25C526.07 280.56 529.27 277.41 529.03 273.57C527.72 252.62 525.1 192.04 524.73 167.46C524.63 160.7 519.12 155.29 512.36 155.29Z" fill="#5F4F73"/>
<path d="M449.87 187.91C449.87 187.91 440.64 215.39 436.96 266.44C436.7 270.1 439.41 273.31 443.06 273.61L522.22 280.24" stroke="#4D2E3C" stroke-width="1.0588" stroke-miterlimit="10"/>
<path d="M512.36 155.29L534.27 311.21C534.84 315.29 538.55 318.18 542.65 317.74L568.03 314.99C572.35 314.52 575.4 310.55 574.76 306.26L556.64 186.37C553.6 168.42 538.06 155.28 519.85 155.28H512.36V155.29Z" fill="#5F4F73"/>
<path d="M529.03 273.55L517.19 189.7" stroke="#4D2E3C" stroke-width="1.0588" stroke-miterlimit="10"/>
<path d="M466.78 122.18C471.441 122.18 475.22 118.401 475.22 113.74C475.22 109.079 471.441 105.3 466.78 105.3C462.119 105.3 458.34 109.079 458.34 113.74C458.34 118.401 462.119 122.18 466.78 122.18Z" fill="#DD7C7C"/>
<path d="M475.57 126.92L475.14 157C475.07 165.46 480.88 166.09 489.2 166.09C496.31 166.09 502.39 164.01 503.27 156.95L504.84 124.44L475.57 126.92Z" fill="#EF9C98"/>
<path d="M475.21 151.31L497.82 134.38L475.44 134.11L475.21 151.31Z" fill="#DD7C7C"/>
<path d="M489.63 138.92H477.83C468.97 138.92 461.87 131.58 462.16 122.73L462.96 98.26C463.33 87.16 472.43 78.35 483.54 78.35C494.91 78.35 506.12 87.57 506.12 98.94L504.85 124.45C504.44 132.56 497.75 138.92 489.63 138.92Z" fill="#EF9C98"/>
<path d="M500.8 114.62L504.71 126.76L505.12 119.56L500.8 114.62Z" fill="#4D2E3C"/>
<path d="M473.93 111.9L472.58 120.66H475.29" stroke="#4D2E3C" stroke-width="1.0967" stroke-miterlimit="10" stroke-linecap="round" stroke-linejoin="round"/>
<path d="M484.56 105.1C484.56 105.1 480.01 104.41 479.9 106.85C479.9 106.85 479.86 108.5 483.84 109C487.82 109.5 488.86 109.16 489.26 107.62C489.66 106.09 486.7 105.2 484.56 105.1Z" fill="#4D2E3C"/>
<path d="M467.12 104.96C467.12 104.96 470.9 104.61 471.15 106.92C471.15 106.92 471.29 108.48 467.98 108.69C464.67 108.9 463.61 108.3 463.33 107.03C463.01 105.6 465.32 104.92 467.12 104.96Z" fill="#4D2E3C"/>
<path d="M472.1 123.13H484.85C484.85 123.13 484.88 127.59 477.47 127.6C472.56 127.61 472.1 123.13 472.1 123.13Z" fill="white"/>
<path d="M479.9 111.9C479.9 111.9 482.13 110.27 485.14 111.9" stroke="#4D2E3C" stroke-width="1.0967" stroke-miterlimit="10" stroke-linecap="round" stroke-linejoin="round"/>
<path d="M465.34 111.9C465.34 111.9 466.84 110.27 469.85 111.9" stroke="#4D2E3C" stroke-width="1.0967" stroke-miterlimit="10" stroke-linecap="round" stroke-linejoin="round"/>
<path d="M509.8 155.29H469.84C469.84 155.29 465.33 169.24 485.09 169.22C508.29 169.18 509.8 155.29 509.8 155.29Z" fill="#EF9C98"/>
<path d="M511.82 91.69C511.82 91.69 511.82 83.95 504.36 82.52C502.54 82.17 500.64 81.8 499.08 81.51C498.8 79.44 497.94 77.48 495.86 76.53C491.84 74.69 488.17 75.75 485.49 77.29C483.93 74.06 481.36 71.14 477.1 71.27C467.73 71.55 455.97 79.23 461.2 91.43C464.96 100.19 482.66 94.27 486.29 93.42C489.92 92.57 491.67 92.59 490.87 97.42C490.25 101.19 495.79 101.83 498.14 101.94L499.6 111.43C499.6 111.43 508.64 112.49 507.18 111.43C505.34 110.1 508.48 100.31 510.46 97.6C511.73 95.87 511.82 91.69 511.82 91.69Z" fill="#4D2E3C"/>
<path d="M507.79 122.18C512.451 122.18 516.23 118.401 516.23 113.74C516.23 109.079 512.451 105.3 507.79 105.3C503.129 105.3 499.35 109.079 499.35 113.74C499.35 118.401 503.129 122.18 507.79 122.18Z" fill="#EF9C98"/>
<path d="M504.84 116.25C504.84 116.25 504.84 110.13 510.69 111.09" stroke="#4D2E3C" stroke-width="1.0967" stroke-miterlimit="10" stroke-linecap="round" stroke-linejoin="round"/>
</g>
<path d="M42.52 60.85H251.26" stroke="#60C3AD" stroke-width="1.1717" stroke-miterlimit="10"/>
<path d="M246.6 267.54H47.18C44.6 267.54 42.52 265.45 42.52 262.88V42.1C42.52 39.52 44.61 37.44 47.18 37.44H246.6C249.18 37.44 251.26 39.53 251.26 42.1V262.88C251.26 265.46 249.17 267.54 246.6 267.54Z" stroke="#60C3AD" stroke-width="1.1717" stroke-miterlimit="10"/>
<path d="M62.11 52.66C63.916 52.66 65.38 51.196 65.38 49.39C65.38 47.584 63.916 46.12 62.11 46.12C60.304 46.12 58.84 47.584 58.84 49.39C58.84 51.196 60.304 52.66 62.11 52.66Z" stroke="#60C3AD" stroke-width="1.1717" stroke-miterlimit="10"/>
<path d="M74.81 52.66C76.616 52.66 78.08 51.196 78.08 49.39C78.08 47.584 76.616 46.12 74.81 46.12C73.004 46.12 71.54 47.584 71.54 49.39C71.54 51.196 73.004 52.66 74.81 52.66Z" stroke="#60C3AD" stroke-width="1.1717" stroke-miterlimit="10"/>
<path d="M87.5 52.66C89.306 52.66 90.77 51.196 90.77 49.39C90.77 47.584 89.306 46.12 87.5 46.12C85.694 46.12 84.23 47.584 84.23 49.39C84.23 51.196 85.694 52.66 87.5 52.66Z" stroke="#60C3AD" stroke-width="1.1717" stroke-miterlimit="10"/>
<path d="M311.17 85.68H206.69C204 85.68 201.83 83.5 201.83 80.82V5.45003C201.83 2.76003 204.01 0.590027 206.69 0.590027H311.17C313.86 0.590027 316.03 2.77003 316.03 5.45003V80.82C316.04 83.5 313.86 85.68 311.17 85.68Z" fill="#90D7EC"/>
<path d="M311.17 85.68H206.69C204 85.68 201.83 83.5 201.83 80.82V5.45003C201.83 2.76003 204.01 0.590027 206.69 0.590027H311.17C313.86 0.590027 316.03 2.77003 316.03 5.45003V80.82C316.04 83.5 313.86 85.68 311.17 85.68Z" stroke="#60C3AD" stroke-width="1.1717" stroke-miterlimit="10"/>
<path d="M285.05 61.3801C285.38 61.7701 286.01 61.5301 286.01 61.0201L285.98 50.4201V30.4101C285.98 28.3101 284.28 26.6201 282.19 26.6201H236.03C233.94 26.6201 232.24 28.3201 232.24 30.4101V51.8901C232.24 53.9801 233.94 55.6801 236.03 55.6801H280.18L285.05 61.3801Z" fill="#DA6EAB"/>
<path d="M250.04 40.82C250.04 42.16 248.96 43.24 247.63 43.25C246.29 43.25 245.21 42.17 245.2 40.84C245.2 39.5 246.28 38.42 247.61 38.41C248.95 38.41 250.03 39.49 250.04 40.82Z" stroke="#FDFDF3" stroke-width="1.1717" stroke-miterlimit="10"/>
<path d="M260.42 40.7901C260.42 42.1301 259.34 43.2101 258.01 43.2201C256.67 43.2201 255.59 42.1401 255.58 40.8101C255.58 39.4701 256.66 38.3901 257.99 38.3801C259.33 38.3701 260.41 39.4501 260.42 40.7901Z" stroke="#FDFDF3" stroke-width="1.1717" stroke-miterlimit="10"/>
<path d="M270.8 40.76C270.8 42.1 269.72 43.18 268.39 43.19C267.05 43.19 265.97 42.11 265.96 40.78C265.96 39.44 267.04 38.36 268.37 38.35C269.71 38.34 270.79 39.42 270.8 40.76Z" stroke="#FDFDF3" stroke-width="1.1717" stroke-miterlimit="10"/>
<path d="M546.67 309.59H484.5H473.27V260.37H546.67V272.67V309.59Z" stroke="#60C3AD" stroke-width="1.1717" stroke-miterlimit="10" stroke-linecap="round" stroke-linejoin="round"/>
<path d="M546.67 273.18H561.9V322.41H488.5V309.59" stroke="#60C3AD" stroke-width="1.1717" stroke-miterlimit="10" stroke-linecap="round" stroke-linejoin="round"/>
<path d="M473.27 260.37L509.97 284.06L546.67 260.37" stroke="#60C3AD" stroke-width="1.1717" stroke-miterlimit="10" stroke-linecap="round" stroke-linejoin="round"/>
<path d="M164.45 213.99H5.42C2.75 213.99 0.59 211.83 0.59 209.16V159.59C0.59 156.92 2.75 154.76 5.42 154.76H164.45C167.12 154.76 169.28 156.92 169.28 159.59V209.16C169.28 211.82 167.12 213.99 164.45 213.99Z" fill="#90D7EC"/>
<path d="M164.45 213.99H5.42C2.75 213.99 0.59 211.83 0.59 209.16V159.59C0.59 156.92 2.75 154.76 5.42 154.76H164.45C167.12 154.76 169.28 156.92 169.28 159.59V209.16C169.28 211.82 167.12 213.99 164.45 213.99Z" stroke="#60C3AD" stroke-width="1.1717" stroke-miterlimit="10"/>
<path d="M50.8941 186.807C53.0209 177.906 47.5297 168.967 38.629 166.84C29.7284 164.713 20.789 170.204 18.6622 179.105C16.5354 188.005 22.0267 196.945 30.9273 199.072C39.8279 201.198 48.7674 195.707 50.8941 186.807Z" fill="#DA6EAB"/>
<path d="M66.62 178.17H152.91" stroke="#FDFDF3" stroke-width="1.1717" stroke-miterlimit="10"/>
<path d="M66.62 190.28H98.96" stroke="#FDFDF3" stroke-width="1.1717" stroke-miterlimit="10"/>
<path d="M288.5 250.68C288.5 250.68 334.72 242.09 383.61 247.78C398.08 249.46 399.18 262.05 396.96 275.64L382.78 368.67L271.51 367.73L288.5 250.68Z" fill="#F56867"/>
<path d="M252.79 199.76C253.03 199.15 263.12 172.08 264.76 158.45C265.03 156.22 263.53 154.19 261.38 153.86C259.4 153.56 257.51 154.83 256.97 156.82L253.76 168.64L255.31 156.11C255.6 153.79 253.96 151.7 251.71 151.49C249.81 151.32 248.06 152.56 247.53 154.46C246.21 159.28 243.88 167.71 243.88 167.43C243.88 167.18 244.24 161.14 244.5 156.69C244.65 154.19 242.66 152.11 240.23 152.23C238.27 152.33 236.66 153.85 236.39 155.86L234.77 167.97L233.22 161.05C232.73 158.85 230.52 157.54 228.43 158.21C226.57 158.8 225.46 160.75 225.85 162.72L228.45 173.3C228.45 173.3 222.25 197.79 222.51 197.38C222.79 196.98 252.79 199.76 252.79 199.76Z" fill="#EF9C98"/>
<path d="M255.3 181.25C255.3 181.25 253.87 175.81 247.97 172.35C246.69 171.6 245.1 171.69 243.87 172.53C242.04 173.77 241.52 176.3 242.71 178.2L245.48 182.66C245.48 182.66 241.25 179.28 233.89 185.9" stroke="#DD7C7C" stroke-width="0.8049" stroke-miterlimit="10" stroke-linecap="round" stroke-linejoin="round"/>
<path d="M217.1 206.14L220.15 195.82H254.63L251.06 210.24L217.1 206.14Z" fill="#F6EDED"/>
<path d="M236.73 269.69L256.34 203.53L214.61 202.76L197.42 261.08L236.73 269.69Z" fill="#F56867"/>
<path d="M318.69 246.91C259.24 250.99 198.52 257.32 198.52 257.32L195.3 268.2C192.65 277.17 196.19 287.01 204.27 291.72C207.75 293.75 211.84 294.76 216.08 294.31L295.39 289.19L318.69 246.91Z" fill="#F56867"/>
<path d="M282.79 290.01L286.13 269.69L272.43 290.67L282.79 290.01Z" fill="#DD4E4E"/>
<path d="M447.41 367.47C459.45 363.07 464.11 348.51 456.88 337.94L401.64 257.18C395.26 247.81 382.25 245.88 373.42 253C365.6 259.3 357.84 270.54 363.42 278.89L422.39 360.03C427.45 367.5 438.95 370.57 447.41 367.47Z" fill="#F56867"/>
<path d="M390.53 316.18L395.21 286.96" stroke="#DD4E4E" stroke-width="1.9215" stroke-miterlimit="10"/>
<path d="M319.76 328.46L323.93 364.04C324.22 366.52 326.3 368.4 328.79 368.44L345.36 368.71C347.88 368.75 350.03 366.9 350.37 364.4L355.22 329.03L319.76 328.46Z" fill="#5F4F73"/>
<path d="M357.75 329.4L317.22 328.74L317.26 326.07C317.28 324.59 318.5 323.41 319.98 323.44L355.15 324.01C356.63 324.03 357.81 325.25 357.78 326.73L357.75 329.4Z" fill="#F6EDED"/>
<path d="M352.79 323.98L322.37 323.48L322.42 320.45C322.44 319.17 323.5 318.15 324.78 318.17L350.56 318.59C351.84 318.61 352.86 319.67 352.84 320.95L352.79 323.98Z" fill="#F6EDED"/>
<path d="M367.18 338.89C365.36 338.89 354.67 331.98 354.67 331.98L353.85 338.69C353.85 338.69 350.54 345.29 335.59 340.23C333.89 339.65 332.01 340.35 331.14 341.92C330.43 343.19 330.56 344.71 331.36 345.84C330.2 345.93 329.09 346.56 328.47 347.67C327.8 348.86 327.84 350.32 328.58 351.45C328.8 351.78 329.07 352.14 329.37 352.52C329.32 352.6 329.25 352.67 329.2 352.75C328.53 353.94 328.57 355.4 329.31 356.53C329.77 357.23 330.43 358.06 331.31 358.94C331 359.96 331.11 361.08 331.71 361.99C333.91 365.35 340.35 368.07 357.75 368.99H374.77L367.18 338.89Z" fill="#EF9C98"/>
<path d="M331.36 345.84C331.36 345.84 336.12 349.51 346.54 350.27" stroke="#DD7C7C" stroke-width="0.8049" stroke-miterlimit="10" stroke-linecap="round" stroke-linejoin="round"/>
<path d="M329.37 352.53C329.37 352.53 334.4 356.86 344.1 357.22" stroke="#DD7C7C" stroke-width="0.8049" stroke-miterlimit="10" stroke-linecap="round" stroke-linejoin="round"/>
<path d="M331.32 358.95C331.32 358.95 334.4 361.58 340.7 362.19" stroke="#DD7C7C" stroke-width="0.8049" stroke-miterlimit="10" stroke-linecap="round" stroke-linejoin="round"/>
<path d="M385.42 368.57L374.65 368.67L364.6 335.69L379.44 334.9L385.42 368.57Z" fill="#F6EDED"/>
<path d="M440.49 328.34L371.48 328.86L382.9 369L443.7 368.46L440.49 328.34Z" fill="#F56867"/>
<path d="M346.11 159.59C346.11 159.59 374.38 159.64 376.96 183.9C377.5 189 380.1 193.47 383.33 197.35C391.15 206.74 394.41 219.45 383.71 238.8C383.71 238.8 334.68 246.91 303.82 230.89C303.82 230.89 296.41 204.56 310.95 192.79C316.89 187.98 316.91 180.51 316.91 180.51L346.11 159.59Z" fill="#4D2E3C"/>
<path d="M331.29 197.68C330.85 202.71 326.54 206.47 321.66 206.07C316.78 205.67 313.18 201.26 313.62 196.23C314.06 191.2 318.37 187.44 323.24 187.84C328.13 188.24 331.73 192.65 331.29 197.68Z" fill="#DD7C7C"/>
<path d="M330.63 222.94L327.38 244.01C326.22 251.41 330.02 256.03 337.09 257.05C343.12 257.92 350.18 256.02 350.93 249.45L354.5 216.06L330.63 222.94Z" fill="#EF9C98"/>
<path d="M318.69 246.91L336.38 245.54H350.96L363.65 246.33C363.65 246.33 363.04 263.05 333.35 260.78C313.15 259.22 318.69 246.91 318.69 246.91Z" fill="#EF9C98"/>
<path d="M327.38 244.01L356.45 221.8L330.92 220.77L327.38 244.01Z" fill="#DD7C7C"/>
<path d="M336.01 230.05C323.98 228.22 315.56 216.9 316.77 206.7L319.77 182.65C321.29 169.87 332.36 160.53 344.79 161.56C357.51 162.61 369.13 174.28 367.99 187.41L365.37 206.72C363.35 221.66 350.56 231.25 336.01 230.05Z" fill="#EF9C98"/>
<path d="M329.99 202.95L328.37 208.77L331.33 209.34" stroke="#4D2E3C" stroke-width="1.2509" stroke-miterlimit="10" stroke-linecap="round" stroke-linejoin="round"/>
<path d="M344.46 193.28C344.46 193.28 339.46 192.06 339.08 194.19C339.08 194.19 338.86 195.63 343.24 196.6C347.62 197.57 348.82 197.42 349.43 196.12C350.05 194.84 346.84 193.67 344.46 193.28Z" fill="#4D2E3C"/>
<path d="M324.59 190.79C324.59 190.79 328.84 190.99 328.87 193.05C328.87 193.05 328.86 194.44 325.15 194.17C321.44 193.91 320.32 193.24 320.15 192.1C319.95 190.79 322.59 190.51 324.59 190.79Z" fill="#4D2E3C"/>
<path d="M326.2 200.02C326.05 201.24 324.97 202.11 323.79 201.97C322.61 201.83 321.77 200.72 321.92 199.51C322.07 198.29 323.15 197.42 324.33 197.56C325.51 197.7 326.35 198.8 326.2 200.02Z" fill="#4D2E3C"/>
<path d="M343.53 202.09C343.38 203.31 342.3 204.18 341.12 204.04C339.94 203.9 339.1 202.79 339.25 201.58C339.4 200.36 340.48 199.49 341.66 199.63C342.85 199.77 343.68 200.87 343.53 202.09Z" fill="#4D2E3C"/>
<path d="M327.38 212.45L339.44 214.55C339.44 214.55 338.86 219.06 332.46 217.78C327.38 216.75 327.38 212.45 327.38 212.45Z" fill="#F6EDED"/>
<path d="M331.57 174.13C331.57 174.13 333.21 186.6 365.69 194.19L368.42 195.2C368.42 195.2 378.51 169.65 353.06 160.4C347.77 158.48 336.92 158.95 331.47 160.43C323.69 162.54 312.97 169.16 311.36 185.51C311.37 185.51 327.38 184.76 331.57 174.13Z" fill="#4D2E3C"/>
<path d="M357.03 189.64C357.01 190.6 359.83 205.77 359.83 205.77L372.55 191.39L357.03 189.64Z" fill="#4D2E3C"/>
<path d="M376.74 205.85C376.28 211.15 371.74 215.11 366.6 214.69C361.46 214.27 357.67 209.63 358.13 204.32C358.59 199.02 363.13 195.06 368.27 195.48C373.4 195.9 377.2 200.54 376.74 205.85Z" fill="#EF9C98"/>
<path d="M363.93 207.67C363.93 207.67 364.53 200.71 370.89 202.34" stroke="#4D2E3C" stroke-width="1.2326" stroke-miterlimit="10" stroke-linecap="round" stroke-linejoin="round"/>
<path d="M311.37 185.51L317.24 185.71L318.79 179.42L311.37 185.51Z" fill="#4D2E3C"/>
<path d="M383.551 157.605C385.084 147.716 378.562 138.495 368.984 137.01C359.406 135.526 350.398 142.339 348.865 152.228C347.332 162.117 353.854 171.338 363.432 172.823C373.01 174.308 382.018 167.495 383.551 157.605Z" fill="#4D2E3C"/>
<path d="M374.17 173.25C373.76 173.25 373.36 173.08 373.07 172.75C362.73 160.98 347.99 159.58 347.85 159.57C347.05 159.5 346.45 158.79 346.52 157.99C346.59 157.19 347.3 156.6 348.1 156.66C348.75 156.72 364.17 158.18 375.27 170.83C375.8 171.44 375.74 172.36 375.14 172.89C374.86 173.13 374.51 173.25 374.17 173.25Z" fill="white"/>
<path d="M319.05 368.81H241.81V359.3H311.17C313.01 359.3 314.69 360.33 315.53 361.97L319.05 368.81Z" fill="#351E29"/>
<path d="M86.57 287.55L127.2 368.81H259.15L217.19 287.58C215.95 285.17 213.47 283.66 210.76 283.66H88.97C86.98 283.67 85.68 285.77 86.57 287.55Z" fill="#4D2E3C"/>
<path d="M174.1 324.46C177.04 329.56 175.7 335.85 171.1 338.5C166.5 341.15 160.39 339.17 157.44 334.07C154.5 328.97 155.84 322.68 160.44 320.03C165.04 317.38 171.16 319.36 174.1 324.46Z" fill="#F2F6FB"/>
<path d="M68.35 368.67H543.42" stroke="#4D2E3C" stroke-width="0.9367" stroke-miterlimit="10"/>
</g>
<defs>
<clipPath id="clip0">
<rect width="615.37" height="369.14" fill="white"/>
</clipPath>
</defs>
</svg>
