<svg width="587" height="372" viewBox="0 0 587 372" fill="none" xmlns="http://www.w3.org/2000/svg">
<g clip-path="url(#clip0)">
<path d="M451.44 309.92C451.44 205.04 366.42 120.02 261.54 120.02C156.66 120.02 71.64 205.04 71.64 309.92C71.64 330.84 75.03 350.97 81.28 369.8H441.8C448.05 350.97 451.44 330.84 451.44 309.92Z" fill="#90D7EC"/>
<path d="M524.062 68.5528C531.273 38.7677 512.973 8.77633 483.188 1.56526C453.403 -5.64581 423.412 12.6541 416.201 42.4392C408.99 72.2243 427.289 102.216 457.075 109.427C486.86 116.638 516.851 98.3379 524.062 68.5528Z" fill="#90D7EC"/>
<path d="M0.570007 370.35H584.58" stroke="#90D7EC" stroke-width="1.4859" stroke-miterlimit="10"/>
<path d="M402.16 270.66H329.29C324.32 270.66 320.75 265.8 322.15 260.94L356.95 140.99C357.88 137.77 360.79 135.56 364.09 135.56H436.96C441.93 135.56 445.5 140.42 444.1 145.28L409.3 265.23C408.36 268.45 405.45 270.66 402.16 270.66Z" fill="#353434"/>
<path d="M392.13 270.66H328.66C323.69 270.66 320.12 265.8 321.52 260.94L356.32 140.99C357.25 137.77 360.16 135.56 363.46 135.56H426.93C431.9 135.56 435.47 140.42 434.07 145.28L399.27 265.23C398.33 268.45 395.43 270.66 392.13 270.66Z" fill="#FFA755"/>
<path d="M379.91 270.66H302.78C299.18 270.66 296.27 267.74 296.27 264.15C296.27 260.55 299.19 257.64 302.78 257.64H379.91C383.51 257.64 386.42 260.56 386.42 264.15C386.43 267.75 383.51 270.66 379.91 270.66Z" fill="#353434"/>
<path d="M325.886 357.827V364.387H392.186V357.827H325.886Z" fill="#353434"/>
<path d="M332.05 363.07C332.61 366.48 330.31 369.69 326.91 370.26C323.5 370.82 320.28 368.52 319.72 365.12C319.16 361.71 321.46 358.49 324.86 357.93C328.27 357.36 331.49 359.67 332.05 363.07Z" fill="#353434"/>
<path d="M361.49 269.65H354.93V360.52H361.49V269.65Z" fill="#353434"/>
<path d="M398.35 363.07C398.92 366.48 396.61 369.69 393.21 370.26C389.8 370.82 386.58 368.52 386.02 365.12C385.46 361.71 387.76 358.49 391.16 357.93C394.57 357.36 397.79 359.67 398.35 363.07Z" fill="#353434"/>
<path d="M400.11 270.66H322.98C319.38 270.66 316.47 267.74 316.47 264.15C316.47 260.55 319.39 257.64 322.98 257.64H400.11C403.71 257.64 406.62 260.56 406.62 264.15C406.62 267.75 403.7 270.66 400.11 270.66Z" fill="#353434"/>
<path d="M322.19 111.98C322.6 115.19 321.45 117.98 319.61 118.22C317.77 118.46 315.94 116.05 315.53 112.84C315.12 109.63 316.27 106.84 318.11 106.6C319.95 106.36 321.78 108.77 322.19 111.98Z" stroke="#353434" stroke-width="0.5365" stroke-miterlimit="10"/>
<path d="M322.09 110.41L332.09 107.7" stroke="#353434" stroke-width="0.5365" stroke-miterlimit="10"/>
<path d="M326.44 94.37C326.44 94.37 309.8 100.52 321.38 127.75C322.79 131.07 327.05 132.07 329.99 129.98L341.94 121.47" fill="#FF7D7B"/>
<path d="M330.38 122.73C331.02 123.27 341.16 144.96 341.16 144.96L359.74 137.86L338.23 102.07L330.38 122.73Z" fill="#FF7D7B"/>
<path d="M317.73 113.65C317.74 114.07 316.86 117.32 316.32 119.25C316.15 119.87 316.73 120.44 317.35 120.26L321.03 119.19L317.73 113.65Z" fill="#FF7D7B"/>
<path d="M333.02 127.83L338.24 123.6L337.39 136.95L333.02 127.83Z" fill="#353434"/>
<path d="M337.52 112.17L346.56 116.36C346.56 116.36 361.03 103.61 350.69 92.21C340.35 80.81 323.03 95.06 323.03 95.06L335.11 109.16L337.52 112.17Z" fill="#353434"/>
<path d="M320.59 110.43C320.02 110.86 319.91 111.67 320.34 112.24C320.77 112.81 321.58 112.92 322.15 112.49C322.72 112.06 322.83 111.25 322.4 110.68C321.97 110.11 321.16 109.99 320.59 110.43Z" fill="#353434"/>
<path d="M320.08 122C320.08 122 321.71 122.13 322.63 119.49" stroke="#353434" stroke-width="0.6706" stroke-miterlimit="10" stroke-linecap="round" stroke-linejoin="round"/>
<path d="M320.22 104.59C320.22 104.59 321.64 103.24 323.47 104.31" stroke="#353434" stroke-width="0.6706" stroke-miterlimit="10" stroke-linecap="round" stroke-linejoin="round"/>
<path d="M324.31 111.43C324.72 114.64 323.57 117.43 321.73 117.67C319.89 117.91 318.06 115.5 317.65 112.29C317.24 109.08 318.39 106.29 320.23 106.05C322.07 105.81 323.9 108.22 324.31 111.43Z" stroke="#FDE6E3" stroke-width="0.5413" stroke-miterlimit="10"/>
<path d="M324.22 109.86L334.35 108.11" stroke="#FDE6E3" stroke-width="0.5413" stroke-miterlimit="10"/>
<path d="M334.38 108.07C333.95 111.19 336.14 114.07 339.26 114.5C342.38 114.93 345.26 112.74 345.69 109.62C346.12 106.5 343.93 103.62 340.81 103.19C337.69 102.76 334.81 104.95 334.38 108.07Z" fill="#FF7D7B"/>
<path d="M337.8 110.23C337.8 110.23 337.92 106 342 106.78" stroke="#353434" stroke-width="0.6706" stroke-miterlimit="10" stroke-linecap="round" stroke-linejoin="round"/>
<path d="M323.03 95.06C323.03 95.06 316.91 99.59 316.75 104.24L328.63 96.8L323.03 95.06Z" fill="#353434"/>
<path d="M362.933 95.7466C369.983 95.1566 375.22 88.9631 374.63 81.9131C374.04 74.8631 367.846 69.6263 360.796 70.2163C353.746 70.8063 348.51 76.9998 349.1 84.0498C349.69 91.0998 355.883 96.3367 362.933 95.7466Z" fill="#353434"/>
<path d="M348.24 89.8L352.1 94.28L353.97 92.95L350.23 88.39L348.24 89.8Z" fill="#FFA755"/>
<path d="M295.89 346.54L265.01 363.9C265.01 363.9 322.27 364.3 322.26 363.78C322.25 363.26 318.41 346.05 318.41 346.05L295.89 346.54Z" fill="#353434"/>
<path d="M322.38 369.5L265.13 369.62L265.01 363.89L322.27 363.77L322.38 369.5Z" fill="white"/>
<path d="M316.73 346.11L315.12 329.26L294.09 328.24L295.89 346.54L316.73 346.11Z" fill="#FF7D7B"/>
<path d="M271.1 243.75L286.66 333.79L322.41 334.25L312.72 277.24L271.1 243.75Z" fill="#C0C0BE"/>
<path d="M338.49 332.3L325.12 365.83C325.12 365.83 371.08 329.94 370.75 329.53C370.43 329.12 356.17 318.48 356.17 318.48L338.49 332.3Z" fill="#353434"/>
<path d="M370.74 329.533L325.106 365.831L328.673 370.316L374.307 334.018L370.74 329.533Z" fill="white"/>
<path d="M354.87 319.57L344.98 305.92L326.19 317.08L338.49 332.3L354.87 319.57Z" fill="#FF7D7B"/>
<path d="M388.63 219.48L387.52 219.53L388.24 214.5H351.82L350.7 221.13L280.13 224.21C280.13 224.21 258.93 225.16 259.39 245.77C259.53 252.02 261.8 258.04 265.53 263.06L321.05 329.08L352.78 306.43L310.71 258.22L365.3 258C385.55 257.9 392.64 239.33 388.63 219.48Z" fill="white"/>
<path d="M310.69 258.24C310.69 258.24 304.17 249.81 290.01 245.9" stroke="#C0C0BE" stroke-width="1.3872" stroke-miterlimit="10"/>
<path d="M350.69 221.14H373.88" stroke="#C0C0BE" stroke-width="1.3872" stroke-miterlimit="10"/>
<path d="M298.7 197.94L346.28 141.78L370.14 161.72L320.72 216.84C314.89 223.45 304.57 223.38 298.83 216.7C294.2 211.31 294.15 203.38 298.7 197.94Z" fill="#226792"/>
<path d="M286.31 156.72L293.78 166.87L277.87 177.74L262.26 161.22L284.25 152.59L286.31 156.72Z" fill="#FF7D7B"/>
<path d="M285.2 159.49L284.79 156.03L286.31 156.72L281.55 147.18C281.16 146.39 280.61 145.67 279.89 145.16C278.23 143.99 276.91 144.5 275.72 144.38C273.74 144.17 274.35 144.76 274.32 146.76C272.24 146.79 267.96 147.72 265.61 138.56C265.11 136.6 263.07 135.4 261.11 135.89C258.14 136.63 263.29 135.26 263.15 136.6C263.14 136.66 263.15 136.71 263.15 136.77C262.44 136.11 261.43 135.81 260.43 136.06C259.19 136.37 258.34 137.41 258.21 138.61C258.19 138.77 258.19 138.93 258.2 139.09C257.74 138.97 257.24 138.94 256.74 139.07C255.5 139.38 254.65 140.42 254.52 141.62C254.48 141.96 254.51 142.3 254.59 142.65C254.62 142.77 254.66 142.89 254.69 143.01C254.64 143.02 254.59 143.02 254.53 143.03C253.29 143.34 253.23 143.89 253.11 145.09C253.07 145.43 253.1 145.77 253.18 146.12C253.83 148.72 254.47 149.76 255.44 151.7H255.43C255.43 151.7 255.45 151.74 255.48 151.79C255.94 152.71 256.44 153.54 256.96 154.3C259.95 159.08 267.47 168.43 276.02 170.55C287.39 173.35 285.2 159.49 285.2 159.49Z" fill="#FF7D7B"/>
<path d="M248.5 131.67L248.56 133.38C248.57 133.92 248.77 134.43 249.11 134.84L270.49 160.5C271.1 161.23 272.26 162.17 273.21 162.15L282.59 161.91C283.62 161.89 284.73 160.91 285.21 159.65L257.06 132.59L248.5 131.67Z" fill="#03071E"/>
<path d="M248.74 132.32L272.11 159.75C272.58 160.31 273.28 160.62 274.01 160.61L284.21 160.49C285 160.48 285.42 159.56 284.9 158.96L261.57 131.82C260.94 131.08 260.01 130.66 259.04 130.67L249.43 130.78C248.65 130.8 248.23 131.72 248.74 132.32Z" fill="#050C39"/>
<path d="M252.88 133.25L274.07 158.12C274.41 158.52 274.9 158.74 275.42 158.73L281.23 158.66C281.93 158.65 282.3 157.83 281.85 157.3L261.13 133.2C260.57 132.55 259.74 132.17 258.88 132.18L253.34 132.24C252.82 132.26 252.54 132.86 252.88 133.25Z" fill="#F6F3EC"/>
<path d="M277.94 144.41L272.78 143.62C270.61 143.29 268.9 145.44 269.71 147.48C269.97 148.14 270.47 148.67 271.1 148.98L280.38 153.52L279.01 147.54L277.94 144.41Z" fill="#FF7D7B"/>
<path opacity="0.49" d="M252.88 132.47L294.37 75.44L337.36 148.22L281.22 158.67L252.88 132.47Z" fill="url(#paint0_linear)"/>
<path d="M298.33 216.11L268.86 178.04L293.47 159.03L321.53 198.67C326.73 205.78 324.44 215.85 316.68 220.02C310.42 223.38 302.66 221.73 298.33 216.11Z" fill="#226792"/>
<path d="M337.36 148.22L334.94 142.62L356.92 128.12L362.42 139.91L337.36 148.22Z" fill="#226792"/>
<path d="M337.95 145.99C332.74 148.22 327.96 161.56 327.91 170.1C327.81 185.62 337.72 187.79 337.72 187.79L351.82 214.51H388.24L381.75 153.92C379.69 140.69 360.49 135.78 360.49 135.78L337.95 145.99Z" fill="#2C71A4"/>
<path d="M364.14 255.01C363.22 256.37 363.28 258.17 364.29 259.47C365.66 261.24 368.25 261.44 369.88 259.92L371.22 258.67C372.87 260.33 374.71 264.14 368.94 273.34C367.97 274.89 368.44 276.93 369.99 277.9C371.2 278.66 372.71 278.54 373.77 277.71C373.82 277.67 373.86 277.62 373.91 277.58C373.93 278.66 374.47 279.71 375.46 280.33C376.67 281.09 378.18 280.97 379.24 280.14C379.38 280.03 379.51 279.91 379.63 279.77C379.89 280.24 380.26 280.66 380.75 280.97C381.96 281.73 383.47 281.61 384.53 280.78C384.83 280.55 385.09 280.26 385.3 279.92C385.38 279.8 385.44 279.68 385.51 279.56C385.56 279.59 385.6 279.64 385.65 279.67C386.86 280.43 388.37 280.31 389.43 279.48C389.73 279.25 389.99 278.96 390.2 278.62C391.79 276.08 392.98 273.66 393.8 271.37H393.81C393.81 271.37 393.82 271.33 393.84 271.26C394.22 270.18 394.51 269.13 394.71 268.11C395.9 263.32 397.66 254.08 396 246.19L371.06 244.73L364.14 255.01Z" fill="#FF7D7B"/>
<path d="M407.74 203L399.12 250.36L368.53 244.76L379.27 197.39C381.08 188.77 390.1 183.74 398.39 186.73C405.06 189.14 409.02 196.02 407.74 203Z" fill="#2C71A4"/>
<path d="M380.54 207.27L354.14 155.2C350.33 147.69 353.3 138.5 360.79 134.64C368.5 130.66 377.97 133.87 381.68 141.72L406.52 194.31C410.35 202.25 406.28 211.74 397.89 214.43C391.12 216.61 383.79 213.58 380.54 207.27Z" fill="#2C71A4"/>
<path d="M357.36 161.55L377.68 201.63L375.47 214.14" stroke="#226792" stroke-width="1.5068" stroke-miterlimit="10"/>
<path d="M0.570007 35.63H180.17" stroke="#60C3AD" stroke-width="1.1319" stroke-miterlimit="10" stroke-linecap="round" stroke-linejoin="round"/>
<path d="M175.35 258.57H5.39001C2.73001 258.57 0.570007 256.41 0.570007 253.75V16.24C0.570007 13.58 2.73001 11.42 5.39001 11.42H175.35C178.01 11.42 180.17 13.58 180.17 16.24V253.75C180.17 256.41 178.01 258.57 175.35 258.57Z" stroke="#60C3AD" stroke-width="1.1319" stroke-miterlimit="10" stroke-linecap="round" stroke-linejoin="round"/>
<path d="M24.21 23.77C24.21 25.64 22.7 27.15 20.83 27.15C18.96 27.15 17.45 25.64 17.45 23.77C17.45 21.9 18.96 20.39 20.83 20.39C22.69 20.39 24.21 21.9 24.21 23.77Z" stroke="#60C3AD" stroke-width="1.1319" stroke-miterlimit="10" stroke-linecap="round" stroke-linejoin="round"/>
<path d="M37.34 23.77C37.34 25.64 35.83 27.15 33.96 27.15C32.09 27.15 30.58 25.64 30.58 23.77C30.58 21.9 32.09 20.39 33.96 20.39C35.83 20.39 37.34 21.9 37.34 23.77Z" stroke="#60C3AD" stroke-width="1.1319" stroke-miterlimit="10" stroke-linecap="round" stroke-linejoin="round"/>
<path d="M50.47 23.77C50.47 25.64 48.96 27.15 47.09 27.15C45.22 27.15 43.71 25.64 43.71 23.77C43.71 21.9 45.22 20.39 47.09 20.39C48.96 20.39 50.47 21.9 50.47 23.77Z" stroke="#60C3AD" stroke-width="1.1319" stroke-miterlimit="10" stroke-linecap="round" stroke-linejoin="round"/>
<mask id="mask0" mask-type="alpha" maskUnits="userSpaceOnUse" x="35" y="51" width="180" height="235">
<path d="M210.13 285.7H40.18C37.52 285.7 35.36 283.54 35.36 280.88V56.01C35.36 53.35 37.52 51.19 40.18 51.19H210.14C212.8 51.19 214.96 53.35 214.96 56.01V280.88C214.96 283.54 212.8 285.7 210.13 285.7Z" fill="#A79DD5"/>
</mask>
<g mask="url(#mask0)">
<path d="M210.13 285.7H40.18C37.52 285.7 35.36 283.54 35.36 280.88V56.01C35.36 53.35 37.52 51.19 40.18 51.19H210.14C212.8 51.19 214.96 53.35 214.96 56.01V280.88C214.96 283.54 212.8 285.7 210.13 285.7Z" fill="#A79DD5"/>
<path d="M137.21 192.12L165.95 249.86C169.16 256.31 176.6 259.67 183.67 257.86C192.28 255.65 197.01 246.71 193.91 238.52L171.24 178.63L137.21 192.12Z" fill="#FF7D7B"/>
<path d="M132.55 180.93L140.67 206.08L182.09 188.49L169.71 165.34C165.6 157.48 157.27 153.69 146.64 153.99L148.1 154.84C136.11 157.06 128.8 169.32 132.55 180.93Z" fill="white"/>
<path d="M146.64 153.99L89.83 153.97C81.45 153.97 88.41 160.31 87.53 168.64L78.76 283.78L171.56 276.13L162.95 168.93C162.2 160.47 155.12 153.99 146.64 153.99Z" fill="white"/>
<path d="M165.1 195.7L163.62 177.29" stroke="#C0C0BE" stroke-width="1.3872" stroke-miterlimit="10"/>
<path d="M63.71 178.02L48.91 240.79C47.26 247.8 50.83 255.15 57.42 258.26C65.45 262.06 74.81 258.21 77.66 249.93L98.5 189.38L63.71 178.02Z" fill="#FF7D7B"/>
<path d="M67.27 166.44L57.44 190.97L101.19 199.74L105.81 178.2C107.67 169.52 103.66 160.65 95.91 156.31C85.26 150.36 71.81 155.12 67.27 166.44Z" fill="white"/>
<path d="M95.34 198.57L101.52 180.03" stroke="#C0C0BE" stroke-width="1.3872" stroke-miterlimit="10"/>
<path d="M143.12 114.8C142.96 119.32 146.5 123.11 151.02 123.27C155.54 123.43 159.33 119.89 159.49 115.37C159.65 110.85 156.11 107.06 151.59 106.9C147.06 106.74 143.27 110.28 143.12 114.8Z" fill="#EB6462"/>
<path d="M141.31 127.47L140.72 156.66C140.5 164.87 134.85 165.29 126.78 165.01C119.89 164.77 114.06 162.55 113.44 155.68L113 124.1L141.31 127.47Z" fill="#FF7D7B"/>
<path d="M140.84 151.15L119.49 133.97L141.19 134.45L140.84 151.15Z" fill="#353434"/>
<path d="M127.28 138.65L138.73 139.05C147.32 139.35 154.46 132.47 154.47 123.87L154.51 102.76C154.53 91.98 145.99 83.13 135.22 82.76C124.19 82.38 113.01 90.94 112.63 101.97L113 124.1C113.12 131.98 119.4 138.38 127.28 138.65Z" fill="#FF7D7B"/>
<path d="M119.99 83.68C114.74 87.95 107.57 90.03 106.63 98.13C105.69 106.16 108.6 117.58 115.18 114.1C115.18 114.1 127.16 114.74 122.97 98.69C122.97 98.69 126.31 92.79 136.92 95.62" fill="#353434"/>
<path d="M144.42 122.04C144.41 122.04 144.41 122.04 144.4 122.04L141.78 121.95C141.49 121.94 141.26 121.69 141.27 121.4C141.28 121.11 141.55 120.91 141.82 120.89L143.85 120.96L143.59 117.26C143.57 116.97 143.79 116.71 144.08 116.69C144.34 116.67 144.63 116.89 144.65 117.18L144.95 121.47C144.96 121.62 144.91 121.77 144.8 121.88C144.71 121.98 144.57 122.04 144.42 122.04Z" fill="#353434"/>
<path d="M147.34 114.03C147.31 114.98 148.05 115.77 148.99 115.8C149.94 115.83 150.73 115.09 150.76 114.15C150.79 113.2 150.05 112.41 149.11 112.38C148.16 112.35 147.37 113.09 147.34 114.03Z" fill="#353434"/>
<path d="M133.49 113.56C133.46 114.51 134.2 115.3 135.14 115.33C136.09 115.36 136.88 114.62 136.91 113.68C136.94 112.73 136.2 111.94 135.26 111.91C134.32 111.88 133.52 112.61 133.49 113.56Z" fill="#353434"/>
<path d="M134.3 103.4C134.3 103.4 138.74 102.88 138.76 105.25C138.76 105.25 138.74 106.86 134.87 107.21C131 107.56 130 107.2 129.66 105.69C129.32 104.19 132.22 103.43 134.3 103.4Z" fill="#353434"/>
<path d="M150.25 103.82C150.25 103.82 146.59 103.35 146.27 105.58C146.27 105.58 146.08 107.09 149.28 107.4C152.48 107.71 153.53 107.17 153.84 105.95C154.21 104.57 151.99 103.84 150.25 103.82Z" fill="#353434"/>
<path d="M146.4 124.44H134.51C134.51 124.44 135.19 129.51 141.89 128.7C146.39 128.15 146.4 124.44 146.4 124.44Z" fill="white"/>
<path d="M144.55 153.97L107.57 153.98C107.57 153.98 109.97 170.47 132.96 169.13C135.96 168.95 138.97 168.41 141.66 167.09C145.84 165.05 149.67 161.28 144.55 153.97Z" fill="#FF7D7B"/>
<path d="M106.19 108.3C106.19 108.3 102.14 82.75 121.83 76.21C141.52 69.68 155.77 84.28 156.67 95.62C156.67 95.62 140.29 84.56 106.19 108.3Z" fill="#FFA755"/>
<path d="M106.19 108.3C106.19 108.3 140.95 85.07 164.58 85.27C164.58 85.27 174.07 86.04 167.44 91.8C160.81 97.56 153.94 98.01 153.94 98.01C153.94 98.01 150.76 92.94 134.2 97.14C118.93 101.02 106.19 108.3 106.19 108.3Z" fill="#353434"/>
<path d="M109.95 119.77L113.1 130.94L115.1 117.63L109.95 119.77Z" fill="#353434"/>
<path d="M102.34 113.81C102.18 118.33 105.72 122.12 110.24 122.28C114.76 122.44 118.55 118.9 118.71 114.38C118.87 109.86 115.33 106.07 110.81 105.91C106.29 105.75 102.5 109.29 102.34 113.81Z" fill="#FF7D7B"/>
<path d="M113.31 117.16C113.3 117.16 113.3 117.16 113.29 117.16C113 117.15 112.77 116.9 112.77 116.61C112.77 116.59 112.83 114.13 111.35 112.79C110.53 112.05 109.36 111.77 107.87 111.96C107.59 112 107.31 111.79 107.27 111.5C107.23 111.21 107.44 110.94 107.73 110.9C109.54 110.67 111 111.04 112.07 112.01C113.91 113.69 113.84 116.53 113.83 116.65C113.83 116.93 113.59 117.16 113.31 117.16Z" fill="#353434"/>
<path d="M233.58 241.75H13.81V305.86H233.58V241.75Z" fill="#353434"/>
<path d="M129.21 277.27C136.997 277.27 143.31 270.957 143.31 263.17C143.31 255.383 136.997 249.07 129.21 249.07C121.423 249.07 115.11 255.383 115.11 263.17C115.11 270.957 121.423 277.27 129.21 277.27Z" fill="#FD565D"/>
<path d="M124.83 258.51L133.89 267.57" stroke="white" stroke-width="1.522" stroke-miterlimit="10"/>
<path d="M133.89 258.51L124.83 267.57" stroke="white" stroke-width="1.522" stroke-miterlimit="10"/>
<path opacity="0.07" d="M233.58 84L34.34 309.03L240.77 310.32L233.58 84Z" fill="white"/>
</g>
<path d="M548.26 287.37H484.75H473.28V237.09H548.26V249.66V287.37Z" stroke="#60C3AD" stroke-width="1.1319" stroke-miterlimit="10" stroke-linecap="round" stroke-linejoin="round"/>
<path d="M548.26 250.18H563.81V300.46H488.83V287.37" stroke="#60C3AD" stroke-width="1.1319" stroke-miterlimit="10" stroke-linecap="round" stroke-linejoin="round"/>
<path d="M473.28 237.09L510.77 264.41L548.26 237.09" stroke="#60C3AD" stroke-width="1.1319" stroke-miterlimit="10" stroke-linecap="round" stroke-linejoin="round"/>
<path d="M270.76 47.45C270.49 47.77 269.96 47.58 269.96 47.15L269.99 38.38V20.84C269.99 19.11 271.4 17.7 273.13 17.7H358.44C360.17 17.7 361.58 19.11 361.58 20.84V39.58C361.58 41.31 360.17 42.72 358.44 42.72H274.8L270.76 47.45Z" fill="#A36FAF"/>
<path d="M283.42 26.74H348.79" stroke="#FCFCF2" stroke-width="1.1319" stroke-miterlimit="10"/>
<path d="M283.42 34.17H310.4" stroke="#FCFCF2" stroke-width="1.1319" stroke-miterlimit="10"/>
<path d="M581.86 197.16H524.21C521.74 197.16 519.75 195.16 519.75 192.7V132.02C519.75 129.55 521.75 127.56 524.21 127.56H581.86C584.33 127.56 586.32 129.56 586.32 132.02V192.7C586.32 195.16 584.32 197.16 581.86 197.16Z" fill="#60C3AD"/>
<path d="M557.82 174.16H539.1C537.43 174.16 536.07 172.8 536.07 171.13V154.97C536.07 153.3 537.43 151.94 539.1 151.94H557.82C559.49 151.94 560.85 153.3 560.85 154.97V171.13C560.85 172.8 559.5 174.16 557.82 174.16Z" fill="#FDFDFD"/>
<path d="M563.12 159.18V165.92C563.12 166.28 563.32 166.62 563.64 166.79L571.57 171.06C572.23 171.41 573.03 170.94 573.03 170.19V156.03C573.03 155.33 572.32 154.85 571.67 155.11L563.74 158.26C563.37 158.41 563.12 158.77 563.12 159.18Z" fill="#FDFDFD"/>
</g>
<defs>
<linearGradient id="paint0_linear" x1="259.687" y1="144.264" x2="316.231" y2="111.618" gradientUnits="userSpaceOnUse">
<stop stop-color="white"/>
<stop offset="0.7533" stop-color="white" stop-opacity="0"/>
</linearGradient>
<clipPath id="clip0">
<rect width="586.32" height="371.09" fill="white"/>
</clipPath>
</defs>
</svg>
