<?xml version="1.0" encoding="utf-8"?>
<!-- Generator: Adobe Illustrator 24.0.3, SVG Export Plug-In . SVG Version: 6.00 Build 0)  -->
<svg version="1.1" id="Layer_1" xmlns="http://www.w3.org/2000/svg" xmlns:xlink="http://www.w3.org/1999/xlink" x="0px" y="0px"
	 viewBox="0 0 1381.22 431.01" style="enable-background:new 0 0 1381.22 431.01;" xml:space="preserve">
<style type="text/css">
	.st0{fill:#FCD700;}
</style>
<path class="st0" d="M376.49,112.85l-0.33-0.29c-0.11-1.71-0.6-3.39-1.46-4.94c-0.88-1.46-2.09-2.71-3.5-3.66
	c-0.24-0.33-0.58-0.6-1.02-0.75L194.12,1.57c-3.63-2.09-8.33-2.09-11.97,0L4.9,103.87v0.19c-1.38,0.93-2.56,2.18-3.46,3.66
	c-0.93,1.7-1.43,3.63-1.45,5.58v204.06c0,4.26,2.3,8.24,5.99,10.37l176.17,101.79l0.42,0.24h0.5c1.6,0.83,3.38,1.26,5.18,1.26
	s3.58-0.44,5.18-1.26h0.49l176.67-102.03c3.69-2.13,5.99-6.1,5.99-10.37V113.72L376.49,112.85z M340.54,113.72l-152.41,87.98
	l-34.93-20.16L305.52,93.5L340.54,113.72z M176.16,222.45v40.47l-93.31-53.85v-40.49L176.16,222.45z M176.16,290.56v40.8
	l-93.31-53.85V236.7L176.16,290.56z M176.16,359.01v39.45l-152.4-88.03V134.46l35.33,20.4l-0.15,136.48L176.16,359.01z
	 M35.69,113.72L188,25.65l35.02,20.23L70.55,133.85L35.69,113.72z M94.48,147.66l152.33-88.05l34.93,20.16l-152.45,87.97
	L94.48,147.66z M200.06,331.02V222.45l93.48-53.95v108.57L200.06,331.02z M317.3,263.36V154.78l35.21-20.32v175.97l-152.45,88.03
	v-39.8l117.39-67.76v-24.54L317.3,263.36z"/>
<g>
	<path class="st0" d="M570.1,292.36h94.86v38.43H526.48V100.22h43.62V292.36z"/>
	<path class="st0" d="M701.3,100.22h141.25v38.43h-97.63v55.74h90.01v38.43h-90.01v59.55h97.63v38.43H701.3V100.22z"/>
	<path class="st0" d="M878.9,163.57c0-42.24,24.58-66.82,82.05-66.82c21.46,0,43.62,2.77,62.67,7.62l-4.85,37.74
		c-18.69-3.46-40.51-5.88-56.43-5.88c-30.12,0-39.81,10.38-39.81,34.96v88.63c0,24.58,9.69,34.96,39.81,34.96
		c15.93,0,37.74-2.43,56.43-5.88l4.85,37.74c-19.05,4.85-41.2,7.62-62.67,7.62c-57.48,0-82.05-24.58-82.05-66.82V163.57z"/>
	<path class="st0" d="M1108.77,292.36h94.86v38.43h-138.47V100.22h43.62V292.36z"/>
	<path class="st0" d="M1239.97,100.22h141.25v38.43h-97.63v55.74h90.01v38.43h-90.01v59.55h97.63v38.43h-141.25V100.22z"/>
</g>
</svg>
