<?xml version="1.0" encoding="UTF-8" standalone="no"?>
<!-- Created with Inkscape (http://www.inkscape.org/) -->

<svg
   xmlns:dc="http://purl.org/dc/elements/1.1/"
   xmlns:cc="http://creativecommons.org/ns#"
   xmlns:rdf="http://www.w3.org/1999/02/22-rdf-syntax-ns#"
   xmlns:svg="http://www.w3.org/2000/svg"
   xmlns="http://www.w3.org/2000/svg"
   xmlns:sodipodi="http://sodipodi.sourceforge.net/DTD/sodipodi-0.dtd"
   xmlns:inkscape="http://www.inkscape.org/namespaces/inkscape"
   width="210mm"
   height="297mm"
   viewBox="0 0 744.09448819 1052.3622047"
   id="svg3526"
   version="1.1"
   inkscape:version="0.91 r13725"
   inkscape:export-filename="/Users/ystamcheva/Dropbox/Designs/appLogo.png"
   inkscape:export-xdpi="90"
   inkscape:export-ydpi="90"
   sodipodi:docname="logo-blue.svg">
  <defs
     id="defs3528" />
  <sodipodi:namedview
     id="base"
     pagecolor="#ffffff"
     bordercolor="#666666"
     borderopacity="1.0"
     inkscape:pageopacity="0.0"
     inkscape:pageshadow="2"
     inkscape:zoom="0.49497475"
     inkscape:cx="817.30793"
     inkscape:cy="496.00851"
     inkscape:document-units="px"
     inkscape:current-layer="layer1"
     showgrid="false"
     inkscape:window-width="1440"
     inkscape:window-height="851"
     inkscape:window-x="0"
     inkscape:window-y="1"
     inkscape:window-maximized="1" />
  <metadata
     id="metadata3531">
    <rdf:RDF>
      <cc:Work
         rdf:about="">
        <dc:format>image/svg+xml</dc:format>
        <dc:type
           rdf:resource="http://purl.org/dc/dcmitype/StillImage" />
        <dc:title></dc:title>
      </cc:Work>
    </rdf:RDF>
  </metadata>
  <g
     inkscape:label="Layer 1"
     inkscape:groupmode="layer"
     id="layer1">
    <g
       id="g4181">
      <g
         style="fill:#17a0db;fill-opacity:1"
         transform="translate(43.272677,-6.8248629)"
         id="g33">
        <path
           d="m 257.311,591.057 c 27.544,0 85.707,-16.445 124.179,-27.332 5.595,-1.575 10.81,-3.049 15.549,-4.371 0.767,-0.211 1.51,-0.403 2.213,-0.579 -2.161,-2.139 -5.755,-5.387 -11.612,-10.295 -25.628,-17.369 -49.827,-25.456 -76.146,-25.456 -5.741,0 -11.707,0.352 -18.208,1.088 -22.283,2.535 -40.848,7.845 -49.767,10.39 -4.521,1.296 -5.883,1.683 -7.292,1.683 -2.688,0 -4.997,-1.599 -5.9,-4.069 -0.904,-2.483 -0.13,-5.223 1.969,-6.981 l 0.127,-0.102 c 15.379,-12.883 44.032,-36.866 98.39,-47.582 9.428,-1.853 19.514,-2.796 29.968,-2.796 24.334,0 49.53,5.026 74.869,14.925 34.511,13.474 58.094,30.771 77.062,44.67 10.211,7.489 19.03,13.959 26.705,17.516 1.961,0.912 2.979,1.169 3.453,1.236 0.349,-0.452 1.106,-1.7 2.219,-4.974 0.298,-0.867 2.453,-10.019 -13.007,-62.071 -8.985,-30.217 -19.822,-61.077 -25.465,-74.778 -10.916,-26.509 -8.237,-45.296 -4.877,-56.284 -9.248,3.399 -18.701,8.688 -28.646,15.993 l -0.62,0.458 c -4.969,3.684 -10.031,7.853 -15.482,12.725 -32.074,28.718 -56.104,43.69 -71.455,44.504 l -0.423,0.021 -0.421,-0.036 c -13.524,-1.148 -34.019,-20.834 -42.403,-30.801 -1.743,-1.169 -3.729,-1.699 -6.35,-1.699 -2.632,0 -5.583,0.553 -8.438,1.095 -2.077,0.394 -4.218,0.795 -6.341,1.01 -6.767,0.679 -16.252,2.867 -25.406,4.974 -4.413,1.014 -8.967,2.063 -13.13,2.922 -0.079,0.013 -1.866,0.382 -5.06,1.224 -22.624,6.693 -39.673,14.372 -48.012,21.628 -0.091,0.079 -0.36,0.288 -0.789,0.603 -5.64,4.009 -19.199,15.447 -23.29,34.907 l -0.043,0.162 c -8.541,35.837 4.408,80.28 21.615,105.666 8.093,11.932 16.814,19.376 23.944,20.42 1.775,0.252 3.905,0.386 6.321,0.386 z"
           id="path35"
           inkscape:connector-curvature="0"
           style="fill:#17a0db;fill-opacity:1" />
      </g>
      <g
         style="fill:#17a0db;fill-opacity:1"
         transform="translate(43.272677,-6.8248629)"
         id="g37">
        <path
           d="m 383.729,400.995 c 0.549,0.108 1.191,0.162 1.9,0.162 14.785,0 47.804,-21.408 53.912,-31.205 l 0.486,-0.78 0.694,-0.611 c 2.083,-2.056 8.099,-12.885 11.019,-19.367 -31.312,-9.394 -34.767,-26.347 -37.821,-41.41 -0.355,-1.749 -0.667,-3.324 -0.946,-4.732 -0.357,-1.842 -0.731,-3.713 -1.052,-5.159 -46.646,15.471 -60.905,24.154 -68.687,30.611 -4.027,3.345 -6.398,12.858 5.215,39.189 5.932,13.422 26.386,31.591 35.28,33.302 z"
           id="path39"
           inkscape:connector-curvature="0"
           style="fill:#17a0db;fill-opacity:1" />
      </g>
      <path
         style="fill:#17a0db;fill-opacity:1"
         inkscape:connector-curvature="0"
         id="path43"
         d="m 183.03568,710.19014 c -5.799,-6.834 -8.258,-15.447 -7.293,-25.624 4.105,-49.397 -1.525,-61.33 -4.132,-64.162 -0.629,-0.685 -0.969,-0.685 -1.238,-0.685 -0.101,0 -0.195,0.006 -0.296,0.016 -4.84,1.157 -37.441,23.198 -44.638,89.005 -3.471,31.758 2.611,72.542 7.794,97.348 4.165,-14.646 10.742,-30.779 23.483,-47.384 11.862,-15.444 24.801,-27.623 40.852,-38.298 -4.99,-2.075 -10.346,-5.274 -14.532,-10.216 z" />
      <g
         style="fill:#17a0db;fill-opacity:1"
         transform="translate(43.272677,-6.8248629)"
         id="g45">
        <path
           d="m 485.028,154.141 c -3.896,25.701 -10.239,50.115 -22.077,75.883 12.904,-14.609 20.445,-30.481 22.971,-48.296 1.051,-7.38 2.045,-14.439 -0.894,-27.587 z"
           id="path47"
           inkscape:connector-curvature="0"
           style="fill:#17a0db;fill-opacity:1" />
      </g>
      <g
         style="fill:#17a0db;fill-opacity:1"
         transform="translate(43.272677,-6.8248629)"
         id="g49">
        <path
           d="m 413.102,273.797 c 23.135,-20.915 37.22,-55.455 43.078,-75.971 -20.149,19.407 -44.636,29.82 -60.351,36.512 -5.412,2.308 -10.08,4.295 -12.878,5.926 -1.178,0.685 -2.367,1.374 -3.571,2.069 -9.533,5.515 -23.924,13.85 -26.022,18.987 l -0.06,0.167 -0.078,0.165 c -6.529,13.72 -10.208,34.352 -11.387,46.184 15.135,-9.242 30.738,-15.41 43.699,-20.529 12.03,-4.753 22.432,-8.863 27.57,-13.51 z"
           id="path51"
           inkscape:connector-curvature="0"
           style="fill:#17a0db;fill-opacity:1" />
      </g>
      <g
         style="fill:#17a0db;fill-opacity:1"
         transform="translate(43.272677,-6.8248629)"
         id="g53">
        <path
           d="m 436.439,291.877 c -0.141,0.357 -0.292,0.695 -0.455,1.017 -3.833,11.143 1.446,26.3 11.227,32.017 2.602,1.522 5.132,2.452 7.559,2.772 0.334,0.014 0.666,0.027 1.001,0.027 7.601,0 13.801,-5.56 18.4,-16.519 2.896,-8.34 3.308,-18.23 1.125,-27.158 -1.696,-6.936 -6.084,-15.215 -8.88,-19.343 -5.219,3.582 -15.533,11.462 -22.615,17.716 -4.946,4.777 -6.733,7.785 -7.362,9.471 z"
           id="path55"
           inkscape:connector-curvature="0"
           style="fill:#17a0db;fill-opacity:1" />
      </g>
      <g
         style="fill:#17a0db;fill-opacity:1"
         transform="translate(43.272677,-6.8248629)"
         id="g57">
        <path
           d="m 501.845,575.103 c 8.403,-2.29 15.076,-4.165 19.998,-5.623 -10.137,-7.061 -21.871,-15.846 -37.823,-28.253 -39.096,-30.404 -81.019,-45.826 -124.587,-45.826 -23.861,0 -44.647,4.592 -61.098,10.151 4.101,-0.255 8.271,-0.377 12.554,-0.377 5.088,0 10.42,0.179 15.842,0.541 16.949,1.136 60.616,8.845 100.106,55.931 7.956,9.469 16.507,17.307 40.828,17.307 8.679,0 18.796,-0.967 30.913,-2.959 0.749,-0.209 1.882,-0.518 3.267,-0.892 z"
           id="path59"
           inkscape:connector-curvature="0"
           style="fill:#17a0db;fill-opacity:1" />
      </g>
      <g
         style="fill:#17a0db;fill-opacity:1"
         transform="translate(43.272677,-6.8248629)"
         id="g61">
        <path
           d="m 557.268,369.949 c -7.755,-12.043 -17.498,-19.524 -25.41,-19.524 -1.464,0 -2.862,0.258 -4.154,0.765 -4.239,1.672 -10.952,21.042 -7.979,35.126 2.023,9.582 13.67,41.96 19.262,57.52 2.142,5.958 3.18,8.869 3.527,9.951 0.275,0.853 0.67,2.077 1.17,3.621 4.517,13.765 16.111,49.145 19.562,77.793 7.175,-30.554 11.239,-67.36 9.647,-111.409 -0.723,-20.199 -6.274,-39.323 -15.625,-53.843 z"
           id="path63"
           inkscape:connector-curvature="0"
           style="fill:#17a0db;fill-opacity:1" />
      </g>
      <g
         style="fill:#17a0db;fill-opacity:1"
         transform="translate(43.272677,-6.8248629)"
         id="g65">
        <path
           d="m 412.08,575.289 c -0.153,-0.2 -0.3,-0.397 -0.445,-0.585 -0.614,0.1 -1.616,0.319 -3.185,0.776 l -0.657,0.197 c -8.011,2.95 -22.707,7.908 -39.694,13.64 -20.387,6.87 -43.477,14.659 -62.808,21.595 -24.596,9.165 -32.572,12.781 -35.073,14.048 -0.454,1.218 -0.963,2.772 -1.53,4.486 -5.817,17.705 -19.139,58.23 -84.831,86.562 13.568,13.744 43.101,38.415 101.24,38.415 5.035,0 10.258,-0.188 15.494,-0.566 43.896,-3.121 85.158,-22.544 116.206,-54.673 28.233,-29.21 44.259,-65.641 44.507,-100.76 -6.871,-0.571 -18.519,-2.281 -29.301,-7.4 -0.125,-0.061 -12.447,-6.002 -19.923,-15.735 z"
           id="path67"
           inkscape:connector-curvature="0"
           style="fill:#17a0db;fill-opacity:1" />
      </g>
      <g
         style="fill:#17a0db;fill-opacity:1"
         transform="translate(43.272677,-6.8248629)"
         id="g69">
        <path
           d="m 162.104,639.109 c -0.122,10.334 -1.489,20.245 -2.82,29.907 -0.716,5.216 -1.464,10.615 -2.014,16.041 -0.746,10.914 1.612,14.717 2.659,15.829 0.571,0.629 1.513,1.346 3.536,1.346 1.558,0 3.418,-0.432 5.383,-1.251 19.507,-8.176 38.032,-22.367 46.937,-30.243 -13.668,-6.095 -34.689,-19.26 -53.681,-31.629 z"
           id="path71"
           inkscape:connector-curvature="0"
           style="fill:#17a0db;fill-opacity:1" />
      </g>
      <g
         style="fill:#17a0db;fill-opacity:1"
         transform="translate(43.272677,-6.8248629)"
         id="g73">
        <path
           d="m 484.26,598.224 c -0.552,7.258 -1.737,20.949 -3.631,31.378 -2.295,12.629 -6.095,23.31 -8.305,28.889 3.945,3.648 7.878,7.228 10.429,9.488 10.265,-6.718 43.961,-32.297 67.208,-90.368 -7.447,5.03 -17.906,9.456 -31.465,13.332 -13.797,3.929 -27.204,6.229 -34.236,7.281 z"
           id="path75"
           inkscape:connector-curvature="0"
           style="fill:#17a0db;fill-opacity:1" />
      </g>
      <g
         transform="translate(43.272677,-6.8248629)"
         id="g85"
         style="fill:#17a0db;fill-opacity:1">
        <path
           style="fill:#17a0db;fill-opacity:1"
           inkscape:connector-curvature="0"
           id="path87"
           d="M 627.562,350.519 C 613.5,321.124 593.893,306.283 580.351,297.677 568.965,290.444 555.872,285.188 541.339,282 c -1.622,-10.158 -4.397,-20.542 -8.198,-30.646 24.507,-36.531 30.407,-77.605 17.008,-119.213 C 539.858,100.151 531.868,79.524 524.996,67.213 510.15,40.585 489.58,34.997 474.936,34.997 c -15.09,0 -29.538,6.412 -39.667,17.61 -10.37,11.462 -15.213,26.462 -13.634,42.228 1.349,13.446 -2.178,37.872 -4.519,46.594 -0.04,0.117 -4.202,11.776 -35.168,26.784 -0.746,0.268 -2.332,0.811 -4.773,1.629 -17.812,5.965 -50.913,17.062 -72.963,46.219 -16.847,20.407 -20.985,40.629 -25.766,64.036 -2.858,13.955 -5.846,32.187 -5.105,53.745 -55.35,12.291 -95.226,37.338 -118.609,74.54 -24.203,38.52 -28.402,86.272 -12.468,141.993 l 0.14,0.414 c 0.292,1.014 0.6,2.024 0.921,3.03 -2.718,-0.466 -5.465,-0.858 -8.285,-1.169 -2.469,-0.284 -5.015,-0.42 -7.54,-0.42 -27.636,0 -57.043,17.371 -78.666,46.474 -16.427,22.098 -36.156,61.131 -36.852,121.593 -0.523,44.905 4.279,86.306 14.283,123.054 7.461,27.381 15.784,44.202 18.979,50.09 l 67.793,127.079 31.06,-140.731 c 10.6,-47.935 21.066,-68.283 34.571,-81.732 31.425,18.938 68.541,28.901 107.941,28.901 43.919,0 89.715,-12.667 128.934,-35.662 25.477,-14.954 47.193,-33.324 64.629,-54.658 0.236,0 0.469,0 0.704,0 l 1.857,-0.038 c 10.782,-0.365 25.522,-5.697 40.434,-14.63 12.421,-7.433 31.147,-21.108 49.946,-44.064 18.945,-23.155 34.402,-51.324 45.926,-83.731 13.5,-37.939 21.717,-82.115 24.404,-131.272 3.253,-45.723 -2.078,-83.533 -15.881,-112.384 z m -31.124,109.427 c -2.415,44.805 -9.745,84.66 -21.764,118.441 -9.713,27.302 -22.502,50.739 -38.005,69.69 -26.696,32.611 -52.783,41.355 -55.551,41.465 l -0.22,0 c -2.528,0 -4.012,-1.032 -11.095,-5.988 -1.979,-1.379 -4.969,-3.467 -7.436,-5.075 -14.813,28.811 -39.145,53.701 -70.659,72.185 -32.098,18.824 -69.432,29.202 -105.1,29.202 -42.352,0 -79.532,-13.979 -107.842,-40.493 -38.621,24.556 -61.833,45.044 -80.652,130.273 l -3.562,16.157 -7.787,-14.59 C 84.8,867.621 78.058,854.32 71.708,830.982 62.852,798.444 58.598,761.384 59.071,720.842 c 0.944,-80.909 44.373,-121.518 68.427,-121.518 0.792,0 1.578,0.039 2.328,0.128 22.8,2.551 37.699,12.402 64.745,30.291 2.796,1.853 5.74,3.8 8.843,5.838 9.69,6.36 23.387,14.125 26.835,14.791 6.562,-0.381 12.986,-15.079 14.853,-28.713 0.114,-0.829 0.226,-1.598 0.334,-2.315 0.147,-1.612 0.227,-3.03 0.27,-4.194 -1.144,-0.399 -2.333,-0.869 -3.547,-1.403 l -0.27,-0.091 c -17.012,-5.857 -41.868,-34.625 -54.378,-76.385 -12.081,-42.21 -9.691,-77.122 7.099,-103.83 27.221,-43.328 86.307,-53.515 105.849,-56.861 6.109,-1.214 12.498,-2.351 18.999,-3.378 3.035,-0.762 5.11,-1.399 6.449,-1.978 0.58,-0.403 0.835,-0.833 0.439,-2.403 l 0.53,-0.148 -0.513,0.115 c -0.237,-1.065 -0.565,-2.311 -0.941,-3.753 -0.521,-1.997 -1.103,-4.256 -1.705,-6.936 -6.05,-27.141 -2.962,-49.884 0.863,-68.559 4.297,-21.019 6.678,-32.656 16.605,-44.279 13.152,-18.103 36.803,-26.025 50.953,-30.77 3.948,-1.322 7.359,-2.462 9.331,-3.412 43.344,-20.789 57.145,-42.646 61.091,-57.318 3.127,-11.642 8.084,-42.253 5.931,-63.63 -0.239,-2.425 0.326,-4.421 1.695,-5.935 1.215,-1.341 2.942,-2.104 4.748,-2.104 4.061,0 9.623,0 30.377,64.478 10.949,33.996 2.785,65.868 -24.244,94.74 -0.347,0.375 -0.7,0.742 -1.04,1.095 -0.738,0.76 -1.848,1.909 -1.999,2.326 0.006,0 -0.048,1.042 1.755,4.031 11.425,18.864 17.633,42.323 15.832,59.763 -0.429,4.062 -1.206,7.971 -1.879,11.411 -0.4,1.968 -0.879,4.377 -1.126,6.241 0.111,0 0.226,0 0.347,0 3.088,-0.327 7.867,-0.7 13.628,-0.7 13.556,0 32.969,2.077 48.503,11.951 9.382,5.952 21.255,15.137 29.981,33.404 10.281,21.472 14.096,51.453 11.369,89.114 z" />
      </g>
    </g>
    <path
       style="fill:#ffffff"
       d=""
       id="path3618"
       inkscape:connector-curvature="0" />
  </g>
</svg>
