<?xml version="1.0" encoding="utf-8"?>
<!-- Generator: Adobe Illustrator 16.0.0, SVG Export Plug-In . SVG Version: 6.00 Build 0)  -->
<!DOCTYPE svg PUBLIC "-//W3C//DTD SVG 1.1//EN" "http://www.w3.org/Graphics/SVG/1.1/DTD/svg11.dtd">
<svg version="1.1" id="Layer_1" xmlns="http://www.w3.org/2000/svg" xmlns:xlink="http://www.w3.org/1999/xlink" x="0px" y="0px"
	 width="394.595px" height="396.871px" viewBox="83.27 0 394.595 396.871" enable-background="new 83.27 0 394.595 396.871"
	 xml:space="preserve">
<g>
	<path d="M280.573,396.025c-108.796,0-197.303-88.533-197.303-197.305c0-108.797,88.507-197.305,197.303-197.305
		c108.784,0,197.292,88.508,197.292,197.305C477.865,307.492,389.357,396.025,280.573,396.025z M280.573,54.997
		c-79.246,0-143.722,64.478-143.722,143.724c0,79.26,64.476,143.724,143.722,143.724c79.247,0,143.711-64.464,143.711-143.724
		C424.284,119.475,359.82,54.997,280.573,54.997z"/>
</g>
<g>
	<path d="M252.547,174.154c0,16.339-13.239,29.577-29.591,29.577c-16.326,0-29.576-13.238-29.576-29.577
		c0-16.326,13.25-29.577,29.576-29.577C239.308,144.577,252.547,157.828,252.547,174.154z"/>
</g>
<g>
	<path d="M366.457,174.154c0,16.339-13.239,29.577-29.615,29.577c-16.326,0-29.565-13.238-29.565-29.577
		c0-16.326,13.239-29.577,29.565-29.577C353.217,144.577,366.457,157.828,366.457,174.154z"/>
</g>
<g>
	<path d="M369.579,226.074c0,0-23.966,55.255-89.843,55.255c-67.119,0-89.856-55.255-89.856-55.255s31.252,30.139,89.856,30.139
		C338.549,256.213,369.579,226.074,369.579,226.074z"/>
</g>
</svg>
