<svg xmlns="http://www.w3.org/2000/svg" width="107" height="107" viewBox="0 0 107 107">
  <g id="그룹_7" data-name="그룹 7" transform="translate(-831 -476)">
    <g id="다각형_6" data-name="다각형 6" transform="translate(938 476) rotate(90)" fill="#b98f6b">
      <path d="M 90.81967163085938 106.5000076293945 L 16.18034553527832 106.5000076293945 C 12.86378383636475 106.5000076293945 9.84278392791748 104.8156890869141 8.09917163848877 101.9944534301758 C 6.355545997619629 99.1732177734375 6.200071334838867 95.71790313720703 7.683283805847168 92.75148010253906 L 45.00293350219727 18.11215400695801 C 45.83462142944336 16.44879150390625 47.09274673461914 15.08675479888916 48.64132308959961 14.17330455780029 C 50.09710693359375 13.31457901000977 51.7772102355957 12.86067962646484 53.49999618530273 12.86067962646484 C 55.22278213500977 12.86067962646484 56.90288543701172 13.31457901000977 58.35866928100586 14.17330455780029 C 59.90724563598633 15.08675479888916 61.16537094116211 16.44879150390625 61.9970588684082 18.11215400695801 L 99.31671905517578 92.75148010253906 C 100.799934387207 95.71790313720703 100.6444549560547 99.1732177734375 98.90083312988281 101.9944534301758 C 97.15721893310547 104.8156890869141 94.13622283935547 106.5000076293945 90.81967163085938 106.5000076293945 Z" stroke="none"/>
      <path d="M 53.49999618530273 13.36067199707031 C 51.86650466918945 13.36067199707031 50.27423477172852 13.79058837890625 48.89534378051758 14.60395050048828 C 47.42996978759766 15.46833801269531 46.2386360168457 16.75877380371094 45.45015716552734 18.33574676513672 L 8.1304931640625 92.97506713867188 C 6.725341796875 95.78536224365234 6.87261962890625 99.05883026123047 8.52447509765625 101.731575012207 C 10.17633056640625 104.4043350219727 13.038330078125 106 16.18032836914062 106 L 90.81966400146484 106 C 93.96166229248047 106 96.82366180419922 104.4043350219727 98.47551727294922 101.731575012207 C 100.1273727416992 99.05883026123047 100.2746505737305 95.78536224365234 98.8695068359375 92.97506713867188 L 61.54983520507812 18.33574676513672 C 60.7613410949707 16.75877380371094 59.57001113891602 15.46833801269531 58.10463714599609 14.60395050048828 C 56.72575759887695 13.79058837890625 55.13348770141602 13.36067199707031 53.49999618530273 13.36067199707031 M 53.49999618530273 12.36067962646484 C 57.05081939697266 12.36067962646484 60.60164260864258 14.20329284667969 62.44426345825195 17.88853454589844 L 99.76393127441406 92.52785491943359 C 103.0884399414062 99.17686462402344 98.25347900390625 107 90.81966400146484 107 L 16.18032836914062 107 C 8.746513366699219 107 3.911552429199219 99.17686462402344 7.236061096191406 92.52785491943359 L 44.55572891235352 17.88853454589844 C 46.39834976196289 14.20329284667969 49.94917297363281 12.36067962646484 53.49999618530273 12.36067962646484 Z" stroke="none" fill="#d5a772"/>
    </g>
    <text id="Stake" transform="translate(869 536)" fill="#fff" font-size="20" font-family="SegoeUI-Bold, Segoe UI" font-weight="700"><tspan x="-25" y="0">Stake</tspan></text>
  </g>
</svg>
