<svg width="58" height="70" viewBox="0 0 58 70" fill="none" xmlns="http://www.w3.org/2000/svg">
<rect width="58" height="70" fill="white"/>
<path fill-rule="evenodd" clip-rule="evenodd" d="M50.8907 37.9238L23.8245 5C23.4947 5.02413 23.1283 5.0425 22.7326 5.06234C19.817 5.20851 15.3106 5.43443 12.1093 8.63576C9.07947 11.6656 8.81017 15.9746 8.87749 18.1291L36.3477 50.043L36.4166 50.0409C38.6097 49.9726 43.6553 49.8156 47.053 47.4172C50.4868 44.9934 51.0254 40.2804 50.8907 37.9238ZM50.8907 27.6225L30.692 5H50.8907V27.6225ZM28.8742 49.8411L8.67548 27.2185V49.8411H28.8742Z" fill="#27107C"/>
<path fill-rule="evenodd" clip-rule="evenodd" d="M48.8708 39.5397L21.8046 6.61588C21.4748 6.64001 21.1084 6.65838 20.7127 6.67821C17.7971 6.82438 13.2907 7.0503 10.0894 10.2516C7.05957 13.2814 6.79026 17.5905 6.85759 19.745L34.3278 51.6589L34.3967 51.6568C36.5898 51.5885 41.6354 51.4314 45.0331 49.0331C48.4669 46.6093 49.0055 41.8962 48.8708 39.5397ZM48.8708 29.2384L28.6722 6.61588H48.8708V29.2384ZM26.8543 51.4569L6.65561 28.8344V51.4569H26.8543Z" fill="url(#paint0_linear_4_15)"/>
<path d="M4.2667 60.2864C4.54301 60.2864 4.76601 60.313 4.93568 60.3664C5.11019 60.4148 5.27986 60.4851 5.44468 60.5772C5.49801 60.6063 5.54406 60.6306 5.58284 60.6499C5.62647 60.6693 5.66283 60.679 5.69191 60.679C5.73554 60.679 5.76948 60.6548 5.79372 60.6063C5.81795 60.553 5.83734 60.4706 5.85189 60.3591H6.01913C5.99489 60.7081 5.98278 61.2995 5.98278 62.1333H5.81553C5.79614 61.857 5.73312 61.5928 5.62647 61.3407C5.51982 61.0887 5.37439 60.8826 5.19018 60.7227C5.00597 60.5627 4.79267 60.4827 4.55029 60.4827C4.32729 60.4827 4.14793 60.5433 4.01219 60.6645C3.87646 60.7808 3.80859 60.9457 3.80859 61.159C3.80859 61.3238 3.84495 61.4668 3.91766 61.588C3.99038 61.7092 4.09703 61.8279 4.23761 61.9443C4.37819 62.0558 4.60846 62.223 4.9284 62.446C4.95749 62.4606 4.98415 62.4775 5.00839 62.4969C5.03748 62.5163 5.06414 62.5357 5.08838 62.5551C5.355 62.7393 5.5683 62.9041 5.72827 63.0495C5.88825 63.1901 6.01671 63.355 6.11366 63.544C6.21546 63.7331 6.26636 63.9512 6.26636 64.1984C6.26636 64.5135 6.17668 64.7802 5.99732 64.9983C5.8228 65.2116 5.58527 65.3716 5.28471 65.4782C4.98415 65.5849 4.65209 65.6382 4.28851 65.6382C3.9928 65.6382 3.74557 65.614 3.54682 65.5655C3.35291 65.517 3.17112 65.4516 3.00145 65.3692C2.8948 65.3013 2.81239 65.2674 2.75422 65.2674C2.71059 65.2674 2.67666 65.294 2.65242 65.3473C2.62818 65.3958 2.60879 65.4758 2.59425 65.5873H2.427C2.44639 65.2577 2.45609 64.5548 2.45609 63.4786H2.62333C2.65727 64.0554 2.77846 64.5232 2.98691 64.882C3.19536 65.2407 3.51531 65.4201 3.94675 65.4201C4.21337 65.4201 4.42425 65.357 4.57937 65.231C4.73934 65.105 4.81933 64.9304 4.81933 64.7075C4.81933 64.4311 4.73207 64.196 4.55756 64.0021C4.38789 63.8034 4.12127 63.5828 3.75769 63.3404C3.46683 63.1465 3.23414 62.9768 3.05962 62.8314C2.88511 62.686 2.7421 62.5187 2.6306 62.3297C2.51911 62.1358 2.46336 61.9128 2.46336 61.6607C2.46336 61.3553 2.54577 61.1008 2.71059 60.8972C2.87541 60.6887 3.09356 60.536 3.36503 60.4391C3.64134 60.3373 3.9419 60.2864 4.2667 60.2864ZM12.6132 60.5336C12.4629 60.5675 12.3514 60.6209 12.2787 60.6936C12.206 60.7614 12.1575 60.8681 12.1333 61.0135C12.1091 61.159 12.0969 61.3771 12.0969 61.668V63.4204C12.0969 64.1185 11.9976 64.6323 11.7988 64.962C11.6679 65.1801 11.474 65.3473 11.2171 65.4637C10.965 65.58 10.6378 65.6382 10.2354 65.6382C9.64886 65.6382 9.19318 65.5219 8.86838 65.2892C8.63085 65.1195 8.47087 64.8917 8.38846 64.6057C8.3109 64.3196 8.27212 63.9318 8.27212 63.4422V61.159C8.27212 60.9747 8.26 60.8414 8.23576 60.759C8.21152 60.6766 8.16305 60.6209 8.09033 60.5918C8.02246 60.5627 7.91097 60.5433 7.75584 60.5336V60.3882C8.03216 60.4027 8.45875 60.41 9.03563 60.41C9.60766 60.41 10.0415 60.4027 10.3372 60.3882V60.5336C10.1627 60.5433 10.0343 60.5627 9.95184 60.5918C9.87428 60.6209 9.82095 60.6766 9.79187 60.759C9.76278 60.8414 9.74824 60.9747 9.74824 61.159V64.1257C9.74824 64.5911 9.82095 64.9183 9.96638 65.1074C10.1118 65.2916 10.3421 65.3837 10.6572 65.3837C11.1177 65.3837 11.4449 65.2213 11.6388 64.8965C11.8327 64.5669 11.9297 64.1015 11.9297 63.5004V61.8134C11.9297 61.4547 11.9152 61.1977 11.8861 61.0426C11.857 60.8826 11.7915 60.7663 11.6897 60.6936C11.5928 60.6209 11.428 60.5675 11.1953 60.5336V60.3882C11.394 60.4027 11.6655 60.41 12.0097 60.41C12.2666 60.41 12.4678 60.4027 12.6132 60.3882V60.5336ZM16.8747 60.2864C17.185 60.2864 17.4516 60.3276 17.6746 60.41C17.8976 60.4924 18.1012 60.6087 18.2854 60.759C18.3387 60.8026 18.3872 60.8245 18.4308 60.8245C18.4793 60.8245 18.5181 60.7905 18.5472 60.7227C18.5763 60.6499 18.5981 60.5384 18.6126 60.3882H18.7799C18.7605 60.7324 18.7508 61.3383 18.7508 62.206H18.5835C18.5496 61.8231 18.4866 61.5201 18.3945 61.2971C18.3024 61.0741 18.1424 60.8851 17.9146 60.7299C17.8128 60.6621 17.694 60.6087 17.5583 60.57C17.4274 60.5312 17.2965 60.5118 17.1656 60.5118C16.8166 60.5118 16.533 60.6354 16.3148 60.8826C16.1015 61.125 15.9488 61.4328 15.8567 61.8061C15.7695 62.1794 15.7258 62.5696 15.7258 62.9768C15.7258 63.8203 15.8276 64.4505 16.0312 64.8674C16.2397 65.2843 16.5281 65.4928 16.8965 65.4928C17.0468 65.4928 17.1656 65.4637 17.2529 65.4055C17.3547 65.3328 17.4056 65.2116 17.4056 65.0419V64.3148C17.4056 64.0724 17.3862 63.8955 17.3474 63.784C17.3086 63.6676 17.2383 63.5901 17.1365 63.5513C17.0396 63.5077 16.8844 63.481 16.6711 63.4713V63.3259C17.0008 63.3404 17.4637 63.3477 18.06 63.3477C18.5593 63.3477 18.9326 63.3404 19.1798 63.3259V63.4713C19.0925 63.481 19.0271 63.5004 18.9835 63.5295C18.9447 63.5586 18.918 63.6143 18.9035 63.6967C18.8889 63.7791 18.8817 63.9124 18.8817 64.0966V65.5364H18.7362C18.7314 65.4346 18.7096 65.3401 18.6708 65.2528C18.632 65.1656 18.5787 65.1219 18.5108 65.1219C18.409 65.1219 18.2442 65.1777 18.0164 65.2892C17.5316 65.5219 17.122 65.6382 16.7875 65.6382C15.8858 65.6382 15.2047 65.4104 14.7442 64.9547C14.2836 64.499 14.0534 63.8494 14.0534 63.0059C14.0534 62.4727 14.1722 62 14.4097 61.588C14.6521 61.1759 14.9866 60.856 15.4132 60.6281C15.8398 60.4003 16.3269 60.2864 16.8747 60.2864ZM24.9875 64.9256C25.0506 65.0807 25.1184 65.1971 25.1911 65.2746C25.2687 65.3473 25.3439 65.3861 25.4166 65.391V65.5364C25.0675 65.5219 24.6264 65.5146 24.0931 65.5146C23.5405 65.5146 23.1333 65.5219 22.8715 65.5364V65.391C23.0557 65.3813 23.1866 65.3595 23.2642 65.3255C23.3418 65.2868 23.3805 65.2213 23.3805 65.1292C23.3805 65.0419 23.3515 64.9256 23.2933 64.7802L22.8643 63.5876H21.3954L21.2718 63.9149C21.1118 64.3269 21.0318 64.642 21.0318 64.8602C21.0318 65.0589 21.0876 65.1946 21.1991 65.2674C21.3106 65.3401 21.4754 65.3813 21.6935 65.391V65.5364C21.33 65.5219 21.0124 65.5146 20.741 65.5146C20.5131 65.5146 20.3265 65.5219 20.1811 65.5364V65.391C20.3023 65.3716 20.4162 65.2964 20.5228 65.1656C20.6295 65.0347 20.7386 64.8262 20.85 64.5402L22.4643 60.3882C22.6195 60.3979 22.7479 60.4027 22.8497 60.4027C22.9467 60.4027 23.0727 60.3979 23.2278 60.3882L24.9875 64.9256ZM22.8134 63.4422L22.1517 61.6243L21.4536 63.4422H22.8134ZM31.7821 65.2455C31.6367 65.391 31.4767 65.4928 31.3022 65.551C31.1277 65.6091 30.9241 65.6382 30.6914 65.6382C30.3569 65.6382 30.0975 65.58 29.9133 65.4637C29.7291 65.3425 29.6152 65.1389 29.5716 64.8529L29.4625 64.1257C29.414 63.7864 29.3461 63.5295 29.2589 63.355C29.1765 63.1804 29.0504 63.0932 28.8808 63.0932H28.5536V64.7656C28.5536 64.9498 28.5657 65.0831 28.5899 65.1656C28.619 65.248 28.6675 65.3037 28.7353 65.3328C28.8032 65.3619 28.9147 65.3813 29.0698 65.391V65.5364C28.7887 65.5219 28.3839 65.5146 27.8555 65.5146C27.2689 65.5146 26.8375 65.5219 26.5612 65.5364V65.391C26.7163 65.3813 26.8278 65.3619 26.8956 65.3328C26.9684 65.3037 27.0168 65.248 27.0411 65.1656C27.0653 65.0831 27.0774 64.9498 27.0774 64.7656V61.159C27.0774 60.9747 27.0629 60.8414 27.0338 60.759C27.0096 60.6766 26.9635 60.6209 26.8956 60.5918C26.8278 60.5627 26.7163 60.5433 26.5612 60.5336V60.3882C26.8375 60.4027 27.2544 60.41 27.8119 60.41L28.6481 60.4027C28.745 60.3979 28.8565 60.3954 28.9826 60.3954C29.7194 60.3954 30.2672 60.4997 30.6259 60.7081C30.9895 60.9166 31.1713 61.2341 31.1713 61.6607C31.1713 62.0243 31.0356 62.3345 30.7641 62.5914C30.4926 62.8484 30.0369 63.0059 29.397 63.0641C29.8915 63.098 30.2648 63.1926 30.5169 63.3477C30.7689 63.498 30.9241 63.721 30.9822 64.0167L31.1349 64.7729C31.1689 64.9523 31.2101 65.0759 31.2586 65.1437C31.307 65.2116 31.3749 65.2455 31.4622 65.2455C31.5494 65.2455 31.6246 65.214 31.6876 65.151L31.7821 65.2455ZM28.9462 60.5336C28.8347 60.5336 28.7499 60.5506 28.6917 60.5845C28.6384 60.6184 28.602 60.679 28.5826 60.7663C28.5632 60.8535 28.5536 60.9844 28.5536 61.159V62.9477H28.7499C29.0941 62.9477 29.3292 62.8435 29.4552 62.6351C29.5813 62.4218 29.6443 62.1236 29.6443 61.7407C29.6443 61.3432 29.5885 61.0426 29.477 60.839C29.3704 60.6354 29.1934 60.5336 28.9462 60.5336ZM37.6448 60.3882C37.6109 60.9263 37.5939 61.4062 37.5939 61.8279C37.5939 62.0509 37.6012 62.2254 37.6158 62.3515H37.4485C37.2885 61.7164 37.0825 61.2583 36.8304 60.9772C36.5783 60.696 36.3069 60.5554 36.016 60.5554H36.0087V64.7147C36.0087 64.9183 36.0281 65.0662 36.0669 65.1583C36.1105 65.2504 36.1857 65.3134 36.2923 65.3473C36.4038 65.3764 36.5783 65.391 36.8159 65.391V65.5364C36.1324 65.5219 35.6015 65.5146 35.2234 65.5146C34.8792 65.5146 34.3799 65.5219 33.7255 65.5364V65.391C33.963 65.391 34.1351 65.3764 34.2418 65.3473C34.3533 65.3134 34.4284 65.2504 34.4672 65.1583C34.5108 65.0662 34.5326 64.9183 34.5326 64.7147V60.5554H34.5254C34.2296 60.5554 33.9557 60.696 33.7037 60.9772C33.4564 61.2535 33.2528 61.7116 33.0929 62.3515H32.9256C32.9402 62.2254 32.9474 62.0509 32.9474 61.8279C32.9474 61.4062 32.9305 60.9263 32.8965 60.3882C33.3571 60.4027 34.1497 60.41 35.2743 60.41C36.3941 60.41 37.1843 60.4027 37.6448 60.3882ZM43.1228 64.9256C43.1858 65.0807 43.2537 65.1971 43.3264 65.2746C43.404 65.3473 43.4791 65.3861 43.5518 65.391V65.5364C43.2028 65.5219 42.7616 65.5146 42.2284 65.5146C41.6758 65.5146 41.2686 65.5219 41.0068 65.5364V65.391C41.191 65.3813 41.3219 65.3595 41.3994 65.3255C41.477 65.2868 41.5158 65.2213 41.5158 65.1292C41.5158 65.0419 41.4867 64.9256 41.4285 64.7802L40.9995 63.5876H39.5307L39.4071 63.9149C39.2471 64.3269 39.1671 64.642 39.1671 64.8602C39.1671 65.0589 39.2228 65.1946 39.3343 65.2674C39.4458 65.3401 39.6107 65.3813 39.8288 65.391V65.5364C39.4652 65.5219 39.1477 65.5146 38.8762 65.5146C38.6484 65.5146 38.4618 65.5219 38.3163 65.5364V65.391C38.4375 65.3716 38.5514 65.2964 38.6581 65.1656C38.7647 65.0347 38.8738 64.8262 38.9853 64.5402L40.5996 60.3882C40.7547 60.3979 40.8832 60.4027 40.985 60.4027C41.0819 60.4027 41.208 60.3979 41.3631 60.3882L43.1228 64.9256ZM40.9486 63.4422L40.2869 61.6243L39.5888 63.4422H40.9486ZM47.2778 60.5336C47.1033 60.5433 46.9748 60.5627 46.8924 60.5918C46.8148 60.6209 46.7615 60.6766 46.7324 60.759C46.7033 60.8414 46.6888 60.9747 46.6888 61.159V64.9111C46.6888 65.0468 46.6985 65.1462 46.7179 65.2092C46.7373 65.2722 46.7712 65.3158 46.8197 65.3401C46.8682 65.3595 46.9482 65.3692 47.0597 65.3692H47.2996C47.4693 65.3692 47.6535 65.2843 47.8522 65.1147C48.051 64.945 48.2304 64.722 48.3903 64.4457C48.5503 64.1645 48.657 63.8737 48.7103 63.5731H48.8775C48.863 63.7476 48.8557 63.9706 48.8557 64.2421C48.8557 64.7656 48.8727 65.1971 48.9066 65.5364C48.577 65.5219 48.0219 65.5146 47.2414 65.5146C46.1071 65.5146 45.2587 65.5219 44.6964 65.5364V65.391C44.8515 65.3813 44.963 65.3619 45.0309 65.3328C45.1036 65.3037 45.1521 65.248 45.1763 65.1656C45.2006 65.0831 45.2127 64.9498 45.2127 64.7656V61.159C45.2127 60.9747 45.1981 60.8414 45.1691 60.759C45.1448 60.6766 45.0988 60.6209 45.0309 60.5918C44.963 60.5627 44.8515 60.5433 44.6964 60.5336V60.3882C44.9727 60.4027 45.4042 60.41 45.9907 60.41C46.5482 60.41 46.9772 60.4027 47.2778 60.3882V60.5336ZM55.3312 64.9474C55.3991 65.0589 55.4646 65.1486 55.5276 65.2165C55.5906 65.2795 55.673 65.3377 55.7748 65.391V65.5364C55.3676 65.5219 54.9313 65.5146 54.4659 65.5146C54.1072 65.5146 53.7606 65.5219 53.4261 65.5364V65.391C53.5812 65.3813 53.6879 65.3692 53.7461 65.3546C53.8091 65.3352 53.8406 65.3013 53.8406 65.2528C53.8406 65.2043 53.8163 65.1413 53.7679 65.0638L52.7135 63.2822C52.6456 63.1659 52.5875 63.0859 52.539 63.0423C52.4954 62.9986 52.4396 62.972 52.3717 62.9623V64.7656C52.3717 64.9498 52.3839 65.0831 52.4081 65.1656C52.4372 65.248 52.4857 65.3037 52.5535 65.3328C52.6214 65.3619 52.7329 65.3813 52.888 65.391V65.5364C52.6068 65.5219 52.2021 65.5146 51.6737 65.5146C51.0871 65.5146 50.6557 65.5219 50.3793 65.5364V65.391C50.5345 65.3813 50.646 65.3619 50.7138 65.3328C50.7865 65.3037 50.835 65.248 50.8593 65.1656C50.8835 65.0831 50.8956 64.9498 50.8956 64.7656V61.159C50.8956 60.9747 50.8811 60.8414 50.852 60.759C50.8277 60.6766 50.7817 60.6209 50.7138 60.5918C50.646 60.5627 50.5345 60.5433 50.3793 60.5336V60.3882C50.6557 60.4027 51.0871 60.41 51.6737 60.41C52.1972 60.41 52.602 60.4027 52.888 60.3882V60.5336C52.7329 60.5433 52.619 60.5627 52.5463 60.5918C52.4784 60.6209 52.4323 60.6766 52.4081 60.759C52.3839 60.8414 52.3717 60.9747 52.3717 61.159V62.8023C52.5656 62.7878 52.7547 62.7151 52.9389 62.5842C53.1231 62.4533 53.3485 62.2376 53.6152 61.937L53.8624 61.6607C54.0757 61.4183 54.1823 61.2002 54.1823 61.0062C54.1823 60.8657 54.1266 60.7542 54.0151 60.6718C53.9036 60.5845 53.7606 60.536 53.5861 60.5263V60.3882C53.9933 60.4027 54.4029 60.41 54.815 60.41C55.1107 60.41 55.3555 60.4027 55.5494 60.3882V60.5263C55.1276 60.6378 54.7301 60.9044 54.3569 61.3262L53.6443 62.1333L55.3312 64.9474Z" fill="#27107C"/>
<defs>
<linearGradient id="paint0_linear_4_15" x1="51.0927" y1="4.79799" x2="8.47349" y2="49.6391" gradientUnits="userSpaceOnUse">
<stop stop-color="#8FA1C7"/>
<stop offset="1" stop-color="#C19BCA"/>
</linearGradient>
</defs>
</svg>
