<svg width="70" height="82" viewBox="0 0 70 82" fill="none" xmlns="http://www.w3.org/2000/svg">
<path fill-rule="evenodd" clip-rule="evenodd" d="M61.3274 43.6053L29.5906 5C29.2038 5.0283 28.7742 5.04984 28.3103 5.07309C24.8915 5.24449 19.6075 5.50939 15.8537 9.26316C12.3011 12.8158 11.9853 17.8684 12.0643 20.3947L44.2748 57.8158L44.3556 57.8133C46.9271 57.7332 52.8434 57.549 56.8274 54.7368C60.8537 51.8947 61.4853 46.3684 61.3274 43.6053ZM61.3274 31.5263L37.6432 5H61.3274V31.5263ZM35.5116 57.5789L11.8274 31.0526V57.5789H35.5116Z" fill="#27107C"/>
<path fill-rule="evenodd" clip-rule="evenodd" d="M58.959 45.5L27.2221 6.89471C26.8354 6.92301 26.4058 6.94455 25.9418 6.96781C22.523 7.13921 17.2391 7.40411 13.4853 11.1579C9.93265 14.7105 9.61687 19.7631 9.69581 22.2894L41.9063 59.7105L41.9872 59.708C44.5587 59.6279 50.475 59.4438 54.459 56.6315C58.4853 53.7894 59.1169 48.2631 58.959 45.5ZM58.959 33.421L35.2748 6.89471H58.959V33.421ZM33.1432 59.4737L9.45898 32.9473V59.4737H33.1432Z" fill="url(#paint0_linear_4_15)"/>
<path d="M5.131 69.502C5.473 69.502 5.749 69.535 5.959 69.601C6.175 69.661 6.385 69.748 6.589 69.862C6.655 69.898 6.712 69.928 6.76 69.952C6.814 69.976 6.859 69.988 6.895 69.988C6.949 69.988 6.991 69.958 7.021 69.898C7.051 69.832 7.075 69.73 7.093 69.592H7.3C7.27 70.024 7.255 70.756 7.255 71.788H7.048C7.024 71.446 6.946 71.119 6.814 70.807C6.682 70.495 6.502 70.24 6.274 70.042C6.046 69.844 5.782 69.745 5.482 69.745C5.206 69.745 4.984 69.82 4.816 69.97C4.648 70.114 4.564 70.318 4.564 70.582C4.564 70.786 4.609 70.963 4.699 71.113C4.789 71.263 4.921 71.41 5.095 71.554C5.269 71.692 5.554 71.899 5.95 72.175C5.986 72.193 6.019 72.214 6.049 72.238C6.085 72.262 6.118 72.286 6.148 72.31C6.478 72.538 6.742 72.742 6.94 72.922C7.138 73.096 7.297 73.3 7.417 73.534C7.543 73.768 7.606 74.038 7.606 74.344C7.606 74.734 7.495 75.064 7.273 75.334C7.057 75.598 6.763 75.796 6.391 75.928C6.019 76.06 5.608 76.126 5.158 76.126C4.792 76.126 4.486 76.096 4.24 76.036C4 75.976 3.775 75.895 3.565 75.793C3.433 75.709 3.331 75.667 3.259 75.667C3.205 75.667 3.163 75.7 3.133 75.766C3.103 75.826 3.079 75.925 3.061 76.063H2.854C2.878 75.655 2.89 74.785 2.89 73.453H3.097C3.139 74.167 3.289 74.746 3.547 75.19C3.805 75.634 4.201 75.856 4.735 75.856C5.065 75.856 5.326 75.778 5.518 75.622C5.716 75.466 5.815 75.25 5.815 74.974C5.815 74.632 5.707 74.341 5.491 74.101C5.281 73.855 4.951 73.582 4.501 73.282C4.141 73.042 3.853 72.832 3.637 72.652C3.421 72.472 3.244 72.265 3.106 72.031C2.968 71.791 2.899 71.515 2.899 71.203C2.899 70.825 3.001 70.51 3.205 70.258C3.409 70 3.679 69.811 4.015 69.691C4.357 69.565 4.729 69.502 5.131 69.502ZM15.1927 69.808C15.0067 69.85 14.8687 69.916 14.7787 70.006C14.6887 70.09 14.6287 70.222 14.5987 70.402C14.5687 70.582 14.5537 70.852 14.5537 71.212V73.381C14.5537 74.245 14.4307 74.881 14.1847 75.289C14.0227 75.559 13.7827 75.766 13.4647 75.91C13.1527 76.054 12.7477 76.126 12.2497 76.126C11.5237 76.126 10.9597 75.982 10.5577 75.694C10.2637 75.484 10.0657 75.202 9.96366 74.848C9.86766 74.494 9.81966 74.014 9.81966 73.408V70.582C9.81966 70.354 9.80466 70.189 9.77466 70.087C9.74466 69.985 9.68466 69.916 9.59466 69.88C9.51066 69.844 9.37266 69.82 9.18066 69.808V69.628C9.52266 69.646 10.0507 69.655 10.7647 69.655C11.4727 69.655 12.0097 69.646 12.3757 69.628V69.808C12.1597 69.82 12.0007 69.844 11.8987 69.88C11.8027 69.916 11.7367 69.985 11.7007 70.087C11.6647 70.189 11.6467 70.354 11.6467 70.582V74.254C11.6467 74.83 11.7367 75.235 11.9167 75.469C12.0967 75.697 12.3817 75.811 12.7717 75.811C13.3417 75.811 13.7467 75.61 13.9867 75.208C14.2267 74.8 14.3467 74.224 14.3467 73.48V71.392C14.3467 70.948 14.3287 70.63 14.2927 70.438C14.2567 70.24 14.1757 70.096 14.0497 70.006C13.9297 69.916 13.7257 69.85 13.4377 69.808V69.628C13.6837 69.646 14.0197 69.655 14.4457 69.655C14.7637 69.655 15.0127 69.646 15.1927 69.628V69.808ZM20.1983 69.502C20.5823 69.502 20.9123 69.553 21.1883 69.655C21.4643 69.757 21.7163 69.901 21.9443 70.087C22.0103 70.141 22.0703 70.168 22.1243 70.168C22.1843 70.168 22.2323 70.126 22.2683 70.042C22.3043 69.952 22.3313 69.814 22.3493 69.628H22.5563C22.5323 70.054 22.5203 70.804 22.5203 71.878H22.3133C22.2713 71.404 22.1933 71.029 22.0793 70.753C21.9653 70.477 21.7673 70.243 21.4853 70.051C21.3593 69.967 21.2123 69.901 21.0443 69.853C20.8823 69.805 20.7203 69.781 20.5583 69.781C20.1263 69.781 19.7753 69.934 19.5053 70.24C19.2413 70.54 19.0523 70.921 18.9383 71.383C18.8303 71.845 18.7763 72.328 18.7763 72.832C18.7763 73.876 18.9023 74.656 19.1543 75.172C19.4123 75.688 19.7693 75.946 20.2253 75.946C20.4113 75.946 20.5583 75.91 20.6663 75.838C20.7923 75.748 20.8553 75.598 20.8553 75.388V74.488C20.8553 74.188 20.8313 73.969 20.7833 73.831C20.7353 73.687 20.6483 73.591 20.5223 73.543C20.4023 73.489 20.2103 73.456 19.9463 73.444V73.264C20.3543 73.282 20.9273 73.291 21.6653 73.291C22.2833 73.291 22.7453 73.282 23.0513 73.264V73.444C22.9433 73.456 22.8623 73.48 22.8083 73.516C22.7603 73.552 22.7273 73.621 22.7093 73.723C22.6913 73.825 22.6823 73.99 22.6823 74.218V76H22.5023C22.4963 75.874 22.4693 75.757 22.4213 75.649C22.3733 75.541 22.3073 75.487 22.2233 75.487C22.0973 75.487 21.8933 75.556 21.6113 75.694C21.0113 75.982 20.5043 76.126 20.0903 76.126C18.9743 76.126 18.1313 75.844 17.5613 75.28C16.9913 74.716 16.7063 73.912 16.7063 72.868C16.7063 72.208 16.8533 71.623 17.1473 71.113C17.4473 70.603 17.8613 70.207 18.3893 69.925C18.9173 69.643 19.5203 69.502 20.1983 69.502ZM29.9707 75.244C30.0487 75.436 30.1327 75.58 30.2227 75.676C30.3187 75.766 30.4117 75.814 30.5017 75.82V76C30.0697 75.982 29.5237 75.973 28.8637 75.973C28.1797 75.973 27.6757 75.982 27.3517 76V75.82C27.5797 75.808 27.7417 75.781 27.8377 75.739C27.9337 75.691 27.9817 75.61 27.9817 75.496C27.9817 75.388 27.9457 75.244 27.8737 75.064L27.3427 73.588H25.5247L25.3717 73.993C25.1737 74.503 25.0747 74.893 25.0747 75.163C25.0747 75.409 25.1437 75.577 25.2817 75.667C25.4197 75.757 25.6237 75.808 25.8937 75.82V76C25.4437 75.982 25.0507 75.973 24.7147 75.973C24.4327 75.973 24.2017 75.982 24.0217 76V75.82C24.1717 75.796 24.3127 75.703 24.4447 75.541C24.5767 75.379 24.7117 75.121 24.8497 74.767L26.8477 69.628C27.0397 69.64 27.1987 69.646 27.3247 69.646C27.4447 69.646 27.6007 69.64 27.7927 69.628L29.9707 75.244ZM27.2797 73.408L26.4607 71.158L25.5967 73.408H27.2797ZM38.1115 75.64C37.9315 75.82 37.7335 75.946 37.5175 76.018C37.3015 76.09 37.0495 76.126 36.7615 76.126C36.3475 76.126 36.0265 76.054 35.7985 75.91C35.5705 75.76 35.4295 75.508 35.3755 75.154L35.2405 74.254C35.1805 73.834 35.0965 73.516 34.9885 73.3C34.8865 73.084 34.7305 72.976 34.5205 72.976H34.1155V75.046C34.1155 75.274 34.1305 75.439 34.1605 75.541C34.1965 75.643 34.2565 75.712 34.3405 75.748C34.4245 75.784 34.5625 75.808 34.7545 75.82V76C34.4065 75.982 33.9055 75.973 33.2515 75.973C32.5255 75.973 31.9915 75.982 31.6495 76V75.82C31.8415 75.808 31.9795 75.784 32.0635 75.748C32.1535 75.712 32.2135 75.643 32.2435 75.541C32.2735 75.439 32.2885 75.274 32.2885 75.046V70.582C32.2885 70.354 32.2705 70.189 32.2345 70.087C32.2045 69.985 32.1475 69.916 32.0635 69.88C31.9795 69.844 31.8415 69.82 31.6495 69.808V69.628C31.9915 69.646 32.5075 69.655 33.1975 69.655L34.2325 69.646C34.3525 69.64 34.4905 69.637 34.6465 69.637C35.5585 69.637 36.2365 69.766 36.6805 70.024C37.1305 70.282 37.3555 70.675 37.3555 71.203C37.3555 71.653 37.1875 72.037 36.8515 72.355C36.5155 72.673 35.9515 72.868 35.1595 72.94C35.7715 72.982 36.2335 73.099 36.5455 73.291C36.8575 73.477 37.0495 73.753 37.1215 74.119L37.3105 75.055C37.3525 75.277 37.4035 75.43 37.4635 75.514C37.5235 75.598 37.6075 75.64 37.7155 75.64C37.8235 75.64 37.9165 75.601 37.9945 75.523L38.1115 75.64ZM34.6015 69.808C34.4635 69.808 34.3585 69.829 34.2865 69.871C34.2205 69.913 34.1755 69.988 34.1515 70.096C34.1275 70.204 34.1155 70.366 34.1155 70.582V72.796H34.3585C34.7845 72.796 35.0755 72.667 35.2315 72.409C35.3875 72.145 35.4655 71.776 35.4655 71.302C35.4655 70.81 35.3965 70.438 35.2585 70.186C35.1265 69.934 34.9075 69.808 34.6015 69.808ZM45.0989 69.628C45.0569 70.294 45.0359 70.888 45.0359 71.41C45.0359 71.686 45.0449 71.902 45.0629 72.058H44.8559C44.6579 71.272 44.4029 70.705 44.0909 70.357C43.7789 70.009 43.4429 69.835 43.0829 69.835H43.0739V74.983C43.0739 75.235 43.0979 75.418 43.1459 75.532C43.1999 75.646 43.2929 75.724 43.4249 75.766C43.5629 75.802 43.7789 75.82 44.0729 75.82V76C43.2269 75.982 42.5699 75.973 42.1019 75.973C41.6759 75.973 41.0579 75.982 40.2479 76V75.82C40.5419 75.82 40.7549 75.802 40.8869 75.766C41.0249 75.724 41.1179 75.646 41.1659 75.532C41.2199 75.418 41.2469 75.235 41.2469 74.983V69.835H41.2379C40.8719 69.835 40.5329 70.009 40.2209 70.357C39.9149 70.699 39.6629 71.266 39.4649 72.058H39.2579C39.2759 71.902 39.2849 71.686 39.2849 71.41C39.2849 70.888 39.2639 70.294 39.2219 69.628C39.7919 69.646 40.7729 69.655 42.1649 69.655C43.5509 69.655 44.5289 69.646 45.0989 69.628ZM51.6101 75.244C51.6881 75.436 51.7721 75.58 51.8621 75.676C51.9581 75.766 52.0511 75.814 52.1411 75.82V76C51.7091 75.982 51.1631 75.973 50.5031 75.973C49.8191 75.973 49.3151 75.982 48.9911 76V75.82C49.2191 75.808 49.3811 75.781 49.4771 75.739C49.5731 75.691 49.6211 75.61 49.6211 75.496C49.6211 75.388 49.5851 75.244 49.5131 75.064L48.9821 73.588H47.1641L47.0111 73.993C46.8131 74.503 46.7141 74.893 46.7141 75.163C46.7141 75.409 46.7831 75.577 46.9211 75.667C47.0591 75.757 47.2631 75.808 47.5331 75.82V76C47.0831 75.982 46.6901 75.973 46.3541 75.973C46.0721 75.973 45.8411 75.982 45.6611 76V75.82C45.8111 75.796 45.9521 75.703 46.0841 75.541C46.2161 75.379 46.3511 75.121 46.4891 74.767L48.4871 69.628C48.6791 69.64 48.8381 69.646 48.9641 69.646C49.0841 69.646 49.2401 69.64 49.4321 69.628L51.6101 75.244ZM48.9191 73.408L48.1001 71.158L47.2361 73.408H48.9191ZM56.4839 69.808C56.2679 69.82 56.1089 69.844 56.0069 69.88C55.9109 69.916 55.8449 69.985 55.8089 70.087C55.7729 70.189 55.7549 70.354 55.7549 70.582V75.226C55.7549 75.394 55.7669 75.517 55.7909 75.595C55.8149 75.673 55.8569 75.727 55.9169 75.757C55.9769 75.781 56.0759 75.793 56.2139 75.793H56.5109C56.7209 75.793 56.9489 75.688 57.1949 75.478C57.4409 75.268 57.6629 74.992 57.8609 74.65C58.0589 74.302 58.1909 73.942 58.2569 73.57H58.4639C58.4459 73.786 58.4369 74.062 58.4369 74.398C58.4369 75.046 58.4579 75.58 58.4999 76C58.0919 75.982 57.4049 75.973 56.4389 75.973C55.0349 75.973 53.9849 75.982 53.2889 76V75.82C53.4809 75.808 53.6189 75.784 53.7029 75.748C53.7929 75.712 53.8529 75.643 53.8829 75.541C53.9129 75.439 53.9279 75.274 53.9279 75.046V70.582C53.9279 70.354 53.9099 70.189 53.8739 70.087C53.8439 69.985 53.7869 69.916 53.7029 69.88C53.6189 69.844 53.4809 69.82 53.2889 69.808V69.628C53.6309 69.646 54.1649 69.655 54.8909 69.655C55.5809 69.655 56.1119 69.646 56.4839 69.628V69.808ZM66.1828 75.271C66.2668 75.409 66.3478 75.52 66.4258 75.604C66.5038 75.682 66.6058 75.754 66.7318 75.82V76C66.2278 75.982 65.6878 75.973 65.1118 75.973C64.6678 75.973 64.2388 75.982 63.8248 76V75.82C64.0168 75.808 64.1488 75.793 64.2208 75.775C64.2988 75.751 64.3378 75.709 64.3378 75.649C64.3378 75.589 64.3078 75.511 64.2478 75.415L62.9428 73.21C62.8588 73.066 62.7868 72.967 62.7268 72.913C62.6728 72.859 62.6038 72.826 62.5198 72.814V75.046C62.5198 75.274 62.5348 75.439 62.5648 75.541C62.6008 75.643 62.6608 75.712 62.7448 75.748C62.8288 75.784 62.9668 75.808 63.1588 75.82V76C62.8108 75.982 62.3098 75.973 61.6558 75.973C60.9298 75.973 60.3958 75.982 60.0538 76V75.82C60.2458 75.808 60.3838 75.784 60.4678 75.748C60.5578 75.712 60.6178 75.643 60.6478 75.541C60.6778 75.439 60.6928 75.274 60.6928 75.046V70.582C60.6928 70.354 60.6748 70.189 60.6388 70.087C60.6088 69.985 60.5518 69.916 60.4678 69.88C60.3838 69.844 60.2458 69.82 60.0538 69.808V69.628C60.3958 69.646 60.9298 69.655 61.6558 69.655C62.3038 69.655 62.8048 69.646 63.1588 69.628V69.808C62.9668 69.82 62.8258 69.844 62.7358 69.88C62.6518 69.916 62.5948 69.985 62.5648 70.087C62.5348 70.189 62.5198 70.354 62.5198 70.582V72.616C62.7598 72.598 62.9938 72.508 63.2218 72.346C63.4498 72.184 63.7288 71.917 64.0588 71.545L64.3648 71.203C64.6288 70.903 64.7608 70.633 64.7608 70.393C64.7608 70.219 64.6918 70.081 64.5538 69.979C64.4158 69.871 64.2388 69.811 64.0228 69.799V69.628C64.5268 69.646 65.0338 69.655 65.5438 69.655C65.9098 69.655 66.2128 69.646 66.4528 69.628V69.799C65.9308 69.937 65.4388 70.267 64.9768 70.789L64.0948 71.788L66.1828 75.271Z" fill="white"/>
<path d="M5.959 69.601L5.884 69.8396L5.89209 69.8419L5.959 69.601ZM6.589 69.862L6.46704 70.0802L6.46929 70.0815L6.589 69.862ZM6.76 69.952L6.64808 70.1758L6.65846 70.1805L6.76 69.952ZM7.021 69.898L7.24476 70.0099L7.24859 70.0015L7.021 69.898ZM7.093 69.592V69.342H6.87349L6.8451 69.5597L7.093 69.592ZM7.3 69.592L7.5494 69.6093L7.56796 69.342H7.3V69.592ZM7.255 71.788V72.038H7.505V71.788H7.255ZM7.048 71.788L6.79861 71.8055L6.81493 72.038H7.048V71.788ZM6.274 70.042L6.43792 69.8532L6.43792 69.8532L6.274 70.042ZM4.816 69.97L4.97873 70.1599L4.9825 70.1565L4.816 69.97ZM4.699 71.113L4.91337 70.9844L4.91337 70.9844L4.699 71.113ZM5.095 71.554L4.93557 71.7466L4.93965 71.7499L5.095 71.554ZM5.95 72.175L5.80705 72.3801L5.82195 72.3905L5.8382 72.3986L5.95 72.175ZM6.049 72.238L5.89282 72.4332L5.9013 72.44L5.91032 72.446L6.049 72.238ZM6.148 72.31L5.99182 72.5052L5.99867 72.5107L6.00589 72.5157L6.148 72.31ZM6.94 72.922L6.77181 73.107L6.77497 73.1098L6.94 72.922ZM7.417 73.534L7.1945 73.6481L7.19688 73.6525L7.417 73.534ZM7.273 75.334L7.07989 75.1752L7.07951 75.1757L7.273 75.334ZM6.391 75.928L6.4746 76.1636L6.4746 76.1636L6.391 75.928ZM4.24 76.036L4.17936 76.2785L4.18076 76.2789L4.24 76.036ZM3.565 75.793L3.43078 76.0039L3.44288 76.0116L3.45577 76.0179L3.565 75.793ZM3.133 75.766L3.35676 75.8779L3.36059 75.8695L3.133 75.766ZM3.061 76.063V76.313H3.28051L3.3089 76.0953L3.061 76.063ZM2.854 76.063L2.60443 76.0483L2.58886 76.313H2.854V76.063ZM2.89 73.453V73.203H2.64V73.453H2.89ZM3.097 73.453L3.34657 73.4383L3.33272 73.203H3.097V73.453ZM3.547 75.19L3.33084 75.3156L3.33084 75.3156L3.547 75.19ZM5.518 75.622L5.36326 75.4256L5.36035 75.428L5.518 75.622ZM5.491 74.101L5.30079 74.2634L5.30517 74.2682L5.491 74.101ZM4.501 73.282L4.63967 73.074L4.63967 73.074L4.501 73.282ZM3.637 72.652L3.79704 72.4599L3.79704 72.4599L3.637 72.652ZM3.106 72.031L2.88926 72.1556L2.89066 72.158L3.106 72.031ZM3.205 70.258L3.39932 70.4153L3.4011 70.4131L3.205 70.258ZM4.015 69.691L4.09909 69.9264L4.10142 69.9256L4.015 69.691ZM5.131 69.752C5.46 69.752 5.70783 69.7841 5.88404 69.8395L6.03396 69.3625C5.79016 69.2859 5.486 69.252 5.131 69.252V69.752ZM5.89209 69.8419C6.08811 69.8963 6.27969 69.9755 6.46704 70.0802L6.71095 69.6438C6.49031 69.5205 6.26189 69.4257 6.02591 69.3601L5.89209 69.8419ZM6.46929 70.0815C6.53695 70.1184 6.59672 70.1499 6.64819 70.1756L6.8718 69.7284C6.82728 69.7061 6.77304 69.6776 6.70871 69.6425L6.46929 70.0815ZM6.65846 70.1805C6.72646 70.2107 6.80861 70.238 6.895 70.238V69.738C6.90402 69.738 6.90595 69.7394 6.89866 69.7374C6.89171 69.7356 6.87955 69.7316 6.86153 69.7235L6.65846 70.1805ZM6.895 70.238C7.06839 70.238 7.18456 70.1299 7.24461 70.0098L6.79739 69.7862C6.79533 69.7903 6.80106 69.7768 6.82169 69.7621C6.84513 69.7453 6.87246 69.738 6.895 69.738V70.238ZM7.24859 70.0015C7.29438 69.9007 7.32207 69.7687 7.3409 69.6243L6.8451 69.5597C6.82793 69.6913 6.80762 69.7633 6.79341 69.7945L7.24859 70.0015ZM7.093 69.842H7.3V69.342H7.093V69.842ZM7.0506 69.5747C7.01994 70.0162 7.005 70.7559 7.005 71.788H7.505C7.505 70.7561 7.52006 70.0318 7.5494 69.6093L7.0506 69.5747ZM7.255 71.538H7.048V72.038H7.255V71.538ZM7.29739 71.7705C7.27148 71.4013 7.18712 71.0473 7.04424 70.7096L6.58376 70.9044C6.70488 71.1907 6.77652 71.4907 6.79861 71.8055L7.29739 71.7705ZM7.04424 70.7096C6.89921 70.3668 6.69804 70.0791 6.43792 69.8532L6.11008 70.2308C6.30595 70.4009 6.46478 70.6232 6.58376 70.9044L7.04424 70.7096ZM6.43792 69.8532C6.16477 69.616 5.84267 69.495 5.482 69.495V69.995C5.72133 69.995 5.92723 70.072 6.11008 70.2308L6.43792 69.8532ZM5.482 69.495C5.15905 69.495 4.87307 69.5839 4.64949 69.7835L4.9825 70.1565C5.09493 70.0561 5.25294 69.995 5.482 69.995V69.495ZM4.6533 69.7802C4.41911 69.9809 4.314 70.2605 4.314 70.582H4.814C4.814 70.3755 4.87688 70.2471 4.9787 70.1598L4.6533 69.7802ZM4.314 70.582C4.314 70.8237 4.36768 71.0467 4.48463 71.2416L4.91337 70.9844C4.85032 70.8793 4.814 70.7483 4.814 70.582H4.314ZM4.48463 71.2416C4.59274 71.4218 4.74581 71.5895 4.93561 71.7466L5.25439 71.3614C5.09618 71.2305 4.98526 71.1042 4.91337 70.9844L4.48463 71.2416ZM4.93965 71.7499C5.12012 71.893 5.41053 72.1037 5.80705 72.3801L6.09295 71.9699C5.69747 71.6943 5.41787 71.491 5.25035 71.3581L4.93965 71.7499ZM5.8382 72.3986C5.85919 72.4091 5.87721 72.4207 5.89282 72.4332L6.20517 72.0428C6.16079 72.0073 6.1128 71.9769 6.0618 71.9514L5.8382 72.3986ZM5.91032 72.446C5.94104 72.4665 5.96812 72.4863 5.99182 72.5052L6.30417 72.1148C6.26788 72.0857 6.22895 72.0575 6.18767 72.03L5.91032 72.446ZM6.00589 72.5157C6.33078 72.7402 6.58501 72.9371 6.77183 73.107L7.10817 72.737C6.89899 72.5469 6.62522 72.3358 6.29011 72.1043L6.00589 72.5157ZM6.77497 73.1098C6.94942 73.2631 7.08892 73.4421 7.19454 73.6481L7.63945 73.4199C7.50508 73.1579 7.32657 72.9289 7.10503 72.7342L6.77497 73.1098ZM7.19688 73.6525C7.30048 73.8449 7.356 74.0731 7.356 74.344H7.856C7.856 74.0029 7.78552 73.6911 7.63712 73.4155L7.19688 73.6525ZM7.356 74.344C7.356 74.6832 7.26082 74.9552 7.07989 75.1752L7.4661 75.4928C7.72918 75.1728 7.856 74.7848 7.856 74.344H7.356ZM7.07951 75.1757C6.89669 75.3991 6.64327 75.5732 6.3074 75.6924L6.4746 76.1636C6.88273 76.0188 7.21731 75.7969 7.46649 75.4923L7.07951 75.1757ZM6.3074 75.6924C5.96571 75.8136 5.58345 75.876 5.158 75.876V76.376C5.63255 76.376 6.07228 76.3064 6.4746 76.1636L6.3074 75.6924ZM5.158 75.876C4.80394 75.876 4.51936 75.8468 4.29924 75.7931L4.18076 76.2789C4.45264 76.3452 4.78006 76.376 5.158 76.376V75.876ZM4.30063 75.7935C4.0764 75.7374 3.86779 75.6621 3.67422 75.5681L3.45577 76.0179C3.68221 76.1279 3.92359 76.2146 4.17936 76.2785L4.30063 75.7935ZM3.69922 75.5821C3.56423 75.4962 3.40886 75.417 3.259 75.417V75.917C3.24971 75.917 3.25909 75.9152 3.29431 75.9297C3.32741 75.9433 3.37249 75.9668 3.43078 76.0039L3.69922 75.5821ZM3.259 75.417C3.07251 75.417 2.95947 75.5436 2.90541 75.6625L3.36059 75.8695C3.36466 75.8605 3.36114 75.8729 3.34145 75.8883C3.33112 75.8964 3.31783 75.9042 3.30202 75.9096C3.28624 75.915 3.27138 75.917 3.259 75.917V75.417ZM2.90939 75.6542C2.85958 75.7538 2.83169 75.8882 2.8131 76.0307L3.3089 76.0953C3.32631 75.9618 3.34642 75.8982 3.35661 75.8778L2.90939 75.6542ZM3.061 75.813H2.854V76.313H3.061V75.813ZM3.10357 76.0777C3.12808 75.661 3.14 74.7833 3.14 73.453H2.64C2.64 74.7867 2.62792 75.649 2.60443 76.0483L3.10357 76.0777ZM2.89 73.703H3.097V73.203H2.89V73.703ZM2.84743 73.4677C2.89088 74.2063 3.047 74.8271 3.33084 75.3156L3.76315 75.0644C3.531 74.6649 3.38712 74.1277 3.34657 73.4383L2.84743 73.4677ZM3.33084 75.3156C3.63574 75.8403 4.1163 76.106 4.735 76.106V75.606C4.2857 75.606 3.97425 75.4277 3.76315 75.0644L3.33084 75.3156ZM4.735 76.106C5.10319 76.106 5.42615 76.0187 5.67565 75.816L5.36035 75.428C5.22585 75.5373 5.02681 75.606 4.735 75.606V76.106ZM5.67272 75.8184C5.93714 75.61 6.065 75.3183 6.065 74.974H5.565C5.565 75.1817 5.49486 75.322 5.36328 75.4256L5.67272 75.8184ZM6.065 74.974C6.065 74.5742 5.93673 74.2226 5.67682 73.9338L5.30517 74.2682C5.47726 74.4594 5.565 74.6898 5.565 74.974H6.065ZM5.68114 73.9387C5.4495 73.6673 5.09784 73.3794 4.63967 73.074L4.36232 73.49C4.80416 73.7846 5.1125 74.0427 5.30086 74.2633L5.68114 73.9387ZM4.63967 73.074C4.28359 72.8366 4.00361 72.6321 3.79704 72.4599L3.47695 72.8441C3.70239 73.0319 3.9984 73.2474 4.36232 73.49L4.63967 73.074ZM3.79704 72.4599C3.60229 72.2976 3.44427 72.1124 3.32134 71.904L2.89066 72.158C3.04373 72.4176 3.23971 72.6464 3.47695 72.8441L3.79704 72.4599ZM3.32272 71.9064C3.20918 71.7089 3.149 71.4769 3.149 71.203H2.649C2.649 71.5531 2.72681 71.8731 2.88927 72.1556L3.32272 71.9064ZM3.149 71.203C3.149 70.8723 3.23714 70.6156 3.39931 70.4153L3.01069 70.1007C2.76486 70.4044 2.649 70.7777 2.649 71.203H3.149ZM3.4011 70.4131C3.57358 70.1949 3.80333 70.0321 4.09908 69.9264L3.93091 69.4556C3.55466 69.5899 3.24442 69.8051 3.00889 70.1029L3.4011 70.4131ZM4.10142 69.9256C4.41304 69.8108 4.75546 69.752 5.131 69.752V69.252C4.70253 69.252 4.30095 69.3192 3.92857 69.4564L4.10142 69.9256ZM15.1927 69.808L15.2477 70.0519L15.4427 70.0078V69.808H15.1927ZM14.7787 70.006L14.9493 70.1889L14.9554 70.1828L14.7787 70.006ZM14.5987 70.402L14.3521 70.3609L14.3521 70.3609L14.5987 70.402ZM14.1847 75.289L13.9706 75.1599L13.9703 75.1604L14.1847 75.289ZM13.4647 75.91L13.3615 75.6823L13.3599 75.683L13.4647 75.91ZM10.5577 75.694L10.7033 75.4908L10.703 75.4906L10.5577 75.694ZM9.96366 74.848L9.72234 74.9134L9.72343 74.9172L9.96366 74.848ZM9.77466 70.087L9.53481 70.1575L9.53481 70.1575L9.77466 70.087ZM9.59466 69.88L9.49615 70.1099L9.50181 70.1121L9.59466 69.88ZM9.18066 69.808H8.93066V70.0429L9.16506 70.0575L9.18066 69.808ZM9.18066 69.628L9.19379 69.3783L8.93066 69.3645V69.628H9.18066ZM12.3757 69.628H12.6257V69.3654L12.3634 69.3783L12.3757 69.628ZM12.3757 69.808L12.3895 70.0576L12.6257 70.0445V69.808H12.3757ZM11.8987 69.88L11.8154 69.6442L11.8109 69.6459L11.8987 69.88ZM11.7007 70.087L11.9364 70.1702L11.9364 70.1702L11.7007 70.087ZM11.9167 75.469L11.7185 75.6214L11.7204 75.6239L11.9167 75.469ZM13.9867 75.208L14.2013 75.3362L14.2021 75.3348L13.9867 75.208ZM14.2927 70.438L14.0467 70.4827L14.0469 70.4841L14.2927 70.438ZM14.0497 70.006L13.8996 70.2061L13.9043 70.2094L14.0497 70.006ZM13.4377 69.808H13.1877V70.0242L13.4016 70.0554L13.4377 69.808ZM13.4377 69.628L13.4559 69.3787L13.1877 69.359V69.628H13.4377ZM15.1927 69.628H15.4427V69.3518L15.1678 69.3792L15.1927 69.628ZM15.1376 69.5641C14.9269 69.6117 14.738 69.6931 14.6019 69.8292L14.9554 70.1828C14.9993 70.1389 15.0864 70.0883 15.2477 70.0519L15.1376 69.5641ZM14.6081 69.8232C14.4625 69.9591 14.3869 70.1517 14.3521 70.3609L14.8453 70.4431C14.8704 70.2923 14.9148 70.2209 14.9492 70.1888L14.6081 69.8232ZM14.3521 70.3609C14.3185 70.562 14.3037 70.8488 14.3037 71.212H14.8037C14.8037 70.8552 14.8188 70.602 14.8453 70.4431L14.3521 70.3609ZM14.3037 71.212V73.381H14.8037V71.212H14.3037ZM14.3037 73.381C14.3037 74.2312 14.1808 74.8112 13.9706 75.1599L14.3988 75.4181C14.6805 74.9508 14.8037 74.2588 14.8037 73.381H14.3037ZM13.9703 75.1604C13.8372 75.3821 13.6385 75.5568 13.3615 75.6823L13.5678 76.1377C13.9268 75.9752 14.2081 75.7359 14.399 75.4176L13.9703 75.1604ZM13.3599 75.683C13.0921 75.8066 12.7265 75.876 12.2497 75.876V76.376C12.7688 76.376 13.2132 76.3014 13.5694 76.137L13.3599 75.683ZM12.2497 75.876C11.5526 75.876 11.0471 75.7371 10.7033 75.4908L10.4121 75.8972C10.8722 76.2269 11.4947 76.376 12.2497 76.376V75.876ZM10.703 75.4906C10.4558 75.314 10.2906 75.0798 10.2039 74.7788L9.72343 74.9172C9.8407 75.3242 10.0715 75.654 10.4123 75.8974L10.703 75.4906ZM10.2049 74.7826C10.1173 74.4592 10.0697 74.0043 10.0697 73.408H9.56966C9.56966 74.0237 9.61806 74.5288 9.72237 74.9134L10.2049 74.7826ZM10.0697 73.408V70.582H9.56966V73.408H10.0697ZM10.0697 70.582C10.0697 70.351 10.0553 70.1552 10.0145 70.0165L9.53481 70.1575C9.55401 70.2228 9.56966 70.357 9.56966 70.582H10.0697ZM10.0145 70.0165C9.96526 69.8491 9.85622 69.7154 9.6875 69.6479L9.50181 70.1121C9.51309 70.1166 9.52405 70.1209 9.53481 70.1575L10.0145 70.0165ZM9.69314 69.6502C9.56714 69.5962 9.39238 69.5707 9.19625 69.5585L9.16506 70.0575C9.35293 70.0693 9.45418 70.0918 9.49618 70.1098L9.69314 69.6502ZM9.43066 69.808V69.628H8.93066V69.808H9.43066ZM9.16752 69.8777C9.51643 69.896 10.0499 69.905 10.7647 69.905V69.405C10.0514 69.405 9.52888 69.396 9.19379 69.3783L9.16752 69.8777ZM10.7647 69.905C11.4737 69.905 12.0157 69.896 12.3879 69.8777L12.3634 69.3783C12.0037 69.396 11.4716 69.405 10.7647 69.405V69.905ZM12.1257 69.628V69.808H12.6257V69.628H12.1257ZM12.3618 69.5584C12.1408 69.5707 11.9524 69.5959 11.8155 69.6443L11.9819 70.1157C12.0489 70.0921 12.1785 70.0693 12.3895 70.0576L12.3618 69.5584ZM11.8109 69.6459C11.6414 69.7095 11.524 69.8365 11.4649 70.0038L11.9364 70.1702C11.9494 70.1335 11.9639 70.1225 11.9864 70.1141L11.8109 69.6459ZM11.4649 70.0038C11.4138 70.1485 11.3967 70.3499 11.3967 70.582H11.8967C11.8967 70.3581 11.9155 70.2295 11.9364 70.1702L11.4649 70.0038ZM11.3967 70.582V74.254H11.8967V70.582H11.3967ZM11.3967 74.254C11.3967 74.8406 11.4852 75.3182 11.7185 75.6214L12.1148 75.3166C11.9881 75.1518 11.8967 74.8194 11.8967 74.254H11.3967ZM11.7204 75.6239C11.9629 75.931 12.3332 76.061 12.7717 76.061V75.561C12.4301 75.561 12.2304 75.463 12.1129 75.3141L11.7204 75.6239ZM12.7717 76.061C13.4073 76.061 13.9058 75.8311 14.2013 75.3362L13.772 75.0798C13.5875 75.3889 13.276 75.561 12.7717 75.561V76.061ZM14.2021 75.3348C14.4741 74.8723 14.5967 74.2454 14.5967 73.48H14.0967C14.0967 74.2026 13.9792 74.7277 13.7712 75.0812L14.2021 75.3348ZM14.5967 73.48V71.392H14.0967V73.48H14.5967ZM14.5967 71.392C14.5967 70.947 14.579 70.6087 14.5384 70.3919L14.0469 70.4841C14.0783 70.6513 14.0967 70.949 14.0967 71.392H14.5967ZM14.5386 70.3933C14.4946 70.1512 14.3883 69.9407 14.195 69.8026L13.9043 70.2094C13.963 70.2513 14.0187 70.3288 14.0467 70.4827L14.5386 70.3933ZM14.1997 69.806C14.0275 69.6769 13.771 69.604 13.4737 69.5606L13.4016 70.0554C13.6803 70.096 13.8318 70.1551 13.8997 70.206L14.1997 69.806ZM13.6877 69.808V69.628H13.1877V69.808H13.6877ZM13.4194 69.8773C13.6743 69.896 14.0173 69.905 14.4457 69.905V69.405C14.0221 69.405 13.693 69.396 13.4559 69.3787L13.4194 69.8773ZM14.4457 69.905C14.7668 69.905 15.0253 69.896 15.2175 69.8768L15.1678 69.3792C15 69.396 14.7606 69.405 14.4457 69.405V69.905ZM14.9427 69.628V69.808H15.4427V69.628H14.9427ZM21.9443 70.087L22.1026 69.8935L22.1023 69.8933L21.9443 70.087ZM22.2683 70.042L22.4981 70.1405L22.5004 70.1348L22.2683 70.042ZM22.3493 69.628V69.378H22.1223L22.1004 69.6039L22.3493 69.628ZM22.5563 69.628L22.8059 69.6421L22.8208 69.378H22.5563V69.628ZM22.5203 71.878V72.128H22.7703V71.878H22.5203ZM22.3133 71.878L22.0643 71.9001L22.0845 72.128H22.3133V71.878ZM21.4853 70.051L21.626 69.8443L21.624 69.843L21.4853 70.051ZM21.0443 69.853L20.9733 70.0927L20.9756 70.0934L21.0443 69.853ZM19.5053 70.24L19.3178 70.0746L19.3176 70.0748L19.5053 70.24ZM18.9383 71.383L18.6955 71.3231L18.6948 71.3261L18.9383 71.383ZM19.1543 75.172L18.9296 75.2817L18.9307 75.2838L19.1543 75.172ZM20.6663 75.838L20.805 76.0461L20.8116 76.0414L20.6663 75.838ZM20.7833 73.831L20.5461 73.9101L20.5472 73.9131L20.7833 73.831ZM20.5223 73.543L20.4197 73.771L20.4264 73.774L20.4333 73.7766L20.5223 73.543ZM19.9463 73.444H19.6963V73.6829L19.9349 73.6937L19.9463 73.444ZM19.9463 73.264L19.9573 73.0142L19.6963 73.0027V73.264H19.9463ZM23.0513 73.264H23.3013V72.9989L23.0366 73.0144L23.0513 73.264ZM23.0513 73.444L23.0789 73.6925L23.3013 73.6678V73.444H23.0513ZM22.8083 73.516L22.6694 73.3077L22.6583 73.316L22.8083 73.516ZM22.7093 73.723L22.4631 73.6796L22.4631 73.6796L22.7093 73.723ZM22.6823 76V76.25H22.9323V76H22.6823ZM22.5023 76L22.2526 76.0119L22.2639 76.25H22.5023V76ZM22.4213 75.649L22.1928 75.7505L22.1928 75.7505L22.4213 75.649ZM21.6113 75.694L21.7195 75.9194L21.7212 75.9186L21.6113 75.694ZM17.5613 75.28L17.7371 75.1023L17.7371 75.1023L17.5613 75.28ZM17.1473 71.113L16.9318 70.9862L16.9307 70.9881L17.1473 71.113ZM18.3893 69.925L18.5071 70.1455L18.5071 70.1455L18.3893 69.925ZM20.1983 69.752C20.5612 69.752 20.8604 69.8003 21.1016 69.8895L21.2749 69.4205C20.9642 69.3057 20.6033 69.252 20.1983 69.252V69.752ZM21.1016 69.8895C21.3517 69.9819 21.5796 70.1122 21.7862 70.2807L22.1023 69.8933C21.8529 69.6898 21.5768 69.5321 21.2749 69.4205L21.1016 69.8895ZM21.786 70.2805C21.8723 70.3511 21.9875 70.418 22.1243 70.418V69.918C22.1395 69.918 22.146 69.9219 22.1414 69.9198C22.1363 69.9175 22.1233 69.9105 22.1026 69.8935L21.786 70.2805ZM22.1243 70.418C22.3328 70.418 22.4462 70.2616 22.4981 70.1405L22.0385 69.9435C22.0293 69.965 22.027 69.9603 22.0407 69.9484C22.0483 69.9416 22.0602 69.9334 22.0764 69.9271C22.0928 69.9207 22.1094 69.918 22.1243 69.918V70.418ZM22.5004 70.1348C22.55 70.0109 22.5795 69.8441 22.5981 69.6521L22.1004 69.6039C22.083 69.7839 22.0586 69.8931 22.0362 69.9492L22.5004 70.1348ZM22.3493 69.878H22.5563V69.378H22.3493V69.878ZM22.3067 69.6139C22.2822 70.0478 22.2703 70.8042 22.2703 71.878H22.7703C22.7703 70.8038 22.7823 70.0602 22.8059 69.6421L22.3067 69.6139ZM22.5203 71.628H22.3133V72.128H22.5203V71.628ZM22.5623 71.8559C22.5192 71.3698 22.438 70.9666 22.3103 70.6576L21.8482 70.8484C21.9486 71.0914 22.0233 71.4382 22.0643 71.9001L22.5623 71.8559ZM22.3103 70.6576C22.1752 70.3303 21.9424 70.0598 21.626 69.8444L21.3446 70.2576C21.5922 70.4262 21.7554 70.6237 21.8482 70.8484L22.3103 70.6576ZM21.624 69.843C21.4734 69.7426 21.3021 69.6667 21.113 69.6126L20.9756 70.0934C21.1225 70.1353 21.2451 70.1914 21.3466 70.259L21.624 69.843ZM21.1153 69.6133C20.9312 69.5588 20.7453 69.531 20.5583 69.531V70.031C20.6952 70.031 20.8333 70.0512 20.9733 70.0927L21.1153 69.6133ZM20.5583 69.531C20.0593 69.531 19.6383 69.7113 19.3178 70.0746L19.6927 70.4054C19.9122 70.1567 20.1932 70.031 20.5583 70.031V69.531ZM19.3176 70.0748C19.0224 70.4102 18.8174 70.8295 18.6956 71.3231L19.181 71.4429C19.2872 71.0125 19.4601 70.6698 19.693 70.4052L19.3176 70.0748ZM18.6948 71.3261C18.5822 71.8079 18.5263 72.31 18.5263 72.832H19.0263C19.0263 72.346 19.0783 71.8821 19.1817 71.4399L18.6948 71.3261ZM18.5263 72.832C18.5263 73.8878 18.6524 74.7139 18.9296 75.2817L19.3789 75.0623C19.1522 74.5981 19.0263 73.8642 19.0263 72.832H18.5263ZM18.9307 75.2838C19.2176 75.8577 19.648 76.196 20.2253 76.196V75.696C19.8906 75.696 19.6069 75.5183 19.3779 75.0602L18.9307 75.2838ZM20.2253 76.196C20.4402 76.196 20.6417 76.1549 20.805 76.046L20.5276 75.63C20.4749 75.6651 20.3823 75.696 20.2253 75.696V76.196ZM20.8116 76.0414C21.0252 75.8889 21.1053 75.6475 21.1053 75.388H20.6053C20.6053 75.5485 20.5594 75.6071 20.521 75.6346L20.8116 76.0414ZM21.1053 75.388V74.488H20.6053V75.388H21.1053ZM21.1053 74.488C21.1053 74.1831 21.0819 73.9287 21.0194 73.7489L20.5472 73.9131C20.5806 74.0093 20.6053 74.1929 20.6053 74.488H21.1053ZM21.0205 73.7519C20.9521 73.5469 20.8167 73.3876 20.6113 73.3094L20.4333 73.7766C20.4798 73.7944 20.5185 73.8271 20.5461 73.9101L21.0205 73.7519ZM20.6249 73.315C20.4596 73.2407 20.2279 73.2065 19.9576 73.1943L19.9349 73.6937C20.1927 73.7055 20.3449 73.7373 20.4197 73.771L20.6249 73.315ZM20.1963 73.444V73.264H19.6963V73.444H20.1963ZM19.9353 73.5138C20.3487 73.532 20.926 73.541 21.6653 73.541V73.041C20.9285 73.041 20.3598 73.032 19.9573 73.0142L19.9353 73.5138ZM21.6653 73.541C22.2843 73.541 22.7523 73.532 23.066 73.5136L23.0366 73.0144C22.7382 73.032 22.2822 73.041 21.6653 73.041V73.541ZM22.8013 73.264V73.444H23.3013V73.264H22.8013ZM23.0237 73.1955C22.8995 73.2093 22.7721 73.2396 22.6696 73.308L22.947 73.724C22.9524 73.7204 22.9871 73.7027 23.0789 73.6925L23.0237 73.1955ZM22.6583 73.316C22.5335 73.4096 22.4847 73.5569 22.4631 73.6796L22.9555 73.7664C22.9618 73.7304 22.9691 73.7109 22.9731 73.7026C22.9768 73.6947 22.9742 73.7041 22.9583 73.716L22.6583 73.316ZM22.4631 73.6796C22.441 73.8047 22.4323 73.9885 22.4323 74.218H22.9323C22.9323 73.9915 22.9416 73.8453 22.9555 73.7664L22.4631 73.6796ZM22.4323 74.218V76H22.9323V74.218H22.4323ZM22.6823 75.75H22.5023V76.25H22.6823V75.75ZM22.752 75.9881C22.7446 75.8333 22.7111 75.6856 22.6497 75.5475L22.1928 75.7505C22.2274 75.8284 22.2479 75.9147 22.2526 76.0119L22.752 75.9881ZM22.6497 75.5475C22.5807 75.3922 22.4458 75.237 22.2233 75.237V75.737C22.217 75.737 22.2081 75.7359 22.1982 75.7323C22.1884 75.7288 22.1814 75.7242 22.1775 75.721C22.1738 75.718 22.1742 75.7174 22.1775 75.722C22.1808 75.7267 22.1862 75.7356 22.1928 75.7505L22.6497 75.5475ZM22.2233 75.237C22.1204 75.237 22.0079 75.264 21.8957 75.3019C21.78 75.341 21.6481 75.3977 21.5014 75.4694L21.7212 75.9186C21.8565 75.8523 21.9675 75.8055 22.0559 75.7756C22.1476 75.7445 22.2002 75.737 22.2233 75.737V75.237ZM21.5031 75.4686C20.9186 75.7492 20.4508 75.876 20.0903 75.876V76.376C20.5577 76.376 21.1039 76.2148 21.7195 75.9194L21.5031 75.4686ZM20.0903 75.876C19.0139 75.876 18.2445 75.6043 17.7371 75.1023L17.3854 75.4577C18.0181 76.0837 18.9346 76.376 20.0903 76.376V75.876ZM17.7371 75.1023C17.2277 74.5982 16.9563 73.8663 16.9563 72.868H16.4563C16.4563 73.9577 16.7549 74.8338 17.3854 75.4577L17.7371 75.1023ZM16.9563 72.868C16.9563 72.2464 17.0943 71.7054 17.3639 71.2379L16.9307 70.9881C16.6122 71.5406 16.4563 72.1696 16.4563 72.868H16.9563ZM17.3628 71.2398C17.6392 70.7699 18.0191 70.4061 18.5071 70.1455L18.2715 69.7045C17.7034 70.0079 17.2554 70.4361 16.9318 70.9862L17.3628 71.2398ZM18.5071 70.1455C18.9942 69.8853 19.5559 69.752 20.1983 69.752V69.252C19.4847 69.252 18.8403 69.4007 18.2715 69.7045L18.5071 70.1455ZM29.9707 75.244L29.7376 75.3344L29.7391 75.3381L29.9707 75.244ZM30.2227 75.676L30.0403 75.847L30.0458 75.8529L30.0517 75.8584L30.2227 75.676ZM30.5017 75.82H30.7517V75.5861L30.5183 75.5706L30.5017 75.82ZM30.5017 76L30.4913 76.2498L30.7517 76.2606V76H30.5017ZM27.3517 76H27.1017V76.2643L27.3655 76.2496L27.3517 76ZM27.3517 75.82L27.3385 75.5703L27.1017 75.5828V75.82H27.3517ZM27.8377 75.739L27.938 75.9683L27.9495 75.9626L27.8377 75.739ZM27.8737 75.064L27.6383 75.1487L27.6416 75.1568L27.8737 75.064ZM27.3427 73.588L27.5779 73.5034L27.5184 73.338H27.3427V73.588ZM25.5247 73.588V73.338H25.3519L25.2908 73.4996L25.5247 73.588ZM25.3717 73.993L25.6047 74.0835L25.6055 74.0814L25.3717 73.993ZM25.2817 75.667L25.1451 75.8764L25.1451 75.8764L25.2817 75.667ZM25.8937 75.82H26.1437V75.5809L25.9048 75.5702L25.8937 75.82ZM25.8937 76L25.8837 76.2498L26.1437 76.2602V76H25.8937ZM24.0217 76H23.7717V76.2762L24.0465 76.2488L24.0217 76ZM24.0217 75.82L23.9822 75.5731L23.7717 75.6068V75.82H24.0217ZM24.4447 75.541L24.2509 75.3831L24.2509 75.3831L24.4447 75.541ZM24.8497 74.767L25.0826 74.8578L25.0827 74.8576L24.8497 74.767ZM26.8477 69.628L26.8633 69.3785L26.6809 69.3671L26.6147 69.5374L26.8477 69.628ZM27.7927 69.628L28.0258 69.5376L27.9596 69.3671L27.7771 69.3785L27.7927 69.628ZM27.2797 73.408V73.658H27.6367L27.5146 73.3225L27.2797 73.408ZM26.4607 71.158L26.6956 71.0725L26.4669 70.4443L26.2273 71.0684L26.4607 71.158ZM25.5967 73.408L25.3633 73.3184L25.2329 73.658H25.5967V73.408ZM29.7391 75.3381C29.8227 75.5441 29.9208 75.7195 30.0403 75.847L30.4051 75.505C30.3446 75.4405 30.2746 75.3279 30.2023 75.1499L29.7391 75.3381ZM30.0517 75.8584C30.1711 75.9703 30.3161 76.0582 30.485 76.0694L30.5183 75.5706C30.5073 75.5698 30.4663 75.5617 30.3937 75.4936L30.0517 75.8584ZM30.2517 75.82V76H30.7517V75.82H30.2517ZM30.5121 75.7502C30.0753 75.732 29.5255 75.723 28.8637 75.723V76.223C29.5218 76.223 30.064 76.232 30.4913 76.2498L30.5121 75.7502ZM28.8637 75.723C28.1789 75.723 27.6691 75.732 27.3378 75.7504L27.3655 76.2496C27.6822 76.232 28.1804 76.223 28.8637 76.223V75.723ZM27.6017 76V75.82H27.1017V76H27.6017ZM27.3648 76.0697C27.5959 76.0575 27.7973 76.0295 27.9379 75.968L27.7375 75.51C27.686 75.5325 27.5635 75.5585 27.3385 75.5703L27.3648 76.0697ZM27.9495 75.9626C28.0342 75.9202 28.109 75.8571 28.1607 75.7697C28.212 75.6832 28.2317 75.5884 28.2317 75.496H27.7317C27.7317 75.507 27.7305 75.5132 27.7299 75.5156C27.7294 75.5177 27.7293 75.517 27.7306 75.5148C27.7319 75.5125 27.7334 75.511 27.7339 75.5106C27.7342 75.5103 27.7321 75.5123 27.7259 75.5154L27.9495 75.9626ZM28.2317 75.496C28.2317 75.3403 28.1817 75.161 28.1058 74.9712L27.6416 75.1568C27.7096 75.327 27.7317 75.4357 27.7317 75.496H28.2317ZM28.1089 74.9794L27.5779 73.5034L27.1074 73.6726L27.6384 75.1486L28.1089 74.9794ZM27.3427 73.338H25.5247V73.838H27.3427V73.338ZM25.2908 73.4996L25.1378 73.9046L25.6055 74.0814L25.7585 73.6764L25.2908 73.4996ZM25.1386 73.9025C24.9385 74.4179 24.8247 74.8442 24.8247 75.163H25.3247C25.3247 74.9418 25.4088 74.5881 25.6047 74.0835L25.1386 73.9025ZM24.8247 75.163C24.8247 75.4491 24.9058 75.7204 25.1451 75.8764L25.4182 75.4576C25.3815 75.4336 25.3247 75.3689 25.3247 75.163H24.8247ZM25.1451 75.8764C25.3374 76.0018 25.5935 76.0569 25.8826 76.0698L25.9048 75.5702C25.6539 75.5591 25.502 75.5122 25.4182 75.4576L25.1451 75.8764ZM25.6437 75.82V76H26.1437V75.82H25.6437ZM25.9037 75.7502C25.4514 75.7321 25.0549 75.723 24.7147 75.723V76.223C25.0464 76.223 25.436 76.2319 25.8837 76.2498L25.9037 75.7502ZM24.7147 75.723C24.4284 75.723 24.1883 75.7321 23.9968 75.7512L24.0465 76.2488C24.2151 76.2319 24.4369 76.223 24.7147 76.223V75.723ZM24.2717 76V75.82H23.7717V76H24.2717ZM24.0612 76.0669C24.2913 76.03 24.4823 75.8906 24.6385 75.6989L24.2509 75.3831C24.143 75.5154 24.052 75.562 23.9822 75.5731L24.0612 76.0669ZM24.6385 75.6989C24.7952 75.5065 24.9415 75.2197 25.0826 74.8578L24.6167 74.6762C24.4818 75.0223 24.3581 75.2515 24.2509 75.3831L24.6385 75.6989ZM25.0827 74.8576L27.0807 69.7186L26.6147 69.5374L24.6167 74.6764L25.0827 74.8576ZM26.8321 69.8775C27.0269 69.8897 27.1915 69.896 27.3247 69.896V69.396C27.2058 69.396 27.0525 69.3903 26.8633 69.3785L26.8321 69.8775ZM27.3247 69.896C27.452 69.896 27.6138 69.8897 27.8083 69.8775L27.7771 69.3785C27.5876 69.3903 27.4373 69.396 27.3247 69.396V69.896ZM27.5596 69.7184L29.7376 75.3344L30.2038 75.1536L28.0258 69.5376L27.5596 69.7184ZM27.5146 73.3225L26.6956 71.0725L26.2258 71.2435L27.0448 73.4935L27.5146 73.3225ZM26.2273 71.0684L25.3633 73.3184L25.8301 73.4976L26.6941 71.2476L26.2273 71.0684ZM25.5967 73.658H27.2797V73.158H25.5967V73.658ZM38.1115 75.64L38.2882 75.8168L38.465 75.64L38.2882 75.4632L38.1115 75.64ZM37.5175 76.018L37.4384 75.7808L37.4384 75.7808L37.5175 76.018ZM35.7985 75.91L35.661 76.1189L35.665 76.1214L35.7985 75.91ZM35.3755 75.154L35.1282 75.1911L35.1283 75.1917L35.3755 75.154ZM35.2405 74.254L34.993 74.2894L34.9932 74.2911L35.2405 74.254ZM34.9885 73.3L34.7623 73.4068L34.7649 73.4118L34.9885 73.3ZM34.1155 72.976V72.726H33.8655V72.976H34.1155ZM34.1605 75.541L33.9203 75.6116L33.9247 75.6242L34.1605 75.541ZM34.3405 75.748L34.242 75.9778L34.242 75.9778L34.3405 75.748ZM34.7545 75.82H35.0045V75.5851L34.7701 75.5705L34.7545 75.82ZM34.7545 76L34.7415 76.2497L35.0045 76.2633V76H34.7545ZM31.6495 76H31.3995V76.2635L31.6626 76.2497L31.6495 76ZM31.6495 75.82L31.6339 75.5705L31.3995 75.5851V75.82H31.6495ZM32.0635 75.748L31.9706 75.5158L31.965 75.5182L32.0635 75.748ZM32.2345 70.087L31.9943 70.1576L31.9987 70.1702L32.2345 70.087ZM32.0635 69.88L31.965 70.1098L31.965 70.1098L32.0635 69.88ZM31.6495 69.808H31.3995V70.0429L31.6339 70.0575L31.6495 69.808ZM31.6495 69.628L31.6626 69.3783L31.3995 69.3645V69.628H31.6495ZM33.1975 69.655V69.905L33.1996 69.905L33.1975 69.655ZM34.2325 69.646L34.2346 69.8962L34.2449 69.8957L34.2325 69.646ZM36.6805 70.024L36.5549 70.2402L36.5561 70.2409L36.6805 70.024ZM36.8515 72.355L36.6796 72.1734L36.6796 72.1734L36.8515 72.355ZM35.1595 72.94L35.1368 72.691L35.1423 73.1894L35.1595 72.94ZM36.5455 73.291L36.4144 73.5039L36.4174 73.5057L36.5455 73.291ZM37.1215 74.119L36.8762 74.1673L36.8764 74.1685L37.1215 74.119ZM37.3105 75.055L37.5561 75.0085L37.5555 75.0055L37.3105 75.055ZM37.4635 75.514L37.26 75.6593L37.26 75.6593L37.4635 75.514ZM37.9945 75.523L38.1712 75.3462L37.9945 75.1694L37.8177 75.3462L37.9945 75.523ZM34.2865 69.871L34.1604 69.6549L34.1522 69.6601L34.2865 69.871ZM34.1515 70.096L34.3955 70.1502L34.3955 70.1502L34.1515 70.096ZM34.1155 72.796H33.8655V73.046H34.1155V72.796ZM35.2315 72.409L35.4454 72.5384L35.4467 72.5362L35.2315 72.409ZM35.2585 70.186L35.037 70.302L35.0392 70.3061L35.2585 70.186ZM37.9347 75.4632C37.7789 75.6191 37.6134 75.7225 37.4384 75.7808L37.5965 76.2552C37.8535 76.1695 38.0841 76.0209 38.2882 75.8168L37.9347 75.4632ZM37.4384 75.7808C37.2536 75.8424 37.0294 75.876 36.7615 75.876V76.376C37.0696 76.376 37.3493 76.3376 37.5965 76.2552L37.4384 75.7808ZM36.7615 75.876C36.3713 75.876 36.104 75.8073 35.932 75.6986L35.665 76.1214C35.9489 76.3007 36.3236 76.376 36.7615 76.376V75.876ZM35.9359 75.7011C35.7841 75.6013 35.6694 75.4234 35.6226 75.1163L35.1283 75.1917C35.1895 75.5926 35.3568 75.9187 35.6611 76.1189L35.9359 75.7011ZM35.6227 75.1169L35.4877 74.2169L34.9932 74.2911L35.1282 75.1911L35.6227 75.1169ZM35.488 74.2186C35.4266 73.789 35.3379 73.4398 35.2121 73.1882L34.7649 73.4118C34.855 73.5922 34.9344 73.879 34.993 74.2894L35.488 74.2186ZM35.2145 73.1932C35.1496 73.0557 35.0596 72.9361 34.9373 72.8515C34.813 72.7654 34.6706 72.726 34.5205 72.726V73.226C34.5803 73.226 34.6209 73.2406 34.6527 73.2625C34.6863 73.2859 34.7254 73.3283 34.7624 73.4068L35.2145 73.1932ZM34.5205 72.726H34.1155V73.226H34.5205V72.726ZM33.8655 72.976V75.046H34.3655V72.976H33.8655ZM33.8655 75.046C33.8655 75.277 33.8798 75.4728 33.9206 75.6115L34.4003 75.4705C34.3811 75.4052 34.3655 75.271 34.3655 75.046H33.8655ZM33.9247 75.6242C33.9793 75.7789 34.0819 75.9092 34.242 75.9778L34.4389 75.5182C34.431 75.5148 34.4136 75.5071 34.3962 75.4578L33.9247 75.6242ZM34.242 75.9778C34.368 76.0318 34.5427 76.0573 34.7389 76.0695L34.7701 75.5705C34.5822 75.5587 34.4809 75.5362 34.4389 75.5182L34.242 75.9778ZM34.5045 75.82V76H35.0045V75.82H34.5045ZM34.7674 75.7503C34.4129 75.732 33.9067 75.723 33.2515 75.723V76.223C33.9042 76.223 34.4001 76.232 34.7415 76.2497L34.7674 75.7503ZM33.2515 75.723C32.5248 75.723 31.9853 75.732 31.6363 75.7503L31.6626 76.2497C31.9976 76.232 32.5261 76.223 33.2515 76.223V75.723ZM31.8995 76V75.82H31.3995V76H31.8995ZM31.6651 76.0695C31.8612 76.0573 32.0359 76.0318 32.1619 75.9778L31.965 75.5182C31.923 75.5362 31.8217 75.5587 31.6339 75.5705L31.6651 76.0695ZM32.1563 75.9801C32.325 75.9126 32.4341 75.7789 32.4833 75.6115L32.0036 75.4705C31.9929 75.5071 31.9819 75.5114 31.9706 75.5159L32.1563 75.9801ZM32.4833 75.6115C32.5241 75.4728 32.5385 75.277 32.5385 75.046H32.0385C32.0385 75.271 32.0228 75.4052 32.0036 75.4705L32.4833 75.6115ZM32.5385 75.046V70.582H32.0385V75.046H32.5385ZM32.5385 70.582C32.5385 70.3499 32.5213 70.1485 32.4702 70.0038L31.9987 70.1702C32.0196 70.2295 32.0385 70.3581 32.0385 70.582H32.5385ZM32.4743 70.0165C32.4271 69.856 32.326 69.7205 32.1619 69.6502L31.965 70.1098C31.9712 70.1124 31.9739 70.1148 31.9765 70.118C31.9798 70.122 31.9874 70.133 31.9946 70.1575L32.4743 70.0165ZM32.1619 69.6502C32.0359 69.5962 31.8612 69.5707 31.6651 69.5585L31.6339 70.0575C31.8217 70.0693 31.923 70.0918 31.965 70.1098L32.1619 69.6502ZM31.8995 69.808V69.628H31.3995V69.808H31.8995ZM31.6363 69.8777C31.9852 69.896 32.5065 69.905 33.1975 69.905V69.405C32.5084 69.405 31.9978 69.396 31.6626 69.3783L31.6363 69.8777ZM33.1996 69.905L34.2346 69.896L34.2303 69.396L33.1953 69.405L33.1996 69.905ZM34.2449 69.8957C34.3598 69.8899 34.4935 69.887 34.6465 69.887V69.387C34.4875 69.387 34.3451 69.3901 34.22 69.3963L34.2449 69.8957ZM34.6465 69.887C35.5439 69.887 36.1683 70.0155 36.5549 70.2402L36.8061 69.8078C36.3046 69.5165 35.573 69.387 34.6465 69.387V69.887ZM36.5561 70.2409C36.9267 70.4533 37.1055 70.7626 37.1055 71.203H37.6055C37.6055 70.5874 37.3342 70.1107 36.8048 69.8071L36.5561 70.2409ZM37.1055 71.203C37.1055 71.5822 36.9673 71.9011 36.6796 72.1734L37.0233 72.5366C37.4076 72.1729 37.6055 71.7238 37.6055 71.203H37.1055ZM36.6796 72.1734C36.4047 72.4336 35.9092 72.6208 35.1368 72.691L35.1821 73.189C35.9937 73.1152 36.6262 72.9124 37.0233 72.5366L36.6796 72.1734ZM35.1423 73.1894C35.7379 73.2303 36.1527 73.3429 36.4144 73.5039L36.6765 73.0781C36.3142 72.8551 35.805 72.7337 35.1766 72.6906L35.1423 73.1894ZM36.4174 73.5057C36.6667 73.6543 36.8174 73.8687 36.8762 74.1673L37.3668 74.0707C37.2815 73.6373 37.0483 73.2997 36.6735 73.0763L36.4174 73.5057ZM36.8764 74.1685L37.0654 75.1045L37.5555 75.0055L37.3665 74.0695L36.8764 74.1685ZM37.0648 75.1015C37.1074 75.3266 37.1658 75.5273 37.26 75.6593L37.6669 75.3687C37.6412 75.3327 37.5975 75.2274 37.5561 75.0085L37.0648 75.1015ZM37.26 75.6593C37.3695 75.8125 37.5311 75.89 37.7155 75.89V75.39C37.6944 75.39 37.6857 75.3861 37.6833 75.3849C37.6813 75.3839 37.6756 75.3809 37.6669 75.3687L37.26 75.6593ZM37.7155 75.89C37.8913 75.89 38.0475 75.8235 38.1712 75.6998L37.8177 75.3462C37.7854 75.3785 37.7556 75.39 37.7155 75.39V75.89ZM37.8177 75.6998L37.9347 75.8168L38.2882 75.4632L38.1712 75.3462L37.8177 75.6998ZM34.6015 69.558C34.445 69.558 34.2881 69.5806 34.1605 69.6551L34.4124 70.0869C34.4288 70.0774 34.4819 70.058 34.6015 70.058V69.558ZM34.1522 69.6601C34.0106 69.7502 33.9398 69.8961 33.9074 70.0418L34.3955 70.1502C34.4112 70.0799 34.4303 70.0758 34.4207 70.0819L34.1522 69.6601ZM33.9074 70.0418C33.8773 70.1773 33.8655 70.3615 33.8655 70.582H34.3655C34.3655 70.3705 34.3776 70.2307 34.3955 70.1502L33.9074 70.0418ZM33.8655 70.582V72.796H34.3655V70.582H33.8655ZM34.1155 73.046H34.3585V72.546H34.1155V73.046ZM34.3585 73.046C34.8321 73.046 35.2267 72.9 35.4454 72.5384L35.0175 72.2796C34.9242 72.434 34.7369 72.546 34.3585 72.546V73.046ZM35.4467 72.5362C35.6346 72.2181 35.7155 71.7984 35.7155 71.302H35.2155C35.2155 71.7536 35.1403 72.0719 35.0162 72.2818L35.4467 72.5362ZM35.7155 71.302C35.7155 70.7941 35.6455 70.3723 35.4777 70.0659L35.0392 70.3061C35.1474 70.5037 35.2155 70.8259 35.2155 71.302H35.7155ZM35.4799 70.07C35.3947 69.9074 35.2756 69.7754 35.1199 69.6858C34.9652 69.5968 34.789 69.558 34.6015 69.558V70.058C34.7199 70.058 34.8062 70.0822 34.8705 70.1192C34.9338 70.1556 34.9902 70.2126 35.037 70.302L35.4799 70.07ZM45.0989 69.628L45.3484 69.6437L45.3657 69.3695L45.091 69.3781L45.0989 69.628ZM45.0629 72.058V72.308H45.3434L45.3113 72.0293L45.0629 72.058ZM44.8559 72.058L44.6135 72.1191L44.6611 72.308H44.8559V72.058ZM44.0909 70.357L43.9048 70.5239L43.9048 70.5239L44.0909 70.357ZM43.0739 69.835V69.585H42.8239V69.835H43.0739ZM43.1459 75.532L42.9153 75.6291L42.92 75.639L43.1459 75.532ZM43.4249 75.766L43.349 76.0046L43.3618 76.0079L43.4249 75.766ZM44.0729 75.82H44.3229V75.57H44.0729V75.82ZM44.0729 76L44.0676 76.2499L44.3229 76.2554V76H44.0729ZM40.2479 76H39.9979V76.2556L40.2535 76.2499L40.2479 76ZM40.2479 75.82V75.57H39.9979V75.82H40.2479ZM40.8869 75.766L40.9527 76.0073L40.9597 76.0052L40.8869 75.766ZM41.1659 75.532L40.9398 75.4249L40.9355 75.435L41.1659 75.532ZM41.2469 69.835H41.4969V69.585H41.2469V69.835ZM40.2209 70.357L40.0348 70.1901L40.0346 70.1903L40.2209 70.357ZM39.4649 72.058V72.308H39.6601L39.7075 72.1186L39.4649 72.058ZM39.2579 72.058L39.0096 72.0293L38.9774 72.308H39.2579V72.058ZM39.2219 69.628L39.2298 69.3781L38.9551 69.3695L38.9724 69.6437L39.2219 69.628ZM44.8494 69.6123C44.8072 70.2821 44.7859 70.8815 44.7859 71.41H45.2859C45.2859 70.8945 45.3067 70.3059 45.3484 69.6437L44.8494 69.6123ZM44.7859 71.41C44.7859 71.6896 44.7949 71.9166 44.8146 72.0867L45.3113 72.0293C45.2949 71.8874 45.2859 71.6824 45.2859 71.41H44.7859ZM45.0629 71.808H44.8559V72.308H45.0629V71.808ZM45.0983 71.9969C44.8967 71.1966 44.6293 70.5829 44.2771 70.1901L43.9048 70.5239C44.1766 70.8271 44.4191 71.3474 44.6135 72.1191L45.0983 71.9969ZM44.2771 70.1901C43.9326 69.806 43.5337 69.585 43.0829 69.585V70.085C43.3521 70.085 43.6252 70.212 43.9048 70.5239L44.2771 70.1901ZM43.0829 69.585H43.0739V70.085H43.0829V69.585ZM42.8239 69.835V74.983H43.3239V69.835H42.8239ZM42.8239 74.983C42.8239 75.2409 42.847 75.4664 42.9155 75.629L43.3763 75.435C43.3488 75.3696 43.3239 75.2291 43.3239 74.983H42.8239ZM42.92 75.639C43.0068 75.8222 43.1582 75.9435 43.3491 76.0042L43.5007 75.5278C43.4276 75.5045 43.3931 75.4698 43.3719 75.425L42.92 75.639ZM43.3618 76.0079C43.5324 76.0524 43.7751 76.07 44.0729 76.07V75.57C43.7827 75.57 43.5935 75.5516 43.488 75.5241L43.3618 76.0079ZM43.8229 75.82V76H44.3229V75.82H43.8229ZM44.0782 75.7501C43.2316 75.732 42.5726 75.723 42.1019 75.723V76.223C42.5673 76.223 43.2222 76.232 44.0676 76.2499L44.0782 75.7501ZM42.1019 75.723C41.6731 75.723 41.0529 75.7321 40.2424 75.7501L40.2535 76.2499C41.0629 76.2319 41.6787 76.223 42.1019 76.223V75.723ZM40.4979 76V75.82H39.9979V76H40.4979ZM40.2479 76.07C40.5447 76.07 40.7863 76.0526 40.9527 76.0072L40.8211 75.5248C40.7235 75.5514 40.5391 75.57 40.2479 75.57V76.07ZM40.9597 76.0052C41.1556 75.9455 41.3146 75.8232 41.3963 75.629L40.9355 75.435C40.9213 75.4688 40.8942 75.5025 40.8141 75.5268L40.9597 76.0052ZM41.3918 75.639C41.4708 75.4724 41.4969 75.2423 41.4969 74.983H40.9969C40.9969 75.2277 40.969 75.3636 40.94 75.425L41.3918 75.639ZM41.4969 74.983V69.835H40.9969V74.983H41.4969ZM41.2469 69.585H41.2379V70.085H41.2469V69.585ZM41.2379 69.585C40.7823 69.585 40.3802 69.8049 40.0348 70.1901L40.4071 70.5239C40.6857 70.2131 40.9616 70.085 41.2379 70.085V69.585ZM40.0346 70.1903C39.6879 70.5778 39.4237 71.1922 39.2224 71.9974L39.7075 72.1186C39.9022 71.3398 40.1419 70.8202 40.4072 70.5237L40.0346 70.1903ZM39.4649 71.808H39.2579V72.308H39.4649V71.808ZM39.5063 72.0867C39.5259 71.9166 39.5349 71.6896 39.5349 71.41H39.0349C39.0349 71.6824 39.0259 71.8874 39.0096 72.0293L39.5063 72.0867ZM39.5349 71.41C39.5349 70.8815 39.5137 70.2821 39.4714 69.6123L38.9724 69.6437C39.0142 70.3059 39.0349 70.8945 39.0349 71.41H39.5349ZM39.214 69.8779C39.7884 69.896 40.7729 69.905 42.1649 69.905V69.405C40.7729 69.405 39.7954 69.396 39.2298 69.3781L39.214 69.8779ZM42.1649 69.905C43.5509 69.905 44.5324 69.896 45.1068 69.8779L45.091 69.3781C44.5254 69.396 43.5509 69.405 42.1649 69.405V69.905ZM51.6101 75.244L51.377 75.3344L51.3785 75.3381L51.6101 75.244ZM51.8621 75.676L51.6798 75.847L51.6853 75.8529L51.6912 75.8584L51.8621 75.676ZM52.1411 75.82H52.3911V75.5861L52.1578 75.5706L52.1411 75.82ZM52.1411 76L52.1307 76.2498L52.3911 76.2606V76H52.1411ZM48.9911 76H48.7411V76.2643L49.005 76.2496L48.9911 76ZM48.9911 75.82L48.978 75.5703L48.7411 75.5828V75.82H48.9911ZM49.4771 75.739L49.5775 75.9683L49.5889 75.9626L49.4771 75.739ZM49.5131 75.064L49.2778 75.1487L49.281 75.1568L49.5131 75.064ZM48.9821 73.588L49.2174 73.5034L49.1579 73.338H48.9821V73.588ZM47.1641 73.588V73.338H46.9913L46.9303 73.4996L47.1641 73.588ZM47.0111 73.993L47.2442 74.0835L47.245 74.0814L47.0111 73.993ZM46.9211 75.667L46.7846 75.8764L46.7846 75.8764L46.9211 75.667ZM47.5331 75.82H47.7831V75.5809L47.5442 75.5702L47.5331 75.82ZM47.5331 76L47.5232 76.2498L47.7831 76.2602V76H47.5331ZM45.6611 76H45.4111V76.2762L45.686 76.2488L45.6611 76ZM45.6611 75.82L45.6216 75.5731L45.4111 75.6068V75.82H45.6611ZM46.0841 75.541L45.8903 75.3831L45.8903 75.3831L46.0841 75.541ZM46.4891 74.767L46.7221 74.8578L46.7222 74.8576L46.4891 74.767ZM48.4871 69.628L48.5027 69.3785L48.3204 69.3671L48.2541 69.5374L48.4871 69.628ZM49.4321 69.628L49.6652 69.5376L49.5991 69.3671L49.4165 69.3785L49.4321 69.628ZM48.9191 73.408V73.658H49.2762L49.1541 73.3225L48.9191 73.408ZM48.1001 71.158L48.3351 71.0725L48.1064 70.4443L47.8668 71.0684L48.1001 71.158ZM47.2361 73.408L47.0028 73.3184L46.8723 73.658H47.2361V73.408ZM51.3785 75.3381C51.4622 75.5441 51.5602 75.7195 51.6798 75.847L52.0445 75.505C51.9841 75.4405 51.9141 75.3279 51.8418 75.1499L51.3785 75.3381ZM51.6912 75.8584C51.8105 75.9703 51.9555 76.0582 52.1245 76.0694L52.1578 75.5706C52.1467 75.5698 52.1058 75.5617 52.0331 75.4936L51.6912 75.8584ZM51.8911 75.82V76H52.3911V75.82H51.8911ZM52.1516 75.7502C51.7148 75.732 51.165 75.723 50.5031 75.723V76.223C51.1613 76.223 51.7035 76.232 52.1307 76.2498L52.1516 75.7502ZM50.5031 75.723C49.8184 75.723 49.3086 75.732 48.9773 75.7504L49.005 76.2496C49.3217 76.232 49.8199 76.223 50.5031 76.223V75.723ZM49.2411 76V75.82H48.7411V76H49.2411ZM49.0043 76.0697C49.2353 76.0575 49.4368 76.0295 49.5773 75.968L49.3769 75.51C49.3255 75.5325 49.203 75.5585 48.978 75.5703L49.0043 76.0697ZM49.5889 75.9626C49.6737 75.9202 49.7484 75.8571 49.8002 75.7697C49.8515 75.6832 49.8711 75.5884 49.8711 75.496H49.3711C49.3711 75.507 49.37 75.5132 49.3694 75.5156C49.3689 75.5177 49.3688 75.517 49.3701 75.5148C49.3714 75.5125 49.3729 75.511 49.3733 75.5106C49.3736 75.5103 49.3716 75.5123 49.3653 75.5154L49.5889 75.9626ZM49.8711 75.496C49.8711 75.3403 49.8212 75.161 49.7453 74.9712L49.281 75.1568C49.3491 75.327 49.3711 75.4357 49.3711 75.496H49.8711ZM49.7484 74.9794L49.2174 73.5034L48.7469 73.6726L49.2779 75.1486L49.7484 74.9794ZM48.9821 73.338H47.1641V73.838H48.9821V73.338ZM46.9303 73.4996L46.7773 73.9046L47.245 74.0814L47.398 73.6764L46.9303 73.4996ZM46.7781 73.9025C46.578 74.4179 46.4641 74.8442 46.4641 75.163H46.9641C46.9641 74.9418 47.0483 74.5881 47.2442 74.0835L46.7781 73.9025ZM46.4641 75.163C46.4641 75.4491 46.5453 75.7204 46.7846 75.8764L47.0577 75.4576C47.021 75.4336 46.9641 75.3689 46.9641 75.163H46.4641ZM46.7846 75.8764C46.9769 76.0018 47.233 76.0569 47.522 76.0698L47.5442 75.5702C47.2933 75.5591 47.1414 75.5122 47.0577 75.4576L46.7846 75.8764ZM47.2831 75.82V76H47.7831V75.82H47.2831ZM47.5431 75.7502C47.0908 75.7321 46.6944 75.723 46.3541 75.723V76.223C46.6859 76.223 47.0754 76.2319 47.5232 76.2498L47.5431 75.7502ZM46.3541 75.723C46.0679 75.723 45.8278 75.7321 45.6363 75.7512L45.686 76.2488C45.8545 76.2319 46.0764 76.223 46.3541 76.223V75.723ZM45.9111 76V75.82H45.4111V76H45.9111ZM45.7006 76.0669C45.9308 76.03 46.1218 75.8906 46.278 75.6989L45.8903 75.3831C45.7825 75.5154 45.6915 75.562 45.6216 75.5731L45.7006 76.0669ZM46.278 75.6989C46.4347 75.5065 46.581 75.2197 46.7221 74.8578L46.2562 74.6762C46.1213 75.0223 45.9976 75.2515 45.8903 75.3831L46.278 75.6989ZM46.7222 74.8576L48.7202 69.7186L48.2541 69.5374L46.2561 74.6764L46.7222 74.8576ZM48.4715 69.8775C48.6663 69.8897 48.831 69.896 48.9641 69.896V69.396C48.8453 69.396 48.6919 69.3903 48.5027 69.3785L48.4715 69.8775ZM48.9641 69.896C49.0915 69.896 49.2532 69.8897 49.4477 69.8775L49.4165 69.3785C49.2271 69.3903 49.0768 69.396 48.9641 69.396V69.896ZM49.1991 69.7184L51.3771 75.3344L51.8432 75.1536L49.6652 69.5376L49.1991 69.7184ZM49.1541 73.3225L48.3351 71.0725L47.8652 71.2435L48.6842 73.4935L49.1541 73.3225ZM47.8668 71.0684L47.0028 73.3184L47.4695 73.4976L48.3335 71.2476L47.8668 71.0684ZM47.2361 73.658H48.9191V73.158H47.2361V73.658ZM56.4839 69.808L56.4978 70.0576L56.7339 70.0445V69.808H56.4839ZM56.0069 69.88L55.9237 69.6442L55.9192 69.6459L56.0069 69.88ZM55.8089 70.087L56.0447 70.1702L56.0447 70.1702L55.8089 70.087ZM55.7909 75.595L56.0299 75.5215L56.0299 75.5215L55.7909 75.595ZM55.9169 75.757L55.8051 75.9806L55.8144 75.9853L55.8241 75.9891L55.9169 75.757ZM57.1949 75.478L57.0326 75.2879L57.0326 75.2879L57.1949 75.478ZM57.8609 74.65L58.0773 74.7753L58.0782 74.7736L57.8609 74.65ZM58.2569 73.57V73.32H58.0474L58.0108 73.5263L58.2569 73.57ZM58.4639 73.57L58.7131 73.5908L58.7356 73.32H58.4639V73.57ZM58.4999 76L58.4889 76.2498L58.7774 76.2625L58.7487 75.9751L58.4999 76ZM53.2889 76H53.0389V76.2565L53.2954 76.2499L53.2889 76ZM53.2889 75.82L53.2733 75.5705L53.0389 75.5851V75.82H53.2889ZM53.7029 75.748L53.6101 75.5158L53.6045 75.5182L53.7029 75.748ZM53.8739 70.087L53.6338 70.1576L53.6382 70.1702L53.8739 70.087ZM53.7029 69.88L53.6045 70.1098L53.6045 70.1098L53.7029 69.88ZM53.2889 69.808H53.0389V70.0429L53.2733 70.0575L53.2889 69.808ZM53.2889 69.628L53.3021 69.3783L53.0389 69.3645V69.628H53.2889ZM56.4839 69.628H56.7339V69.3656L56.4719 69.3783L56.4839 69.628ZM56.4701 69.5584C56.2491 69.5707 56.0607 69.5959 55.9237 69.6443L56.0901 70.1157C56.1572 70.0921 56.2868 70.0693 56.4978 70.0576L56.4701 69.5584ZM55.9192 69.6459C55.7497 69.7095 55.6322 69.8365 55.5732 70.0038L56.0447 70.1702C56.0576 70.1335 56.0722 70.1225 56.0947 70.1141L55.9192 69.6459ZM55.5732 70.0038C55.5221 70.1485 55.5049 70.3499 55.5049 70.582H56.0049C56.0049 70.3581 56.0238 70.2295 56.0447 70.1702L55.5732 70.0038ZM55.5049 70.582V75.226H56.0049V70.582H55.5049ZM55.5049 75.226C55.5049 75.3984 55.5164 75.5529 55.552 75.6685L56.0299 75.5215C56.0175 75.4811 56.0049 75.3896 56.0049 75.226H55.5049ZM55.552 75.6685C55.5914 75.7966 55.6711 75.9136 55.8051 75.9806L56.0287 75.5334C56.0303 75.5342 56.0323 75.5354 56.0342 75.537C56.0362 75.5386 56.0374 75.54 56.0378 75.5405C56.0386 75.5416 56.0346 75.537 56.0299 75.5215L55.552 75.6685ZM55.8241 75.9891C55.9316 76.0321 56.072 76.043 56.2139 76.043V75.543C56.1515 75.543 56.1028 75.5402 56.0663 75.5358C56.0482 75.5336 56.0344 75.5312 56.0245 75.5289C56.0195 75.5278 56.0159 75.5268 56.0133 75.5261C56.0108 75.5253 56.0097 75.5248 56.0098 75.5249L55.8241 75.9891ZM56.2139 76.043H56.5109V75.543H56.2139V76.043ZM56.5109 76.043C56.8053 76.043 57.0894 75.8968 57.3572 75.6681L57.0326 75.2879C56.8085 75.4792 56.6366 75.543 56.5109 75.543V76.043ZM57.3572 75.6681C57.629 75.4362 57.8681 75.1365 58.0773 74.7753L57.6446 74.5247C57.4577 74.8475 57.2529 75.0998 57.0326 75.2879L57.3572 75.6681ZM58.0782 74.7736C58.2895 74.4023 58.4318 74.0154 58.5031 73.6137L58.0108 73.5263C57.9501 73.8686 57.8284 74.2017 57.6436 74.5264L58.0782 74.7736ZM58.2569 73.82H58.4639V73.32H58.2569V73.82ZM58.2148 73.5492C58.196 73.7748 58.1869 74.0584 58.1869 74.398H58.6869C58.6869 74.0656 58.6959 73.7972 58.7131 73.5908L58.2148 73.5492ZM58.1869 74.398C58.1869 75.0504 58.208 75.5935 58.2512 76.0249L58.7487 75.9751C58.7078 75.5665 58.6869 75.0416 58.6869 74.398H58.1869ZM58.511 75.7502C58.0969 75.732 57.405 75.723 56.4389 75.723V76.223C57.4048 76.223 58.087 76.232 58.4889 76.2498L58.511 75.7502ZM56.4389 75.723C55.0345 75.723 53.9818 75.732 53.2825 75.7501L53.2954 76.2499C53.988 76.232 55.0354 76.223 56.4389 76.223V75.723ZM53.5389 76V75.82H53.0389V76H53.5389ZM53.3045 76.0695C53.5007 76.0573 53.6754 76.0318 53.8014 75.9778L53.6045 75.5182C53.5625 75.5362 53.4612 75.5587 53.2733 75.5705L53.3045 76.0695ZM53.7958 75.9801C53.9645 75.9126 54.0735 75.7789 54.1228 75.6115L53.6431 75.4705C53.6323 75.5071 53.6214 75.5114 53.6101 75.5159L53.7958 75.9801ZM54.1228 75.6115C54.1636 75.4728 54.1779 75.277 54.1779 75.046H53.6779C53.6779 75.271 53.6623 75.4052 53.6431 75.4705L54.1228 75.6115ZM54.1779 75.046V70.582H53.6779V75.046H54.1779ZM54.1779 70.582C54.1779 70.3499 54.1608 70.1485 54.1097 70.0038L53.6382 70.1702C53.6591 70.2295 53.6779 70.3581 53.6779 70.582H54.1779ZM54.1138 70.0165C54.0666 69.856 53.9655 69.7205 53.8014 69.6502L53.6045 70.1098C53.6107 70.1124 53.6133 70.1148 53.6159 70.118C53.6193 70.122 53.6269 70.133 53.6341 70.1575L54.1138 70.0165ZM53.8014 69.6502C53.6754 69.5962 53.5007 69.5707 53.3045 69.5585L53.2733 70.0575C53.4612 70.0693 53.5625 70.0918 53.6045 70.1098L53.8014 69.6502ZM53.5389 69.808V69.628H53.0389V69.808H53.5389ZM53.2758 69.8777C53.6247 69.896 54.1643 69.905 54.8909 69.905V69.405C54.1656 69.405 53.6371 69.396 53.3021 69.3783L53.2758 69.8777ZM54.8909 69.905C55.5822 69.905 56.1179 69.896 56.496 69.8777L56.4719 69.3783C56.1059 69.396 55.5797 69.405 54.8909 69.405V69.905ZM56.2339 69.628V69.808H56.7339V69.628H56.2339ZM66.1828 75.271L65.9684 75.3995L65.9693 75.401L66.1828 75.271ZM66.4258 75.604L66.2425 75.7742L66.2491 75.7808L66.4258 75.604ZM66.7318 75.82H66.9818V75.6687L66.8479 75.5985L66.7318 75.82ZM66.7318 76L66.7229 76.2498L66.9818 76.2591V76H66.7318ZM63.8248 76H63.5748V76.2611L63.8357 76.2498L63.8248 76ZM63.8248 75.82L63.8093 75.5705L63.5748 75.5851V75.82H63.8248ZM64.2208 75.775L64.2816 76.0179L64.2944 76.0139L64.2208 75.775ZM64.2478 75.415L64.0326 75.5424L64.0358 75.5475L64.2478 75.415ZM62.9428 73.21L62.7269 73.336L62.7277 73.3373L62.9428 73.21ZM62.7268 72.913L62.5498 73.09L62.5596 73.0988L62.7268 72.913ZM62.5198 72.814L62.5552 72.5665L62.2698 72.5257V72.814H62.5198ZM62.5648 75.541L62.3247 75.6116L62.3291 75.6242L62.5648 75.541ZM62.7448 75.748L62.6464 75.9778L62.6464 75.9778L62.7448 75.748ZM63.1588 75.82H63.4088V75.5851L63.1744 75.5705L63.1588 75.82ZM63.1588 76L63.1459 76.2497L63.4088 76.2633V76H63.1588ZM60.0538 76H59.8038V76.2635L60.067 76.2497L60.0538 76ZM60.0538 75.82L60.0383 75.5705L59.8038 75.5851V75.82H60.0538ZM60.4678 75.748L60.375 75.5158L60.3694 75.5182L60.4678 75.748ZM60.6388 70.087L60.3987 70.1576L60.4031 70.1702L60.6388 70.087ZM60.4678 69.88L60.3694 70.1098L60.3694 70.1098L60.4678 69.88ZM60.0538 69.808H59.8038V70.0429L60.0383 70.0575L60.0538 69.808ZM60.0538 69.628L60.067 69.3783L59.8038 69.3645V69.628H60.0538ZM63.1588 69.628H63.4088V69.365L63.1462 69.3783L63.1588 69.628ZM63.1588 69.808L63.1744 70.0575L63.4088 70.0429V69.808H63.1588ZM62.7358 69.88L62.643 69.6478L62.6374 69.6502L62.7358 69.88ZM62.5648 70.087L62.8047 70.1575L62.8047 70.1575L62.5648 70.087ZM62.5198 72.616H62.2698V72.8855L62.5385 72.8653L62.5198 72.616ZM63.2218 72.346L63.3667 72.5498L63.3667 72.5498L63.2218 72.346ZM64.0588 71.545L63.8725 71.3783L63.8718 71.3791L64.0588 71.545ZM64.3648 71.203L64.5512 71.3697L64.5525 71.3682L64.3648 71.203ZM64.5538 69.979L64.3997 70.176L64.4053 70.18L64.5538 69.979ZM64.0228 69.799H63.7728V70.0355L64.009 70.0486L64.0228 69.799ZM64.0228 69.628L64.0318 69.3782L63.7728 69.3689V69.628H64.0228ZM66.4528 69.628H66.7028V69.3585L66.4342 69.3787L66.4528 69.628ZM66.4528 69.799L66.5167 70.0407L66.7028 69.9915V69.799H66.4528ZM64.9768 70.789L64.7896 70.6233L64.7894 70.6235L64.9768 70.789ZM64.0948 71.788L63.9074 71.6225L63.7864 71.7597L63.8804 71.9165L64.0948 71.788ZM65.9693 75.401C66.0588 75.548 66.1496 75.6739 66.2427 75.7741L66.609 75.4339C66.5461 75.3661 66.4749 75.27 66.3964 75.141L65.9693 75.401ZM66.2491 75.7808C66.3493 75.881 66.4736 75.9669 66.6158 76.0415L66.8479 75.5985C66.7381 75.5411 66.6584 75.483 66.6026 75.4272L66.2491 75.7808ZM66.4818 75.82V76H66.9818V75.82H66.4818ZM66.7408 75.7502C66.2334 75.732 65.6904 75.723 65.1118 75.723V76.223C65.6853 76.223 66.2223 76.232 66.7229 76.2498L66.7408 75.7502ZM65.1118 75.723C64.6645 75.723 64.2319 75.7321 63.814 75.7502L63.8357 76.2498C64.2458 76.2319 64.6712 76.223 65.1118 76.223V75.723ZM64.0748 76V75.82H63.5748V76H64.0748ZM63.8404 76.0695C64.0311 76.0576 64.1845 76.0418 64.2815 76.0175L64.1602 75.5325C64.1132 75.5442 64.0026 75.5584 63.8093 75.5705L63.8404 76.0695ZM64.2944 76.0139C64.3585 75.9942 64.4324 75.9596 64.4918 75.8956C64.5564 75.826 64.5878 75.7388 64.5878 75.649H64.0878C64.0878 75.6365 64.09 75.6198 64.097 75.6013C64.1042 75.5827 64.1145 75.5672 64.1254 75.5554C64.1458 75.5334 64.1612 75.5318 64.1473 75.5361L64.2944 76.0139ZM64.5878 75.649C64.5878 75.5164 64.5261 75.3885 64.4598 75.2825L64.0358 75.5475C64.0601 75.5864 64.0744 75.6153 64.082 75.6352C64.09 75.656 64.0878 75.6592 64.0878 75.649H64.5878ZM64.463 75.2877L63.158 73.0827L62.7277 73.3373L64.0327 75.5423L64.463 75.2877ZM63.1588 73.084C63.0726 72.9362 62.9846 72.8086 62.8941 72.7272L62.5596 73.0988C62.5891 73.1254 62.6451 73.1958 62.7269 73.336L63.1588 73.084ZM62.9036 72.7362C62.8071 72.6397 62.6865 72.5853 62.5552 72.5665L62.4845 73.0615C62.5212 73.0667 62.5386 73.0783 62.5501 73.0898L62.9036 72.7362ZM62.2698 72.814V75.046H62.7698V72.814H62.2698ZM62.2698 75.046C62.2698 75.277 62.2842 75.4728 62.325 75.6115L62.8047 75.4705C62.7855 75.4052 62.7698 75.271 62.7698 75.046H62.2698ZM62.3291 75.6242C62.3837 75.7789 62.4863 75.9092 62.6464 75.9778L62.8433 75.5182C62.8354 75.5148 62.818 75.5071 62.8006 75.4578L62.3291 75.6242ZM62.6464 75.9778C62.7724 76.0318 62.9471 76.0573 63.1433 76.0695L63.1744 75.5705C62.9866 75.5587 62.8853 75.5362 62.8433 75.5182L62.6464 75.9778ZM62.9088 75.82V76H63.4088V75.82H62.9088ZM63.1718 75.7503C62.8172 75.732 62.3111 75.723 61.6558 75.723V76.223C62.3086 76.223 62.8045 76.232 63.1459 76.2497L63.1718 75.7503ZM61.6558 75.723C60.9292 75.723 60.3897 75.732 60.0407 75.7503L60.067 76.2497C60.402 76.232 60.9305 76.223 61.6558 76.223V75.723ZM60.3038 76V75.82H59.8038V76H60.3038ZM60.0694 76.0695C60.2656 76.0573 60.4403 76.0318 60.5663 75.9778L60.3694 75.5182C60.3274 75.5362 60.2261 75.5587 60.0383 75.5705L60.0694 76.0695ZM60.5607 75.9801C60.7294 75.9126 60.8385 75.7789 60.8877 75.6115L60.408 75.4705C60.3972 75.5071 60.3863 75.5114 60.375 75.5159L60.5607 75.9801ZM60.8877 75.6115C60.9285 75.4728 60.9428 75.277 60.9428 75.046H60.4428C60.4428 75.271 60.4272 75.4052 60.408 75.4705L60.8877 75.6115ZM60.9428 75.046V70.582H60.4428V75.046H60.9428ZM60.9428 70.582C60.9428 70.3499 60.9257 70.1485 60.8746 70.0038L60.4031 70.1702C60.424 70.2295 60.4428 70.3581 60.4428 70.582H60.9428ZM60.8787 70.0165C60.8315 69.856 60.7304 69.7205 60.5663 69.6502L60.3694 70.1098C60.3756 70.1124 60.3783 70.1148 60.3809 70.118C60.3842 70.122 60.3918 70.133 60.399 70.1575L60.8787 70.0165ZM60.5663 69.6502C60.4403 69.5962 60.2656 69.5707 60.0694 69.5585L60.0383 70.0575C60.2261 70.0693 60.3274 70.0918 60.3694 70.1098L60.5663 69.6502ZM60.3038 69.808V69.628H59.8038V69.808H60.3038ZM60.0407 69.8777C60.3897 69.896 60.9292 69.905 61.6558 69.905V69.405C60.9305 69.405 60.402 69.396 60.067 69.3783L60.0407 69.8777ZM61.6558 69.905C62.3052 69.905 62.8112 69.896 63.1715 69.8777L63.1462 69.3783C62.7985 69.396 62.3025 69.405 61.6558 69.405V69.905ZM62.9088 69.628V69.808H63.4088V69.628H62.9088ZM63.1433 69.5585C62.9455 69.5708 62.7715 69.5965 62.643 69.6479L62.8287 70.1121C62.8802 70.0915 62.9882 70.0692 63.1744 70.0575L63.1433 69.5585ZM62.6374 69.6502C62.4733 69.7205 62.3722 69.856 62.325 70.0165L62.8047 70.1575C62.8119 70.133 62.8195 70.122 62.8228 70.118C62.8254 70.1148 62.8281 70.1124 62.8343 70.1098L62.6374 69.6502ZM62.325 70.0165C62.2842 70.1552 62.2698 70.351 62.2698 70.582H62.7698C62.7698 70.357 62.7855 70.2228 62.8047 70.1575L62.325 70.0165ZM62.2698 70.582V72.616H62.7698V70.582H62.2698ZM62.5385 72.8653C62.8309 72.8434 63.1076 72.7338 63.3667 72.5498L63.077 72.1422C62.8801 72.2822 62.6888 72.3526 62.5012 72.3667L62.5385 72.8653ZM63.3667 72.5498C63.6176 72.3715 63.9114 72.0879 64.2459 71.7109L63.8718 71.3791C63.5463 71.746 63.2821 71.9965 63.077 72.1422L63.3667 72.5498ZM64.2452 71.7117L64.5512 71.3697L64.1785 71.0363L63.8725 71.3783L64.2452 71.7117ZM64.5525 71.3682C64.8319 71.0507 65.0108 70.723 65.0108 70.393H64.5108C64.5108 70.543 64.4258 70.7553 64.1772 71.0378L64.5525 71.3682ZM65.0108 70.393C65.0108 70.141 64.9053 69.9279 64.7024 69.778L64.4053 70.18C64.4784 70.2341 64.5108 70.297 64.5108 70.393H65.0108ZM64.7079 69.7821C64.5211 69.6359 64.2917 69.5635 64.0367 69.5494L64.009 70.0486C64.186 70.0585 64.3106 70.1061 64.3998 70.1759L64.7079 69.7821ZM64.2728 69.799V69.628H63.7728V69.799H64.2728ZM64.0139 69.8778C64.5209 69.8959 65.0309 69.905 65.5438 69.905V69.405C65.0368 69.405 64.5328 69.3961 64.0318 69.3782L64.0139 69.8778ZM65.5438 69.905C65.9132 69.905 66.223 69.8959 66.4715 69.8773L66.4342 69.3787C66.2027 69.3961 65.9065 69.405 65.5438 69.405V69.905ZM66.2028 69.628V69.799H66.7028V69.628H66.2028ZM66.389 69.5573C65.8071 69.7111 65.2749 70.075 64.7896 70.6233L65.1641 70.9547C65.6028 70.459 66.0546 70.1629 66.5167 70.0407L66.389 69.5573ZM64.7894 70.6235L63.9074 71.6225L64.2823 71.9535L65.1643 70.9545L64.7894 70.6235ZM63.8804 71.9165L65.9684 75.3995L66.3973 75.1425L64.3093 71.6595L63.8804 71.9165Z" fill="white"/>
<defs>
<linearGradient id="paint0_linear_4_15" x1="59" y1="7" x2="9" y2="57" gradientUnits="userSpaceOnUse">
<stop stop-color="white"/>
<stop offset="1" stop-color="#C19BCA"/>
</linearGradient>
</defs>
</svg>
