<svg xmlns="http://www.w3.org/2000/svg"
     xmlns:xlink="http://www.w3.org/1999/xlink" width="366" height="90"
     viewBox="0 0 366 90">
    <defs>
        <clipPath id="a">
            <rect width="333.528" height="58.959" fill="none"/>
        </clipPath>
        <clipPath id="c">
            <rect width="366" height="90"/>
        </clipPath>
    </defs>
    <g id="b" clip-path="url(#c)">
        <rect width="343" height="68" rx="5" transform="translate(12 11)"
              fill="#474747" opacity="0"/>
        <g transform="translate(17 16)">
            <g clip-path="url(#a)">
                <g transform="translate(2.152 6.025)">
                    <path
                        d="M194.106,139.964a1.113,1.113,0,0,1,.981.592l4.369,8.193a1.147,1.147,0,0,1-.2,1.344l-14.525,14.57a1.1,1.1,0,0,1-1.563.006l-.008-.006-14.525-14.57a1.148,1.148,0,0,1-.2-1.346l4.371-8.193a1.113,1.113,0,0,1,.981-.594Zm-9.356,2.887-6.986,10.057a.33.33,0,0,0,.077.455.325.325,0,0,0,.188.06l5.448-.02a.323.323,0,0,1,.323.325h0a.189.189,0,0,1,0,.042l-.757,6.34a.325.325,0,0,0,.28.363.321.321,0,0,0,.308-.145l6.561-10.092a.328.328,0,0,0-.092-.452.3.3,0,0,0-.177-.054l-5.2.012a.324.324,0,0,1-.323-.325h0a.492.492,0,0,1,0-.049l.926-6.28a.327.327,0,0,0-.271-.372.323.323,0,0,0-.314.135Z"
                        transform="translate(-168.307 -139.936)"
                        fill="#2a9cff"/>
                    <path
                        d="M196.013,154.208a2.9,2.9,0,0,0,3.078,1.959c1.523,0,2.579-.654,2.579-1.835,0-.9-.591-1.306-1.8-1.584l-3.668-.778c-2.8-.62-4.911-2.081-4.911-5.314,0-3.73,3.108-6.186,7.336-6.186,4.662,0,7.3,2.548,7.833,5.843h-4.882a2.836,2.836,0,0,0-2.921-1.864c-1.429,0-2.393.621-2.393,1.678,0,.84.591,1.306,1.584,1.524l3.73.869c3.264.777,5.068,2.548,5.068,5.5,0,3.917-3.294,6.155-7.459,6.155-4.569,0-7.678-2.207-8.362-5.969Z"
                        transform="translate(-156.194 -139.663)" fill="#fff"/>
                    <path
                        d="M215.256,157.974h-4.88V156.76a5,5,0,0,1-3.73,1.524c-3.078,0-4.911-2.021-4.911-5.129v-9.167h4.849v8.019c0,1.181.558,2.021,1.8,2.021a2.045,2.045,0,0,0,1.989-1.555v-8.487h4.88Z"
                        transform="translate(-150.322 -137.77)" fill="#fff"/>
                    <path
                        d="M216.457,163.024h-4.88V144.1h4.88v1.12a4.862,4.862,0,0,1,3.45-1.43c4.04,0,6.247,3.294,6.247,7.3,0,3.979-2.207,7.3-6.247,7.3a4.865,4.865,0,0,1-3.45-1.43Zm0-10.1a2.381,2.381,0,0,0,2.144,1.306c1.678,0,2.673-1.335,2.673-3.139s-.994-3.171-2.673-3.171a2.4,2.4,0,0,0-2.144,1.306Z"
                        transform="translate(-145.027 -137.879)" fill="#fff"/>
                    <path
                        d="M234.93,153.2c-.5,3.231-2.921,5.191-6.558,5.191-4.288,0-7.116-2.953-7.116-7.3,0-4.32,2.984-7.3,7.024-7.3,4.288,0,6.713,2.859,6.713,7.024v1.212h-9.042c.155,1.678,1.026,2.579,2.424,2.579a1.936,1.936,0,0,0,2.05-1.4Zm-8.888-3.605h4.226a1.952,1.952,0,0,0-1.989-2.021,2.261,2.261,0,0,0-2.236,2.021Z"
                        transform="translate(-139.82 -137.879)" fill="#fff"/>
                    <path
                        d="M240.141,148.727a4.211,4.211,0,0,0-2.019-.435,2.288,2.288,0,0,0-2.487,1.586v8.205h-4.88V144.1h4.88v1.244a3.809,3.809,0,0,1,3.17-1.553,3.045,3.045,0,0,1,1.337.248Z"
                        transform="translate(-134.709 -137.88)" fill="#fff"/>
                    <path
                        d="M237.485,139.945h4.88v7.429a5.064,5.064,0,0,1,3.76-1.523c3.107,0,4.942,2.019,4.942,5.128v9.167h-4.849v-7.987a1.758,1.758,0,0,0-1.833-1.99,2,2,0,0,0-2.019,1.524v8.453h-4.88Z"
                        transform="translate(-131.089 -139.945)" fill="#fff"/>
                    <path
                        d="M260.517,153.2c-.5,3.231-2.921,5.191-6.558,5.191-4.289,0-7.118-2.953-7.118-7.3,0-4.32,2.985-7.3,7.026-7.3,4.288,0,6.713,2.859,6.713,7.024v1.212h-9.045c.155,1.678,1.026,2.579,2.424,2.579a1.935,1.935,0,0,0,2.05-1.4Zm-8.888-3.605h4.225a1.954,1.954,0,0,0-1.99-2.021A2.258,2.258,0,0,0,251.629,149.6Z"
                        transform="translate(-126.055 -137.879)" fill="#fff"/>
                    <path
                        d="M265.728,148.727a4.218,4.218,0,0,0-2.021-.435,2.289,2.289,0,0,0-2.487,1.586v8.205h-4.882V144.1h4.88v1.244a3.809,3.809,0,0,1,3.17-1.553,3.067,3.067,0,0,1,1.336.248Z"
                        transform="translate(-120.945 -137.879)" fill="#fff"/>
                    <path
                        d="M269.612,158.393c-4.226,0-7.149-2.984-7.149-7.3s2.922-7.3,7.149-7.3c4.259,0,7.149,2.984,7.149,7.3S273.869,158.393,269.612,158.393Zm0-10.6c-1.492,0-2.33,1.367-2.33,3.294s.838,3.264,2.33,3.264c1.523,0,2.362-1.337,2.362-3.264s-.84-3.3-2.362-3.3Z"
                        transform="translate(-117.65 -137.879)" fill="#fff"/>
                    <path
                        d="M273.743,150.562a2.013,2.013,0,1,1-1.979,2.044.4.4,0,0,1,0-.043,1.969,1.969,0,0,1,1.939-2Z"
                        transform="translate(-112.647 -134.233)" fill="#fff"/>
                    <path
                        d="M281.587,143.785c3.762,0,6.092,2.238,6.5,5.5h-4.725a1.686,1.686,0,0,0-1.772-1.461c-1.367,0-2.238,1.273-2.238,3.264s.87,3.231,2.238,3.231a1.662,1.662,0,0,0,1.772-1.429h4.725c-.4,3.231-2.735,5.5-6.5,5.5-4.2,0-7.055-2.984-7.055-7.3S277.391,143.785,281.587,143.785Z"
                        transform="translate(-111.157 -137.879)" fill="#fff"/>
                    <path
                        d="M290.613,158.393c-4.226,0-7.149-2.984-7.149-7.3s2.922-7.3,7.149-7.3c4.259,0,7.149,2.984,7.149,7.3S294.871,158.393,290.613,158.393Zm0-10.6c-1.49,0-2.33,1.367-2.33,3.294s.84,3.264,2.33,3.264c1.524,0,2.362-1.337,2.362-3.264s-.84-3.3-2.362-3.3Z"
                        transform="translate(-106.352 -137.879)" fill="#fff"/>
                    <path
                        d="M310.005,143.789c2.922,0,4.725,1.989,4.725,5.128v9.167h-4.88V150.1c0-1.181-.5-2.022-1.584-2.022a1.837,1.837,0,0,0-1.8,1.492v8.516h-4.848v-7.988c0-1.181-.5-2.022-1.584-2.022a1.814,1.814,0,0,0-1.8,1.492v8.516h-4.88V144.092h4.88v1.15a4.677,4.677,0,0,1,3.605-1.461,4.808,4.808,0,0,1,3.854,1.678A5.872,5.872,0,0,1,310.005,143.789Z"
                        transform="translate(-101.034 -137.883)" fill="#fff"/>
                    <path
                        d="M190.992,162.291h10.8v1.939h-4.3v11.008h-2.195V164.23h-4.3Z"
                        transform="translate(-156.104 -127.923)"
                        fill="#2a9cff"/>
                    <path
                        d="M198.834,161.8h2.109v5.229a3.394,3.394,0,0,1,2.53-1.1,3.147,3.147,0,0,1,3.311,3.479V175.5h-2.11v-5.735c0-1.16-.568-1.919-1.77-1.919a1.985,1.985,0,0,0-1.961,1.5V175.5h-2.109Z"
                        transform="translate(-151.883 -128.188)"
                        fill="#2a9cff"/>
                    <path
                        d="M213.128,171.148a3.663,3.663,0,0,1-3.943,3.121c-2.615,0-4.428-1.982-4.428-4.871,0-2.8,1.835-4.912,4.385-4.912,2.636,0,4.07,1.876,4.07,4.617v.76h-6.387c.063,1.644,1.01,2.636,2.361,2.636a1.86,1.86,0,0,0,2-1.35Zm-6.24-2.825h4.237a1.908,1.908,0,0,0-1.961-2.066,2.254,2.254,0,0,0-2.278,2.066Z"
                        transform="translate(-148.696 -126.742)"
                        fill="#2a9cff"/>
                    <path
                        d="M223.093,171.527c0,2.425-1.687,3.711-4.386,3.711H213.75V162.291h4.534c2.7,0,4.385,1.2,4.385,3.522a2.775,2.775,0,0,1-1.686,2.741A3.133,3.133,0,0,1,223.093,171.527Zm-4.829-3.8c1.5,0,2.3-.569,2.3-1.792s-.8-1.75-2.3-1.75h-2.382v3.544h2.382Zm-2.382,5.611h2.784c1.475,0,2.276-.738,2.276-1.9,0-1.181-.8-1.9-2.276-1.9h-2.784Z"
                        transform="translate(-143.858 -127.923)" fill="#fff"/>
                    <path
                        d="M226.014,166.825a2.324,2.324,0,0,0-1.244-.315,1.823,1.823,0,0,0-1.876,1.5v6.051h-2.109V164.7h2.109v.969a2.354,2.354,0,0,1,2.087-1.181,2.666,2.666,0,0,1,1.034.169Z"
                        transform="translate(-140.073 -126.743)" fill="#fff"/>
                    <path
                        d="M228.826,174.27c-2.636,0-4.449-2.022-4.449-4.892s1.813-4.892,4.449-4.892,4.449,2.024,4.449,4.892S231.461,174.27,228.826,174.27Zm0-7.97c-1.518,0-2.341,1.306-2.341,3.078s.823,3.079,2.341,3.079,2.341-1.307,2.341-3.079-.823-3.079-2.341-3.079Z"
                        transform="translate(-138.141 -126.742)" fill="#fff"/>
                    <path
                        d="M236.422,174.058v-.528a3.754,3.754,0,0,1-2.319.7c-1.919,0-3.5-1.138-3.5-3.054,0-1.772,1.581-3.016,3.647-3.016a4.408,4.408,0,0,1,2.173.569v-.758a1.614,1.614,0,0,0-1.793-1.687,1.523,1.523,0,0,0-1.6,1.012H231a3.549,3.549,0,0,1,3.67-2.805c2.361,0,3.753,1.309,3.753,3.437v6.135Zm0-3.268a2.044,2.044,0,0,0-1.919-.949c-.946,0-1.939.4-1.939,1.329,0,.946.99,1.349,1.939,1.349a2.044,2.044,0,0,0,1.919-.947Z"
                        transform="translate(-134.792 -126.742)" fill="#fff"/>
                    <path
                        d="M243.169,174.7a3.194,3.194,0,0,1-2.382,1.012c-2.741,0-4.345-2.193-4.345-4.892,0-2.678,1.6-4.892,4.345-4.892a3.194,3.194,0,0,1,2.382,1.012V161.8h2.109V175.5h-2.109Zm0-5.651a2.271,2.271,0,0,0-2.022-1.244c-1.624,0-2.593,1.286-2.593,3.014s.969,3.016,2.593,3.016a2.272,2.272,0,0,0,2.022-1.244Z"
                        transform="translate(-131.65 -128.188)" fill="#fff"/>
                    <path
                        d="M247.389,164.485a3.627,3.627,0,0,1,3.922,3.142H249.2a1.662,1.662,0,0,0-1.792-1.307c-1.413,0-2.278,1.286-2.278,3.056s.864,3.054,2.278,3.054a1.661,1.661,0,0,0,1.792-1.307h2.109a3.627,3.627,0,0,1-3.922,3.142c-2.53,0-4.365-1.982-4.365-4.892S244.859,164.485,247.389,164.485Z"
                        transform="translate(-128.109 -126.742)" fill="#fff"/>
                    <path
                        d="M254.616,174.058v-.528a3.754,3.754,0,0,1-2.319.7c-1.918,0-3.5-1.138-3.5-3.054,0-1.772,1.581-3.016,3.647-3.016a4.408,4.408,0,0,1,2.173.569v-.758a1.614,1.614,0,0,0-1.793-1.687,1.523,1.523,0,0,0-1.6,1.012H249.2a3.549,3.549,0,0,1,3.67-2.805c2.361,0,3.753,1.309,3.753,3.437v6.135Zm0-3.268a2.044,2.044,0,0,0-1.919-.949c-.947,0-1.939.4-1.939,1.329,0,.946.99,1.349,1.939,1.349a2.046,2.046,0,0,0,1.919-.947Z"
                        transform="translate(-125.003 -126.742)" fill="#fff"/>
                    <path
                        d="M256.787,171.359a1.753,1.753,0,0,0,1.856,1.181c.969,0,1.6-.38,1.6-1.12,0-.506-.317-.78-1.1-.969l-1.941-.465c-1.329-.317-2.319-1.034-2.319-2.572,0-1.687,1.5-2.931,3.544-2.931,2.195,0,3.436,1.055,3.753,2.762H260.12a1.588,1.588,0,0,0-1.707-1.034c-.738,0-1.5.338-1.5,1.077,0,.421.3.7.97.864l1.983.463c1.6.38,2.4,1.287,2.4,2.658,0,1.855-1.54,2.994-3.648,2.994-2.195,0-3.711-1.1-3.985-2.91Z"
                        transform="translate(-121.86 -126.743)" fill="#fff"/>
                    <path
                        d="M261.337,167.25H259.86V165.5h1.477v-2.51h2.109v2.51h2.109v1.75h-2.109V172.1a.987.987,0,0,0,.86,1.1,1.051,1.051,0,0,0,.26,0,2.264,2.264,0,0,0,1.2-.38v1.919a3.273,3.273,0,0,1-1.581.337,2.556,2.556,0,0,1-2.847-2.741Z"
                        transform="translate(-119.051 -127.547)" fill="#fff"/>
                    <path
                        d="M272.763,162.154a4.989,4.989,0,0,1,5.272,4.28h-2.152a3.078,3.078,0,0,0-3.121-2.3c-2.278,0-3.67,1.982-3.67,4.7,0,2.7,1.37,4.7,3.67,4.7a3.074,3.074,0,0,0,3.121-2.318h2.152a5,5,0,0,1-5.272,4.3c-3.331,0-5.883-2.7-5.883-6.684S269.43,162.154,272.763,162.154Z"
                        transform="translate(-115.274 -127.996)" fill="#fff"/>
                    <path
                        d="M275,161.8h2.109v5.229a3.393,3.393,0,0,1,2.53-1.1,3.146,3.146,0,0,1,3.31,3.479V175.5h-2.109v-5.735c0-1.16-.568-1.919-1.77-1.919a1.984,1.984,0,0,0-1.961,1.5V175.5H275Z"
                        transform="translate(-110.907 -128.188)" fill="#fff"/>
                    <path
                        d="M286.768,174.058v-.528a3.762,3.762,0,0,1-2.321.7c-1.918,0-3.5-1.138-3.5-3.054,0-1.772,1.581-3.016,3.647-3.016a4.4,4.4,0,0,1,2.172.569v-.758a1.614,1.614,0,0,0-1.792-1.687,1.523,1.523,0,0,0-1.6,1.012h-2.022a3.548,3.548,0,0,1,3.668-2.805c2.362,0,3.754,1.309,3.754,3.437v6.135Zm0-3.268a2.044,2.044,0,0,0-1.919-.949c-.947,0-1.939.4-1.939,1.329,0,.946.991,1.349,1.939,1.349a2.046,2.046,0,0,0,1.919-.947Z"
                        transform="translate(-107.705 -126.742)" fill="#fff"/>
                    <path
                        d="M287.214,164.7h2.109v.886a3.389,3.389,0,0,1,2.53-1.1,3.146,3.146,0,0,1,3.31,3.479v6.094h-2.109v-5.735c0-1.16-.569-1.919-1.77-1.919a1.984,1.984,0,0,0-1.961,1.5v6.157h-2.109Z"
                        transform="translate(-104.334 -126.742)" fill="#fff"/>
                    <path
                        d="M293.561,164.7h2.109v.886a3.393,3.393,0,0,1,2.53-1.1,3.147,3.147,0,0,1,3.311,3.479v6.094H299.4v-5.735c0-1.16-.571-1.919-1.772-1.919a1.984,1.984,0,0,0-1.961,1.5v6.157h-2.109Z"
                        transform="translate(-100.919 -126.742)" fill="#fff"/>
                    <path
                        d="M307.855,171.148a3.663,3.663,0,0,1-3.943,3.121c-2.615,0-4.428-1.982-4.428-4.871,0-2.8,1.835-4.912,4.386-4.912,2.636,0,4.07,1.876,4.07,4.617v.76h-6.387c.063,1.644,1.012,2.636,2.362,2.636a1.858,1.858,0,0,0,2-1.35Zm-6.24-2.825h4.237a1.906,1.906,0,0,0-1.961-2.066,2.253,2.253,0,0,0-2.278,2.066Z"
                        transform="translate(-97.733 -126.742)" fill="#fff"/>
                    <path d="M307.914,175.5H305.8V161.8h2.109Z"
                          transform="translate(-94.332 -128.188)" fill="#fff"/>
                    <path
                        d="M316.519,163.771a1.875,1.875,0,0,0-1.034-.3,1.28,1.28,0,0,0-1.37,1.433v1.307h2.046v1.75h-2.046v7.612H312.05v-7.612h-1.623v-1.75h1.623v-1.455a2.893,2.893,0,0,1,3.079-3.1,3.225,3.225,0,0,1,1.392.252Z"
                        transform="translate(-91.845 -128.263)" fill="#2a9cff"/>
                    <path
                        d="M318.823,174.27c-2.636,0-4.449-2.022-4.449-4.892s1.813-4.892,4.449-4.892,4.449,2.024,4.449,4.892S321.46,174.27,318.823,174.27Zm0-7.97c-1.518,0-2.341,1.306-2.341,3.078s.823,3.079,2.341,3.079,2.341-1.307,2.341-3.079-.823-3.079-2.341-3.079Z"
                        transform="translate(-89.722 -126.742)" fill="#2a9cff"/>
                    <path
                        d="M326.225,166.825a2.321,2.321,0,0,0-1.244-.315,1.825,1.825,0,0,0-1.876,1.5v6.051H321V164.7H323.1v.969a2.356,2.356,0,0,1,2.089-1.181,2.658,2.658,0,0,1,1.032.169Z"
                        transform="translate(-86.159 -126.743)" fill="#2a9cff"/>
                    <path
                        d="M337.235,171.527c0,2.425-1.687,3.711-4.386,3.711h-4.956V162.291h4.534c2.7,0,4.385,1.2,4.385,3.522a2.775,2.775,0,0,1-1.686,2.741A3.135,3.135,0,0,1,337.235,171.527Zm-4.832-3.8c1.5,0,2.3-.569,2.3-1.792s-.8-1.75-2.3-1.75H330.02v3.544H332.4Zm-2.381,5.611h2.784c1.476,0,2.278-.738,2.278-1.9,0-1.181-.8-1.9-2.278-1.9h-2.784Z"
                        transform="translate(-82.448 -127.923)" fill="#2a9cff"/>
                    <path d="M337.035,175.5h-2.109V161.8h2.109Z"
                          transform="translate(-78.665 -128.188)"
                          fill="#2a9cff"/>
                    <path
                        d="M341.583,174.27c-2.636,0-4.449-2.022-4.449-4.892s1.815-4.892,4.449-4.892,4.449,2.024,4.449,4.892S344.22,174.27,341.583,174.27Zm0-7.97c-1.518,0-2.341,1.306-2.341,3.078s.823,3.079,2.341,3.079,2.341-1.307,2.341-3.079-.823-3.079-2.341-3.079Z"
                        transform="translate(-77.477 -126.742)" fill="#2a9cff"/>
                    <path
                        d="M347.737,164.485a3.626,3.626,0,0,1,3.922,3.142H349.55a1.662,1.662,0,0,0-1.792-1.307c-1.412,0-2.276,1.286-2.276,3.056s.864,3.054,2.276,3.054a1.661,1.661,0,0,0,1.792-1.307h2.109a3.626,3.626,0,0,1-3.922,3.142c-2.53,0-4.365-1.982-4.365-4.892S345.205,164.485,347.737,164.485Z"
                        transform="translate(-74.12 -126.742)" fill="#2a9cff"/>
                    <path
                        d="M352.517,171.518l-.864.884v3.1h-2.11V161.8h2.11v8.181l3.668-3.837h2.7l-3.987,4.048,4.133,5.314h-2.551Z"
                        transform="translate(-70.801 -128.188)" fill="#2a9cff"/>
                    <path
                        d="M359.432,164.485a3.628,3.628,0,0,1,3.923,3.142h-2.109a1.664,1.664,0,0,0-1.793-1.307c-1.412,0-2.276,1.286-2.276,3.056s.864,3.054,2.276,3.054a1.663,1.663,0,0,0,1.793-1.307h2.109a3.627,3.627,0,0,1-3.923,3.142c-2.53,0-4.365-1.982-4.365-4.892S356.9,164.485,359.432,164.485Z"
                        transform="translate(-67.829 -126.742)" fill="#2a9cff"/>
                    <path
                        d="M361.237,161.8h2.109v5.229a3.394,3.394,0,0,1,2.53-1.1,3.147,3.147,0,0,1,3.311,3.479V175.5h-2.109v-5.735c0-1.16-.569-1.919-1.772-1.919a1.985,1.985,0,0,0-1.961,1.5V175.5h-2.109Z"
                        transform="translate(-64.509 -128.188)" fill="#2a9cff"/>
                    <path
                        d="M373.008,174.058v-.528a3.757,3.757,0,0,1-2.319.7c-1.919,0-3.5-1.138-3.5-3.054,0-1.772,1.581-3.016,3.647-3.016a4.409,4.409,0,0,1,2.173.569v-.758a1.614,1.614,0,0,0-1.793-1.687,1.523,1.523,0,0,0-1.6,1.012h-2.023a3.548,3.548,0,0,1,3.668-2.805c2.362,0,3.754,1.309,3.754,3.437v6.135Zm0-3.268a2.044,2.044,0,0,0-1.919-.949c-.947,0-1.939.4-1.939,1.329,0,.946.99,1.349,1.939,1.349a2.046,2.046,0,0,0,1.919-.947Z"
                        transform="translate(-61.307 -126.742)" fill="#2a9cff"/>
                    <path
                        d="M374.581,164.521a1.287,1.287,0,1,1,1.309-1.286A1.312,1.312,0,0,1,374.581,164.521Zm1.055,10.9h-2.11v-9.362h2.11Z"
                        transform="translate(-58.01 -128.107)" fill="#2a9cff"/>
                    <path
                        d="M376.086,164.7h2.109v.886a3.393,3.393,0,0,1,2.53-1.1,3.147,3.147,0,0,1,3.311,3.479v6.094h-2.109v-5.735c0-1.16-.569-1.919-1.77-1.919a1.984,1.984,0,0,0-1.961,1.5v6.157h-2.109V164.7Z"
                        transform="translate(-56.52 -126.742)" fill="#2a9cff"/>
                    <path d="M309.219,143.86h3.768v11.118h6.438v3.253H309.219Z"
                          transform="translate(-92.495 -137.839)"
                          fill="#2a9cff"/>
                    <path
                        d="M326.337,153.3c-.375,2.433-2.2,3.908-4.94,3.908a5.136,5.136,0,0,1-5.36-5.5,5.2,5.2,0,0,1,5.289-5.5c3.231,0,5.057,2.152,5.057,5.291v.912h-6.812c.117,1.264.772,1.943,1.826,1.943a1.459,1.459,0,0,0,1.546-1.052Zm-6.695-2.716h3.185a1.472,1.472,0,0,0-1.418-1.521.692.692,0,0,0-.08,0A1.7,1.7,0,0,0,319.642,150.58Z"
                        transform="translate(-88.827 -136.578)" fill="#2a9cff"/>
                    <path
                        d="M329.267,156.979v-.537a4.159,4.159,0,0,1-2.528.724c-2.083,0-3.837-1.17-3.837-3.393,0-2.036,1.755-3.347,4.05-3.347a4.709,4.709,0,0,1,2.316.584v-.68a1.326,1.326,0,0,0-2.528-.492h-3.464c.3-2.036,2.107-3.651,4.82-3.651,3,0,4.7,1.592,4.7,4.33v6.461Zm0-3.557a1.736,1.736,0,0,0-1.546-.726c-.724,0-1.45.3-1.45,1.006,0,.726.726,1.03,1.45,1.03a1.783,1.783,0,0,0,1.546-.7Z"
                        transform="translate(-85.134 -136.586)" fill="#2a9cff"/>
                    <path
                        d="M336.821,155.5a3.3,3.3,0,0,1-2.505,1.03c-2.948,0-4.657-2.27-4.657-5.174,0-2.878,1.709-5.149,4.657-5.149a3.218,3.218,0,0,1,2.505,1.03v-.8h3.627v9.013c0,3.7-2.27,5.477-5.477,5.477-2.808,0-4.82-1.381-5.2-3.816h3.534a1.523,1.523,0,0,0,1.661,1.123c1.147,0,1.85-.607,1.85-1.989Zm0-5.5a1.88,1.88,0,0,0-1.592-.891,1.985,1.985,0,0,0-1.942,2.247c0,1.335.726,2.247,1.942,2.247a1.83,1.83,0,0,0,1.592-.889Z"
                        transform="translate(-81.499 -136.579)" fill="#2a9cff"/>
                    <path
                        d="M347.617,156.888h-3.674v-.912a3.772,3.772,0,0,1-2.808,1.147,3.513,3.513,0,0,1-3.7-3.863v-6.9h3.651v6.038c0,.891.421,1.521,1.358,1.521a1.54,1.54,0,0,0,1.5-1.169v-6.39h3.674v10.532Z"
                        transform="translate(-77.315 -136.496)" fill="#2a9cff"/>
                    <path
                        d="M354.781,153.3c-.374,2.433-2.2,3.908-4.939,3.908a5.136,5.136,0,0,1-5.36-5.5,5.2,5.2,0,0,1,5.289-5.5c3.23,0,5.056,2.152,5.056,5.291v.912h-6.81c.117,1.264.774,1.943,1.826,1.943a1.458,1.458,0,0,0,1.544-1.052Zm-6.695-2.716h3.185a1.47,1.47,0,0,0-1.416-1.521.692.692,0,0,0-.08,0A1.7,1.7,0,0,0,348.086,150.58Z"
                        transform="translate(-73.523 -136.578)" fill="#2a9cff"/>
                </g>
            </g>
        </g>
    </g>
</svg>
