<svg width="120" height="120" viewBox="0 0 120 120" fill="none" xmlns="http://www.w3.org/2000/svg">
<circle cx="60" cy="60" r="60" fill="#212529"/>
<path fill-rule="evenodd" clip-rule="evenodd" d="M94.2923 84.624C93.8554 84.8609 93.3772 84.9734 92.8989 84.9734C92.3262 84.9734 91.7565 84.8076 91.2605 84.479L78.1383 75.7297V79.0695C78.1383 82.3264 75.4902 84.9734 72.234 84.9734H30.9043C27.6481 84.9734 25 82.3264 25 79.0695V40.6912C25 37.4372 27.6481 34.7872 30.9043 34.7872H72.234C75.4902 34.7872 78.1383 37.4372 78.1383 40.6912V44.0339L91.2605 35.2847C92.1639 34.6807 93.3329 34.6214 94.2923 35.1366C95.2518 35.6518 95.8511 36.6526 95.8511 37.7392V82.0215C95.8511 83.1111 95.2518 84.1089 94.2923 84.624ZM89.9468 43.2582L76.8246 52.0045C76.7479 52.0548 76.6593 52.0608 76.5796 52.1052C76.4025 52.2029 76.2194 52.2739 76.0187 52.3332C75.8297 52.3894 75.6497 52.4279 75.4578 52.4457C75.3633 52.4546 75.2806 52.5019 75.1862 52.5019C75.0858 52.5019 75.0002 52.4546 74.8998 52.4427C74.702 52.4249 74.519 52.3865 74.3301 52.3272C74.1441 52.271 73.9729 52.2029 73.8075 52.1141C73.6452 52.0282 73.5005 51.9275 73.3559 51.8121C73.1964 51.6818 73.0577 51.5426 72.9278 51.3827C72.8688 51.3087 72.7831 51.2673 72.73 51.1873C72.6798 51.1103 72.671 51.0185 72.6296 50.9386C72.5322 50.7639 72.4643 50.5863 72.4053 50.3909C72.3462 50.1954 72.3049 50.0089 72.2872 49.8135C72.2783 49.7217 72.234 49.6418 72.234 49.55V40.6912H30.9043V79.182H72.234V70.2136C72.234 70.1219 72.2783 70.0419 72.2872 69.9501C72.3049 69.7518 72.3462 69.5652 72.4053 69.3728C72.4643 69.1774 72.5322 68.9997 72.6296 68.8221C72.671 68.7421 72.6798 68.6533 72.73 68.5763C72.7831 68.4964 72.8688 68.452 72.9307 68.3779C73.0577 68.221 73.1935 68.0848 73.3529 67.9545C73.5005 67.8361 73.6481 67.7325 73.8164 67.6436C73.9758 67.5578 74.1382 67.4926 74.3153 67.4364C74.5131 67.3742 74.7079 67.3357 74.9146 67.318C75.009 67.3061 75.0888 67.2617 75.1862 67.2617C75.2777 67.2617 75.3544 67.3061 75.443 67.315C75.6438 67.3328 75.8327 67.3712 76.0275 67.4305C76.2224 67.4897 76.4025 67.5607 76.5766 67.6584C76.6563 67.6999 76.7479 67.7058 76.8246 67.7591L89.9468 76.5054V43.2582Z" fill="url(#paint0_linear)"/>
<defs>
<linearGradient id="paint0_linear" x1="25" y1="34.7872" x2="89.0771" y2="92.495" gradientUnits="userSpaceOnUse">
<stop stop-color="#4C54D2"/>
<stop offset="0.5625" stop-color="#BF14A2"/>
<stop offset="1" stop-color="#F73A1C"/>
</linearGradient>
</defs>
</svg>
