<svg xmlns="http://www.w3.org/2000/svg" width="18" height="15" viewBox="0 0 18 15">
    <g id="group" transform="translate(0 -6.348)">
        <path d="M10.983,8.977a3.307,3.307,0,0,1,1.539,2.457,2.668,2.668,0,1,0-1.539-2.457ZM9.234,14.442a2.669,2.669,0,1,0-2.67-2.669A2.669,2.669,0,0,0,9.234,14.442Zm1.132.182H8.1a3.422,3.422,0,0,0-3.418,3.418v2.77l.007.043.191.06a15.557,15.557,0,0,0,4.647.749,9.54,9.54,0,0,0,4.057-.762l.178-.09h.019v-2.77A3.421,3.421,0,0,0,10.366,14.624Zm4.416-2.756H12.535A3.29,3.29,0,0,1,11.52,14.16a4.061,4.061,0,0,1,2.9,3.886V18.9A9.2,9.2,0,0,0,18,18.147l.178-.09H18.2V15.286A3.421,3.421,0,0,0,14.783,11.868ZM4.551,11.687a2.651,2.651,0,0,0,1.42-.412A3.3,3.3,0,0,1,7.212,9.168c0-.05.007-.1.007-.15a2.669,2.669,0,1,0-2.669,2.669Zm2.4,2.473a3.292,3.292,0,0,1-1.015-2.279c-.083-.006-.166-.013-.251-.013H3.418A3.421,3.421,0,0,0,0,15.286v2.77l.007.043.191.06a16.024,16.024,0,0,0,3.849.723v-.837A4.062,4.062,0,0,1,6.948,14.16Z" fill="#BABAC0"/>
    </g>
</svg>
