<svg width="16" height="16" viewBox="0 0 16 16" fill="none" xmlns="http://www.w3.org/2000/svg">
<path fill-rule="evenodd" clip-rule="evenodd" d="M5.33331 2C6.28101 2 7.09675 2.56499 7.46207 3.37651C7.00766 3.45023 6.58406 3.61583 6.21095 3.85361C6.04111 3.54356 5.71176 3.33333 5.33331 3.33333C4.78103 3.33333 4.33331 3.78105 4.33331 4.33333C4.33331 4.75895 4.59921 5.12246 4.97395 5.26682C4.77672 5.69245 4.66665 6.16671 4.66665 6.66667L4.66678 6.6967C3.12249 6.85332 2.66665 7.65415 2.66665 9.83333C2.66665 9.89666 2.66835 9.95222 2.67088 10H3.13441C2.977 10.3982 2.86114 10.8423 2.7841 11.3333H2.33331C1.66665 11.3333 1.33331 10.8333 1.33331 9.83333C1.33331 7.60559 1.88097 6.20498 3.39417 5.63152C3.14521 5.26038 2.99998 4.81382 2.99998 4.33333C2.99998 3.04467 4.04465 2 5.33331 2ZM9.78901 3.85361C9.4159 3.61583 8.9923 3.45023 8.53788 3.37651C8.90321 2.56499 9.71895 2 10.6666 2C11.9553 2 13 3.04467 13 4.33333C13 4.81382 12.8547 5.26038 12.6058 5.63152C14.119 6.20498 14.6666 7.60559 14.6666 9.83333C14.6666 10.8333 14.3333 11.3333 13.6666 11.3333H13.2159C13.1388 10.8423 13.023 10.3982 12.8656 10H13.3291C13.3316 9.95222 13.3333 9.89666 13.3333 9.83333C13.3333 7.65415 12.8775 6.85332 11.3332 6.6967L11.3333 6.66667C11.3333 6.1667 11.2232 5.69245 11.026 5.26682C11.4008 5.12246 11.6666 4.75895 11.6666 4.33333C11.6666 3.78105 11.2189 3.33333 10.6666 3.33333C10.2882 3.33333 9.95885 3.54356 9.78901 3.85361ZM4.49998 14.6667C3.7222 14.6667 3.33331 14.1111 3.33331 13C3.33331 10.4598 4.0062 8.8875 5.87888 8.28308C5.5366 7.83462 5.33331 7.27438 5.33331 6.66667C5.33331 5.19391 6.52722 4 7.99998 4C9.47274 4 10.6666 5.19391 10.6666 6.66667C10.6666 7.27438 10.4634 7.83462 10.1211 8.28308C11.9938 8.8875 12.6666 10.4598 12.6666 13C12.6666 14.1111 12.2778 14.6667 11.5 14.6667H4.49998ZM9.33331 6.66667C9.33331 7.40305 8.73636 8 7.99998 8C7.2636 8 6.66665 7.40305 6.66665 6.66667C6.66665 5.93029 7.2636 5.33333 7.99998 5.33333C8.73636 5.33333 9.33331 5.93029 9.33331 6.66667ZM11.3333 13C11.3333 13.1426 11.3252 13.2536 11.3152 13.3333H4.68477C4.67476 13.2536 4.66665 13.1426 4.66665 13C4.66665 10.1957 5.42021 9.33333 7.99998 9.33333C10.5797 9.33333 11.3333 10.1957 11.3333 13Z" fill="#5E6D7A"/>
</svg>
