<svg width="850" height="190" xmlns="http://www.w3.org/2000/svg">

 <g>
  <title>Layer 1</title>
  <polygon fill="#b2225d" class="cls-1" points="91.45750427246094,185 91.45750427246094,102.80999755859375 9.037506103515625,143.8900146484375 91.45750427246094,185 " id="svg_1"/>
  <polygon fill="#ff2f7d" class="cls-2" points="5.917510986328125,53.8900146484375 5.917510986328125,136.07998657226562 88.34750366210938,95 5.917510986328125,53.8900146484375 " id="svg_2"/>
  <polygon fill="#00c5e7" class="cls-3" points="182.89749145507812,46.079986572265625 100.50750732421875,5 100.50750732421875,87.19000244140625 182.89749145507812,46.079986572265625 " id="svg_3"/>
  <polygon fill="#00a1b2" class="cls-4" points="91.45750427246094,87.19000244140625 91.45750427246094,5 9.037506103515625,46.079986572265625 91.45750427246094,87.19000244140625 " id="svg_4"/>
  <polygon fill="#95e932" class="cls-5" points="100.50750732421875,185 182.89749145507812,143.8900146484375 100.50750732421875,102.80999755859375 100.50750732421875,185 " id="svg_5"/>
  <polygon fill="#00ae31" class="cls-6" points="185.91751098632812,136.07998657226562 185.91751098632812,53.8900146484375 103.49751281738281,95 185.91751098632812,136.07998657226562 " id="svg_6"/>
  <path d="m248.16751,40l17,0a7.44,7.44 0 0 1 4.4,1.24a6,6 0 0 1 2.36,3.34l18.48,65q0.68,2.4 1.23,5.22t1.09,6q0.6,-3.16 1.32,-6c0.47,-1.88 1,-3.62 1.54,-5.22l21.32,-65a7.08,7.08 0 0 1 2.37,-3.15a6.67,6.67 0 0 1 4.32,-1.43l5.93,0a7.29,7.29 0 0 1 4.36,1.24a6.39,6.39 0 0 1 2.4,3.34l21.18,65a86.19,86.19 0 0 1 2.85,10.66q0.53,-2.93 1.09,-5.63t1.16,-5l18.48,-65a6.05,6.05 0 0 1 2.32,-3.23a7.09,7.09 0 0 1 4.36,-1.35l15.84,0l-33.74,108.54l-18.25,0l-23.73,-74.2c-0.3,-0.95 -0.62,-2 -0.94,-3.08s-0.64,-2.27 -0.94,-3.53c-0.3,1.26 -0.61,2.43 -0.94,3.53s-0.64,2.13 -0.94,3.08l-23.95,74.2l-18.25,0l-33.72,-108.57z" id="svg_7" fill="#ffffff"/>
  <path d="m440.11751,70.32a37.24,37.24 0 0 1 13.4,2.33a29.26,29.26 0 0 1 10.55,6.79a31,31 0 0 1 6.91,11a41.43,41.43 0 0 1 2.44,14.8a26,26 0 0 1 -0.19,3.49a5.61,5.61 0 0 1 -0.67,2.18a2.76,2.76 0 0 1 -1.32,1.12a5.49,5.49 0 0 1 -2.1,0.34l-47.57,0q0.83,11.86 6.38,17.42t14.72,5.56a25.53,25.53 0 0 0 7.75,-1.05a36.52,36.52 0 0 0 5.71,-2.33c1.63,-0.85 3,-1.62 4.28,-2.33a7.21,7.21 0 0 1 3.57,-1.05a4,4 0 0 1 1.95,0.45a4.34,4.34 0 0 1 1.43,1.28l5.4,6.76a30.59,30.59 0 0 1 -6.91,6a38.64,38.64 0 0 1 -8,3.91a44.16,44.16 0 0 1 -8.49,2.06a60.84,60.84 0 0 1 -8.37,0.6a41.35,41.35 0 0 1 -15,-2.66a33.49,33.49 0 0 1 -12,-7.89a37,37 0 0 1 -8,-12.91a50.06,50.06 0 0 1 -2.93,-17.84a42.68,42.68 0 0 1 2.56,-14.83a35.62,35.62 0 0 1 7.32,-12.09a34.45,34.45 0 0 1 11.64,-8.15a38.38,38.38 0 0 1 15.54,-2.96zm0.37,13.29c-5.4,0 -9.64,1.53 -12.69,4.58s-5,7.39 -5.86,13l34.85,0a23.08,23.08 0 0 0 -1,-6.79a15.67,15.67 0 0 0 -3,-5.6a14.3,14.3 0 0 0 -5.11,-3.79a17.34,17.34 0 0 0 -7.19,-1.4z" id="svg_8" fill="#ffffff"/>
  <path d="m486.21751,138.35a11.51,11.51 0 0 1 0.87,-4.43a10.43,10.43 0 0 1 2.4,-3.6a11.88,11.88 0 0 1 3.64,-2.4a11.32,11.32 0 0 1 4.51,-0.9a11.14,11.14 0 0 1 4.43,0.9a11.09,11.09 0 0 1 6,6a11.18,11.18 0 0 1 0.9,4.43a11,11 0 0 1 -0.9,4.47a11.46,11.46 0 0 1 -2.41,3.57a11,11 0 0 1 -3.6,2.37a11.65,11.65 0 0 1 -4.43,0.86a11.83,11.83 0 0 1 -4.51,-0.86a11.46,11.46 0 0 1 -3.64,-2.37a10.5,10.5 0 0 1 -2.4,-3.57a11.35,11.35 0 0 1 -0.86,-4.47z" id="svg_9" fill="#ffffff"/>
  <path d="m585.49751,40l0,16.6l-32.67,0l0,92l-20.2,0l0,-92l-32.82,0l0,-16.6l85.69,0z" id="svg_10" fill="#ffffff"/>
  <path d="m610.80751,70.32a37.24,37.24 0 0 1 13.4,2.33a29.26,29.26 0 0 1 10.55,6.79a31.11,31.11 0 0 1 6.91,11a41.43,41.43 0 0 1 2.48,14.83a27.76,27.76 0 0 1 -0.19,3.49a5.6,5.6 0 0 1 -0.68,2.18a2.69,2.69 0 0 1 -1.31,1.12a5.49,5.49 0 0 1 -2.1,0.34l-47.61,0q0.82,11.86 6.38,17.42t14.72,5.56a25.53,25.53 0 0 0 7.77,-1.05a36.52,36.52 0 0 0 5.71,-2.33c1.62,-0.85 3.05,-1.62 4.28,-2.33a7.16,7.16 0 0 1 3.57,-1.05a4,4 0 0 1 2,0.45a4.31,4.31 0 0 1 1.42,1.28l5.41,6.76a30.59,30.59 0 0 1 -6.91,6a38.88,38.88 0 0 1 -8,3.91a44.16,44.16 0 0 1 -8.49,2.06a60.84,60.84 0 0 1 -8.37,0.6a41.35,41.35 0 0 1 -14.99,-2.68a33.49,33.49 0 0 1 -12,-7.89a36.88,36.88 0 0 1 -8,-12.91a50.06,50.06 0 0 1 -2.93,-17.84a42.45,42.45 0 0 1 2.56,-14.83a35.62,35.62 0 0 1 7.32,-12.09a34.45,34.45 0 0 1 11.64,-8.15a38.38,38.38 0 0 1 15.46,-2.97zm0.37,13.29q-8.12,0 -12.69,4.58t-5.86,13l34.85,0a23.08,23.08 0 0 0 -1,-6.79a15.67,15.67 0 0 0 -3,-5.6a14.39,14.39 0 0 0 -5.06,-3.8a17.34,17.34 0 0 0 -7.24,-1.39z" id="svg_11" fill="#ffffff"/>
  <path d="m716.60751,148.57l-8.33,0a9,9 0 0 1 -4.13,-0.79a5.06,5.06 0 0 1 -2.26,-3.19l-1.65,-5.48a63.34,63.34 0 0 1 -5.74,4.61a35.54,35.54 0 0 1 -5.82,3.35a29.77,29.77 0 0 1 -6.39,2a38.37,38.37 0 0 1 -7.51,0.68a29.5,29.5 0 0 1 -9,-1.32a19.47,19.47 0 0 1 -7.09,-3.95a18,18 0 0 1 -4.62,-6.56a23.34,23.34 0 0 1 -1.65,-9.12a18,18 0 0 1 2.29,-8.62a21.51,21.51 0 0 1 7.62,-7.69a48.78,48.78 0 0 1 14.19,-5.69a91,91 0 0 1 22,-2.26l0,-4.54q0,-7.78 -3.27,-11.54t-9.5,-3.74a23,23 0 0 0 -7.51,1.05a29.62,29.62 0 0 0 -5.22,2.36q-2.22,1.32 -4.09,2.37a8.32,8.32 0 0 1 -4.13,1.05a5.36,5.36 0 0 1 -3.23,-1a7.69,7.69 0 0 1 -2.18,-2.4l-3.38,-5.93q13.29,-12.17 32.07,-12.17a30.93,30.93 0 0 1 12.05,2.22a25.47,25.47 0 0 1 9,6.16a26.26,26.26 0 0 1 5.6,9.42a36.42,36.42 0 0 1 1.91,12l-0.03,48.72zm-36,-11.57a25.27,25.27 0 0 0 5.25,-0.51a20.36,20.36 0 0 0 4.55,-1.56a24.63,24.63 0 0 0 4.13,-2.55a38.67,38.67 0 0 0 4,-3.58l0,-12.9a75.41,75.41 0 0 0 -13.56,1a35.72,35.72 0 0 0 -8.75,2.61a11.25,11.25 0 0 0 -4.69,3.71a8.21,8.21 0 0 0 -1.39,4.61q0,4.92 2.89,7a12.41,12.41 0 0 0 7.53,2.17l0.04,0z" id="svg_12" fill="#ffffff"/>
  <path d="m731.85751,148.57l0,-77.05l11.34,0a4.56,4.56 0 0 1 4.73,3.38l1.2,5.71a42.21,42.21 0 0 1 4.24,-4.13a27.11,27.11 0 0 1 4.73,-3.23a25.42,25.42 0 0 1 5.41,-2.14a23.9,23.9 0 0 1 6.35,-0.79q7.27,0 12,3.94a23.71,23.71 0 0 1 7,10.48a23.54,23.54 0 0 1 4.51,-6.57a24.53,24.53 0 0 1 5.93,-4.47a27.81,27.81 0 0 1 6.87,-2.56a33.08,33.08 0 0 1 7.33,-0.82a30.84,30.84 0 0 1 11.34,1.95a21.65,21.65 0 0 1 8.33,5.71a25.18,25.18 0 0 1 5.15,9.16a40.06,40.06 0 0 1 1.76,12.39l0,49l-18.56,0l0,-49q0,-7.36 -3.23,-11.08t-9.46,-3.71a14.1,14.1 0 0 0 -5.29,1a12.47,12.47 0 0 0 -4.28,2.82a12.87,12.87 0 0 0 -2.9,4.62a18,18 0 0 0 -1.05,6.38l0,49l-18.62,0l0,-49q0,-7.74 -3.12,-11.26t-9.2,-3.53a14.82,14.82 0 0 0 -7.47,2a25,25 0 0 0 -6.49,5.44l0,56.4l-18.55,-0.04z" id="svg_13" fill="#ffffff"/>
 </g>
</svg>