<?xml version="1.0" encoding="UTF-8"?>
<svg id="_Ñëîé_1" xmlns="http://www.w3.org/2000/svg" version="1.1" viewBox="0 0 1177.48 711.25">
  <!-- Generator: Adobe Illustrator 30.1.0, SVG Export Plug-In . SVG Version: 2.1.1 Build 136)  -->
  <defs>
    <style>
      .st0 {
        fill: #fff;
      }
    </style>
  </defs>
  <g>
    <path class="st0" d="M130.52,288.45c0-79.57,8.09-115.5-24.54-115.5-14.48,0-24.54,10.93-24.54,24.95,0,274.16-2.75,260.58,6.95,270.55,9.34,9.62,25.83,9.61,35.17,0,9.28-9.54,6.95-9.29,6.95-122.49,0-50.77,54.95-55.62,73.21-41.72,33.23,25.34.84,142.38,22.09,164.21,9.34,9.62,25.83,9.61,35.17,0,9.28-9.54,6.95-9.29,6.95-122.49s-98.16-111.25-137.42-57.51h.01Z"/>
    <path class="st0" d="M325.81,306.49c-51.51,89.6,26.07,205.75,138.03,166.46,62.14-21.82,41.45-56.24,20.45-56.24s-18.84,18-62.58,18c-30.87,0-56.24-21.62-62.18-51.53,146.9,0,142.17,2.19,152.16-6.13,16.48-13.74,5.34-62.32-23.31-92.23-49.55-51.64-127.95-38.56-162.57,21.68h0ZM359.96,342.27c13.39-68.22,107.16-50.72,107.16,0h-107.16Z"/>
    <path class="st0" d="M566.5,197.9c0,274.16-2.75,260.58,6.95,270.55,9.61,9.9,25.64,9.33,34.97,0,9.98-9.98,7.16,3.93,7.16-270.55,0-34.06-49.08-32.46-49.08,0Z"/>
    <path class="st0" d="M676.93,197.9c0,274.16-2.75,260.58,6.95,270.55,14.42,14.85,42.13,5.72,42.13-17.79,0-274.28,2.67-260.56-6.75-270.55-13.75-14.56-42.33-6.3-42.33,17.79Z"/>
    <path class="st0" d="M880.19,252.71c-148.86,0-147.76,226.99,0,226.99s147.52-226.99,0-226.99ZM911.48,426.12c-74,45.04-132.86-77.06-62.58-119.83,76.41-46.51,130.36,78.58,62.58,119.83Z"/>
    <path class="st0" d="M915.59,230.68c.71.1,1.42.15,2.12.17,9.78.25,18.38-6.9,19.72-16.82l17.23-127.6c1.43-10.63-6.02-20.41-16.65-21.85-10.63-1.44-20.41,6.02-21.84,16.65l-17.23,127.6c-1.44,10.63,6.02,20.41,16.65,21.85h0Z"/>
    <path class="st0" d="M852.81,228.27c10.39.27,19.02-7.94,19.29-18.32l2.63-102.36c.27-10.39-7.94-19.02-18.32-19.29-10.39-.27-19.02,7.94-19.29,18.32l-2.63,102.36c-.27,10.39,7.94,19.02,18.32,19.29h0Z"/>
    <path class="st0" d="M793.03,252.62c.98.03,1.98-.03,2.99-.18,9.62-1.39,16.29-10.31,14.91-19.93l-7.75-53.72c-1.39-9.62-10.31-16.29-19.93-14.91-9.62,1.39-16.29,10.31-14.91,19.93l7.75,53.72c1.24,8.61,8.53,14.87,16.95,15.08h-.01Z"/>
    <path class="st0" d="M1022.52,125.56c-10.01-3.84-21.24,1.17-25.08,11.19l-35.86,93.62c-3.84,10.02,1.17,21.24,11.19,25.08,2.12.81,4.3,1.23,6.45,1.28,7.99.21,15.61-4.58,18.63-12.47l35.86-93.62c3.84-10.02-1.17-21.25-11.19-25.08h0Z"/>
    <path class="st0" d="M1079.11,301.94c-15.51-.76-29.35,6.29-33.32,8.52l-26.67,15.62c-10.01,5.86-13.89,19.13-8.02,29.14,3.83,6.54,10.63,10.25,17.68,10.43,3.8.1,7.66-.83,11.18-2.89l47.75-27.96c.36-.21.71-.43,1.05-.66,14.13-9.42,7.31-31.38-9.65-32.21h0Z"/>
  </g>
  <g>
    <path class="st0" d="M500.76,526.18c.96.9,1.44,2.14,1.44,3.72,0,.11-.17.85-.51,2.2l-26.03,77.74c-.56,1.01-1.3,1.83-2.2,2.45-.9.62-1.86.87-2.87.76-1.01,0-1.92-.28-2.7-.84-.79-.56-1.41-1.35-1.86-2.37l-22.14-52.05-19.77,52.05c-.45.9-1.1,1.66-1.94,2.28-.84.62-1.72.93-2.62.93-1.13.11-2.17-.14-3.13-.76s-1.61-1.44-1.94-2.45l-26.7-77.74c-.34-.68-.51-1.41-.51-2.2,0-1.46.51-2.67,1.52-3.63,1.01-.96,2.25-1.44,3.72-1.44,1.01,0,1.94.31,2.79.93.84.62,1.44,1.44,1.77,2.45l22.48,67.43,20.11-50.53c.79-2.14,2.37-3.21,4.73-3.21s3.83,1.07,4.73,3.21l21.12,50.19,22.14-67.09c.68-2.25,2.25-3.38,4.73-3.38,1.46,0,2.68.45,3.63,1.35h0Z"/>
    <path class="st0" d="M596.08,528.21c.96,1.01,1.44,2.25,1.44,3.72v76.05c0,1.47-.48,2.68-1.44,3.63-.96.96-2.17,1.44-3.63,1.44s-2.68-.48-3.63-1.44c-.96-.96-1.44-2.17-1.44-3.63v-11.32c-2.82,5.07-7.04,9.35-12.67,12.84-5.64,3.49-11.77,5.24-18.42,5.24-7.55,0-14.34-1.97-20.37-5.92-6.03-3.94-10.76-9.35-14.2-16.22s-5.15-14.59-5.15-23.15,1.75-16.25,5.24-23.07,8.25-12.14,14.28-15.97c6.03-3.83,12.7-5.75,20.03-5.75,6.76,0,12.95,1.63,18.59,4.9,5.63,3.27,9.86,7.55,12.67,12.84v-10.48c0-1.46.48-2.7,1.44-3.72.96-1.01,2.17-1.52,3.63-1.52s2.67.51,3.63,1.52h0ZM573.09,600.62c4.67-3.1,8.34-7.38,10.98-12.84,2.65-5.46,3.97-11.58,3.97-18.34s-1.33-12.51-3.97-17.91c-2.65-5.41-6.31-9.66-10.98-12.76-4.68-3.1-9.95-4.65-15.8-4.65s-11.13,1.52-15.8,4.56c-4.68,3.04-8.34,7.24-10.98,12.59-2.65,5.35-3.97,11.41-3.97,18.17s1.29,12.87,3.89,18.34c2.59,5.47,6.22,9.75,10.9,12.84,4.67,3.1,10,4.65,15.97,4.65s11.12-1.55,15.8-4.65h-.01Z"/>
    <path class="st0" d="M670.52,526.01c1.8.9,2.7,2.25,2.7,4.06,0,1.58-.45,2.85-1.35,3.8-.9.96-1.97,1.44-3.21,1.44-.56,0-1.66-.28-3.29-.84s-3.18-.84-4.65-.84c-4.17,0-8.31,1.61-12.42,4.82s-7.49,7.35-10.14,12.42-3.97,10.2-3.97,15.38v41.74c0,1.47-.48,2.68-1.44,3.63s-2.17,1.44-3.63,1.44-2.68-.48-3.63-1.44c-.96-.96-1.44-2.17-1.44-3.63v-75.71c0-1.46.48-2.67,1.44-3.63s2.17-1.44,3.63-1.44,2.67.48,3.63,1.44,1.44,2.17,1.44,3.63v14.87c2.59-6.42,6.51-11.75,11.75-15.97s11.41-6.39,18.51-6.51c2.25,0,4.28.45,6.08,1.35h-.01Z"/>
    <path class="st0" d="M757.13,526.6c.96.96,1.44,2.17,1.44,3.63v74.53c0,8.9-1.75,16.5-5.24,22.82-3.49,6.31-8.34,11.1-14.53,14.37-6.2,3.27-13.18,4.9-20.96,4.9-4.73,0-9.16-.51-13.27-1.52-4.11-1.01-7.52-2.37-10.22-4.06-2.37-1.46-3.55-3.1-3.55-4.9,0-.23.11-.79.34-1.69.34-1.13.9-1.97,1.69-2.54.79-.56,1.63-.84,2.53-.84.68,0,1.35.17,2.03.51,7.21,3.94,14.08,5.92,20.62,5.92,9.35,0,16.76-2.93,22.22-8.79,5.46-5.86,8.2-13.86,8.2-24v-5.92c-2.82,4.73-6.87,8.54-12.17,11.41s-11.04,4.31-17.24,4.31c-9.8,0-17.24-2.93-22.31-8.79s-7.61-13.8-7.61-23.83v-51.88c0-1.46.48-2.68,1.44-3.63s2.17-1.44,3.63-1.44,2.67.48,3.63,1.44,1.44,2.17,1.44,3.63v50.36c0,8.11,1.77,14.25,5.32,18.42s9.1,6.25,16.65,6.25c4.62,0,9.04-1.15,13.27-3.46,4.22-2.31,7.6-5.35,10.14-9.13,2.54-3.77,3.8-7.8,3.8-12.08v-50.36c0-1.46.48-2.68,1.44-3.63s2.17-1.44,3.63-1.44,2.67.48,3.63,1.44h0Z"/>
    <path class="st0" d="M865.63,528.21c.96,1.01,1.44,2.25,1.44,3.72v76.05c0,1.47-.48,2.68-1.44,3.63-.96.96-2.17,1.44-3.63,1.44s-2.68-.48-3.63-1.44c-.96-.96-1.44-2.17-1.44-3.63v-11.32c-2.82,5.07-7.04,9.35-12.67,12.84-5.64,3.49-11.77,5.24-18.42,5.24-7.55,0-14.34-1.97-20.37-5.92-6.03-3.94-10.76-9.35-14.2-16.22s-5.15-14.59-5.15-23.15,1.75-16.25,5.24-23.07,8.25-12.14,14.28-15.97c6.03-3.83,12.7-5.75,20.03-5.75,6.76,0,12.95,1.63,18.59,4.9,5.63,3.27,9.86,7.55,12.67,12.84v-10.48c0-1.46.48-2.7,1.44-3.72.96-1.01,2.17-1.52,3.63-1.52s2.67.51,3.63,1.52h0ZM842.64,600.62c4.67-3.1,8.34-7.38,10.98-12.84,2.65-5.46,3.97-11.58,3.97-18.34s-1.33-12.51-3.97-17.91c-2.65-5.41-6.31-9.66-10.98-12.76-4.68-3.1-9.95-4.65-15.8-4.65s-11.13,1.52-15.8,4.56c-4.68,3.04-8.34,7.24-10.98,12.59-2.65,5.35-3.97,11.41-3.97,18.17s1.29,12.87,3.89,18.34c2.59,5.47,6.22,9.75,10.9,12.84,4.67,3.1,10,4.65,15.97,4.65s11.12-1.55,15.8-4.65h-.01Z"/>
    <path class="st0" d="M969.05,528.21c.96,1.01,1.44,2.25,1.44,3.72v76.05c0,1.47-.48,2.68-1.44,3.63-.96.96-2.17,1.44-3.63,1.44s-2.68-.48-3.63-1.44c-.96-.96-1.44-2.17-1.44-3.63v-11.32c-2.82,5.07-7.04,9.35-12.67,12.84-5.64,3.49-11.77,5.24-18.42,5.24-7.55,0-14.34-1.97-20.37-5.92-6.03-3.94-10.76-9.35-14.2-16.22s-5.15-14.59-5.15-23.15,1.75-16.25,5.24-23.07,8.25-12.14,14.28-15.97c6.03-3.83,12.7-5.75,20.03-5.75,6.76,0,12.95,1.63,18.59,4.9,5.63,3.27,9.86,7.55,12.67,12.84v-10.48c0-1.46.48-2.7,1.44-3.72.96-1.01,2.17-1.52,3.63-1.52s2.67.51,3.63,1.52h0ZM946.07,600.62c4.67-3.1,8.34-7.38,10.98-12.84,2.65-5.46,3.97-11.58,3.97-18.34s-1.33-12.51-3.97-17.91c-2.65-5.41-6.31-9.66-10.98-12.76-4.68-3.1-9.95-4.65-15.8-4.65s-11.13,1.52-15.8,4.56c-4.68,3.04-8.34,7.24-10.98,12.59-2.65,5.35-3.97,11.41-3.97,18.17s1.29,12.87,3.89,18.34c2.59,5.47,6.22,9.75,10.9,12.84,4.67,3.1,10,4.65,15.97,4.65s11.12-1.55,15.8-4.65h-.01Z"/>
  </g>
</svg>