<svg width="180" height="40" viewBox="0 0 180 40" fill="none" xmlns="http://www.w3.org/2000/svg">
<path d="M73.6645 14.74H58.9532L63.2042 0.249695H50.926L46.675 14.74H31.8823L28.9473 25.1359H43.6314L39.3442 39.7503H51.6224L55.9096 25.1359H70.4581L73.6645 14.74Z" fill="#006D36"/>
<path d="M91.434 19.8123C86.8379 19.8123 83.6777 16.6518 83.6777 12.3775V12.3348C83.6777 8.22567 86.9412 4.86267 91.4122 4.86267C94.0666 4.86267 95.6711 5.56618 97.2049 6.8453L95.1598 9.25962C94.023 8.33227 93.0114 7.79397 91.3035 7.79397C88.9429 7.79397 87.0663 9.84055 87.0663 12.2975V12.3402C87.0663 14.9837 88.9211 16.9236 91.5319 16.9236C92.7122 16.9236 93.7674 16.6358 94.5887 16.0549V13.9923H91.3252V11.2476H97.7325V17.5259C96.215 18.7837 94.1318 19.8176 91.434 19.8176V19.8123Z" fill="#006D36"/>
<path d="M108.018 19.8123C103.466 19.8123 100.202 16.4866 100.202 12.3775V12.3348C100.202 8.22567 103.509 4.86267 108.062 4.86267C112.614 4.86267 115.878 8.18836 115.878 12.2975V12.3402C115.878 16.4493 112.571 19.8123 108.018 19.8123ZM112.489 12.3348C112.489 9.85654 110.634 7.79397 108.024 7.79397C105.413 7.79397 103.596 9.81923 103.596 12.2975V12.3402C103.596 14.8184 105.451 16.881 108.062 16.881C110.673 16.881 112.489 14.8557 112.489 12.3775V12.3348Z" fill="#006D36"/>
<path d="M124.815 8.03915V19.5618H121.567V8.03915H117.08V5.10785H129.302V8.03915H124.815Z" fill="#006D36"/>
<path d="M141.017 19.5618V13.7579H135.034V19.5618H131.787V5.10785H135.034V10.8266H141.017V5.10785H144.265V19.5618H141.017Z" fill="#006D36"/>
<path d="M158.782 19.5618L157.433 16.3214H151.194L149.845 19.5618H146.538L152.858 5.00659H155.85L162.17 19.5618H158.776H158.782ZM154.311 8.82794L152.353 13.5127H156.274L154.316 8.82794H154.311Z" fill="#006D36"/>
<path d="M175.975 19.5618V10.123L171.825 16.2947H171.738L167.631 10.1817V19.5565H164.449V5.10251H167.947L171.825 11.2156L175.703 5.10251H179.2V19.5565H175.975V19.5618Z" fill="#006D36"/>
<path d="M91.0203 24.5716H85.7715V27.4496H90.4655V28.3184H85.7715V31.271H91.0801V32.1397H84.7979V23.7082H91.0148V24.577L91.0203 24.5716Z" fill="white"/>
<path d="M93.8213 32.1335H92.875V25.9094H93.8213V26.9911C94.24 26.3144 94.9035 25.7762 95.9966 25.7762C97.5357 25.7762 98.4276 26.7886 98.4276 28.2701V32.1335H97.4813V28.4992C97.4813 27.3428 96.845 26.6181 95.7247 26.6181C94.6044 26.6181 93.8213 27.4015 93.8213 28.5685V32.1335Z" fill="white"/>
<path d="M101.725 30.3596C101.725 31.1164 102.154 31.3936 102.796 31.3936C103.117 31.3936 103.384 31.335 103.715 31.1751V31.9692C103.384 32.1397 103.025 32.2357 102.573 32.2357C101.551 32.2357 100.778 31.74 100.778 30.4769V26.7195H99.8916V25.8987H100.778V24.0174H101.725V25.8987H103.743V26.7195H101.725V30.3543V30.3596Z" fill="white"/>
<path d="M108.028 31.4674C108.898 31.4674 109.513 31.1157 110.029 30.5881L110.617 31.105C109.975 31.8031 109.203 32.2721 108.001 32.2721C106.255 32.2721 104.83 30.9612 104.83 29.0214C104.83 27.2149 106.119 25.7708 107.876 25.7708C109.757 25.7708 110.84 27.2416 110.84 29.0694C110.84 29.1547 110.84 29.2506 110.829 29.3572H105.787C105.923 30.7054 106.908 31.4621 108.022 31.4621L108.028 31.4674ZM109.882 28.6751C109.784 27.5453 109.121 26.5542 107.854 26.5542C106.75 26.5542 105.912 27.4547 105.787 28.6751H109.882Z" fill="white"/>
<path d="M113.446 32.1335H112.5V25.9094H113.446V27.5347C113.914 26.5009 114.833 25.7549 116.04 25.8028V26.8046H115.964C114.577 26.8046 113.446 27.7798 113.446 29.6609V32.1442V32.1335Z" fill="white"/>
<path d="M120.859 32.2676C119.679 32.2676 118.917 31.6387 118.428 30.9406V34.0584H117.481V25.9041H118.428V27.1565C118.945 26.4104 119.695 25.7708 120.859 25.7708C122.382 25.7708 123.894 26.9487 123.894 29.0112C123.894 31.0738 122.393 32.2623 120.859 32.2623V32.2676ZM120.685 26.6022C119.505 26.6022 118.384 27.5669 118.384 29.0112C118.384 30.4556 119.505 31.4309 120.685 31.4309C121.865 31.4309 122.921 30.5408 122.921 29.0219C122.921 27.5029 121.887 26.6022 120.685 26.6022Z" fill="white"/>
<path d="M126.587 32.1335H125.641V25.9094H126.587V27.5347C127.055 26.5009 127.974 25.7549 129.181 25.8028V26.8046H129.105C127.718 26.8046 126.587 27.7798 126.587 29.6609V32.1442V32.1335Z" fill="white"/>
<path d="M130.639 24.545V23.5217H131.721V24.545H130.639ZM130.704 32.1344V25.9094H131.65V32.1344H130.704Z" fill="white"/>
<path d="M135.953 32.2508C135.044 32.2508 134.033 31.8991 133.32 31.3342L133.799 30.6734C134.49 31.1797 135.251 31.4674 135.996 31.4674C136.741 31.4674 137.312 31.0838 137.312 30.4816V30.4549C137.312 29.8315 136.562 29.5863 135.724 29.3572C134.729 29.0801 133.625 28.7444 133.625 27.5987V27.5773C133.625 26.5062 134.533 25.7975 135.789 25.7975C136.562 25.7975 137.426 26.0639 138.073 26.4849L137.644 27.183C137.057 26.81 136.377 26.5808 135.762 26.5808C135.012 26.5808 134.533 26.9645 134.533 27.4867V27.5081C134.533 28.0996 135.322 28.3287 136.165 28.5792C137.149 28.8669 138.204 29.24 138.204 30.359V30.3857C138.204 31.5634 137.209 32.2508 135.942 32.2508H135.953Z" fill="white"/>
<path d="M142.768 31.4674C143.638 31.4674 144.253 31.1157 144.769 30.5881L145.357 31.105C144.72 31.8031 143.943 32.2721 142.741 32.2721C140.995 32.2721 139.57 30.9612 139.57 29.0214C139.57 27.2149 140.859 25.7708 142.616 25.7708C144.498 25.7708 145.58 27.2416 145.58 29.0694C145.58 29.1547 145.58 29.2506 145.569 29.3572H140.533C140.669 30.7054 141.653 31.4621 142.768 31.4621V31.4674ZM144.628 28.6751C144.53 27.5453 143.867 26.5542 142.599 26.5542C141.495 26.5542 140.658 27.4547 140.533 28.6751H144.623H144.628Z" fill="white"/>
<path d="M149.344 32.2508C148.436 32.2508 147.424 31.8991 146.712 31.3342L147.19 30.6734C147.876 31.1797 148.643 31.4674 149.388 31.4674C150.133 31.4674 150.704 31.0838 150.704 30.4816V30.4549C150.704 29.8315 149.953 29.5863 149.116 29.3572C148.12 29.0801 147.016 28.7444 147.016 27.5987V27.5773C147.016 26.5062 147.925 25.7975 149.181 25.7975C149.953 25.7975 150.818 26.0639 151.465 26.4849L151.035 27.183C150.448 26.81 149.768 26.5808 149.154 26.5808C148.403 26.5808 147.925 26.9645 147.925 27.4867V27.5081C147.925 28.0996 148.713 28.3287 149.562 28.5792C150.546 28.8669 151.601 29.24 151.601 30.359V30.3857C151.601 31.5634 150.606 32.2508 149.339 32.2508H149.344Z" fill="white"/>
<path d="M157.209 23.7029H158.183V31.255H163.023V32.1344H157.209V23.7029Z" fill="white"/>
<path d="M166.848 32.1344H165.864V24.5823H162.976V23.7029H169.736V24.5823H166.848V32.1344Z" fill="white"/>
<path d="M174.539 32.1344H171.553V23.7029H174.539C177.242 23.7029 179.113 25.5203 179.113 27.908C179.113 30.2957 177.248 32.1344 174.539 32.1344ZM174.539 24.5823H172.521V31.255H174.539C176.715 31.255 178.102 29.8107 178.102 27.9293C178.102 26.048 176.715 24.5823 174.539 24.5823Z" fill="white"/>
<path d="M19.9798 10.5037H42.6369L45.6443 0.249695H20.1562C9.02213 0.249695 0 9.09457 0 20C0 25.4549 2.25666 30.3914 5.90169 33.963C9.54673 37.5347 14.5892 39.7459 20.1562 39.7459H34.1032L34.1349 39.6395H39.3763L42.5058 28.9557H27.4779H19.9798C17.384 28.9557 15.0233 27.9187 13.3184 26.2526C11.6135 24.582 10.5597 22.2777 10.5597 19.7253C10.5597 14.6248 14.7791 10.4993 19.9753 10.4993L19.9798 10.5037Z" fill="white"/>
</svg>
