<svg fill="none" height="12" viewBox="0 0 99 12" width="99" xmlns="http://www.w3.org/2000/svg"><g fill="white"><path d="m2.52649 12h-2.52649v-12h2.52649z"/><path d="m16.0652 8.26282v-8.26282h2.5091v12h-2.5784l-6.09128-8.28001v8.28001h-2.52644v-12h2.57837z"/><path d="m22.4912 0h8.6696v2.21142h-3.0801v9.78858h-2.5093v-9.78858h-3.0802z"/><path d="m42.5035 0v2.21142h-4.9146v2.57142h4.2397v2.21142h-4.2397v2.7943h4.9146v2.21144h-7.4411v-12z"/><path d="m56.764 12h-3.0629l-3.3918-4.93717h-.8133v4.93717h-2.5265v-12h4.88c1.246 0 2.1977.331427 2.8552.99428.6692.66286 1.0038 1.53142 1.0038 2.60571 0 1.74856-.8768 2.81712-2.6304 3.2057zm-7.268-6.97716h1.9901c.5538 0 .9748-.10857 1.2633-.32571.2999-.22857.4498-.59429.4498-1.09714 0-.49143-.1499-.84572-.4498-1.06285-.2885-.21715-.7095-.32572-1.2633-.32572h-1.9901z"/><path d="m69.3888 8.26282v-8.26282h2.5092v12h-2.5784l-6.0913-8.28001v8.28001h-2.5265v-12h2.5784z"/><path d="m82.6675 5.81141 4.1878 6.18859h-2.9072l-2.6477-4.11431-2.6303 4.11431h-2.89l4.1705-6.17145-3.9454-5.82855h2.8725l2.4227 3.75427 2.44-3.75427h2.8898z"/><path d="m89.8005 0h8.6697v2.21142h-3.0802v9.78858h-2.5092v-9.78858h-3.0803z"/></g></svg>