<svg width="148" height="41" viewBox="0 0 148 41" fill="none" xmlns="http://www.w3.org/2000/svg">
    <path d="M36.0199 4H28.9004V11.1192H36.0199V4Z" fill="#fff" />
    <path fill-rule="evenodd" clip-rule="evenodd"
        d="M33.8186 13.1576L10.0508 31.9086C12.5667 33.9937 15.7899 35.2503 19.2937 35.2503C27.2826 35.2503 33.8186 28.7145 33.8186 20.726V13.1562V13.1576Z"
        fill="#fff" />
    <path fill-rule="evenodd" clip-rule="evenodd"
        d="M8.11066 29.968L26.8638 6.20117H19.2938C11.3049 6.20117 4.76758 12.7369 4.76758 20.7255C4.76758 24.2291 6.0242 27.4522 8.10935 29.968"
        fill="#fff" />
    <path d="M7.13892 32.8789H4V36.019H7.13892V32.8789Z" fill="#fff" />
    <path
        d="M59.9219 13.0376C59.1274 13.0376 58.5713 13.1883 58.2537 13.4896C57.9361 13.7909 57.7768 14.3276 57.7768 15.1019V16.3402H61.9619V19.6219H57.7768V30.0433H54.1387V19.6219H52.0195V16.3402H54.1387V13.6326C54.1387 11.036 55.5898 9.73828 58.4911 9.73828H61.008L62.6502 12.8594V13.0398H59.9219V13.0376Z"
        fill="#fff" />
    <path
        d="M65.4438 14.7873C64.8776 14.7873 64.395 14.5938 63.9971 14.2066C63.5993 13.8195 63.4004 13.3499 63.4004 12.7989C63.4004 12.2479 63.5993 11.7783 63.9971 11.3912C64.395 11.0041 64.8776 10.8105 65.4438 10.8105C66.01 10.8105 66.4926 11.0041 66.8905 11.3912C67.2883 11.7783 67.4872 12.2479 67.4872 12.7989C67.4872 13.3499 67.2883 13.8195 66.8905 14.2066C66.4926 14.5938 66.01 14.7873 65.4438 14.7873ZM63.6456 30.0411V16.3182H67.2431V30.0411H63.6456Z"
        fill="#fff" />
    <path
        d="M83.0779 20.9275V29.9214H79.4398V22.0635C79.4398 21.5994 79.3606 21.1958 79.2013 20.8527C79.0419 20.5096 78.8351 20.2214 78.5785 19.9894C78.322 19.7573 78.0315 19.5814 77.7049 19.4615C77.3783 19.3416 77.0392 19.2811 76.6855 19.2811C76.3147 19.2811 75.944 19.3493 75.5733 19.4868C75.2026 19.6242 74.8715 19.831 74.581 20.1048C74.2906 20.3787 74.0555 20.7317 73.8792 21.1606C73.7028 21.5895 73.6147 22.0877 73.6147 22.6552V29.9203H69.9766V16.0984H70.1608L73.2112 17.9537C73.7774 17.2839 74.4488 16.7868 75.2264 16.4635C76.0039 16.1402 76.8177 15.9785 77.6665 15.9785C78.3378 15.9785 78.9922 16.0819 79.6296 16.2876C80.2659 16.4943 80.8367 16.8033 81.3408 17.2158C81.8448 17.6282 82.2562 18.144 82.5738 18.762C82.8914 19.3801 83.0598 20.1015 83.0779 20.9264V20.9275Z"
        fill="#fff" />
    <path
        d="M98.5475 16.3184V30.1205H98.3621L95.3388 28.2651C94.7726 28.9349 94.0967 29.4353 93.3101 29.7652C92.5235 30.0952 91.7052 30.2601 90.8576 30.2601C90.1862 30.2601 89.5318 30.1567 88.8944 29.9511C88.2581 29.7454 87.6885 29.4364 87.1844 29.024C86.6803 28.6116 86.2689 28.0958 85.9513 27.4777C85.6326 26.8596 85.4653 26.1382 85.4473 25.3134V16.3195H89.0854V24.1729C89.0854 24.637 89.1645 25.0395 89.3239 25.3838C89.4821 25.7269 89.69 26.0194 89.9455 26.2592C90.202 26.5 90.4925 26.6804 90.8191 26.8003C91.1457 26.9201 91.4859 26.9806 91.8386 26.9806C92.2093 26.9806 92.58 26.9124 92.9507 26.775C93.3214 26.6375 93.6525 26.4274 93.943 26.1437C94.2346 25.8611 94.4686 25.5047 94.6449 25.0758C94.8212 24.6469 94.9093 24.1487 94.9093 23.5823V16.3217H98.5475V16.3184Z"
        fill="#fff" />
    <path
        d="M114.451 24.3324H104.598C104.845 25.034 105.269 25.607 105.869 26.0513C106.469 26.4967 107.176 26.7189 107.988 26.7189C109.33 26.7189 110.39 26.2899 111.166 25.4299L114.159 27.6207C113.541 28.3773 112.684 28.9954 111.59 29.4771C110.496 29.9588 109.295 30.1985 107.988 30.1985C106.893 30.1985 105.891 30.0094 104.982 29.6321C104.073 29.2549 103.296 28.7435 102.651 28.0991C102.007 27.4557 101.508 26.6991 101.155 25.8324C100.802 24.9658 100.625 24.042 100.625 23.0632C100.625 21.9811 100.815 21.0067 101.195 20.1389C101.574 19.2723 102.082 18.5289 102.718 17.9108C103.353 17.2927 104.096 16.8165 104.944 16.4811C105.791 16.1457 106.683 15.9785 107.619 15.9785C108.608 15.9785 109.516 16.1512 110.347 16.4943C111.177 16.8385 111.897 17.3235 112.506 17.9504C113.115 18.5773 113.592 19.3251 113.937 20.1928C114.281 21.0605 114.453 22.0184 114.453 23.0676V24.3313L114.451 24.3324ZM110.662 21.5477C110.415 20.9143 110.031 20.404 109.511 20.018C108.99 19.6319 108.367 19.4395 107.644 19.4395C106.884 19.4395 106.244 19.6242 105.723 19.9927C105.202 20.3611 104.827 20.8791 104.598 21.5477H110.663H110.662Z"
        fill="#fff" />
    <path
        d="M129.494 16.3184L122.157 30.2799H121.812L114.502 16.3184H118.475L121.997 23.4537L125.52 16.3184H129.493H129.494Z"
        fill="#fff" />
    <path
        d="M136.653 15.9807C137.765 15.9807 138.759 16.1655 139.632 16.535C140.506 16.9045 141.252 17.4115 141.87 18.056C142.487 18.7004 142.96 19.4571 143.286 20.3248C143.613 21.1925 143.776 22.1163 143.776 23.0962V30.2381H143.591L140.281 28.2024C139.769 28.9074 139.137 29.4287 138.387 29.7685C137.636 30.1083 136.82 30.2777 135.938 30.2777C135.055 30.2777 134.251 30.127 133.475 29.8268C132.698 29.5266 132.018 29.0757 131.436 28.4741C130.854 27.8736 130.391 27.1258 130.046 26.2328C129.701 25.3397 129.529 24.2917 129.529 23.0896C129.529 22.1108 129.692 21.187 130.019 20.3204C130.345 19.4527 130.818 18.6971 131.435 18.0527C132.052 17.4082 132.799 16.9012 133.673 16.5328C134.546 16.1633 135.54 15.9785 136.652 15.9785L136.653 15.9807ZM136.656 26.7398C137.185 26.7398 137.657 26.6452 138.071 26.4571C138.486 26.2691 138.839 26.0073 139.129 25.673C139.42 25.3386 139.64 24.9482 139.79 24.5028C139.941 24.0574 140.015 23.5856 140.015 23.0885C140.015 22.5914 139.941 22.1196 139.79 21.6742C139.64 21.2288 139.42 20.8428 139.129 20.5173C138.839 20.1917 138.486 19.9344 138.071 19.7452C137.657 19.5561 137.185 19.4626 136.656 19.4626C136.127 19.4626 135.656 19.5572 135.241 19.7452C134.827 19.9333 134.474 20.1906 134.183 20.5173C133.893 20.8428 133.668 21.2288 133.509 21.6742C133.351 22.1196 133.27 22.5914 133.27 23.0885C133.27 23.5856 133.349 24.0574 133.509 24.5028C133.667 24.9482 133.892 25.3386 134.183 25.673C134.474 26.0073 134.827 26.2691 135.241 26.4571C135.656 26.6452 136.127 26.7398 136.656 26.7398Z"
        fill="#fff" />
</svg>