<?xml version="1.0" encoding="utf-8"?>
<!-- Generator: Adobe Illustrator 25.2.1, SVG Export Plug-In . SVG Version: 6.00 Build 0)  -->
<svg version="1.1" id="Layer_1" xmlns="http://www.w3.org/2000/svg" xmlns:xlink="http://www.w3.org/1999/xlink" x="0px" y="0px"
	 viewBox="0 0 71 32" style="enable-background:new 0 0 71 32;" xml:space="preserve">
<style type="text/css">
	.st0{fill:#E8E8E8;}
	.st1{fill:#BED541;}
</style>
<g>
	<path class="st0" d="M18.2,17.8c0.7,0,1.3-0.3,1.8-0.7c0.3,0.3,1.6,1.6,1.6,1.6c-0.9,0.9-2,1.4-3.3,1.4c-2.6,0-4.7-2.1-4.7-4.7
		s2.1-4.8,4.7-4.8c1.9,0,3.3,1,3.9,2.3c0.6,1.1,0.7,2.2,0.6,3.4h-5.2v-2h2.8c-0.4-0.8-1.3-1.4-2.2-1.4c-1,0-2.4,0.9-2.4,2.4
		S17.2,17.8,18.2,17.8z"/>
	<path class="st0" d="M30.3,10.7l-2.1,6.7L26,10.7h-2.7c0,0,1.9,6.3,2.6,7.9c0.4,0.9,1.3,1.4,2.2,1.4c1,0,1.9-0.6,2.2-1.4
		c0.7-1.7,2.6-7.9,2.6-7.9L30.3,10.7z"/>
	<path class="st0" d="M10.2,10.7l-2.1,6.7L6,10.7H3.3c0,0,1.9,6.3,2.6,7.9C6.2,19.5,7.1,20,8.1,20s1.9-0.6,2.2-1.4
		c0.7-1.7,2.6-7.9,2.6-7.9L10.2,10.7z"/>
	<path class="st0" d="M38.1,20c-2.6,0-4.7-2.1-4.7-4.7s2.1-4.8,4.7-4.8s4.7,2.1,4.7,4.8C42.9,17.9,40.8,20,38.1,20z M38.1,13.1
		c-1.3,0-2.2,1-2.2,2.2s1,2.2,2.2,2.2s2.2-1,2.2-2.2C40.4,14,39.4,13.1,38.1,13.1z"/>
	<path class="st0" d="M56.7,19.9h-2.5c0,0,0-3.8,0-5.8c0-0.6-0.5-1.2-1.2-1.2s-1.2,0.5-1.2,1.2v5.8h-2.5V14c-0.1-0.6-0.6-1-1.1-1
		c-0.6,0-1.1,0.6-1.2,1.2v5.7h-2.6v-5.7c0-2,1.7-3.6,3.7-3.6c0.9,0,1.8,0.3,2.4,0.9c0.6-0.6,1.5-0.9,2.5-0.9c2,0,3.7,1.6,3.7,3.6
		C56.7,16.1,56.7,19.9,56.7,19.9z"/>
	<g>
		<path class="st0" d="M63,20c-2.6,0-4.7-2.1-4.7-4.7s2.1-4.8,4.7-4.8c2.6,0,4.7,2.1,4.7,4.8C67.7,17.9,65.6,20,63,20z M63,13.1
			c-1.3,0-2.2,1-2.2,2.2s1,2.2,2.2,2.2c1.3,0,2.2-1,2.2-2.2C65.2,14,64.2,13.1,63,13.1z"/>
	</g>
	<path class="st1" d="M28.1,8.2c-0.8,0-1.4,0.6-1.4,1.4s0.6,1.4,1.4,1.4s1.4-0.6,1.4-1.4S28.9,8.2,28.1,8.2z"/>
</g>
</svg>
