<?xml version="1.0" encoding="UTF-8"?>
<!DOCTYPE svg PUBLIC "-//W3C//DTD SVG 1.1//EN" "http://www.w3.org/Graphics/SVG/1.1/DTD/svg11.dtd">
<svg xmlns="http://www.w3.org/2000/svg" version="1.1" width="512px" height="512px" style="shape-rendering:geometricPrecision; text-rendering:geometricPrecision; image-rendering:optimizeQuality; fill-rule:evenodd; clip-rule:evenodd" xmlns:xlink="http://www.w3.org/1999/xlink">
<g><path style="opacity:1" fill="#5496f8" d="M 268.5,8.5 C 273.5,9.16667 278.5,9.83333 283.5,10.5C 265.153,10.3151 246.819,10.6485 228.5,11.5C 228.5,11.1667 228.5,10.8333 228.5,10.5C 230.969,9.6829 233.635,9.1829 236.5,9C 247.161,8.50016 257.828,8.3335 268.5,8.5 Z"/></g>
<g><path style="opacity:1" fill="#1a7bf6" d="M 283.5,10.5 C 310.465,13.1265 336.465,19.6265 361.5,30C 374.803,36.6508 387.803,43.8174 400.5,51.5C 434.568,76.6126 461.568,107.613 481.5,144.5C 493.073,169.144 501.073,194.811 505.5,221.5C 505.5,225.167 505.5,228.833 505.5,232.5C 505.5,248.167 505.5,263.833 505.5,279.5C 497.589,343.99 469.589,397.99 421.5,441.5C 412.532,448.124 403.532,454.79 394.5,461.5C 374.523,473.153 353.523,482.653 331.5,490C 312.526,495.289 293.193,498.456 273.5,499.5C 266.167,499.5 258.833,499.5 251.5,499.5C 235.956,499.458 220.623,497.625 205.5,494C 189.544,489.597 173.878,484.43 158.5,478.5C 117.183,489.276 75.1833,493.609 32.5,491.5C 28.6365,486.986 27.8032,481.986 30,476.5C 56.4631,458.906 68.4631,434.24 66,402.5C 65.2917,401.619 64.4584,400.953 63.5,400.5C 50.849,381.535 40.0156,361.535 31,340.5C 27.2217,327.409 23.3884,314.409 19.5,301.5C 18.8333,301.5 18.5,301.167 18.5,300.5C 19.1471,299.726 19.4805,298.726 19.5,297.5C 17.905,286.55 16.905,275.55 16.5,264.5C 16.4142,252.152 16.7475,239.819 17.5,227.5C 30.5217,137.858 77.1884,72.5244 157.5,31.5C 157.842,30.6618 158.508,30.3284 159.5,30.5C 168.053,27.8895 176.386,24.7228 184.5,21C 193.441,18.0499 202.441,15.5499 211.5,13.5C 217.155,12.7514 222.822,12.0848 228.5,11.5C 246.819,10.6485 265.153,10.3151 283.5,10.5 Z"/></g>
<g><path style="opacity:1" fill="#a5ccfb" d="M 228.5,10.5 C 228.5,10.8333 228.5,11.1667 228.5,11.5C 222.822,12.0848 217.155,12.7514 211.5,13.5C 211.918,12.7784 212.584,12.2784 213.5,12C 218.448,10.9502 223.448,10.4502 228.5,10.5 Z"/></g>
<g><path style="opacity:0.794" fill="#99c1fb" d="M 211.5,13.5 C 202.441,15.5499 193.441,18.0499 184.5,21C 176.386,24.7228 168.053,27.8895 159.5,30.5C 160.348,28.9069 161.681,27.7403 163.5,27C 179.088,20.9372 195.088,16.4372 211.5,13.5 Z"/></g>
<g><path style="opacity:0.186" fill="#9fc7fb" d="M 268.5,8.5 C 312.751,9.30478 353.751,21.1381 391.5,44C 394.571,46.5184 397.571,49.0184 400.5,51.5C 387.803,43.8174 374.803,36.6508 361.5,30C 336.465,19.6265 310.465,13.1265 283.5,10.5C 278.5,9.83333 273.5,9.16667 268.5,8.5 Z"/></g>
<g><path style="opacity:1" fill="#b9d6fc" d="M 296.5,32.5 C 276.196,30.3696 255.863,30.0362 235.5,31.5C 236.952,30.6981 238.618,30.1981 240.5,30C 257.522,29.2287 274.522,29.562 291.5,31C 293.382,31.1981 295.048,31.6981 296.5,32.5 Z"/></g>
<g><path style="opacity:1" fill="#fefefe" d="M 296.5,32.5 C 296.833,32.5 297.167,32.5 297.5,32.5C 301.618,33.7089 305.951,34.3755 310.5,34.5C 313.452,36.4098 316.786,37.4098 320.5,37.5C 321.5,37.5 322.5,37.5 323.5,37.5C 325.185,39.8176 327.519,40.8176 330.5,40.5C 332.515,41.9238 334.848,42.5905 337.5,42.5C 346.62,46.1266 355.62,50.1266 364.5,54.5C 366.566,56.1991 368.9,57.5324 371.5,58.5C 386.044,66.9376 399.711,76.6043 412.5,87.5C 415.833,91.5 419.5,95.1667 423.5,98.5C 444.127,118.759 459.461,142.426 469.5,169.5C 469.66,171.153 470.326,172.486 471.5,173.5C 472.832,177.424 474.165,181.424 475.5,185.5C 476.282,191.216 477.949,196.55 480.5,201.5C 480.5,201.833 480.5,202.167 480.5,202.5C 480.125,207.911 481.125,212.911 483.5,217.5C 486.623,237.61 487.29,257.943 485.5,278.5C 483.783,281.845 483.116,285.511 483.5,289.5C 483.462,294.271 482.796,298.938 481.5,303.5C 479.96,305.838 479.294,308.505 479.5,311.5C 478.076,313.515 477.41,315.848 477.5,318.5C 468.104,348.35 453.437,375.35 433.5,399.5C 430.52,402.151 427.853,405.151 425.5,408.5C 401.964,432.611 374.631,451.278 343.5,464.5C 340.364,464.603 337.698,465.603 335.5,467.5C 334.209,467.263 333.209,467.596 332.5,468.5C 329.008,468.446 326.008,469.446 323.5,471.5C 321.585,471.216 319.919,471.549 318.5,472.5C 312.627,473.469 306.96,474.802 301.5,476.5C 299.833,476.5 298.167,476.5 296.5,476.5C 277.584,478.321 258.584,478.988 239.5,478.5C 235.534,477.838 231.534,477.505 227.5,477.5C 224.193,476.949 220.86,476.616 217.5,476.5C 215.485,475.076 213.152,474.41 210.5,474.5C 210.167,474.5 209.833,474.5 209.5,474.5C 206.495,472.723 203.162,471.723 199.5,471.5C 197.485,470.076 195.152,469.41 192.5,469.5C 180.92,465.472 169.42,461.139 158,456.5C 150.212,459.153 142.379,461.487 134.5,463.5C 129.897,463.862 125.564,464.862 121.5,466.5C 120.5,466.5 119.5,466.5 118.5,466.5C 109.181,467.632 99.8478,468.632 90.5,469.5C 83.1667,469.833 75.8333,470.167 68.5,470.5C 73.852,460.46 78.6853,450.127 83,439.5C 86.1805,425.322 87.1805,410.989 86,396.5C 77.4856,385.403 69.9856,373.736 63.5,361.5C 63.573,359.973 62.9063,358.973 61.5,358.5C 52.873,342.303 46.5396,325.303 42.5,307.5C 42.7062,304.505 42.0395,301.838 40.5,299.5C 38.5535,290.648 37.5535,281.648 37.5,272.5C 37.3652,256.487 37.6986,240.487 38.5,224.5C 38.5,223.833 38.5,223.167 38.5,222.5C 39.7846,219.411 40.4512,216.078 40.5,212.5C 40.5,211.833 40.5,211.167 40.5,210.5C 42.3438,206.138 43.3438,201.471 43.5,196.5C 50.6738,171.287 61.6738,147.953 76.5,126.5C 77.9063,126.027 78.573,125.027 78.5,123.5C 82.4712,117.202 87.1379,111.535 92.5,106.5C 95.2427,104.761 97.2427,102.427 98.5,99.5C 99.8333,97.5 101.5,95.8333 103.5,94.5C 107.1,92.5698 110.1,89.9031 112.5,86.5C 123.462,76.0467 135.462,66.8801 148.5,59C 158.478,53.2705 168.811,48.2705 179.5,44C 186.99,41.376 194.657,39.2093 202.5,37.5C 205.152,37.5905 207.485,36.9238 209.5,35.5C 214.536,35.6978 219.203,34.6978 223.5,32.5C 227.434,31.6403 231.434,31.307 235.5,31.5C 255.863,30.0362 276.196,30.3696 296.5,32.5 Z"/></g>
<g><path style="opacity:1" fill="#75acf9" d="M 297.5,32.5 C 302.1,32.2796 306.433,32.9462 310.5,34.5C 305.951,34.3755 301.618,33.7089 297.5,32.5 Z"/></g>
<g><path style="opacity:1" fill="#aecffb" d="M 223.5,32.5 C 219.203,34.6978 214.536,35.6978 209.5,35.5C 213.973,34.1331 218.64,33.1331 223.5,32.5 Z"/></g>
<g><path style="opacity:1" fill="#81b3fa" d="M 310.5,34.5 C 314.162,34.7234 317.495,35.7234 320.5,37.5C 316.786,37.4098 313.452,36.4098 310.5,34.5 Z"/></g>
<g><path style="opacity:1" fill="#abcffb" d="M 209.5,35.5 C 207.485,36.9238 205.152,37.5905 202.5,37.5C 204.515,36.0762 206.848,35.4095 209.5,35.5 Z"/></g>
<g><path style="opacity:1" fill="#94c0fb" d="M 323.5,37.5 C 326.063,38.0883 328.396,39.0883 330.5,40.5C 327.519,40.8176 325.185,39.8176 323.5,37.5 Z"/></g>
<g><path style="opacity:1" fill="#81b5fa" d="M 330.5,40.5 C 333.152,40.4095 335.485,41.0762 337.5,42.5C 334.848,42.5905 332.515,41.9238 330.5,40.5 Z"/></g>
<g><path style="opacity:1" fill="#80b2fa" d="M 364.5,54.5 C 367.546,54.7247 369.879,56.058 371.5,58.5C 368.9,57.5324 366.566,56.1991 364.5,54.5 Z"/></g>
<g><path style="opacity:1" fill="#bed9fc" d="M 112.5,86.5 C 110.1,89.9031 107.1,92.5698 103.5,94.5C 105.9,91.0969 108.9,88.4302 112.5,86.5 Z"/></g>
<g><path style="opacity:1" fill="#67a5f9" d="M 412.5,87.5 C 417.167,90.1667 420.833,93.8333 423.5,98.5C 419.5,95.1667 415.833,91.5 412.5,87.5 Z"/></g>
<g><path style="opacity:1" fill="#b1d1fc" d="M 98.5,99.5 C 97.2427,102.427 95.2427,104.761 92.5,106.5C 93.7573,103.573 95.7573,101.239 98.5,99.5 Z"/></g>
<g><path style="opacity:1" fill="#f77485" d="M 152.5,117.5 C 219.332,116.335 286.332,116.168 353.5,117C 357.16,117.553 360.494,118.886 363.5,121C 365.633,123.51 368.133,125.676 371,127.5C 371.366,129.452 372.199,131.118 373.5,132.5C 372.504,132.586 371.671,132.252 371,131.5C 370.654,129.152 369.487,127.319 367.5,126C 356.714,118.67 344.714,115.836 331.5,117.5C 271.833,117.5 212.167,117.5 152.5,117.5 Z"/></g>
<g><path style="opacity:1" fill="#f6697c" d="M 152.5,117.5 C 212.167,117.5 271.833,117.5 331.5,117.5C 329.723,118.6 327.723,119.434 325.5,120C 302.898,143.62 279.898,166.786 256.5,189.5C 221.832,189.667 187.165,189.5 152.5,189C 146.861,188.865 142.528,186.531 139.5,182C 137.152,181.654 135.319,180.487 134,178.5C 131.332,175.632 129.166,172.299 127.5,168.5C 122.056,151.45 125.389,136.616 137.5,124C 140.06,123.773 141.726,122.44 142.5,120C 145.72,118.648 149.053,117.814 152.5,117.5 Z"/></g>
<g><path style="opacity:1" fill="#f44b62" d="M 331.5,117.5 C 344.714,115.836 356.714,118.67 367.5,126C 369.487,127.319 370.654,129.152 371,131.5C 371.671,132.252 372.504,132.586 373.5,132.5C 374.79,133.058 375.623,134.058 376,135.5C 379.885,148.803 379.218,161.803 374,174.5C 370.998,178.668 367.498,182.335 363.5,185.5C 360.647,186.887 357.647,188.054 354.5,189C 321.835,189.5 289.168,189.667 256.5,189.5C 279.898,166.786 302.898,143.62 325.5,120C 327.723,119.434 329.723,118.6 331.5,117.5 Z"/></g>
<g><path style="opacity:0.265" fill="#9dc6fb" d="M 400.5,51.5 C 406.933,55.4181 413.267,59.5848 419.5,64C 440.799,82.5447 458.966,103.711 474,127.5C 476.96,132.586 479.794,137.753 482.5,143C 481.944,143.383 481.611,143.883 481.5,144.5C 461.568,107.613 434.568,76.6126 400.5,51.5 Z"/></g>
<g><path style="opacity:1" fill="#91befb" d="M 78.5,123.5 C 78.573,125.027 77.9063,126.027 76.5,126.5C 76.427,124.973 77.0937,123.973 78.5,123.5 Z"/></g>
<g><path style="opacity:0.349" fill="#9fc7fb" d="M 157.5,31.5 C 77.1884,72.5244 30.5217,137.858 17.5,227.5C 17.1667,227.5 16.8333,227.5 16.5,227.5C 19.5399,195.221 28.7066,164.888 44,136.5C 69.0114,91.5013 104.845,57.0013 151.5,33C 153.436,32.187 155.436,31.687 157.5,31.5 Z"/></g>
<g><path style="opacity:0.2" fill="#a3cafb" d="M 481.5,144.5 C 487.259,153.024 491.759,162.357 495,172.5C 500.22,188.499 503.72,204.832 505.5,221.5C 501.073,194.811 493.073,169.144 481.5,144.5 Z"/></g>
<g><path style="opacity:1" fill="#8bbbfa" d="M 469.5,169.5 C 471.104,170.287 471.771,171.62 471.5,173.5C 470.326,172.486 469.66,171.153 469.5,169.5 Z"/></g>
<g><path style="opacity:1" fill="#f66a7c" d="M 363.5,185.5 C 303.368,246.132 243.035,306.632 182.5,367C 161.793,377.036 144.293,373.203 130,355.5C 124.782,343.476 124.115,331.143 128,318.5C 170.422,274.912 213.255,231.912 256.5,189.5C 289.168,189.667 321.835,189.5 354.5,189C 357.647,188.054 360.647,186.887 363.5,185.5 Z"/></g>
<g><path style="opacity:1" fill="#93befa" d="M 475.5,185.5 C 478.051,190.45 479.718,195.784 480.5,201.5C 477.949,196.55 476.282,191.216 475.5,185.5 Z"/></g>
<g><path style="opacity:1" fill="#92befa" d="M 43.5,196.5 C 43.3438,201.471 42.3438,206.138 40.5,210.5C 40.8704,205.578 41.8704,200.911 43.5,196.5 Z"/></g>
<g><path style="opacity:1" fill="#bad5fc" d="M 480.5,202.5 C 482.075,207.269 483.075,212.269 483.5,217.5C 481.125,212.911 480.125,207.911 480.5,202.5 Z"/></g>
<g><path style="opacity:1" fill="#98c2fb" d="M 40.5,212.5 C 40.4512,216.078 39.7846,219.411 38.5,222.5C 38.322,218.878 38.9886,215.544 40.5,212.5 Z"/></g>
<g><path style="opacity:0.877" fill="#94c2fa" d="M 505.5,221.5 C 507.137,229.944 507.803,238.611 507.5,247.5C 506.833,242.5 506.167,237.5 505.5,232.5C 505.5,228.833 505.5,225.167 505.5,221.5 Z"/></g>
<g><path style="opacity:1" fill="#69a7f8" d="M 16.5,227.5 C 16.8333,227.5 17.1667,227.5 17.5,227.5C 16.7475,239.819 16.4142,252.152 16.5,264.5C 15.8333,257.5 15.1667,250.5 14.5,243.5C 15.2166,238.201 15.8833,232.867 16.5,227.5 Z"/></g>
<g><path style="opacity:1" fill="#4e93f7" d="M 505.5,232.5 C 506.167,237.5 506.833,242.5 507.5,247.5C 507.828,258.346 507.494,269.013 506.5,279.5C 506.167,279.5 505.833,279.5 505.5,279.5C 505.5,263.833 505.5,248.167 505.5,232.5 Z"/></g>
<g><path style="opacity:1" fill="#bcd8fc" d="M 38.5,224.5 C 37.6986,240.487 37.3652,256.487 37.5,272.5C 36.3392,258.339 36.1725,244.006 37,229.5C 37.1981,227.618 37.6981,225.952 38.5,224.5 Z"/></g>
<g><path style="opacity:0.853" fill="#9cc6fb" d="M 14.5,243.5 C 15.1667,250.5 15.8333,257.5 16.5,264.5C 16.905,275.55 17.905,286.55 19.5,297.5C 19.4805,298.726 19.1471,299.726 18.5,300.5C 15.6996,281.627 14.3662,262.627 14.5,243.5 Z"/></g>
<g><path style="opacity:1" fill="#adcffb" d="M 485.5,278.5 C 485.192,282.36 484.525,286.026 483.5,289.5C 483.116,285.511 483.783,281.845 485.5,278.5 Z"/></g>
<g><path style="opacity:1" fill="#f4465c" d="M 357.5,369.5 C 353.569,370.389 349.902,371.722 346.5,373.5C 343.833,373.5 341.167,373.5 338.5,373.5C 336.081,371.138 333.081,370.138 329.5,370.5C 323.382,368.845 318.215,365.512 314,360.5C 304.282,346.989 302.949,332.656 310,317.5C 319.76,303.042 333.26,297.542 350.5,301C 371.992,308.142 381.159,322.975 378,345.5C 374.236,356.099 367.402,364.099 357.5,369.5 Z"/></g>
<g><path style="opacity:1" fill="#77aef9" d="M 40.5,299.5 C 42.0395,301.838 42.7062,304.505 42.5,307.5C 41.2318,305.095 40.5651,302.428 40.5,299.5 Z"/></g>
<g><path style="opacity:1" fill="#6fa9f9" d="M 481.5,303.5 C 481.435,306.428 480.768,309.095 479.5,311.5C 479.294,308.505 479.96,305.838 481.5,303.5 Z"/></g>
<g><path style="opacity:1" fill="#68a6f9" d="M 479.5,311.5 C 479.59,314.152 478.924,316.485 477.5,318.5C 477.41,315.848 478.076,313.515 479.5,311.5 Z"/></g>
<g><path style="opacity:0.624" fill="#9bc4fb" d="M 505.5,279.5 C 505.833,279.5 506.167,279.5 506.5,279.5C 500.223,341.258 474.556,393.424 429.5,436C 426.935,438.08 424.268,439.913 421.5,441.5C 469.589,397.99 497.589,343.99 505.5,279.5 Z"/></g>
<g><path style="opacity:0.153" fill="#9cc5fb" d="M 19.5,301.5 C 23.3884,314.409 27.2217,327.409 31,340.5C 40.0156,361.535 50.849,381.535 63.5,400.5C 59.402,395.84 55.402,391.006 51.5,386C 51.8333,385.667 52.1667,385.333 52.5,385C 50.3215,384.558 49.6548,383.558 50.5,382C 34.0986,358.034 23.7652,331.2 19.5,301.5 Z"/></g>
<g><path style="opacity:1" fill="#88b9fa" d="M 61.5,358.5 C 62.9063,358.973 63.573,359.973 63.5,361.5C 62.0937,361.027 61.427,360.027 61.5,358.5 Z"/></g>
<g><path style="opacity:1" fill="#f87684" d="M 329.5,370.5 C 333.081,370.138 336.081,371.138 338.5,373.5C 334.845,374.075 331.845,373.075 329.5,370.5 Z"/></g>
<g><path style="opacity:1" fill="#fbaeb7" d="M 357.5,369.5 C 354.374,371.99 350.708,373.323 346.5,373.5C 349.902,371.722 353.569,370.389 357.5,369.5 Z"/></g>
<g><path style="opacity:1" fill="#5498f8" d="M 433.5,399.5 C 433.291,400.922 432.791,402.255 432,403.5C 430.23,405.742 428.063,407.408 425.5,408.5C 427.853,405.151 430.52,402.151 433.5,399.5 Z"/></g>
<g><path style="opacity:0.503" fill="#9cc5fb" d="M 63.5,400.5 C 64.4584,400.953 65.2917,401.619 66,402.5C 68.4631,434.24 56.4631,458.906 30,476.5C 27.8032,481.986 28.6365,486.986 32.5,491.5C 30.4078,491.439 28.9078,490.439 28,488.5C 24.7896,479.011 27.9562,472.511 37.5,469C 58.339,450.816 67.0057,427.983 63.5,400.5 Z"/></g>
<g><path style="opacity:0.284" fill="#9fc7fb" d="M 421.5,441.5 C 420.05,444.785 417.717,447.285 414.5,449C 408.197,453.814 401.531,457.98 394.5,461.5C 403.532,454.79 412.532,448.124 421.5,441.5 Z"/></g>
<g><path style="opacity:1" fill="#60a1f8" d="M 134.5,463.5 C 130.521,465.449 126.187,466.449 121.5,466.5C 125.564,464.862 129.897,463.862 134.5,463.5 Z"/></g>
<g><path style="opacity:1" fill="#84b6fa" d="M 343.5,464.5 C 341.152,466.097 338.486,467.097 335.5,467.5C 337.698,465.603 340.364,464.603 343.5,464.5 Z"/></g>
<g><path style="opacity:1" fill="#63a2f8" d="M 118.5,466.5 C 109.475,468.964 100.141,470.297 90.5,470.5C 90.5,470.167 90.5,469.833 90.5,469.5C 99.8478,468.632 109.181,467.632 118.5,466.5 Z"/></g>
<g><path style="opacity:1" fill="#adcffb" d="M 192.5,469.5 C 195.152,469.41 197.485,470.076 199.5,471.5C 196.848,471.59 194.515,470.924 192.5,469.5 Z"/></g>
<g><path style="opacity:1" fill="#9ac5fb" d="M 90.5,469.5 C 90.5,469.833 90.5,470.167 90.5,470.5C 82.9968,471.306 75.6635,471.306 68.5,470.5C 75.8333,470.167 83.1667,469.833 90.5,469.5 Z"/></g>
<g><path style="opacity:1" fill="#8ab9fa" d="M 332.5,468.5 C 329.746,469.946 326.746,470.946 323.5,471.5C 326.008,469.446 329.008,468.446 332.5,468.5 Z"/></g>
<g><path style="opacity:1" fill="#96c1fb" d="M 199.5,471.5 C 203.162,471.723 206.495,472.723 209.5,474.5C 205.786,474.41 202.452,473.41 199.5,471.5 Z"/></g>
<g><path style="opacity:1" fill="#74adf9" d="M 318.5,472.5 C 313.215,475.03 307.548,476.364 301.5,476.5C 306.96,474.802 312.627,473.469 318.5,472.5 Z"/></g>
<g><path style="opacity:1" fill="#77aff9" d="M 210.5,474.5 C 213.152,474.41 215.485,475.076 217.5,476.5C 214.848,476.59 212.515,475.924 210.5,474.5 Z"/></g>
<g><path style="opacity:1" fill="#94c0fa" d="M 227.5,477.5 C 231.534,477.505 235.534,477.838 239.5,478.5C 239.5,478.833 239.5,479.167 239.5,479.5C 235.21,479.802 231.21,479.136 227.5,477.5 Z"/></g>
<g><path style="opacity:1" fill="#c5dcfc" d="M 296.5,476.5 C 290.168,478.769 283.501,479.936 276.5,480C 264.141,480.752 251.807,480.585 239.5,479.5C 239.5,479.167 239.5,478.833 239.5,478.5C 258.584,478.988 277.584,478.321 296.5,476.5 Z"/></g>
<g><path style="opacity:0.62" fill="#9cc5fb" d="M 394.5,461.5 C 393.718,463.451 392.384,464.951 390.5,466C 354.569,487.473 315.569,498.973 273.5,500.5C 273.5,500.167 273.5,499.833 273.5,499.5C 293.193,498.456 312.526,495.289 331.5,490C 353.523,482.653 374.523,473.153 394.5,461.5 Z"/></g>
<g><path style="opacity:0.102" fill="#9ec5fb" d="M 251.5,499.5 C 258.5,500.167 265.5,500.833 272.5,501.5C 240.313,502.561 208.98,498.061 178.5,488C 171.678,485.451 165.011,482.618 158.5,479.5C 148.237,483.393 137.571,486.227 126.5,488C 96.3373,492.683 66.004,494.683 35.5,494C 34.0577,493.623 33.0577,492.79 32.5,491.5C 75.1833,493.609 117.183,489.276 158.5,478.5C 173.878,484.43 189.544,489.597 205.5,494C 220.623,497.625 235.956,499.458 251.5,499.5 Z"/></g>
<g><path style="opacity:1" fill="#589ff8" d="M 251.5,499.5 C 258.833,499.5 266.167,499.5 273.5,499.5C 273.5,499.833 273.5,500.167 273.5,500.5C 273.5,501.167 273.167,501.5 272.5,501.5C 265.5,500.833 258.5,500.167 251.5,499.5 Z"/></g>
</svg>
