<?xml version="1.0" encoding="UTF-8"?>
<svg version="1.1" xmlns="http://www.w3.org/2000/svg" width="128" height="130">
<path d="M0 0 C2.00601159 -0.01712067 4.01173675 -0.06100517 6.01733398 -0.10522461 C13.14214831 -0.15198008 18.13616352 -0.17793248 23.84350586 4.29516602 C27.5287075 8.34888782 28.00258077 12.15402974 28.37866211 17.49438477 C28.46567383 18.70288086 28.55268555 19.91137695 28.64233398 21.15649414 C28.7293457 22.41913086 28.81635742 23.68176758 28.90600586 24.98266602 C29.04232422 26.89402344 29.04232422 26.89402344 29.18139648 28.84399414 C29.40556533 31.99415628 29.62612239 35.14452955 29.84350586 38.29516602 C30.59446533 38.33480469 31.3454248 38.37444336 32.11914062 38.4152832 C35.54941058 38.60680903 38.97741241 38.82573604 42.40600586 39.04516602 C43.58743164 39.10704102 44.76885742 39.16891602 45.98608398 39.23266602 C52.65422595 39.68094447 57.52596474 40.09823423 62.84350586 44.29516602 C66.53958433 48.88996144 67.35452925 51.99634917 67.37475586 57.85375977 C67.37858276 58.56113785 67.38240967 59.26851593 67.38635254 59.99732971 C67.38906078 61.48570183 67.38177595 62.97412242 67.36499023 64.46240234 C67.34359253 66.72350765 67.36480776 68.98142503 67.39038086 71.24243164 C67.38773676 72.69621461 67.38261008 74.14999561 67.37475586 75.60375977 C67.37024414 76.91143311 67.36573242 78.21910645 67.36108398 79.56640625 C66.66168013 84.60508318 65.02501011 88.43518393 61.04125977 91.83178711 C55.72090449 94.31537004 51.0562229 94.88310115 45.21850586 94.92016602 C39.69277116 95.00704864 35.05337497 95.18761378 29.84350586 97.29516602 C29.80386719 97.88942383 29.76422852 98.48368164 29.72338867 99.09594727 C29.53094418 101.83057286 29.31240813 104.56253606 29.09350586 107.29516602 C29.00069336 108.69702148 29.00069336 108.69702148 28.90600586 110.12719727 C28.32257376 117.07976306 27.08519198 123.24994572 21.78100586 128.23266602 C16.40094542 131.18302174 10.58737167 130.55461427 4.61157227 130.59033203 C2.61443037 130.60748629 0.61757657 130.65138127 -1.37915039 130.69555664 C-13.5658131 130.77581328 -13.5658131 130.77581328 -19.15649414 126.29516602 C-23.57126677 119.52584798 -23.38371476 111.68260646 -23.76196289 103.86547852 C-23.9071042 99.95201121 -23.9071042 99.95201121 -25.15649414 96.29516602 C-31.01538597 94.86752465 -37.16521829 94.99618135 -43.16821289 94.86547852 C-48.20409811 94.67333027 -51.78867852 94.06434774 -56.15649414 91.29516602 C-62.22348897 84.73625269 -61.43976967 77.85134216 -61.5065918 69.40917969 C-61.52309819 67.8836333 -61.55031821 66.35816255 -61.58862305 64.83300781 C-61.96792476 49.62960554 -61.96792476 49.62960554 -57.7253418 43.64941406 C-54.04280871 40.47060749 -49.98218293 40.0211937 -45.26977539 39.76782227 C-44.16698242 39.69756836 -43.06418945 39.62731445 -41.92797852 39.55493164 C-39.61052574 39.42276748 -37.29280605 39.29520773 -34.97485352 39.17211914 C-33.87592773 39.10057617 -32.77700195 39.0290332 -31.64477539 38.95532227 C-30.63970947 38.89997314 -29.63464355 38.84462402 -28.59912109 38.78759766 C-25.79778452 38.52195547 -25.79778452 38.52195547 -24.15649414 35.29516602 C-23.85467032 33.00756236 -23.85467032 33.00756236 -23.88305664 30.47094727 C-23.86243164 29.52413086 -23.84180664 28.57731445 -23.82055664 27.60180664 C-23.79477088 25.62532828 -23.77639006 23.6487377 -23.76586914 21.67211914 C-23.6131872 15.39943616 -22.79921891 10.51715307 -19.15649414 5.29516602 C-13.00622095 -0.41580194 -8.13643697 0.04833136 0 0 Z " fill="#1570EF" transform="translate(61.156494140625,-0.295166015625)"/>
<path d="M0 0 C2.475 0.495 2.475 0.495 5 1 C6.24693556 8.50582573 7.25505707 15.94433823 7.75390625 23.5390625 C7.92209337 26.13338156 7.92209337 26.13338156 9 29 C9.12060791 27.84213989 9.12060791 27.84213989 9.24365234 26.66088867 C9.61223718 23.16879708 9.99346273 19.67819915 10.375 16.1875 C10.56449219 14.36508789 10.56449219 14.36508789 10.7578125 12.50585938 C10.88671875 11.34248047 11.015625 10.17910156 11.1484375 8.98046875 C11.26364746 7.90692139 11.37885742 6.83337402 11.49755859 5.72729492 C12 3 12 3 14 0 C15.86328125 0.12890625 15.86328125 0.12890625 18 1 C19.23046875 3.65234375 19.23046875 3.65234375 20.1875 6.9375 C20.51105469 8.01902344 20.83460937 9.10054687 21.16796875 10.21484375 C21.44253906 11.13394531 21.71710938 12.05304687 22 13 C22.495 13.99 22.495 13.99 23 15 C23.77714355 15.02505615 24.55428711 15.0501123 25.35498047 15.07592773 C28.86183069 15.19166796 32.36839745 15.31449352 35.875 15.4375 C37.09832031 15.47681641 38.32164063 15.51613281 39.58203125 15.55664062 C40.74863281 15.59853516 41.91523437 15.64042969 43.1171875 15.68359375 C44.19597168 15.72025146 45.27475586 15.75690918 46.38623047 15.79467773 C49 16 49 16 51 17 C51 17.99 51 18.98 51 20 C46.85076942 20.78579793 42.94706569 21.11854983 38.7265625 21.09765625 C37.57285156 21.09443359 36.41914062 21.09121094 35.23046875 21.08789062 C34.04066406 21.07951172 32.85085937 21.07113281 31.625 21.0625 C30.41199219 21.05798828 29.19898438 21.05347656 27.94921875 21.04882812 C24.96609493 21.03708354 21.98307321 21.0206584 19 21 C17.68373308 17.38026598 17 14.90432869 17 11 C16.34 11 15.68 11 15 11 C15.01804688 12.3089624 15.03609375 13.6179248 15.0546875 14.96655273 C15.05289882 19.5455138 14.67752601 23.99389234 14.125 28.53515625 C13.99182373 29.68134682 13.99182373 29.68134682 13.85595703 30.85069275 C13.57546505 33.25522444 13.28786907 35.65884154 13 38.0625 C12.80681794 39.70762673 12.61410551 41.35280868 12.421875 42.99804688 C11.95333369 46.99935567 11.4784261 50.99986157 11 55 C9.68 55 8.36 55 7 55 C5.3522783 45.95127929 4.27625822 36.90052986 3.375 27.75 C3.23993996 26.40751616 3.10452517 25.06506796 2.96875 23.72265625 C2.64236323 20.48210191 2.31951358 17.24123798 2 14 C1.67 14 1.34 14 1 14 C0.690625 14.969375 0.38125 15.93875 0.0625 16.9375 C-1 20 -1 20 -2 21 C-4.21855264 21.08783542 -6.43988496 21.10694609 -8.66015625 21.09765625 C-9.65685585 21.09553383 -9.65685585 21.09553383 -10.6736908 21.09336853 C-12.80333899 21.08775518 -14.93288339 21.07520054 -17.0625 21.0625 C-18.50325369 21.05748671 -19.94400903 21.05292351 -21.38476562 21.04882812 C-24.92321102 21.03778145 -28.46159539 21.02050792 -32 21 C-32.33 19.68 -32.66 18.36 -33 17 C-29.88856433 15.96285478 -27.50531904 15.79968139 -24.23828125 15.68359375 C-23.12001953 15.64169922 -22.00175781 15.59980469 -20.84960938 15.55664062 C-19.09874023 15.49766602 -19.09874023 15.49766602 -17.3125 15.4375 C-16.13365234 15.39431641 -14.95480469 15.35113281 -13.74023438 15.30664062 C-10.82696374 15.20048906 -7.9134974 15.09973371 -5 15 C-3.35 10.05 -1.7 5.1 0 0 Z " fill="#EDF4FD" transform="translate(55,49)"/>
<path d="M0 0 C7.17297392 0.15593422 11.47265501 3.69995851 17 8 C17.62003906 8.45375 18.24007812 8.9075 18.87890625 9.375 C26.19287437 15.07684058 32.37389071 23.50317626 36 32 C35.1875 34.375 35.1875 34.375 34 36 C31.671875 35.77734375 31.671875 35.77734375 29 35 C27.515625 33.06640625 27.515625 33.06640625 26.25 30.5625 C19.69240363 18.85250648 10.33895524 11.73501774 -1 5 C-0.67 3.35 -0.34 1.7 0 0 Z " fill="#1570EF" transform="translate(91,3)"/>
<path d="M0 0 C2.25390625 0.1484375 2.25390625 0.1484375 5 1 C7.02734375 3.4765625 7.02734375 3.4765625 8.9375 6.625 C14.68767907 15.67323335 20.05199041 21.0675401 29 27 C30.37952864 27.97277597 31.75517111 28.95111206 33.125 29.9375 C34.07375 30.618125 35.0225 31.29875 36 32 C35.67 33.32 35.34 34.64 35 36 C25.93153808 35.79847862 18.77893803 29.92719729 12.375 23.9375 C8.77828919 20.15183156 5.76835324 16.08210907 2.875 11.75 C2.47200684 11.15952881 2.06901367 10.56905762 1.65380859 9.96069336 C-0.1554577 7.11899589 -1.04268639 5.4837791 -0.7421875 2.078125 C-0.49726563 1.39234375 -0.25234375 0.7065625 0 0 Z " fill="#1570EF" transform="translate(2,94)"/>
<path d="M0 0 C0.495 1.485 0.495 1.485 1 3 C-1.35052331 5.5260494 -3.89482254 7.38392516 -6.75 9.3125 C-17.28642352 16.65282408 -23.85122253 24.68624946 -30 36 C-31.65 35.67 -33.3 35.34 -35 35 C-34.79103444 25.59654958 -28.56083957 18.36317858 -22.3125 11.8125 C-7.38148633 -2.43360478 -7.38148633 -2.43360478 0 0 Z " fill="#1570EF" transform="translate(36,4)"/>
<path d="M0 0 C2.475 0.495 2.475 0.495 5 1 C3.53737863 13.08865372 -6.08848885 22.38501217 -15 30 C-24.32861295 37.19704286 -24.32861295 37.19704286 -28.81640625 36.66796875 C-29.89728516 36.33732422 -29.89728516 36.33732422 -31 36 C-30.8828125 33.7734375 -30.8828125 33.7734375 -30 31 C-27.96596073 29.33149822 -26.09217434 27.99322593 -23.875 26.625 C-15.24269612 20.94751896 -9.93640448 15.40195787 -4.578125 6.55078125 C-3.16001307 4.25863499 -1.65319762 2.12625116 0 0 Z " fill="#1570EF" transform="translate(122,93)"/>
<path d="M0 0 C1.32 0.33 2.64 0.66 4 1 C6.28584898 7.55276707 6.60594368 14.10401439 7 21 C5.68 21 4.36 21 3 21 C2.67 19.35 2.34 17.7 2 16 C1.01 18.475 1.01 18.475 0 21 C-0.99 21 -1.98 21 -3 21 C-2.22095672 6.21867882 -2.22095672 6.21867882 0 0 Z " fill="#EEF4FD" transform="translate(62,24)"/>
</svg>
