<?xml version="1.0" standalone="no"?>
<!DOCTYPE svg PUBLIC "-//W3C//DTD SVG 20010904//EN"
 "http://www.w3.org/TR/2001/REC-SVG-20010904/DTD/svg10.dtd">
<svg version="1.0" xmlns="http://www.w3.org/2000/svg"
 width="1020.000000pt" height="744.000000pt" viewBox="0 0 1020.000000 744.000000"
 preserveAspectRatio="xMidYMid meet">

<g transform="translate(0.000000,744.000000) scale(0.100000,-0.100000)"
fill="#000000" stroke="none">
<path d="M4995 6752 c-104 -49 -159 -134 -159 -247 1 -82 17 -126 68 -183 98
-108 285 -113 388 -10 47 48 71 102 76 175 7 105 -35 189 -121 245 -46 29 -61
33 -132 36 -62 2 -89 -2 -120 -16z"/>
<path d="M4345 6071 c-126 -31 -204 -132 -205 -265 0 -115 52 -195 158 -244
44 -20 65 -23 120 -20 78 5 121 23 190 82 39 34 68 48 129 64 190 51 355 53
568 8 203 -44 297 -73 317 -98 26 -34 66 -216 79 -360 14 -152 2 -305 -37
-470 -22 -91 -32 -114 -70 -163 -53 -69 -79 -148 -70 -212 36 -262 370 -332
504 -105 24 41 27 57 27 132 0 82 -1 88 -42 155 -33 56 -49 100 -77 215 -52
216 -59 263 -59 400 -1 199 38 352 110 432 59 67 76 108 76 189 0 105 -53 192
-147 242 -32 17 -58 22 -121 22 -88 0 -126 -14 -182 -67 -39 -38 -116 -63
-268 -90 -166 -28 -419 -22 -577 15 -114 27 -139 39 -205 91 -58 47 -143 65
-218 47z"/>
<path d="M6405 5373 c-70 -25 -117 -64 -149 -124 -72 -132 -28 -290 102 -367
41 -24 57 -27 132 -27 75 0 91 3 132 27 156 92 183 301 56 428 -68 69 -183 95
-273 63z"/>
<path d="M3615 5364 c-172 -61 -231 -290 -111 -430 53 -62 116 -89 206 -89 84
0 131 19 198 79 49 44 63 51 162 77 104 27 310 37 420 20 101 -15 368 -80 402
-97 35 -18 51 -49 77 -154 58 -238 52 -510 -18 -766 -6 -23 -29 -64 -51 -92
-55 -69 -70 -109 -70 -190 0 -156 112 -266 270 -265 217 1 334 232 215 424
-66 106 -135 423 -135 614 0 199 41 355 115 437 46 51 75 122 75 183 0 97 -66
200 -154 241 -98 46 -238 23 -305 -49 -28 -30 -76 -48 -216 -79 -136 -30 -436
-32 -565 -5 -144 31 -183 46 -245 91 -86 65 -180 82 -270 50z"/>
<path d="M4328 4677 c-167 -48 -245 -241 -157 -395 108 -189 387 -173 478 28
23 51 27 145 8 197 -49 132 -195 207 -329 170z"/>
<path d="M2280 2235 l0 -395 -355 0 -355 0 0 -85 0 -85 138 0 c111 0 144 -3
171 -18 40 -20 71 -73 71 -121 l0 -34 -670 5 -670 6 0 -89 0 -89 703 0 c664 0
704 1 737 19 61 32 80 72 80 165 0 45 -4 98 -9 119 l-9 37 179 0 179 0 -2 478
-3 477 -92 3 -93 3 0 -396z"/>
<path d="M2600 2150 l0 -480 645 0 645 0 0 480 0 480 -90 0 -90 0 0 -395 0
-395 -175 0 -175 0 0 185 0 185 -90 0 -90 0 0 -185 0 -185 -200 0 -200 0 0
395 0 395 -90 0 -90 0 0 -480z"/>
<path d="M3047 2624 c-4 -4 -7 -43 -7 -86 l0 -78 95 0 96 0 -3 83 -3 82 -85 3
c-47 1 -89 0 -93 -4z"/>
<path d="M3310 2545 l0 -85 90 0 90 0 0 85 0 85 -90 0 -90 0 0 -85z"/>
<path d="M4070 2150 l0 -480 90 0 90 0 0 480 0 480 -90 0 -90 0 0 -480z"/>
<path d="M6260 2545 l0 -85 90 0 90 0 0 85 0 85 -90 0 -90 0 0 -85z"/>
<path d="M6520 2545 l0 -85 90 0 90 0 0 85 0 85 -90 0 -90 0 0 -85z"/>
<path d="M9050 2235 l0 -395 -110 0 -110 0 0 186 0 185 -217 -3 c-196 -3 -222
-5 -263 -24 -99 -46 -140 -124 -140 -266 l0 -78 -110 0 -110 0 0 185 0 185
-95 0 -95 0 0 -185 0 -185 -67 0 c-38 0 -74 4 -82 9 -12 8 -14 42 -12 185 l2
176 -90 0 -91 0 0 -132 c-1 -192 -25 -238 -124 -238 l-46 0 0 185 0 185 -90 0
-90 0 0 -185 0 -185 -285 0 -285 0 0 185 0 185 -90 0 -90 0 0 -185 0 -185
-110 0 -110 0 0 185 0 185 -193 0 c-214 0 -265 -9 -334 -59 -65 -47 -86 -109
-91 -267 -5 -145 0 -163 51 -194 29 -18 51 -20 215 -20 l183 0 -7 -37 c-21
-119 -69 -142 -306 -143 l-138 0 0 -80 0 -80 185 0 c101 0 206 5 234 11 122
26 190 113 199 255 l5 74 666 2 c655 3 667 3 706 24 l40 21 40 -21 c40 -21 49
-21 838 -24 l797 -2 0 480 0 480 -90 0 -90 0 0 -395z m-3082 -292 l3 -103
-136 0 -136 0 6 48 c18 133 55 163 195 159 l65 -2 3 -102z m2682 2 l0 -105
-130 0 -130 0 0 48 c1 64 30 125 66 140 43 16 63 20 132 21 l62 1 0 -105z"/>
<path d="M9410 2150 l0 -480 90 0 90 0 0 480 0 480 -90 0 -90 0 0 -480z"/>
<path d="M4917 2196 c-112 -30 -163 -107 -179 -271 -13 -136 -6 -183 33 -221
30 -28 33 -29 167 -34 85 -3 146 -10 160 -19 29 -15 61 -84 62 -128 l0 -33
-280 0 -280 0 0 -80 0 -80 311 0 c350 0 360 2 406 72 24 36 25 43 21 140 -7
153 -41 216 -143 264 -43 21 -65 24 -164 24 l-113 0 4 65 c5 74 25 110 79 137
28 15 62 18 197 18 l162 0 0 80 0 80 -197 -1 c-128 0 -215 -5 -246 -13z"/>
<path d="M610 2020 l0 -80 90 0 90 0 0 80 0 80 -90 0 -90 0 0 -80z"/>
<path d="M610 1755 l0 -85 90 0 90 0 0 85 0 85 -90 0 -90 0 0 -85z"/>
<path d="M4070 1415 l0 -85 90 0 90 0 0 85 0 85 -90 0 -90 0 0 -85z"/>
<path d="M4330 1415 l0 -85 90 0 90 0 0 85 0 85 -90 0 -90 0 0 -85z"/>
<path d="M6580 760 l0 -240 -140 0 -140 0 0 160 0 160 -40 0 -40 0 0 -160 0
-160 -335 0 -335 0 0 161 0 161 -152 -4 c-128 -3 -160 -7 -192 -23 -65 -33
-81 -63 -81 -158 0 -45 3 -94 8 -109 l7 -28 -150 0 -150 0 0 160 0 160 -40 0
-40 0 0 -160 0 -160 -365 0 -365 0 0 160 0 160 -40 0 -40 0 0 -160 0 -160
-140 0 -140 0 -2 163 -3 162 -175 0 c-154 0 -180 -3 -215 -20 -64 -32 -85 -73
-85 -169 0 -101 19 -137 88 -169 l47 -22 1843 -3 1842 -2 0 270 0 270 -40 0
-40 0 0 -240 0 -240 -130 0 -130 0 0 240 0 240 -45 0 -45 0 0 -240z m-2990
-105 l0 -135 -110 0 c-167 0 -210 28 -210 137 0 106 43 133 208 133 l112 0 0
-135z m1878 -2 l3 -133 -120 0 -119 0 -16 40 c-26 66 -16 171 20 201 22 18 79
27 159 26 l70 -2 3 -132z"/>
<path d="M3350 940 c0 -28 2 -30 40 -30 38 0 40 2 40 30 0 28 -2 30 -40 30
-38 0 -40 -2 -40 -30z"/>
<path d="M3480 940 c0 -28 2 -30 40 -30 38 0 40 2 40 30 0 28 -2 30 -40 30
-38 0 -40 -2 -40 -30z"/>
<path d="M4760 940 c0 -28 2 -30 40 -30 38 0 40 2 40 30 0 28 -2 30 -40 30
-38 0 -40 -2 -40 -30z"/>
<path d="M5230 940 c0 -28 2 -30 40 -30 38 0 40 2 40 30 0 28 -2 30 -40 30
-38 0 -40 -2 -40 -30z"/>
<path d="M5360 940 c0 -28 2 -30 40 -30 38 0 40 2 40 30 0 28 -2 30 -40 30
-38 0 -40 -2 -40 -30z"/>
<path d="M6150 940 c0 -28 2 -30 40 -30 38 0 40 2 40 30 0 28 -2 30 -40 30
-38 0 -40 -2 -40 -30z"/>
<path d="M6280 940 c0 -28 2 -30 40 -30 38 0 40 2 40 30 0 28 -2 30 -40 30
-38 0 -40 -2 -40 -30z"/>
<path d="M610 670 l0 -30 1175 0 1175 0 0 30 0 30 -1175 0 -1175 0 0 -30z"/>
<path d="M7290 670 l0 -30 1150 0 1150 0 0 30 0 30 -1150 0 -1150 0 0 -30z"/>
<path d="M3880 370 c0 -28 2 -30 40 -30 38 0 40 2 40 30 0 28 -2 30 -40 30
-38 0 -40 -2 -40 -30z"/>
<path d="M4010 370 c0 -28 2 -30 40 -30 38 0 40 2 40 30 0 28 -2 30 -40 30
-38 0 -40 -2 -40 -30z"/>
</g>
</svg>
