<?xml version="1.0" standalone="no"?>
<!DOCTYPE svg PUBLIC "-//W3C//DTD SVG 20010904//EN"
 "http://www.w3.org/TR/2001/REC-SVG-20010904/DTD/svg10.dtd">
<svg version="1.0" xmlns="http://www.w3.org/2000/svg"
 width="32.000000pt" height="32.000000pt" viewBox="0 0 32.000000 32.000000"
 preserveAspectRatio="xMidYMid meet">
<metadata>
Created by potrace 1.10, written by Peter Selinger 2001-2011
</metadata>
<g transform="translate(0.000000,32.000000) scale(0.100000,-0.100000)"
fill="#000000" stroke="none">
<path d="M191 238 c-64 -163 -69 -178 -56 -178 7 0 25 34 41 78 15 42 30 80
33 84 4 4 19 -31 35 -77 19 -55 34 -85 44 -85 9 0 12 6 7 18 -4 9 -21 54 -38
100 -32 83 -50 100 -66 60z"/>
<path d="M20 192 c0 -7 8 -12 18 -10 15 3 17 -6 17 -60 0 -43 4 -62 13 -62 8
0 12 19 12 64 0 50 3 63 14 62 8 0 15 3 15 8 1 5 -19 9 -44 10 -31 1 -45 -3
-45 -12z"/>
</g>
</svg>
