<svg width="960" height="231" viewBox="0 0 960 231" fill="none" xmlns="http://www.w3.org/2000/svg">
<path d="M357.333 168L340.208 143.125L325.583 168H297.708L326.333 122.875L296.708 79.875H325.583L342.208 104.125L356.458 79.875H384.334L356.083 124.25L386.209 168H357.333ZM450.866 122.75C456.032 123.917 460.116 126.5 463.116 130.5C466.199 134.417 467.741 138.917 467.741 144C467.741 151.5 465.157 157.375 459.991 161.625C454.824 165.875 447.574 168 438.241 168H394.616V79.875H436.866C445.866 79.875 452.907 81.875 457.991 85.875C463.157 89.875 465.741 95.5 465.741 102.75C465.741 107.917 464.366 112.25 461.616 115.75C458.949 119.167 455.366 121.5 450.866 122.75ZM419.116 114.875H431.491C437.657 114.875 440.741 112.333 440.741 107.25C440.741 102 437.657 99.375 431.491 99.375H419.116V114.875ZM433.366 148.25C439.532 148.25 442.616 145.667 442.616 140.5C442.616 137.833 441.782 135.792 440.116 134.375C438.532 132.958 436.241 132.25 433.241 132.25H419.116V148.25H433.366ZM511.728 168.875C501.478 168.875 493.061 166.458 486.478 161.625C479.895 156.708 476.353 149.708 475.853 140.625H501.978C502.228 143.708 503.145 145.958 504.728 147.375C506.311 148.792 508.353 149.5 510.853 149.5C513.103 149.5 514.936 148.958 516.353 147.875C517.853 146.708 518.603 145.125 518.603 143.125C518.603 140.542 517.395 138.542 514.978 137.125C512.561 135.708 508.645 134.125 503.228 132.375C497.478 130.458 492.811 128.625 489.228 126.875C485.728 125.042 482.645 122.417 479.978 119C477.395 115.5 476.103 110.958 476.103 105.375C476.103 99.7083 477.52 94.875 480.353 90.875C483.186 86.7917 487.103 83.7083 492.103 81.625C497.103 79.5417 502.77 78.5 509.103 78.5C519.353 78.5 527.52 80.9167 533.603 85.75C539.77 90.5 543.061 97.2083 543.478 105.875H516.853C516.77 103.208 515.936 101.208 514.353 99.875C512.853 98.5417 510.895 97.875 508.478 97.875C506.645 97.875 505.145 98.4167 503.978 99.5C502.811 100.583 502.228 102.125 502.228 104.125C502.228 105.792 502.853 107.25 504.103 108.5C505.436 109.667 507.061 110.708 508.978 111.625C510.895 112.458 513.728 113.542 517.478 114.875C523.061 116.792 527.645 118.708 531.228 120.625C534.895 122.458 538.02 125.083 540.603 128.5C543.27 131.833 544.603 136.083 544.603 141.25C544.603 146.5 543.27 151.208 540.603 155.375C538.02 159.542 534.228 162.833 529.228 165.25C524.311 167.667 518.478 168.875 511.728 168.875ZM597.368 147.125V168H586.743C568.826 168 559.868 159.125 559.868 141.375V118.25H551.243V97.875H559.868V80.875H584.493V97.875H597.243V118.25H584.493V141.75C584.493 143.667 584.909 145.042 585.743 145.875C586.659 146.708 588.159 147.125 590.243 147.125H597.368ZM604.605 132.875C604.605 125.625 605.897 119.292 608.48 113.875C611.147 108.458 614.73 104.292 619.23 101.375C623.813 98.4583 628.897 97 634.48 97C639.313 97 643.48 97.9583 646.98 99.875C650.48 101.792 653.188 104.375 655.105 107.625V97.875H679.605V168H655.105V158.25C653.188 161.5 650.438 164.083 646.855 166C643.355 167.917 639.23 168.875 634.48 168.875C628.897 168.875 623.813 167.417 619.23 164.5C614.73 161.583 611.147 157.417 608.48 152C605.897 146.5 604.605 140.125 604.605 132.875ZM655.105 132.875C655.105 128.375 653.855 124.833 651.355 122.25C648.938 119.667 645.938 118.375 642.355 118.375C638.688 118.375 635.647 119.667 633.23 122.25C630.813 124.75 629.605 128.292 629.605 132.875C629.605 137.375 630.813 140.958 633.23 143.625C635.647 146.208 638.688 147.5 642.355 147.5C645.938 147.5 648.938 146.208 651.355 143.625C653.855 141.042 655.105 137.458 655.105 132.875ZM734.941 147.125V168H724.316C706.399 168 697.441 159.125 697.441 141.375V118.25H688.816V97.875H697.441V80.875H722.066V97.875H734.816V118.25H722.066V141.75C722.066 143.667 722.483 145.042 723.316 145.875C724.233 146.708 725.733 147.125 727.816 147.125H734.941ZM758.553 91.375C754.22 91.375 750.72 90.2083 748.053 87.875C745.47 85.4583 744.178 82.4583 744.178 78.875C744.178 75.2083 745.47 72.1667 748.053 69.75C750.72 67.3333 754.22 66.125 758.553 66.125C762.803 66.125 766.22 67.3333 768.803 69.75C771.47 72.1667 772.803 75.2083 772.803 78.875C772.803 82.4583 771.47 85.4583 768.803 87.875C766.22 90.2083 762.803 91.375 758.553 91.375ZM770.678 97.875V168H746.178V97.875H770.678ZM817.255 168.875C810.255 168.875 803.964 167.417 798.38 164.5C792.88 161.583 788.547 157.417 785.38 152C782.214 146.583 780.63 140.208 780.63 132.875C780.63 125.625 782.214 119.292 785.38 113.875C788.63 108.458 793.005 104.292 798.505 101.375C804.089 98.4583 810.38 97 817.38 97C824.38 97 830.63 98.4583 836.13 101.375C841.714 104.292 846.089 108.458 849.255 113.875C852.505 119.292 854.13 125.625 854.13 132.875C854.13 140.125 852.505 146.5 849.255 152C846.089 157.417 841.714 161.583 836.13 164.5C830.547 167.417 824.255 168.875 817.255 168.875ZM817.255 147.625C820.672 147.625 823.505 146.375 825.755 143.875C828.089 141.292 829.255 137.625 829.255 132.875C829.255 128.125 828.089 124.5 825.755 122C823.505 119.5 820.714 118.25 817.38 118.25C814.047 118.25 811.255 119.5 809.005 122C806.755 124.5 805.63 128.125 805.63 132.875C805.63 137.708 806.714 141.375 808.88 143.875C811.047 146.375 813.839 147.625 817.255 147.625ZM909.973 97.25C918.056 97.25 924.473 99.9583 929.223 105.375C933.973 110.708 936.348 117.958 936.348 127.125V168H911.848V130.375C911.848 126.375 910.806 123.25 908.723 121C906.64 118.667 903.848 117.5 900.348 117.5C896.681 117.5 893.806 118.667 891.723 121C889.64 123.25 888.598 126.375 888.598 130.375V168H864.098V97.875H888.598V107.875C890.765 104.708 893.681 102.167 897.348 100.25C901.015 98.25 905.223 97.25 909.973 97.25Z" fill="white"/>
<path d="M122.5 101.5L247 145.5V230.5L124 187L2 230.5V145.5L122.5 101.5Z" fill="white"/>
<path d="M120.5 0L245 44V129L122 85.5L0 129V44L120.5 0Z" fill="white"/>
</svg>
