<svg width="180" height="40" viewBox="0 0 180 40" fill="none" xmlns="http://www.w3.org/2000/svg">
<path d="M73.6645 14.4904H58.9532L63.2042 0H50.926L46.675 14.4904H31.8823L28.9473 24.8862H43.6314L39.3442 39.5006H51.6224L55.9096 24.8862H70.4581L73.6645 14.4904Z" fill="#006D36"/>
<path d="M91.434 19.5626C86.8379 19.5626 83.6777 16.4021 83.6777 12.1278V12.0851C83.6777 7.97598 86.9412 4.61298 91.4122 4.61298C94.0666 4.61298 95.6711 5.31649 97.2049 6.5956L95.1598 9.00993C94.023 8.08257 93.0114 7.54428 91.3035 7.54428C88.9429 7.54428 87.0663 9.59086 87.0663 12.0478V12.0905C87.0663 14.734 88.9211 16.6739 91.5319 16.6739C92.7122 16.6739 93.7674 16.3861 94.5887 15.8052V13.7426H91.3252V10.9979H97.7325V17.2762C96.215 18.534 94.1318 19.5679 91.434 19.5679V19.5626Z" fill="#006D36"/>
<path d="M108.017 19.5626C103.465 19.5626 100.201 16.2369 100.201 12.1278V12.0851C100.201 7.97598 103.508 4.61298 108.061 4.61298C112.613 4.61298 115.877 7.93867 115.877 12.0478V12.0905C115.877 16.1996 112.57 19.5626 108.017 19.5626ZM112.488 12.0851C112.488 9.60685 110.633 7.54428 108.023 7.54428C105.412 7.54428 103.595 9.56954 103.595 12.0478V12.0905C103.595 14.5687 105.45 16.6313 108.061 16.6313C110.672 16.6313 112.488 14.606 112.488 12.1278V12.0851Z" fill="#006D36"/>
<path d="M124.815 7.78945V19.3121H121.567V7.78945H117.08V4.85815H129.302V7.78945H124.815Z" fill="#006D36"/>
<path d="M141.017 19.3121V13.5082H135.034V19.3121H131.787V4.85815H135.034V10.5769H141.017V4.85815H144.265V19.3121H141.017Z" fill="#006D36"/>
<path d="M158.783 19.3121L157.434 16.0717H151.195L149.846 19.3121H146.539L152.859 4.7569H155.851L162.171 19.3121H158.777H158.783ZM154.312 8.57825L152.354 13.263H156.275L154.317 8.57825H154.312Z" fill="#006D36"/>
<path d="M175.975 19.3121V9.87333L171.825 16.0451H171.738L167.631 9.93196V19.3068H164.449V4.85281H167.947L171.825 10.9659L175.703 4.85281H179.2V19.3068H175.975V19.3121Z" fill="#006D36"/>
<path d="M91.0212 24.3219H85.7724V27.1999H90.4664V28.0687H85.7724V31.0213H91.0811V31.89H84.7988V23.4585H91.0158V24.3273L91.0212 24.3219Z" fill="#1B3D6A"/>
<path d="M93.8232 31.8838H92.877V25.6597H93.8232V26.7414C94.242 26.0647 94.9055 25.5265 95.9986 25.5265C97.5377 25.5265 98.4296 26.5389 98.4296 28.0204V31.8838H97.4833V28.2495C97.4833 27.0932 96.847 26.3684 95.7267 26.3684C94.6064 26.3684 93.8232 27.1518 93.8232 28.3188V31.8838Z" fill="#1B3D6A"/>
<path d="M101.726 30.1099C101.726 30.8667 102.155 31.1439 102.797 31.1439C103.118 31.1439 103.385 31.0853 103.716 30.9254V31.7195C103.385 31.89 103.026 31.986 102.574 31.986C101.552 31.986 100.779 31.4903 100.779 30.2272V26.4698H99.8926V25.649H100.779V23.7677H101.726V25.649H103.744V26.4698H101.726V30.1046V30.1099Z" fill="#1B3D6A"/>
<path d="M108.03 31.2177C108.9 31.2177 109.515 30.866 110.031 30.3384L110.619 30.8553C109.977 31.5534 109.205 32.0224 108.003 32.0224C106.257 32.0224 104.832 30.7115 104.832 28.7717C104.832 26.9652 106.121 25.5211 107.878 25.5211C109.759 25.5211 110.841 26.9919 110.841 28.8197C110.841 28.905 110.841 29.0009 110.831 29.1075H105.789C105.925 30.4557 106.91 31.2124 108.024 31.2124L108.03 31.2177ZM109.884 28.4254C109.786 27.2956 109.123 26.3045 107.856 26.3045C106.752 26.3045 105.914 27.205 105.789 28.4254H109.884Z" fill="#1B3D6A"/>
<path d="M113.446 31.8838H112.5V25.6597H113.446V27.285C113.914 26.2512 114.833 25.5052 116.04 25.5531V26.555H115.964C114.577 26.555 113.446 27.5301 113.446 29.4112V31.8945V31.8838Z" fill="#1B3D6A"/>
<path d="M120.86 32.0179C119.68 32.0179 118.918 31.389 118.429 30.6909V33.8087H117.482V25.6544H118.429V26.9068C118.946 26.1607 119.696 25.5211 120.86 25.5211C122.383 25.5211 123.895 26.699 123.895 28.7615C123.895 30.8241 122.394 32.0126 120.86 32.0126V32.0179ZM120.686 26.3525C119.506 26.3525 118.385 27.3172 118.385 28.7615C118.385 30.2059 119.506 31.1812 120.686 31.1812C121.866 31.1812 122.922 30.2911 122.922 28.7722C122.922 27.2532 121.888 26.3525 120.686 26.3525Z" fill="#1B3D6A"/>
<path d="M126.589 31.8838H125.643V25.6597H126.589V27.285C127.057 26.2512 127.976 25.5052 129.183 25.5531V26.555H129.107C127.72 26.555 126.589 27.5301 126.589 29.4112V31.8945V31.8838Z" fill="#1B3D6A"/>
<path d="M130.641 24.2953V23.272H131.723V24.2953H130.641ZM130.706 31.8847V25.6597H131.652V31.8847H130.706Z" fill="#1B3D6A"/>
<path d="M135.954 32.0011C135.046 32.0011 134.035 31.6494 133.322 31.0845L133.801 30.4237C134.492 30.93 135.253 31.2177 135.998 31.2177C136.743 31.2177 137.314 30.8341 137.314 30.2319V30.2052C137.314 29.5818 136.564 29.3366 135.726 29.1075C134.731 28.8304 133.627 28.4947 133.627 27.349V27.3276C133.627 26.2565 134.535 25.5478 135.791 25.5478C136.564 25.5478 137.428 25.8142 138.075 26.2352L137.646 26.9333C137.058 26.5603 136.379 26.3311 135.764 26.3311C135.014 26.3311 134.535 26.7148 134.535 27.2371V27.2584C134.535 27.8499 135.324 28.079 136.167 28.3295C137.151 28.6172 138.206 28.9903 138.206 30.1093V30.136C138.206 31.3137 137.211 32.0011 135.944 32.0011H135.954Z" fill="#1B3D6A"/>
<path d="M142.77 31.2177C143.64 31.2177 144.255 30.866 144.771 30.3384L145.359 30.8553C144.722 31.5534 143.945 32.0224 142.743 32.0224C140.997 32.0224 139.572 30.7115 139.572 28.7717C139.572 26.9652 140.861 25.5211 142.618 25.5211C144.499 25.5211 145.582 26.9919 145.582 28.8197C145.582 28.905 145.582 29.0009 145.571 29.1075H140.535C140.671 30.4557 141.655 31.2124 142.77 31.2124V31.2177ZM144.63 28.4254C144.532 27.2956 143.869 26.3045 142.601 26.3045C141.497 26.3045 140.66 27.205 140.535 28.4254H144.625H144.63Z" fill="#1B3D6A"/>
<path d="M149.345 32.0011C148.437 32.0011 147.425 31.6494 146.713 31.0845L147.191 30.4237C147.877 30.93 148.644 31.2177 149.389 31.2177C150.134 31.2177 150.705 30.8341 150.705 30.2319V30.2052C150.705 29.5818 149.954 29.3366 149.117 29.1075C148.121 28.8304 147.017 28.4947 147.017 27.349V27.3276C147.017 26.2565 147.926 25.5478 149.182 25.5478C149.954 25.5478 150.819 25.8142 151.466 26.2352L151.036 26.9333C150.449 26.5603 149.769 26.3311 149.155 26.3311C148.404 26.3311 147.926 26.7148 147.926 27.2371V27.2584C147.926 27.8499 148.714 28.079 149.563 28.3295C150.547 28.6172 151.602 28.9903 151.602 30.1093V30.136C151.602 31.3137 150.607 32.0011 149.34 32.0011H149.345Z" fill="#1B3D6A"/>
<path d="M157.211 23.4532H158.185V31.0053H163.025V31.8847H157.211V23.4532Z" fill="#1B3D6A"/>
<path d="M166.849 31.8847H165.865V24.3326H162.977V23.4532H169.737V24.3326H166.849V31.8847Z" fill="#1B3D6A"/>
<path d="M174.539 31.8847H171.553V23.4532H174.539C177.242 23.4532 179.113 25.2707 179.113 27.6583C179.113 30.046 177.248 31.8847 174.539 31.8847ZM174.539 24.3326H172.521V31.0053H174.539C176.715 31.0053 178.102 29.561 178.102 27.6797C178.102 25.7983 176.715 24.3326 174.539 24.3326Z" fill="#1B3D6A"/>
<path d="M19.9798 10.254H42.6369L45.6443 0H20.1562C9.02213 0 0 8.84488 0 19.7503C0 25.2052 2.25666 30.1417 5.90169 33.7133C9.54673 37.285 14.5892 39.4962 20.1562 39.4962H34.1032L34.1349 39.3898H39.3763L42.5058 28.706H27.4779H19.9798C17.384 28.706 15.0233 27.669 13.3184 26.0029C11.6135 24.3323 10.5597 22.028 10.5597 19.4756C10.5597 14.3751 14.7791 10.2496 19.9753 10.2496L19.9798 10.254Z" fill="black"/>
</svg>
