<svg width="512" height="512" viewBox="0 0 512 512" fill="none" xmlns="http://www.w3.org/2000/svg">
  <path d="M110.5 110.5C135.5 85.5 168.5 72 204 68" stroke="#2D70ED" stroke-width="25" stroke-linecap="round"/>
  <path d="M308 68C343.5 72 376.5 85.5 401.5 110.5" stroke="#2D70ED" stroke-width="25" stroke-linecap="round"/>
  <path d="M401.5 401.5C376.5 426.5 343.5 440 308 444" stroke="#2D70ED" stroke-width="25" stroke-linecap="round"/>
  <path d="M204 444C168.5 440 135.5 426.5 110.5 401.5" stroke="#2D70ED" stroke-width="25" stroke-linecap="round"/>

  <path d="M180 80H332C350 80 365 95 365 113V180H432C450 180 465 195 465 213V300C465 318 450 333 432 333H365V400C365 418 350 433 332 433H180C162 433 147 418 147 400V333H80C62 333 47 318 47 300V213C47 195 62 180 80 180H147V113C147 95 162 80 180 80Z" fill="#2D70ED"/>

  <path d="M200 256H230L242 220L256 295L270 245L280 256H312" stroke="white" stroke-width="12" stroke-linecap="round" stroke-linejoin="round"/>
  <path d="M256 160V210" stroke="white" stroke-width="12" stroke-linecap="round"/>
</svg>