{
    "asset" : {
        "generator" : "Khronos glTF Blender I/O v1.6.16",
        "version" : "2.0"
    },
    "extensionsUsed" : [
        "KHR_materials_unlit"
    ],
    "scene" : 0,
    "scenes" : [
        {
            "name" : "Scene",
            "nodes" : [
                0
            ]
        }
    ],
    "nodes" : [
        {
            "mesh" : 0,
            "name" : "Mesh_0.003",
            "rotation" : [
                1,
                0,
                0,
                0
            ],
            "translation" : [
                -331.50616455078125,
                275.6746520996094,
                55.11015701293945
            ]
        }
    ],
    "materials" : [
        {
            "extensions" : {
                "KHR_materials_unlit" : {}
            },
            "name" : "Material_0.003",
            "pbrMetallicRoughness" : {
                "metallicFactor" : 0,
                "roughnessFactor" : 0.9
            }
        }
    ],
    "meshes" : [
        {
            "name" : "Mesh_0.003",
            "primitives" : [
                {
                    "attributes" : {
                        "POSITION" : 0,
                        "NORMAL" : 1,
                        "TEXCOORD_0" : 2
                    },
                    "indices" : 3,
                    "material" : 0
                }
            ]
        }
    ],
    "accessors" : [
        {
            "bufferView" : 0,
            "componentType" : 5126,
            "count" : 2452,
            "max" : [
                504.989501953125,
                459.603759765625,
                401.07049560546875
            ],
            "min" : [
                104.98974609375,
                52.11235046386719,
                -33.84282302856445
            ],
            "type" : "VEC3"
        },
        {
            "bufferView" : 1,
            "componentType" : 5126,
            "count" : 2452,
            "type" : "VEC3"
        },
        {
            "bufferView" : 2,
            "componentType" : 5126,
            "count" : 2452,
            "type" : "VEC2"
        },
        {
            "bufferView" : 3,
            "componentType" : 5123,
            "count" : 5520,
            "type" : "SCALAR"
        }
    ],
    "bufferViews" : [
        {
            "buffer" : 0,
            "byteLength" : 29424,
            "byteOffset" : 0
        },
        {
            "buffer" : 0,
            "byteLength" : 29424,
            "byteOffset" : 29424
        },
        {
            "buffer" : 0,
            "byteLength" : 19616,
            "byteOffset" : 58848
        },
        {
            "buffer" : 0,
            "byteLength" : 11040,
            "byteOffset" : 78464
        }
    ],
    "buffers" : [
        {
            "byteLength" : 89504,
            "uri" : "mask.bin"
        }
    ]
}
