<svg width="40" height="40" viewBox="0 0 40 40" xmlns="http://www.w3.org/2000/svg">
<path d="M0 3C0 1.34315 1.34315 0 3 0H37C38.6569 0 40 1.34315 40 3V37C40 38.6569 38.6569 40 37 40H3C1.34315 40 0 38.6569 0 37V3Z" fill="#818DDB"/>
<path d="M30.9976 20.1427C31.0414 19.399 30.4727 19.1803 30.2539 19.1803H22.3798C21.6799 19.1803 21.5924 19.924 21.5924 19.9677V28.498H30.9976V20.1427ZM25.5732 26.267C25.5732 26.6607 25.267 27.0107 24.8296 27.0107H24.0859C23.6922 27.0107 23.3422 26.6607 23.3422 26.267V25.5233C23.3422 25.1296 23.6484 24.7797 24.0859 24.7797H24.8296C25.2233 24.7797 25.5732 25.1296 25.5732 25.5233V26.267ZM25.5732 22.5487C25.5732 22.9424 25.267 23.2923 24.8296 23.2923H24.0859C23.6922 23.2923 23.3422 22.9424 23.3422 22.5487V21.805C23.3422 21.4113 23.6484 21.0614 24.0859 21.0614H24.8296C25.2233 21.0614 25.5732 21.4113 25.5732 21.805V22.5487ZM29.2041 26.267C29.2041 26.6607 28.8978 27.0107 28.4604 27.0107H27.7167C27.323 27.0107 26.9731 26.6607 26.9731 26.267V25.5233C26.9731 25.1296 27.2793 24.7797 27.7167 24.7797H28.4604C28.8541 24.7797 29.2041 25.1296 29.2041 25.5233V26.267ZM29.2041 22.5487C29.2041 22.9424 28.8978 23.2923 28.4604 23.2923H27.7167C27.323 23.2923 26.9731 22.9424 26.9731 22.5487V21.805C26.9731 21.4113 27.2793 21.0614 27.7167 21.0614H28.4604C28.8541 21.0614 29.2041 21.4113 29.2041 21.805V22.5487Z" fill="white"/>
<path d="M23.7359 16.2057C23.7359 15.8994 23.7359 11.9624 23.7359 11.9624C23.7797 11.2187 23.2547 11 23.036 11H10.7874C10.0875 11 10 11.7437 10 11.7874V28.498H19.4052V17.8242C19.4052 17.8242 19.4052 16.9493 20.1926 16.9493C20.1926 16.9493 22.6423 16.9493 23.036 16.9493C23.4735 16.9493 23.7359 16.5119 23.7359 16.2057ZM13.9808 25.9171C13.9808 26.3108 13.6746 26.6607 13.2371 26.6607H12.5372C12.1435 26.6607 11.7935 26.3108 11.7935 25.9171V25.1734C11.7935 24.7797 12.0998 24.4297 12.5372 24.4297H13.2809C13.6746 24.4297 14.0245 24.7797 14.0245 25.1734V25.9171H13.9808ZM13.9808 22.155C13.9808 22.5487 13.6746 22.8986 13.2371 22.8986H12.5372C12.1435 22.8986 11.7935 22.5487 11.7935 22.155V21.4113C11.7935 21.0176 12.0998 20.6677 12.5372 20.6677H13.2809C13.6746 20.6677 14.0245 21.0176 14.0245 21.4113V22.155H13.9808ZM13.9808 18.4367C13.9808 18.8304 13.6746 19.1803 13.2371 19.1803H12.5372C12.1435 19.1803 11.7935 18.8304 11.7935 18.4367V17.693C11.7935 17.2993 12.0998 16.9493 12.5372 16.9493H13.2809C13.6746 16.9493 14.0245 17.2993 14.0245 17.693V18.4367H13.9808ZM13.9808 14.7183C13.9808 15.112 13.6746 15.462 13.2371 15.462H12.5372C12.1435 15.462 11.7935 15.112 11.7935 14.7183V13.9747C11.7935 13.581 12.0998 13.231 12.5372 13.231H13.2809C13.6746 13.231 14.0245 13.581 14.0245 13.9747V14.7183H13.9808ZM17.9616 25.9171C17.9616 26.3108 17.6554 26.6607 17.2179 26.6607H16.4743C16.0806 26.6607 15.7306 26.3108 15.7306 25.9171V25.1734C15.7306 24.7797 16.0368 24.4297 16.4743 24.4297H17.2179C17.6116 24.4297 17.9616 24.7797 17.9616 25.1734V25.9171ZM17.9616 22.155C17.9616 22.5487 17.6554 22.8986 17.2179 22.8986H16.4743C16.0806 22.8986 15.7306 22.5487 15.7306 22.155V21.4113C15.7306 21.0176 16.0368 20.6677 16.4743 20.6677H17.2179C17.6116 20.6677 17.9616 21.0176 17.9616 21.4113V22.155ZM17.9616 18.4367C17.9616 18.8304 17.6554 19.1803 17.2179 19.1803H16.4743C16.0806 19.1803 15.7306 18.8304 15.7306 18.4367V17.693C15.7306 17.2993 16.0368 16.9493 16.4743 16.9493H17.2179C17.6116 16.9493 17.9616 17.2993 17.9616 17.693V18.4367ZM17.9616 14.7183C17.9616 15.112 17.6554 15.462 17.2179 15.462H16.4743C16.0806 15.462 15.7306 15.112 15.7306 14.7183V13.9747C15.7306 13.581 16.0368 13.231 16.4743 13.231H17.2179C17.6116 13.231 17.9616 13.581 17.9616 13.9747V14.7183ZM21.9424 14.7183C21.9424 15.112 21.6362 15.462 21.1987 15.462H20.4988C20.1051 15.462 19.7551 15.112 19.7551 14.7183V13.9747C19.7551 13.581 20.0614 13.231 20.4988 13.231H21.2425C21.6362 13.231 21.9861 13.581 21.9861 13.9747V14.7183H21.9424Z" fill="white"/>
</svg>
