<!-- Generated by IcoMoon.io -->
<svg version="1.1" xmlns="http://www.w3.org/2000/svg" width="32" height="32" viewBox="0 0 32 32">
<title>AUD</title>
<path d="M16 32c-8.837 0-16-7.163-16-16s7.163-16 16-16c8.837 0 16 7.163 16 16s-7.163 16-16 16zM9.633 19.897h1.788l-2.74-7.891h-1.941l-2.74 7.891h1.657l0.607-1.881h2.773l0.596 1.881zM14.434 12.005h-1.652v5.168c0 1.75 1.285 2.926 3.303 2.926 2.023 0 3.309-1.176 3.309-2.926v-5.168h-1.652v4.998c0 0.995-0.596 1.63-1.657 1.63-1.055 0-1.652-0.634-1.652-1.63v-4.998zM21.32 12v7.897h3.106c2.363 0 3.702-1.438 3.702-4.003 0-2.472-1.356-3.894-3.702-3.894h-3.106zM22.971 13.411v5.075h1.192c1.46 0 2.28-0.897 2.28-2.565 0-1.597-0.848-2.51-2.28-2.51h-1.192zM7.609 13.646l-0.99 3.095h2.067l-0.979-3.095h-0.098z"></path>
</svg>
