<?xml version="1.0" encoding="UTF-8" standalone="no"?> <svg id="Layer_1" enable-background="new 0 0 512.001 512.001" height="512" viewBox="0 0 512.001 512.001" width="512" xmlns="http://www.w3.org/2000/svg"><g><g><path d="m397.188 401.995h-46.176v-30h46.176c12.949 0 23.484-10.535 23.484-23.484v-104.005c0-12.949-10.535-23.483-23.484-23.483h-46.176v-30h46.176c29.491 0 53.484 23.992 53.484 53.483v104.005c-.001 29.491-23.993 53.484-53.484 53.484z" fill="#fff16b"/></g><g><path d="m397.188 401.995h-46.176v-30h46.176c12.949 0 23.484-10.535 23.484-23.484v-104.005c0-12.949-10.535-23.483-23.484-23.483h-46.176v-30h46.176c29.491 0 53.484 23.992 53.484 53.483v104.005c-.001 29.491-23.993 53.484-53.484 53.484z" fill="#ffd321"/></g><path d="m81.331 141.02h284.68v315.979h-284.68z" fill="#ffd321"/><path d="m223.671 141.02h142.34v315.979h-142.34z" fill="#ffaf00"/><path d="m298.675 436.999v-110.342h-30v110.342h-30.004v-110.342h-30v110.342h-30.004v-110.342h-30v110.342h-67.336v75.002h284.68v-75.002z" fill="#fff16b"/><path d="m349.139 74.181c-2.749-18.337-11.244-35.255-24.598-48.609-16.489-16.491-38.414-25.572-61.735-25.572-24.991 0-48.178 10.372-64.716 28.703h-4.395c-27.131 0-50.016 18.533-56.659 43.604h-17.102c-32.315 0-58.605 26.29-58.605 58.604v76.63c0 26.304 21.4 47.704 47.704 47.704s47.704-21.399 47.704-47.703v-32.961h178.758c27.856 0 50.518-22.662 50.518-50.518v-1.239c0-23.126-15.625-42.674-36.874-48.643z" fill="#fff9e4"/><path d="m349.139 74.181c-2.749-18.337-11.244-35.255-24.598-48.609-16.489-16.491-38.414-25.572-61.735-25.572-13.879 0-27.199 3.203-39.135 9.188v165.394h111.823c27.856 0 50.518-22.662 50.518-50.518v-1.239c.001-23.127-15.624-42.675-36.873-48.644z" fill="#fff4cb"/><path d="m223.671 512.001h142.34v-75.002h-67.336v-110.342h-30v110.342h-30.004v-110.342h-15z" fill="#ffd321"/></g></svg>