<svg width="24" height="24" viewBox="0 0 24 24" fill="none" xmlns="http://www.w3.org/2000/svg">
    <path fill-rule="evenodd" clip-rule="evenodd" d="M12 1.5C11.5858 1.5 11.25 1.83579 11.25 2.25V3C11.25 3.01239 11.2503 3.0247 11.2509 3.03694C7.46047 3.41282 4.5 6.61068 4.5 10.5V12.0949C4.5 12.9852 4.10453 13.8296 3.42055 14.3995L3.07702 14.6858C2.55299 15.1225 2.25 15.7694 2.25 16.4515C2.25 17.7209 3.27906 18.75 4.54846 18.75H8.25C8.25 20.8211 9.92893 22.5 12 22.5C14.0711 22.5 15.75 20.8211 15.75 18.75H19.3635C20.6815 18.75 21.75 17.6815 21.75 16.3635C21.75 15.7306 21.4986 15.1236 21.051 14.676L20.3787 14.0037C19.8161 13.4411 19.5 12.678 19.5 11.8824V10.5C19.5 6.61068 16.5395 3.41282 12.7491 3.03694C12.7497 3.0247 12.75 3.01239 12.75 3V2.25C12.75 1.83579 12.4142 1.5 12 1.5ZM18 10.5C18 7.18629 15.3137 4.5 12 4.5C8.68629 4.5 6 7.18629 6 10.5V12.7974C6 13.6878 5.60453 14.5321 4.92055 15.1021L4.0373 15.8381C3.85526 15.9898 3.75 16.2146 3.75 16.4515C3.75 16.8925 4.10748 17.25 4.54846 17.25H19.3635C19.8531 17.25 20.25 16.8531 20.25 16.3635C20.25 16.1284 20.1566 15.9029 19.9904 15.7367L18.8787 14.625C18.3161 14.0624 18 13.2993 18 12.5037V10.5ZM14.25 18.75H9.75C9.75 19.9926 10.7574 21 12 21C13.2426 21 14.25 19.9926 14.25 18.75Z" fill="white"/>
</svg>
