<svg width="46" height="24" viewBox="0 0 46 24" fill="none"
    xmlns="http://www.w3.org/2000/svg">
    <g filter="url(#filter0_d_2073_496)">
        <mask id="path-1-inside-1_2073_496" fill="white">
            <path d="M2 11C2 5.47715 6.47715 1 12 1H34C39.5228 1 44 5.47715 44 11C44 16.5228 39.5228 21 34 21H12C6.47715 21 2 16.5228 2 11Z"/>
        </mask>
        <path d="M2 11C2 5.47715 6.47715 1 12 1H34C39.5228 1 44 5.47715 44 11C44 16.5228 39.5228 21 34 21H12C6.47715 21 2 16.5228 2 11Z" fill="#FF9500" fill-opacity="0.75" shape-rendering="crispEdges"/>
        <path d="M2 11C2 4.92487 6.92487 0 13 0H33C39.0751 0 44 4.92487 44 11C44 6.02944 39.5228 2 34 2H12C6.47715 2 2 6.02944 2 11ZM44 21H2H44ZM2 21V1V21ZM44 1V21V1Z" fill="white" fill-opacity="0.2" mask="url(#path-1-inside-1_2073_496)"/>
        <path d="M11.9329 15V13.9H13.7929C14.1262 13.9 14.3762 13.81 14.5429 13.63C14.7162 13.4433 14.8029 13.1867 14.8029 12.86C14.8029 12.5267 14.7095 12.2633 14.5229 12.07C14.3429 11.8767 14.0829 11.78 13.7429 11.78H11.9329V10.68H13.6629C13.9762 10.68 14.2129 10.6067 14.3729 10.46C14.5395 10.3067 14.6229 10.0833 14.6229 9.79C14.6229 9.49667 14.5429 9.27667 14.3829 9.13C14.2295 8.97667 13.9995 8.9 13.6929 8.9H11.9329V7.8H14.0229C14.6629 7.8 15.1795 7.96333 15.5729 8.29C15.9662 8.61667 16.1629 9.06 16.1629 9.62C16.1629 9.97333 16.0795 10.2767 15.9129 10.53C15.7462 10.7833 15.5229 10.9767 15.2429 11.11C14.9629 11.2433 14.6495 11.31 14.3029 11.31L14.3529 11.1C14.7262 11.1 15.0629 11.18 15.3629 11.34C15.6695 11.5 15.9129 11.7267 16.0929 12.02C16.2729 12.3067 16.3629 12.6467 16.3629 13.04C16.3629 13.4333 16.2695 13.78 16.0829 14.08C15.9029 14.3733 15.6462 14.6 15.3129 14.76C14.9862 14.92 14.5995 15 14.1529 15H11.9329ZM10.6729 15V7.8H12.2129V15H10.6729ZM17.167 15V7.8H18.707V15H17.167ZM17.887 15V13.82H22.527V15H17.887ZM17.887 11.9V10.74H22.177V11.9H17.887ZM17.887 8.98V7.8H22.407V8.98H17.887ZM25.4875 15V8.98H23.1375V7.8H29.3775V8.98H27.0275V15H25.4875ZM28.7039 15L31.2839 7.8H32.6039L30.2339 15H28.7039ZM33.9839 15L31.6239 7.8H33.0039L35.5839 15H33.9839ZM30.0639 12.21H34.1039V13.41H30.0639V12.21Z" fill="white"/>
    </g>
    <defs>
        <filter id="filter0_d_2073_496" x="0" y="0" width="46" height="24" filterUnits="userSpaceOnUse" color-interpolation-filters="sRGB">
            <feFlood flood-opacity="0" result="BackgroundImageFix"/>
            <feColorMatrix in="SourceAlpha" type="matrix" values="0 0 0 0 0 0 0 0 0 0 0 0 0 0 0 0 0 0 127 0" result="hardAlpha"/>
            <feOffset dy="1"/>
            <feGaussianBlur stdDeviation="1"/>
            <feComposite in2="hardAlpha" operator="out"/>
            <feColorMatrix type="matrix" values="0 0 0 0 0 0 0 0 0 0 0 0 0 0 0 0 0 0 0.05 0"/>
            <feBlend mode="normal" in2="BackgroundImageFix" result="effect1_dropShadow_2073_496"/>
            <feBlend mode="normal" in="SourceGraphic" in2="effect1_dropShadow_2073_496" result="shape"/>
        </filter>
    </defs>
</svg>
