<svg width="24" height="24" viewBox="0 0 24 24" xmlns="http://www.w3.org/2000/svg">
    <path fill-rule="evenodd" clip-rule="evenodd" d="M12.7782 1.23866C12.5383 1.0034 12.1807 0.935007 11.8709 1.06513C11.561 1.19525 11.3595 1.4985 11.3595 1.83453V5.85805C11.3595 5.8708 11.3598 5.88349 11.3604 5.8961V10.2971L7.41839 6.43668C7.08911 6.11421 6.56076 6.11973 6.23829 6.44902C5.91582 6.7783 5.92134 7.30665 6.25062 7.62912L10.8017 12.0861L6.25058 16.5436C5.92132 16.8661 5.91583 17.3944 6.23832 17.7237C6.56081 18.053 7.08916 18.0584 7.41843 17.736L11.3604 13.8751V14.962C11.3598 14.9746 11.3595 14.9873 11.3595 15V22.3381C11.3595 22.6742 11.5611 22.9775 11.8709 23.1076C12.1808 23.2377 12.5384 23.1692 12.7783 22.9339L17.9091 17.9019C18.0692 17.7449 18.1594 17.5301 18.1593 17.3058C18.1592 17.0816 18.0689 16.8668 17.9087 16.7099L13.187 12.086L17.9087 7.46141C18.0689 7.3045 18.1592 7.08971 18.1593 6.86546C18.1593 6.6412 18.0691 6.42637 17.909 6.26936L12.7782 1.23866ZM13.0254 9.90814L16.1325 6.86491L13.0285 3.82147V5.85805C13.0285 5.88267 13.0274 5.90705 13.0254 5.93113V9.90814ZM13.0254 14.9269V14.2637L16.1325 17.3066L13.0285 20.3508V15C13.0285 14.9754 13.0274 14.951 13.0254 14.9269Z" />
</svg>
