<svg width="22" height="22" viewBox="0 0 22 22" fill="none" xmlns="http://www.w3.org/2000/svg">
<path fill-rule="evenodd" clip-rule="evenodd" d="M8.25 4.58333C8.75626 4.58333 9.16667 4.17293 9.16667 3.66667C9.16667 3.16041 8.75626 2.75 8.25 2.75C7.74374 2.75 7.33333 3.16041 7.33333 3.66667C7.33333 4.17293 7.74374 4.58333 8.25 4.58333ZM8.25 10.0833C9.26252 10.0833 10.0833 9.26252 10.0833 8.25C10.0833 7.23748 9.26252 6.41667 8.25 6.41667C7.23748 6.41667 6.41667 7.23748 6.41667 8.25C6.41667 9.26252 7.23748 10.0833 8.25 10.0833ZM13.75 10.0833C14.7625 10.0833 15.5833 9.26252 15.5833 8.25C15.5833 7.23748 14.7625 6.41667 13.75 6.41667C12.7375 6.41667 11.9167 7.23748 11.9167 8.25C11.9167 9.26252 12.7375 10.0833 13.75 10.0833ZM10.0833 13.75C10.0833 14.7625 9.26252 15.5833 8.25 15.5833C7.23748 15.5833 6.41667 14.7625 6.41667 13.75C6.41667 12.7375 7.23748 11.9167 8.25 11.9167C9.26252 11.9167 10.0833 12.7375 10.0833 13.75ZM8.25 19.25C8.75626 19.25 9.16667 18.8396 9.16667 18.3333C9.16667 17.8271 8.75626 17.4167 8.25 17.4167C7.74374 17.4167 7.33333 17.8271 7.33333 18.3333C7.33333 18.8396 7.74374 19.25 8.25 19.25ZM14.6667 18.3333C14.6667 18.8396 14.2563 19.25 13.75 19.25C13.2437 19.25 12.8333 18.8396 12.8333 18.3333C12.8333 17.8271 13.2437 17.4167 13.75 17.4167C14.2563 17.4167 14.6667 17.8271 14.6667 18.3333ZM3.66667 14.6667C4.17293 14.6667 4.58333 14.2563 4.58333 13.75C4.58333 13.2437 4.17293 12.8333 3.66667 12.8333C3.16041 12.8333 2.75 13.2437 2.75 13.75C2.75 14.2563 3.16041 14.6667 3.66667 14.6667ZM4.58333 8.25C4.58333 8.75626 4.17293 9.16667 3.66667 9.16667C3.16041 9.16667 2.75 8.75626 2.75 8.25C2.75 7.74374 3.16041 7.33333 3.66667 7.33333C4.17293 7.33333 4.58333 7.74374 4.58333 8.25ZM18.3333 14.6667C18.8396 14.6667 19.25 14.2563 19.25 13.75C19.25 13.2437 18.8396 12.8333 18.3333 12.8333C17.8271 12.8333 17.4167 13.2437 17.4167 13.75C17.4167 14.2563 17.8271 14.6667 18.3333 14.6667ZM19.25 8.25C19.25 8.75626 18.8396 9.16667 18.3333 9.16667C17.8271 9.16667 17.4167 8.75626 17.4167 8.25C17.4167 7.74374 17.8271 7.33333 18.3333 7.33333C18.8396 7.33333 19.25 7.74374 19.25 8.25ZM14.6667 3.66667C14.6667 4.17293 14.2563 4.58333 13.75 4.58333C13.2437 4.58333 12.8333 4.17293 12.8333 3.66667C12.8333 3.16041 13.2437 2.75 13.75 2.75C14.2563 2.75 14.6667 3.16041 14.6667 3.66667ZM13.75 15.5833C14.7625 15.5833 15.5833 14.7625 15.5833 13.75C15.5833 12.7375 14.7625 11.9167 13.75 11.9167C12.7375 11.9167 11.9167 12.7375 11.9167 13.75C11.9167 14.7625 12.7375 15.5833 13.75 15.5833Z" fill="white"/>
</svg>
