<?xml version="1.0" encoding="UTF-8" standalone="no"?> <svg xmlns="http://www.w3.org/2000/svg" width="24" height="24" viewBox="0 0 24 24">
  <path fill-rule="evenodd" d="M17,2 C18.6568542,2 20,3.34314575 20,5 L20,21 C20,21.8543532 18.9978819,22.3152623 18.3492086,21.7592566 L12,16.3170778 L5.65079137,21.7592566 C5.00211805,22.3152623 4,21.8543532 4,21 L4,5 C4,3.34314575 5.34314575,2 7,2 L17,2 Z M17,4 L7,4 C6.44771525,4 6,4.44771525 6,5 L6,18.8257794 L11.3492086,14.2407434 C11.7236984,13.9197522 12.2763016,13.9197522 12.6507914,14.2407434 L18,18.8257794 L18,5 C18,4.44771525 17.5522847,4 17,4 Z M12,6 C12.5522847,6 13,6.44771525 13,7 L13,8 L14,8 C14.5522847,8 15,8.44771525 15,9 C15,9.55228475 14.5522847,10 14,10 L13,10 L13,11 C13,11.5522847 12.5522847,12 12,12 C11.4477153,12 11,11.5522847 11,11 L11,10 L10,10 C9.44771525,10 9,9.55228475 9,9 C9,8.44771525 9.44771525,8 10,8 L11,8 L11,7 C11,6.44771525 11.4477153,6 12,6 Z"/>
</svg>
