<svg width="24" height="24" viewBox="0 0 24 24" xmlns="http://www.w3.org/2000/svg">
    <path fill-rule="evenodd" clip-rule="evenodd" d="M7.5 3C7.91421 3 8.25 3.33579 8.25 3.75V4.5H15.75V3.75C15.75 3.33579 16.0858 3 16.5 3C16.9142 3 17.25 3.33579 17.25 3.75V4.5H18C19.6569 4.5 21 5.84315 21 7.5V18C21 19.6569 19.6569 21 18 21H6C4.34315 21 3 19.6569 3 18V7.5C3 5.84315 4.34315 4.5 6 4.5H6.75V3.75C6.75 3.33579 7.08579 3 7.5 3ZM15.75 6V6.75C15.75 7.16421 16.0858 7.5 16.5 7.5C16.9142 7.5 17.25 7.16421 17.25 6.75V6H18C18.8284 6 19.5 6.67157 19.5 7.5V9H4.5V7.5C4.5 6.67157 5.17157 6 6 6H6.75V6.75C6.75 7.16421 7.08579 7.5 7.5 7.5C7.91421 7.5 8.25 7.16421 8.25 6.75V6H15.75ZM4.5 10.5V18C4.5 18.8284 5.17157 19.5 6 19.5H18C18.8284 19.5 19.5 18.8284 19.5 18V10.5H4.5Z" />
</svg>
