<svg width="20" height="20" viewBox="0 0 20 20" fill="none" xmlns="http://www.w3.org/2000/svg">
<path fill-rule="evenodd" clip-rule="evenodd" d="M4.99996 2.50002C4.99996 2.03978 5.37306 1.66669 5.83329 1.66669C6.29353 1.66669 6.66663 2.03978 6.66663 2.50002V3.33335H13.3333V2.50002C13.3333 2.03978 13.7064 1.66669 14.1666 1.66669C14.6269 1.66669 15 2.03978 15 2.50002V3.33335H16.6666C17.5871 3.33335 18.3333 4.07955 18.3333 5.00002V16.6667C18.3333 17.5872 17.5871 18.3334 16.6666 18.3334H3.33329C2.41282 18.3334 1.66663 17.5872 1.66663 16.6667V5.00002C1.66663 4.07955 2.41282 3.33335 3.33329 3.33335H4.99996V2.50002ZM3.33329 16.6667V5.00002H16.6666V16.6667H3.33329ZM9.99996 6.66669C9.53972 6.66669 9.16663 7.03978 9.16663 7.50002V10H6.66662C6.20639 10 5.83329 10.3731 5.83329 10.8334C5.83329 11.2936 6.20639 11.6667 6.66662 11.6667H9.16663V14.1667C9.16663 14.6269 9.53972 15 9.99996 15C10.4602 15 10.8333 14.6269 10.8333 14.1667V11.6667H13.3333C13.7935 11.6667 14.1666 11.2936 14.1666 10.8334C14.1666 10.3731 13.7935 10 13.3333 10H10.8333V7.50002C10.8333 7.03978 10.4602 6.66669 9.99996 6.66669Z" fill="#0163FF"/>
</svg>
