<svg width="22" height="22" viewBox="0 0 22 22" fill="none" xmlns="http://www.w3.org/2000/svg">
<path fill-rule="evenodd" clip-rule="evenodd" d="M11 20.1666C5.93743 20.1666 1.83337 16.0626 1.83337 11C1.83337 5.93737 5.93743 1.83331 11 1.83331C16.0627 1.83331 20.1667 5.93737 20.1667 11C20.1667 16.0626 16.0627 20.1666 11 20.1666ZM11 18.3333C15.0501 18.3333 18.3334 15.0501 18.3334 11C18.3334 6.94989 15.0501 3.66665 11 3.66665C6.94995 3.66665 3.66671 6.94989 3.66671 11C3.66671 15.0501 6.94995 18.3333 11 18.3333ZM15.5834 11C15.5834 13.5313 13.5313 15.5833 11 15.5833C8.46874 15.5833 6.41671 13.5313 6.41671 11C6.41671 8.46867 8.46874 6.41665 11 6.41665C13.5313 6.41665 15.5834 8.46867 15.5834 11Z" />
</svg>
