<?xml version="1.0" encoding="UTF-8" standalone="no"?>
<svg
   width="22"
   height="22"
   viewBox="0 0 22 22"
   version="1.1"
   id="svg11537"
   sodipodi:docname="camera-empty-disabled.svg"
   inkscape:version="1.1.1 (c3084ef, 2021-09-22)"
   xmlns:inkscape="http://www.inkscape.org/namespaces/inkscape"
   xmlns:sodipodi="http://sodipodi.sourceforge.net/DTD/sodipodi-0.dtd"
   xmlns="http://www.w3.org/2000/svg"
   xmlns:svg="http://www.w3.org/2000/svg">
  <defs
     id="defs11541" />
  <sodipodi:namedview
     id="namedview11539"
     pagecolor="#ffffff"
     bordercolor="#666666"
     borderopacity="1.0"
     inkscape:pageshadow="2"
     inkscape:pageopacity="0.0"
     inkscape:pagecheckerboard="0"
     showgrid="false"
     inkscape:zoom="15.974185"
     inkscape:cx="27.325338"
     inkscape:cy="12.739304"
     inkscape:window-width="1280"
     inkscape:window-height="725"
     inkscape:window-x="17"
     inkscape:window-y="24"
     inkscape:window-maximized="0"
     inkscape:current-layer="svg11537" />
  <path
     fill-rule="evenodd"
     clip-rule="evenodd"
     d="M 7.5456162,3.6344101 H 7.5250225 L 4.5021955,0.63476827 C 4.1780043,0.31305387 3.652463,0.31297433 3.3283787,0.63458265 3.0042856,0.95618209 3.0043656,1.4776941 3.3285657,1.7993996 L 5.1777452,3.6344101 H 4.7183764 c -0.9018939,0 -1.6330164,0.7255168 -1.6330164,1.6204869 v 6.481975 c 0,0.894952 0.7311225,1.62046 1.6330164,1.62046 h 8.9815456 c 0.359856,0 0.692456,-0.115438 0.962347,-0.311134 l 3.33633,3.310838 c 0.324227,0.321652 0.849759,0.321741 1.173897,1.76e-4 0.324049,-0.321652 0.32396,-0.843155 -2.68e-4,-1.164896 l -3.839326,-3.80989 v -0.02042 l -1.63298,-1.62046 v 0.02042 L 9.1580299,5.254897 h 0.020594 z m 6.1543058,3.777857 V 6.8753929 5.254897 H 11.52591 L 9.8928846,3.6344101 h 3.8070374 c 0.901867,0 1.63298,0.7255168 1.63298,1.6204869 v 0.6945008 l 2.860946,-1.6222814 c 0.391566,-0.2220189 0.890287,-0.087029 1.11404,0.3014996 0.07046,0.1224207 0.1076,0.2609902 0.1076,0.4019905 v 6.9305115 c 0,0.304063 -0.168794,0.569057 -0.418467,0.707653 L 15.669689,9.3668609 17.782418,10.564993 V 6.4268029 L 15.332902,7.8157867 V 9.0327452 Z M 4.7183764,5.254897 h 2.0923852 l 6.5320654,6.481975 H 4.7183764 Z"
     id="path11535"
     style="stroke-width:0.887312" />
  <text
     xml:space="preserve"
     style="font-style:normal;font-weight:normal;font-size:8px;line-height:1.25;font-family:sans-serif;fill:#000000;fill-opacity:1;stroke:none"
     x="-0.012276249"
     y="21.763206"
     id="text5788"><tspan
       sodipodi:role="line"
       id="tspan5786"
       x="-0.012276249"
       y="21.763206"
       style="font-size:8px">Video</tspan></text>
</svg>
