<?xml version="1.0" encoding="UTF-8" standalone="no"?>
<svg
   width="40"
   height="40"
   viewBox="0 0 40 40"
   version="1.1"
   id="svg11537"
   sodipodi:docname="camera-empty-disabled.svg"
   inkscape:version="1.1.1 (c3084ef, 2021-09-22)"
   xmlns:inkscape="http://www.inkscape.org/namespaces/inkscape"
   xmlns:sodipodi="http://sodipodi.sourceforge.net/DTD/sodipodi-0.dtd"
   xmlns="http://www.w3.org/2000/svg"
   xmlns:svg="http://www.w3.org/2000/svg">
  <defs
     id="defs11541" />
  <sodipodi:namedview
     id="namedview11539"
     pagecolor="#ffffff"
     bordercolor="#666666"
     borderopacity="1.0"
     inkscape:pageshadow="2"
     inkscape:pageopacity="0.0"
     inkscape:pagecheckerboard="0"
     showgrid="false"
     inkscape:zoom="11.295455"
     inkscape:cx="27.311871"
     inkscape:cy="19.78672"
     inkscape:window-width="1280"
     inkscape:window-height="725"
     inkscape:window-x="0"
     inkscape:window-y="23"
     inkscape:window-maximized="0"
     inkscape:current-layer="svg11537"
     width="40px" />
  <path
     fill-rule="evenodd"
     clip-rule="evenodd"
     d="m 13.699152,5.5289777 h -0.03511 L 8.510805,0.69390805 C 7.9581323,0.17534235 7.0622029,0.17521415 6.5097123,0.69360885 5.9572068,1.2119893 5.9573432,2.0526052 6.5100311,2.5711566 L 9.6624649,5.5289777 H 8.8793447 c -1.5375255,0 -2.7839243,1.1694478 -2.7839243,2.6120343 v 10.448182 c 0,1.442557 1.2463988,2.61199 2.7839243,2.61199 H 24.190855 c 0.613472,0 1.18048,-0.186072 1.640584,-0.501511 l 5.687689,5.336681 c 0.552734,0.518465 1.448647,0.518609 2.00123,2.84e-4 0.55243,-0.518465 0.552278,-1.359066 -4.57e-4,-1.877675 l -6.545184,-6.141094 v -0.03292 L 24.190855,15.37296 v 0.03292 L 16.447953,8.141012 h 0.03511 z M 24.190855,11.618439 V 10.753061 8.141012 h -3.7062 L 17.700714,5.5289777 h 6.490141 c 1.537479,0 2.783862,1.1694478 2.783862,2.6120343 v 1.1194537 l 4.877267,-2.614927 c 0.667532,-0.3578683 1.517738,-0.1402804 1.899186,0.485982 0.120119,0.1973277 0.183434,0.4206855 0.183434,0.6479613 v 11.17117 c 0,0.490114 -0.287755,0.917253 -0.713392,1.140653 l -5.67235,-5.32229 3.601727,1.931248 v -6.670276 l -4.175872,2.238878 v 1.961594 z M 8.8793447,8.141012 H 12.44639 L 23.582088,18.589194 H 8.8793447 Z"
     id="path11535"
     style="stroke-width:1.47088" />
  <text
     xml:space="preserve"
     style="font-style:normal;font-weight:normal;font-size:10.6667px;line-height:1.25;font-family:sans-serif;fill:#000000;fill-opacity:1;stroke:none"
     x="0.51891088"
     y="39.646507"
     id="text5788"><tspan
       sodipodi:role="line"
       id="tspan5786"
       x="0.51891088"
       y="39.646507"
       style="font-style:normal;font-variant:normal;font-weight:bold;font-stretch:normal;font-size:10.6667px;font-family:sans-serif;-inkscape-font-specification:'sans-serif Bold'">VIDEO</tspan></text>
</svg>
