<?xml version="1.0" encoding="UTF-8" standalone="no"?>
<svg
   width="22"
   height="22"
   viewBox="0 0 22 22"
   version="1.1"
   id="svg11537"
   sodipodi:docname="camera-empty-disabled.svg"
   inkscape:version="1.1.1 (c3084ef, 2021-09-22)"
   xmlns:inkscape="http://www.inkscape.org/namespaces/inkscape"
   xmlns:sodipodi="http://sodipodi.sourceforge.net/DTD/sodipodi-0.dtd"
   xmlns="http://www.w3.org/2000/svg"
   xmlns:svg="http://www.w3.org/2000/svg">
  <defs
     id="defs11541" />
  <sodipodi:namedview
     id="namedview11539"
     pagecolor="#ffffff"
     bordercolor="#666666"
     borderopacity="1.0"
     inkscape:pageshadow="2"
     inkscape:pageopacity="0.0"
     inkscape:pagecheckerboard="0"
     showgrid="false"
     inkscape:zoom="15.974185"
     inkscape:cx="21.816449"
     inkscape:cy="10.986476"
     inkscape:window-width="1280"
     inkscape:window-height="725"
     inkscape:window-x="90"
     inkscape:window-y="23"
     inkscape:window-maximized="0"
     inkscape:current-layer="svg11537" />
  <path
     fill-rule="evenodd"
     clip-rule="evenodd"
     d="M6.84074 5.49992H6.81762L3.42398 2.10629C3.06002 1.74232 2.47001 1.74223 2.10617 2.10608C1.74232 2.46992 1.74241 3.05993 2.10638 3.42389L4.1824 5.49992H3.66668C2.65415 5.49992 1.83334 6.32073 1.83334 7.33325V14.6666C1.83334 15.6791 2.65415 16.4999 3.66668 16.4999H13.75C14.154 16.4999 14.5274 16.3693 14.8304 16.1479L18.576 19.8936C18.94 20.2575 19.53 20.2576 19.8939 19.8938C20.2577 19.5299 20.2576 18.9399 19.8936 18.5759L15.5833 14.2656V14.2425L13.75 12.4092V12.4323L8.65095 7.33325H8.67407L6.84074 5.49992ZM13.75 9.77398V9.16659V7.33325H11.3093L9.47595 5.49992H13.75C14.7625 5.49992 15.5833 6.32073 15.5833 7.33325V8.11897L18.7952 6.28361C19.2348 6.03243 19.7947 6.18515 20.0459 6.62471C20.125 6.76321 20.1667 6.91998 20.1667 7.0795V14.9203C20.1667 15.2643 19.9772 15.5641 19.6969 15.7209L15.9614 11.9853L18.3333 13.3408V8.65908L15.5833 10.2305V11.6073L13.75 9.77398ZM3.66668 7.33325H6.01574L13.3491 14.6666H3.66668V7.33325Z"
     id="path11535" />
  <text
     xml:space="preserve"
     style="font-style:normal;font-weight:normal;font-size:6.66667px;line-height:1.25;font-family:sans-serif;fill:#000000;fill-opacity:1;stroke:none"
     x="1.7405518"
     y="21.888409"
     id="text5788"><tspan
       sodipodi:role="line"
       id="tspan5786"
       x="1.7405518"
       y="21.888409"
       style="font-size:6.66667px">Video</tspan></text>
</svg>
