<svg width="20" height="20" viewBox="0 0 20 20" xmlns="http://www.w3.org/2000/svg">
<path fill-rule="evenodd" clip-rule="evenodd" d="M3.33335 7.50001V15C3.33335 15.4602 3.70645 15.8333 4.16669 15.8333H15.8334C16.2936 15.8333 16.6667 15.4602 16.6667 15V7.50001C16.6667 7.03977 16.2936 6.66668 15.8334 6.66668H13.4763L11.8097 5.00001H8.19038L6.52371 6.66668H4.16669C3.70645 6.66668 3.33335 7.03977 3.33335 7.50001ZM5.83335 5.00001L7.01187 3.8215C7.32443 3.50894 7.74835 3.33334 8.19038 3.33334H11.8097C12.2517 3.33334 12.6756 3.50894 12.9882 3.8215L14.1667 5.00001H15.8334C17.2141 5.00001 18.3334 6.1193 18.3334 7.50001V15C18.3334 16.3807 17.2141 17.5 15.8334 17.5H4.16669C2.78598 17.5 1.66669 16.3807 1.66669 15V7.50001C1.66669 6.1193 2.78598 5.00001 4.16669 5.00001H5.83335ZM4.33335 11.6667L6.83335 9.16668L9.33335 11.6667H7.64313C7.98572 12.6298 8.90536 13.3194 9.98605 13.3194C10.5912 13.3194 11.1585 13.1028 11.6011 12.7238L12.7474 13.935C12.0136 14.5888 11.0462 14.986 9.98605 14.986C7.978 14.986 6.30283 13.5608 5.91699 11.6667H4.33335ZM15.8334 10L13.3334 12.5L10.8334 10H12.3618C12.0232 9.02958 11.0999 8.33334 10.014 8.33334C9.4406 8.33334 8.90113 8.52599 8.46348 8.87591C8.44177 8.89327 7.42268 7.57418 7.42268 7.57418C8.13299 7.00625 9.03383 6.66668 10.014 6.66668C12.027 6.66668 13.7054 8.09895 14.0859 10H15.8334Z"/>
</svg>
