<?xml version="1.0" encoding="UTF-8" standalone="no"?>
<svg
   width="22"
   height="22"
   viewBox="0 0 22 22"
   version="1.1"
   id="svg11537"
   sodipodi:docname="camera-empty-disabled.svg"
   inkscape:version="1.1.1 (c3084ef, 2021-09-22)"
   xmlns:inkscape="http://www.inkscape.org/namespaces/inkscape"
   xmlns:sodipodi="http://sodipodi.sourceforge.net/DTD/sodipodi-0.dtd"
   xmlns="http://www.w3.org/2000/svg"
   xmlns:svg="http://www.w3.org/2000/svg">
  <defs
     id="defs11541" />
  <sodipodi:namedview
     id="namedview11539"
     pagecolor="#ffffff"
     bordercolor="#666666"
     borderopacity="1.0"
     inkscape:pageshadow="2"
     inkscape:pageopacity="0.0"
     inkscape:pagecheckerboard="0"
     showgrid="false"
     inkscape:zoom="15.974185"
     inkscape:cx="12.050693"
     inkscape:cy="12.739304"
     inkscape:window-width="1280"
     inkscape:window-height="725"
     inkscape:window-x="90"
     inkscape:window-y="23"
     inkscape:window-maximized="0"
     inkscape:current-layer="svg11537" />
  <path
     fill-rule="evenodd"
     clip-rule="evenodd"
     d="M 7.3525766,3.5718091 H 7.3305618 L 4.0991525,0.34040953 C 3.7525914,-0.00616111 3.1907864,-0.0062468 2.8443395,0.34020957 2.4978832,0.68665641 2.4979688,1.2484613 2.8445395,1.5950224 L 4.8213168,3.5718091 H 4.3302504 c -0.9641267,0 -1.7456984,0.7815716 -1.7456984,1.7456887 v 6.9827842 c 0,0.964098 0.7815717,1.74566 1.7456984,1.74566 h 9.6012936 c 0.384687,0 0.740237,-0.124357 1.028752,-0.335173 l 3.566544,3.566639 c 0.3466,0.346504 0.908395,0.346599 1.254899,1.9e-4 0.346409,-0.346504 0.346314,-0.908299 -2.86e-4,-1.254898 l -4.104249,-4.104249 v -0.022 l -1.74566,-1.74566 v 0.022 L 9.0762507,5.3174978 h 0.022015 z M 13.931544,7.6415502 V 7.0631961 5.3174978 H 11.60752 L 9.8618121,3.5718091 h 4.0697319 c 0.964098,0 1.74566,0.7815716 1.74566,1.7456887 V 6.065657 l 3.058358,-1.7476218 c 0.418585,-0.2391725 0.951719,-0.093753 1.190911,0.324794 0.07532,0.1318791 0.115025,0.2811548 0.115025,0.433049 v 7.4659758 c 0,0.327555 -0.180441,0.613023 -0.447342,0.762327 L 16.03723,9.7471595 18.295742,11.037861 V 6.5799473 L 15.677204,8.0762465 V 9.3872294 Z M 4.3302504,5.3174978 H 6.5670152 L 13.549809,12.300282 H 4.3302504 Z"
     id="path11535"
     style="stroke-width:0.952196" />
  <text
     xml:space="preserve"
     style="font-style:normal;font-weight:normal;font-size:6.66667px;line-height:1.25;font-family:sans-serif;fill:#000000;fill-opacity:1;stroke:none"
     x="1.7405518"
     y="21.638004"
     id="text5788"><tspan
       sodipodi:role="line"
       id="tspan5786"
       x="1.7405518"
       y="21.638004"
       style="font-size:6.66667px">Video</tspan></text>
</svg>
