<?xml version="1.0" encoding="UTF-8" standalone="no"?>
<svg
   fill="none"
   height="22"
   width="22"
   viewBox="0 0 22 22"
   version="1.1"
   id="svg30803"
   sodipodi:docname="camera-empty.svg"
   inkscape:version="1.1.1 (c3084ef, 2021-09-22)"
   xmlns:inkscape="http://www.inkscape.org/namespaces/inkscape"
   xmlns:sodipodi="http://sodipodi.sourceforge.net/DTD/sodipodi-0.dtd"
   xmlns="http://www.w3.org/2000/svg"
   xmlns:svg="http://www.w3.org/2000/svg">
  <defs
     id="defs30807" />
  <sodipodi:namedview
     id="namedview30805"
     pagecolor="#ffffff"
     bordercolor="#666666"
     borderopacity="1.0"
     inkscape:pageshadow="2"
     inkscape:pageopacity="0.0"
     inkscape:pagecheckerboard="0"
     showgrid="false"
     inkscape:zoom="22.590909"
     inkscape:cx="10.623742"
     inkscape:cy="12.460765"
     inkscape:window-width="1280"
     inkscape:window-height="725"
     inkscape:window-x="0"
     inkscape:window-y="23"
     inkscape:window-maximized="0"
     inkscape:current-layer="svg30803" />
  <path
     clip-rule="evenodd"
     d="M13.75 5.5H3.667c-1.013 0-1.834.82-1.834 1.833v7.334c0 1.012.821 1.833 1.834 1.833H13.75c1.012 0 1.833-.82 1.833-1.833v-.786l3.212 1.835a.916.916 0 001.372-.796V7.08a.917.917 0 00-1.372-.796l-3.212 1.835v-.786c0-1.012-.82-1.833-1.833-1.833zm0 3.667v5.5H3.667V7.333H13.75v1.834zm4.583 4.174l-2.75-1.572v-1.538l2.75-1.572v4.682z"
     id="path30801"
     style="fill:#000000" />
  <text
     xml:space="preserve"
     style="font-style:normal;font-weight:normal;font-size:6.66667px;line-height:1.25;font-family:sans-serif;fill:#000000;fill-opacity:1;stroke:none"
     x="1.8591549"
     y="21.867201"
     id="text33115"><tspan
       sodipodi:role="line"
       id="tspan33113"
       x="1.8591549"
       y="21.867201">Video</tspan></text>
</svg>
