<svg width="22" height="22" viewBox="0 0 22 22" fill="none" xmlns="http://www.w3.org/2000/svg">
<path fill-rule="evenodd" clip-rule="evenodd" d="M13.75 5.5H3.66668C2.65415 5.5 1.83334 6.32081 1.83334 7.33333V14.6667C1.83334 15.6792 2.65415 16.5 3.66668 16.5H13.75C14.7625 16.5 15.5833 15.6792 15.5833 14.6667V13.881L18.7952 15.7163C18.9337 15.7955 19.0905 15.8371 19.25 15.8371C19.7563 15.8371 20.1667 15.4267 20.1667 14.9204V7.07958C20.1667 6.92006 20.125 6.76329 20.0459 6.62479C19.7947 6.18523 19.2348 6.03252 18.7952 6.28369L15.5833 8.11905V7.33333C15.5833 6.32081 14.7625 5.5 13.75 5.5ZM13.75 9.16667V12.8333V14.6667H3.66668V7.33333H13.75V9.16667ZM18.3333 13.3408L15.5833 11.7694V10.2306L18.3333 8.65916V13.3408Z" />
</svg>
