<svg width="20" height="20" viewBox="0 0 20 20" xmlns="http://www.w3.org/2000/svg">
<path d="M7.50001 11.25C7.50001 11.9404 6.94036 12.5 6.25001 12.5C5.55965 12.5 5.00001 11.9404 5.00001 11.25C5.00001 10.5596 5.55965 10 6.25001 10C6.94036 10 7.50001 10.5596 7.50001 11.25Z" />
<path d="M13.75 12.5C14.4404 12.5 15 11.9404 15 11.25C15 10.5596 14.4404 10 13.75 10C13.0596 10 12.5 10.5596 12.5 11.25C12.5 11.9404 13.0596 12.5 13.75 12.5Z" />
<path fill-rule="evenodd" clip-rule="evenodd" d="M2.74816 8.3756L3.85867 4.8356C4.29466 3.44578 5.58258 2.5 7.03918 2.5H12.9608C14.4174 2.5 15.7054 3.44578 16.1413 4.8356L17.2518 8.3756C17.9166 8.98497 18.3333 9.86048 18.3333 10.8333V17.5H16.6667V15H3.33334V17.5H1.66667V10.8333C1.66667 9.86048 2.08344 8.98497 2.74816 8.3756ZM7.03918 4.16667H12.9608C13.6891 4.16667 14.3331 4.63956 14.5511 5.33447L15.2304 7.5H4.76959L5.44892 5.33447C5.66692 4.63956 6.31088 4.16667 7.03918 4.16667ZM5.00001 9.16667C4.07953 9.16667 3.33334 9.91286 3.33334 10.8333V13.3333H16.6667V10.8333C16.6667 9.91286 15.9205 9.16667 15 9.16667H5.00001Z" />
</svg>
