<svg width="24" height="24" viewBox="0 0 24 24" xmlns="http://www.w3.org/2000/svg">
    <path fill-rule="evenodd" clip-rule="evenodd" d="M15.7913 4.5H8.2087C7.03695 4.5 6.02242 5.31383 5.76823 6.45767L5.1848 9.08313C5.44799 9.02864 5.72065 9 6 9H18C18.2794 9 18.552 9.02864 18.8152 9.08314L18.2318 6.45767C17.9776 5.31383 16.9631 4.5 15.7913 4.5ZM20.5345 9.90531L19.6961 6.13228C19.2894 4.30213 17.6661 3 15.7913 3H8.2087C6.33391 3 4.71065 4.30213 4.30395 6.13228L3.46551 9.90528C2.57084 10.6389 2 11.7528 2 13V20H3.5V17.5H20.5V20H22V13C22 11.7528 21.4292 10.6389 20.5345 9.90531ZM6 10.5H18C19.3807 10.5 20.5 11.6193 20.5 13V16H3.5V13C3.5 11.6193 4.61929 10.5 6 10.5ZM8 13C8 13.5523 7.55228 14 7 14C6.44772 14 6 13.5523 6 13C6 12.4477 6.44772 12 7 12C7.55228 12 8 12.4477 8 13ZM17 14C17.5523 14 18 13.5523 18 13C18 12.4477 17.5523 12 17 12C16.4477 12 16 12.4477 16 13C16 13.5523 16.4477 14 17 14Z" />
</svg>
