<svg width="24" height="24" viewBox="0 0 24 24" fill="none" xmlns="http://www.w3.org/2000/svg">
<path fill-rule="evenodd" clip-rule="evenodd" d="M8.44701 5H15.553C16.427 5 17.1997 5.56747 17.4613 6.40136L18.2765 9H18H6H5.7235L6.5387 6.40136C6.8003 5.56747 7.57305 5 8.44701 5ZM3.29779 10.0507L4.6304 5.80272C5.15358 4.13493 6.69908 3 8.44701 3H15.553C17.3009 3 18.8464 4.13494 19.3696 5.80272L20.7022 10.0507C21.4999 10.782 22 11.8326 22 13V17V18V21H20V18H4V21H2V18V17V13C2 11.8326 2.50012 10.782 3.29779 10.0507ZM6 11C4.89543 11 4 11.8954 4 13V16H20V13C20 11.8954 19.1046 11 18 11H6ZM9 13.5C9 14.3284 8.32843 15 7.5 15C6.67157 15 6 14.3284 6 13.5C6 12.6716 6.67157 12 7.5 12C8.32843 12 9 12.6716 9 13.5ZM16.5 15C17.3284 15 18 14.3284 18 13.5C18 12.6716 17.3284 12 16.5 12C15.6716 12 15 12.6716 15 13.5C15 14.3284 15.6716 15 16.5 15Z"/>
</svg>
