<svg version="1.1" xmlns="http://www.w3.org/2000/svg" viewBox="0 0 512.01 512.01" 
style="enable-background:new 0 0 512.01 512.01;" xml:space="preserve">
<title>chat</title>
<path d="M506.888,205.471c-13.501-67.037-52.277-124.795-109.204-162.633C343.296,6.686,277.923-7.242,213.488,3.571
c-0.427,0.064-0.853,0.128-1.28,0.192C73.144,27.929-20.319,160.723,3.846,299.744c1.92,11.134,4.628,22.246,7.977,32.91
c14.098,45.793,10.622,94.871-9.769,138.211c-3.562,7.508-2.389,16.423,2.965,22.801c5.354,6.377,13.842,9.001,21.947,6.847
l95.596-26.107c40.482,24.784,86.19,37.603,132.858,37.603c16.956,0,34.041-1.685,51.061-5.119
c67.037-13.501,124.795-52.277,162.633-109.204S520.368,272.507,506.888,205.471z M433.581,374.054
c-31.545,47.457-79.685,79.791-135.524,91.032c-55.796,11.176-112.723,0.043-160.18-31.503c-3.541-2.346-7.657-3.562-11.816-3.562
c-1.877,0-3.775,0.256-5.609,0.747l-65.117,17.767c11.006-41.954,10.195-86.382-2.773-128.592
c-2.837-9.001-5.098-18.215-6.697-27.493C25.794,176.89,103.196,66.534,218.522,45.973c0.384-0.043,0.768-0.107,1.152-0.171
c53.983-9.321,108.799,2.261,154.4,32.548c47.457,31.545,79.77,79.685,91.01,135.524
C476.324,269.735,465.126,326.619,433.581,374.054z"/>
<path d="M341.269,191.991H170.638c-11.795,0-21.329,9.534-21.329,21.329c0,11.795,9.534,21.329,21.329,21.329h170.631
c11.774,0,21.329-9.534,21.329-21.329C362.598,201.525,353.064,191.991,341.269,191.991z"/>
<path d="M341.269,277.306H170.638c-11.795,0-21.329,9.534-21.329,21.329c0,11.795,9.534,21.329,21.329,21.329h170.631
c11.774,0,21.329-9.534,21.329-21.329C362.598,286.84,353.064,277.306,341.269,277.306z"/>
</svg>
