<?xml version="1.0" encoding="UTF-8" standalone="no"?>
<svg
   width="22"
   height="22"
   viewBox="0 0 22 22"
   fill="none"
   version="1.1"
   id="svg36869"
   sodipodi:docname="chat.svg"
   inkscape:version="1.1.1 (c3084ef, 2021-09-22)"
   xmlns:inkscape="http://www.inkscape.org/namespaces/inkscape"
   xmlns:sodipodi="http://sodipodi.sourceforge.net/DTD/sodipodi-0.dtd"
   xmlns="http://www.w3.org/2000/svg"
   xmlns:svg="http://www.w3.org/2000/svg">
  <defs
     id="defs36873" />
  <sodipodi:namedview
     id="namedview36871"
     pagecolor="#ffffff"
     bordercolor="#666666"
     borderopacity="1.0"
     inkscape:pageshadow="2"
     inkscape:pageopacity="0.0"
     inkscape:pagecheckerboard="0"
     showgrid="false"
     inkscape:zoom="22.590909"
     inkscape:cx="19.587525"
     inkscape:cy="6.1750503"
     inkscape:window-width="1280"
     inkscape:window-height="725"
     inkscape:window-x="0"
     inkscape:window-y="23"
     inkscape:window-maximized="0"
     inkscape:current-layer="svg36869" />
  <path
     fill-rule="evenodd"
     clip-rule="evenodd"
     d="m 15.096475,17.230105 c 0.457311,0 0.828075,-0.372897 0.828075,-0.832727 v -4.190066 h 2.484407 c 0.457401,0 0.828165,-0.372805 0.828165,-0.832635 V 1.3823068 c 0,-0.45988438 -0.370764,-0.83269899 -0.828165,-0.83269899 H 3.5025547 c -0.4573656,0 -0.8281384,0.37281461 -0.8281384,0.83269899 v 9.9923702 c 0,0.45983 0.3707728,0.832635 0.8281384,0.832635 h 7.0852193 l 3.869712,4.719752 c 0.157285,0.191853 0.391632,0.303041 0.638989,0.303041 z M 4.3306932,2.2150059 H 17.580881 v 8.3269451 h -3.312572 v 3.536293 L 11.368872,10.541951 H 4.3306932 Z"
     id="path36867"
     style="fill:#000000;stroke-width:0.905905" />
  <text
     xml:space="preserve"
     style="font-style:normal;font-weight:normal;font-size:6.66667px;line-height:1.25;font-family:sans-serif;fill:#000000;fill-opacity:1;stroke:none"
     x="3.1871226"
     y="21.513079"
     id="text38435"><tspan
       sodipodi:role="line"
       id="tspan38433"
       x="3.1871226"
       y="21.513079">Chat</tspan></text>
</svg>
