<?xml version="1.0" encoding="UTF-8" standalone="no"?>
<svg
   width="22"
   height="22"
   viewBox="0 0 22 22"
   fill="none"
   version="1.1"
   id="svg36869"
   sodipodi:docname="chat.svg"
   inkscape:version="1.1.1 (c3084ef, 2021-09-22)"
   xmlns:inkscape="http://www.inkscape.org/namespaces/inkscape"
   xmlns:sodipodi="http://sodipodi.sourceforge.net/DTD/sodipodi-0.dtd"
   xmlns="http://www.w3.org/2000/svg"
   xmlns:svg="http://www.w3.org/2000/svg">
  <defs
     id="defs36873" />
  <sodipodi:namedview
     id="namedview36871"
     pagecolor="#ffffff"
     bordercolor="#666666"
     borderopacity="1.0"
     inkscape:pageshadow="2"
     inkscape:pageopacity="0.0"
     inkscape:pagecheckerboard="0"
     showgrid="false"
     inkscape:zoom="15.974185"
     inkscape:cx="18.874202"
     inkscape:cy="9.734456"
     inkscape:window-width="1280"
     inkscape:window-height="725"
     inkscape:window-x="0"
     inkscape:window-y="23"
     inkscape:window-maximized="0"
     inkscape:current-layer="svg36869" />
  <path
     fill-rule="evenodd"
     clip-rule="evenodd"
     d="m 14.971272,16.541494 c 0.443483,0 0.803037,-0.361701 0.803037,-0.807726 v -4.064265 h 2.409285 c 0.443571,0 0.803124,-0.361612 0.803124,-0.807636 V 1.1695032 c 0,-0.44607701 -0.359553,-0.8076984 -0.803124,-0.8076984 H 3.7279182 c -0.4435362,0 -0.8030979,0.36162139 -0.8030979,0.8076984 v 9.6923638 c 0,0.446024 0.3595617,0.807636 0.8030979,0.807636 h 6.8709828 l 3.752703,4.578048 c 0.152529,0.186093 0.37979,0.293943 0.619668,0.293943 z M 4.5310162,1.9772017 H 17.380557 v 8.0769403 h -3.21241 v 3.430121 L 11.356381,10.054142 H 4.5310162 Z"
     id="path36867"
     style="fill:#ffffff;stroke-width:0.87861" />
  <text
     xml:space="preserve"
     style="font-style:normal;font-weight:normal;font-size:8px;line-height:1.25;font-family:sans-serif;fill:#ffffff;fill-opacity:1;stroke:none"
     x="1.3716935"
     y="21.513079"
     id="text38435"><tspan
       sodipodi:role="line"
       id="tspan38433"
       x="1.3716935"
       y="21.513079"
       style="font-size:8px;fill:#ffffff">Chat</tspan></text>
</svg>
