<svg width="18" height="18" viewBox="0 0 18 18" fill="none" xmlns="http://www.w3.org/2000/svg">
<path fill-rule="evenodd" clip-rule="evenodd" d="M0.666687 9.00002C0.666687 13.6024 4.39765 17.3334 9.00002 17.3334C13.6024 17.3334 17.3334 13.6024 17.3334 9.00002C17.3334 4.39765 13.6024 0.666687 9.00002 0.666687C4.39765 0.666687 0.666687 4.39765 0.666687 9.00002ZM13.7119 5.86983C13.3639 5.56869 12.8376 5.60672 12.5365 5.95477L7.55616 11.711L5.42261 9.57743C5.09717 9.25199 4.56954 9.25199 4.2441 9.57743C3.91866 9.90287 3.91866 10.4305 4.2441 10.7559L7.01102 13.5229C7.35319 13.865 7.91386 13.8448 8.23047 13.4789L13.7969 7.04527C14.098 6.69722 14.06 6.17096 13.7119 5.86983Z" fill="white"/>
</svg>
