<svg width="20" height="20" viewBox="0 0 20 20" xmlns="http://www.w3.org/2000/svg">
<path fill-rule="evenodd" clip-rule="evenodd" d="M3.33335 3.33335H16.6667V16.6667H3.33335V3.33335ZM1.66669 3.33335C1.66669 2.41288 2.41288 1.66669 3.33335 1.66669H16.6667C17.5872 1.66669 18.3334 2.41288 18.3334 3.33335V16.6667C18.3334 17.5872 17.5872 18.3334 16.6667 18.3334H3.33335C2.41288 18.3334 1.66669 17.5872 1.66669 16.6667V3.33335ZM6.24585 12.6784C6.6503 12.9022 7.11613 13.0142 7.64335 13.0142C7.95391 13.0142 8.25724 12.9745 8.55335 12.895C8.84946 12.8084 9.10946 12.6928 9.33335 12.5484C9.45613 12.4761 9.5428 12.3967 9.59335 12.31C9.65113 12.2161 9.68002 12.1078 9.68002 11.985C9.68002 11.8334 9.6403 11.707 9.56085 11.6059C9.48141 11.5047 9.38391 11.4542 9.26835 11.4542C9.18891 11.4542 9.10946 11.4722 9.03002 11.5084C8.95058 11.5372 8.85669 11.5842 8.74835 11.6492C8.57502 11.7431 8.41613 11.8189 8.27169 11.8767C8.13446 11.9272 7.97558 11.9525 7.79502 11.9525C7.34724 11.9525 7.00058 11.8081 6.75502 11.5192C6.51669 11.2231 6.39752 10.8042 6.39752 10.2625C6.39752 9.71363 6.51669 9.29474 6.75502 9.00585C7.00058 8.70974 7.34724 8.56169 7.79502 8.56169C7.9828 8.56169 8.14891 8.59058 8.29335 8.64835C8.4378 8.69891 8.58946 8.77113 8.74835 8.86502C8.83502 8.91558 8.92169 8.95891 9.00835 8.99502C9.09502 9.03113 9.17808 9.04919 9.25752 9.04919C9.3803 9.04919 9.4778 9.00224 9.55002 8.90835C9.62946 8.80724 9.66919 8.67724 9.66919 8.51835C9.66919 8.28724 9.55363 8.09585 9.32252 7.94419C9.10585 7.80696 8.85308 7.69863 8.56419 7.61919C8.28252 7.53974 8.00085 7.50002 7.71919 7.50002C7.18474 7.50002 6.71169 7.61558 6.30002 7.84669C5.88835 8.0778 5.56696 8.40641 5.33585 8.83252C5.11196 9.25141 5.00002 9.7353 5.00002 10.2842C5.00002 10.8331 5.10835 11.3134 5.32502 11.725C5.54169 12.1367 5.84863 12.4545 6.24585 12.6784ZM11.5356 12.6784C11.94 12.9022 12.4058 13.0142 12.9331 13.0142C13.2436 13.0142 13.547 12.9745 13.8431 12.895C14.1392 12.8084 14.3992 12.6928 14.6231 12.5484C14.7458 12.4761 14.8325 12.3967 14.8831 12.31C14.9408 12.2161 14.9697 12.1078 14.9697 11.985C14.9697 11.8334 14.93 11.707 14.8506 11.6059C14.7711 11.5047 14.6736 11.4542 14.5581 11.4542C14.4786 11.4542 14.3992 11.4722 14.3197 11.5084C14.2403 11.5372 14.1464 11.5842 14.0381 11.6492C13.8647 11.7431 13.7058 11.8189 13.5614 11.8767C13.4242 11.9272 13.2653 11.9525 13.0847 11.9525C12.637 11.9525 12.2903 11.8081 12.0447 11.5192C11.8064 11.2231 11.6872 10.8042 11.6872 10.2625C11.6872 9.71363 11.8064 9.29474 12.0447 9.00585C12.2903 8.70974 12.637 8.56169 13.0847 8.56169C13.2725 8.56169 13.4386 8.59058 13.5831 8.64835C13.7275 8.69891 13.8792 8.77113 14.0381 8.86502C14.1247 8.91558 14.2114 8.95891 14.2981 8.99502C14.3847 9.03113 14.4678 9.04919 14.5472 9.04919C14.67 9.04919 14.7675 9.00224 14.8397 8.90835C14.9192 8.80724 14.9589 8.67724 14.9589 8.51835C14.9589 8.28724 14.8433 8.09585 14.6122 7.94419C14.3956 7.80696 14.1428 7.69863 13.8539 7.61919C13.5722 7.53974 13.2906 7.50002 13.0089 7.50002C12.4745 7.50002 12.0014 7.61558 11.5897 7.84669C11.1781 8.0778 10.8567 8.40641 10.6256 8.83252C10.4017 9.25141 10.2897 9.7353 10.2897 10.2842C10.2897 10.8331 10.3981 11.3134 10.6147 11.725C10.8314 12.1367 11.1383 12.4545 11.5356 12.6784Z" />
</svg>