<svg width="20" height="20" viewBox="0 0 20 20" xmlns="http://www.w3.org/2000/svg">
<path fill-rule="evenodd" clip-rule="evenodd" d="M10.0001 16.6666C13.682 16.6666 16.6667 13.6819 16.6667 9.99996C16.6667 6.31806 13.682 3.33329 10.0001 3.33329C6.31818 3.33329 3.33341 6.31806 3.33341 9.99996C3.33341 13.6819 6.31818 16.6666 10.0001 16.6666ZM10.0001 18.3333C5.39771 18.3333 1.66675 14.6023 1.66675 9.99996C1.66675 5.39759 5.39771 1.66663 10.0001 1.66663C14.6025 1.66663 18.3334 5.39759 18.3334 9.99996C18.3334 14.6023 14.6025 18.3333 10.0001 18.3333ZM10.0001 8.82145L12.3571 6.46443C12.6825 6.13899 13.2102 6.13899 13.5356 6.46443C13.8611 6.78986 13.8611 7.3175 13.5356 7.64294L11.1786 9.99996L13.5356 12.357C13.8611 12.6824 13.8611 13.2101 13.5356 13.5355C13.2102 13.8609 12.6825 13.8609 12.3571 13.5355L10.0001 11.1785L7.64306 13.5355C7.31762 13.8609 6.78998 13.8609 6.46455 13.5355C6.13911 13.2101 6.13911 12.6824 6.46455 12.357L8.82157 9.99996L6.46455 7.64294C6.13911 7.3175 6.13911 6.78986 6.46455 6.46443C6.78998 6.13899 7.31762 6.13899 7.64306 6.46443L10.0001 8.82145Z"/>
</svg>
