<!-- Generated by IcoMoon.io -->
<svg version="1.1" xmlns="http://www.w3.org/2000/svg" width="24" height="24" viewBox="0 0 24 24">
<title>closed_caption</title>
<path d="M18 11.016v-1.031c0-0.563-0.422-0.984-0.984-0.984h-3c-0.563 0-1.031 0.422-1.031 0.984v4.031c0 0.563 0.469 0.984 1.031 0.984h3c0.563 0 0.984-0.422 0.984-0.984v-1.031h-1.5v0.516h-2.016v-3h2.016v0.516h1.5zM11.016 11.016v-1.031c0-0.563-0.469-0.984-1.031-0.984h-3c-0.563 0-0.984 0.422-0.984 0.984v4.031c0 0.563 0.422 0.984 0.984 0.984h3c0.563 0 1.031-0.422 1.031-0.984v-1.031h-1.5v0.516h-2.016v-3h2.016v0.516h1.5zM18.984 3.984c1.078 0 2.016 0.938 2.016 2.016v12c0 1.078-0.938 2.016-2.016 2.016h-13.969c-1.125 0-2.016-0.938-2.016-2.016v-12c0-1.078 0.891-2.016 2.016-2.016h13.969z"></path>
</svg>
