<svg width="16" height="16" viewBox="0 0 16 16" fill="none" xmlns="http://www.w3.org/2000/svg">
<path fill-rule="evenodd" clip-rule="evenodd" d="M9.41416 8L15.071 2.34315C15.4615 1.95262 15.4615 1.31946 15.071 0.928933C14.6805 0.538409 14.0473 0.538409 13.6568 0.928933L7.99995 6.58579L2.34309 0.928933C1.95257 0.538409 1.3194 0.538409 0.92888 0.928933C0.538355 1.31946 0.538355 1.95262 0.92888 2.34315L6.58573 8L0.92888 13.6569C0.538355 14.0474 0.538355 14.6805 0.92888 15.0711C1.3194 15.4616 1.95257 15.4616 2.34309 15.0711L7.99995 9.41421L13.6568 15.0711C14.0473 15.4616 14.6805 15.4616 15.071 15.0711C15.4615 14.6805 15.4615 14.0474 15.071 13.6569L9.41416 8Z" />
</svg>
