<svg width="22" height="22" viewBox="0 0 22 22"  xmlns="http://www.w3.org/2000/svg">
<path fill-rule="evenodd" clip-rule="evenodd" d="M3.66671 3.66665H18.3334V18.3333H3.66671V3.66665ZM1.83337 3.66665C1.83337 2.65412 2.65419 1.83331 3.66671 1.83331H18.3334C19.3459 1.83331 20.1667 2.65412 20.1667 3.66665V18.3333C20.1667 19.3458 19.3459 20.1666 18.3334 20.1666H3.66671C2.65419 20.1666 1.83337 19.3458 1.83337 18.3333V3.66665ZM6.87046 13.9461C7.31535 14.1924 7.82776 14.3156 8.40771 14.3156C8.74932 14.3156 9.08298 14.2719 9.40871 14.1845C9.73443 14.0891 10.0204 13.962 10.2667 13.8031C10.4018 13.7237 10.4971 13.6363 10.5527 13.541C10.6163 13.4377 10.648 13.3185 10.648 13.1835C10.648 13.0166 10.6043 12.8776 10.517 12.7664C10.4296 12.6552 10.3223 12.5996 10.1952 12.5996C10.1078 12.5996 10.0204 12.6194 9.93304 12.6591C9.84565 12.6909 9.74237 12.7426 9.62321 12.8141C9.43254 12.9173 9.25776 13.0008 9.09887 13.0643C8.94793 13.1199 8.77315 13.1477 8.57454 13.1477C8.08198 13.1477 7.70065 12.9888 7.43054 12.6711C7.16837 12.3453 7.03729 11.8846 7.03729 11.2887C7.03729 10.685 7.16837 10.2242 7.43054 9.9064C7.70065 9.58067 8.08198 9.41781 8.57454 9.41781C8.7811 9.41781 8.96382 9.44959 9.12271 9.51315C9.2816 9.56876 9.44843 9.6482 9.62321 9.75148C9.71854 9.80709 9.81387 9.85476 9.90921 9.89448C10.0045 9.9342 10.0959 9.95406 10.1833 9.95406C10.3183 9.95406 10.4256 9.90242 10.505 9.79915C10.5924 9.68792 10.6361 9.54492 10.6361 9.37015C10.6361 9.11592 10.509 8.9054 10.2548 8.73856C10.0165 8.58762 9.7384 8.46845 9.42062 8.38106C9.11079 8.29367 8.80096 8.24998 8.49112 8.24998C7.90323 8.24998 7.38287 8.37709 6.93004 8.63131C6.47721 8.88554 6.12368 9.24701 5.86946 9.71573C5.62318 10.1765 5.50004 10.7088 5.50004 11.3126C5.50004 11.9163 5.61921 12.4446 5.85754 12.8975C6.09587 13.3503 6.43351 13.6999 6.87046 13.9461ZM12.6891 13.9461C13.134 14.1924 13.6464 14.3156 14.2264 14.3156C14.568 14.3156 14.9017 14.2719 15.2274 14.1845C15.5531 14.0891 15.8391 13.962 16.0854 13.8031C16.2204 13.7237 16.3158 13.6363 16.3714 13.541C16.4349 13.4377 16.4667 13.3185 16.4667 13.1835C16.4667 13.0166 16.423 12.8776 16.3356 12.7664C16.2483 12.6552 16.141 12.5996 16.0139 12.5996C15.9265 12.5996 15.8391 12.6194 15.7517 12.6591C15.6643 12.6909 15.5611 12.7426 15.4419 12.8141C15.2512 12.9173 15.0764 13.0008 14.9176 13.0643C14.7666 13.1199 14.5918 13.1477 14.3932 13.1477C13.9007 13.1477 13.5193 12.9888 13.2492 12.6711C12.9871 12.3453 12.856 11.8846 12.856 11.2887C12.856 10.685 12.9871 10.2242 13.2492 9.9064C13.5193 9.58067 13.9007 9.41781 14.3932 9.41781C14.5998 9.41781 14.7825 9.44959 14.9414 9.51315C15.1003 9.56876 15.2671 9.6482 15.4419 9.75148C15.5372 9.80709 15.6326 9.85476 15.7279 9.89448C15.8232 9.9342 15.9146 9.95406 16.002 9.95406C16.137 9.95406 16.2443 9.90242 16.3237 9.79915C16.4111 9.68792 16.4548 9.54492 16.4548 9.37015C16.4548 9.11592 16.3277 8.9054 16.0735 8.73856C15.8351 8.58762 15.5571 8.46845 15.2393 8.38106C14.9295 8.29367 14.6196 8.24998 14.3098 8.24998C13.7219 8.24998 13.2016 8.37709 12.7487 8.63131C12.2959 8.88554 11.9424 9.24701 11.6881 9.71573C11.4419 10.1765 11.3187 10.7088 11.3187 11.3126C11.3187 11.9163 11.4379 12.4446 11.6762 12.8975C11.9146 13.3503 12.2522 13.6999 12.6891 13.9461Z"/>
</svg>
