<svg width="16" height="16" viewBox="0 0 16 16" xmlns="http://www.w3.org/2000/svg">
<path fill-rule="evenodd" clip-rule="evenodd" d="M8.69136 8.00002L11.4568 5.23457C11.6477 5.04366 11.6477 4.73412 11.4568 4.54321C11.2659 4.3523 10.9564 4.3523 10.7654 4.54321L7.99999 7.30866L5.23454 4.54321C5.04363 4.3523 4.73409 4.3523 4.54318 4.54321C4.35227 4.73412 4.35227 5.04366 4.54318 5.23457L7.30863 8.00002L4.54318 10.7655C4.35227 10.9564 4.35227 11.2659 4.54318 11.4568C4.73409 11.6478 5.04363 11.6478 5.23454 11.4568L7.99999 8.69139L10.7654 11.4568C10.9564 11.6478 11.2659 11.6478 11.4568 11.4568C11.6477 11.2659 11.6477 10.9564 11.4568 10.7655L8.69136 8.00002Z" fill="white"/>
</svg>
