<svg width="20" height="20" viewBox="0 0 20 20" xmlns="http://www.w3.org/2000/svg">
<path fill-rule="evenodd" clip-rule="evenodd" d="M0.666748 9.00001C0.666748 13.6024 4.39771 17.3333 9.00008 17.3333C13.6025 17.3333 17.3334 13.6024 17.3334 9.00001C17.3334 4.39763 13.6025 0.666672 9.00008 0.666672C4.39771 0.666672 0.666748 4.39763 0.666748 9.00001ZM12.5356 5.46447C12.2102 5.13903 11.6825 5.13903 11.3571 5.46447L9.00008 7.82149L6.64306 5.46447C6.31762 5.13903 5.78998 5.13903 5.46455 5.46447C5.13911 5.78991 5.13911 6.31755 5.46455 6.64298L7.82157 9L5.46455 11.357C5.13911 11.6825 5.13911 12.2101 5.46455 12.5355C5.78998 12.861 6.31762 12.861 6.64306 12.5355L9.00008 10.1785L11.3571 12.5355C11.6825 12.861 12.2102 12.861 12.5356 12.5355C12.8611 12.2101 12.8611 11.6825 12.5356 11.357L10.1786 9L12.5356 6.64298C12.8611 6.31755 12.8611 5.78991 12.5356 5.46447Z"/>
</svg>
