<svg width="24" height="24" viewBox="0 0 24 24" xmlns="http://www.w3.org/2000/svg">
    <path d="M7.75735 8.81802C7.46446 8.52513 7.46446 8.05025 7.75735 7.75736C8.05024 7.46447 8.52512 7.46447 8.81801 7.75736L12 10.9393L15.182 7.75736C15.4749 7.46447 15.9497 7.46447 16.2426 7.75736C16.5355 8.05025 16.5355 8.52513 16.2426 8.81802L13.0607 12L16.2426 15.182C16.5355 15.4749 16.5355 15.9497 16.2426 16.2426C15.9497 16.5355 15.4749 16.5355 15.182 16.2426L12 13.0607L8.81801 16.2426C8.52512 16.5355 8.05024 16.5355 7.75735 16.2426C7.46446 15.9497 7.46446 15.4749 7.75735 15.182L10.9393 12L7.75735 8.81802Z" />
    <path fill-rule="evenodd" clip-rule="evenodd" d="M22.5 12C22.5 17.799 17.799 22.5 12 22.5C6.20101 22.5 1.5 17.799 1.5 12C1.5 6.20101 6.20101 1.5 12 1.5C17.799 1.5 22.5 6.20101 22.5 12ZM21 12C21 16.9706 16.9706 21 12 21C7.02944 21 3 16.9706 3 12C3 7.02944 7.02944 3 12 3C16.9706 3 21 7.02944 21 12Z" />
</svg>
