<svg width="24" height="24" viewBox="0 0 24 24" xmlns="http://www.w3.org/2000/svg">
    <path d="M15.5303 15.5303C15.2374 15.8232 14.7626 15.8232 14.4697 15.5303L12.75 13.8107L12.75 21.0536C12.75 21.4382 12.4142 21.75 12 21.75C11.5858 21.75 11.25 21.4382 11.25 21.0536L11.25 13.8107L9.53033 15.5303C9.23744 15.8232 8.76256 15.8232 8.46967 15.5303C8.17678 15.2374 8.17678 14.7626 8.46967 14.4697L11.4697 11.4697C11.7626 11.1768 12.2374 11.1768 12.5303 11.4697L15.5303 14.4697C15.8232 14.7626 15.8232 15.2374 15.5303 15.5303Z" />
    <path d="M13.4808 4.5C11.6245 4.5 10.0735 5.80749 9.69863 7.5518C7.53622 6.88209 5.42187 8.55737 5.4727 10.7285C3.65869 10.937 2.25 12.4778 2.25 14.3476V14.7273C2.25 16.949 4.05104 18.75 6.27273 18.75H6.75C7.16421 18.75 7.5 18.4142 7.5 18C7.5 17.5858 7.16421 17.25 6.75 17.25H6.27273C4.87946 17.25 3.75 16.1205 3.75 14.7273V14.3476C3.75 13.164 4.70949 12.2045 5.89308 12.2045H5.94966C6.60851 12.2045 7.10895 11.6118 6.99846 10.9623C6.77787 9.66546 8.00531 8.5934 9.26066 8.98645L9.96938 9.20835C10.5361 9.38579 11.1122 8.96245 11.1122 8.36861C11.1122 7.06046 12.1727 6 13.4808 6H13.8713C15.6325 6 16.9887 7.5545 16.7497 9.29943L16.5929 10.4445C16.5169 10.9996 16.953 11.4773 17.4953 11.4773C19.0095 11.4773 20.25 12.7061 20.25 14.2055C20.25 15.8721 18.9109 17.2259 17.25 17.2497C16.8358 17.2497 16.5 17.5858 16.5 18C16.5 18.4142 16.8358 18.75 17.25 18.75C19.7394 18.7261 21.75 16.7005 21.75 14.2055C21.75 12.0915 20.1807 10.3496 18.1637 10.0298L18.2359 9.50292C18.5982 6.85709 16.5418 4.5 13.8713 4.5H13.4808Z" />
</svg>
