<svg width="24" height="24" viewBox="0 0 24 24" fill="none" xmlns="http://www.w3.org/2000/svg">
<path fill-rule="evenodd" clip-rule="evenodd" d="M15.8716 7.70278C15.4611 7.33332 15.4278 6.70103 15.7972 6.29052C16.1667 5.88001 16.799 5.84673 17.2095 6.21619L22.4652 10.9212C22.9066 11.3184 22.9066 12.0105 22.4652 12.4077L17.2095 17.0394C16.799 17.4089 16.1667 17.3756 15.7972 16.9651C15.4278 16.5546 15.4611 15.9223 15.8716 15.5528L20.3014 11.6645L15.8716 7.70278Z" fill="#A4B8D1"/>
<path fill-rule="evenodd" clip-rule="evenodd" d="M8.4651 15.5531C8.87561 15.9225 8.90889 16.5548 8.53943 16.9653C8.16997 17.3759 7.53768 17.4091 7.12717 17.0397L1.87145 12.3347C1.43007 11.9375 1.43007 11.2454 1.87145 10.8481L7.12717 6.21644C7.53768 5.84698 8.16997 5.88026 8.53943 6.29077C8.90889 6.70128 8.87561 7.33357 8.4651 7.70302L4.03526 11.5914L8.4651 15.5531Z" fill="#A4B8D1"/>
</svg>
