<svg width="24" height="24" viewBox="0 0 24 24" xmlns="http://www.w3.org/2000/svg">
    <path d="M14.3081 2.75503C14.71 2.85536 14.9545 3.26249 14.8541 3.66437L10.6012 20.6985C10.5008 21.1004 10.0937 21.3448 9.69184 21.2445C9.28996 21.1442 9.04551 20.737 9.14585 20.3352L13.3988 3.30101C13.4991 2.89914 13.9063 2.65469 14.3081 2.75503Z" />
    <path d="M7.2804 6.21967C7.57329 6.51256 7.57329 6.98743 7.2804 7.28033L3.31073 11.25L7.2804 15.2197C7.57329 15.5126 7.57329 15.9874 7.2804 16.2803C6.98751 16.5732 6.51263 16.5732 6.21974 16.2803L2.25007 12.3107C1.66428 11.7249 1.66428 10.7751 2.25007 10.1893L6.21974 6.21967C6.51263 5.92677 6.98751 5.92677 7.2804 6.21967Z" />
    <path d="M16.7196 15.2197C16.4267 15.5126 16.4267 15.9874 16.7196 16.2803C17.0125 16.5732 17.4874 16.5732 17.7803 16.2803L21.7499 12.3107C22.3357 11.7249 22.3357 10.7751 21.7499 10.1893L17.7803 6.21967C17.4874 5.92677 17.0125 5.92677 16.7196 6.21967C16.4267 6.51256 16.4267 6.98743 16.7196 7.28033L20.6893 11.25L16.7196 15.2197Z" />
</svg>
