<svg width="24" height="24" viewBox="0 0 24 24" xmlns="http://www.w3.org/2000/svg">
    <path fill-rule="evenodd" clip-rule="evenodd" d="M6 17.25H3V21H6V17.25ZM7.5 21C7.5 21.8284 6.82843 22.5 6 22.5H3C2.17157 22.5 1.5 21.8284 1.5 21V17.25C1.5 16.4216 2.17157 15.75 3 15.75H6C6.82843 15.75 7.5 16.4216 7.5 17.25V21ZM15 21V10.5C15 9.67157 14.3284 9 13.5 9H10.5C9.67157 9 9 9.67157 9 10.5V21C9 21.8284 9.67157 22.5 10.5 22.5H13.5C14.3284 22.5 15 21.8284 15 21ZM16.5 21C16.5 21.8284 17.1716 22.5 18 22.5H21C21.8284 22.5 22.5 21.8284 22.5 21V3C22.5 2.17157 21.8284 1.5 21 1.5H18C17.1716 1.5 16.5 2.17157 16.5 3V21ZM13.5 10.5H10.5V21H13.5V10.5ZM21 3H18V21H21V3Z" />
</svg>
