<svg width="40" height="40" viewBox="0 0 40 40" xmlns="http://www.w3.org/2000/svg">
<path d="M0 3C0 1.34315 1.34315 0 3 0H37C38.6569 0 40 1.34315 40 3V37C40 38.6569 38.6569 40 37 40H3C1.34315 40 0 38.6569 0 37V3Z" fill="#A094ED"/>
<path d="M29.12 12.02H10.88C9.626 12.02 8.6 13.046 8.6 14.3V25.32C8.6 26.574 9.626 27.6 10.88 27.6H29.12C30.374 27.6 31.4 26.574 31.4 25.32V14.3C31.4 13.046 30.374 12.02 29.12 12.02ZM19.468 24.94H12.932C12.21 24.94 11.64 24.142 11.64 23.382C11.678 22.242 12.856 21.558 14.11 20.988C14.984 20.608 15.098 20.266 15.098 19.886C15.098 19.506 14.87 19.164 14.566 18.898C14.072 18.442 13.768 17.758 13.768 16.998C13.768 15.554 14.642 14.338 16.162 14.338C17.682 14.338 18.556 15.554 18.556 16.998C18.556 17.758 18.29 18.442 17.758 18.898C17.454 19.164 17.226 19.506 17.226 19.886C17.226 20.266 17.34 20.608 18.214 20.95C19.468 21.482 20.646 22.242 20.684 23.382C20.76 24.142 20.19 24.94 19.468 24.94ZM28.36 22.28C28.36 22.698 28.018 23.04 27.6 23.04H24.18C23.762 23.04 23.42 22.698 23.42 22.28V21.14C23.42 20.722 23.762 20.38 24.18 20.38H27.6C28.018 20.38 28.36 20.722 28.36 21.14V22.28ZM28.36 18.1C28.36 18.518 28.018 18.86 27.6 18.86H21.9C21.482 18.86 21.14 18.518 21.14 18.1V16.96C21.14 16.542 21.482 16.2 21.9 16.2H27.6C28.018 16.2 28.36 16.542 28.36 16.96V18.1Z" fill="white"/>
</svg>
