<!-- Generated by IcoMoon.io -->
<svg version="1.1" xmlns="http://www.w3.org/2000/svg" width="32" height="32" viewBox="0 0 32 32">
<title>contactList</title>
<path d="M22 8.688c-1.438 0-2.688 1.188-2.688 2.625s1.25 2.688 2.688 2.688 2.688-1.25 2.688-2.688-1.25-2.625-2.688-2.625zM22 16c-2.563 0-4.688-2.125-4.688-4.688s2.125-4.625 4.688-4.625 4.688 2.063 4.688 4.625-2.125 4.688-4.688 4.688zM10 8.688c-1.438 0-2.688 1.188-2.688 2.625s1.25 2.688 2.688 2.688 2.688-1.25 2.688-2.688-1.25-2.625-2.688-2.625zM10 16c-2.563 0-4.688-2.125-4.688-4.688s2.125-4.625 4.688-4.625 4.688 2.063 4.688 4.625-2.125 4.688-4.688 4.688zM28.688 23.313v-1.625c0-0.75-3.438-2.375-6.688-2.375-1.438 0-2.813 0.375-4 0.75 0.438 0.5 0.688 1 0.688 1.625v1.625h10zM16.688 23.313v-1.625c0-0.75-3.438-2.375-6.688-2.375s-6.688 1.625-6.688 2.375v1.625h13.375zM22 17.313c2.875 0 8.688 1.5 8.688 4.375v3.625h-29.375v-3.625c0-2.875 5.813-4.375 8.688-4.375 1.625 0 4.063 0.5 6 1.375 1.938-0.875 4.375-1.375 6-1.375z"></path>
</svg>
