<svg width="24" height="24" viewBox="0 0 24 24" xmlns="http://www.w3.org/2000/svg">
    <path d="M11.25 3H19.5C20.3284 3 21 3.67157 21 4.5V12.75C21 13.5784 20.3284 14.25 19.5 14.25H15.75V15.75H19.5C21.1569 15.75 22.5 14.4069 22.5 12.75V4.5C22.5 2.84315 21.1569 1.5 19.5 1.5H11.25C9.59315 1.5 8.25 2.84315 8.25 4.5V8.25H9.75V4.5C9.75 3.67157 10.4216 3 11.25 3Z" />
    <path fill-rule="evenodd" clip-rule="evenodd" d="M12.75 9.75H4.5C3.67157 9.75 3 10.4216 3 11.25V19.5C3 20.3284 3.67157 21 4.5 21H12.75C13.5784 21 14.25 20.3284 14.25 19.5V11.25C14.25 10.4216 13.5784 9.75 12.75 9.75ZM4.5 8.25C2.84315 8.25 1.5 9.59315 1.5 11.25V19.5C1.5 21.1569 2.84315 22.5 4.5 22.5H12.75C14.4069 22.5 15.75 21.1569 15.75 19.5V11.25C15.75 9.59315 14.4069 8.25 12.75 8.25H4.5Z" />
</svg>
