<svg width="15" height="15" viewBox="0 0 15 15" fill="none" xmlns="http://www.w3.org/2000/svg">
<path fill-rule="evenodd" clip-rule="evenodd" d="M8.75 2.5C8.75 3.03587 8.41281 3.49298 7.93902 3.67073L8.89288 6.21435L9.34092 7.40912C9.37965 7.45577 9.41923 7.45577 9.44363 7.43137L10.3459 6.52909L11.6161 5.25888C11.3899 5.03268 11.25 4.72018 11.25 4.375C11.25 3.68464 11.8096 3.125 12.5 3.125C13.1904 3.125 13.75 3.68464 13.75 4.375C13.75 5.06536 13.1904 5.625 12.5 5.625C12.465 5.625 12.4304 5.62356 12.3962 5.62075L11.875 11.875C11.875 12.5654 11.3154 13.125 10.625 13.125H4.375C3.68464 13.125 3.125 12.5654 3.125 11.875L2.60381 5.62075C2.56958 5.62356 2.53496 5.625 2.5 5.625C1.80964 5.625 1.25 5.06536 1.25 4.375C1.25 3.68464 1.80964 3.125 2.5 3.125C3.19036 3.125 3.75 3.68464 3.75 4.375C3.75 4.72018 3.61009 5.03268 3.38388 5.25888L4.65409 6.52909L5.55637 7.43137C5.61094 7.45781 5.64696 7.44144 5.65908 7.40912L6.10712 6.21435L7.06098 3.67073C6.58719 3.49298 6.25 3.03587 6.25 2.5C6.25 1.80964 6.80964 1.25 7.5 1.25C8.19036 1.25 8.75 1.80964 8.75 2.5ZM4.27517 10.625L4.02907 7.67184L4.67248 8.31525C4.80497 8.44773 4.96428 8.55032 5.13971 8.6161C5.81843 8.87063 6.57497 8.52674 6.82949 7.84802L7.5 6.06L8.17051 7.84802C8.23629 8.02345 8.33888 8.18277 8.47136 8.31525C8.98392 8.82781 9.81495 8.82781 10.3275 8.31525L10.9709 7.67184L10.7248 10.625H4.27517Z" fill="white"/>
</svg>
