<svg width="24" height="24" viewBox="0 0 24 24" xmlns="http://www.w3.org/2000/svg">
<path fill-rule="evenodd" clip-rule="evenodd" d="M14 4C14 4.85739 13.4605 5.58876 12.7024 5.87317L14.2286 9.94296L14.9455 11.8546C15.0074 11.9292 15.0708 11.9292 15.1098 11.8902L16.5535 10.4465L18.5858 8.41421C18.2239 8.05228 18 7.55228 18 7C18 5.89543 18.8954 5 20 5C21.1046 5 22 5.89543 22 7C22 8.10457 21.1046 9 20 9C19.9441 9 19.8887 8.9977 19.8339 8.9932L19 19C19 20.1046 18.1046 21 17 21H7C5.89543 21 5 20.1046 5 19L4.1661 8.9932C4.11133 8.9977 4.05593 9 4 9C2.89543 9 2 8.10457 2 7C2 5.89543 2.89543 5 4 5C5.10457 5 6 5.89543 6 7C6 7.55228 5.77614 8.05228 5.41421 8.41421L7.44654 10.4465L8.89019 11.8902C8.9775 11.9325 9.03514 11.9063 9.05453 11.8546L9.77139 9.94296L11.2976 5.87317C10.5395 5.58876 10 4.85739 10 4C10 2.89543 10.8954 2 12 2C13.1046 2 14 2.89543 14 4ZM6.84027 17L6.44651 12.2749L7.47597 13.3044C7.68795 13.5164 7.94285 13.6805 8.22354 13.7858C9.30949 14.193 10.52 13.6428 10.9272 12.5568L12 9.696L13.0728 12.5568C13.1781 12.8375 13.3422 13.0924 13.5542 13.3044C14.3743 14.1245 15.7039 14.1245 16.524 13.3044L17.5535 12.2749L17.1597 17H6.84027Z"/>
</svg>
