<?xml version="1.0" standalone="no"?>
<!DOCTYPE svg PUBLIC "-//W3C//DTD SVG 20010904//EN"
 "http://www.w3.org/TR/2001/REC-SVG-20010904/DTD/svg10.dtd">
<svg version="1.0" xmlns="http://www.w3.org/2000/svg"
 width="880.000000pt" height="920.000000pt" viewBox="0 0 880.000000 920.000000"
 preserveAspectRatio="xMidYMid meet">

<g transform="translate(0.000000,920.000000) scale(0.100000,-0.100000)"
fill="#00008B" stroke="none">
<path d="M3175 8774 c-342 -35 -504 -62 -730 -123 -117 -31 -344 -110 -460
-159 -86 -36 -267 -123 -263 -127 2 -1 59 7 128 18 106 17 172 20 435 21 276
1 327 -2 460 -22 544 -84 1025 -273 1458 -576 53 -36 98 -70 102 -75 3 -5 -34
-12 -82 -16 -199 -15 -527 -56 -663 -84 -774 -158 -1455 -515 -2009 -1055
-310 -304 -572 -664 -756 -1041 -257 -528 -375 -1040 -375 -1625 0 -487 83
-923 258 -1361 53 -132 151 -344 156 -338 2 2 -6 60 -17 129 -17 106 -20 172
-21 430 0 284 1 317 27 480 83 535 257 978 560 1422 108 160 107 159 107 57 0
-196 41 -575 86 -791 114 -555 324 -1039 665 -1528 106 -153 262 -335 428
-500 302 -299 604 -517 981 -706 516 -258 1059 -386 1640 -387 569 -1 1086
115 1598 358 61 30 112 56 112 58 0 2 -55 -5 -122 -16 -103 -17 -174 -20 -433
-21 -276 -1 -327 2 -465 22 -486 73 -948 242 -1328 485 -66 43 -76 57 -39 57
81 0 317 24 452 45 1278 200 2362 980 2933 2111 145 286 257 616 321 944 103
533 84 1115 -55 1640 -58 219 -157 485 -245 658 -56 110 -54 123 -23 -123 25
-202 15 -636 -19 -845 -84 -507 -253 -940 -530 -1355 -70 -105 -206 -285 -216
-285 -3 0 -6 114 -7 253 -1 304 -14 477 -53 702 -100 579 -289 1063 -597 1538
-376 577 -897 1044 -1501 1346 -178 89 -236 114 -411 177 -251 90 -545 159
-805 190 -125 15 -593 27 -682 18z m1350 -2638 c165 -10 359 -74 521 -172 114
-68 178 -120 276 -222 300 -312 432 -751 358 -1187 -93 -543 -502 -978 -1025
-1090 -175 -38 -432 -28 -604 21 -470 136 -822 520 -933 1018 -31 136 -33 425
-4 556 63 292 183 515 378 708 174 172 355 275 588 337 96 25 267 45 330 39
14 -2 66 -5 115 -8z"/>
</g>
</svg>
