<svg width="20" height="20" viewBox="0 0 20 20" xmlns="http://www.w3.org/2000/svg">
<path fill-rule="evenodd" clip-rule="evenodd" d="M18.3332 3.33329C18.3332 2.41282 17.587 1.66663 16.6665 1.66663H8.33317C7.4127 1.66663 6.6665 2.41282 6.6665 3.33329V4.99996H3.33317C2.4127 4.99996 1.6665 5.74615 1.6665 6.66663V16.6666C1.6665 17.5871 2.4127 18.3333 3.33317 18.3333H13.3332C14.2536 18.3333 14.9998 17.5871 14.9998 16.6666V15H16.6665C17.587 15 18.3332 14.2538 18.3332 13.3333V3.33329ZM8.33317 3.33329H16.6665L16.6665 13.3333H14.9998V6.66663C14.9998 5.74615 14.2536 4.99996 13.3332 4.99996H8.33317V3.33329ZM3.33317 6.66663V16.6666H13.3332V6.66663H3.33317ZM6.6665 12.1024V9.99996C6.6665 9.53972 6.29341 9.16663 5.83317 9.16663C5.37293 9.16663 4.99984 9.53972 4.99984 9.99996V14.1296V14.1666C4.99984 14.5693 5.28549 14.9053 5.66523 14.983C5.71947 14.9941 5.77564 15 5.83317 15L5.83356 14.9992C5.83397 14.9992 5.83439 14.9992 5.8348 14.9992L5.83445 15H5.87022H9.99984C10.4601 15 10.8332 14.6269 10.8332 14.1666C10.8332 13.7064 10.4601 13.3333 9.99984 13.3333H7.89741L11.4116 9.81913C11.7515 9.47922 11.7515 8.92813 11.4116 8.58822C11.0717 8.24832 10.5206 8.24832 10.1807 8.58822L6.6665 12.1024Z" />
</svg>
