<svg width="22" height="22" viewBox="0 0 22 22" xmlns="http://www.w3.org/2000/svg">
<path fill-rule="evenodd" clip-rule="evenodd" d="M13.75 1.83331H14.2869C14.53 1.83331 14.7632 1.92989 14.9351 2.1018L18.0648 5.23149C18.2367 5.4034 18.3333 5.63656 18.3333 5.87968V19.25C18.3333 19.7562 17.9229 20.1666 17.4166 20.1666H4.58329C4.07703 20.1666 3.66663 19.7562 3.66663 19.25V2.74998C3.66663 2.24372 4.07703 1.83331 4.58329 1.83331H11.9166H13.75ZM11.9166 3.66665V6.41665C11.9166 7.42917 12.7374 8.24998 13.75 8.24998H16.5V18.3333H5.49996V3.66665H11.9166ZM16.5 6.41665H13.75V3.66665H13.9072L16.5 6.25937V6.41665ZM8.24996 14.6666C7.7437 14.6666 7.33329 15.0771 7.33329 15.5833C7.33329 16.0896 7.7437 16.5 8.24996 16.5H13.75C14.2562 16.5 14.6666 16.0896 14.6666 15.5833C14.6666 15.0771 14.2562 14.6666 13.75 14.6666H8.24996ZM7.33329 12.8333C7.33329 12.3271 7.7437 11.9166 8.24996 11.9166H13.75C14.2562 11.9166 14.6666 12.3271 14.6666 12.8333C14.6666 13.3396 14.2562 13.75 13.75 13.75H8.24996C7.7437 13.75 7.33329 13.3396 7.33329 12.8333ZM8.24996 9.16665C7.7437 9.16665 7.33329 9.57705 7.33329 10.0833C7.33329 10.5896 7.7437 11 8.24996 11H13.75C14.2562 11 14.6666 10.5896 14.6666 10.0833C14.6666 9.57705 14.2562 9.16665 13.75 9.16665H8.24996Z" />
</svg>
