<?xml version="1.0" encoding="UTF-8" standalone="no"?> <svg width="64" height="64" viewBox="0 0 64 64" fill="none" xmlns="http://www.w3.org/2000/svg">
<path d="M60 24H4C3.44772 24 3 24.4477 3 25V53C3 53.5523 3.44772 54 4 54H60C60.5523 54 61 53.5523 61 53V25C61 24.4477 60.5523 24 60 24Z" fill="#71B263"/>
<path d="M7.61011 21.32H56.3901C56.6553 21.32 56.9097 21.2147 57.0972 21.0271C57.2848 20.8396 57.3901 20.5852 57.3901 20.32C57.3901 20.0548 57.2848 19.8004 57.0972 19.6129C56.9097 19.4254 56.6553 19.32 56.3901 19.32H7.61011C7.34489 19.32 7.09054 19.4254 6.903 19.6129C6.71546 19.8004 6.61011 20.0548 6.61011 20.32C6.61011 20.5852 6.71546 20.8396 6.903 21.0271C7.09054 21.2147 7.34489 21.32 7.61011 21.32Z" fill="#42A240"/>
<path d="M13.3899 16.66H50.6099C50.8751 16.66 51.1295 16.5546 51.317 16.3671C51.5045 16.1795 51.6099 15.9252 51.6099 15.66C51.6099 15.3948 51.5045 15.1404 51.317 14.9529C51.1295 14.7653 50.8751 14.66 50.6099 14.66H13.3899C13.1247 14.66 12.8703 14.7653 12.6828 14.9529C12.4952 15.1404 12.3899 15.3948 12.3899 15.66C12.3899 15.9252 12.4952 16.1795 12.6828 16.3671C12.8703 16.5546 13.1247 16.66 13.3899 16.66V16.66Z" fill="#42A240"/>
<path d="M18.6399 12H45.3599C45.6251 12 45.8795 11.8946 46.067 11.7071C46.2545 11.5196 46.3599 11.2652 46.3599 11C46.3599 10.7348 46.2545 10.4804 46.067 10.2929C45.8795 10.1054 45.6251 10 45.3599 10H18.6399C18.3747 10 18.1203 10.1054 17.9328 10.2929C17.7453 10.4804 17.6399 10.7348 17.6399 11C17.6399 11.2652 17.7453 11.5196 17.9328 11.7071C18.1203 11.8946 18.3747 12 18.6399 12Z" fill="#42A240"/>
<path d="M55 34.17H53C52.4245 34.17 51.8725 33.9414 51.4656 33.5344C51.0586 33.1275 50.83 32.5755 50.83 32V30C50.83 29.7348 50.7246 29.4804 50.5371 29.2929C50.3496 29.1054 50.0952 29 49.83 29H14.17C13.9048 29 13.6504 29.1054 13.4629 29.2929C13.2754 29.4804 13.17 29.7348 13.17 30V32C13.17 32.5755 12.9414 33.1275 12.5344 33.5344C12.1275 33.9414 11.5755 34.17 11 34.17H9C8.73478 34.17 8.48043 34.2754 8.29289 34.4629C8.10536 34.6504 8 34.9048 8 35.17V42.83C8 43.0952 8.10536 43.3496 8.29289 43.5371C8.48043 43.7246 8.73478 43.83 9 43.83H11C11.5755 43.83 12.1275 44.0586 12.5344 44.4656C12.9414 44.8725 13.17 45.4245 13.17 46V48C13.17 48.2652 13.2754 48.5196 13.4629 48.7071C13.6504 48.8946 13.9048 49 14.17 49H49.83C50.0952 49 50.3496 48.8946 50.5371 48.7071C50.7246 48.5196 50.83 48.2652 50.83 48V46C50.83 45.4245 51.0586 44.8725 51.4656 44.4656C51.8725 44.0586 52.4245 43.83 53 43.83H55C55.2652 43.83 55.5196 43.7246 55.7071 43.5371C55.8946 43.3496 56 43.0952 56 42.83V35.17C56 34.9048 55.8946 34.6504 55.7071 34.4629C55.5196 34.2754 55.2652 34.17 55 34.17ZM40 39C40 40.5823 39.5308 42.129 38.6518 43.4446C37.7727 44.7602 36.5233 45.7855 35.0615 46.391C33.5997 46.9965 31.9911 47.155 30.4393 46.8463C28.8874 46.5376 27.462 45.7757 26.3431 44.6569C25.2243 43.538 24.4624 42.1126 24.1537 40.5607C23.845 39.0089 24.0035 37.4003 24.609 35.9385C25.2145 34.4767 26.2398 33.2273 27.5554 32.3482C28.871 31.4692 30.4177 31 32 31C34.1217 31 36.1566 31.8429 37.6569 33.3431C39.1571 34.8434 40 36.8783 40 39ZM15.17 47V46C15.17 44.894 14.7307 43.8334 13.9486 43.0514C13.1666 42.2693 12.106 41.83 11 41.83H10V36.17H11C12.106 36.17 13.1666 35.7307 13.9486 34.9486C14.7307 34.1666 15.17 33.106 15.17 32V31H26C24.758 31.9315 23.75 33.1393 23.0557 34.5279C22.3615 35.9164 22 37.4475 22 39C22 40.5525 22.3615 42.0836 23.0557 43.4721C23.75 44.8607 24.758 46.0685 26 47H15.17ZM54 41.83H53C52.4524 41.83 51.9101 41.9379 51.4042 42.1474C50.8983 42.357 50.4386 42.6641 50.0514 43.0514C49.6641 43.4386 49.357 43.8983 49.1474 44.4042C48.9379 44.9101 48.83 45.4524 48.83 46V47H38C39.242 46.0685 40.25 44.8607 40.9443 43.4721C41.6385 42.0836 42 40.5525 42 39C42 37.4475 41.6385 35.9164 40.9443 34.5279C40.25 33.1393 39.242 31.9315 38 31H48.83V32C48.83 32.5476 48.9379 33.0899 49.1474 33.5958C49.357 34.1017 49.6641 34.5614 50.0514 34.9486C50.4386 35.3359 50.8983 35.643 51.4042 35.8526C51.9101 36.0621 52.4524 36.17 53 36.17H54V41.83Z" fill="#E6E6E6"/>
<path d="M31.2499 40H32.7499C32.8745 39.9905 32.9997 40.0062 33.1181 40.0461C33.2365 40.0861 33.3456 40.1495 33.4389 40.2326C33.5323 40.3157 33.6079 40.4167 33.6613 40.5296C33.7148 40.6426 33.7449 40.7651 33.7499 40.89C33.7511 41.008 33.7277 41.1249 33.6812 41.2334C33.6347 41.3419 33.5662 41.4395 33.4799 41.52C33.293 41.695 33.046 41.7917 32.7899 41.79H29.8899C29.6247 41.79 29.3703 41.8953 29.1828 42.0829C28.9953 42.2704 28.8899 42.5248 28.8899 42.79C28.8899 43.0552 28.9953 43.3096 29.1828 43.4971C29.3703 43.6846 29.6247 43.79 29.8899 43.79H30.9999V45C30.9999 45.2652 31.1053 45.5196 31.2928 45.7071C31.4803 45.8946 31.7347 46 31.9999 46C32.2651 46 32.5195 45.8946 32.707 45.7071C32.8945 45.5196 32.9999 45.2652 32.9999 45V43.76C33.3781 43.7436 33.7494 43.6528 34.0925 43.4929C34.4356 43.333 34.7439 43.1071 34.9998 42.8281C35.2556 42.549 35.4539 42.2223 35.5835 41.8666C35.7131 41.5109 35.7713 41.1332 35.7549 40.755C35.7385 40.3768 35.6477 40.0055 35.4878 39.6624C35.3279 39.3192 35.102 39.011 34.823 38.7551C34.5439 38.4993 34.2172 38.3009 33.8615 38.1714C33.5058 38.0418 33.1281 37.9836 32.7499 38H31.2499C31.1253 38.0095 31.0001 37.9938 30.8817 37.9538C30.7633 37.9139 30.6542 37.8505 30.5609 37.7674C30.4675 37.6843 30.3919 37.5833 30.3385 37.4703C30.285 37.3574 30.2549 37.2348 30.2499 37.11C30.2487 36.992 30.2721 36.875 30.3186 36.7666C30.3651 36.6581 30.4336 36.5605 30.5199 36.48C30.7068 36.305 30.9538 36.2083 31.2099 36.21H34.0699C34.3351 36.21 34.5895 36.1046 34.777 35.9171C34.9645 35.7296 35.0699 35.4752 35.0699 35.21C35.0699 34.9448 34.9645 34.6904 34.777 34.5029C34.5895 34.3153 34.3351 34.21 34.0699 34.21H32.9999V33.05C32.9999 32.7848 32.8945 32.5304 32.707 32.3429C32.5195 32.1553 32.2651 32.05 31.9999 32.05C31.7347 32.05 31.4803 32.1553 31.2928 32.3429C31.1053 32.5304 30.9999 32.7848 30.9999 33.05V34.24C30.6217 34.2564 30.2504 34.3472 29.9073 34.507C29.5642 34.6669 29.2559 34.8929 29 35.1719C28.4834 35.7355 28.2117 36.4812 28.2449 37.245C28.2781 38.0088 28.6133 38.7282 29.1768 39.2448C29.7404 39.7615 30.4861 40.0331 31.2499 40V40Z" fill="#E6E6E6"/>
<path d="M9 43.83H11C11.5755 43.83 12.1275 44.0586 12.5344 44.4656C12.9414 44.8725 13.17 45.4245 13.17 46V48C13.17 48.2652 13.2754 48.5196 13.4629 48.7071C13.6504 48.8946 13.9048 49 14.17 49H49.83C50.0952 49 50.3496 48.8946 50.5371 48.7071C50.7246 48.5196 50.83 48.2652 50.83 48V46C50.83 45.4245 51.0586 44.8725 51.4656 44.4656C51.8725 44.0586 52.4245 43.83 53 43.83H55C55.2652 43.83 55.5196 43.7246 55.7071 43.5371C55.8946 43.3496 56 43.0952 56 42.83V35.17C56 34.9048 55.8946 34.6504 55.7071 34.4629C55.5196 34.2754 55.2652 34.17 55 34.17H53C52.4245 34.17 51.8725 33.9414 51.4656 33.5344C51.0586 33.1275 50.83 32.5755 50.83 32V30C50.83 29.7348 50.7246 29.4804 50.5371 29.2929C50.3496 29.1054 50.0952 29 49.83 29H14.17C13.9048 29 13.6504 29.1054 13.4629 29.2929C13.2754 29.4804 13.17 29.7348 13.17 30V32C13.17 32.5755 12.9414 33.1275 12.5344 33.5344C12.1275 33.9414 11.5755 34.17 11 34.17H9C8.73478 34.17 8.48043 34.2754 8.29289 34.4629C8.10536 34.6504 8 34.9048 8 35.17V42.83C8 43.0952 8.10536 43.3496 8.29289 43.5371C8.48043 43.7246 8.73478 43.83 9 43.83ZM24 39C24 37.4177 24.4692 35.871 25.3482 34.5554C26.2273 33.2398 27.4767 32.2145 28.9385 31.609C30.4003 31.0035 32.0089 30.845 33.5607 31.1537C35.1126 31.4624 36.538 32.2243 37.6569 33.3431C38.7757 34.462 39.5376 35.8874 39.8463 37.4393C40.155 38.9911 39.9965 40.5997 39.391 42.0615C38.7855 43.5233 37.7602 44.7727 36.4446 45.6518C35.129 46.5308 33.5823 47 32 47C29.8783 47 27.8434 46.1571 26.3431 44.6569C24.8429 43.1566 24 41.1217 24 39ZM48.83 31V32C48.83 32.5476 48.9379 33.0899 49.1474 33.5958C49.357 34.1017 49.6641 34.5614 50.0514 34.9486C50.4386 35.3359 50.8983 35.643 51.4042 35.8526C51.9101 36.0621 52.4524 36.17 53 36.17H54V41.83H53C52.4524 41.83 51.9101 41.9379 51.4042 42.1474C50.8983 42.357 50.4386 42.6641 50.0514 43.0514C49.6641 43.4386 49.357 43.8983 49.1474 44.4042C48.9379 44.9101 48.83 45.4524 48.83 46V47H38C39.242 46.0685 40.25 44.8607 40.9443 43.4721C41.6385 42.0836 42 40.5525 42 39C42 37.4475 41.6385 35.9164 40.9443 34.5279C40.25 33.1393 39.242 31.9315 38 31H48.83ZM10 36.17H11C12.106 36.17 13.1666 35.7307 13.9486 34.9486C14.7307 34.1666 15.17 33.106 15.17 32V31H26C24.758 31.9315 23.75 33.1393 23.0557 34.5279C22.3615 35.9164 22 37.4475 22 39C22 40.5525 22.3615 42.0836 23.0557 43.4721C23.75 44.8607 24.758 46.0685 26 47H15.17V46C15.17 44.894 14.7307 43.8334 13.9486 43.0514C13.1666 42.2693 12.106 41.83 11 41.83H10V36.17Z" fill="black"/>
<path d="M32.7499 38H31.2499C31.1253 38.0095 31.0001 37.9938 30.8817 37.9538C30.7633 37.9139 30.6542 37.8505 30.5609 37.7674C30.4675 37.6843 30.3919 37.5833 30.3385 37.4703C30.285 37.3574 30.2549 37.2348 30.2499 37.11C30.2487 36.992 30.2721 36.875 30.3186 36.7666C30.3651 36.6581 30.4336 36.5605 30.5199 36.48C30.7068 36.305 30.9538 36.2083 31.2099 36.21H34.0699C34.3351 36.21 34.5895 36.1046 34.777 35.9171C34.9645 35.7296 35.0699 35.4752 35.0699 35.21C35.0699 34.9448 34.9645 34.6904 34.777 34.5029C34.5895 34.3153 34.3351 34.21 34.0699 34.21H32.9999V33.05C32.9999 32.7848 32.8945 32.5304 32.707 32.3429C32.5195 32.1553 32.2651 32.05 31.9999 32.05C31.7347 32.05 31.4803 32.1553 31.2928 32.3429C31.1053 32.5304 30.9999 32.7848 30.9999 33.05V34.24C30.6217 34.2564 30.2504 34.3472 29.9073 34.507C29.5642 34.6669 29.2559 34.8929 29 35.1719C28.4834 35.7355 28.2117 36.4812 28.2449 37.245C28.2781 38.0088 28.6133 38.7282 29.1768 39.2448C29.7404 39.7615 30.4861 40.0331 31.2499 40H32.7499C32.8745 39.9905 32.9997 40.0062 33.1181 40.0461C33.2365 40.0861 33.3456 40.1495 33.4389 40.2326C33.5323 40.3157 33.6079 40.4167 33.6613 40.5296C33.7148 40.6426 33.7449 40.7651 33.7499 40.89C33.7511 41.008 33.7277 41.1249 33.6812 41.2334C33.6347 41.3419 33.5662 41.4395 33.4799 41.52C33.293 41.695 33.046 41.7917 32.7899 41.79H29.8899C29.6247 41.79 29.3703 41.8953 29.1828 42.0829C28.9953 42.2704 28.8899 42.5248 28.8899 42.79C28.8899 43.0552 28.9953 43.3096 29.1828 43.4971C29.3703 43.6846 29.6247 43.79 29.8899 43.79H30.9999V45C30.9999 45.2652 31.1053 45.5196 31.2928 45.7071C31.4803 45.8946 31.7347 46 31.9999 46C32.2651 46 32.5195 45.8946 32.707 45.7071C32.8945 45.5196 32.9999 45.2652 32.9999 45V43.76C33.3781 43.7436 33.7494 43.6528 34.0925 43.4929C34.4356 43.333 34.7439 43.1071 34.9998 42.8281C35.2556 42.549 35.4539 42.2223 35.5835 41.8666C35.7131 41.5109 35.7713 41.1332 35.7549 40.755C35.7385 40.3768 35.6477 40.0055 35.4878 39.6624C35.3279 39.3192 35.102 39.011 34.823 38.7551C34.5439 38.4993 34.2172 38.3009 33.8615 38.1714C33.5058 38.0418 33.1281 37.9836 32.7499 38Z" fill="black"/>
<path d="M60 24H4C3.73478 24 3.48043 24.1054 3.29289 24.2929C3.10536 24.4804 3 24.7348 3 25V53C3 53.2652 3.10536 53.5196 3.29289 53.7071C3.48043 53.8946 3.73478 54 4 54H60C60.2652 54 60.5196 53.8946 60.7071 53.7071C60.8946 53.5196 61 53.2652 61 53V25C61 24.7348 60.8946 24.4804 60.7071 24.2929C60.5196 24.1054 60.2652 24 60 24ZM59 52H5V26H59V52Z" fill="black"/>
<path d="M7.61011 21.32H56.3901C56.6553 21.32 56.9097 21.2147 57.0972 21.0271C57.2848 20.8396 57.3901 20.5852 57.3901 20.32C57.3901 20.0548 57.2848 19.8004 57.0972 19.6129C56.9097 19.4254 56.6553 19.32 56.3901 19.32H7.61011C7.34489 19.32 7.09054 19.4254 6.903 19.6129C6.71546 19.8004 6.61011 20.0548 6.61011 20.32C6.61011 20.5852 6.71546 20.8396 6.903 21.0271C7.09054 21.2147 7.34489 21.32 7.61011 21.32Z" fill="black"/>
<path d="M13.3899 16.66H50.6099C50.8751 16.66 51.1295 16.5546 51.317 16.3671C51.5045 16.1795 51.6099 15.9252 51.6099 15.66C51.6099 15.3948 51.5045 15.1404 51.317 14.9529C51.1295 14.7653 50.8751 14.66 50.6099 14.66H13.3899C13.1247 14.66 12.8703 14.7653 12.6828 14.9529C12.4952 15.1404 12.3899 15.3948 12.3899 15.66C12.3899 15.9252 12.4952 16.1795 12.6828 16.3671C12.8703 16.5546 13.1247 16.66 13.3899 16.66V16.66Z" fill="black"/>
<path d="M18.6399 12H45.3599C45.6251 12 45.8795 11.8946 46.067 11.7071C46.2545 11.5196 46.3599 11.2652 46.3599 11C46.3599 10.7348 46.2545 10.4804 46.067 10.2929C45.8795 10.1054 45.6251 10 45.3599 10H18.6399C18.3747 10 18.1203 10.1054 17.9328 10.2929C17.7453 10.4804 17.6399 10.7348 17.6399 11C17.6399 11.2652 17.7453 11.5196 17.9328 11.7071C18.1203 11.8946 18.3747 12 18.6399 12Z" fill="black"/>
</svg>
