<svg width="24" height="24" viewBox="0 0 24 24" xmlns="http://www.w3.org/2000/svg">
    <path d="M6.96967 11.4697C7.26256 11.1768 7.73744 11.1768 8.03033 11.4697L11.25 14.6893L11.25 2.19643C11.25 1.8118 11.5858 1.5 12 1.5C12.4142 1.5 12.75 1.8118 12.75 2.19643L12.75 14.6893L15.9697 11.4697C16.2626 11.1768 16.7374 11.1768 17.0303 11.4697C17.3232 11.7626 17.3232 12.2374 17.0303 12.5303L12.5303 17.0303C12.2374 17.3232 11.7626 17.3232 11.4697 17.0303L6.96967 12.5303C6.67678 12.2374 6.67678 11.7626 6.96967 11.4697Z" />
    <path d="M3.75 16.5C3.33579 16.5 3 16.8358 3 17.25V21C3 21.8284 3.67157 22.5 4.5 22.5H19.5C20.3284 22.5 21 21.8284 21 21V17.25C21 16.8358 20.6642 16.5 20.25 16.5C19.8358 16.5 19.5 16.8358 19.5 17.25V21H4.5V17.25C4.5 16.8358 4.16421 16.5 3.75 16.5Z" />
</svg>
