<svg width="24" height="24" viewBox="0 0 24 24" fill="none" xmlns="http://www.w3.org/2000/svg">
<path fill-rule="evenodd" clip-rule="evenodd" d="M11 13.3705V5C11 4.44772 11.4477 4 12 4C12.5523 4 13 4.44772 13 5V13.4667L15.631 10.5433C16.0005 10.1328 16.6328 10.0995 17.0433 10.469C17.4538 10.8384 17.4871 11.4707 17.1176 11.8812L12.1064 17.4492C12.0727 17.4867 12.0139 17.4867 11.9802 17.4492L6.96897 11.8812C6.59951 11.4707 6.63278 10.8384 7.04329 10.469C7.4538 10.0995 8.08609 10.1328 8.45555 10.5433L11 13.3705ZM20 15C20 14.4477 20.4477 14 21 14C21.5523 14 22 14.4477 22 15V21C22 21.5523 21.5523 22 21 22H3C2.96548 22 2.93137 21.9983 2.89776 21.9948C2.3935 21.9436 2 21.5178 2 21V15C2 14.4477 2.44772 14 3 14C3.55228 14 4 14.4477 4 15V20H20V15Z" fill="#A4B8D1"/>
</svg>
