<svg width="18" height="18" viewBox="0 0 18 18" xmlns="http://www.w3.org/2000/svg">
<path fill-rule="evenodd" clip-rule="evenodd" d="M3.75 7.5H5.25H12.75H14.25V15H3.75V7.5ZM14.25 6H12.75V5.25C12.75 3.17893 11.0711 1.5 9 1.5C6.92893 1.5 5.25 3.17893 5.25 5.25V6H3.75C2.92157 6 2.25 6.67157 2.25 7.5V15C2.25 15.8284 2.92157 16.5 3.75 16.5H14.25C15.0784 16.5 15.75 15.8284 15.75 15V7.5C15.75 6.67157 15.0784 6 14.25 6ZM9.72642 11.8127C10.1877 11.5568 10.5 11.0649 10.5 10.5C10.5 9.67157 9.82843 9 9 9C8.17157 9 7.5 9.67157 7.5 10.5C7.5 11.0649 7.81226 11.5568 8.27358 11.8127C8.25819 11.8726 8.25 11.9353 8.25 12V12.75C8.25 13.1642 8.58579 13.5 9 13.5C9.41421 13.5 9.75 13.1642 9.75 12.75V12C9.75 11.9353 9.74181 11.8726 9.72642 11.8127ZM9 3C10.2426 3 11.25 4.00736 11.25 5.25V6H6.75V5.25C6.75 4.00736 7.75736 3 9 3Z" />
</svg>
