<svg enable-background="new 0 0 128 128" viewBox="0 0 128 128" xmlns="http://www.w3.org/2000/svg"><linearGradient id="a" x1="64.194" x2="64.194" y1="10.332" y2="121.68" gradientTransform="matrix(1 0 0 -1 0 130)" gradientUnits="userSpaceOnUse"><stop stop-color="#81C784" offset="0"/><stop stop-color="#6EBE71" offset=".4141"/><stop stop-color="#4CAF50" offset="1"/></linearGradient><path d="m109.53 56.95c-2.82 0-19.89 1.32-36.09 3.17-0.09 0-0.18-0.09-0.09-0.18 12.76-10.12 25.79-21.3 27.73-23.24 6.25-6.25 4.05-10.3 2.2-12.15-3.08-3.08-7.57-2.38-12.15 2.2-1.94 1.94-13.12 14.96-23.24 27.73-0.09 0.09-0.18 0-0.18-0.09 1.85-16.2 3.17-33.27 3.17-36.09 0-8.89-4.4-10.21-7.04-10.21s-7.04 1.33-7.04 10.22c0 2.82 1.32 19.89 3.17 36.09 0 0.09-0.09 0.18-0.18 0.09-9.86-12.59-21.03-25.62-22.97-27.64-4.67-4.67-9.07-5.28-12.15-2.2-1.85 1.85-2.38 4.31-1.41 6.95 0.62 1.67 1.85 3.43 3.61 5.19 1.94 1.94 14.96 13.12 27.73 23.24 0.09 0.09 0 0.18-0.09 0.18-16.2-1.85-33.27-3.17-36.09-3.17-8.8-0.09-10.03 4.31-10.03 6.95s1.32 7.04 10.21 7.04c2.82 0 19.89-1.32 36.09-3.17 0.09 0 0.18 0.09 0.09 0.18-12.94 10.04-25.88 21.22-27.91 23.15-1.76 1.85-3.08 3.52-3.61 5.19-0.97 2.55-0.44 5.11 1.41 6.95 1.23 1.23 2.73 1.94 4.4 1.94 2.38 0 5.02-1.41 7.75-4.14 1.94-1.94 13.12-14.96 23.24-27.73 0.09-0.09 0.18 0 0.18 0.09-1.85 16.2-3.17 33.27-3.17 36.09 0 8.89 4.4 10.21 7.04 10.21s7.04-1.32 7.04-10.21c0-2.82-1.32-19.89-3.17-36.09 0-0.09 0.09-0.18 0.18-0.09 10.12 12.76 21.3 25.79 23.24 27.73 2.73 2.73 5.37 4.14 7.75 4.14 1.67 0 3.17-0.7 4.4-1.94 1.85-1.85 4.05-5.9-2.2-12.15-1.94-1.94-14.96-13.12-27.73-23.24-0.09-0.09 0-0.18 0.09-0.18 16.2 1.85 33.27 3.17 36.09 3.17 8.89 0 10.21-4.4 10.21-7.04s-1.59-6.94-10.48-6.94z" fill="url(#a)"/><path d="m64.02 11c2.9 0 4.4 2.55 4.4 7.57 0 2.38-1.23 19.28-3.17 35.74-0.09 0.79 0.18 1.58 0.7 2.11 0.53 0.62 1.23 0.88 2.02 0.88 0.88 0 1.58-0.35 2.11-1.06 10.22-12.93 21.31-25.78 23.07-27.54 2.11-2.11 4.23-3.34 5.99-3.34 0.88 0 1.76 0.35 2.46 1.06 2.02 2.02 1.32 4.84-2.2 8.45-1.76 1.76-14.61 12.85-27.55 23.06-0.88 0.7-1.23 1.94-0.88 3.08 0.35 1.06 1.41 1.85 2.55 1.85h0.35c16.37-1.94 33.27-3.17 35.74-3.17 1.85 0 7.48 0 7.48 4.4 0 2.9-2.55 4.4-7.57 4.4-2.38 0-19.28-1.23-35.74-3.17h-0.35c-1.14 0-2.2 0.7-2.55 1.85-0.35 1.06 0 2.29 0.88 3.08 12.94 10.03 25.79 21.13 27.46 22.8 3.52 3.52 4.31 6.34 2.2 8.45-0.7 0.79-1.58 1.14-2.55 1.14-1.67 0-3.7-1.14-5.9-3.34-1.76-1.76-12.85-14.61-23.06-27.55-0.53-0.7-1.32-1.06-2.11-1.06s-1.5 0.35-2.02 0.88c-0.53 0.62-0.79 1.32-0.7 2.11 1.94 16.37 3.17 33.27 3.17 35.74 0 5.02-1.5 7.48-4.4 7.48s-4.4-2.55-4.4-7.48c0-2.38 1.23-19.28 3.17-35.74 0.09-0.79-0.18-1.58-0.7-2.11-0.53-0.62-1.23-0.88-2.02-0.88-0.88 0-1.58 0.35-2.11 1.06-10.3 13.03-21.3 25.79-23.06 27.55-2.2 2.2-4.23 3.34-5.9 3.34-0.97 0-1.76-0.35-2.55-1.14-1.14-1.14-1.41-2.46-0.79-4.14 0.44-1.23 1.5-2.73 3.08-4.23 1.76-1.76 14.52-12.76 27.55-23.06 0.88-0.7 1.23-1.94 0.88-3.08-0.35-1.06-1.41-1.85-2.55-1.85h-0.35c-16.28 1.94-33.18 3.26-35.56 3.26-5.02 0-7.57-1.5-7.57-4.4s2.55-4.4 7.57-4.4c2.38 0 19.28 1.23 35.74 3.17h0.35c1.14 0 2.2-0.7 2.55-1.85 0.35-1.06 0-2.29-0.88-3.08-13.06-10.22-25.82-21.22-27.49-22.89-1.5-1.5-2.55-2.99-3.08-4.31-0.62-1.67-0.35-2.99 0.79-4.14 0.7-0.7 1.58-1.06 2.46-1.06 1.67 0 3.78 1.14 5.99 3.34 1.76 1.76 12.76 14.61 23.06 27.55 0.53 0.7 1.32 1.06 2.11 1.06s1.5-0.35 2.02-0.88c0.53-0.62 0.79-1.32 0.7-2.11-1.94-16.46-3.17-33.36-3.17-35.74 0.01-5.19 1.42-7.66 4.33-7.66m0-2.64c-2.64 0-7.04 1.32-7.04 10.21 0 2.82 1.32 19.89 3.17 36.09 0 0.09 0 0.09-0.09 0.09h-0.09c-10.04-12.85-21.21-25.88-23.15-27.9-2.73-2.73-5.46-4.14-7.83-4.14-1.58 0-3.08 0.62-4.31 1.85-1.85 1.85-2.38 4.31-1.41 6.95 0.62 1.67 1.85 3.43 3.61 5.19 1.94 1.94 14.96 13.12 27.73 23.24 0.09 0.09 0 0.18-0.09 0.18-16.2-1.85-33.27-3.17-36.09-3.17-8.8 0-10.12 4.4-10.12 7.04s1.32 7.04 10.21 7.04c2.82 0 19.89-1.32 36.09-3.17 0.09 0 0.18 0.09 0.09 0.18-12.86 10.04-25.8 21.22-27.83 23.15-1.76 1.76-2.99 3.52-3.61 5.19-0.97 2.64-0.44 5.11 1.41 6.95 1.23 1.23 2.73 1.94 4.4 1.94 2.38 0 5.02-1.41 7.75-4.14 1.94-1.94 13.12-14.96 23.24-27.73h0.09c0.09 0 0.09 0.09 0.09 0.09-1.85 16.2-3.17 33.27-3.17 36.09 0 8.8 4.4 10.12 7.04 10.12s7.04-1.32 7.04-10.12c0-2.82-1.32-19.89-3.17-36.09 0-0.09 0-0.09 0.09-0.09h0.09c10.12 12.76 21.3 25.79 23.24 27.73 2.73 2.73 5.37 4.14 7.75 4.14 1.67 0 3.17-0.7 4.4-1.94 1.85-1.85 4.05-5.9-2.2-12.15-1.94-1.94-14.96-13.12-27.73-23.24-0.09-0.09 0-0.18 0.09-0.18 16.2 1.85 33.27 3.17 36.09 3.17 8.89 0 10.21-4.4 10.21-7.04s-1.32-7.04-10.12-7.04c-2.82 0-19.89 1.32-36.09 3.17-0.09 0-0.18-0.09-0.09-0.18 12.76-10.12 25.79-21.3 27.73-23.24 6.25-6.25 4.05-10.3 2.2-12.15-1.23-1.23-2.73-1.85-4.31-1.85-2.38 0-5.11 1.32-7.83 4.14-1.94 1.94-13.12 14.96-23.24 27.73h-0.09c-0.09 0-0.09-0.09-0.09-0.09 1.85-16.2 3.17-33.27 3.17-36.09-0.19-8.69-4.59-9.93-7.23-9.93z" enable-background="new" fill="#424242" opacity=".2"/></svg>
