<svg width="20" height="20" viewBox="0 0 20 20" fill="none" xmlns="http://www.w3.org/2000/svg">
<circle cx="10" cy="10" r="10" fill="url(#paint0_radial_72_1862)"/>
<path opacity="0.8" fill-rule="evenodd" clip-rule="evenodd" d="M8.33333 7.49999C8.33333 8.42047 7.58714 9.16666 6.66667 9.16666C5.74619 9.16666 5 8.42047 5 7.49999C5 6.57952 5.74619 5.83333 6.66667 5.83333C7.58714 5.83333 8.33333 6.57952 8.33333 7.49999ZM15 7.49999C15 8.42047 14.2538 9.16666 13.3333 9.16666C12.4129 9.16666 11.6667 8.42047 11.6667 7.49999C11.6667 6.57952 12.4129 5.83333 13.3333 5.83333C14.2538 5.83333 15 6.57952 15 7.49999ZM6.38554 13.7605C6.17948 14.1198 6.30371 14.5781 6.66303 14.7842C7.02235 14.9902 7.48068 14.866 7.68675 14.5067C7.92019 14.0996 8.25691 13.7614 8.66291 13.5261C9.0689 13.2908 9.52979 13.1668 9.99904 13.1667C10.4683 13.1665 10.9293 13.2901 11.3354 13.5251C11.7416 13.7601 12.0786 14.0981 12.3123 14.505C12.5186 14.8642 12.977 14.9881 13.3362 14.7818C13.6954 14.5754 13.8193 14.117 13.613 13.7578C13.2477 13.1221 12.7212 12.5939 12.0866 12.2268C11.452 11.8596 10.7317 11.6664 9.9985 11.6667C9.2653 11.6669 8.54516 11.8607 7.91079 12.2283C7.27643 12.5959 6.7503 13.1244 6.38554 13.7605Z" fill="black"/>
<defs>
<radialGradient id="paint0_radial_72_1862" cx="0" cy="0" r="1" gradientUnits="userSpaceOnUse" gradientTransform="translate(10 4.58333) rotate(90) scale(15.4167)">
<stop offset="0.359375" stop-color="#65B3FB"/>
<stop offset="1" stop-color="#256BF2"/>
</radialGradient>
</defs>
</svg>
