<svg width="20" height="20" viewBox="0 0 20 20" fill="none" xmlns="http://www.w3.org/2000/svg">
<circle cx="10" cy="10" r="10" fill="url(#paint0_radial_72_1844)"/>
<path opacity="0.8" fill-rule="evenodd" clip-rule="evenodd" d="M8.33333 7.49999C8.33333 8.42047 7.58714 9.16666 6.66667 9.16666C5.74619 9.16666 5 8.42047 5 7.49999C5 6.57952 5.74619 5.83333 6.66667 5.83333C7.58714 5.83333 8.33333 6.57952 8.33333 7.49999ZM15 7.49999C15 8.42047 14.2538 9.16666 13.3333 9.16666C12.4129 9.16666 11.6667 8.42047 11.6667 7.49999C11.6667 6.57952 12.4129 5.83333 13.3333 5.83333C14.2538 5.83333 15 6.57952 15 7.49999ZM7.53238 12.6776C7.37535 12.2943 6.93734 12.1109 6.55404 12.2679C6.17075 12.4249 5.98732 12.8629 6.14435 13.2462C6.45676 14.0088 6.98828 14.6616 7.6717 15.1221C8.35513 15.5826 9.15976 15.8301 9.98384 15.8333C10.8079 15.8365 11.6144 15.5953 12.3014 15.1401C12.9884 14.6849 13.525 14.0362 13.8433 13.2761C14.0033 12.894 13.8233 12.4546 13.4412 12.2946C13.0591 12.1346 12.6197 12.3146 12.4597 12.6967C12.256 13.1832 11.9126 13.5983 11.4729 13.8896C11.0332 14.181 10.5171 14.3354 9.98966 14.3333C9.46224 14.3313 8.94728 14.1729 8.50989 13.8782C8.0725 13.5834 7.73232 13.1656 7.53238 12.6776Z" fill="black"/>
<defs>
<radialGradient id="paint0_radial_72_1844" cx="0" cy="0" r="1" gradientUnits="userSpaceOnUse" gradientTransform="translate(10 4.58333) rotate(90) scale(15.4167)">
<stop offset="0.359375" stop-color="#F2AD25"/>
<stop offset="1" stop-color="#F27B25"/>
</radialGradient>
</defs>
</svg>
