<svg width="20" height="20" viewBox="0 0 20 20" fill="none" xmlns="http://www.w3.org/2000/svg">
<circle cx="10" cy="10" r="10" fill="url(#paint0_radial_72_1884)"/>
<path opacity="0.8" fill-rule="evenodd" clip-rule="evenodd" d="M8.33333 7.49999C8.33333 8.42047 7.58714 9.16666 6.66667 9.16666C5.74619 9.16666 5 8.42047 5 7.49999C5 6.57952 5.74619 5.83333 6.66667 5.83333C7.58714 5.83333 8.33333 6.57952 8.33333 7.49999ZM15 7.49999C15 8.42047 14.2538 9.16666 13.3333 9.16666C12.4129 9.16666 11.6667 8.42047 11.6667 7.49999C11.6667 6.57952 12.4129 5.83333 13.3333 5.83333C14.2538 5.83333 15 6.57952 15 7.49999ZM10 11.6667C8.15905 11.6667 6.66667 13.159 6.66667 15H13.3333C13.3333 13.159 11.8409 11.6667 10 11.6667Z" fill="black"/>
<defs>
<radialGradient id="paint0_radial_72_1884" cx="0" cy="0" r="1" gradientUnits="userSpaceOnUse" gradientTransform="translate(10 4.58333) rotate(90) scale(15.4167)">
<stop offset="0.359375" stop-color="#6BEBD4"/>
<stop offset="1" stop-color="#077EA4"/>
</radialGradient>
</defs>
</svg>
