<svg width="20" height="20" viewBox="0 0 20 20" fill="none" xmlns="http://www.w3.org/2000/svg">
<circle cx="10" cy="10" r="10" fill="url(#paint0_radial_72_1850)"/>
<path opacity="0.8" fill-rule="evenodd" clip-rule="evenodd" d="M8.33333 7.49999C8.33333 8.42047 7.58714 9.16666 6.66667 9.16666C5.74619 9.16666 5 8.42047 5 7.49999C5 6.57952 5.74619 5.83333 6.66667 5.83333C7.58714 5.83333 8.33333 6.57952 8.33333 7.49999ZM15 7.49999C15 8.42047 14.2538 9.16666 13.3333 9.16666C12.4129 9.16666 11.6667 8.42047 11.6667 7.49999C11.6667 6.57952 12.4129 5.83333 13.3333 5.83333C14.2538 5.83333 15 6.57952 15 7.49999ZM7.5 13.3333C7.03976 13.3333 6.66667 13.7064 6.66667 14.1667C6.66667 14.6269 7.03976 15 7.5 15H12.5C12.9602 15 13.3333 14.6269 13.3333 14.1667C13.3333 13.7064 12.9602 13.3333 12.5 13.3333H7.5Z" fill="black"/>
<defs>
<radialGradient id="paint0_radial_72_1850" cx="0" cy="0" r="1" gradientUnits="userSpaceOnUse" gradientTransform="translate(10 4.58333) rotate(90) scale(15.4167)">
<stop offset="0.359375" stop-color="#AAAAAA"/>
<stop offset="1" stop-color="#5E5E5E"/>
</radialGradient>
</defs>
</svg>
