<svg width="20" height="20" viewBox="0 0 20 20" fill="none" xmlns="http://www.w3.org/2000/svg">
<circle cx="10" cy="10" r="10" fill="url(#paint0_radial_72_1897)"/>
<path opacity="0.8" fill-rule="evenodd" clip-rule="evenodd" d="M5.46845 5.14411C5.08781 4.88541 4.56951 4.98428 4.31081 5.36492C4.05212 5.74557 4.15098 6.26387 4.53163 6.52257L5.47766 7.16551C5.18224 7.46624 5.00002 7.87855 5.00002 8.33341C5.00002 9.25388 5.74622 10.0001 6.66669 10.0001C7.58716 10.0001 8.33336 9.25388 8.33336 8.33341C8.33336 8.23415 8.32468 8.13691 8.30804 8.04242C8.54426 7.66462 8.44124 7.16449 8.06956 6.91188L5.46845 5.14411ZM6.66305 14.7842C6.30373 14.5781 6.1795 14.1198 6.38556 13.7605C6.75032 13.1244 7.27645 12.5959 7.91081 12.2283C8.54518 11.8607 9.26532 11.6669 9.99852 11.6667C10.7317 11.6664 11.452 11.8596 12.0866 12.2268C12.7213 12.5939 13.2478 13.1221 13.613 13.7578C13.8193 14.117 13.6954 14.5754 13.3362 14.7818C12.9771 14.9881 12.5186 14.8642 12.3123 14.505C12.0786 14.0981 11.7416 13.7601 11.3354 13.5251C10.9293 13.2901 10.4683 13.1665 9.99906 13.1667C9.52981 13.1668 9.06892 13.2908 8.66293 13.5261C8.25693 13.7614 7.92021 14.0996 7.68677 14.5067C7.4807 14.866 7.02237 14.9902 6.66305 14.7842ZM15.7903 5.36492C15.5316 4.98428 15.0134 4.88541 14.6327 5.14411L12.0316 6.91188C11.7043 7.13434 11.5853 7.54876 11.7229 7.90254C11.6862 8.03998 11.6667 8.18441 11.6667 8.33341C11.6667 9.25388 12.4129 10.0001 13.3334 10.0001C14.2538 10.0001 15 9.25388 15 8.33341C15 7.89926 14.834 7.50388 14.562 7.20728L15.5695 6.52257C15.9502 6.26387 16.049 5.74557 15.7903 5.36492Z" fill="black"/>
<defs>
<radialGradient id="paint0_radial_72_1897" cx="0" cy="0" r="1" gradientUnits="userSpaceOnUse" gradientTransform="translate(10 4.58333) rotate(90) scale(15.4167)">
<stop offset="0.359375" stop-color="#F26325"/>
<stop offset="1" stop-color="#F24A25"/>
</radialGradient>
</defs>
</svg>
