<!-- Generated by IcoMoon.io -->
<svg version="1.1" xmlns="http://www.w3.org/2000/svg" width="24" height="24" viewBox="0 0 24 24">
<title>enlarge</title>
<path d="M21 19.031v-14.063h-18v14.063h18zM21 3q0.797 0 1.406 0.609t0.609 1.406v13.969q0 0.797-0.609 1.406t-1.406 0.609h-18q-0.797 0-1.406-0.609t-0.609-1.406v-13.969q0-0.797 0.609-1.406t1.406-0.609h18zM14.016 15.984l-2.016 2.531-2.016-2.531h4.031zM6 9.984v4.031l-2.484-2.016zM18 9.984l2.484 2.016-2.484 2.016v-4.031zM12 5.484l2.016 2.531h-4.031z"></path>
</svg>
