<svg width="24" height="24" viewBox="0 0 24 24" xmlns="http://www.w3.org/2000/svg">
    <path d="M3 1.5C2.17157 1.5 1.5 2.17157 1.5 3V8.25C1.5 8.66421 1.83579 9 2.25 9C2.66421 9 3 8.66421 3 8.25V3H8.25C8.66421 3 9 2.66421 9 2.25C9 1.83579 8.66421 1.5 8.25 1.5H3Z" />
    <path d="M21 22.5C21.8284 22.5 22.5 21.8284 22.5 21V15.75C22.5 15.3358 22.1642 15 21.75 15C21.3358 15 21 15.3358 21 15.75V21H15.75C15.3358 21 15 21.3358 15 21.75C15 22.1642 15.3358 22.5 15.75 22.5H21Z" />
    <path d="M3 22.5C2.17157 22.5 1.5 21.8284 1.5 21V15.75C1.5 15.3358 1.83579 15 2.25 15C2.66421 15 3 15.3358 3 15.75L3 21H8.25C8.66421 21 9 21.3358 9 21.75C9 22.1642 8.66421 22.5 8.25 22.5H3Z" />
    <path d="M22.5 3C22.5 2.17157 21.8284 1.5 21 1.5H15.75C15.3358 1.5 15 1.83579 15 2.25C15 2.66421 15.3358 3 15.75 3L21 3L21 8.25C21 8.66421 21.3358 9 21.75 9C22.1642 9 22.5 8.66421 22.5 8.25L22.5 3Z" />
</svg>
