<svg width="24" height="24" viewBox="0 0 24 24" xmlns="http://www.w3.org/2000/svg">
    <path fill-rule="evenodd" clip-rule="evenodd" d="M1.5 8.25C1.5 6.17893 3.17893 4.5 5.25 4.5H18.75C20.8211 4.5 22.5 6.17893 22.5 8.25V15.75C22.5 17.8211 20.8211 19.5 18.75 19.5H5.25C3.17893 19.5 1.5 17.8211 1.5 15.75V8.25ZM5.25 6H18.75C19.2678 6 19.7447 6.1749 20.125 6.46886L12.9 11.8875C12.3667 12.2875 11.6334 12.2875 11.1 11.8875L3.87508 6.46882C4.25531 6.17489 4.73223 6 5.25 6ZM3.05983 7.73238C3.0207 7.89857 3 8.07187 3 8.25V15.75C3 16.9926 4.00736 18 5.25 18H18.75C19.9926 18 21 16.9926 21 15.75V8.25C21 8.07189 20.9793 7.89861 20.9402 7.73244L13.8 13.0875C12.7334 13.8875 11.2667 13.8875 10.2 13.0875L3.05983 7.73238Z" />
</svg>
