<svg width="16" height="16" viewBox="0 0 16 16" fill="none" xmlns="http://www.w3.org/2000/svg">
<path fill-rule="evenodd" clip-rule="evenodd" d="M1.33331 8.00004C1.33331 11.6819 4.31808 14.6667 7.99998 14.6667C11.6819 14.6667 14.6666 11.6819 14.6666 8.00004C14.6666 4.31814 11.6819 1.33337 7.99998 1.33337C4.31808 1.33337 1.33331 4.31814 1.33331 8.00004ZM13.3333 8.00005C13.3333 10.9456 10.9455 13.3334 7.99998 13.3334C5.05446 13.3334 2.66665 10.9456 2.66665 8.00005C2.66665 5.05453 5.05446 2.66672 7.99998 2.66672C10.9455 2.66672 13.3333 5.05453 13.3333 8.00005ZM7.33331 4.66673C7.33331 4.29854 7.63179 4.00006 7.99998 4.00006C8.36817 4.00006 8.66665 4.29854 8.66665 4.66673V8.00006C8.66665 8.36825 8.36817 8.66673 7.99998 8.66673C7.63179 8.66673 7.33331 8.36825 7.33331 8.00006V4.66673ZM7.99998 10C7.63179 10 7.33331 10.2985 7.33331 10.6667C7.33331 11.0349 7.63179 11.3334 7.99998 11.3334C8.36817 11.3334 8.66665 11.0349 8.66665 10.6667C8.66665 10.2985 8.36817 10 7.99998 10Z" />
</svg>
