<svg width="18" height="16" viewBox="0 0 18 16" fill="none" xmlns="http://www.w3.org/2000/svg">
<path fill-rule="evenodd" clip-rule="evenodd" d="M17.2332 14.3254L9.70838 0.910718C9.63451 0.77902 9.52397 0.670633 9.38965 0.598199C8.99846 0.387243 8.50693 0.52716 8.29177 0.910713L0.766813 14.3254C0.701168 14.4424 0.666748 14.5738 0.666748 14.7073C0.666748 15.1451 1.02867 15.4999 1.47512 15.4999H16.5249C16.6611 15.4999 16.7951 15.4662 16.9145 15.4018C17.3057 15.1909 17.4484 14.7089 17.2332 14.3254ZM2.84224 13.9147L9.00002 2.93733L15.1577 13.9147H2.84224ZM8.19177 11.5371C8.19177 11.0993 8.54663 10.7445 8.98437 10.7445H9.01591C9.45365 10.7445 9.80851 11.0993 9.80851 11.5371C9.80851 11.9748 9.45365 12.3297 9.01591 12.3297H8.98437C8.54663 12.3297 8.19177 11.9748 8.19177 11.5371ZM9.00014 6.7815C8.55369 6.7815 8.19177 7.14341 8.19177 7.58986V9.14351C8.19177 9.58996 8.55369 9.95188 9.00014 9.95188C9.44659 9.95188 9.80851 9.58996 9.80851 9.14351V7.58986C9.80851 7.14341 9.44659 6.7815 9.00014 6.7815Z" fill="#040404"/>
</svg>
