<svg width="16" height="16" viewBox="0 0 16 16" xmlns="http://www.w3.org/2000/svg">
<path fill-rule="evenodd" clip-rule="evenodd" d="M8 14.6667C4.3181 14.6667 1.33333 11.682 1.33333 8.00007C1.33333 4.31817 4.3181 1.3334 8 1.3334C11.6819 1.3334 14.6667 4.31817 14.6667 8.00007C14.6667 11.682 11.6819 14.6667 8 14.6667ZM7.33333 4.66676C7.33333 4.29857 7.6318 4.00009 8 4.00009C8.36819 4.00009 8.66666 4.29857 8.66666 4.66676V8.00009C8.66666 8.36828 8.36819 8.66676 8 8.66676C7.6318 8.66676 7.33333 8.36828 7.33333 8.00009V4.66676ZM8 10.0001C7.63181 10.0001 7.33333 10.2985 7.33333 10.6667C7.33333 11.0349 7.63181 11.3334 8 11.3334C8.36818 11.3334 8.66666 11.0349 8.66666 10.6667C8.66666 10.2985 8.36818 10.0001 8 10.0001Z" />
</svg>
