<svg width="22" height="22" viewBox="0 0 22 22" fill="none" xmlns="http://www.w3.org/2000/svg">
<path fill-rule="evenodd" clip-rule="evenodd" d="M17.4166 8.24998L17.4166 10.0833L12.8333 10.0833C12.327 10.0833 11.9166 9.67291 11.9166 9.16665L11.9166 4.58331L13.75 4.58331L13.75 8.24998L17.4166 8.24998Z" />
<path fill-rule="evenodd" clip-rule="evenodd" d="M4.58337 8.24998L4.58337 10.0833L9.16671 10.0833C9.67297 10.0833 10.0834 9.67291 10.0834 9.16665L10.0834 4.58331L8.25004 4.58331L8.25004 8.24998L4.58337 8.24998Z" />
<path fill-rule="evenodd" clip-rule="evenodd" d="M17.4166 13.75L17.4166 11.9167L12.8333 11.9167C12.327 11.9167 11.9166 12.3271 11.9166 12.8334L11.9166 17.4167L13.75 17.4167L13.75 13.75L17.4166 13.75Z" />
<path fill-rule="evenodd" clip-rule="evenodd" d="M4.58337 13.75L4.58337 11.9167L9.16671 11.9167C9.67297 11.9167 10.0834 12.3271 10.0834 12.8334L10.0834 17.4167L8.25004 17.4167L8.25004 13.75L4.58337 13.75Z" />
</svg>
