<svg width="24" height="24" viewBox="0 0 24 24" xmlns="http://www.w3.org/2000/svg">
    <path d="M13.5 9C13.5 9.82843 14.1716 10.5 15 10.5H20.25C20.6642 10.5 21 10.1642 21 9.75C21 9.33579 20.6642 9 20.25 9H15V3.75C15 3.33579 14.6642 3 14.25 3C13.8358 3 13.5 3.33579 13.5 3.75V9Z" />
    <path d="M10.5 15C10.5 14.1716 9.82843 13.5 9 13.5L3.75 13.5C3.33579 13.5 3 13.8358 3 14.25C3 14.6642 3.33579 15 3.75 15H9L9 20.25C9 20.6642 9.33579 21 9.75 21C10.1642 21 10.5 20.6642 10.5 20.25L10.5 15Z" />
    <path d="M10.5 9C10.5 9.82843 9.82843 10.5 9 10.5H3.75C3.33579 10.5 3 10.1642 3 9.75C3 9.33579 3.33579 9 3.75 9L9 9V3.75C9 3.33579 9.33579 3 9.75 3C10.1642 3 10.5 3.33579 10.5 3.75V9Z" />
    <path d="M15 13.5C14.1716 13.5 13.5 14.1716 13.5 15L13.5 20.25C13.5 20.6642 13.8358 21 14.25 21C14.6642 21 15 20.6642 15 20.25V15H20.25C20.6642 15 21 14.6642 21 14.25C21 13.8358 20.6642 13.5 20.25 13.5L15 13.5Z" />
</svg>
