<svg width="22" height="22" viewBox="0 0 22 22" fill="none" xmlns="http://www.w3.org/2000/svg">
<path fill-rule="evenodd" clip-rule="evenodd" d="M11 20.1666C5.93737 20.1666 1.83331 16.0626 1.83331 11C1.83331 5.93737 5.93737 1.83331 11 1.83331C16.0626 1.83331 20.1666 5.93737 20.1666 11C20.1666 16.0626 16.0626 20.1666 11 20.1666ZM11 18.3333C15.0501 18.3333 18.3333 15.0501 18.3333 11C18.3333 6.94989 15.0501 3.66665 11 3.66665C6.94989 3.66665 3.66665 6.94989 3.66665 11C3.66665 15.0501 6.94989 18.3333 11 18.3333ZM9.16665 9.62498C9.16665 10.3844 8.55104 11 7.79165 11C7.03225 11 6.41665 10.3844 6.41665 9.62498C6.41665 8.86559 7.03225 8.24998 7.79165 8.24998C8.55104 8.24998 9.16665 8.86559 9.16665 9.62498ZM14.2083 11C14.9677 11 15.5833 10.3844 15.5833 9.62498C15.5833 8.86559 14.9677 8.24998 14.2083 8.24998C13.4489 8.24998 12.8333 8.86559 12.8333 9.62498C12.8333 10.3844 13.4489 11 14.2083 11ZM11 16.5C12.9241 16.5 14.6174 15.512 15.6003 14.0156L14.1754 12.8361C13.5323 13.9472 12.3344 14.6666 11 14.6666C9.68113 14.6666 8.48516 13.9448 7.83616 12.834L6.41346 14.0152C7.39836 15.5059 9.08486 16.5 11 16.5Z" fill="white"/>
</svg>
