<svg width="24" height="24" viewBox="0 0 24 24" fill="none" xmlns="http://www.w3.org/2000/svg">
    <path fill-rule="evenodd" clip-rule="evenodd" d="M12 5.77465L10.9742 9.05416C10.6778 10.0019 9.79505 10.6433 8.80206 10.6323L5.36607 10.5945L8.16808 12.5835C8.97785 13.1583 9.31502 14.1961 8.99778 15.1371L7.90002 18.3932L10.6576 16.343C11.4545 15.7505 12.5456 15.7505 13.3425 16.343L16.1001 18.3932L15.0023 15.1371C14.6851 14.1961 15.0222 13.1583 15.832 12.5835L18.634 10.5945L15.198 10.6323C14.205 10.6433 13.3223 10.0019 13.0258 9.05416L12 5.77465ZM12.7158 3.03843C12.4964 2.33696 11.5037 2.33696 11.2842 3.03843L9.54263 8.60636C9.44381 8.92229 9.14957 9.13606 8.81858 9.13242L2.98497 9.0682C2.25003 9.06011 1.94325 10.0043 2.54258 10.4297L7.29982 13.8067C7.56974 13.9983 7.68213 14.3442 7.57638 14.6579L5.71262 20.1861C5.47782 20.8826 6.28099 21.4661 6.87081 21.0276L11.5525 17.5467C11.8182 17.3492 12.1819 17.3492 12.4475 17.5467L17.1293 21.0276C17.7191 21.4661 18.5223 20.8826 18.2875 20.1861L16.4237 14.6579C16.3179 14.3442 16.4303 13.9983 16.7003 13.8067L21.4575 10.4297C22.0568 10.0043 21.75 9.06011 21.0151 9.0682L15.1815 9.13242C14.8505 9.13606 14.5563 8.92228 14.4574 8.60636L12.7158 3.03843Z" fill="white"/>
</svg>
