<!-- Generated by IcoMoon.io -->
<svg version="1.1" xmlns="http://www.w3.org/2000/svg" width="32" height="32" viewBox="0 0 32 32">
<title>feedback</title>
<path d="M1.333 28h5.333v-16h-5.333v16zM30.667 13.333c0-1.467-1.2-2.667-2.667-2.667h-8.413l1.267-6.093 0.040-0.427c0-0.547-0.227-1.053-0.587-1.413l-1.413-1.4-8.773 8.787c-0.493 0.48-0.787 1.147-0.787 1.88v13.333c0 1.467 1.2 2.667 2.667 2.667h12c1.107 0 2.053-0.667 2.453-1.627l4.027-9.4c0.12-0.307 0.187-0.627 0.187-0.973v-2.547l-0.013-0.013 0.013-0.107z"></path>
</svg>
