<svg width="24" height="24" viewBox="0 0 24 24" xmlns="http://www.w3.org/2000/svg">
    <path fill-rule="evenodd" clip-rule="evenodd" d="M14.1345 3.19052C12.8504 2.30148 11.1496 2.30148 9.86546 3.19052L3.11546 7.8636C2.10372 8.56404 1.5 9.71628 1.5 10.9468V18.75C1.5 20.821 3.17893 22.5 5.25 22.5H18.75C20.8211 22.5 22.5 20.821 22.5 18.75V10.9468C22.5 9.71628 21.8963 8.56404 20.8845 7.8636L14.1345 3.19052ZM10.7193 4.42381C11.4898 3.89039 12.5102 3.89039 13.2807 4.42381L20.0307 9.09689C20.0939 9.14064 20.1545 9.18732 20.2122 9.23669L12.9145 14.8503C12.8616 14.891 12.8066 14.9277 12.75 14.9605V8.99997L14.55 10.35C14.8814 10.5985 15.3515 10.5314 15.6 10.2C15.8486 9.86863 15.7814 9.39853 15.45 9.15L12.45 6.9C12.1834 6.7 11.8167 6.7 11.55 6.9L8.55004 9.15C8.21867 9.39853 8.15152 9.86863 8.40004 10.2C8.64857 10.5314 9.11867 10.5985 9.45004 10.35L11.25 9.00003V14.9605C11.1934 14.9277 11.1384 14.891 11.0854 14.8503L3.78777 9.23671C3.84553 9.18733 3.90608 9.14064 3.96928 9.09689L10.7193 4.42381ZM3.03519 10.5503C3.01197 10.68 3 10.8126 3 10.9468V18.75C3 19.9926 4.00736 21 5.25 21H18.75C19.9926 21 21 19.9926 21 18.75V10.9468C21 10.8126 20.988 10.68 20.9648 10.5502L13.8291 16.0392C12.7508 16.8687 11.2492 16.8687 10.1708 16.0392L3.03519 10.5503Z" />
</svg>
