<svg width="22" height="22" viewBox="0 0 22 22" fill="none" xmlns="http://www.w3.org/2000/svg">
<path fill-rule="evenodd" clip-rule="evenodd" d="M2.27842 7.06629L10.5284 2.11629C10.8187 1.94211 11.1814 1.94211 11.4717 2.11629L19.7217 7.06629C19.9978 7.23195 20.1667 7.53033 20.1667 7.85232V19.25C20.1667 19.7562 19.7563 20.1666 19.25 20.1666H2.75004C2.24378 20.1666 1.83337 19.7562 1.83337 19.25V7.85232C1.83337 7.53033 2.00231 7.23195 2.27842 7.06629ZM3.66671 10.0428V18.3333H18.3334V10.0428L11.5367 14.9514C11.2164 15.1828 10.7837 15.1828 10.4633 14.9514L3.66671 10.0428ZM4.11297 8.10358L11 13.0776L17.8871 8.10358L11 3.97133L4.11297 8.10358ZM9.05228 8.70755C8.62239 8.97492 8.05714 8.84317 7.78976 8.41327C7.52239 7.98337 7.65414 7.41812 8.08404 7.15075L10.5159 5.63825C10.813 5.45351 11.1892 5.45392 11.4859 5.63932L13.9127 7.15608C14.342 7.42439 14.4725 7.98993 14.2042 8.41924C13.9359 8.84855 13.3703 8.97906 12.941 8.71074L11.9167 8.07054V11C11.9167 11.5062 11.5063 11.9166 11 11.9166C10.4938 11.9166 10.0834 11.5062 10.0834 11V8.06626L9.05228 8.70755Z" />
</svg>
