<?xml version="1.0" encoding="UTF-8" standalone="no"?>
<!-- Generated by IcoMoon.io -->

<svg
   xmlns:dc="http://purl.org/dc/elements/1.1/"
   xmlns:cc="http://creativecommons.org/ns#"
   xmlns:rdf="http://www.w3.org/1999/02/22-rdf-syntax-ns#"
   xmlns:svg="http://www.w3.org/2000/svg"
   xmlns="http://www.w3.org/2000/svg"
   xmlns:sodipodi="http://sodipodi.sourceforge.net/DTD/sodipodi-0.dtd"
   xmlns:inkscape="http://www.inkscape.org/namespaces/inkscape"
   version="1.1"
   width="24"
   height="24"
   viewBox="0 0 24 24"
   id="svg6"
   sodipodi:docname="follow-me.svg"
   inkscape:version="0.92.4 (5da689c313, 2019-01-14)">
  <metadata
     id="metadata12">
    <rdf:RDF>
      <cc:Work
         rdf:about="">
        <dc:format>image/svg+xml</dc:format>
        <dc:type
           rdf:resource="http://purl.org/dc/dcmitype/StillImage" />
      </cc:Work>
    </rdf:RDF>
  </metadata>
  <defs
     id="defs10" />
  <sodipodi:namedview
     pagecolor="#ffffff"
     bordercolor="#666666"
     borderopacity="1"
     objecttolerance="10"
     gridtolerance="10"
     guidetolerance="10"
     inkscape:pageopacity="0"
     inkscape:pageshadow="2"
     inkscape:window-width="1920"
     inkscape:window-height="983"
     id="namedview8"
     showgrid="true"
     showguides="true"
     inkscape:zoom="11.313709"
     inkscape:cx="-8.7418673"
     inkscape:cy="14.109548"
     inkscape:window-x="0"
     inkscape:window-y="27"
     inkscape:window-maximized="1"
     inkscape:current-layer="svg6">
    <inkscape:grid
       type="xygrid"
       id="grid3719" />
  </sodipodi:namedview>
  <title
     id="title2">tiles-many</title>
  <g
     id="g840"
     transform="matrix(0.22994778,0,0,0.22994778,0.53555164,1.0061311)">
    <path
       id="path823"
       d="M 15.77,51.826"
       inkscape:connector-curvature="0" />
    <path
       id="path825"
       d="m 90.851084,39.341408 -8.225,-21.027 c -1.518,-3.969 -4.869,-7.378001 -11.193,-7.359001 h -11.565 V 5.4534064 c -0.024,-2.187 -1.213,-3.2979998 -3.154,-3.2789998 h -6.803 -6.678 c -1.962,-0.019 -3.151,1.0919998 -3.154,3.2789998 v 5.5020006 h -11.75 c -6.294,-0.019 -9.644,3.390001 -11.193,7.359001 l -8.2259972,21.027 c -3.239,0.39 -8.99999965,4.172 -9.02899965,11.319 v 26.714 H 7.9190868 v 8.535 c -0.021,10.469 14.9849972,10.346 14.9679972,0 v -8.535 h 27.024 26.963 v 8.535 c 0.018,10.346 15.025,10.469 15.029,0 v -8.535 h 7.978 v -26.714 c 0.006,-7.147 -5.761,-10.929 -9.03,-11.319 z m -75.2,21.708 c -3.839,-10e-4 -6.9439972,-3.166 -6.9269972,-7.049 -0.018,-3.933 3.0869972,-7.1 6.9269972,-7.113 3.816,0.014 6.919,3.181 6.926,7.113 -0.007,3.883 -3.11,7.048 -6.926,7.049 z m 34.259,-22.201 h -0.062 -32.404 l 6.183,-16.266 c 0.758,-2.31 1.918,-3.984 4.639,-4.02 h 21.583 0.062 21.645 c 2.69,0.036 3.85,1.71 4.639,4.02 l 6.185,16.266 z m 34.262,22.201 c -3.848,-10e-4 -6.953,-3.166 -6.928,-7.049 -0.025,-3.933 3.08,-7.1 6.928,-7.113 3.809,0.014 6.91,3.181 6.929,7.113 -0.019,3.883 -3.121,7.048 -6.929,7.049 z"
       inkscape:connector-curvature="0" />
    <path
       id="path827"
       d="M 84.291,51.826"
       inkscape:connector-curvature="0" />
  </g>
</svg>
