<?xml version="1.0" encoding="utf-8"?>
<!-- Generator: Adobe Illustrator 24.0.3, SVG Export Plug-In . SVG Version: 6.00 Build 0)  -->
<svg version="1.1" id="Layer_1" xmlns="http://www.w3.org/2000/svg" xmlns:xlink="http://www.w3.org/1999/xlink" x="0px" y="0px"
	 width="32px" height="32px" viewBox="0 0 32 32" style="enable-background:new 0 0 32 32;" xml:space="preserve">
<path d="M27,22.6c0,0.2-0.1,0.4-0.1,0.6l1.1,1.1c0.3-0.5,0.5-1.1,0.5-1.7c0-0.2-0.1-0.8-0.2-1L25,9c-0.2-0.6-0.6-1.2-1.2-1.6
	c-0.1-0.6-0.4-1.1-0.9-1.5c-0.5-0.4-1.2-0.6-2-0.6s-1.4,0.2-2,0.6C18.3,6.3,18,7,18,7.6c0,0.2,0,0.5,0.1,0.7
	c-0.2,0.4-0.4,0.8-0.4,1.3v0.8c-0.5-0.2-1.1-0.3-1.8-0.3s-1.2,0.1-1.8,0.3V9.6c0-0.4-0.1-0.9-0.4-1.3C14,8.1,14,7.9,14,7.6
	c0-0.7-0.3-1.3-0.9-1.7c-0.5-0.4-1.2-0.6-2-0.6c-0.6,0-1.2,0.2-1.7,0.4l14.2,14.2C25.4,20.1,27,21.2,27,22.6z"/>
<path d="M28,26.3L5.7,4L4,5.7l3.1,3.1C7,8.8,7,8.9,7,9L3.7,21.6c-0.1,0.2-0.2,0.8-0.2,1c0,1.2,0.6,2.2,1.7,3c1,0.7,2.3,1.1,3.7,1.1
	s2.7-0.4,3.7-1.1c1.1-0.8,1.7-1.9,1.7-3v-2.1c0.4,0.5,1,0.9,1.8,0.9s1.4-0.3,1.8-0.9v2.1c0,1.2,0.6,2.2,1.7,3c1,0.7,2.3,1.1,3.7,1.1
	c0.6,0,1.1-0.1,1.7-0.2l-1.1-1.1l2.6,2.6L28,26.3z M11.7,24.4c-0.8,0.6-1.8,0.9-2.8,0.9S6.8,24.9,6,24.4C5.3,23.9,5,23.2,5,22.6
	c0-1.5,1.9-2.7,3.9-2.7c1.1,0,2.1,0.3,2.8,0.9c0.7,0.5,1.1,1.2,1.1,1.8S12.4,23.9,11.7,24.4z M16,19.8c-0.4,0-0.7-0.3-0.7-0.7
	s0.3-0.7,0.7-0.7s0.7,0.3,0.7,0.7S16.4,19.8,16,19.8z M23.1,25.3c-1.1,0-2.1-0.3-2.8-0.9c-0.7-0.5-1.1-1.2-1.1-1.8
	c0-0.4,0.2-0.8,0.4-1.2l3.9,3.9C23.4,25.2,23.3,25.3,23.1,25.3z"/>
</svg>
