<?xml version="1.0" encoding="utf-8"?>
<!-- Generator: Adobe Illustrator 24.0.3, SVG Export Plug-In . SVG Version: 6.00 Build 0)  -->
<svg version="1.1" id="Layer_1" xmlns="http://www.w3.org/2000/svg" xmlns:xlink="http://www.w3.org/1999/xlink" x="0px" y="0px"
	 width="32px" height="32px" viewBox="0 0 32 32" style="enable-background:new 0 0 32 32;" xml:space="preserve">
<g>
	<g>
		<path d="M28.3,21.6L25,9c-0.2-0.6-0.6-1.2-1.2-1.6c-0.1-0.6-0.4-1.1-0.9-1.5c-0.5-0.4-1.2-0.6-2-0.6s-1.4,0.2-2,0.6
			C18.3,6.3,18,7,18,7.6c0,0.2,0,0.5,0.1,0.7c-0.2,0.4-0.4,0.8-0.4,1.3v0.8c-0.5-0.2-1.1-0.3-1.8-0.3s-1.2,0.1-1.8,0.3V9.6
			c0-0.4-0.1-0.9-0.4-1.3C14,8.1,14,7.9,14,7.6c0-0.7-0.3-1.3-0.9-1.7c-0.5-0.4-1.2-0.6-2-0.6s-1.4,0.2-2,0.6
			C8.5,6.3,8.2,6.8,8.2,7.4C7.6,7.8,7.1,8.4,7,9L3.7,21.6c-0.1,0.2-0.2,0.8-0.2,1c0,1.2,0.6,2.2,1.7,3c1,0.7,2.3,1.1,3.7,1.1
			s2.7-0.4,3.7-1.1c1.1-0.8,1.7-1.9,1.7-3v-2.1c0.4,0.5,1,0.9,1.8,0.9s1.4-0.3,1.8-0.9v2.1c0,1.2,0.6,2.2,1.7,3
			c1,0.7,2.3,1.1,3.7,1.1c1.4,0,2.7-0.4,3.7-1.1c1.1-0.8,1.7-1.9,1.7-3C28.5,22.4,28.4,21.8,28.3,21.6z M11.7,24.4
			c-0.8,0.6-1.8,0.9-2.8,0.9S6.8,24.9,6,24.4C5.3,23.9,5,23.2,5,22.6c0-1.5,1.9-2.7,3.9-2.7c1.1,0,2.1,0.3,2.8,0.9
			c0.7,0.5,1.1,1.2,1.1,1.8S12.4,23.9,11.7,24.4z M16,19.8c-0.4,0-0.7-0.3-0.7-0.7s0.3-0.7,0.7-0.7c0.4,0,0.7,0.3,0.7,0.7
			S16.4,19.8,16,19.8z M26,24.4c-0.8,0.6-1.8,0.9-2.8,0.9c-1.1,0-2.1-0.3-2.8-0.9c-0.7-0.5-1.1-1.2-1.1-1.8s0.4-1.3,1.1-1.8
			c0.8-0.6,1.8-0.9,2.8-0.9c2,0,3.9,1.2,3.9,2.7C27,23.2,26.7,23.9,26,24.4z"/>
	</g>
</g>
</svg>
