<svg width="24" height="24" viewBox="0 0 24 24" xmlns="http://www.w3.org/2000/svg">
    <path fill-rule="evenodd" clip-rule="evenodd" d="M15.75 12C15.75 14.0711 14.0711 15.75 12 15.75C9.92896 15.75 8.25003 14.0711 8.25003 12C8.25003 9.92893 9.92896 8.25 12 8.25C14.0711 8.25 15.75 9.92893 15.75 12ZM14.25 12C14.25 13.2426 13.2427 14.25 12 14.25C10.7574 14.25 9.75003 13.2426 9.75003 12C9.75003 10.7574 10.7574 9.75 12 9.75C13.2427 9.75 14.25 10.7574 14.25 12Z" />
    <path fill-rule="evenodd" clip-rule="evenodd" d="M9.02643 3.44749C9.02643 2.37832 9.89315 1.5 10.9623 1.5H13.0377C14.1069 1.5 14.9736 2.37832 14.9736 3.44748C14.9736 4.92702 16.5781 5.86926 17.8566 5.12458C18.7767 4.58861 19.9573 4.90494 20.4862 5.82918L21.5414 7.67299C22.072 8.60019 21.7554 9.78179 20.8323 10.3195C19.5443 11.0697 19.5443 12.9303 20.8323 13.6805C21.7554 14.2182 22.072 15.3998 21.5414 16.327L20.4862 18.1708C19.9573 19.0951 18.7767 19.4114 17.8566 18.8754C16.5781 18.1308 14.9736 19.073 14.9736 20.5525C14.9736 21.6217 14.1069 22.5 13.0377 22.5H10.9623C9.89315 22.5 9.02643 21.6217 9.02643 20.5525C9.02643 19.073 7.42192 18.1307 6.14344 18.8754C5.22327 19.4114 4.04264 19.0951 3.51373 18.1708L2.45859 16.327C1.92798 15.3998 2.24458 14.2182 3.16769 13.6805C4.45563 12.9303 4.45563 11.0697 3.16769 10.3195C2.24458 9.7818 1.92798 8.60019 2.45859 7.67299L3.51373 5.8292C4.04264 4.90495 5.22327 4.58862 6.14344 5.12459C7.42192 5.86928 9.02643 4.92704 9.02643 3.44749ZM10.9623 3H13.0377C13.2668 3 13.4736 3.19507 13.4736 3.44748C13.4736 6.05746 16.31 7.76133 18.6115 6.42073C18.812 6.30398 19.0691 6.37289 19.1843 6.57421L20.2395 8.41802C20.3609 8.63009 20.2884 8.90035 20.0773 9.02333C17.796 10.3521 17.796 13.6479 20.0773 14.9767C20.2884 15.0997 20.3609 15.3699 20.2395 15.582L19.1843 17.4258C19.0691 17.6271 18.812 17.696 18.6115 17.5793C16.31 16.2387 13.4736 17.9425 13.4736 20.5525C13.4736 20.8049 13.2668 21 13.0377 21H10.9623C10.7332 21 10.5264 20.8049 10.5264 20.5525C10.5264 17.9425 7.69 16.2387 5.38846 17.5793C5.18802 17.696 4.93084 17.6271 4.81563 17.4258L3.76048 15.582C3.63912 15.3699 3.71153 15.0997 3.92267 14.9767C6.20397 13.6479 6.20397 10.3521 3.92267 9.02333C3.71153 8.90035 3.63912 8.63009 3.76048 8.41802L4.81563 6.57423C4.93084 6.3729 5.18802 6.30399 5.38846 6.42074C7.69001 7.76135 10.5264 6.05749 10.5264 3.44749C10.5264 3.19507 10.7332 3 10.9623 3Z" />
</svg>
