<svg width="24" height="24" viewBox="0 0 24 24" fill="none" xmlns="http://www.w3.org/2000/svg">
<path d="M12 15C13.6569 15 15 13.6569 15 12C15 10.3431 13.6569 9 12 9C10.3431 9 9 10.3431 9 12C9 13.6569 10.3431 15 12 15Z" stroke="currentColor" stroke-width="2"/>
<path d="M19.4683 12.6667C19.4981 12.4487 19.513 12.2277 19.513 12C19.513 11.7723 19.4981 11.5513 19.4683 11.3333L20.9725 10.2042C21.1082 10.0958 21.1331 9.90278 21.0315 9.76389L19.5315 7.23611C19.4299 7.09722 19.2358 7.04861 19.0764 7.12083L17.2802 7.86667C16.8431 7.54028 16.3517 7.275 15.8179 7.08333L15.4915 5.12917C15.4617 4.93889 15.2924 4.80001 15.0915 4.80001H12.9082C12.7073 4.80001 12.538 4.93889 12.5082 5.12917L12.1818 7.08333C11.648 7.275 11.1566 7.54028 10.7195 7.86667L8.92332 7.12083C8.76388 7.04861 8.56979 7.09722 8.46812 7.23611L6.96812 9.76389C6.86645 9.90278 6.89138 10.0958 7.02707 10.2042L8.53132 11.3333C8.50152 11.5513 8.48662 11.7723 8.48662 12C8.48662 12.2277 8.50152 12.4487 8.53132 12.6667L7.02707 13.7958C6.89138 13.9042 6.86645 14.0972 6.96812 14.2361L8.46812 16.7639C8.56979 16.9028 8.76388 16.9514 8.92332 16.8792L10.7195 16.1333C11.1566 16.4597 11.648 16.725 12.1818 16.9167L12.5082 18.8708C12.538 19.0611 12.7073 19.2 12.9082 19.2H15.0915C15.2924 19.2 15.4617 19.0611 15.4915 18.8708L15.8179 16.9167C16.3517 16.725 16.8431 16.4597 17.2802 16.1333L19.0764 16.8792C19.2358 16.9514 19.4299 16.9028 19.5315 16.7639L21.0315 14.2361C21.1331 14.0972 21.1082 13.9042 20.9725 13.7958L19.4683 12.6667Z" stroke="currentColor" stroke-width="2"/>
</svg>
