<?xml version="1.0" encoding="UTF-8"?>
<!DOCTYPE svg PUBLIC "-//W3C//DTD SVG 1.1//EN" "http://www.w3.org/Graphics/SVG/1.1/DTD/svg11.dtd">
<!-- Creator: CorelDRAW -->
<svg xmlns="http://www.w3.org/2000/svg" xml:space="preserve" width="6.82666in" height="6.82666in" style="shape-rendering:geometricPrecision; text-rendering:geometricPrecision; image-rendering:optimizeQuality; fill-rule:evenodd; clip-rule:evenodd"
viewBox="0 0 6.82666 6.82666"
 xmlns:xlink="http://www.w3.org/1999/xlink">
 <defs>
  <style type="text/css">
   <![CDATA[
    .fil1 {fill:#FEFEFE;fill-rule:nonzero}
    .fil0 {fill:url(#id0)}
   ]]>
  </style>
  <linearGradient id="id0" gradientUnits="userSpaceOnUse" x1="1.68784" y1="0.424697" x2="5.13882" y2="6.40196">
   <stop offset="0" style="stop-color:#444FF5"/>
   <stop offset="0.490196" style="stop-color:#21BFDB"/>
   <stop offset="1" style="stop-color:#1DABB6"/>
  </linearGradient>
 </defs>
 <g id="Layer_x0020_1">
  <metadata id="CorelCorpID_0Corel-Layer"/>
  <path class="fil0" d="M6.36936 1.70667c0.942567,1.63257 0.383209,3.72013 -1.24937,4.6627 -1.63257,0.942567 -3.72013,0.383209 -4.6627,-1.24937 -0.942567,-1.63257 -0.383209,-3.72013 1.24937,-4.6627 1.63257,-0.942567 3.72013,-0.383209 4.6627,1.24937z"/>
  <g id="_435920192">
   <path id="_435919808" class="fil1" d="M5.72783 2.83175l-2.25944 2.81655 0.000141732 0.000110236c-0.0244567,0.0304843 -0.0689961,0.035374 -0.0994803,0.0109213 -0.0055315,-0.00443701 -0.0102126,-0.00953543 -0.0140354,-0.0150906l-2.25925 -2.81631 0.0550118 -0.0442283 -0.0552008 0.0442795c-0.0244528,-0.0304803 -0.019563,-0.0750236 0.0109213,-0.0994764 0.0130709,-0.0104882 0.0287283,-0.0155748 0.0442795,-0.0155669l0 0 4.52511 0c0.0390787,0 0.0707638,0.0316811 0.0707638,0.0707638 0,0.0185512 -0.00714173,0.0354291 -0.0188189,0.0480472zm-2.3145 2.65958l2.1153 -2.63686 -4.23059 0 2.1153 2.63686z"/>
   <path id="_435920072" class="fil1" d="M4.19048 2.80489l-0.708598 2.81638 -0.0685551 -0.0171378 0.068626 0.0172677c-0.0095315,0.0379016 -0.0479921,0.0608937 -0.0858898,0.0513583 -0.0275276,-0.0069252 -0.047185,-0.0291102 -0.0522362,-0.055252l-0.708642 -2.81656 -0.000102362 2.75591e-005c-0.00953543,-0.0379016 0.0134606,-0.0763583 0.0513622,-0.0858937 0.00625197,-0.0015748 0.0125157,-0.00225984 0.0186654,-0.0021378l1.41783 0c0.0390827,0 0.0707638,0.0316811 0.0707638,0.0707638 0,0.00738189 -0.00113386,0.0144961 -0.00322835,0.021189zm-0.777154 2.50963l0.618945 -2.46006 -1.23789 0 0.618945 2.46006z"/>
   <path id="_435920048" class="fil1" d="M1.90004 1.15176l3.03269 0c0.0291614,0 0.0542008,0.0176496 0.0650354,0.0428425l0.74198 1.55869 -0.0638543 0.0304055 0.0638937 -0.0304173c0.0167953,0.0352874 0.00180709,0.0775157 -0.0334803,0.094311 -0.0101969,0.00485433 -0.0209724,0.00705118 -0.0315551,0.00687008l-4.5193 0c-0.0390827,0 -0.0707677,-0.0316811 -0.0707677,-0.0707638 0,-0.0118307 0.00291339,-0.0229803 0.00804331,-0.0327835l0.742024 -1.55879 -3.14961e-005 -1.5748e-005c0.0123346,-0.0259134 0.0383819,-0.040878 0.0653268,-0.0403504zm2.98804 0.141531l-2.94483 0 -0.675787 1.41964 4.29641 0 -0.675787 -1.41964z"/>
   <path id="_435919784" class="fil1" d="M4.0328 2.71276l-0.358717 -1.41974 -0.258425 3.93701e-006 -0.263799 -3.93701e-006 -0.356878 1.41974 1.23782 0zm-0.303646 -1.49022l0.0685551 -0.0171378 0.39337 1.55688c0.0021063,0.00670866 0.00325197,0.0138425 0.00325197,0.021248 0,0.0390787 -0.031685,0.0707638 -0.0707677,0.0707638l-1.41782 0c-0.00614961,0.00011811 -0.0124173,-0.000562992 -0.0186654,-0.00213386 -0.0379016,-0.00952756 -0.0609094,-0.0479843 -0.051378,-0.0858819l9.44882e-005 2.3622e-005 0.391429 -1.55717c0.00626772,-0.0326693 0.0349921,-0.0573583 0.0694921,-0.0573583l0 0.000275591 0.318941 3.93701e-006 0.307189 -3.93701e-006c0.034063,-0.00309055 0.0662756,0.0189409 0.0749173,0.0531535l-0.0686102 0.0173386z"/>
  </g>
 </g>
</svg>
