<svg width="20" height="20" viewBox="0 0 20 20" fill="none" xmlns="http://www.w3.org/2000/svg">
<path fill-rule="evenodd" clip-rule="evenodd" d="M3.16732 10.0002C3.16732 6.22622 6.22671 3.16683 10.0007 3.16683C13.7746 3.16683 16.834 6.22622 16.834 10.0002C16.834 11.7507 16.1766 13.3462 15.0942 14.5556C14.8486 14.8299 14.872 15.2514 15.1463 15.4969C15.4207 15.7425 15.8421 15.7191 16.0877 15.4448C17.3804 14.0004 18.1673 12.0914 18.1673 10.0002C18.1673 5.48984 14.511 1.8335 10.0007 1.8335C5.49033 1.8335 1.83398 5.48984 1.83398 10.0002C1.83398 12.0914 2.62086 14.0004 3.91363 15.4448C4.15918 15.7191 4.58064 15.7425 4.85499 15.4969C5.12934 15.2514 5.15269 14.8299 4.90714 14.5556C3.82471 13.3462 3.16732 11.7507 3.16732 10.0002ZM10.0007 5.66683C7.60742 5.66683 5.66732 7.60693 5.66732 10.0002C5.66732 11.1104 6.084 12.1218 6.77056 12.8889C7.01611 13.1632 6.99277 13.5847 6.71842 13.8303C6.44407 14.0758 6.0226 14.0525 5.77705 13.7781C4.88015 12.776 4.33398 11.4511 4.33398 10.0002C4.33398 6.87055 6.87104 4.3335 10.0007 4.3335C13.1303 4.3335 15.6673 6.87055 15.6673 10.0002C15.6673 11.4511 15.1212 12.776 14.2243 13.7781C13.9787 14.0525 13.5572 14.0758 13.2829 13.8303C13.0085 13.5847 12.9852 13.1632 13.2307 12.8889C13.9173 12.1218 14.334 11.1104 14.334 10.0002C14.334 7.60693 12.3939 5.66683 10.0007 5.66683ZM9.41732 10.0002C9.41732 9.678 9.67849 9.41683 10.0007 9.41683C10.3228 9.41683 10.584 9.678 10.584 10.0002C10.584 10.3223 10.3228 10.5835 10.0007 10.5835C9.67849 10.5835 9.41732 10.3223 9.41732 10.0002ZM10.0007 8.0835C8.94211 8.0835 8.08398 8.94162 8.08398 10.0002C8.08398 11.0587 8.94211 11.9168 10.0007 11.9168C11.0592 11.9168 11.9173 11.0587 11.9173 10.0002C11.9173 8.94162 11.0592 8.0835 10.0007 8.0835ZM8.37957 16.7918L10.0007 14.686L11.6217 16.7918H8.37957ZM9.34031 13.3579C9.6739 12.9246 10.3274 12.9246 10.661 13.3579L13.298 16.7835C13.7198 17.3315 13.3292 18.1251 12.6376 18.1251H7.36368C6.67214 18.1251 6.28151 17.3315 6.70334 16.7835L9.34031 13.3579Z" fill="white"/>
</svg>
