<svg width="24" height="24" viewBox="0 0 24 24" fill="none" xmlns="http://www.w3.org/2000/svg">
<path fill-rule="evenodd" clip-rule="evenodd" d="M20.2359 10.3544H19.56V10.32H12V13.68H16.7479C16.054 15.6356 14.1935 17.04 12 17.04C9.21583 17.04 6.95998 14.7841 6.95998 12C6.95998 9.21583 9.21583 6.95998 12 6.95998C13.2846 6.95998 14.4543 7.44396 15.3436 8.23638L17.7192 5.86076C16.2197 4.46294 14.2132 3.59998 12 3.59998C7.36029 3.59998 3.59998 7.36029 3.59998 12C3.59998 16.6397 7.36029 20.4 12 20.4C16.6397 20.4 20.4 16.6397 20.4 12C20.4 11.4372 20.3426 10.8876 20.2359 10.3544Z" fill="#A4B8D1"/>
</svg>
