<?xml version="1.0" encoding="UTF-8" standalone="no"?>
<svg
   xmlns:dc="http://purl.org/dc/elements/1.1/"
   xmlns:cc="http://creativecommons.org/ns#"
   xmlns:rdf="http://www.w3.org/1999/02/22-rdf-syntax-ns#"
   xmlns:svg="http://www.w3.org/2000/svg"
   xmlns="http://www.w3.org/2000/svg"
   xmlns:sodipodi="http://sodipodi.sourceforge.net/DTD/sodipodi-0.dtd"
   xmlns:inkscape="http://www.inkscape.org/namespaces/inkscape"
   id="Capa_1"
   enable-background="new 0 0 512 512"
   height="512"
   viewBox="0 0 512 512"
   width="512"
   version="1.1"
   sodipodi:docname="2059894_1.svg"
   inkscape:export-filename="C:\Users\Tristian\Downloads\2059894_1.png"
   inkscape:export-xdpi="96"
   inkscape:export-ydpi="96"
   inkscape:version="0.92.1 r15371">
  <metadata
     id="metadata3727">
    <rdf:RDF>
      <cc:Work
         rdf:about="">
        <dc:format>image/svg+xml</dc:format>
        <dc:type
           rdf:resource="http://purl.org/dc/dcmitype/StillImage" />
        <dc:title></dc:title>
      </cc:Work>
    </rdf:RDF>
  </metadata>
  <defs
     id="defs3725" />
  <sodipodi:namedview
     pagecolor="#ffffff"
     bordercolor="#666666"
     borderopacity="1"
     objecttolerance="10"
     gridtolerance="10"
     guidetolerance="10"
     inkscape:pageopacity="0"
     inkscape:pageshadow="2"
     inkscape:window-width="1023"
     inkscape:window-height="709"
     id="namedview3723"
     showgrid="false"
     inkscape:zoom="0.4609375"
     inkscape:cx="228.88136"
     inkscape:cy="256"
     inkscape:window-x="848"
     inkscape:window-y="139"
     inkscape:window-maximized="0"
     inkscape:current-layer="Capa_1" />
  <path
     d="m256.493 511.998c-4.082 0-7.392-3.309-7.392-7.392v-137.978c0-4.083 3.309-7.392 7.392-7.392s7.392 3.309 7.392 7.392v137.978c-.001 4.083-3.309 7.392-7.392 7.392z"
     fill="#988f99"
     id="path3706" />
  <path
     d="m128.368 512c-5.321 0-8.931-5.701-6.7-10.506l128.12-275.957 13.376-.068 131.567 275.957c1.757 3.685.194 8.096-3.491 9.853-3.684 1.757-8.097.193-9.853-3.491l-124.805-261.776-121.505 261.707c-1.251 2.695-3.921 4.281-6.709 4.281z"
     fill="#b7afb9"
     id="path3708" />
  <path
     d="m479.722 398.166h-446.458c-5.443 0-9.856-4.413-9.856-9.856v-329.176h466.17v329.176c0 5.443-4.413 9.856-9.856 9.856z"
     fill="#82cd64"
     id="path3710"
     style="fill:#a4b8d1;fill-opacity:1" />
  <path
     d="m450.155 59.134v329.176c0 5.443-4.413 9.856-9.856 9.856h39.422c5.443 0 9.856-4.412 9.856-9.856v-329.176z"
     fill="#6dc54a"
     id="path3712"
     style="fill:#7d9bbd;fill-opacity:1" />
  <path
     d="m398.213 41.197h-284.426v-31.341c0-5.443 4.412-9.856 9.856-9.856h264.715c5.443 0 9.856 4.412 9.856 9.856v31.341z"
     fill="#b7afb9"
     id="path3714" />
  <path
     d="m388.358 0h-39.422c5.443 0 9.856 4.412 9.856 9.856v31.342h39.422v-31.342c-.001-5.444-4.413-9.856-9.856-9.856z"
     fill="#a79fa9"
     id="path3716" />
  <path
     d="m498.448 68.989h-484.896c-5.443 0-9.856-4.412-9.856-9.856v-14.783c0-5.443 4.412-9.856 9.856-9.856h484.895c5.443 0 9.856 4.413 9.856 9.856v14.783c0 5.444-4.412 9.856-9.855 9.856z"
     fill="#e5e2e6"
     id="path3718" />
  <path
     d="m498.448 34.495h-39.422c5.443 0 9.856 4.412 9.856 9.856v14.783c0 5.443-4.413 9.856-9.856 9.856h39.422c5.443 0 9.856-4.412 9.856-9.856v-14.784c-.001-5.443-4.413-9.855-9.856-9.855z"
     fill="#d6d1d7"
     id="path3720" />
</svg>
