<svg width="24" height="24" viewBox="0 0 24 24" fill="none" xmlns="http://www.w3.org/2000/svg">
<path d="M19.95 21C17.8542 20.9963 15.7999 20.549 13.8982 19.679C12.0028 18.8121 10.3062 17.5445 8.89991 15.9602C7.49739 14.3801 6.41048 12.5133 5.71999 10.46C5.02949 8.40681 4.75187 6.20884 4.90991 4.05002C4.93804 3.64223 5.11907 3.26041 5.42091 2.97102C5.72276 2.68163 6.12214 2.50156 6.54991 2.45002C6.96438 2.42194 7.38227 2.53362 7.73991 2.76002L10.1599 4.32002C10.4499 4.5131 10.6824 4.77661 10.8359 5.08753C10.9894 5.39846 11.0593 5.74719 11.0399 6.09002C10.9885 6.89317 10.7784 7.67844 10.4299 8.39002L9.34991 10.28C9.28813 10.3883 9.25106 10.5082 9.24151 10.6317C9.23197 10.7552 9.24999 10.8801 9.29491 10.99C10.3012 13.0961 11.9038 14.6987 14.0099 15.705C14.1198 15.75 14.2447 15.7681 14.3682 15.7585C14.4917 15.749 14.6116 15.7119 14.7199 15.65L16.6099 14.57C17.3215 14.2215 18.1067 14.0114 18.9099 13.96C19.2527 13.9406 19.6015 13.9805 19.9124 14.084C20.2233 14.1875 20.4868 14.35 20.6799 14.56L22.2399 16.98C22.4663 17.3376 22.578 17.7555 22.5499 18.17C22.4382 19.4407 21.6817 20.5717 20.5499 21.09C20.3903 21.1557 20.1705 21.0064 19.95 21Z" fill="currentColor"/>
</svg>
