<!-- Generated by IcoMoon.io -->
<svg version="1.1" xmlns="http://www.w3.org/2000/svg" width="32" height="32" viewBox="0 0 32 32">
<title>hangup</title>
<path d="M16 12c-2.125 0-4.188 0.313-6.125 0.938v4.125c0 0.5-0.313 1.063-0.75 1.25-1.313 0.625-2.5 1.438-3.563 2.438-0.25 0.25-0.563 0.375-0.938 0.375s-0.688-0.125-0.938-0.375l-3.313-3.313c-0.25-0.25-0.375-0.563-0.375-0.938s0.125-0.688 0.375-0.938c4.063-3.875 9.563-6.25 15.625-6.25s11.563 2.375 15.625 6.25c0.25 0.25 0.375 0.563 0.375 0.938s-0.125 0.688-0.375 0.938l-3.313 3.313c-0.25 0.25-0.563 0.375-0.938 0.375s-0.688-0.125-0.938-0.375c-1.063-1-2.25-1.813-3.563-2.438-0.438-0.188-0.75-0.625-0.75-1.188v-4.125c-1.938-0.625-4-1-6.125-1z"></path>
</svg>
