<svg width="24" height="24" viewBox="0 0 24 24" xmlns="http://www.w3.org/2000/svg">
    <path fill-rule="evenodd" clip-rule="evenodd" d="M15.5354 14.2137C15.7419 15.0465 15.9228 15.4474 16.4337 15.8121C16.8922 16.1384 19.3358 16.5121 20.3023 16.4997C20.811 16.4933 21.2542 16.3621 21.6056 16.0384L21.6232 16.0217C22.4813 15.1709 22.6574 12.8488 22.3762 11.6107C22.2078 10.4059 21.3703 9.47571 19.9807 8.85603L19.7682 8.76541C16.0438 7.06296 7.96818 7.0911 4.2181 8.77268C2.73412 9.36142 1.82253 10.3345 1.61993 11.6621C1.35005 12.7299 1.50796 15.133 2.37837 16.0151C2.75243 16.3607 3.19644 16.492 3.70455 16.4986C4.66973 16.5111 7.11478 16.1372 7.57192 15.8123C8.04127 15.4779 8.23266 15.113 8.42034 14.413L8.48734 14.1503C8.61337 13.6444 8.68996 13.4979 8.88053 13.4009C10.9611 12.4505 13.0448 12.4503 15.1496 13.4114C15.3001 13.4887 15.3773 13.6153 15.4834 14.0097L15.5354 14.2137ZM7.03286 13.7836C7.09435 13.537 7.18016 13.2139 7.33129 12.9257C7.53766 12.5321 7.83388 12.2506 8.19985 12.0642L8.22827 12.0497L8.25728 12.0365C10.7362 10.9041 13.2746 10.9063 15.7726 12.0469L15.8041 12.0613L15.8348 12.0771C16.172 12.2502 16.4436 12.5087 16.6381 12.8519C16.7893 13.1187 16.8744 13.4061 16.9319 13.6203L16.9344 13.6297L16.9913 13.8528C17.0895 14.2487 17.1504 14.4019 17.1903 14.4759C17.2045 14.5022 17.2134 14.5129 17.22 14.5202C17.2232 14.5238 17.2288 14.5297 17.238 14.5381C17.2912 14.5563 17.3694 14.5801 17.4752 14.6078C17.7266 14.6735 18.0585 14.7419 18.4262 14.8037C19.1854 14.9313 19.9341 15.0043 20.2831 14.9998C20.4163 14.9981 20.4929 14.9805 20.5311 14.9675C20.5519 14.9605 20.565 14.9538 20.5751 14.9467C20.5839 14.9356 20.5993 14.9144 20.6195 14.8799C20.6539 14.8211 20.6946 14.7372 20.7367 14.6243C20.822 14.395 20.8939 14.098 20.941 13.7564C21.0381 13.0527 21.0058 12.3494 20.9135 11.9429L20.8994 11.8811L20.8906 11.8183C20.8162 11.286 20.4566 10.7133 19.3804 10.2307L19.1621 10.1377L19.1446 10.1296C17.572 9.41083 14.876 8.99573 12.005 9.00003C9.13686 9.00433 6.42584 9.42661 4.83184 10.1414L4.80183 10.1548L4.77125 10.167C3.6348 10.6178 3.20355 11.2279 3.10276 11.8884L3.09187 11.9598L3.07419 12.0297C3.00084 12.3199 2.95972 12.9826 3.05793 13.7067C3.10477 14.052 3.17689 14.3595 3.26453 14.6008C3.30774 14.7197 3.35008 14.8096 3.38676 14.8737C3.40432 14.9044 3.41869 14.9259 3.42889 14.9399C3.44732 14.9527 3.46432 14.9604 3.48327 14.967C3.51959 14.9796 3.59191 14.997 3.72377 14.9987C4.07193 15.0032 4.82076 14.9302 5.58033 14.8027C5.94817 14.7409 6.28022 14.6726 6.5317 14.607C6.63747 14.5794 6.71567 14.5557 6.76883 14.5375C6.77621 14.5308 6.78123 14.5257 6.78452 14.5222C6.79241 14.5138 6.79948 14.5051 6.80951 14.4881C6.83641 14.4425 6.88869 14.3319 6.96925 14.033L7.03286 13.7836Z" />
</svg>
