<svg width="20" height="20" viewBox="0 0 20 20"  xmlns="http://www.w3.org/2000/svg">
<path fill-rule="evenodd" clip-rule="evenodd" d="M10 18.3334C5.39765 18.3334 1.66669 14.6024 1.66669 10C1.66669 5.39765 5.39765 1.66669 10 1.66669C14.6024 1.66669 18.3334 5.39765 18.3334 10C18.3334 14.6024 14.6024 18.3334 10 18.3334ZM10 16.6667C13.6819 16.6667 16.6667 13.6819 16.6667 10C16.6667 6.31812 13.6819 3.33335 10 3.33335C6.31812 3.33335 3.33335 6.31812 3.33335 10C3.33335 13.6819 6.31812 16.6667 10 16.6667ZM9.24807 14.8926C9.44555 15.064 9.67667 15.1498 9.94143 15.1498C10.1975 15.1498 10.4232 15.063 10.6185 14.8893C10.8138 14.7157 10.9115 14.477 10.9115 14.1732C10.9115 13.8998 10.8182 13.6697 10.6315 13.4831C10.4449 13.2965 10.2149 13.2031 9.94143 13.2031C9.66365 13.2031 9.42928 13.2965 9.2383 13.4831C9.04733 13.6697 8.95184 13.8998 8.95184 14.1732C8.95184 14.4814 9.05058 14.7212 9.24807 14.8926ZM7.16148 6.76109C6.89672 7.18427 6.76434 7.60202 6.76434 8.01434C6.76434 8.214 6.84789 8.39954 7.01499 8.57098C7.1821 8.74243 7.38717 8.82815 7.63023 8.82815C8.04256 8.82815 8.3225 8.58292 8.47007 8.09247C8.62632 7.62372 8.81729 7.2689 9.04299 7.02802C9.26868 6.78713 9.62024 6.66669 10.0977 6.66669C10.5057 6.66669 10.8388 6.78604 11.097 7.02476C11.3553 7.26348 11.4844 7.55644 11.4844 7.90367C11.4844 8.08162 11.4421 8.24655 11.3574 8.39846C11.2728 8.55037 11.1686 8.68817 11.0449 8.81187C10.9212 8.93557 10.7205 9.11894 10.4427 9.362C10.1259 9.63978 9.87415 9.87958 9.68752 10.0814C9.50089 10.2832 9.35115 10.5176 9.2383 10.7845C9.12545 11.0515 9.06903 11.3672 9.06903 11.7318C9.06903 12.0226 9.14607 12.2418 9.30015 12.3893C9.45423 12.5369 9.64412 12.6107 9.86981 12.6107C10.3038 12.6107 10.5621 12.385 10.6446 11.9336C10.6923 11.7209 10.7281 11.5723 10.752 11.4877C10.7758 11.403 10.8095 11.3184 10.8529 11.2337C10.8963 11.1491 10.9625 11.0558 11.0515 10.9538C11.1404 10.8518 11.2587 10.7335 11.4063 10.599C11.9401 10.1215 12.3101 9.78192 12.5163 9.5801C12.7225 9.37827 12.9004 9.13848 13.0502 8.8607C13.1999 8.58292 13.2748 8.25957 13.2748 7.89065C13.2748 7.42189 13.1435 6.98787 12.8809 6.58856C12.6183 6.18925 12.2461 5.8735 11.7643 5.6413C11.2826 5.40909 10.727 5.29299 10.0977 5.29299C9.42059 5.29299 8.82815 5.43188 8.32033 5.70966C7.81252 5.98743 7.42624 6.33791 7.16148 6.76109Z" />
</svg>
