<svg width="24" height="24" viewBox="0 0 24 24" xmlns="http://www.w3.org/2000/svg">
<path fill-rule="evenodd" clip-rule="evenodd" d="M15.1966 6.05507L16.0207 5.25708L17.669 6.85306L16.8448 7.65106L15.1966 6.05507ZM11.9 6.05507L13.5483 4.45908L14.3724 3.66109C15.2827 2.77966 16.7586 2.77961 17.669 3.66109L19.3173 5.25708C20.2276 6.13855 20.2276 7.56762 19.3173 8.44905L18.4931 9.24705L16.8448 10.843L12.7242 14.833L11.0759 16.429L10.882 16.6167L7.76993 17.7444C6.91521 18.0542 5.95229 17.8519 5.30692 17.227C4.66155 16.6021 4.45265 15.6697 4.77257 14.8421L5.93715 11.8288L6.13106 11.641L7.77933 10.045L11.9 6.05507ZM15.1966 9.24705L11.0759 13.237L9.42761 11.641L13.5483 7.65106L15.1966 9.24705ZM6.95731 15.629L7.85388 13.3092L9.35306 14.7608L6.95731 15.629ZM5.16551 18.7429C4.52181 18.7429 4 19.2482 4 19.8715C4 20.4947 4.52181 21 5.16551 21H17.9861C18.6298 21 19.1516 20.4947 19.1516 19.8715C19.1516 19.2482 18.6298 18.7429 17.9861 18.7429H5.16551Z" />
</svg>
