<svg width="24" height="24" viewBox="0 0 24 24" xmlns="http://www.w3.org/2000/svg">
    <path fill-rule="evenodd" clip-rule="evenodd" d="M12.1602 8.24439C13.3281 8.16225 14.25 7.18879 14.25 6C14.25 4.75736 13.2426 3.75 12 3.75C10.7574 3.75 9.75 4.75736 9.75 6C9.75 7.18151 10.6607 8.15032 11.8184 8.24278C11.5197 8.21896 11.2375 8.13687 10.9831 8.00775C9.85816 9.83693 8.19346 10.3318 6.74461 10.3424C6.66364 9.17333 5.68961 8.25 4.5 8.25C3.25736 8.25 2.25 9.25736 2.25 10.5C2.25 11.7426 3.25736 12.75 4.5 12.75C5.32135 12.75 6.03995 12.31 6.43279 11.6527C6.39557 11.715 6.35542 11.7754 6.31253 11.8336C6.67901 11.8506 7.06503 11.8447 7.4618 11.805C8.64456 11.6868 9.95784 11.2623 11.0918 10.2228C11.4736 9.87283 11.8205 9.46641 12.1289 9.0006C12.4727 9.47803 12.8468 9.89069 13.2474 10.2432C14.3929 11.2513 15.6592 11.6829 16.8118 11.8042C17.1152 11.8362 17.4101 11.8467 17.6932 11.8412C17.6739 11.8152 17.6551 11.7887 17.6369 11.7619C18.0415 12.3582 18.725 12.75 19.5 12.75C20.7426 12.75 21.75 11.7426 21.75 10.5C21.75 9.25736 20.7426 8.25 19.5 8.25C18.3129 8.25 17.3405 9.16938 17.256 10.335C15.9245 10.2658 14.3912 9.7053 13.1957 7.90649C12.8918 8.09752 12.5389 8.21778 12.1602 8.24439ZM12 6.75C12.4142 6.75 12.75 6.41421 12.75 6C12.75 5.58579 12.4142 5.25 12 5.25C11.5858 5.25 11.25 5.58579 11.25 6C11.25 6.41421 11.5858 6.75 12 6.75ZM20.25 10.5C20.25 10.9142 19.9142 11.25 19.5 11.25C19.0858 11.25 18.75 10.9142 18.75 10.5C18.75 10.0858 19.0858 9.75 19.5 9.75C19.9142 9.75 20.25 10.0858 20.25 10.5ZM4.5 11.25C4.91421 11.25 5.25 10.9142 5.25 10.5C5.25 10.0858 4.91421 9.75 4.5 9.75C4.08579 9.75 3.75 10.0858 3.75 10.5C3.75 10.9142 4.08579 11.25 4.5 11.25Z" />
    <path d="M17.9485 12.1296C18.3135 12.4773 18.7952 12.7036 19.3289 12.7437L19.2591 12.9706C19.1623 13.2853 18.8715 13.5 18.5423 13.5C18.0377 13.5 17.677 13.0117 17.8254 12.5294L17.9485 12.1296Z" />
    <path d="M12.75 18.0001C13.1642 18.0001 13.5 18.3359 13.5 18.7501C13.5 19.1643 13.1642 19.5001 12.75 19.5001H7.85792C7.19941 19.5001 6.61791 19.0706 6.42425 18.4412L4.6712 12.7437C5.20487 12.7036 5.6866 12.4773 6.05164 12.1296L7.85792 18.0001H12.75Z" />
    <path d="M11.25 18.0002C10.8358 18.0002 10.5 18.336 10.5 18.7502C10.5 19.1644 10.8358 19.5002 11.25 19.5002H16.1421C16.8006 19.5002 17.3821 19.0707 17.5757 18.4413L19.3289 12.7437C18.7952 12.7036 18.3135 12.4773 17.9485 12.1296L16.1421 18.0002H11.25Z" />
</svg>
