<svg width="16" height="15" viewBox="0 0 16 15" xmlns="http://www.w3.org/2000/svg">
<path fill-rule="evenodd" clip-rule="evenodd" d="M8 7.16667C6.85438 7.16667 5.84374 6.58873 5.24374 5.70851C4.57694 6.29711 4.09999 7.09581 3.91648 8.00102C5.71901 8.04514 7.16667 9.52018 7.16667 11.3333C7.16667 11.871 7.03938 12.3789 6.8133 12.8286C7.1894 12.9401 7.5877 13 8 13C8.4123 13 8.81061 12.9401 9.1867 12.8286C8.96062 12.3789 8.83333 11.871 8.83333 11.3333C8.83333 9.52018 10.281 8.04515 12.0835 8.00102C11.9 7.09581 11.4231 6.29711 10.7563 5.70851C10.1563 6.58873 9.14562 7.16667 8 7.16667ZM8 14.6667C8.85231 14.6667 9.66193 14.4839 10.3918 14.1554C10.9057 14.4793 11.5143 14.6667 12.1667 14.6667C14.0076 14.6667 15.5 13.1743 15.5 11.3333C15.5 10.0941 14.8238 9.01283 13.8202 8.43837C13.6984 6.61689 12.7405 5.02432 11.327 4.04114C11.3312 3.97241 11.3333 3.90312 11.3333 3.83333C11.3333 1.99238 9.84095 0.5 8 0.5C6.15905 0.5 4.66667 1.99238 4.66667 3.83333C4.66667 3.90312 4.66881 3.97241 4.67304 4.04114C3.2595 5.02432 2.30161 6.61689 2.17983 8.43837C1.17624 9.01282 0.5 10.0941 0.5 11.3333C0.5 13.1743 1.99238 14.6667 3.83333 14.6667C4.4857 14.6667 5.09428 14.4793 5.60821 14.1554C6.33807 14.4839 7.14769 14.6667 8 14.6667ZM9.66667 3.83333C9.66667 4.75381 8.92047 5.5 8 5.5C7.07952 5.5 6.33333 4.75381 6.33333 3.83333C6.33333 2.91286 7.07952 2.16667 8 2.16667C8.92047 2.16667 9.66667 2.91286 9.66667 3.83333ZM5.5 11.3333C5.5 12.2538 4.75381 13 3.83333 13C2.91286 13 2.16667 12.2538 2.16667 11.3333C2.16667 10.4129 2.91286 9.66667 3.83333 9.66667C4.75381 9.66667 5.5 10.4129 5.5 11.3333ZM13.8333 11.3333C13.8333 12.2538 13.0871 13 12.1667 13C11.2462 13 10.5 12.2538 10.5 11.3333C10.5 10.4129 11.2462 9.66667 12.1667 9.66667C13.0871 9.66667 13.8333 10.4129 13.8333 11.3333Z" />
</svg>
