<svg width="24" height="24" viewBox="0 0 24 24" xmlns="http://www.w3.org/2000/svg">
    <path fill-rule="evenodd" clip-rule="evenodd" d="M16.5 10.5C18.1569 10.5 19.5 9.15685 19.5 7.5C19.5 5.84315 18.1569 4.5 16.5 4.5C14.8431 4.5 13.5 5.84315 13.5 7.5C13.5 9.15685 14.8431 10.5 16.5 10.5ZM16.5 9C17.3284 9 18 8.32843 18 7.5C18 6.67157 17.3284 6 16.5 6C15.6716 6 15 6.67157 15 7.5C15 8.32843 15.6716 9 16.5 9Z" />
    <path fill-rule="evenodd" clip-rule="evenodd" d="M1.5 15.7501V19.5C1.5 21.1569 2.84315 22.5 4.5 22.5H19.5C21.1569 22.5 22.5 21.1569 22.5 19.5V4.5C22.5 2.84315 21.1569 1.5 19.5 1.5H4.5C2.84315 1.5 1.5 2.84315 1.5 4.5V15.7501C1.5 15.7502 1.5 15.75 1.5 15.7501ZM19.5 3H4.5C3.67157 3 3 3.67157 3 4.5V13.9393L6.96967 9.96967C7.26256 9.67678 7.73744 9.67678 8.03033 9.96967L12 13.9393L13.7197 12.2197C14.0126 11.9268 14.4874 11.9268 14.7803 12.2197L21 18.4393V4.5C21 3.67157 20.3284 3 19.5 3ZM20.7575 20.3181L14.25 13.8107L12.5303 15.5303C12.2374 15.8232 11.7626 15.8232 11.4697 15.5303L7.5 11.5607L3 16.0607V19.5C3 20.3284 3.67157 21 4.5 21H19.5C20.0266 21 20.4898 20.7286 20.7575 20.3181Z" />
</svg>
