<svg width="28" height="28" viewBox="0 0 28 28" fill="none"
    xmlns="http://www.w3.org/2000/svg">
    <mask id="mask0_2073_494" style="mask-type:alpha" maskUnits="userSpaceOnUse" x="0" y="0" width="28" height="28">
        <path fill-rule="evenodd" clip-rule="evenodd" d="M28 8.72034C28 8.38794 28.0001 8.05551 27.9981 7.72308C27.9964 7.44305 27.9932 7.16308 27.9856 6.88318C27.9691 6.27313 27.9332 5.65785 27.8247 5.05459C27.7146 4.44264 27.5349 3.87309 27.2518 3.31707C26.9734 2.77056 26.6098 2.27047 26.1759 1.83692C25.7422 1.40336 25.242 1.03997 24.6952 0.761774C24.1386 0.478547 23.5685 0.298926 22.9559 0.188931C22.3525 0.0806016 21.7371 0.0446843 21.127 0.0282038C20.8469 0.0206261 20.5668 0.017432 20.2867 0.015699C19.9541 0.0136601 19.6215 0.01383 19.2889 0.01383L15.4271 0H12.5387L8.74528 0.01383C8.41204 0.01383 8.07879 0.0136601 7.74555 0.015699C7.4648 0.017432 7.18419 0.0206261 6.90355 0.0282038C6.29207 0.0446843 5.67523 0.0806356 5.07048 0.189101C4.45703 0.299062 3.88602 0.478615 3.32868 0.761638C2.78081 1.03987 2.2795 1.40329 1.84483 1.83692C1.41022 2.27044 1.04591 2.77043 0.767038 3.31683C0.483098 3.87313 0.303071 4.44301 0.19277 5.05531C0.0841693 5.65832 0.0481841 6.2734 0.0316357 6.88318C0.0240921 7.16311 0.0208299 7.44308 0.0191309 7.72308C0.0170921 8.05554 0 8.46851 0 8.80094L0.000101941 12.5418L0 15.4611L0.017262 19.2815C0.017262 19.6144 0.0171261 19.9472 0.0191309 20.2801C0.0208299 20.5605 0.0240921 20.8409 0.0316697 21.1212C0.0481841 21.732 0.0842373 22.3482 0.19294 22.9522C0.303207 23.565 0.4832 24.1354 0.766902 24.6921C1.04581 25.2394 1.41018 25.7401 1.84483 26.1743C2.27947 26.6085 2.78064 26.9723 3.32841 27.2509C3.88609 27.5345 4.45737 27.7144 5.07119 27.8245C5.67567 27.933 6.29231 27.969 6.90355 27.9855C7.18419 27.9931 7.46483 27.9963 7.74558 27.998C8.07882 28 8.41204 27.9999 8.74528 27.9999L12.573 28H15.4685L19.2889 27.9999C19.6215 27.9999 19.9541 28 20.2867 27.998C20.5668 27.9963 20.8469 27.9931 21.127 27.9855C21.7373 27.969 22.353 27.933 22.9566 27.8244C23.5688 27.7143 24.1387 27.5345 24.695 27.251C25.2418 26.9725 25.7421 26.6085 26.1759 26.1743C26.6097 25.7402 26.9733 25.2395 27.2517 24.6923C27.535 24.1353 27.7147 23.5647 27.8248 22.9515C27.9332 22.3477 27.9691 21.7318 27.9856 21.1212C27.9932 20.8408 27.9964 20.5605 27.9981 20.2801C28.0002 19.9472 28 19.6144 28 19.2815C28 19.2815 27.9998 15.5286 27.9998 15.4611V12.5388C27.9998 12.489 28 8.72034 28 8.72034" fill="white"/>
    </mask>
    <g mask="url(#mask0_2073_494)">
        <rect width="28" height="28.1366" fill="url(#paint0_linear_2073_494)"/>
        <path d="M16.0245 13.8174C15.9614 13.9099 15.9612 14.0316 16.0239 14.1243L21.5878 22.3493C21.7105 22.5307 21.5805 22.7756 21.3615 22.7756H17.8904C17.7975 22.7756 17.7109 22.7283 17.6606 22.6502L14.2062 17.2802C14.0984 17.1127 13.8535 17.1131 13.7462 17.2809L10.3152 22.6495C10.265 22.728 10.1783 22.7756 10.0851 22.7756H6.6387C6.41977 22.7756 6.28979 22.5309 6.41234 22.3495L11.9526 14.1481C12.015 14.0557 12.015 13.9345 11.9524 13.8421L6.73291 6.12866C6.61015 5.94725 6.74011 5.70239 6.95915 5.70239H10.3812C10.474 5.70239 10.5604 5.7495 10.6107 5.82748L13.7469 10.6893C13.8543 10.8557 14.0976 10.8561 14.2056 10.69L17.3652 5.82674C17.4155 5.74919 17.5017 5.70239 17.5942 5.70239H21.0393C21.2588 5.70239 21.3886 5.94809 21.265 6.12943L16.0245 13.8174Z" fill="white"/>
    </g>
    <defs>
        <linearGradient id="paint0_linear_2073_494" x1="14" y1="-0.210453" x2="14" y2="28.4843" gradientUnits="userSpaceOnUse">
            <stop stop-color="#102D90"/>
            <stop offset="1" stop-color="#060C40"/>
        </linearGradient>
    </defs>
</svg>
