<svg width="40" height="40" viewBox="0 0 40 40" xmlns="http://www.w3.org/2000/svg">
<path d="M0 3C0 1.34315 1.34315 0 3 0H37C38.6569 0 40 1.34315 40 3V37C40 38.6569 38.6569 40 37 40H3C1.34315 40 0 38.6569 0 37V3Z" fill="#EA8F6A"/>
<path d="M20.0186 16.0059C21.6771 16.0059 23.0216 14.6614 23.0216 13.0029C23.0216 11.3445 21.6771 10 20.0186 10C18.3601 10 17.0157 11.3445 17.0157 13.0029C17.0157 14.6614 18.3601 16.0059 20.0186 16.0059Z" fill="white"/>
<path d="M29.3611 18.0079H10.6761C10.0088 18.0079 9.74188 18.842 10.3091 19.209L15.1805 22.3454C15.4141 22.5123 15.5476 22.8126 15.4475 23.0795L13.6123 29.1855C13.4121 29.8528 14.2797 30.3199 14.7802 29.8194L19.5181 24.8145C19.7851 24.5142 20.2522 24.5142 20.5191 24.8145L25.2571 29.8194C25.7242 30.3199 26.5917 29.8528 26.4249 29.1855L24.5898 23.0795C24.523 22.8126 24.6231 22.5123 24.8567 22.3454L29.7281 19.209C30.2954 18.842 30.0284 18.0079 29.3611 18.0079Z" fill="white"/>
</svg>
