<svg width="22" height="22" viewBox="0 0 22 22" xmlns="http://www.w3.org/2000/svg">
<path fill-rule="evenodd" clip-rule="evenodd" d="M11 20.1666C5.93743 20.1666 1.83337 16.0626 1.83337 11C1.83337 5.93737 5.93743 1.83331 11 1.83331C16.0627 1.83331 20.1667 5.93737 20.1667 11C20.1667 16.0626 16.0627 20.1666 11 20.1666ZM11 18.3333C11.1961 18.3333 11.3903 18.3256 11.5824 18.3105C10.5501 17.4264 9.59313 16.3138 8.75825 15.0021C7.49738 15.1948 6.17459 15.1866 4.82269 14.9536C6.12637 16.9863 8.4059 18.3333 11 18.3333ZM10.6533 14.5474C11.6128 15.9231 12.7188 17.0044 13.8859 17.7437C14.1557 17.6281 14.4172 17.4967 14.6691 17.3508C14.6706 17.3303 14.6728 17.3097 14.6757 17.2891C14.9298 15.4814 14.8751 13.8467 14.5451 12.3479C13.4001 13.3267 12.0838 14.0737 10.6533 14.5474ZM13.9392 10.4127C12.7459 11.6082 11.287 12.4733 9.66815 12.9309C8.46905 10.6745 7.6302 7.85533 7.39828 4.61061C7.82671 4.36858 8.28191 4.1684 8.75833 4.01561C8.80512 4.05571 8.86081 4.10342 8.91909 4.15334C9.07324 4.28538 9.24549 4.43294 9.31893 4.49632C9.59915 4.73815 9.83649 4.94781 10.0699 5.16136C10.6639 5.70485 11.1866 6.23341 11.6714 6.79528C12.6385 7.9162 13.4037 9.11177 13.9392 10.4127ZM15.2335 8.82952C14.6633 7.68289 13.9328 6.60978 13.0594 5.59762C12.5235 4.9765 11.9513 4.39785 11.3074 3.80875C11.2561 3.76175 11.2046 3.71502 11.1527 3.6682C13.297 3.712 15.2153 4.6762 16.5286 6.18183C16.2018 7.14657 15.7642 8.03341 15.2335 8.82952ZM16.0362 10.823C16.502 12.3121 16.7196 13.9188 16.6584 15.6652C17.7048 14.3975 18.3334 12.7721 18.3334 11C18.3334 9.96873 18.1205 8.98721 17.7363 8.09693C17.275 9.09641 16.7022 10.0096 16.0362 10.823ZM3.91853 12.8686C5.24374 13.2472 6.54603 13.3714 7.78607 13.2697C6.75554 11.1791 6.01023 8.711 5.68385 5.94863C4.43382 7.26378 3.66671 9.0423 3.66671 11C3.66671 11.6534 3.75216 12.2868 3.9125 12.8897L3.91853 12.8686Z" />
</svg>
