<svg width="24" height="24" viewBox="0 0 24 24" xmlns="http://www.w3.org/2000/svg">
    <path d="M14.25 10.5C13.8358 10.5 13.5 10.8358 13.5 11.25C13.5 11.6642 13.8358 12 14.25 12C14.6642 12 15 11.6642 15 11.25C15 10.8358 14.6642 10.5 14.25 10.5Z" />
    <path d="M6 8.25C6 7.83579 6.33579 7.5 6.75 7.5H17.25C17.6642 7.5 18 7.83579 18 8.25C18 8.66421 17.6642 9 17.25 9H6.75C6.33579 9 6 8.66421 6 8.25Z" />
    <path d="M6.75 10.5C6.33579 10.5 6 10.8358 6 11.25C6 11.6642 6.33579 12 6.75 12H11.25C11.6642 12 12 11.6642 12 11.25C12 10.8358 11.6642 10.5 11.25 10.5H6.75Z" />
    <path fill-rule="evenodd" clip-rule="evenodd" d="M6.75 2.25C3.8505 2.25 1.5 4.60051 1.5 7.5V14.625C1.5 16.0747 2.67525 17.25 4.125 17.25C4.74632 17.25 5.25 17.7537 5.25 18.375V19.2185C5.25 21.0976 7.52196 22.0387 8.85071 20.71L11.2123 18.3483C11.9156 17.6451 12.8694 17.25 13.864 17.25H17.25C20.1495 17.25 22.5 14.8995 22.5 12V7.5C22.5 4.6005 20.1495 2.25 17.25 2.25H6.75ZM3 7.5C3 5.42893 4.67893 3.75 6.75 3.75H17.25C19.3211 3.75 21 5.42893 21 7.5V12C21 14.0711 19.3211 15.75 17.25 15.75H13.864C12.4716 15.75 11.1362 16.3031 10.1517 17.2877L7.79005 19.6493C7.40624 20.0331 6.75 19.7613 6.75 19.2185V18.375C6.75 16.9253 5.57475 15.75 4.125 15.75C3.50368 15.75 3 15.2463 3 14.625V7.5Z" />
</svg>
