<svg width="20" height="20" viewBox="0 0 20 20" xmlns="http://www.w3.org/2000/svg">
<path fill-rule="evenodd" clip-rule="evenodd" d="M9.99992 1.66669C11.8409 1.66669 13.3333 3.15907 13.3333 5.00002V10C13.3333 11.5555 12.2678 12.8621 10.8269 13.23C10.8311 13.2638 10.8333 13.2983 10.8333 13.3334V14.9309C11.1452 14.8785 11.4474 14.7973 11.7369 14.69C12.0292 13.2018 13.2017 12.0293 14.6899 11.737C14.8904 11.196 14.9999 10.6108 14.9999 10C14.9999 9.53978 15.373 9.16669 15.8333 9.16669C16.2935 9.16669 16.6666 9.53978 16.6666 10C16.6666 10.6246 16.5807 11.2292 16.4201 11.8025C18.0039 12.2412 19.1666 13.6932 19.1666 15.4167C19.1666 17.4878 17.4877 19.1667 15.4166 19.1667C13.6931 19.1667 12.2411 18.004 11.8024 16.4202C11.4881 16.5082 11.1644 16.5738 10.8333 16.6151V17.5C10.8333 17.9603 10.4602 18.3334 9.99992 18.3334C9.53968 18.3334 9.16659 17.9603 9.16659 17.5V16.6151C5.87799 16.205 3.33325 13.3997 3.33325 10C3.33325 9.53978 3.70635 9.16669 4.16659 9.16669C4.62682 9.16669 4.99992 9.53978 4.99992 10C4.99992 12.4775 6.80182 14.5342 9.16659 14.9309V13.3334C9.16659 13.2983 9.16875 13.2638 9.17294 13.23C7.73203 12.8621 6.66659 11.5555 6.66659 10V5.00002C6.66659 3.15907 8.15897 1.66669 9.99992 1.66669ZM9.99992 3.33335C9.07944 3.33335 8.33325 4.07955 8.33325 5.00002V10C8.33325 10.9205 9.07944 11.6667 9.99992 11.6667C10.9204 11.6667 11.6666 10.9205 11.6666 10V5.00002C11.6666 4.07955 10.9204 3.33335 9.99992 3.33335ZM13.3333 15V15.8334H17.4999V15H13.3333Z" />
</svg>
