<!-- Generated by IcoMoon.io -->
<svg version="1.1" xmlns="http://www.w3.org/2000/svg" width="32" height="32" viewBox="0 0 32 32">
<title>mic-camera-combined</title>
<path d="M23.647 12.371l8.353-6.319v19.846l-8.353-6.319v5.998c0 0.378-0.353 0.683-0.788 0.683h-22.071c-0.435 0-0.788-0.306-0.788-0.683v-19.133c0-0.378 0.353-0.683 0.788-0.683h22.071c0.435 0 0.788 0.306 0.788 0.683v5.927zM11.604 20.243c1.494 0 2.704-1.257 2.704-2.807v-5.776c0-1.552-1.21-2.809-2.704-2.809s-2.704 1.257-2.704 2.809v5.776c0 1.549 1.211 2.807 2.704 2.807v0zM11.149 22.185v1.024h1.054v-1.044c2.308-0.3 4.101-2.304 4.101-4.73v-2.757h-0.957v2.757c0 2.112-1.678 3.829-3.742 3.829s-3.74-1.718-3.74-3.829v-2.757h-0.957v2.757c0 2.475 1.865 4.516 4.242 4.749v0z"></path>
</svg>
