<!-- Generated by IcoMoon.io -->
<svg version="1.1" xmlns="http://www.w3.org/2000/svg" width="32" height="32" viewBox="0 0 32 32">
<title>mic-disabled</title>
<path d="M5.688 4l22.313 22.313-1.688 1.688-5.563-5.563c-1 0.625-2.25 1-3.438 1.188v4.375h-2.625v-4.375c-4.375-0.625-8-4.375-8-8.938h2.25c0 4 3.375 6.75 7.063 6.75 1.063 0 2.125-0.25 3.063-0.688l-2.188-2.188c-0.25 0.063-0.563 0.125-0.875 0.125-2.188 0-4-1.813-4-4v-1l-8-8zM20 14.875l-8-7.938v-0.25c0-2.188 1.813-4 4-4s4 1.813 4 4v8.188zM25.313 14.688c0 1.563-0.438 3.063-1.188 4.375l-1.625-1.688c0.375-0.813 0.563-1.688 0.563-2.688h2.25z"></path>
</svg>
