<svg width="24" height="24" viewBox="0 0 24 24" xmlns="http://www.w3.org/2000/svg">
    <path fill-rule="evenodd" clip-rule="evenodd" d="M16.5 6.43934V6C16.5 3.51472 14.4853 1.5 12 1.5C9.51472 1.5 7.5 3.51472 7.5 6V12C7.5 12.9719 7.80809 13.8718 8.33194 14.6074L7.26011 15.6792C6.47031 14.6632 6 13.3865 6 12V10.5C6 10.0858 5.66421 9.75 5.25 9.75C4.83579 9.75 4.5 10.0858 4.5 10.5V12C4.5 13.801 5.13477 15.4536 6.19279 16.7465L3.21967 19.7197C2.92678 20.0126 2.92678 20.4874 3.21967 20.7803C3.51256 21.0732 3.98744 21.0732 4.28033 20.7803L20.7803 4.28033C21.0732 3.98744 21.0732 3.51256 20.7803 3.21967C20.4874 2.92678 20.0126 2.92678 19.7197 3.21967L16.5 6.43934ZM15 7.93934V6C15 4.34315 13.6569 3 12 3C10.3431 3 9 4.34315 9 6V12C9 12.5564 9.15145 13.0773 9.41536 13.524L15 7.93934Z" />
    <path d="M9.79045 17.58C10.4743 17.8511 11.2198 18 12 18C15.3138 18 18 15.3137 18 12L18 10.5C18 10.0858 18.3358 9.75 18.75 9.75C19.1642 9.75 19.5 10.0858 19.5 10.5V12C19.5 15.889 16.54 19.0867 12.75 19.463V21.75C12.75 22.1642 12.4142 22.5 12 22.5C11.5858 22.5 11.25 22.1642 11.25 21.75V19.463C10.4805 19.3866 9.74523 19.1939 9.06199 18.9027C8.59675 18.7044 8.52093 18.1041 8.87854 17.7465C9.11615 17.5089 9.47805 17.4562 9.79045 17.58Z" />
    <path d="M15.75 11.25C15.3358 11.25 15 11.5858 15 12C15 13.6569 13.6569 15 12 15C11.5858 15 11.25 15.3358 11.25 15.75C11.25 16.1642 11.5858 16.5 12 16.5C14.4853 16.5 16.5 14.4853 16.5 12C16.5 11.5858 16.1642 11.25 15.75 11.25Z" />
</svg>
