<svg width="18" height="18" viewBox="0 0 18 18" fill="none" xmlns="http://www.w3.org/2000/svg">
<path fill-rule="evenodd" clip-rule="evenodd" d="M6 7.07804V9C6 10.3999 6.9589 11.5759 8.25572 11.907C8.25195 11.9374 8.25 11.9685 8.25 12V13.4378C6.12171 13.0807 4.5 11.2297 4.5 9C4.5 8.58579 4.16421 8.25 3.75 8.25C3.33579 8.25 3 8.58579 3 9C3 12.0597 5.29027 14.5845 8.25 14.9536V15.75C8.25 16.1642 8.58579 16.5 9 16.5C9.41421 16.5 9.75 16.1642 9.75 15.75V14.9536C10.8412 14.8175 11.8415 14.3884 12.6694 13.7475L15.1986 16.2766C15.4964 16.5744 15.9791 16.5745 16.2768 16.2768C16.5745 15.9791 16.5744 15.4964 16.2766 15.1986L13.7475 12.6694C13.7502 12.6659 13.753 12.6623 13.7557 12.6588L12.6831 11.5861C12.6805 11.5898 12.6779 11.5935 12.6753 11.5972L11.5911 10.513C11.5934 10.5091 11.5957 10.5051 11.598 10.5011L10.4566 9.35965C10.4554 9.3647 10.4541 9.36974 10.4528 9.37476L7.5 6.42196V6.40304L6 4.90304V4.92196L2.80143 1.72339C2.50364 1.4256 2.02091 1.42553 1.72322 1.72322C1.42553 2.02091 1.4256 2.50364 1.72339 2.80143L6 7.07804ZM7.5 8.57804V9C7.5 9.82843 8.17157 10.5 9 10.5C9.1294 10.5 9.25498 10.4836 9.37476 10.4528L7.5 8.57804ZM10.513 11.5911C10.2756 11.73 10.0175 11.8372 9.74428 11.907C9.74805 11.9374 9.75 11.9685 9.75 12V13.4378C10.4295 13.3238 11.0573 13.0575 11.5972 12.6753L10.513 11.5911ZM12 8.74696L10.5 7.24696V4.5C10.5 3.67157 9.82843 3 9 3C8.25144 3 7.63095 3.54832 7.51827 4.26522L6.34845 3.09541C6.85223 2.14635 7.85064 1.5 9 1.5C10.6569 1.5 12 2.84315 12 4.5V8.74696ZM13.3623 10.1092L14.5462 11.2932C14.8386 10.5867 15 9.81218 15 9C15 8.58579 14.6642 8.25 14.25 8.25C13.8358 8.25 13.5 8.58579 13.5 9C13.5 9.38278 13.4522 9.7544 13.3623 10.1092Z" />
</svg>
