<svg width="24" height="24" viewBox="0 0 24 24" xmlns="http://www.w3.org/2000/svg">
    <path fill-rule="evenodd" clip-rule="evenodd" d="M12 1.5C9.51472 1.5 7.5 3.51472 7.5 6V12C7.5 14.4853 9.51472 16.5 12 16.5C14.4853 16.5 16.5 14.4853 16.5 12V6C16.5 3.51472 14.4853 1.5 12 1.5ZM15 12V6C15 4.34315 13.6569 3 12 3C10.3431 3 9 4.34315 9 6V12C9 13.6569 10.3431 15 12 15C13.6569 15 15 13.6569 15 12Z" />
    <path d="M11.25 19.463C7.46001 19.0867 4.5 15.889 4.5 12V10.5C4.5 10.0858 4.83579 9.75 5.25 9.75C5.66421 9.75 6 10.0858 6 10.5V12C6 15.3137 8.68629 18 12 18C15.3137 18 18 15.3137 18 12V10.5C18 10.0858 18.3358 9.75 18.75 9.75C19.1642 9.75 19.5 10.0858 19.5 10.5V12C19.5 15.889 16.54 19.0867 12.75 19.463V21.75C12.75 22.1642 12.4142 22.5 12 22.5C11.5858 22.5 11.25 22.1642 11.25 21.75V19.463Z" />
</svg>
