<?xml version="1.0" encoding="UTF-8" standalone="no"?>
<svg
   width="24"
   height="24"
   viewBox="0 0 24 24"
   version="1.1"
   id="svg8594"
   sodipodi:docname="microphone-empty.svg"
   inkscape:version="1.1.1 (c3084ef, 2021-09-22)"
   xmlns:inkscape="http://www.inkscape.org/namespaces/inkscape"
   xmlns:sodipodi="http://sodipodi.sourceforge.net/DTD/sodipodi-0.dtd"
   xmlns="http://www.w3.org/2000/svg"
   xmlns:svg="http://www.w3.org/2000/svg">
  <defs
     id="defs8598" />
  <sodipodi:namedview
     id="namedview8596"
     pagecolor="#ffffff"
     bordercolor="#666666"
     borderopacity="1.0"
     inkscape:pageshadow="2"
     inkscape:pageopacity="0.0"
     inkscape:pagecheckerboard="0"
     showgrid="false"
     inkscape:zoom="14.643003"
     inkscape:cx="34.385023"
     inkscape:cy="15.263263"
     inkscape:window-width="1280"
     inkscape:window-height="725"
     inkscape:window-x="0"
     inkscape:window-y="44"
     inkscape:window-maximized="0"
     inkscape:current-layer="svg8594" />
  <path
     fill-rule="evenodd"
     clip-rule="evenodd"
     d="m 15.419518,5.0712287 c 0,-1.9224934 -1.56158,-3.4809807 -3.48781,-3.4809807 -1.926265,0 -3.48781,1.5584873 -3.48781,3.4809807 V 10.2927 c 0,1.6244 1.1148174,2.988944 2.622484,3.372983 -0.0044,0.03542 -0.0066,0.07145 -0.0066,0.107998 v 1.66826 C 8.5854072,15.027704 6.699993,12.879939 6.699993,10.2927 c 0,-0.4806361 -0.3903905,-0.8702451 -0.8719525,-0.8702451 -0.4815619,0 -0.8719525,0.389609 -0.8719525,0.8702451 0,3.550252 2.6626727,6.479846 6.103668,6.908093 v 0.924114 c 0,0.480636 0.390373,0.870245 0.871952,0.870245 0.481579,0 0.871952,-0.389609 0.871952,-0.870245 v -0.924114 c 3.440987,-0.428247 6.103668,-3.357841 6.103668,-6.908093 0,-0.4806361 -0.390373,-0.8702451 -0.871953,-0.8702451 -0.481579,0 -0.871952,0.389609 -0.871952,0.8702451 0,2.587239 -1.885423,4.735004 -4.359763,5.149241 v -1.66826 c 0,-0.03655 -0.0023,-0.07258 -0.0066,-0.107998 1.507667,-0.384039 2.622458,-1.748583 2.622458,-3.372983 z m -3.48781,-1.7404904 c -0.963159,0 -1.743905,0.7792437 -1.743905,1.7404904 V 10.2927 c 0,0.961273 0.780746,1.74049 1.743905,1.74049 0.963159,0 1.743905,-0.779217 1.743905,-1.74049 V 5.0712287 c 0,-0.9612467 -0.780746,-1.7404904 -1.743905,-1.7404904 z"
     id="path8592"
     style="stroke-width:0.871098" />
  <text
     xml:space="preserve"
     style="font-style:normal;font-weight:normal;font-size:6.66667px;line-height:1.25;font-family:sans-serif;fill:#000000;fill-opacity:1;stroke:none"
     x="2.7316809"
     y="23.765615"
     id="text9988"><tspan
       sodipodi:role="line"
       id="tspan9986"
       x="2.7316809"
       y="23.765615"
       style="font-size:6.66667px">Audio</tspan></text>
</svg>
