<svg width="24" height="24" viewBox="0 0 24 24" xmlns="http://www.w3.org/2000/svg">
<path fill-rule="evenodd" clip-rule="evenodd" d="M16 6C16 3.79086 14.2091 2 12 2C9.79086 2 8 3.79086 8 6V12C8 13.8666 9.27853 15.4346 11.0076 15.8759C11.0026 15.9166 11 15.958 11 16V17.917C8.16229 17.441 6 14.973 6 12C6 11.4477 5.55228 11 5 11C4.44772 11 4 11.4477 4 12C4 16.0796 7.05369 19.446 11 19.9381V21C11 21.5523 11.4477 22 12 22C12.5523 22 13 21.5523 13 21V19.9381C16.9463 19.446 20 16.0796 20 12C20 11.4477 19.5523 11 19 11C18.4477 11 18 11.4477 18 12C18 14.973 15.8377 17.441 13 17.917V16C13 15.958 12.9974 15.9166 12.9924 15.8759C14.7215 15.4346 16 13.8666 16 12V6ZM12 4C10.8954 4 10 4.89543 10 6V12C10 13.1046 10.8954 14 12 14C13.1046 14 14 13.1046 14 12V6C14 4.89543 13.1046 4 12 4Z" />
</svg>
