<?xml version="1.0" encoding="UTF-8" standalone="no"?>
<svg
   width="22"
   height="22"
   viewBox="0 0 22 22"
   version="1.1"
   id="svg12"
   sodipodi:docname="microphone-empty-slash.svg"
   inkscape:version="1.1.1 (c3084ef, 2021-09-22)"
   xmlns:inkscape="http://www.inkscape.org/namespaces/inkscape"
   xmlns:sodipodi="http://sodipodi.sourceforge.net/DTD/sodipodi-0.dtd"
   xmlns="http://www.w3.org/2000/svg"
   xmlns:svg="http://www.w3.org/2000/svg">
  <defs
     id="defs16" />
  <sodipodi:namedview
     id="namedview14"
     pagecolor="#ffffff"
     bordercolor="#666666"
     borderopacity="1.0"
     inkscape:pageshadow="2"
     inkscape:pageopacity="0.0"
     inkscape:pagecheckerboard="0"
     showgrid="false"
     inkscape:zoom="15.974185"
     inkscape:cx="32.834226"
     inkscape:cy="12.551501"
     inkscape:window-width="1280"
     inkscape:window-height="725"
     inkscape:window-x="0"
     inkscape:window-y="23"
     inkscape:window-maximized="0"
     inkscape:current-layer="svg12" />
  <path
     fill-rule="evenodd"
     clip-rule="evenodd"
     d="m 8.222246,6.016611 v 1.915937 c 0,1.395513 0.9078662,2.567791 2.135665,2.897787 -0.0035,0.03042 -0.0055,0.06134 -0.0055,0.09273 v 1.433274 C 8.3374886,12.000412 6.8020814,10.155254 6.8020814,7.932548 c 0,-0.4129443 -0.3179186,-0.7476711 -0.710086,-0.7476711 -0.3921676,0 -0.7100785,0.3347268 -0.7100785,0.7476711 0,3.050062 2.1683706,5.566958 4.9705721,5.934881 v 0.793916 c 0,0.412863 0.317911,0.747591 0.710109,0.747591 0.392122,0 0.710032,-0.334728 0.710032,-0.747591 v -0.793916 c 1.03321,-0.135637 1.980204,-0.563424 2.764136,-1.202293 l 2.39448,2.521137 c 0.281967,0.296883 0.739002,0.296964 1.020815,1.64e-4 0.28189,-0.29672 0.281813,-0.777931 -1.54e-4,-1.074813 l -2.394479,-2.521138 c 0.0025,-0.0036 0.0052,-0.0071 0.0078,-0.01068 l -1.015472,-1.069267 c -0.0024,0.0036 -0.005,0.0074 -0.0074,0.0111 L 13.51579,9.440785 c 0.0023,-0.0039 0.0044,-0.0079 0.0067,-0.01191 L 12.44168,8.2910922 c -0.0012,0.00493 -0.0024,0.010034 -0.0036,0.015009 L 9.6424182,5.3625883 V 5.3437313 L 8.222246,3.8484458 v 0.018857 L 5.1939126,0.67878266 C 4.9119759,0.38192436 4.4549325,0.38185086 4.1730888,0.67861126 3.8912373,0.97536349 3.891307,1.4565826 4.1732514,1.7534328 Z M 9.6424182,7.5119374 V 7.932548 c 0,0.8258071 0.6358298,1.495262 1.4201798,1.495262 0.122471,0 0.241378,-0.01631 0.354784,-0.04706 z m 2.8526388,3.0034906 c -0.224722,0.13849 -0.469198,0.245418 -0.727772,0.314907 0.0035,0.03042 0.0054,0.06134 0.0054,0.09273 v 1.433274 c 0.643298,-0.113611 1.237755,-0.379011 1.748938,-0.760064 z M 13.902881,7.6802795 12.48274,6.1849941 V 3.4466672 c 0,-0.8258232 -0.635822,-1.4952855 -1.420142,-1.4952855 -0.708714,0 -1.2961993,0.5465904 -1.4028899,1.2612458 L 8.5521559,2.0464902 c 0.476967,-0.9460771 1.4222328,-1.59040224 2.5104421,-1.59040224 1.56864,0 2.840283,1.33893284 2.840283,2.99057924 z m 1.28977,1.3579936 1.120976,1.1801909 c 0.276856,-0.704281 0.429614,-1.4763397 0.429614,-2.285916 0,-0.4129443 -0.317911,-0.7476711 -0.710109,-0.7476711 -0.392122,0 -0.710033,0.3347268 -0.710033,0.7476711 0,0.3815438 -0.04524,0.7519945 -0.130448,1.1057251 z"
     id="path10"
     style="stroke-width:0.79486" />
  <text
     xml:space="preserve"
     style="font-style:normal;font-variant:normal;font-weight:normal;font-stretch:normal;font-size:8px;line-height:1.25;font-family:sans-serif;-inkscape-font-specification:'sans-serif, Normal';font-variant-ligatures:normal;font-variant-caps:normal;font-variant-numeric:normal;font-variant-east-asian:normal;fill:#000000;fill-opacity:1;stroke:none"
     x="-0.31300482"
     y="21.785149"
     id="text4467"><tspan
       sodipodi:role="line"
       id="tspan4465"
       x="-0.31300482"
       y="21.785149"
       style="font-size:8px">Audio</tspan></text>
</svg>
