<svg width="20" height="20" viewBox="0 0 20 20" fill="none" xmlns="http://www.w3.org/2000/svg">
<path fill-rule="evenodd" clip-rule="evenodd" d="M6.33334 7.65098V10C6.33334 11.7111 7.50533 13.1484 9.09033 13.553C9.08572 13.5902 9.08334 13.6282 9.08334 13.6667V15.424C6.48211 14.9876 4.50001 12.7253 4.50001 10C4.50001 9.49378 4.0896 9.08337 3.58334 9.08337C3.07708 9.08337 2.66668 9.49378 2.66668 10C2.66668 13.7397 5.46589 16.8255 9.08334 17.2766V18.25C9.08334 18.7563 9.49375 19.1667 10 19.1667C10.5063 19.1667 10.9167 18.7563 10.9167 18.25V17.2766C12.2504 17.1103 13.4729 16.5859 14.4849 15.8025L17.576 18.8937C17.94 19.2576 18.53 19.2577 18.8939 18.8939C19.2577 18.53 19.2576 17.94 18.8936 17.5761L15.8025 14.4849C15.8059 14.4806 15.8092 14.4762 15.8126 14.4719L14.5016 13.1609C14.4984 13.1654 14.4952 13.1699 14.492 13.1744L13.1669 11.8493C13.1697 11.8444 13.1726 11.8396 13.1754 11.8347L11.7803 10.4396C11.7788 10.4458 11.7772 10.4519 11.7757 10.4581L8.16668 6.8491V6.82598L6.33334 4.99265V5.01577L2.42398 1.10641C2.06002 0.742445 1.47001 0.742351 1.10617 1.1062C0.74232 1.47004 0.742414 2.06005 1.10638 2.42401L6.33334 7.65098ZM8.16668 9.48431V10C8.16668 11.0126 8.98749 11.8334 10 11.8334C10.1582 11.8334 10.3116 11.8133 10.4581 11.7757L8.16668 9.48431ZM11.8493 13.1669C11.5591 13.3367 11.2436 13.4678 10.9097 13.553C10.9143 13.5902 10.9167 13.6282 10.9167 13.6667V15.424C11.7471 15.2847 12.5145 14.9592 13.1744 14.492L11.8493 13.1669ZM13.6667 9.69077L11.8333 7.85743V4.50004C11.8333 3.48752 11.0125 2.66671 10 2.66671C9.08511 2.66671 8.32673 3.33688 8.189 4.21309L6.75923 2.78332C7.37496 1.62336 8.59523 0.833374 10 0.833374C12.0251 0.833374 13.6667 2.475 13.6667 4.50004V9.69077ZM15.3317 11.3558L16.7787 12.8028C17.1361 11.9393 17.3333 10.9927 17.3333 10C17.3333 9.49378 16.9229 9.08337 16.4167 9.08337C15.9104 9.08337 15.5 9.49378 15.5 10C15.5 10.4679 15.4416 10.9221 15.3317 11.3558Z" />
</svg>
