<svg width="18" height="18" viewBox="0 0 18 18" fill="none" xmlns="http://www.w3.org/2000/svg">
<path fill-rule="evenodd" clip-rule="evenodd" d="M12 4.5C12 2.84315 10.6569 1.5 9 1.5C7.34315 1.5 6 2.84315 6 4.5V9C6 10.3999 6.9589 11.5759 8.25572 11.907C8.25195 11.9374 8.25 11.9685 8.25 12V13.4378C6.12171 13.0807 4.5 11.2297 4.5 9C4.5 8.58579 4.16421 8.25 3.75 8.25C3.33579 8.25 3 8.58579 3 9C3 12.0597 5.29027 14.5845 8.25 14.9536V15.75C8.25 16.1642 8.58579 16.5 9 16.5C9.41421 16.5 9.75 16.1642 9.75 15.75V14.9536C12.7097 14.5845 15 12.0597 15 9C15 8.58579 14.6642 8.25 14.25 8.25C13.8358 8.25 13.5 8.58579 13.5 9C13.5 11.2297 11.8783 13.0807 9.75 13.4378V12C9.75 11.9685 9.74805 11.9374 9.74428 11.907C11.0411 11.5759 12 10.3999 12 9V4.5ZM9 3C8.17157 3 7.5 3.67157 7.5 4.5V9C7.5 9.82843 8.17157 10.5 9 10.5C9.82843 10.5 10.5 9.82843 10.5 9V4.5C10.5 3.67157 9.82843 3 9 3Z" />
</svg>
