<?xml version="1.0" encoding="UTF-8" standalone="no"?>
<svg
   width="22"
   height="22"
   viewBox="0 0 22 22"
   version="1.1"
   id="svg12"
   sodipodi:docname="microphone-empty-slash.svg"
   inkscape:version="1.1.1 (c3084ef, 2021-09-22)"
   xmlns:inkscape="http://www.inkscape.org/namespaces/inkscape"
   xmlns:sodipodi="http://sodipodi.sourceforge.net/DTD/sodipodi-0.dtd"
   xmlns="http://www.w3.org/2000/svg"
   xmlns:svg="http://www.w3.org/2000/svg">
  <defs
     id="defs16" />
  <sodipodi:namedview
     id="namedview14"
     pagecolor="#ffffff"
     bordercolor="#666666"
     borderopacity="1.0"
     inkscape:pageshadow="2"
     inkscape:pageopacity="0.0"
     inkscape:pagecheckerboard="0"
     showgrid="false"
     inkscape:zoom="15.974185"
     inkscape:cx="17.559581"
     inkscape:cy="12.551501"
     inkscape:window-width="1280"
     inkscape:window-height="725"
     inkscape:window-x="293"
     inkscape:window-y="64"
     inkscape:window-maximized="0"
     inkscape:current-layer="svg12" />
  <path
     fill-rule="evenodd"
     clip-rule="evenodd"
     d="m 7.9217605,6.623443 v 2.0603179 c 0,1.5006751 1.0039113,2.7612941 2.3616015,3.1161581 -0.0039,0.03271 -0.006,0.06596 -0.006,0.09972 v 1.541283 C 8.0491949,13.05817 6.351354,11.073965 6.351354,8.6837609 c 0,-0.444063 -0.3515518,-0.804014 -0.7852075,-0.804014 -0.4336557,0 -0.785199,0.359951 -0.785199,0.804014 0,3.2799081 2.3977667,5.9864721 5.4964185,6.3821211 v 0.853744 c 0,0.443975 0.351543,0.803927 0.785233,0.803927 0.433605,0 0.785148,-0.359952 0.785148,-0.803927 v -0.853744 c 1.142515,-0.145858 2.189693,-0.605883 3.056559,-1.292896 l 2.647796,2.711125 c 0.311797,0.319255 0.817184,0.319343 1.12881,1.76e-4 0.311712,-0.31908 0.311626,-0.836554 -1.71e-4,-1.155809 l -2.647796,-2.711125 c 0.0028,-0.0039 0.0057,-0.0076 0.0086,-0.01149 l -1.1229,-1.149845 c -0.0027,0.0039 -0.0055,0.008 -0.0082,0.01193 l -1.135149,-1.162299 c 0.0025,-0.0042 0.0049,-0.0085 0.0074,-0.01281 L 12.587581,9.069323 c -0.0013,0.0053 -0.0027,0.01079 -0.004,0.01614 L 9.4921756,5.9201345 V 5.8998565 L 7.9217605,4.2918895 v 0.020278 L 4.5730538,0.88336746 C 4.2612905,0.56413856 3.7558956,0.56405956 3.444235,0.88318316 3.1325659,1.202298 3.132643,1.7197807 3.4444149,2.0390008 Z m 1.5704151,1.6080109 v 0.452307 c 0,0.8880381 0.7030954,1.6079411 1.5704234,1.6079411 0.135427,0 0.266913,-0.01754 0.392317,-0.05061 z M 12.6466,11.461281 c -0.248496,0.148927 -0.518835,0.263912 -0.804764,0.338638 0.0039,0.03271 0.0059,0.06596 0.0059,0.09972 v 1.541283 c 0.711395,-0.122177 1.36874,-0.407577 1.934002,-0.817346 z M 14.203361,8.4124819 12.63298,6.804515 V 3.8598338 c 0,-0.8880555 -0.703087,-1.607967 -1.570381,-1.607967 -0.783691,0 -1.4333267,0.5877802 -1.5513044,1.3562905 L 8.2865723,2.3541424 C 8.8139986,1.3367711 9.8592659,0.64389096 11.062599,0.64389096 c 1.734589,0 3.140762,1.43983184 3.140762,3.21594284 z m 1.426217,1.4603291 1.239567,1.269127 c 0.306144,-0.757354 0.475063,-1.587593 0.475063,-2.4581771 0,-0.444063 -0.351543,-0.804014 -0.785233,-0.804014 -0.433604,0 -0.785148,0.359951 -0.785148,0.804014 0,0.4102961 -0.05002,0.8086631 -0.144249,1.1890501 z"
     id="path10"
     style="stroke-width:0.86677" />
  <text
     xml:space="preserve"
     style="font-style:normal;font-variant:normal;font-weight:normal;font-stretch:normal;font-size:6.66667px;line-height:1.25;font-family:sans-serif;-inkscape-font-specification:'sans-serif, Normal';font-variant-ligatures:normal;font-variant-caps:normal;font-variant-numeric:normal;font-variant-east-asian:normal;fill:#000000;fill-opacity:1;stroke:none"
     x="1.9406313"
     y="21.722548"
     id="text4467"><tspan
       sodipodi:role="line"
       id="tspan4465"
       x="1.9406313"
       y="21.722548">Audio</tspan></text>
</svg>
