<?xml version="1.0" encoding="UTF-8" standalone="no"?>
<svg
   width="40"
   height="40"
   viewBox="0 0 40 40"
   version="1.1"
   id="svg12"
   sodipodi:docname="microphone-empty-slash.svg"
   inkscape:version="1.1.1 (c3084ef, 2021-09-22)"
   xmlns:inkscape="http://www.inkscape.org/namespaces/inkscape"
   xmlns:sodipodi="http://sodipodi.sourceforge.net/DTD/sodipodi-0.dtd"
   xmlns="http://www.w3.org/2000/svg"
   xmlns:svg="http://www.w3.org/2000/svg">
  <defs
     id="defs16" />
  <sodipodi:namedview
     id="namedview14"
     pagecolor="#ffffff"
     bordercolor="#666666"
     borderopacity="1.0"
     inkscape:pageshadow="2"
     inkscape:pageopacity="0.0"
     inkscape:pagecheckerboard="0"
     showgrid="false"
     inkscape:zoom="11.295455"
     inkscape:cx="23.682093"
     inkscape:cy="22.531187"
     inkscape:window-width="1280"
     inkscape:window-height="725"
     inkscape:window-x="6"
     inkscape:window-y="24"
     inkscape:window-maximized="0"
     inkscape:current-layer="svg12"
     width="40px" />
  <path
     fill-rule="evenodd"
     clip-rule="evenodd"
     d="m 14.968319,10.407692 v 3.367922 c 0,2.453097 1.553049,4.513781 3.653395,5.093863 -0.006,0.05347 -0.0094,0.107826 -0.0094,0.163005 v 2.519475 c -3.446845,-0.625665 -6.073404,-3.869168 -6.073404,-7.776343 0,-0.725892 -0.54385,-1.31429 -1.214715,-1.31429 -0.670864,0 -1.214702,0.588398 -1.214702,1.31429 0,5.361539 3.709342,9.785854 8.502954,10.432606 v 1.395582 c 0,0.72575 0.543838,1.31415 1.214755,1.31415 0.670787,0 1.214622,-0.5884 1.214622,-1.31415 V 24.20822 c 1.767471,-0.238429 3.387454,-0.990412 4.728495,-2.113446 l 4.096139,4.431771 c 0.482349,0.521874 1.26418,0.522017 1.746266,2.88e-4 0.482218,-0.521588 0.482086,-1.367483 -2.63e-4,-1.889356 l -4.096147,-4.431772 c 0.0043,-0.0063 0.0089,-0.01248 0.01334,-0.01877 l -1.737127,-1.879607 c -0.0041,0.0063 -0.0086,0.01301 -0.01266,0.01951 l -1.756104,-1.899975 c 0.0039,-0.0069 0.0075,-0.01389 0.01146,-0.02094 l -1.848897,-2.000045 c -0.0021,0.0086 -0.0041,0.01763 -0.0062,0.02638 L 17.397749,9.2580239 v -0.03315 l -2.42943,-2.6284787 v 0.033153 L 9.7878732,1.0246133 C 9.3055751,0.50278208 8.5237287,0.50265288 8.0415914,1.024312 7.5594387,1.5459568 7.5595585,2.3918658 8.0418685,2.9136827 Z m 2.42943,2.628555 v 0.739367 c 0,1.451643 1.087688,2.62844 2.429444,2.62844 0.209506,0 0.412915,-0.02867 0.606914,-0.08272 z m 4.879893,5.279672 c -0.384423,0.243444 -0.802638,0.431407 -1.24497,0.553558 0.006,0.05347 0.0092,0.107826 0.0092,0.163005 v 2.519475 c 1.100463,-0.199711 2.117376,-0.666243 2.991836,-1.336075 z m 2.408307,-4.983753 -2.429377,-2.628481 V 5.8901284 c 0,-1.4516714 -1.087675,-2.628482 -2.429379,-2.628482 -1.212368,0 -2.217355,0.9608224 -2.399867,2.2170757 L 15.532682,3.4288325 c 0.815928,-1.6630578 2.432956,-2.79568222 4.294511,-2.79568222 2.683408,0 4.858756,2.35363772 4.858756,5.25697812 z m 2.206356,2.387144 1.917608,2.074592 c 0.473606,-1.238017 0.734923,-2.595176 0.734923,-4.018288 0,-0.725892 -0.543837,-1.31429 -1.214754,-1.31429 -0.670787,0 -1.214625,0.588398 -1.214625,1.31429 0,0.670696 -0.07739,1.321891 -0.223152,1.943696 z"
     id="path10"
     style="stroke-width:1.37836" />
  <text
     xml:space="preserve"
     style="font-style:normal;font-variant:normal;font-weight:normal;font-stretch:normal;font-size:10.6667px;line-height:1.25;font-family:sans-serif;-inkscape-font-specification:'sans-serif, Normal';font-variant-ligatures:normal;font-variant-caps:normal;font-variant-numeric:normal;font-variant-east-asian:normal;fill:#000000;fill-opacity:1;stroke:none"
     x="-0.22447346"
     y="39.579918"
     id="text4467"><tspan
       sodipodi:role="line"
       id="tspan4465"
       x="-0.22447346"
       y="39.579918"
       style="font-style:normal;font-variant:normal;font-weight:bold;font-stretch:normal;font-size:10.6667px;font-family:sans-serif;-inkscape-font-specification:'sans-serif Bold'">AUDIO</tspan></text>
</svg>
