<svg width="22" height="22" viewBox="0 0 22 22" fill="none" xmlns="http://www.w3.org/2000/svg">
<path fill-rule="evenodd" clip-rule="evenodd" d="M7.33331 8.65095V11C7.33331 12.711 8.5053 14.1483 10.0903 14.553C10.0857 14.5902 10.0833 14.6282 10.0833 14.6667V16.424C7.48208 15.9876 5.49998 13.7253 5.49998 11C5.49998 10.4937 5.08957 10.0833 4.58331 10.0833C4.07705 10.0833 3.66665 10.4937 3.66665 11C3.66665 14.7397 6.46586 17.8255 10.0833 18.2766V19.25C10.0833 19.7563 10.4937 20.1667 11 20.1667C11.5062 20.1667 11.9166 19.7563 11.9166 19.25V18.2766C13.2504 18.1103 14.4729 17.5858 15.4849 16.8025L18.576 19.8936C18.94 20.2576 19.53 20.2577 19.8938 19.8939C20.2577 19.53 20.2576 18.94 19.8936 18.576L16.8025 15.4849C16.8058 15.4805 16.8092 15.4762 16.8125 15.4718L15.5016 14.1609C15.4984 14.1654 15.4952 14.1699 15.492 14.1744L14.1668 12.8493C14.1697 12.8444 14.1725 12.8395 14.1754 12.8347L12.7803 11.4396C12.7788 11.4458 12.7772 11.4519 12.7756 11.4581L9.16665 7.84907V7.82595L7.33331 5.99262V6.01574L3.42395 2.10638C3.05999 1.74241 2.46998 1.74232 2.10614 2.10617C1.74229 2.47001 1.74238 3.06002 2.10635 3.42398L7.33331 8.65095ZM9.16665 10.4843V11C9.16665 12.0125 9.98746 12.8333 11 12.8333C11.1581 12.8333 11.3116 12.8133 11.458 12.7757L9.16665 10.4843ZM12.8492 14.1669C12.5591 14.3367 12.2435 14.4677 11.9097 14.553C11.9143 14.5902 11.9166 14.6282 11.9166 14.6667V16.424C12.7471 16.2846 13.5145 15.9592 14.1744 15.492L12.8492 14.1669ZM14.6666 10.6907L12.8333 8.8574V5.50001C12.8333 4.48749 12.0125 3.66668 11 3.66668C10.0851 3.66668 9.3267 4.33685 9.18897 5.21306L7.7592 3.78329C8.37493 2.62333 9.5952 1.83334 11 1.83334C13.025 1.83334 14.6666 3.47497 14.6666 5.50001V10.6907ZM16.3316 12.3557L17.7787 13.8028C18.1361 12.9393 18.3333 11.9927 18.3333 11C18.3333 10.4937 17.9229 10.0833 17.4166 10.0833C16.9104 10.0833 16.5 10.4937 16.5 11C16.5 11.4679 16.4416 11.9221 16.3316 12.3557Z" />
</svg>
