<svg width="24" height="24" viewBox="0 0 24 24" fill-rule="evenodd" xmlns="http://www.w3.org/2000/svg">
<path fill-rule="evenodd" clip-rule="evenodd" d="M4.5 3H19.5C20.3284 3 21 3.67157 21 4.5V19.5C21 20.3284 20.3284 21 19.5 21H4.5C3.67157 21 3 20.3284 3 19.5V4.5C3 3.67157 3.67157 3 4.5 3ZM1.5 4.5C1.5 2.84315 2.84315 1.5 4.5 1.5H19.5C21.1569 1.5 22.5 2.84315 22.5 4.5V19.5C22.5 21.1569 21.1569 22.5 19.5 22.5H4.5C2.84315 22.5 1.5 21.1569 1.5 19.5V4.5ZM8.71837 7H6.30005V17.9091H8.19636V10.3984H8.29756L11.3125 17.8771H12.7294L15.7443 10.4144H15.8455V17.9091H17.7418V7H15.3235L12.0849 14.9048H11.957L8.71837 7Z"/>
</svg>
