<svg width="20" height="20" viewBox="0 0 20 20" fill="none" xmlns="http://www.w3.org/2000/svg">
<path fill-rule="evenodd" clip-rule="evenodd" d="M5 10.8984V12.5C5 13.6666 5.79908 14.6466 6.87977 14.9225C6.87662 14.9479 6.875 14.9737 6.875 15V16.1982C5.10143 15.9006 3.75 14.3581 3.75 12.5C3.75 12.1548 3.47018 11.875 3.125 11.875C2.77982 11.875 2.5 12.1548 2.5 12.5C2.5 15.0498 4.40856 17.1538 6.875 17.4613V18.125C6.875 18.4702 7.15482 18.75 7.5 18.75C7.84518 18.75 8.125 18.4702 8.125 18.125V17.4613C9.03436 17.3479 9.86788 16.9903 10.5579 16.4562L12.6655 18.5638C12.9136 18.812 13.3159 18.8121 13.564 18.564C13.8121 18.3159 13.812 17.9136 13.5638 17.6655L11.4562 15.5579C11.4585 15.5549 11.4608 15.5519 11.4631 15.549L10.5693 14.6551C10.5671 14.6582 10.5649 14.6613 10.5627 14.6644L9.65923 13.7609C9.66117 13.7575 9.6631 13.7542 9.66503 13.7509L8.71384 12.7997C8.7128 12.8039 8.71175 12.8081 8.71067 12.8123L6.25 10.3516V10.3359L5 9.08587V9.10163L2.33453 6.43616C2.08637 6.188 1.68409 6.18794 1.43602 6.43602C1.18794 6.68409 1.188 7.08637 1.43616 7.33453L5 10.8984ZM6.25 12.1484V12.5C6.25 13.1904 6.80964 13.75 7.5 13.75C7.60783 13.75 7.71248 13.7363 7.8123 13.7107L6.25 12.1484ZM8.76086 14.6592C8.56304 14.775 8.34788 14.8643 8.12023 14.9225C8.12338 14.9479 8.125 14.9737 8.125 15V16.1982C8.69123 16.1032 9.21443 15.8813 9.66436 15.5627L8.76086 14.6592ZM10 12.2891L8.75 11.0391V8.75C8.75 8.05964 8.19036 7.5 7.5 7.5C6.8762 7.5 6.35913 7.95693 6.26522 8.55435L5.29038 7.57951C5.71019 6.78863 6.5422 6.25 7.5 6.25C8.88071 6.25 10 7.36929 10 8.75V12.2891ZM11.1352 13.4243L12.1218 14.411C12.3655 13.8222 12.5 13.1768 12.5 12.5C12.5 12.1548 12.2202 11.875 11.875 11.875C11.5298 11.875 11.25 12.1548 11.25 12.5C11.25 12.819 11.2102 13.1287 11.1352 13.4243Z" fill="white"/>
<path fill-rule="evenodd" clip-rule="evenodd" d="M13.3333 3.93224V5C13.3333 5.77774 13.8661 6.43106 14.5865 6.61497C14.5844 6.63191 14.5833 6.64916 14.5833 6.66666V7.46543C13.401 7.26706 12.5 6.23874 12.5 4.99999C12.5 4.76988 12.3135 4.58333 12.0833 4.58333C11.8532 4.58333 11.6667 4.76988 11.6667 4.99999C11.6667 6.69984 12.939 8.1025 14.5833 8.30754V8.74999C14.5833 8.98011 14.7699 9.16666 15 9.16666C15.2301 9.16666 15.4167 8.98011 15.4167 8.74999V8.30754C16.0229 8.23194 16.5786 7.99355 17.0386 7.63749L18.4437 9.04256C18.6091 9.20799 18.8773 9.20804 19.0427 9.04265C19.2081 8.87727 19.208 8.60908 19.0426 8.44364L17.6375 7.03857C17.639 7.0366 17.6406 7.03462 17.6421 7.03264L17.0462 6.43674C17.0447 6.4388 17.0433 6.44085 17.0418 6.4429L16.4395 5.84057C16.4408 5.83836 16.4421 5.83614 16.4434 5.83392L15.8092 5.1998C15.8085 5.2026 15.8078 5.2054 15.8071 5.2082L14.1667 3.56775V3.55724L13.3333 2.72391V2.73442L11.5564 0.957435C11.3909 0.791997 11.1227 0.791954 10.9574 0.957339C10.792 1.12272 10.792 1.39091 10.9574 1.55635L13.3333 3.93224ZM14.1667 4.76557V4.99999C14.1667 5.46023 14.5398 5.83333 15 5.83333C15.0719 5.83333 15.1417 5.82422 15.2082 5.80711L14.1667 4.76557ZM15.8406 6.43948C15.7087 6.51666 15.5653 6.57623 15.4135 6.61497C15.4156 6.63191 15.4167 6.64916 15.4167 6.66666V7.46543C15.7942 7.4021 16.143 7.25417 16.4429 7.04182L15.8406 6.43948ZM16.6667 4.85942L15.8333 4.02608V2.49999C15.8333 2.03976 15.4602 1.66666 15 1.66666C14.5841 1.66666 14.2394 1.97128 14.1768 2.36956L13.5269 1.71967C13.8068 1.19241 14.3615 0.833328 15 0.833328C15.9205 0.833328 16.6667 1.57952 16.6667 2.49999V4.85942ZM17.4235 5.61623L18.0812 6.27397C18.2437 5.88148 18.3333 5.45121 18.3333 4.99999C18.3333 4.76988 18.1468 4.58333 17.9167 4.58333C17.6866 4.58333 17.5 4.76988 17.5 4.99999C17.5 5.21265 17.4735 5.41911 17.4235 5.61623Z" fill="white"/>
</svg>
