<?xml version="1.0" encoding="utf-8"?>
<!-- Generator: Adobe Illustrator 16.0.3, SVG Export Plug-In . SVG Version: 6.00 Build 0)  -->
<!DOCTYPE svg PUBLIC "-//W3C//DTD SVG 1.1//EN" "http://www.w3.org/Graphics/SVG/1.1/DTD/svg11.dtd">
<svg version="1.1" id="Layer_1" xmlns="http://www.w3.org/2000/svg" xmlns:xlink="http://www.w3.org/1999/xlink" x="0px" y="0px"
	 width="24px" height="24px" viewBox="0 0 24 24" enable-background="new 0 0 24 24" xml:space="preserve">
<path d="M3.136,7.1l14.448,14.447l-1.033,1.032l-2.598-2.599c-0.115,0.077-0.307,0.153-0.459,0.153H3.709
	c-0.458,0-0.803-0.346-0.803-0.804v-8.179c0-0.459,0.344-0.803,0.803-0.803h0.612L2.104,8.131L3.136,7.1z M17.584,10.769v8.714
	l-9.135-9.134h5.045c0.459,0,0.84,0.344,0.84,0.803v2.866L17.584,10.769z"/>
<path d="M14.688,0.818l8.164,8.165l-0.584,0.583L20.8,8.098c-0.065,0.043-0.174,0.086-0.26,0.086h-5.528
	c-0.259,0-0.454-0.195-0.454-0.454V3.108c0-0.26,0.195-0.454,0.454-0.454h0.345l-1.253-1.253L14.688,0.818z M22.852,2.892v4.924
	l-5.162-5.162h2.851c0.26,0,0.476,0.194,0.476,0.454v1.619L22.852,2.892z"/>
</svg>
