<svg width="22" height="22" viewBox="0 0 22 22" fill="none" xmlns="http://www.w3.org/2000/svg">
<path fill-rule="evenodd" clip-rule="evenodd" d="M5.5 11.9882V13.75C5.5 15.0333 6.37899 16.1113 7.56774 16.4147C7.56428 16.4427 7.5625 16.4711 7.5625 16.5V17.818C5.61157 17.4907 4.125 15.7939 4.125 13.75C4.125 13.3703 3.8172 13.0625 3.4375 13.0625C3.0578 13.0625 2.75 13.3703 2.75 13.75C2.75 16.5547 4.84941 18.8691 7.5625 19.2074V19.9375C7.5625 20.3172 7.8703 20.625 8.25 20.625C8.6297 20.625 8.9375 20.3172 8.9375 19.9375V19.2074C9.93779 19.0827 10.8547 18.6894 11.6137 18.1019L13.932 20.4202C14.205 20.6932 14.6475 20.6933 14.9204 20.4204C15.1933 20.1475 15.1932 19.705 14.9202 19.432L12.6019 17.1137C12.6044 17.1104 12.6069 17.1071 12.6094 17.1039L11.6262 16.1206C11.6238 16.124 11.6214 16.1274 11.619 16.1308L10.6251 15.1369C10.6273 15.1333 10.6294 15.1296 10.6315 15.126L9.58522 14.0797C9.58409 14.0843 9.58292 14.0889 9.58174 14.0935L6.875 11.3868V11.3695L5.5 9.99445V10.0118L2.56798 7.07978C2.29501 6.8068 1.8525 6.80673 1.57962 7.07962C1.30673 7.3525 1.3068 7.79501 1.57978 8.06798L5.5 11.9882ZM6.875 13.3632V13.75C6.875 14.5094 7.49061 15.125 8.25 15.125C8.36862 15.125 8.48373 15.11 8.59353 15.0817L6.875 13.3632ZM9.63694 16.1251C9.41934 16.2525 9.18267 16.3508 8.93226 16.4147C8.93572 16.4427 8.9375 16.4711 8.9375 16.5V17.818C9.56035 17.7135 10.1359 17.4694 10.6308 17.119L9.63694 16.1251ZM11 13.518L9.625 12.143V9.625C9.625 8.86561 9.00939 8.25 8.25 8.25C7.56382 8.25 6.99504 8.75263 6.89174 9.40979L5.81941 8.33746C6.28121 7.46749 7.19642 6.875 8.25 6.875C9.76878 6.875 11 8.10622 11 9.625V13.518ZM12.2487 14.7668L13.334 15.8521C13.6021 15.2044 13.75 14.4945 13.75 13.75C13.75 13.3703 13.4422 13.0625 13.0625 13.0625C12.6828 13.0625 12.375 13.3703 12.375 13.75C12.375 14.1009 12.3312 14.4415 12.2487 14.7668Z"/>
<path fill-rule="evenodd" clip-rule="evenodd" d="M14.6666 4.32549V5.50002C14.6666 6.35554 15.2526 7.07419 16.0451 7.27649C16.0428 7.29512 16.0416 7.3141 16.0416 7.33335V8.212C14.741 7.9938 13.75 6.86264 13.75 5.50002C13.75 5.24689 13.5448 5.04169 13.2916 5.04169C13.0385 5.04169 12.8333 5.24689 12.8333 5.50002C12.8333 7.36985 14.2329 8.91277 16.0416 9.13832V9.62502C16.0416 9.87815 16.2468 10.0834 16.5 10.0834C16.7531 10.0834 16.9583 9.87815 16.9583 9.62502V9.13832C17.6252 9.05516 18.2364 8.79293 18.7424 8.40126L20.288 9.94684C20.47 10.1288 20.765 10.1289 20.9469 9.94694C21.1288 9.76502 21.1288 9.47001 20.9468 9.28803L19.4012 7.74246C19.4029 7.74029 19.4046 7.73811 19.4062 7.73594L18.7507 7.08044C18.7492 7.0827 18.7476 7.08496 18.746 7.08722L18.0834 6.42465C18.0848 6.42222 18.0862 6.41978 18.0876 6.41734L17.3901 5.71981C17.3893 5.72289 17.3886 5.72597 17.3878 5.72904L15.5833 3.92455V3.91299L14.6666 2.99632V3.00788L12.7119 1.0532C12.53 0.871222 12.235 0.871175 12.053 1.0531C11.8711 1.23502 11.8712 1.53003 12.0531 1.71201L14.6666 4.32549ZM15.5833 5.24216V5.50002C15.5833 6.00628 15.9937 6.41669 16.5 6.41669C16.579 6.41669 16.6558 6.40667 16.729 6.38785L15.5833 5.24216ZM17.4246 7.08345C17.2795 7.16835 17.1217 7.23388 16.9548 7.27649C16.9571 7.29512 16.9583 7.3141 16.9583 7.33335V8.212C17.3735 8.14233 17.7572 7.97962 18.0872 7.74602L17.4246 7.08345ZM18.3333 5.34538L17.4166 4.42872V2.75002C17.4166 2.24376 17.0062 1.83335 16.5 1.83335C16.0425 1.83335 15.6633 2.16844 15.5945 2.60655L14.8796 1.89166C15.1874 1.31168 15.7976 0.916687 16.5 0.916687C17.5125 0.916687 18.3333 1.7375 18.3333 2.75002V5.34538ZM19.1658 6.17788L19.8893 6.90139C20.068 6.46965 20.1666 5.99635 20.1666 5.50002C20.1666 5.24689 19.9614 5.04169 19.7083 5.04169C19.4552 5.04169 19.25 5.24689 19.25 5.50002C19.25 5.73394 19.2208 5.96104 19.1658 6.17788Z"/>
</svg>
