<svg width="24" height="24" viewBox="0 0 24 24" fill="none" xmlns="http://www.w3.org/2000/svg">
<g clip-path="url(#clip0)">
<path fill-rule="evenodd" clip-rule="evenodd" d="M6 13.078V15C6 16.3999 6.9589 17.5759 8.25572 17.907C8.25195 17.9374 8.25 17.9685 8.25 18V19.4378C6.12171 19.0807 4.5 17.2297 4.5 15C4.5 14.5858 4.16421 14.25 3.75 14.25C3.33579 14.25 3 14.5858 3 15C3 18.0597 5.29027 20.5845 8.25 20.9536V21.75C8.25 22.1642 8.58579 22.5 9 22.5C9.41421 22.5 9.75 22.1642 9.75 21.75V20.9536C10.8412 20.8175 11.8415 20.3884 12.6694 19.7475L15.1986 22.2766C15.4964 22.5744 15.9791 22.5745 16.2768 22.2768C16.5745 21.9791 16.5744 21.4964 16.2766 21.1986L13.7475 18.6694C13.7502 18.6659 13.753 18.6623 13.7557 18.6588L12.6831 17.5861C12.6805 17.5898 12.6779 17.5935 12.6753 17.5972L11.5911 16.513C11.5934 16.5091 11.5957 16.5051 11.598 16.5011L10.4566 15.3596C10.4554 15.3647 10.4541 15.3697 10.4528 15.3748L7.5 12.422V12.403L6 10.903V10.922L2.80143 7.72339C2.50364 7.4256 2.02091 7.42553 1.72322 7.72322C1.42553 8.02091 1.4256 8.50364 1.72339 8.80143L6 13.078ZM7.5 14.578V15C7.5 15.8284 8.17157 16.5 9 16.5C9.1294 16.5 9.25498 16.4836 9.37476 16.4528L7.5 14.578ZM10.513 17.5911C10.2756 17.73 10.0175 17.8372 9.74428 17.907C9.74805 17.9374 9.75 17.9685 9.75 18V19.4378C10.4295 19.3238 11.0573 19.0575 11.5972 18.6753L10.513 17.5911ZM12 14.747L10.5 13.247V10.5C10.5 9.67157 9.82843 9 9 9C8.25144 9 7.63095 9.54832 7.51827 10.2652L6.34845 9.09541C6.85223 8.14635 7.85064 7.5 9 7.5C10.6569 7.5 12 8.84315 12 10.5V14.747ZM13.3623 16.1092L14.5462 17.2932C14.8386 16.5867 15 15.8122 15 15C15 14.5858 14.6642 14.25 14.25 14.25C13.8358 14.25 13.5 14.5858 13.5 15C13.5 15.3828 13.4522 15.7544 13.3623 16.1092Z" fill="white"/>
<path fill-rule="evenodd" clip-rule="evenodd" d="M16 4.71869V6C16 6.93329 16.6393 7.71727 17.5038 7.93797C17.5013 7.95829 17.5 7.97899 17.5 8V8.95852C16.0811 8.72048 15 7.4865 15 6C15 5.72386 14.7761 5.5 14.5 5.5C14.2239 5.5 14 5.72386 14 6C14 8.03981 15.5268 9.723 17.5 9.96905V10.5C17.5 10.7761 17.7239 11 18 11C18.2761 11 18.5 10.7761 18.5 10.5V9.96905C19.2275 9.87834 19.8943 9.59227 20.4463 9.16499L22.1324 10.8511C22.3309 11.0496 22.6527 11.0496 22.8512 10.8512C23.0496 10.6527 23.0496 10.3309 22.8511 10.1324L21.165 8.4463C21.1668 8.44393 21.1687 8.44155 21.1705 8.43918L20.4554 7.7241C20.4537 7.72656 20.4519 7.72903 20.4502 7.73149L19.7274 7.00869C19.7289 7.00603 19.7305 7.00338 19.732 7.00072L18.9711 6.23977C18.9702 6.24313 18.9694 6.24649 18.9685 6.24984L17 4.28131V4.26869L16 3.26869V3.28131L13.8676 1.14893C13.6691 0.950402 13.3473 0.950351 13.1488 1.14881C12.9504 1.34727 12.9504 1.6691 13.1489 1.86762L16 4.71869ZM17 5.71869V6C17 6.55228 17.4477 7 18 7C18.0863 7 18.17 6.98908 18.2498 6.96854L17 5.71869ZM19.0087 7.72738C18.8504 7.81999 18.6783 7.89148 18.4962 7.93797C18.4987 7.95829 18.5 7.97899 18.5 8V8.95852C18.953 8.88252 19.3715 8.70502 19.7315 8.45019L19.0087 7.72738ZM20 5.83131L19 4.83131V3C19 2.44772 18.5523 2 18 2C17.501 2 17.0873 2.36555 17.0122 2.84348L16.2323 2.06361C16.5682 1.4309 17.2338 1 18 1C19.1046 1 20 1.89543 20 3V5.83131ZM20.9082 6.73948L21.6975 7.52877C21.8924 7.05778 22 6.54145 22 6C22 5.72386 21.7761 5.5 21.5 5.5C21.2239 5.5 21 5.72386 21 6C21 6.25519 20.9681 6.50294 20.9082 6.73948Z" fill="white"/>
</g>
<defs>
<clipPath id="clip0">
<rect width="24" height="24" fill="white"/>
</clipPath>
</defs>
</svg>
