<svg width="20" height="20" viewBox="0 0 20 20" xmlns="http://www.w3.org/2000/svg">
    <path fill-rule="evenodd" clip-rule="evenodd" d="M10 2.5C9.53976 2.5 9.16667 2.8731 9.16667 3.33333V16.6667C9.16667 17.1269 9.53976 17.5 10 17.5C10.4602 17.5 10.8333 17.1269 10.8333 16.6667V3.33333C10.8333 2.8731 10.4602 2.5 10 2.5ZM6.66667 5C6.20643 5 5.83333 5.3731 5.83333 5.83333V14.1667C5.83333 14.6269 6.20643 15 6.66667 15C7.1269 15 7.5 14.6269 7.5 14.1667V5.83333C7.5 5.3731 7.1269 5 6.66667 5ZM2.5 8.33333C2.5 7.8731 2.8731 7.5 3.33333 7.5C3.79357 7.5 4.16667 7.8731 4.16667 8.33333V11.6667C4.16667 12.1269 3.79357 12.5 3.33333 12.5C2.8731 12.5 2.5 12.1269 2.5 11.6667V8.33333ZM12.5 8.33333C12.5 7.8731 12.8731 7.5 13.3333 7.5C13.7936 7.5 14.1667 7.8731 14.1667 8.33333V11.6667C14.1667 12.1269 13.7936 12.5 13.3333 12.5C12.8731 12.5 12.5 12.1269 12.5 11.6667V8.33333ZM15.8333 5.83333C15.8333 5.3731 16.2064 5 16.6667 5C17.1269 5 17.5 5.3731 17.5 5.83333V14.1667C17.5 14.6269 17.1269 15 16.6667 15C16.2064 15 15.8333 14.6269 15.8333 14.1667V5.83333Z" />
</svg>
