<svg width="20" height="20" viewBox="0 0 20 20" xmlns="http://www.w3.org/2000/svg">
    <path fill-rule="evenodd" clip-rule="evenodd" d="M6.06204 5.25986C5.92029 5.40926 5.83333 5.61114 5.83333 5.83333V14.1667C5.83333 14.6269 6.20643 15 6.66667 15C7.1269 15 7.5 14.6269 7.5 14.1667V6.69782L6.06204 5.25986ZM9.16667 8.36449V16.6667C9.16667 17.1269 9.53976 17.5 10 17.5C10.4602 17.5 10.8333 17.1269 10.8333 16.6667V10.0312L9.16667 8.36449ZM13.3016 12.4994C12.8666 12.4831 12.5169 12.1334 12.5006 11.6984L13.3016 12.4994ZM14.1667 10.9688L12.5 9.30218V8.33333C12.5 7.8731 12.8731 7.5 13.3333 7.5C13.7936 7.5 14.1667 7.8731 14.1667 8.33333V10.9688ZM17.4905 14.2927L15.8333 12.6355V5.83333C15.8333 5.3731 16.2064 5 16.6667 5C17.1269 5 17.5 5.3731 17.5 5.83333V14.1667C17.5 14.2095 17.4968 14.2516 17.4905 14.2927ZM10.8333 7.63551L9.16667 5.96884V3.33333C9.16667 2.8731 9.53976 2.5 10 2.5C10.4602 2.5 10.8333 2.8731 10.8333 3.33333V7.63551ZM3.33333 7.5C2.8731 7.5 2.5 7.8731 2.5 8.33333V11.6667C2.5 12.1269 2.8731 12.5 3.33333 12.5C3.79357 12.5 4.16667 12.1269 4.16667 11.6667V8.33333C4.16667 7.8731 3.79357 7.5 3.33333 7.5Z" />
    <path fill-rule="evenodd" clip-rule="evenodd" d="M1.91469 1.91469C2.24546 1.58392 2.78183 1.58401 3.11271 1.91488L18.0851 16.8873C18.416 17.2182 18.4161 17.7545 18.0853 18.0853C17.7545 18.4161 17.2182 18.416 16.8873 18.0851L1.91488 3.11271C1.58401 2.78183 1.58392 2.24546 1.91469 1.91469Z" />
</svg>
