<svg width="40" height="40" viewBox="0 0 40 40" xmlns="http://www.w3.org/2000/svg">
<path d="M0 3C0 1.34315 1.34315 0 3 0H37C38.6569 0 40 1.34315 40 3V37C40 38.6569 38.6569 40 37 40H3C1.34315 40 0 38.6569 0 37V3Z" fill="#F3BB6B"/>
<path d="M25.8802 26.355H13.2598C12.9607 26.355 12.6916 26.6242 12.6916 26.9232V26.9531C12.6916 27.94 13.499 28.7475 14.4859 28.7475H24.6541C25.641 28.7475 26.4484 27.94 26.4484 26.9531V26.9232C26.4484 26.6242 26.1793 26.355 25.8802 26.355Z" fill="white"/>
<path d="M27.3456 14.0934C26.3587 14.0934 25.5513 14.9009 25.5513 15.8878C25.5513 16.4261 25.7905 16.9345 26.1793 17.2635C25.6709 18.4298 24.5045 19.2373 23.1288 19.1775C21.5438 19.0878 20.2578 17.8018 20.1681 16.2168C20.1681 15.9476 20.1681 15.7084 20.2279 15.4691C20.8859 15.2 21.3644 14.5719 21.3644 13.7944C21.3644 12.8075 20.5569 12 19.57 12C18.5831 12 17.7756 12.8075 17.7756 13.7944C17.7756 14.542 18.2541 15.2 18.9121 15.4691C18.9719 15.7084 18.9719 15.9476 18.9719 16.2168C18.8822 17.8018 17.5962 19.0878 16.0112 19.1775C14.6355 19.2672 13.4392 18.4298 12.9607 17.2635C13.3495 16.9345 13.5887 16.4261 13.5887 15.8878C13.5887 14.9009 12.7813 14.0934 11.7944 14.0934C10.8075 14.0934 10 14.9009 10 15.8878C10 16.8747 10.8075 17.6822 11.7944 17.6822L12.6318 24.0821C12.6617 24.3513 12.9009 24.5606 13.2 24.5606H25.94C26.2092 24.5606 26.4484 24.3513 26.5082 24.0821L27.3456 17.6822C28.3325 17.6822 29.14 16.8747 29.14 15.8878C29.14 14.9009 28.3325 14.0934 27.3456 14.0934Z" fill="white"/>
</svg>
