<?xml version="1.0" encoding="iso-8859-1"?>
<!-- Generator: Adobe Illustrator 16.0.0, SVG Export Plug-In . SVG Version: 6.00 Build 0)  -->
<!DOCTYPE svg PUBLIC "-//W3C//DTD SVG 1.1//EN" "http://www.w3.org/Graphics/SVG/1.1/DTD/svg11.dtd">
<svg version="1.1" id="Capa_1" xmlns="http://www.w3.org/2000/svg" xmlns:xlink="http://www.w3.org/1999/xlink" x="0px" y="0px"
	 width="437.611px" height="437.611px" viewBox="0 0 437.611 437.611" style="enable-background:new 0 0 437.611 437.611;"
	 xml:space="preserve">
<g>
	<g>
		<path d="M218.794,113.846c57.37,0,103.868,46.499,103.868,103.862c0,57.357-46.498,103.855-103.868,103.855
			c-57.358,0-103.862-46.498-103.862-103.855C114.932,160.344,161.436,113.846,218.794,113.846z"/>
		<path d="M218.794,0c-27.26,0-53.271,5.237-77.349,14.386c5.26,5.342,9.61,11.56,12.95,18.38
			c20.219-7.036,41.839-11.041,64.411-11.041c108.667,0,197.062,88.425,197.062,197.069c0,108.644-88.396,197.086-197.074,197.086
			c-108.655,0-197.057-88.431-197.057-197.074c0-36.602,10.211-70.775,27.657-100.178c-5.979-4.577-11.251-10.065-15.473-16.318
			C12.553,136.085,0,175.962,0,218.806c0,120.647,98.146,218.806,218.794,218.806c120.659,0,218.817-98.158,218.817-218.806
			C437.611,98.158,339.453,0,218.794,0z"/>
		<path d="M91.759,20.447c24.767,0,44.84,20.073,44.84,44.84s-20.073,44.84-44.84,44.84c-24.761,0-44.84-20.073-44.84-44.84
			S66.998,20.447,91.759,20.447z"/>
	</g>
</g>
<g>
</g>
<g>
</g>
<g>
</g>
<g>
</g>
<g>
</g>
<g>
</g>
<g>
</g>
<g>
</g>
<g>
</g>
<g>
</g>
<g>
</g>
<g>
</g>
<g>
</g>
<g>
</g>
<g>
</g>
</svg> 