<?xml version="1.0" encoding="iso-8859-1"?>
<!-- Generator: Adobe Illustrator 19.0.0, SVG Export Plug-In . SVG Version: 6.00 Build 0)  -->
<svg version="1.1" id="Capa_1" xmlns="http://www.w3.org/2000/svg" xmlns:xlink="http://www.w3.org/1999/xlink" x="0px" y="0px"
	 viewBox="0 0 512.012 512.012" style="enable-background:new 0 0 512.012 512.012;" xml:space="preserve">
<g>
	<g>
		<path d="M98.345,433.318c-8.421-7.308-16.389-15.277-23.68-23.68c-3.137-3.615-8.629-4.023-12.262-0.878
			c-3.624,3.146-4.015,8.638-0.869,12.262c7.83,9.029,16.381,17.58,25.418,25.418c1.642,1.434,3.667,2.129,5.692,2.129
			c2.433,0,4.849-1.017,6.57-2.998C102.36,441.947,101.969,436.455,98.345,433.318z"/>
	</g>
</g>
<g>
	<g>
		<path d="M46.014,368.455c-5.336-9.785-10.011-20.013-13.904-30.433c-1.677-4.501-6.683-6.778-11.184-5.101
			c-4.493,1.669-6.778,6.683-5.101,11.175c4.18,11.193,9.211,22.186,14.947,32.683c1.582,2.894,4.562,4.527,7.63,4.527
			c1.408,0,2.842-0.339,4.162-1.069C46.77,377.936,48.325,372.661,46.014,368.455z"/>
	</g>
</g>
<g>
	<g>
		<path d="M169.986,475.916c-10.445-3.893-20.682-8.586-30.45-13.939c-4.197-2.32-9.49-0.765-11.792,3.441s-0.765,9.49,3.441,11.792
			c10.498,5.753,21.508,10.784,32.735,14.973c0.999,0.374,2.025,0.547,3.033,0.547c3.528,0,6.839-2.155,8.143-5.649
			C176.773,482.59,174.487,477.585,169.986,475.916z"/>
	</g>
</g>
<g>
	<g>
		<path d="M252.011,490.637c-11.193,0-22.438-0.791-33.405-2.355c-4.762-0.652-9.159,2.633-9.828,7.387
			c-0.678,4.745,2.624,9.151,7.378,9.828c11.784,1.677,23.845,2.529,35.855,2.529c4.797,0,8.69-3.884,8.69-8.69
			S256.817,490.637,252.011,490.637z"/>
	</g>
</g>
<g>
	<g>
		<path d="M511.939,417.58c-0.626-4.736-4.988-8.073-9.742-7.5l-62.247,8.021c40.939-47.465,64.072-105.375,64.072-162.104
			c0-138.954-113.049-252.011-252.011-252.011C113.057,3.986,0,117.035,0,255.997c0,12.01,0.86,24.08,2.538,35.855
			c0.617,4.336,4.336,7.465,8.594,7.465c0.408,0,0.817-0.026,1.234-0.087c4.753-0.678,8.047-5.084,7.378-9.828
			c-1.564-10.976-2.355-22.22-2.355-33.413c0-129.377,105.254-234.631,234.631-234.631s234.631,105.254,234.631,234.631
			c0,54.104-22.898,109.538-63.237,154.57l-8.768-68.069c-0.608-4.753-4.979-8.047-9.724-7.508
			c-4.762,0.617-8.125,4.971-7.508,9.733c1.251,9.707,2.503,19.422,3.754,29.129c1.99,15.468,3.98,30.928,5.979,46.396
			c0.617,4.788,0.4,11.645,3.667,15.329c3.181,3.598,7.239,2.868,11.332,2.338c4.979-0.643,9.959-1.286,14.938-1.921
			c14.33-1.842,28.651-3.693,42.981-5.536c8.125-1.043,16.242-2.094,24.367-3.137C509.193,426.696,512.556,422.342,511.939,417.58z"
			/>
	</g>
</g>
<g>
	<g>
		<path d="M252.011,160.416c-52.705,0-95.59,42.885-95.59,95.59c0,52.705,42.885,95.59,95.59,95.59
			c52.705,0,95.59-42.885,95.59-95.59S304.725,160.416,252.011,160.416z"/>
	</g>
</g>
<g>
</g>
<g>
</g>
<g>
</g>
<g>
</g>
<g>
</g>
<g>
</g>
<g>
</g>
<g>
</g>
<g>
</g>
<g>
</g>
<g>
</g>
<g>
</g>
<g>
</g>
<g>
</g>
<g>
</g>
</svg> 