<svg width="22" height="22" viewBox="0 0 22 22" xmlns="http://www.w3.org/2000/svg">
<path fill-rule="evenodd" clip-rule="evenodd" d="M18.7916 15.5833H15.4218C15.3159 14.9082 15.1566 14.2976 14.9401 13.75H18.3275C18.331 13.6843 18.3333 13.6079 18.3333 13.5208C18.3333 10.1308 17.531 9.16667 14.6666 9.16667C13.9217 9.16667 13.3162 9.23188 12.828 9.38802C12.8315 9.31453 12.8333 9.24072 12.8333 9.16667C12.8333 7.88484 12.3071 6.72592 11.4589 5.89413C11.4931 4.15185 12.9162 2.75 14.6666 2.75C16.4386 2.75 17.875 4.18642 17.875 5.95833C17.875 6.619 17.6753 7.23302 17.333 7.74334C19.4136 8.53185 20.1666 10.4577 20.1666 13.5208C20.1666 14.8958 19.7083 15.5833 18.7916 15.5833ZM16.0416 5.95833C16.0416 6.71772 15.426 7.33333 14.6666 7.33333C13.9073 7.33333 13.2916 6.71772 13.2916 5.95833C13.2916 5.19894 13.9073 4.58333 14.6666 4.58333C15.426 4.58333 16.0416 5.19894 16.0416 5.95833ZM3.43748 20.1667C2.36804 20.1667 1.83331 19.4028 1.83331 17.875C1.83331 14.3822 2.75854 12.2203 5.33347 11.3892C4.86283 10.7726 4.58331 10.0023 4.58331 9.16667C4.58331 7.14162 6.22494 5.5 8.24998 5.5C10.275 5.5 11.9166 7.14162 11.9166 9.16667C11.9166 10.0023 11.6371 10.7726 11.1665 11.3892C13.7414 12.2203 14.6666 14.3822 14.6666 17.875C14.6666 19.4028 14.1319 20.1667 13.0625 20.1667H3.43748ZM10.0833 9.16667C10.0833 10.1792 9.2625 11 8.24998 11C7.23746 11 6.41665 10.1792 6.41665 9.16667C6.41665 8.15414 7.23746 7.33333 8.24998 7.33333C9.2625 7.33333 10.0833 8.15414 10.0833 9.16667ZM12.8333 17.875C12.8333 18.0711 12.8222 18.2237 12.8084 18.3333H3.69156C3.6778 18.2237 3.66665 18.0711 3.66665 17.875C3.66665 14.0191 4.7028 12.8333 8.24998 12.8333C11.7972 12.8333 12.8333 14.0191 12.8333 17.875Z" />
</svg>
