<svg width="24" height="24" viewBox="0 0 24 24" xmlns="http://www.w3.org/2000/svg">
    <path fill-rule="evenodd" clip-rule="evenodd" d="M12 3.75C7.06046 3.75 3 7.94581 3 13.1924C3 16.108 4.25819 18.7074 6.22705 20.4365C6.53828 20.7098 6.569 21.1837 6.29567 21.4949C6.02235 21.8061 5.54847 21.8369 5.23724 21.5635C2.94821 19.5533 1.5 16.5451 1.5 13.1924C1.5 7.18081 6.16999 2.25 12 2.25C17.83 2.25 22.5 7.18081 22.5 13.1924C22.5 16.5451 21.0518 19.5533 18.7628 21.5635C18.4515 21.8369 17.9777 21.8061 17.7043 21.4949C17.431 21.1837 17.4617 20.7098 17.773 20.4365C19.7418 18.7074 21 16.108 21 13.1924C21 7.94581 16.9395 3.75 12 3.75Z" />
    <path fill-rule="evenodd" clip-rule="evenodd" d="M14.9984 10.5018L11.5488 12.6057C11.3241 12.7428 11.164 12.9645 11.1047 13.221C10.9415 13.9264 11.5738 14.5587 12.2792 14.3957C12.5357 14.3364 12.7576 14.1763 12.8947 13.9515L14.9984 10.5018ZM15.5384 8.41542C16.5457 7.80104 17.699 8.95423 17.0847 9.9616L14.1754 14.7324C13.8283 15.3016 13.2665 15.707 12.617 15.8572C10.8311 16.2699 9.23022 14.6689 9.64323 12.883C9.79341 12.2337 10.1987 11.6721 10.7678 11.3251L15.5384 8.41542Z" />
</svg>
