<svg width="24" height="24" viewBox="0 0 24 24" xmlns="http://www.w3.org/2000/svg">
    <path d="M22.4692 9.75018C22.5032 10.163 22.1642 10.5 21.75 10.5C21.3358 10.5 21.0039 10.1632 20.9631 9.751C20.6117 6.20685 17.7931 3.38826 14.2489 3.03688C13.8367 2.99601 13.5 2.66417 13.5 2.24995C13.5 1.83574 13.837 1.49669 14.2498 1.53074C18.6223 1.89136 22.1086 5.37765 22.4692 9.75018Z" />
    <path d="M19.4538 9.75144C19.5049 10.1625 19.1642 10.5 18.75 10.5C18.3358 10.5 18.0065 10.1616 17.9383 9.75309C17.6231 7.86618 16.1338 6.37683 14.2469 6.06165C13.8383 5.9934 13.5 5.66417 13.5 5.24995C13.5 4.83574 13.8375 4.49504 14.2485 4.54619C16.9637 4.88408 19.1159 7.03621 19.4538 9.75144Z" />
    <path fill-rule="evenodd" clip-rule="evenodd" d="M10.1671 7.56267C10.2704 8.18179 10.1149 8.59324 9.67202 9.32811L9.56455 9.50915C9.36062 9.86306 9.32567 10.0071 9.37745 10.1682C10.1862 12.3362 11.6597 13.8095 13.8029 14.6086C14.0063 14.6747 14.164 14.6253 14.6109 14.3567L14.844 14.2183C15.4717 13.856 15.865 13.7334 16.4334 13.8288C16.9864 13.9223 18.9797 15.3868 19.6533 16.0782C20.008 16.4421 20.2291 16.8489 20.2492 17.3577C20.241 18.597 18.6533 20.4079 17.7075 20.9721C16.6254 21.7676 15.2928 21.8111 13.8271 21.178C9.98637 19.7154 4.25616 14.025 2.82644 10.1876L2.74022 9.97325C2.19581 8.55248 2.26132 7.30255 2.9942 6.33155C3.67083 5.25727 5.43728 3.73979 6.64569 3.745L6.66997 3.74555C7.14736 3.76516 7.55344 3.98578 7.91769 4.34094C8.60991 5.01562 10.0735 7.00775 10.1671 7.56267ZM14.5624 16.0401C14.8731 15.9431 15.1622 15.7754 15.38 15.6445L15.6014 15.5131C15.8697 15.3587 15.9849 15.3175 16.0361 15.3042C16.0553 15.2993 16.0664 15.2981 16.0779 15.2978C16.0806 15.2977 16.084 15.2977 16.0883 15.2977C16.0916 15.2978 16.0954 15.2979 16.0998 15.2981C16.1503 15.3228 16.2223 15.3613 16.3167 15.4166C16.5409 15.548 16.824 15.7345 17.1278 15.9509C17.755 16.3978 18.3361 16.8758 18.5791 17.1251C18.6712 17.2196 18.71 17.283 18.7268 17.3176C18.7355 17.3357 18.7421 17.3532 18.7461 17.3752C18.7434 17.3924 18.7383 17.4177 18.7291 17.4518C18.7097 17.5231 18.676 17.6166 18.6225 17.7312C18.5139 17.9638 18.3474 18.2322 18.1363 18.5096C17.6938 19.091 17.1962 19.5305 16.9391 19.6838L16.8771 19.7208L16.819 19.7635C16.2806 20.1593 15.5443 20.2858 14.4219 19.801L14.3917 19.788L14.361 19.7763C12.7284 19.1545 10.5128 17.5362 8.48172 15.5111C6.44855 13.484 4.83571 11.2841 4.23205 9.66393L4.22531 9.64582L4.13675 9.42566C3.71705 8.32346 3.86765 7.66422 4.19146 7.2352L4.22965 7.1846L4.26343 7.13096C4.4856 6.77823 4.96006 6.25803 5.52625 5.82915C5.80114 5.62092 6.06201 5.46169 6.28445 5.35995C6.39401 5.30983 6.48215 5.27924 6.54805 5.26205C6.58673 5.25197 6.6126 5.24784 6.6267 5.24616C6.63887 5.24833 6.65283 5.25286 6.67253 5.26258C6.70867 5.28041 6.77532 5.3221 6.87073 5.41513C7.12066 5.65873 7.59846 6.23973 8.04505 6.86684C8.26137 7.17059 8.44771 7.4536 8.57899 7.67785C8.63424 7.77223 8.67274 7.84433 8.69744 7.89481C8.69799 7.90725 8.69776 7.91542 8.69752 7.92024C8.69702 7.92998 8.69573 7.94385 8.68717 7.97249C8.66309 8.05308 8.5978 8.2045 8.38726 8.55383L8.26973 8.75183L8.26488 8.76024C8.15417 8.95237 8.01105 9.21573 7.92934 9.5113C7.82421 9.89156 7.83341 10.2663 7.9494 10.6272L7.95998 10.6601L7.97206 10.6925C8.93188 13.2654 10.7252 15.0619 13.2789 16.0141L13.3087 16.0252L13.3391 16.0351C13.7296 16.1621 14.1382 16.1725 14.5624 16.0401Z" />
</svg>
