<svg width="24" height="24" viewBox="0 0 24 24" xmlns="http://www.w3.org/2000/svg">
    <path fill-rule="evenodd" clip-rule="evenodd" d="M14.4776 3.21969C14.2631 3.00519 13.9405 2.94103 13.6602 3.05711C13.38 3.1732 13.1972 3.44668 13.1972 3.75002V6.62134L9.33483 10.4837L4.2542 11.4999C3.98298 11.5541 3.76362 11.7532 3.68347 12.018C3.60332 12.2827 3.67538 12.5701 3.87096 12.7656L7.05301 15.9477L3.3407 19.66C3.04781 19.9529 3.04781 20.4277 3.3407 20.7206C3.6336 21.0135 4.10847 21.0135 4.40136 20.7206L8.11367 17.0083L11.2956 20.1903C11.4912 20.3858 11.7785 20.4579 12.0432 20.3777C12.308 20.2976 12.5071 20.0782 12.5613 19.807L13.5775 14.7264L17.4399 10.864H20.3112C20.6145 10.864 20.888 10.6813 21.0041 10.401C21.1202 10.1207 21.056 9.79815 20.8415 9.58365L14.4776 3.21969ZM14.6972 6.932V5.56068L18.5005 9.36398H17.1292C16.9303 9.36398 16.7395 9.443 16.5989 9.58365L12.3562 13.8263C12.2515 13.931 12.1802 14.0643 12.1511 14.2095L11.3653 18.1387L5.92255 12.6959L9.85168 11.9101C9.99687 11.881 10.1302 11.8097 10.2349 11.705L14.4776 7.46233C14.6182 7.32168 14.6972 7.13091 14.6972 6.932Z" />
</svg>
