<svg width="18" height="18" viewBox="0 0 18 18" fill="none" xmlns="http://www.w3.org/2000/svg">
<path fill-rule="evenodd" clip-rule="evenodd" d="M1.69428 17.1265L5.98398 13.9439L7.92634 15.8862C8.57722 16.5371 9.63249 16.5371 10.2834 15.8862L10.8726 15.297C11.5235 14.6461 11.5235 13.5908 10.8726 12.9399L10.578 12.6453L11.2691 11.4935C11.396 11.2819 11.5684 11.1012 11.7737 10.9643L13.5832 9.75796L13.8189 9.99366C14.4698 10.6445 15.525 10.6445 16.1759 9.99366L16.7652 9.4044C17.416 8.75353 17.416 7.69825 16.7652 7.04738L10.8726 1.15482C10.2217 0.503949 9.16647 0.503949 8.5156 1.15482L7.92634 1.74408C7.27547 2.39495 7.27547 3.45023 7.92634 4.1011L8.27989 4.45465L7.3088 6.25811C7.13602 6.579 6.86281 6.83441 6.53102 6.98522L5.42201 7.48932L4.98006 7.04738C4.32919 6.39651 3.27391 6.39651 2.62304 7.04738L2.03379 7.63664C1.38291 8.28751 1.38291 9.34278 2.03379 9.99366L3.97615 11.936L0.793463 16.2257C0.603279 16.4821 0.629578 16.839 0.855274 17.0647C1.08097 17.2904 1.43794 17.3167 1.69428 17.1265ZM13.7956 7.6133L10.8492 9.57753C10.4386 9.8513 10.0938 10.2128 9.8399 10.636L8.47933 12.9037L9.69411 14.1184L9.10485 14.7077L3.2123 8.81515L3.80155 8.22589L5.0602 9.48454L7.2207 8.5025C7.88427 8.20088 8.43068 7.69006 8.77626 7.04828L10.3353 4.15299L9.10485 2.92259L9.69411 2.33333L15.5867 8.22589L14.9974 8.81515L13.7956 7.6133Z" fill="white"/>
</svg>
