<svg width="24" height="24" viewBox="0 0 24 24" xmlns="http://www.w3.org/2000/svg">
    <path fill-rule="evenodd" clip-rule="evenodd" d="M14.4776 3.21969C14.2631 3.00519 13.9405 2.94103 13.6603 3.05711C13.38 3.1732 13.1973 3.44668 13.1973 3.75002V6.62134L9.33489 10.4837L4.25426 11.4999C3.98304 11.5541 3.76369 11.7532 3.68353 12.018C3.60338 12.2827 3.67544 12.5701 3.87102 12.7656L7.05307 15.9477L3.34076 19.66C3.04787 19.9529 3.04787 20.4277 3.34076 20.7206C3.63366 21.0135 4.10853 21.0135 4.40142 20.7206L8.11373 17.0083L11.2956 20.1903C11.4912 20.3858 11.7786 20.4579 12.0433 20.3777C12.308 20.2976 12.5072 20.0782 12.5614 19.807L13.5775 14.7264L17.4399 10.864H20.3113C20.6146 10.864 20.8881 10.6813 21.0042 10.401C21.1202 10.1207 21.0561 9.79815 20.8416 9.58365L14.4776 3.21969Z" />
</svg>
