<svg width="24" height="24" viewBox="0 0 24 24" xmlns="http://www.w3.org/2000/svg">
    <path fill-rule="evenodd" clip-rule="evenodd" d="M6 5.46757V18.5324C6 18.5608 6.00601 18.5783 6.01856 18.598C6.03441 18.6227 6.06851 18.6604 6.12921 18.6937C6.25539 18.7629 6.41453 18.7723 6.55794 18.6991L19.3604 12.1667C19.4389 12.1266 19.4687 12.0873 19.4804 12.0682C19.4941 12.0457 19.5 12.0226 19.5 12C19.5 11.9774 19.4941 11.9543 19.4804 11.9318C19.4687 11.9127 19.4389 11.8734 19.3604 11.8333L6.55794 5.30087C6.41453 5.22769 6.25539 5.23712 6.12921 5.30634C6.06851 5.33963 6.03441 5.37725 6.01856 5.40204C6.00601 5.42168 6 5.43918 6 5.46757ZM4.5 5.46757V18.5324C4.5 19.837 6.00759 20.6639 7.23969 20.0353L20.0422 13.5028C21.3193 12.8512 21.3193 11.1488 20.0422 10.4972L7.23969 3.96475C6.00759 3.33607 4.5 4.16304 4.5 5.46757Z" />
</svg>
