<svg width="20" height="20" viewBox="0 0 20 20" xmlns="http://www.w3.org/2000/svg">
<path fill-rule="evenodd" clip-rule="evenodd" d="M1.66666 9.99999C1.66666 14.6024 5.39762 18.3333 10 18.3333C14.6024 18.3333 18.3333 14.6024 18.3333 9.99999C18.3333 5.39762 14.6024 1.66666 10 1.66666C5.39762 1.66666 1.66666 5.39762 1.66666 9.99999ZM16.8182 9.99999C16.8182 13.7656 13.7656 16.8182 10 16.8182C6.23442 16.8182 3.18182 13.7656 3.18182 9.99999C3.18182 6.23441 6.23442 3.18181 10 3.18181C13.7656 3.18181 16.8182 6.23441 16.8182 9.99999ZM9.24242 10.7576V13.7879H10.7576V10.7576H13.7879V9.24241H10.7576V6.21211H9.24242V9.24241H6.21212V10.7576H9.24242Z" fill="#669AEC"/>
</svg>
