<svg width="24" height="24" viewBox="0 0 24 24" xmlns="http://www.w3.org/2000/svg">
    <path d="M12.75 3.51472C12.75 3.1005 12.4142 2.76472 12 2.76472C11.5858 2.76472 11.25 3.1005 11.25 3.51472L11.25 11.25L3.51473 11.25C3.10052 11.25 2.76473 11.5858 2.76473 12C2.76473 12.4142 3.10052 12.75 3.51473 12.75L11.25 12.75L11.25 20.4853C11.25 20.8995 11.5858 21.2353 12 21.2353C12.4142 21.2353 12.75 20.8995 12.75 20.4853L12.75 12.75L20.4853 12.75C20.8995 12.75 21.2353 12.4142 21.2353 12C21.2353 11.5858 20.8995 11.25 20.4853 11.25L12.75 11.25V3.51472Z" />
</svg>
