<svg width="22" height="22" viewBox="0 0 22 22" fill="none" xmlns="http://www.w3.org/2000/svg">
<path fill-rule="evenodd" clip-rule="evenodd" d="M15.6666 3.66669C15.1143 3.66669 14.6666 4.1144 14.6666 4.66669V17.3334C14.6666 17.8856 15.1143 18.3334 15.6666 18.3334H17.3333C17.8856 18.3334 18.3333 17.8856 18.3333 17.3334V4.66669C18.3333 4.1144 17.8856 3.66669 17.3333 3.66669H15.6666ZM9.16663 10.1667C9.16663 9.6144 9.61434 9.16669 10.1666 9.16669H11.8333C12.3856 9.16669 12.8333 9.6144 12.8333 10.1667V17.3334C12.8333 17.8856 12.3856 18.3334 11.8333 18.3334H10.1666C9.61434 18.3334 9.16663 17.8856 9.16663 17.3334V10.1667ZM3.66663 15.6667C3.66663 15.1144 4.11434 14.6667 4.66663 14.6667H6.33329C6.88558 14.6667 7.33329 15.1144 7.33329 15.6667V17.3334C7.33329 17.8856 6.88558 18.3334 6.33329 18.3334H4.66663C4.11434 18.3334 3.66663 17.8856 3.66663 17.3334V15.6667Z" />
</svg>
