<!-- Generated by IcoMoon.io -->
<svg version="1.1" xmlns="http://www.w3.org/2000/svg" width="24" height="24" viewBox="0 0 24 24">
<title>public</title>
<path d="M17.906 17.391c1.313-1.406 2.109-3.328 2.109-5.391 0-3.328-2.063-6.234-5.016-7.406v0.422c0 1.078-0.938 1.969-2.016 1.969h-1.969v2.016c0 0.563-0.469 0.984-1.031 0.984h-1.969v2.016h6c0.563 0 0.984 0.422 0.984 0.984v3h0.984c0.891 0 1.641 0.609 1.922 1.406zM11.016 19.922v-1.922c-1.078 0-2.016-0.938-2.016-2.016v-0.984l-4.781-4.781c-0.141 0.563-0.234 1.172-0.234 1.781 0 4.078 3.094 7.453 7.031 7.922zM12 2.016c5.531 0 9.984 4.453 9.984 9.984s-4.453 9.984-9.984 9.984-9.984-4.453-9.984-9.984 4.453-9.984 9.984-9.984z"></path>
</svg>
