<svg width="24" height="24" viewBox="0 0 24 24" xmlns="http://www.w3.org/2000/svg">
    <path d="M11.5419 14.1911C11.4522 14.229 11.3535 14.25 11.25 14.25C11.25 14.25 11.25 14.25 11.25 14.25" />
    <path fill-rule="evenodd" clip-rule="evenodd" d="M10.5 3.75C10.5 2.50736 11.5074 1.5 12.75 1.5C13.9926 1.5 15 2.50736 15 3.75V3.87803C15.2346 3.79512 15.487 3.75 15.75 3.75C16.9926 3.75 18 4.75736 18 6V6.12803C18.2346 6.04512 18.487 6 18.75 6C19.9926 6 21 7.00736 21 8.25V13.4937C21 13.4958 21 13.4979 21 13.5V14.8176C21 19.0605 17.5605 22.5 13.3176 22.5C10.8365 22.5 8.50821 21.3018 7.06612 19.2829L2.44643 12.8153C1.76782 11.8653 1.87553 10.5638 2.7011 9.73827C3.69418 8.74518 5.32563 8.81918 6.22473 9.8981L7.50003 11.4285V6C7.50003 4.75736 8.50738 3.75 9.75003 3.75C10.013 3.75 10.2654 3.79511 10.5 3.87802V3.75ZM11.5419 14.1911C11.8111 14.0772 12 13.8107 12 13.5V6C12 5.99642 12 5.99285 12 5.98927V3.75C12 3.33579 12.3358 3 12.75 3C13.1642 3 13.5 3.33579 13.5 3.75V13.5C13.5 13.9142 13.8358 14.25 14.25 14.25C14.6642 14.25 15 13.9142 15 13.5V6C15 5.58579 15.3358 5.25 15.75 5.25C16.1642 5.25 16.5 5.58579 16.5 6V13.5C16.5 13.9142 16.8358 14.25 17.25 14.25C17.6642 14.25 18 13.9142 18 13.5V8.25C18 7.83579 18.3358 7.5 18.75 7.5C19.1642 7.5 19.5 7.83579 19.5 8.25V14.25C19.5 14.2521 19.5 14.2542 19.5 14.2563V14.8176C19.5 18.232 16.7321 21 13.3176 21C11.321 21 9.44724 20.0358 8.28672 18.411L3.66703 11.9435C3.41462 11.5901 3.45468 11.106 3.76176 10.7989C4.13114 10.4295 4.73797 10.4571 5.07239 10.8584L7.67386 13.9801C7.87601 14.2227 8.20844 14.3127 8.50534 14.2052C8.80225 14.0977 9.00003 13.8158 9.00003 13.5V6C9.00003 5.58579 9.33581 5.25 9.75003 5.25C10.1622 5.25 10.4967 5.58244 10.5 5.99381V13.5C10.5 13.7984 10.6742 14.056 10.9265 14.1768C11.0244 14.2237 11.1342 14.25 11.25 14.25" />
</svg>
