<svg width="22" height="22" viewBox="0 0 22 22" fill="none" xmlns="http://www.w3.org/2000/svg">
<path fill-rule="evenodd" clip-rule="evenodd" d="M11.9167 3.20834L11.9167 4.83334L11.9167 11L11.9167 11.9167C11.9167 12.4229 12.3271 12.8333 12.8333 12.8333C13.3396 12.8333 13.75 12.4229 13.75 11.9167V11V4.83334C13.75 4.73632 13.9183 4.58334 14.2083 4.58334C14.4984 4.58334 14.6667 4.73632 14.6667 4.83334L14.6667 6.875L14.6667 11.9167C14.6667 12.4229 15.0771 12.8333 15.5833 12.8333C16.0896 12.8333 16.5 12.4229 16.5 11.9167L16.5 6.875C16.5 6.62187 16.7052 6.41667 16.9583 6.41667C17.2115 6.41667 17.4167 6.62187 17.4167 6.875V13.788C17.1671 16.3395 14.9919 18.3333 12.375 18.3333C10.6569 18.3333 9.09297 17.4675 8.17032 16.0753L8.16703 16.0762L4.67206 10.8208C4.50437 10.5805 4.55476 10.2948 4.76211 10.1496C4.96947 10.0044 5.25526 10.0548 5.40045 10.2621L6.57295 12.015L6.57177 12.0158C6.85487 12.4355 7.42461 12.5463 7.84432 12.2632C8.09767 12.0923 8.23844 11.8169 8.24797 11.5332L8.25 11.5338V5.04167C8.25 4.78854 8.4552 4.58334 8.70833 4.58334C8.96124 4.58334 9.1663 4.78818 9.16667 5.041L9.16667 5.04167L9.16667 11L9.16667 11.9167C9.16667 12.4229 9.57707 12.8333 10.0833 12.8333C10.5896 12.8333 11 12.4229 11 11.9167V11V5.04167V3.20834C11 2.95521 11.2052 2.75001 11.4583 2.75001C11.7115 2.75001 11.9167 2.95521 11.9167 3.20834ZM19.2337 13.7686L19.25 13.7605V13.2917V6.875C19.25 5.60935 18.224 4.58334 16.9583 4.58334C16.7976 4.58334 16.6408 4.59988 16.4894 4.63136C16.3776 3.57554 15.399 2.75001 14.2083 2.75001C14.0384 2.75001 13.8729 2.76681 13.7135 2.7987C13.5204 1.72851 12.5842 0.916672 11.4583 0.916672C10.3309 0.916672 9.39356 1.73088 9.20233 2.80339C9.04323 2.76843 8.87793 2.75001 8.70833 2.75001C7.44268 2.75001 6.41667 3.77602 6.41667 5.04167V8.70352C5.64445 8.11321 4.54919 8.06056 3.71056 8.64778C2.67379 9.37373 2.42183 10.8027 3.14778 11.8395L6.44893 16.7791C7.64459 18.8065 9.85095 20.1667 12.375 20.1667C16.0117 20.1667 18.9888 17.3431 19.2337 13.7686Z" />
</svg>
