<!-- Generated by IcoMoon.io -->
<svg version="1.1" xmlns="http://www.w3.org/2000/svg" width="32" height="32" viewBox="0 0 32 32">
<title>raised-hand</title>
<path d="M30.688 7.313v19.375c0 2.938-2.438 5.313-5.375 5.313h-9.688c-1.438 0-2.813-0.563-3.813-1.563l-10.5-10.688s1.688-1.625 1.75-1.625c0.313-0.25 0.688-0.375 1.063-0.375 0.313 0 0.563 0.063 0.813 0.188 0.063 0 5.75 3.25 5.75 3.25v-15.875c0-1.125 0.875-2 2-2s2 0.875 2 2v9.375h1.313v-12.688c0-1.125 0.875-2 2-2s2 0.875 2 2v12.688h1.313v-11.375c0-1.125 0.875-2 2-2s2 0.875 2 2v11.375h1.375v-7.375c0-1.125 0.875-2 2-2s2 0.875 2 2z"></path>
</svg>
