<!-- Generated by IcoMoon.io -->
<svg version="1.1" xmlns="http://www.w3.org/2000/svg" width="32" height="32" viewBox="0 0 32 32">
<title>rec</title>
<path d="M16 32c-8.837 0-16-7.163-16-16s7.163-16 16-16c8.837 0 16 7.163 16 16s-7.163 16-16 16zM18.167 18.444h-3.456v-1.851h3.261v-1.26h-3.261v-1.777h3.456v-1.361h-5.052v7.61h5.052v-1.361zM23.087 20c1.839 0 3.181-1.134 3.313-2.779h-1.554c-0.153 0.838-0.84 1.376-1.754 1.376-1.205 0-1.95-0.997-1.95-2.6s0.745-2.595 1.945-2.595c0.909 0 1.601 0.575 1.754 1.45h1.554c-0.116-1.656-1.501-2.853-3.308-2.853-2.214 0-3.578 1.524-3.578 3.997 0 2.479 1.369 4.003 3.578 4.003zM7.196 17.047h1.305l1.422 2.758h1.807l-1.607-3.006c0.877-0.348 1.385-1.192 1.385-2.162 0-1.514-1.030-2.442-2.706-2.442h-3.202v7.61h1.596v-2.758zM7.196 13.482v2.341h1.4c0.803 0 1.274-0.432 1.274-1.165 0-0.722-0.497-1.176-1.289-1.176h-1.385z"></path>
</svg>
