<!-- Generated by IcoMoon.io -->
<svg version="1.1" xmlns="http://www.w3.org/2000/svg" width="24" height="24" viewBox="0 0 24 24">
<title>restore</title>
<path d="M12 8.016h1.5v4.219l3.516 2.109-0.75 1.219-4.266-2.578v-4.969zM12.984 3c4.969 0 9 4.031 9 9s-4.031 9-9 9c-2.484 0-4.688-0.984-6.328-2.625l1.406-1.453c1.266 1.266 3 2.063 4.922 2.063 3.891 0 7.031-3.094 7.031-6.984s-3.141-6.984-7.031-6.984-6.984 3.094-6.984 6.984h3l-4.031 4.031-0.094-0.141-3.891-3.891h3c0-4.969 4.031-9 9-9z"></path>
</svg>
