<svg width="20" height="20" viewBox="0 0 20 20" fill="none" xmlns="http://www.w3.org/2000/svg">
<path fill-rule="evenodd" clip-rule="evenodd" d="M0.833344 11.6667C0.833344 9.76981 1.88966 8.11962 3.44616 7.27229C3.93274 5.02055 5.93601 3.33337 8.33334 3.33337C10.5537 3.33337 12.436 4.78064 13.0884 6.78327L13.1803 6.75332C13.4357 6.70694 13.7965 6.66671 14.1667 6.66671C16.9281 6.66671 19.1667 8.90528 19.1667 11.6667C19.1667 14.4281 16.9281 16.6667 14.1667 16.6667H5.83334C3.07192 16.6667 0.833344 14.4281 0.833344 11.6667ZM11.9714 8.73523L11.5037 7.29952C11.0607 5.9396 9.78725 5.00004 8.33334 5.00004C6.75638 5.00004 5.40363 6.10457 5.07522 7.62432L4.91389 8.37091L4.24304 8.73611C3.17664 9.31664 2.50001 10.4313 2.50001 11.6667C2.50001 13.5077 3.99239 15 5.83334 15H14.1667C16.0076 15 17.5 13.5077 17.5 11.6667C17.5 9.82576 16.0076 8.33337 14.1667 8.33337C13.9212 8.33337 13.6803 8.35962 13.4462 8.41108L11.9714 8.73523Z" fill="white"/>
</svg>
