<?xml version="1.0" encoding="UTF-8"?>
<svg width="20px" height="20px" viewBox="0 0 20 20" version="1.1" xmlns="http://www.w3.org/2000/svg" xmlns:xlink="http://www.w3.org/1999/xlink">
    <!-- Generator: Sketch 52.5 (67469) - http://www.bohemiancoding.com/sketch -->
    <title>camera</title>
    <desc>Created with Sketch.</desc>
    <g id="Icons" stroke="none" stroke-width="1" fill="none" fill-rule="evenodd">
        <g id="Rounded" transform="translate(-272.000000, -2770.000000)">
            <g id="Image" transform="translate(100.000000, 2626.000000)">
                <g id="-Round-/-Image-/-camera" transform="translate(170.000000, 142.000000)">
                    <g>
                        <polygon id="Path" points="0 0 24 0 24 24 0 24"></polygon>
                        <path d="M13.81,2.86 C13.98,2.56 13.81,2.16 13.46,2.12 C10.84,1.75 8.16,2.4 6.02,3.98 C5.83,4.13 5.77,4.41 5.9,4.63 L8.91,9.85 C9.1,10.18 9.58,10.18 9.78,9.85 L13.81,2.86 Z M21.3,8.33 C20.32,5.86 18.38,3.87 15.95,2.83 C15.72,2.73 15.45,2.83 15.32,3.05 L12.31,8.26 C12.12,8.58 12.36,9 12.75,9 L20.83,9 C21.18,9 21.43,8.65 21.3,8.33 Z M21.37,10 L15.17,10 C14.79,10 14.54,10.42 14.74,10.75 L19,18.14 C19.17,18.44 19.6,18.49 19.82,18.22 C21.56,16.04 22.3,13.19 21.87,10.43 C21.84,10.18 21.62,10 21.37,10 Z M4.18,5.79 C2.45,7.98 1.7,10.81 2.13,13.58 C2.16,13.82 2.38,14 2.63,14 L8.83,14 C9.21,14 9.46,13.58 9.26,13.25 L5,5.87 C4.82,5.57 4.39,5.52 4.18,5.79 Z M2.7,15.67 C3.68,18.14 5.62,20.13 8.05,21.17 C8.28,21.27 8.55,21.17 8.68,20.95 L11.69,15.74 C11.88,15.41 11.64,14.99 11.26,14.99 L3.17,14.99 C2.82,15 2.57,15.35 2.7,15.67 Z M10.53,21.89 C13.15,22.26 15.83,21.61 17.97,20.03 C18.17,19.88 18.23,19.59 18.1,19.37 L15.09,14.15 C14.9,13.82 14.42,13.82 14.22,14.15 L10.18,21.14 C10.01,21.44 10.19,21.84 10.53,21.89 Z" id="🔹-Icon-Color" fill="#17A8B6"></path>
                    </g>
                </g>
            </g>
        </g>
    </g>
</svg>