<svg width="24" height="24" viewBox="0 0 24 24" xmlns="http://www.w3.org/2000/svg">
    <path fill-rule="evenodd" clip-rule="evenodd" d="M14.8464 6.22103C14.2729 5.67701 13.327 6.08352 13.327 6.87396V8.60046C8.62852 8.92199 4.8467 12.239 4.52225 16.4471C4.48676 16.9074 4.78878 17.2544 5.14194 17.3656C5.48464 17.4735 5.90666 17.373 6.15309 17.0188C8.33798 13.8785 11.4845 13.1373 13.327 13.0452V15.2002C13.327 15.9986 14.2893 16.4017 14.8583 15.8416L19.1656 11.6016C19.5284 11.2444 19.523 10.6577 19.1536 10.3073L14.8464 6.22103ZM14.827 10.0749V8.27022L17.6708 10.9682L14.827 13.7676V11.5731L14.109 11.5424C12.5831 11.4771 9.42974 11.7986 6.73783 14.1317C7.99338 11.7842 10.7375 10.0749 14.077 10.0749H14.827Z" />
    <path fill-rule="evenodd" clip-rule="evenodd" d="M4.5 3C2.84315 3 1.5 4.34315 1.5 6V17.25C1.5 18.9069 2.84315 20.25 4.5 20.25H5.25C4.83579 20.25 4.5 20.5858 4.5 21C4.5 21.4142 4.83579 21.75 5.25 21.75H18.75C19.1642 21.75 19.5 21.4142 19.5 21C19.5 20.5858 19.1642 20.25 18.75 20.25H19.5C21.1569 20.25 22.5 18.9069 22.5 17.25V6C22.5 4.34315 21.1569 3 19.5 3H4.5ZM19.5 4.5H4.5C3.67157 4.5 3 5.17157 3 6V17.25C3 18.0784 3.67157 18.75 4.5 18.75H19.5C20.3284 18.75 21 18.0784 21 17.25V6C21 5.17157 20.3284 4.5 19.5 4.5Z" />
</svg>
