<!-- Generated by IcoMoon.io -->
<svg version="1.1" xmlns="http://www.w3.org/2000/svg" width="32" height="32" viewBox="0 0 32 32">
<title>SD</title>
<path d="M16 32c-8.837 0-16-7.163-16-16s7.163-16 16-16c8.837 0 16 7.163 16 16s-7.163 16-16 16zM8.8 17.901c0.060 1.471 1.28 2.395 3.161 2.395 1.98 0 3.199-0.973 3.199-2.565 0-1.225-0.684-1.909-2.27-2.242l-0.952-0.202c-0.924-0.197-1.302-0.476-1.302-0.963 0-0.602 0.547-0.984 1.373-0.984 0.798 0 1.378 0.416 1.455 1.039h1.553c-0.049-1.405-1.28-2.379-3.019-2.379-1.821 0-3.019 0.979-3.019 2.466 0 1.203 0.705 1.952 2.144 2.253l1.028 0.219c0.968 0.208 1.362 0.498 1.362 1.001 0 0.596-0.607 1.012-1.466 1.012-0.93 0-1.575-0.41-1.652-1.050h-1.597zM16.719 12.197v7.897h3.106c2.363 0 3.702-1.438 3.702-4.003 0-2.472-1.356-3.894-3.702-3.894h-3.106zM18.37 13.608v5.075h1.192c1.46 0 2.28-0.897 2.28-2.565 0-1.597-0.848-2.51-2.28-2.51h-1.192z"></path>
</svg>
