<!-- Generated by IcoMoon.io -->
<svg version="1.1" xmlns="http://www.w3.org/2000/svg" width="32" height="32" viewBox="0 0 32 32">
<title>security-locked</title>
<path d="M24 26.688v-13.375h-16v13.375h16zM11.875 8v2.688h8.25v-2.688c0-2.25-1.875-4.125-4.125-4.125s-4.125 1.875-4.125 4.125zM24 10.688c1.438 0 2.688 1.188 2.688 2.625v13.375c0 1.438-1.25 2.625-2.688 2.625h-16c-1.438 0-2.688-1.188-2.688-2.625v-13.375c0-1.438 1.25-2.625 2.688-2.625h1.313v-2.688c0-3.688 3-6.688 6.688-6.688s6.688 3 6.688 6.688v2.688h1.313zM16 22.688c-1.438 0-2.688-1.25-2.688-2.688s1.25-2.688 2.688-2.688 2.688 1.25 2.688 2.688-1.25 2.688-2.688 2.688z"></path>
</svg>
