<svg width="24" height="24" viewBox="0 0 24 24" xmlns="http://www.w3.org/2000/svg">
    <path d="M8.46967 7.71967C8.76256 7.42678 9.23744 7.42678 9.53033 7.71967L12 10.1893L14.4697 7.71967C14.7626 7.42678 15.2374 7.42678 15.5303 7.71967C15.8232 8.01256 15.8232 8.48744 15.5303 8.78033L13.0607 11.25L15.5303 13.7197C15.8232 14.0126 15.8232 14.4874 15.5303 14.7803C15.2374 15.0732 14.7626 15.0732 14.4697 14.7803L12 12.3107L9.53033 14.7803C9.23744 15.0732 8.76256 15.0732 8.46967 14.7803C8.17678 14.4874 8.17678 14.0126 8.46967 13.7197L10.9393 11.25L8.46967 8.78033C8.17678 8.48744 8.17678 8.01256 8.46967 7.71967Z" />
    <path fill-rule="evenodd" clip-rule="evenodd" d="M11.408 1.63348C11.7956 1.52777 12.2044 1.52777 12.592 1.63348L19.342 3.47439C20.3209 3.74136 21 4.63047 21 5.64511V15.676C21 16.4453 20.607 17.1612 19.958 17.5742L13.208 21.8697C12.4709 22.3387 11.5291 22.3387 10.792 21.8697L4.04203 17.5742C3.39302 17.1612 3 16.4453 3 15.676V5.64511C3 4.63047 3.6791 3.74136 4.65799 3.47439L11.408 1.63348ZM12.1973 3.08063C12.0681 3.04539 11.9319 3.04539 11.8027 3.08063L5.05266 4.92154C4.72637 5.01052 4.5 5.3069 4.5 5.64511V15.676C4.5 15.9324 4.63101 16.1711 4.84734 16.3087L11.5973 20.6042C11.843 20.7605 12.157 20.7605 12.4027 20.6042L19.1527 16.3087C19.369 16.1711 19.5 15.9324 19.5 15.676V5.64511C19.5 5.30689 19.2736 5.01053 18.9473 4.92154L12.1973 3.08063Z" />
</svg>
