<svg xmlns="http://www.w3.org/2000/svg" width="24" height="25" fill="none" viewBox="0 0 24 25"><path fill="url(#paint0_linear)" stroke="#fff" stroke-width="2" d="M3.87597 3.00772L3 3.11722V4V13.6745C3 16.088 4.24334 18.3313 6.29001 19.6105L11.47 22.848L12 23.1792L12.53 22.848L17.71 19.6105C19.7567 18.3313 21 16.088 21 13.6745V4V3.11722L20.124 3.00772L12.124 2.00772L12 1.99222L11.876 2.00772L3.87597 3.00772Z"/><path fill="url(#paint1_linear)" d="M20 4V13.6745C20 15.7433 18.9343 17.6661 17.18 18.7625L12 22V3L20 4Z"/><defs><linearGradient id="paint0_linear" x1="11.814" x2="11.814" y1="4.142" y2="23" gradientUnits="userSpaceOnUse"><stop stop-color="#FFB800"/><stop offset="1" stop-color="#CF4B00"/></linearGradient><linearGradient id="paint1_linear" x1="11.814" x2="11.814" y1="4.142" y2="23" gradientUnits="userSpaceOnUse"><stop stop-color="#FF8A00"/><stop offset="1" stop-color="#A03B03"/></linearGradient></defs></svg>