<svg width="24" height="24" viewBox="0 0 24 24" xmlns="http://www.w3.org/2000/svg">
    <path d="M16.2803 9.53033C16.5732 9.23744 16.5732 8.76256 16.2803 8.46967C15.9874 8.17678 15.5126 8.17678 15.2197 8.46967L10.5 13.1893L8.78033 11.4697C8.48744 11.1768 8.01256 11.1768 7.71967 11.4697C7.42678 11.7626 7.42678 12.2374 7.71967 12.5303L9.43934 14.25C10.0251 14.8358 10.9749 14.8358 11.5607 14.25L16.2803 9.53033Z" />
    <path fill-rule="evenodd" clip-rule="evenodd" d="M12.592 1.63348C12.2044 1.52777 11.7956 1.52777 11.408 1.63348L4.65799 3.47439C3.6791 3.74136 3 4.63047 3 5.64511V15.676C3 16.4453 3.39302 17.1612 4.04203 17.5742L10.792 21.8697C11.5291 22.3387 12.4709 22.3387 13.208 21.8697L19.958 17.5742C20.607 17.1612 21 16.4453 21 15.676V5.64511C21 4.63047 20.3209 3.74136 19.342 3.47439L12.592 1.63348ZM11.8027 3.08063C11.9319 3.04539 12.0681 3.04539 12.1973 3.08063L18.9473 4.92154C19.2736 5.01053 19.5 5.30689 19.5 5.64511V15.676C19.5 15.9324 19.369 16.1711 19.1527 16.3087L12.4027 20.6042C12.157 20.7605 11.843 20.7605 11.5973 20.6042L4.84734 16.3087C4.63101 16.1711 4.5 15.9324 4.5 15.676V5.64511C4.5 5.3069 4.72637 5.01052 5.05266 4.92154L11.8027 3.08063Z" />
</svg>
