<!-- Generated by IcoMoon.io -->
<svg version="1.1" xmlns="http://www.w3.org/2000/svg" width="32" height="32" viewBox="0 0 32 32">
<title>settings</title>
<path d="M16 20.688c2.563 0 4.688-2.125 4.688-4.688s-2.125-4.688-4.688-4.688-4.688 2.125-4.688 4.688 2.125 4.688 4.688 4.688zM25.938 17.313l2.813 2.188c0.25 0.188 0.313 0.563 0.125 0.875l-2.688 4.625c-0.188 0.313-0.5 0.375-0.813 0.25l-3.313-1.313c-0.688 0.5-1.438 1-2.25 1.313l-0.5 3.5c-0.063 0.313-0.313 0.563-0.625 0.563h-5.375c-0.313 0-0.563-0.25-0.625-0.563l-0.5-3.5c-0.813-0.313-1.563-0.75-2.25-1.313l-3.313 1.313c-0.313 0.125-0.625 0.063-0.813-0.25l-2.688-4.625c-0.188-0.313-0.125-0.688 0.125-0.875l2.813-2.188c-0.063-0.438-0.063-0.875-0.063-1.313s0-0.875 0.063-1.313l-2.813-2.188c-0.25-0.188-0.313-0.563-0.125-0.875l2.688-4.625c0.188-0.313 0.5-0.375 0.813-0.25l3.313 1.313c0.688-0.5 1.438-1 2.25-1.313l0.5-3.5c0.063-0.313 0.313-0.563 0.625-0.563h5.375c0.313 0 0.563 0.25 0.625 0.563l0.5 3.5c0.813 0.313 1.563 0.75 2.25 1.313l3.313-1.313c0.313-0.125 0.625-0.063 0.813 0.25l2.688 4.625c0.188 0.313 0.125 0.688-0.125 0.875l-2.813 2.188c0.063 0.438 0.063 0.875 0.063 1.313s0 0.875-0.063 1.313z"></path>
</svg>
