<!-- Generated by IcoMoon.io -->
<svg xmlns="http://www.w3.org/2000/svg" width="20" height="20" viewBox="0 0 20 20">
    <g id="settings" transform="translate(0 0)" opacity="0.7">
        <path id="Path_67" d="M10.628,20H9.372a1.843,1.843,0,0,1-1.841-1.841v-.425a8.074,8.074,0,0,1-1.254-.52l-.3.3a1.841,1.841,0,0,1-2.6,0l-.887-.887a1.841,1.841,0,0,1,0-2.6l.3-.3a8.075,8.075,0,0,1-.52-1.254H1.841A1.843,1.843,0,0,1,0,10.628V9.372A1.843,1.843,0,0,1,1.841,7.531h.425a8.076,8.076,0,0,1,.52-1.254l-.3-.3a1.841,1.841,0,0,1,0-2.6l.887-.887a1.841,1.841,0,0,1,2.6,0l.3.3a8.082,8.082,0,0,1,1.254-.52V1.841A1.843,1.843,0,0,1,9.372,0h1.255a1.843,1.843,0,0,1,1.841,1.841v.425a8.074,8.074,0,0,1,1.254.52l.3-.3a1.841,1.841,0,0,1,2.6,0l.887.887a1.841,1.841,0,0,1,0,2.6l-.3.3a8.075,8.075,0,0,1,.52,1.254h.425A1.843,1.843,0,0,1,20,9.372v1.255a1.843,1.843,0,0,1-1.841,1.841h-.425a8.077,8.077,0,0,1-.52,1.254l.3.3a1.841,1.841,0,0,1,0,2.6l-.887.887a1.841,1.841,0,0,1-2.6,0l-.3-.3a8.081,8.081,0,0,1-1.254.52v.425A1.843,1.843,0,0,1,10.628,20ZM6.473,15.983a6.907,6.907,0,0,0,1.79.743.586.586,0,0,1,.44.567v.865a.67.67,0,0,0,.669.669h1.255a.67.67,0,0,0,.669-.669v-.865a.586.586,0,0,1,.44-.567,6.907,6.907,0,0,0,1.79-.743.586.586,0,0,1,.713.09l.613.613a.669.669,0,0,0,.946,0l.888-.888a.669.669,0,0,0,0-.946l-.613-.613a.586.586,0,0,1-.09-.713,6.906,6.906,0,0,0,.743-1.79.586.586,0,0,1,.567-.439h.865a.67.67,0,0,0,.669-.669V9.372a.67.67,0,0,0-.669-.669h-.865a.586.586,0,0,1-.567-.439,6.907,6.907,0,0,0-.743-1.79.586.586,0,0,1,.09-.713l.613-.613a.669.669,0,0,0,0-.946L15.8,3.314a.669.669,0,0,0-.946,0l-.613.613a.586.586,0,0,1-.713.09,6.907,6.907,0,0,0-1.79-.743.586.586,0,0,1-.44-.567V1.841a.67.67,0,0,0-.669-.669H9.372a.67.67,0,0,0-.669.669v.865a.586.586,0,0,1-.44.567,6.907,6.907,0,0,0-1.79.743.586.586,0,0,1-.713-.09l-.613-.613a.669.669,0,0,0-.946,0L3.314,4.2a.669.669,0,0,0,0,.946l.613.613a.586.586,0,0,1,.09.713,6.905,6.905,0,0,0-.743,1.79.586.586,0,0,1-.567.439H1.841a.67.67,0,0,0-.669.669v1.255a.67.67,0,0,0,.669.669h.865a.586.586,0,0,1,.567.439,6.907,6.907,0,0,0,.743,1.79.586.586,0,0,1-.09.713l-.613.613a.669.669,0,0,0,0,.946l.888.888a.669.669,0,0,0,.946,0l.613-.613a.589.589,0,0,1,.713-.09Z" fill="#fff"/>
        <path id="Path_68" d="M148.952,153.3a4.352,4.352,0,1,1,4.352-4.352A4.356,4.356,0,0,1,148.952,153.3Zm0-7.531a3.18,3.18,0,1,0,3.18,3.18A3.183,3.183,0,0,0,148.952,145.772Z" transform="translate(-138.952 -138.952)" fill="#fff"/>
    </g>
</svg>
