<?xml version="1.0" encoding="UTF-8" standalone="no"?>
<svg
   width="22"
   height="22"
   viewBox="0 0 22 22"
   fill="none"
   version="1.1"
   id="svg34385"
   sodipodi:docname="share-desktop.svg"
   inkscape:version="1.1.1 (c3084ef, 2021-09-22)"
   xmlns:inkscape="http://www.inkscape.org/namespaces/inkscape"
   xmlns:sodipodi="http://sodipodi.sourceforge.net/DTD/sodipodi-0.dtd"
   xmlns="http://www.w3.org/2000/svg"
   xmlns:svg="http://www.w3.org/2000/svg">
  <defs
     id="defs34389" />
  <sodipodi:namedview
     id="namedview34387"
     pagecolor="#ffffff"
     bordercolor="#666666"
     borderopacity="1.0"
     inkscape:pageshadow="2"
     inkscape:pageopacity="0.0"
     inkscape:pagecheckerboard="0"
     showgrid="false"
     inkscape:zoom="15.974185"
     inkscape:cx="18.811601"
     inkscape:cy="10.110062"
     inkscape:window-width="1292"
     inkscape:window-height="695"
     inkscape:window-x="32"
     inkscape:window-y="39"
     inkscape:window-maximized="0"
     inkscape:current-layer="svg34385" />
  <path
     fill-rule="evenodd"
     clip-rule="evenodd"
     d="M 4.3926651,0.58098587 H 17.784505 c 0.924492,0 1.673946,0.76796113 1.673946,1.71528873 V 12.587997 c 0,0.947403 -0.749454,1.715354 -1.673946,1.715354 h -2.510966 c 0.4622,0 0.836928,0.383976 0.836928,0.857584 0,0.473701 -0.374728,0.857677 -0.836928,0.857677 H 6.9036309 c -0.4622551,0 -0.8369916,-0.383976 -0.8369916,-0.857677 0,-0.473608 0.3747365,-0.857584 0.8369916,-0.857584 H 4.3926651 c -0.9245102,0 -1.6739832,-0.767951 -1.6739832,-1.715354 V 2.2962746 c 0,-0.9473276 0.749473,-1.71528873 1.6739832,-1.71528873 z m 0,1.71528873 V 12.587997 H 17.784505 V 2.2962746 Z m 7.5328889,3.4305866 c -3.4240358,0 -5.0219231,1.5008834 -5.0219231,6.0035528 C 8.7297878,8.0853558 11.925554,8.2997991 11.925554,8.2997991 v 1.191972 c 0,0.393051 0.444395,0.6108619 0.743063,0.364234 L 15.66945,7.3775648 c 0.226808,-0.1872822 0.226808,-0.5412342 0,-0.7284879 L 12.668617,4.1706549 C 12.369949,3.9239991 11.925554,4.1418287 11.925554,4.53488 Z"
     id="path34383"
     style="fill:#ffffff;stroke-width:0.924277" />
  <text
     xml:space="preserve"
     style="font-style:normal;font-weight:normal;font-size:8px;line-height:1.25;font-family:sans-serif;fill:#ffffff;fill-opacity:1;stroke:none"
     x="-0.80046672"
     y="21.645874"
     id="text34565"><tspan
       sodipodi:role="line"
       id="tspan34563"
       x="-0.80046672"
       y="21.645874"
       style="font-size:8px;fill:#ffffff">Share</tspan></text>
</svg>
