<svg width="20" height="20" viewBox="0 0 20 20" fill="none" xmlns="http://www.w3.org/2000/svg">
<path fill-rule="evenodd" clip-rule="evenodd" d="M9.31658 3.06949L4.99999 6.66664H2.49999C2.03975 6.66664 1.66666 7.03974 1.66666 7.49998V12.5C1.66666 12.9602 2.03975 13.3333 2.49999 13.3333H4.99999L9.31658 16.9305C9.39146 16.9929 9.48585 17.027 9.58332 17.027C9.81344 17.027 9.99999 16.8405 9.99999 16.6104V3.38958C9.99999 3.2921 9.96582 3.19772 9.90341 3.12283C9.7561 2.94605 9.49336 2.92217 9.31658 3.06949ZM3.33332 8.33331H5.60341L8.33332 6.05838V13.9416L5.60341 11.6666H3.33332V8.33331ZM11.6667 6.66664C13.5076 6.66664 15 8.15903 15 9.99998C15 11.8409 13.5076 13.3333 11.6667 13.3333V11.6666C12.5871 11.6666 13.3333 10.9205 13.3333 9.99998C13.3333 9.0795 12.5871 8.33331 11.6667 8.33331V6.66664ZM11.6667 3.33331C15.3486 3.33331 18.3333 6.31808 18.3333 9.99998C18.3333 13.6819 15.3486 16.6666 11.6667 16.6666V15C14.4281 15 16.6667 12.7614 16.6667 9.99998C16.6667 7.23855 14.4281 4.99998 11.6667 4.99998V3.33331Z" fill="white"/>
</svg>
