<?xml version="1.0" encoding="UTF-8" standalone="no"?>
<svg
   width="40"
   height="40"
   viewBox="0 0 40 40"
   fill="none"
   version="1.1"
   id="svg34385"
   sodipodi:docname="share-desktop.svg"
   inkscape:version="1.1.1 (c3084ef, 2021-09-22)"
   xmlns:inkscape="http://www.inkscape.org/namespaces/inkscape"
   xmlns:sodipodi="http://sodipodi.sourceforge.net/DTD/sodipodi-0.dtd"
   xmlns="http://www.w3.org/2000/svg"
   xmlns:svg="http://www.w3.org/2000/svg">
  <defs
     id="defs34389" />
  <sodipodi:namedview
     id="namedview34387"
     pagecolor="#ffffff"
     bordercolor="#666666"
     borderopacity="1.0"
     inkscape:pageshadow="2"
     inkscape:pageopacity="0.0"
     inkscape:pagecheckerboard="0"
     showgrid="false"
     inkscape:zoom="15.974185"
     inkscape:cx="19.594114"
     inkscape:cy="20.157523"
     inkscape:window-width="1003"
     inkscape:window-height="602"
     inkscape:window-x="183"
     inkscape:window-y="72"
     inkscape:window-maximized="0"
     inkscape:current-layer="svg34385"
     width="40px" />
  <path
     fill-rule="evenodd"
     clip-rule="evenodd"
     d="M 9.7012335,1.2069959 H 30.505045 c 1.436172,0 2.600424,1.1946001 2.600424,2.6682134 V 19.884475 c 0,1.47373 -1.164252,2.668313 -2.600424,2.668313 h -3.900708 c 0.718013,0 1.300142,0.597294 1.300142,1.334015 0,0.736862 -0.582129,1.334156 -1.300142,1.334156 H 13.601942 c -0.718099,0 -1.300241,-0.597294 -1.300241,-1.334156 0,-0.736721 0.582142,-1.334015 1.300241,-1.334015 H 9.7012335 c -1.4361981,0 -2.6004814,-1.194583 -2.6004814,-2.668313 V 3.8752093 c 0,-1.4736133 1.1642833,-2.6682134 2.6004814,-2.6682134 z m 0,2.6682134 V 19.884475 H 30.505045 V 3.8752093 Z M 21.403346,9.2116504 c -5.319135,0 -7.801404,2.3346956 -7.801404,9.3388126 2.836878,-5.670062 7.801404,-5.336485 7.801404,-5.336485 v 1.85417 c 0,0.611409 0.690354,0.950224 1.154325,0.566583 l 4.661702,-3.855332 c 0.352339,-0.291327 0.352339,-0.841916 0,-1.133198 L 22.557671,6.7908973 C 22.0937,6.4072123 21.403346,6.7460563 21.403346,7.3574667 Z"
     id="path34383"
     style="fill:#ffffff;stroke-width:1.43679" />
  <text
     xml:space="preserve"
     style="font-style:normal;font-weight:normal;font-size:13.3333px;line-height:1.25;font-family:sans-serif;word-spacing:0px;fill:#ffffff;fill-opacity:1;stroke:none"
     x="0.76455837"
     y="38.04734"
     id="text34565"><tspan
       sodipodi:role="line"
       id="tspan34563"
       x="0.76455837"
       y="38.04734"
       style="font-size:13.3333px;fill:#ffffff">Share</tspan></text>
</svg>
