<svg width="15" height="15" viewBox="0 0 15 15" fill="none" xmlns="http://www.w3.org/2000/svg">
<path fill-rule="evenodd" clip-rule="evenodd" d="M2.5 1.875H12.5C13.1904 1.875 13.75 2.43464 13.75 3.125V10.625C13.75 11.3154 13.1904 11.875 12.5 11.875H10.625C10.9702 11.875 11.25 12.1548 11.25 12.5C11.25 12.8452 10.9702 13.125 10.625 13.125H4.375C4.02982 13.125 3.75 12.8452 3.75 12.5C3.75 12.1548 4.02982 11.875 4.375 11.875H2.5C1.80964 11.875 1.25 11.3154 1.25 10.625V3.125C1.25 2.43464 1.80964 1.875 2.5 1.875ZM2.5 3.125V10.625H12.5V3.125H2.5ZM8.125 5.625C5.56818 5.625 4.375 6.71875 4.375 10C5.73864 7.34375 8.125 7.5 8.125 7.5V8.03605C8.125 8.45615 8.61169 8.68897 8.93877 8.42534L10.767 6.95178C11.0153 6.75164 11.0153 6.37333 10.767 6.17319L8.93877 4.69963C8.61169 4.436 8.125 4.66882 8.125 5.08892V5.625Z" fill="white"/>
</svg>
