
<?xml version="1.0" encoding="UTF-8" standalone="no"?>
<svg
   width="22"
   height="22"
   viewBox="0 0 22 22"
   fill="none"
   version="1.1"
   id="svg4"
   sodipodi:docname="share-desktop.svg"
   inkscape:version="1.1.1 (c3084ef, 2021-09-22)"
   xmlns:inkscape="http://www.inkscape.org/namespaces/inkscape"
   xmlns:sodipodi="http://sodipodi.sourceforge.net/DTD/sodipodi-0.dtd"
   xmlns="http://www.w3.org/2000/svg"
   xmlns:svg="http://www.w3.org/2000/svg">
  <defs
     id="defs8" />
  <sodipodi:namedview
     id="namedview6"
     pagecolor="#ffffff"
     bordercolor="#666666"
     borderopacity="1.0"
     inkscape:pageshadow="2"
     inkscape:pageopacity="0.0"
     inkscape:pagecheckerboard="0"
     showgrid="false"
     inkscape:zoom="22.590909"
     inkscape:cx="15.515091"
     inkscape:cy="11.265594"
     inkscape:window-width="1280"
     inkscape:window-height="725"
     inkscape:window-x="0"
     inkscape:window-y="23"
     inkscape:window-maximized="0"
     inkscape:current-layer="svg4" />
  <path
     fill-rule="evenodd"
     clip-rule="evenodd"
     d="M3.66671 2.75H18.3334C19.3459 2.75 20.1667 3.57081 20.1667 4.58333V15.5833C20.1667 16.5959 19.3459 17.4167 18.3334 17.4167H15.5834C16.0896 17.4167 16.5 17.8271 16.5 18.3333C16.5 18.8396 16.0896 19.25 15.5834 19.25H6.41671C5.91045 19.25 5.50004 18.8396 5.50004 18.3333C5.50004 17.8271 5.91045 17.4167 6.41671 17.4167H3.66671C2.65419 17.4167 1.83337 16.5959 1.83337 15.5833V4.58333C1.83337 3.57081 2.65419 2.75 3.66671 2.75ZM3.66671 4.58333V15.5833H18.3334V4.58333H3.66671ZM11.9167 8.25C8.16671 8.25 6.41671 9.85417 6.41671 14.6667C8.41671 10.7708 11.9167 11 11.9167 11V12.274C11.9167 12.6941 12.4034 12.9269 12.7305 12.6633L16.017 10.0143C16.2654 9.81413 16.2654 9.43582 16.017 9.23568L12.7305 6.5867C12.4034 6.32307 11.9167 6.55589 11.9167 6.97599V8.25Z"
     id="path2" />
  <text
     xml:space="preserve"
     style="font-style:normal;font-weight:normal;font-size:6.66667px;line-height:1.25;font-family:sans-serif;fill:#000000;fill-opacity:1;stroke:none"
     x="1.281901"
     y="21.837727"
     id="text1092"><tspan
       sodipodi:role="line"
       id="tspan1090"
       x="1.281901"
       y="21.837727">Share</tspan></text>
</svg>
