<svg width="24" height="24" viewBox="0 0 24 24" xmlns="http://www.w3.org/2000/svg">
    <path fill-rule="evenodd" clip-rule="evenodd" d="M18 7.5C19.6569 7.5 21 6.15685 21 4.5C21 2.84315 19.6569 1.5 18 1.5C16.3431 1.5 15 2.84315 15 4.5C15 4.8151 15.0486 5.11885 15.1387 5.40418L8.06589 9.82466C7.52793 9.3136 6.80059 9 6 9C4.34315 9 3 10.3431 3 12C3 13.6569 4.34315 15 6 15C6.80042 15 7.52762 14.6865 8.06555 14.1757L15.1385 18.5963C15.0485 18.8815 15 19.1851 15 19.5C15 21.1569 16.3431 22.5 18 22.5C19.6569 22.5 21 21.1569 21 19.5C21 17.8431 19.6569 16.5 18 16.5C17.1994 16.5 16.4721 16.8136 15.9341 17.3247L8.86134 12.9042C8.95142 12.6189 9 12.3151 9 12C9 11.6851 8.95147 11.3815 8.86149 11.0963L15.9345 6.67568C16.4724 7.18654 17.1996 7.5 18 7.5ZM18 6C18.8284 6 19.5 5.32843 19.5 4.5C19.5 3.67157 18.8284 3 18 3C17.1716 3 16.5 3.67157 16.5 4.5C16.5 5.32843 17.1716 6 18 6ZM6 13.5C6.82843 13.5 7.5 12.8284 7.5 12C7.5 11.1716 6.82843 10.5 6 10.5C5.17157 10.5 4.5 11.1716 4.5 12C4.5 12.8284 5.17157 13.5 6 13.5ZM19.5 19.5C19.5 20.3284 18.8284 21 18 21C17.1716 21 16.5 20.3284 16.5 19.5C16.5 18.6716 17.1716 18 18 18C18.8284 18 19.5 18.6716 19.5 19.5Z" />
</svg>
