<svg width="24" height="24" viewBox="0 0 24 24" xmlns="http://www.w3.org/2000/svg">
    <path fill-rule="evenodd" clip-rule="evenodd" d="M13.5 14.25H10.5V17.25H13.5V14.25ZM10.5 12.75C9.67157 12.75 9 13.4216 9 14.25V17.25C9 18.0784 9.67157 18.75 10.5 18.75H13.5C14.3284 18.75 15 18.0784 15 17.25V14.25C15 13.4216 14.3284 12.75 13.5 12.75H10.5Z" />
    <path fill-rule="evenodd" clip-rule="evenodd" d="M21 14.25H18V17.25H21V14.25ZM18 12.75C17.1716 12.75 16.5 13.4216 16.5 14.25V17.25C16.5 18.0784 17.1716 18.75 18 18.75H21C21.8284 18.75 22.5 18.0784 22.5 17.25V14.25C22.5 13.4216 21.8284 12.75 21 12.75H18Z" />
    <path fill-rule="evenodd" clip-rule="evenodd" d="M6 14.25H3V17.25H6V14.25ZM3 12.75C2.17157 12.75 1.5 13.4216 1.5 14.25V17.25C1.5 18.0784 2.17157 18.75 3 18.75H6C6.82843 18.75 7.5 18.0784 7.5 17.25V14.25C7.5 13.4216 6.82843 12.75 6 12.75H3Z" />
    <path fill-rule="evenodd" clip-rule="evenodd" d="M13.5 6.75H10.5V9.75H13.5V6.75ZM10.5 5.25C9.67157 5.25 9 5.92157 9 6.75V9.75C9 10.5784 9.67157 11.25 10.5 11.25H13.5C14.3284 11.25 15 10.5784 15 9.75V6.75C15 5.92157 14.3284 5.25 13.5 5.25H10.5Z" />
</svg>
