<svg width="24" height="24" viewBox="0 0 24 24" xmlns="http://www.w3.org/2000/svg">
    <path fill-rule="evenodd" clip-rule="evenodd" d="M22.5 12C22.5 17.799 17.799 22.5 12 22.5C6.20101 22.5 1.5 17.799 1.5 12C1.5 6.20101 6.20101 1.5 12 1.5C17.799 1.5 22.5 6.20101 22.5 12ZM12.5297 20.9847C12.3544 20.9948 12.1778 21 12 21C11.8222 21 11.6456 20.9948 11.4703 20.9847C10.7544 20.4276 10.1367 19.4949 9.65919 18.2668C11.0288 17.9562 12.6343 17.8706 14.3401 18.2687C13.8627 19.4959 13.2452 20.4278 12.5297 20.9847ZM14.8916 20.5254C15.7072 20.2489 16.4704 19.8585 17.1621 19.3734C16.6972 19.1128 16.2341 18.8951 15.7753 18.7154C15.5289 19.3643 15.2358 19.9761 14.8916 20.5254ZM16.2322 17.2811C16.9411 17.5531 17.659 17.9047 18.3788 18.3491C19.8336 16.8875 20.7895 14.9288 20.9692 12.75H16.863C16.8127 14.3172 16.6042 15.8728 16.2322 17.2811ZM15.3622 12.75H8.63783C8.68693 14.1814 8.87656 15.5827 9.20168 16.8354C10.8329 16.4455 12.7572 16.3327 14.7991 16.8322C15.1238 15.5803 15.3131 14.1802 15.3622 12.75ZM15.3622 11.25H8.63783C8.68554 9.85892 8.86598 8.49635 9.1745 7.27086C10.8187 7.66779 12.7629 7.78391 14.8263 7.27388C15.1343 8.49859 15.3145 9.86006 15.3622 11.25ZM16.863 11.25H20.9692C20.7923 9.10582 19.8638 7.17476 18.4477 5.72091C17.7138 6.1799 16.9818 6.54209 16.2589 6.82138C16.6142 8.20252 16.8139 9.72077 16.863 11.25ZM15.8121 5.38285C16.2879 5.19454 16.7683 4.96513 17.2505 4.68942C16.5356 4.17505 15.7421 3.76296 14.8916 3.47458C15.2531 4.05156 15.5583 4.69747 15.8121 5.38285ZM12.5297 3.01533C12.3545 3.00516 12.1778 3 12 3C11.8222 3 11.6455 3.00516 11.4703 3.01533C10.7343 3.58803 10.1022 4.55754 9.61946 5.83691C11.0083 6.15728 12.6426 6.24746 14.3797 5.83475C13.8971 4.55645 13.2653 3.5877 12.5297 3.01533ZM8.21879 18.6998C8.46635 19.3545 8.76144 19.9717 9.10843 20.5254C8.28348 20.2457 7.51223 19.8496 6.81423 19.3567C7.21507 19.1276 7.68746 18.9006 8.21879 18.6998ZM7.76524 17.2714C7.3948 15.8656 7.18719 14.3135 7.13701 12.75H3.03081C3.21003 14.9224 4.1608 16.8761 5.60847 18.3363C6.17791 17.9674 6.90935 17.5885 7.76524 17.2714ZM7.13701 11.25C7.18597 9.72449 7.38479 8.20992 7.73849 6.83148C6.86006 6.50366 6.11394 6.11124 5.54108 5.73242C4.13132 7.18495 3.20723 9.11148 3.03081 11.25H7.13701ZM8.1819 5.39899C8.43687 4.70761 8.74402 4.05608 9.10841 3.47458C8.24898 3.76598 7.44784 4.18369 6.7271 4.7056C7.13696 4.94635 7.62677 5.18678 8.1819 5.39899Z" />
</svg>
