<svg xmlns="http://www.w3.org/2000/svg" shape-rendering="geometricPrecision"
     text-rendering="geometricPrecision" image-rendering="optimizeQuality"
     fill-rule="evenodd" clip-rule="evenodd" viewBox="0 0 512 508.27">
    <path fill-rule="nonzero"
          d="m138.52 28.55-.14.08-.14.07-.28.14-.67.36-.5.26-.18.09-.67.36-.67.36-.67.36a259.46 259.46 0 0 0-17.63 10.46l-.64.41-1.9 1.25-.63.43-1.88 1.27-.63.43-1.25.86-.62.43-.62.44-.62.44-.31.21-.31.23-.62.44-.61.44-.62.45-.34.24-.27.2-.61.46-.62.45-.61.45-.37.27-.24.19-.04.03-1.78 1.34-.39.3-2.02 1.56-.41.32-.19.16-.6.47-.5.4a257.15 257.15 0 0 0-21.69 19.37 257.24 257.24 0 0 0-40.85 53.21l-.09.15-.09.16-.06.1-.33.58-.38.67C12.09 167.16 0 210.25 0 256.15c0 4 .1 7.97.28 11.94l.03.68c.76 16.18 3.12 32.38 6.95 48.12.11.45.24.89.37 1.32 7.68 30.66 20.92 59.3 38.69 84.69.42.72.87 1.43 1.36 2.12 9.49 13.28 20.15 25.45 31.94 36.73.46.43.94.83 1.41 1.21 22.42 21.04 48.71 38.14 77.85 50.1.72.38 1.48.72 2.26 1.03 15.51 6.13 30.38 10.38 46.73 13.66.7.12 1.39.2 2.07.27 12.14 1.82 23.63-6.28 25.91-18.44 2.22-11.92-5.21-23.41-16.77-26.39-11.46-4.63-29.12-7.1-41.12-11.84l-.7-.26a209.848 209.848 0 0 1-64.65-41.23c-.46-.54-.96-1.04-1.49-1.53-9.67-9.28-18.37-19.24-26.16-30.14-.32-.45-.66-.88-1-1.29-14.95-21.33-26-45.53-32.22-71.49l-.15-.62-.04-.15-.1-.46-.14-.6-.14-.62-.13-.56-.01-.05-.14-.61-.13-.61-.13-.61-.08-.36-.05-.26-.13-.61-.13-.61-.12-.61-.04-.16-.08-.46-.13-.61-.12-.61-.11-.58v-.04l-.12-.61-.11-.62-.12-.61-.07-.39-.03-.22-.11-.62-.11-.62-.11-.61-.03-.2-.07-.42-.1-.61-.1-.62-.1-.61v-.03l-.09-.59-.25-1.7-.03-.16-.09-.61-.17-1.24-.03-.29-.05-.33c-.29-2.19-.54-4.39-.76-6.6l-.03-.22c-.22-2.25-.4-4.51-.55-6.77l-.01-.09-.12-1.88-.02-.38-.01-.25-.03-.62-.03-.63c-.17-3.42-.25-6.86-.25-10.31 0-31.7 7.01-61.74 19.56-88.69l.07-.15.2-.41.26-.57.27-.56.27-.56.1-.21.17-.35.27-.56.28-.56c1.19-2.42 2.43-4.82 3.71-7.19l.21-.4.08-.15.3-.55.31-.55.3-.55.23-.42.07-.12a210.758 210.758 0 0 1 34.9-46.1 214.83 214.83 0 0 1 18.32-16.31l.5-.38.04-.04.45-.35c4.49-3.51 9.13-6.85 13.9-9.99l.35-.22 1.53-1 .04-.03.21-.13.32-.2.53-.34.53-.33.53-.34.23-.14.3-.19.53-.32.53-.33.08-.05 1-.61.53-.32.54-.32.54-.32.53-.32.55-.31.54-.32c1.8-1.05 3.62-2.07 5.45-3.07l.55-.3.56-.29.55-.3.42-.23.13-.06.56-.3c29.08-15.2 62.18-23.81 97.28-23.81 12.68 0 22.96-10.28 22.96-22.96C279.11 10.29 268.83 0 256.15 0c-42.4 0-82.4 10.31-117.63 28.55zM341.8 270.03c14.6-9.43 14.56-19.93 0-28.28l-117.1-81.54c-11.9-7.46-24.31-3.08-23.98 12.46l.46 164.04c1.03 16.84 10.64 21.46 24.82 13.67l115.8-80.35zm-45.91 192.58c-23.99 4.8-25.23 38.83-.7 44.96 3.12.66 6.24.77 9.39.14 15.26-2.54 32.34-7.99 46.72-13.68 7.29-2.87 12-8.88 13.87-16.36 3.95-18.05-13.79-33.04-30.99-26.26-11.73 4.67-25.84 9.13-38.29 11.2zm105.19-54.2c-18.24 17.53 1.09 47.72 25.13 37.64 2.6-1.21 4.44-2.44 6.55-4.38 11.61-10.72 22.71-23.95 31.94-36.77 4.36-6.02 5.35-13.9 2.95-20.87-6.25-17.63-29.44-20.86-40.41-5.72-7.51 10.47-16.69 21.36-26.16 30.1zm59.3-102.25c-5.78 25.27 28.09 39.6 42.11 17.01 1.16-1.97 2.07-4.16 2.58-6.4 3.79-15.74 6.19-31.94 6.92-48.12.67-24.39-31.11-33.21-43.11-12.01-1.73 3.33-2.57 6.2-2.78 9.96-.72 13.55-2.55 26.36-5.72 39.56zm-5.37-118.34c7.84 22.2 39.93 19.89 44.34-3.62.6-3.92.4-7.62-.93-11.39-5.15-15.23-12.17-30.47-20.2-44.39-12.01-20.68-44.23-11.31-42.74 13.27 1.13 11.4 14.87 32.34 19.53 46.13zm-68.4-96.52c18.53 14.56 44.79-5.16 35.07-27.59-1.59-3.43-3.77-6.23-6.73-8.55-12.75-10.12-26.34-18.82-40.75-26.39-22.89-11.44-44.54 16.57-27.55 35.88 1.87 2.02 3.92 3.58 6.36 4.87 11.89 6.23 23.09 13.44 33.6 21.78z"/>
</svg>
