<svg width="20" height="20" viewBox="0 0 20 20" fill="none" xmlns="http://www.w3.org/2000/svg">
<path fill-rule="evenodd" clip-rule="evenodd" d="M9.99996 18.3333C5.39759 18.3333 1.66663 14.6023 1.66663 9.99996C1.66663 5.39759 5.39759 1.66663 9.99996 1.66663C14.6023 1.66663 18.3333 5.39759 18.3333 9.99996C18.3333 14.6023 14.6023 18.3333 9.99996 18.3333ZM9.99996 16.6666C13.6819 16.6666 16.6666 13.6819 16.6666 9.99996C16.6666 6.31806 13.6819 3.33329 9.99996 3.33329C6.31806 3.33329 3.33329 6.31806 3.33329 9.99996C3.33329 13.6819 6.31806 16.6666 9.99996 16.6666ZM8.33329 8.74996C8.33329 9.44031 7.77365 9.99996 7.08329 9.99996C6.39294 9.99996 5.83329 9.44031 5.83329 8.74996C5.83329 8.0596 6.39294 7.49996 7.08329 7.49996C7.77365 7.49996 8.33329 8.0596 8.33329 8.74996ZM12.9166 9.99996C13.607 9.99996 14.1666 9.44031 14.1666 8.74996C14.1666 8.0596 13.607 7.49996 12.9166 7.49996C12.2263 7.49996 11.6666 8.0596 11.6666 8.74996C11.6666 9.44031 12.2263 9.99996 12.9166 9.99996ZM9.99996 15C11.7491 15 13.2885 14.1018 14.1821 12.7414L12.8867 11.6691C12.3021 12.6792 11.2131 13.3333 9.99996 13.3333C8.801 13.3333 7.71376 12.6771 7.12376 11.6672L5.8304 12.741C6.72576 14.0962 8.25894 15 9.99996 15Z"/>
</svg>
