<!-- Generated by IcoMoon.io -->
<svg version="1.1" xmlns="http://www.w3.org/2000/svg" width="32" height="32" viewBox="0 0 32 32">
<title>speaker</title>
<path d="M0 16c0 8.837 7.163 16 16 16s16-7.163 16-16c0-8.837-7.163-16-16-16s-16 7.163-16 16zM16.406 8.27c-0.64-0.779-0.51-1.917 0.29-2.541s1.967-0.497 2.607 0.282c0.501 0.611 1.206 1.655 1.903 3.056 2.551 5.127 2.796 10.656-0.839 15.823-0.262 0.372-0.543 0.74-0.844 1.103-0.644 0.777-1.811 0.898-2.608 0.271s-0.921-1.765-0.278-2.542c0.24-0.29 0.464-0.582 0.67-0.876 2.771-3.939 2.585-8.135 0.561-12.202-0.331-0.666-0.686-1.266-1.037-1.787-0.204-0.302-0.354-0.502-0.424-0.588zM11.046 11.767c-0.605-0.771-0.473-1.889 0.295-2.497s1.88-0.475 2.485 0.296c0.301 0.384 0.706 1.020 1.1 1.876 1.573 3.412 1.573 7.24-1.051 10.925-0.569 0.798-1.674 0.983-2.469 0.411s-0.978-1.682-0.409-2.48c1.799-2.526 1.799-5.018 0.718-7.361-0.269-0.583-0.528-0.99-0.669-1.17z"></path>
</svg>
