<svg width="24" height="24" viewBox="0 0 24 24" xmlns="http://www.w3.org/2000/svg">
    <path fill-rule="evenodd" clip-rule="evenodd" d="M7.5 9C7.5 8.17157 8.17157 7.5 9 7.5H15C15.8284 7.5 16.5 8.17157 16.5 9V15C16.5 15.8284 15.8284 16.5 15 16.5H9C8.17157 16.5 7.5 15.8284 7.5 15V9ZM14.25 9C14.6642 9 15 9.33579 15 9.75V14.25C15 14.6642 14.6642 15 14.25 15H9.75C9.33579 15 9 14.6642 9 14.25V9.75C9 9.33579 9.33579 9 9.75 9H14.25Z" />
    <path fill-rule="evenodd" clip-rule="evenodd" d="M22.5 12C22.5 17.799 17.799 22.5 12 22.5C6.20101 22.5 1.5 17.799 1.5 12C1.5 6.20101 6.20101 1.5 12 1.5C17.799 1.5 22.5 6.20101 22.5 12ZM21 12C21 16.9706 16.9706 21 12 21C7.02944 21 3 16.9706 3 12C3 7.02944 7.02944 3 12 3C16.9706 3 21 7.02944 21 12Z" />
</svg>
