<svg width="20" height="20" viewBox="0 0 20 20" fill="none" xmlns="http://www.w3.org/2000/svg">
<path fill-rule="evenodd" clip-rule="evenodd" d="M6.57392 5.35509L6.56245 5.36465L3.11271 1.9149C2.78183 1.58402 2.24546 1.58394 1.91469 1.91471C1.58392 2.24548 1.58401 2.78185 1.91488 3.11272L5.25574 6.45358L5.00001 6.66669H2.50001C2.03977 6.66669 1.66667 7.03978 1.66667 7.50002V12.5C1.66667 12.9603 2.03977 13.3334 2.50001 13.3334H5.00001L9.3166 16.9305C9.39148 16.9929 9.48586 17.0271 9.58334 17.0271C9.81346 17.0271 10 16.8405 10 16.6104V11.1978L11.6667 12.8645V13.3334C11.8158 13.3334 11.9627 13.3236 12.1067 13.3046L13.4679 14.6657C12.9091 14.8816 12.3017 15 11.6667 15V16.6667C12.7697 16.6667 13.8102 16.3988 14.7267 15.9245L16.8873 18.0851C17.2182 18.416 17.7545 18.4161 18.0853 18.0853C18.4161 17.7546 18.416 17.2182 18.0851 16.8873L16.1405 14.9427C16.1442 14.9394 16.1478 14.936 16.1515 14.9327L14.9712 13.7524C14.9675 13.7557 14.9638 13.759 14.9601 13.7622L13.7777 12.5798C13.7815 12.5767 13.7854 12.5735 13.7892 12.5704L12.6003 11.3814C12.5961 11.3843 12.5919 11.3871 12.5877 11.3899L10 8.8022V8.78118L8.33334 7.11451V7.13553L7.74583 6.54802L7.75729 6.53846L6.57392 5.35509ZM11.9766 8.36212L11.6667 8.0522V6.66669C13.5076 6.66669 15 8.15907 15 10C15 10.4129 14.9249 10.8083 14.7877 11.1732L13.3046 9.6901C13.1782 9.01814 12.6486 8.48848 11.9766 8.36212ZM16.04 12.4255L17.2535 13.639C17.9364 12.5927 18.3333 11.3427 18.3333 10C18.3333 6.31812 15.3486 3.33335 11.6667 3.33335V5.00002C14.4281 5.00002 16.6667 7.2386 16.6667 10C16.6667 10.8802 16.4393 11.7072 16.04 12.4255ZM10 6.38553L7.88064 4.26616L9.3166 3.06953C9.49338 2.92221 9.75611 2.9461 9.90343 3.12288C9.96583 3.19776 10 3.29215 10 3.38962V6.38553ZM5.60342 8.33335L6.43911 7.63695L8.33334 9.53118V13.9416L5.60342 11.6667H3.33334V8.33335H5.60342Z" fill="white"/>
</svg>
