<svg width="24" height="24" viewBox="0 0 24 24" xmlns="http://www.w3.org/2000/svg">
    <path fill-rule="evenodd" clip-rule="evenodd" d="M22.2803 2.78033C22.5732 2.48744 22.5732 2.01256 22.2803 1.71967C21.9874 1.42678 21.5126 1.42678 21.2197 1.71967L19.9114 3.02797C19.7769 3.00953 19.6396 3 19.5 3H4.5C2.84315 3 1.5 4.34315 1.5 6V17.25C1.5 18.3842 2.12941 19.3714 3.05799 19.8813L1.71967 21.2197C1.42678 21.5126 1.42678 21.9874 1.71967 22.2803C2.01256 22.5732 2.48744 22.5732 2.78033 22.2803L22.2803 2.78033ZM4.21616 18.7232L5.54187 17.3975C5.40631 17.4169 5.2687 17.4055 5.14194 17.3656C4.78878 17.2544 4.48676 16.9074 4.52225 16.4471C4.8467 12.239 8.62852 8.92199 13.327 8.60046V6.87396C13.327 6.08352 14.2729 5.67701 14.8464 6.22103L15.807 7.13235L18.4393 4.5H4.5C3.67157 4.5 3 5.17157 3 6V17.25C3 17.9814 3.52345 18.5905 4.21616 18.7232ZM12.7759 10.1634C10.0327 10.5417 7.82609 12.097 6.73783 14.1317C8.14978 12.9079 9.68868 12.2376 11.0531 11.8862L12.7759 10.1634Z" fill="white" />
    <path d="M21 6.1607L22.283 4.87768C22.423 5.22437 22.5 5.60319 22.5 6V17.25C22.5 18.9069 21.1569 20.25 19.5 20.25H18.75C19.1642 20.25 19.5 20.5858 19.5 21C19.5 21.4142 19.1642 21.75 18.75 21.75H5.4107L8.4107 18.75H19.5C20.3284 18.75 21 18.0784 21 17.25V6.1607Z" fill="white" />
    <path d="M13.327 13.8337V15.2002C13.327 15.9986 14.2893 16.4017 14.8583 15.8416L19.1656 11.6016C19.5284 11.2444 19.523 10.6577 19.1536 10.3073L17.9732 9.18747L16.9122 10.2485L17.6708 10.9682L14.827 13.7676V12.3337L13.327 13.8337Z" fill="white" />
</svg>
