<svg width="24" height="24" viewBox="0 0 24 24" xmlns="http://www.w3.org/2000/svg">
    <path d="M5.25 12C5.25 9.92893 6.92893 8.25 9 8.25H9.21885C9.68458 8.25 10.1439 8.35844 10.5605 8.56672L10.8354 8.70418C11.2059 8.88942 11.3561 9.33993 11.1708 9.71041C10.9856 10.0809 10.5351 10.2311 10.1646 10.0458L9.88967 9.90836C9.68138 9.80422 9.45171 9.75 9.21885 9.75H9C7.75736 9.75 6.75 10.7574 6.75 12C6.75 13.2426 7.75736 14.25 9 14.25H9.21885C9.45171 14.25 9.68138 14.1958 9.88967 14.0916L10.1646 13.9542C10.5351 13.7689 10.9856 13.9191 11.1708 14.2896C11.3561 14.6601 11.2059 15.1106 10.8354 15.2958L10.5605 15.4333C10.1439 15.6416 9.68458 15.75 9.21885 15.75H9C6.92893 15.75 5.25 14.0711 5.25 12Z" />
    <path d="M16.5 8.25C14.4289 8.25 12.75 9.92893 12.75 12C12.75 14.0711 14.4289 15.75 16.5 15.75H16.7188C17.1846 15.75 17.6439 15.6416 18.0605 15.4333L18.3354 15.2958C18.7059 15.1106 18.8561 14.6601 18.6708 14.2896C18.4856 13.9191 18.0351 13.7689 17.6646 13.9542L17.3897 14.0916C17.1814 14.1958 16.9517 14.25 16.7188 14.25H16.5C15.2574 14.25 14.25 13.2426 14.25 12C14.25 10.7574 15.2574 9.75 16.5 9.75H16.7188C16.9517 9.75 17.1814 9.80422 17.3897 9.90836L17.6646 10.0458C18.0351 10.2311 18.4856 10.0809 18.6708 9.71041C18.8561 9.33993 18.7059 8.88942 18.3354 8.70418L18.0605 8.56672C17.6439 8.35844 17.1846 8.25 16.7188 8.25H16.5Z" />
    <path fill-rule="evenodd" clip-rule="evenodd" d="M3 1.5C2.17157 1.5 1.5 2.17157 1.5 3V21C1.5 21.8284 2.17157 22.5 3 22.5H21C21.8284 22.5 22.5 21.8284 22.5 21V3C22.5 2.17157 21.8284 1.5 21 1.5H3ZM21 3H3V21H21V3Z" />
</svg>
