<?xml version="1.0" encoding="UTF-8" standalone="no"?>
<svg
   viewBox="0 0 22 22"
   version="1.1"
   id="svg4"
   sodipodi:docname="tiles-many.svg"
   inkscape:version="1.1.1 (c3084ef, 2021-09-22)"
   xmlns:inkscape="http://www.inkscape.org/namespaces/inkscape"
   xmlns:sodipodi="http://sodipodi.sourceforge.net/DTD/sodipodi-0.dtd"
   xmlns="http://www.w3.org/2000/svg"
   xmlns:svg="http://www.w3.org/2000/svg">
  <defs
     id="defs8" />
  <sodipodi:namedview
     id="namedview6"
     pagecolor="#ffffff"
     bordercolor="#666666"
     borderopacity="1.0"
     inkscape:pageshadow="2"
     inkscape:pageopacity="0.0"
     inkscape:pagecheckerboard="0"
     showgrid="false"
     inkscape:zoom="15.974185"
     inkscape:cx="24.32049"
     inkscape:cy="11.675087"
     inkscape:window-width="1078"
     inkscape:window-height="725"
     inkscape:window-x="76"
     inkscape:window-y="23"
     inkscape:window-maximized="0"
     inkscape:current-layer="svg4" />
  <path
     d="m 9.1060301,8.8974547 h -4.480788 c -0.6191914,0 -1.120197,0.488677 -1.120197,1.0897403 v 4.355635 c 0,0.601063 0.5010056,1.088908 1.120197,1.088908 h 4.480788 c 0.6191915,0 1.1201969,-0.487845 1.1201969,-1.088908 V 9.987195 c 0,-0.6010633 -0.5018619,-1.0897403 -1.1201969,-1.0897403 z m 0,4.9009203 c 0,0.300533 -0.250931,0.544455 -0.5600985,0.544455 H 5.1844842 c -0.3091675,0 -0.5600985,-0.243922 -0.5600985,-0.544455 v -3.266726 c 0,-0.300531 0.2500745,-0.544454 0.5600985,-0.544454 h 3.360591 c 0.3091675,0 0.5600985,0.243923 0.5600985,0.544454 v 3.266726 z M 18.067606,8.8974547 h -4.480788 c -0.619192,0 -1.120197,0.488677 -1.120197,1.0897403 v 4.355635 c 0,0.601063 0.501005,1.088908 1.120197,1.088908 h 4.480788 c 0.618335,0 1.120197,-0.487845 1.120197,-1.088908 V 9.987195 c 0,-0.6010633 -0.501862,-1.0897403 -1.120197,-1.0897403 z m 0,4.9009203 c 0,0.300533 -0.250931,0.544455 -0.560099,0.544455 h -3.360591 c -0.309167,0 -0.560098,-0.243922 -0.560098,-0.544455 v -3.266726 c 0,-0.300531 0.250931,-0.544454 0.560098,-0.544454 h 3.360591 c 0.309168,0 0.560099,0.243923 0.560099,0.544454 z M 9.1060301,0.18618693 h -4.480788 c -0.6191914,0 -1.120197,0.48701185 -1.120197,1.08890857 v 4.3556339 c 0,0.6018965 0.5010056,1.0889083 1.120197,1.0889083 h 4.480788 c 0.6191915,0 1.1201969,-0.4870118 1.1201969,-1.0889083 V 1.2750955 c 0,-0.60189672 -0.5018619,-1.08890857 -1.1201969,-1.08890857 z m 0,4.90008817 c 0,0.3005321 -0.250931,0.5444543 -0.5600985,0.5444543 H 5.1844842 c -0.3091675,0 -0.5600985,-0.2430898 -0.5600985,-0.5444543 V 1.8195497 c 0,-0.3005321 0.2500745,-0.5444542 0.5600985,-0.5444542 h 3.360591 c 0.3091675,0 0.5600985,0.2430897 0.5600985,0.5444542 V 5.0862751 Z M 18.067606,0.18618693 h -4.480788 c -0.619192,0 -1.120197,0.48701185 -1.120197,1.08890857 v 4.3556339 c 0,0.6018965 0.501005,1.0889083 1.120197,1.0889083 h 4.480788 c 0.618335,0 1.120197,-0.4870118 1.120197,-1.0889083 V 1.2750955 c 0,-0.60189672 -0.501862,-1.08890857 -1.120197,-1.08890857 z m 0,4.90008817 c 0,0.3005321 -0.250931,0.5444543 -0.560099,0.5444543 h -3.360591 c -0.309167,0 -0.560098,-0.2430898 -0.560098,-0.5444543 V 1.8195497 c 0,-0.3005321 0.250931,-0.5444542 0.560098,-0.5444542 h 3.360591 c 0.309168,0 0.560099,0.2430897 0.560099,0.5444542 z"
     id="path2"
     style="stroke-width:0.844375" />
  <text
     xml:space="preserve"
     style="font-style:normal;font-weight:normal;font-size:8px;line-height:1.25;font-family:sans-serif;fill:#000000;fill-opacity:1;stroke:none"
     x="1.6276261"
     y="21.972954"
     id="text408"><tspan
       sodipodi:role="line"
       id="tspan406"
       x="1.6276261"
       y="21.972954">View</tspan></text>
</svg>
