<svg width="24" height="24" viewBox="0 0 24 24" xmlns="http://www.w3.org/2000/svg">
	<path fill-rule="evenodd" clip-rule="evenodd" d="M8.25 3H4.5C3.67157 3 3 3.67157 3 4.5V8.25C3 9.07843 3.67157 9.75 4.5 9.75H8.25C9.07843 9.75 9.75 9.07843 9.75 8.25V4.5C9.75 3.67157 9.07843 3 8.25 3ZM4.5 1.5C2.84315 1.5 1.5 2.84315 1.5 4.5V8.25C1.5 9.90685 2.84315 11.25 4.5 11.25H8.25C9.90685 11.25 11.25 9.90685 11.25 8.25V4.5C11.25 2.84315 9.90685 1.5 8.25 1.5H4.5Z" />
	<path fill-rule="evenodd" clip-rule="evenodd" d="M19.5 3H15.75C14.9216 3 14.25 3.67157 14.25 4.5V8.25C14.25 9.07843 14.9216 9.75 15.75 9.75H19.5C20.3284 9.75 21 9.07843 21 8.25V4.5C21 3.67157 20.3284 3 19.5 3ZM15.75 1.5C14.0931 1.5 12.75 2.84315 12.75 4.5V8.25C12.75 9.90685 14.0931 11.25 15.75 11.25H19.5C21.1569 11.25 22.5 9.90685 22.5 8.25V4.5C22.5 2.84315 21.1569 1.5 19.5 1.5H15.75Z" />
	<path fill-rule="evenodd" clip-rule="evenodd" d="M8.25 14.25H4.5C3.67157 14.25 3 14.9216 3 15.75V19.5C3 20.3284 3.67157 21 4.5 21H8.25C9.07843 21 9.75 20.3284 9.75 19.5V15.75C9.75 14.9216 9.07843 14.25 8.25 14.25ZM4.5 12.75C2.84315 12.75 1.5 14.0931 1.5 15.75V19.5C1.5 21.1569 2.84315 22.5 4.5 22.5H8.25C9.90685 22.5 11.25 21.1569 11.25 19.5V15.75C11.25 14.0931 9.90685 12.75 8.25 12.75H4.5Z" />
	<path fill-rule="evenodd" clip-rule="evenodd" d="M19.5 14.25H15.75C14.9216 14.25 14.25 14.9216 14.25 15.75V19.5C14.25 20.3284 14.9216 21 15.75 21H19.5C20.3284 21 21 20.3284 21 19.5V15.75C21 14.9216 20.3284 14.25 19.5 14.25ZM15.75 12.75C14.0931 12.75 12.75 14.0931 12.75 15.75V19.5C12.75 21.1569 14.0931 22.5 15.75 22.5H19.5C21.1569 22.5 22.5 21.1569 22.5 19.5V15.75C22.5 14.0931 21.1569 12.75 19.5 12.75H15.75Z" />
</svg>
