<svg width="23" height="22" viewBox="0 0 23 22" fill="none" xmlns="http://www.w3.org/2000/svg">
<path fill-rule="evenodd" clip-rule="evenodd" d="M3.86667 8.24998V3.66665H8.45V8.24998H3.86667ZM2.03333 2.74998C2.03333 2.24372 2.44374 1.83331 2.95 1.83331H9.36667C9.87293 1.83331 10.2833 2.24372 10.2833 2.74998V9.16665C10.2833 9.67291 9.87293 10.0833 9.36667 10.0833H2.95C2.44374 10.0833 2.03333 9.67291 2.03333 9.16665V2.74998ZM13.95 8.24998V3.66665H18.5333V8.24998H13.95ZM12.1167 2.74998C12.1167 2.24372 12.5271 1.83331 13.0333 1.83331H19.45C19.9563 1.83331 20.3667 2.24372 20.3667 2.74998V9.16665C20.3667 9.67291 19.9563 10.0833 19.45 10.0833H13.0333C12.5271 10.0833 12.1167 9.67291 12.1167 9.16665V2.74998ZM3.86667 13.75V18.3333H8.45V13.75H3.86667ZM2.95 11.9166C2.44374 11.9166 2.03333 12.3271 2.03333 12.8333V19.25C2.03333 19.7562 2.44374 20.1666 2.95 20.1666H9.36667C9.87293 20.1666 10.2833 19.7562 10.2833 19.25V12.8333C10.2833 12.3271 9.87293 11.9166 9.36667 11.9166H2.95ZM13.95 18.3333V13.75H18.5333V18.3333H13.95ZM12.1167 12.8333C12.1167 12.3271 12.5271 11.9166 13.0333 11.9166H19.45C19.9563 11.9166 20.3667 12.3271 20.3667 12.8333V19.25C20.3667 19.7562 19.9563 20.1666 19.45 20.1666H13.0333C12.5271 20.1666 12.1167 19.7562 12.1167 19.25V12.8333Z" fill="white"/>
</svg>
