<?xml version="1.0" encoding="UTF-8" standalone="no"?>
<svg
   viewBox="0 0 40 40"
   version="1.1"
   id="svg4"
   sodipodi:docname="tiles-many.svg"
   inkscape:version="1.1.1 (c3084ef, 2021-09-22)"
   width="40"
   height="40"
   xmlns:inkscape="http://www.inkscape.org/namespaces/inkscape"
   xmlns:sodipodi="http://sodipodi.sourceforge.net/DTD/sodipodi-0.dtd"
   xmlns="http://www.w3.org/2000/svg"
   xmlns:svg="http://www.w3.org/2000/svg">
  <defs
     id="defs8" />
  <sodipodi:namedview
     id="namedview6"
     pagecolor="#ffffff"
     bordercolor="#666666"
     borderopacity="1.0"
     inkscape:pageshadow="2"
     inkscape:pageopacity="0.0"
     inkscape:pagecheckerboard="0"
     showgrid="false"
     inkscape:zoom="11.295455"
     inkscape:cx="24.301811"
     inkscape:cy="16.688129"
     inkscape:window-width="1078"
     inkscape:window-height="725"
     inkscape:window-x="76"
     inkscape:window-y="23"
     inkscape:window-maximized="0"
     inkscape:current-layer="svg4"
     width="40px" />
  <path
     d="M 15.998816,14.94255 H 7.7744229 c -1.1365129,0 -2.0560982,0.817856 -2.0560982,1.823805 v 7.289651 c 0,1.005947 0.9195853,1.822412 2.0560982,1.822412 h 8.2243931 c 1.136512,0 2.056098,-0.816465 2.056098,-1.822412 v -7.289651 c 0,-1.005949 -0.921158,-1.823805 -2.056098,-1.823805 z m 0,8.202249 c 0,0.502976 -0.460579,0.911207 -1.02805,0.911207 H 8.8009001 c -0.5674705,0 -1.0280491,-0.408231 -1.0280491,-0.911207 V 17.67756 c 0,-0.502973 0.4590065,-0.911205 1.0280491,-0.911205 h 6.1682949 c 0.56747,0 1.028048,0.408232 1.028048,0.911205 v 5.467239 z M 32.447601,14.94255 h -8.224393 c -1.136514,0 -2.056098,0.817856 -2.056098,1.823805 v 7.289651 c 0,1.005947 0.919584,1.822412 2.056098,1.822412 h 8.224393 c 1.134941,0 2.056098,-0.816465 2.056098,-1.822412 v -7.289651 c 0,-1.005949 -0.921157,-1.823805 -2.056098,-1.823805 z m 0,8.202249 c 0,0.502976 -0.460579,0.911207 -1.02805,0.911207 h -6.168294 c -0.56747,0 -1.028049,-0.408231 -1.028049,-0.911207 V 17.67756 c 0,-0.502973 0.460579,-0.911205 1.028049,-0.911205 h 6.168294 c 0.567471,0 1.02805,0.408232 1.02805,0.911205 z M 15.998816,0.36324932 H 7.7744229 c -1.1365129,0 -2.0560982,0.81506998 -2.0560982,1.82241268 v 7.2896499 c 0,1.0073431 0.9195853,1.8224121 2.0560982,1.8224121 h 8.2243931 c 1.136512,0 2.056098,-0.815069 2.056098,-1.8224121 V 2.185662 c 0,-1.0073427 -0.921158,-1.82241268 -2.056098,-1.82241268 z m 0,8.20085648 c 0,0.5029749 -0.460579,0.9112061 -1.02805,0.9112061 H 8.8009001 c -0.5674705,0 -1.0280491,-0.4068382 -1.0280491,-0.9112061 V 3.0968684 c 0,-0.5029749 0.4590065,-0.9112064 1.0280491,-0.9112064 h 6.1682949 c 0.56747,0 1.028048,0.4068385 1.028048,0.9112064 V 8.5641058 Z M 32.447601,0.36324932 h -8.224393 c -1.136514,0 -2.056098,0.81506998 -2.056098,1.82241268 v 7.2896499 c 0,1.0073431 0.919584,1.8224121 2.056098,1.8224121 h 8.224393 c 1.134941,0 2.056098,-0.815069 2.056098,-1.8224121 V 2.185662 c 0,-1.0073427 -0.921157,-1.82241268 -2.056098,-1.82241268 z m 0,8.20085648 c 0,0.5029749 -0.460579,0.9112061 -1.02805,0.9112061 h -6.168294 c -0.56747,0 -1.028049,-0.4068382 -1.028049,-0.9112061 V 3.0968684 c 0,-0.5029749 0.460579,-0.9112064 1.028049,-0.9112064 h 6.168294 c 0.567471,0 1.02805,0.4068385 1.02805,0.9112064 z"
     id="path2"
     style="stroke-width:1.47992" />
  <text
     xml:space="preserve"
     style="font-style:normal;font-weight:normal;font-size:10.6667px;line-height:1.25;font-family:sans-serif;fill:#000000;fill-opacity:1;stroke:none"
     x="3.8409057"
     y="39.767723"
     id="text408"><tspan
       sodipodi:role="line"
       id="tspan406"
       x="3.8409057"
       y="39.767723"
       style="font-style:normal;font-variant:normal;font-weight:bold;font-stretch:normal;font-size:10.6667px;font-family:sans-serif;-inkscape-font-specification:'sans-serif Bold'">VIEW</tspan></text>
</svg>
