<?xml version="1.0" encoding="UTF-8" standalone="no"?>
<svg
   viewBox="0 0 22 22"
   version="1.1"
   id="svg4"
   sodipodi:docname="tiles-many.svg"
   inkscape:version="1.1.1 (c3084ef, 2021-09-22)"
   xmlns:inkscape="http://www.inkscape.org/namespaces/inkscape"
   xmlns:sodipodi="http://sodipodi.sourceforge.net/DTD/sodipodi-0.dtd"
   xmlns="http://www.w3.org/2000/svg"
   xmlns:svg="http://www.w3.org/2000/svg">
  <defs
     id="defs8" />
  <sodipodi:namedview
     id="namedview6"
     pagecolor="#ffffff"
     bordercolor="#666666"
     borderopacity="1.0"
     inkscape:pageshadow="2"
     inkscape:pageopacity="0.0"
     inkscape:pagecheckerboard="0"
     showgrid="false"
     inkscape:zoom="15.974185"
     inkscape:cx="22.066853"
     inkscape:cy="11.675087"
     inkscape:window-width="1078"
     inkscape:window-height="725"
     inkscape:window-x="159"
     inkscape:window-y="23"
     inkscape:window-maximized="0"
     inkscape:current-layer="svg4" />
  <path
     d="m 9.0166001,9.3088171 h -4.659648 c -0.6439077,0 -1.164912,0.5047297 -1.164912,1.1255379 v 4.498715 c 0,0.620808 0.5210043,1.124678 1.164912,1.124678 h 4.659648 c 0.6439078,0 1.1649119,-0.50387 1.1649119,-1.124678 v -4.498715 c 0,-0.6208082 -0.5218948,-1.1255379 -1.1649119,-1.1255379 z m 0,5.0619129 c 0,0.310405 -0.2609474,0.56234 -0.582456,0.56234 H 4.9385175 c -0.3215086,0 -0.582456,-0.251935 -0.582456,-0.56234 v -3.374036 c 0,-0.310404 0.2600568,-0.562339 0.582456,-0.562339 h 3.494736 c 0.3215086,0 0.582456,0.251935 0.582456,0.562339 V 14.37073 Z M 18.335896,9.3088171 h -4.659648 c -0.643908,0 -1.164912,0.5047297 -1.164912,1.1255379 v 4.498715 c 0,0.620808 0.521004,1.124678 1.164912,1.124678 h 4.659648 c 0.643017,0 1.164912,-0.50387 1.164912,-1.124678 v -4.498715 c 0,-0.6208082 -0.521895,-1.1255379 -1.164912,-1.1255379 z m 0,5.0619129 c 0,0.310405 -0.260947,0.56234 -0.582457,0.56234 h -3.494735 c -0.321509,0 -0.582456,-0.251935 -0.582456,-0.56234 v -3.374036 c 0,-0.310404 0.260947,-0.562339 0.582456,-0.562339 h 3.494735 c 0.32151,0 0.582457,0.251935 0.582457,0.562339 z M 9.0166001,0.31138894 h -4.659648 c -0.6439077,0 -1.164912,0.50300992 -1.164912,1.12467856 v 4.4987141 c 0,0.6216685 0.5210043,1.1246784 1.164912,1.1246784 h 4.659648 c 0.6439078,0 1.1649119,-0.5030099 1.1649119,-1.1246784 V 1.4360675 c 0,-0.62166864 -0.5218948,-1.12467856 -1.1649119,-1.12467856 z m 0,5.06105336 c 0,0.3104044 -0.2609474,0.5623393 -0.582456,0.5623393 H 4.9385175 c -0.3215086,0 -0.582456,-0.2510751 -0.582456,-0.5623393 V 1.9984068 c 0,-0.3104045 0.2600568,-0.5623393 0.582456,-0.5623393 h 3.494736 c 0.3215086,0 0.582456,0.2510751 0.582456,0.5623393 V 5.3724423 Z M 18.335896,0.31138894 h -4.659648 c -0.643908,0 -1.164912,0.50300992 -1.164912,1.12467856 v 4.4987141 c 0,0.6216685 0.521004,1.1246784 1.164912,1.1246784 h 4.659648 c 0.643017,0 1.164912,-0.5030099 1.164912,-1.1246784 V 1.4360675 c 0,-0.62166864 -0.521895,-1.12467856 -1.164912,-1.12467856 z m 0,5.06105336 c 0,0.3104044 -0.260947,0.5623393 -0.582457,0.5623393 h -3.494735 c -0.321509,0 -0.582456,-0.2510751 -0.582456,-0.5623393 V 1.9984068 c 0,-0.3104045 0.260947,-0.5623393 0.582456,-0.5623393 h 3.494735 c 0.32151,0 0.582457,0.2510751 0.582457,0.5623393 z"
     id="path2"
     style="stroke-width:0.875091" />
  <text
     xml:space="preserve"
     style="font-style:normal;font-weight:normal;font-size:6.66667px;line-height:1.25;font-family:sans-serif;fill:#000000;fill-opacity:1;stroke:none"
     x="3.1300502"
     y="21.910353"
     id="text408"><tspan
       sodipodi:role="line"
       id="tspan406"
       x="3.1300502"
       y="21.910353">View</tspan></text>
</svg>
