<svg id="Group_1260" data-name="Group 1260" xmlns="http://www.w3.org/2000/svg" width="36" height="36" viewBox="0 0 36 36">
    <circle id="Ellipse_3" data-name="Ellipse 3" cx="18" cy="18" r="18" fill="#2a9cff" opacity="0.66"/>
    <g id="Icon_Heart" data-name="Icon/Heart" transform="translate(5.455 9)">
        <path id="Shield" d="M12.375,19.8a.871.871,0,0,1-.621-.259L.261,8.016A.912.912,0,0,1,.105,6.952L3.563.47A.88.88,0,0,1,4.339,0H20.411a.88.88,0,0,1,.777.47l3.457,6.482a.91.91,0,0,1-.157,1.064L13,19.543A.871.871,0,0,1,12.375,19.8ZM5.085,2.122,2.4,7.157l9.974,10,9.976-10L19.663,2.122Zm6.824,13.861-.031,0a.251.251,0,0,1-.219-.2l0-.079.6-4.826a.249.249,0,0,0-.176-.234L12,10.633l-4.312.015a.266.266,0,0,1-.148-.045.245.245,0,0,1-.1-.274l.036-.071L13.008,2.65a.255.255,0,0,1,.207-.1l.038,0a.251.251,0,0,1,.213.2V2.83l-.732,4.751,0,.037a.249.249,0,0,0,.174.234l.081.011,4.11-.009a.26.26,0,0,1,.14.041.242.242,0,0,1,.106.27l-.033.073-5.191,7.634A.255.255,0,0,1,11.909,15.983Z" transform="translate(0 0)" fill="#fff"/>
    </g>
</svg>
