<svg width="20" height="20" viewBox="0 0 20 20" fill="none" xmlns="http://www.w3.org/2000/svg">
  <path d="M7.5 10H12.5C13.3284 10 14 10.6716 14 11.5C14 12.3284 13.3284 13 12.5 13H7.5C6.67157 13 6 12.3284 6 11.5C6 10.6716 6.67157 10 7.5 10Z" fill="currentColor"/>
  <path d="M4 4C2.89543 4 2 4.89543 2 6V14C2 15.1046 2.89543 16 4 16H7.1L9.5 18.5L11.9 16H16C17.1046 16 18 15.1046 18 14V6C18 4.89543 17.1046 4 16 4H4ZM4 6H16V14H11.5L9.5 16.2L7.5 14H4V6Z" fill="currentColor"/>
  <path d="M8 7.5C8 7.22386 8.22386 7 8.5 7H11.5C11.7761 7 12 7.22386 12 7.5C12 7.77614 11.7761 8 11.5 8H8.5C8.22386 8 8 7.77614 8 7.5Z" fill="currentColor"/>
</svg>