<svg width="20" height="20" viewBox="0 0 20 20" xmlns="http://www.w3.org/2000/svg">
<path fill-rule="evenodd" clip-rule="evenodd" d="M16.6665 1.66663H6.6665C5.74603 1.66663 4.99984 2.41282 4.99984 3.33329V4.99996H3.33317C2.4127 4.99996 1.6665 5.74615 1.6665 6.66663V16.6666C1.6665 17.5871 2.4127 18.3333 3.33317 18.3333H13.3332C14.2536 18.3333 14.9998 17.5871 14.9998 16.6666V15H16.6665C17.587 15 18.3332 14.2538 18.3332 13.3333V3.33329C18.3332 2.41282 17.587 1.66663 16.6665 1.66663ZM13.3332 16.6666V15H6.6665C5.74603 15 4.99984 14.2538 4.99984 13.3333V6.66663H3.33317V16.6666H13.3332ZM6.6665 3.33329V13.3333H16.6665V3.33329H6.6665ZM9.99984 4.99996C9.5396 4.99996 9.1665 5.37306 9.1665 5.83329C9.1665 6.29353 9.5396 6.66663 9.99984 6.66663H12.1023L8.5881 10.1808C8.24819 10.5207 8.24819 11.0718 8.5881 11.4117C8.928 11.7516 9.4791 11.7516 9.819 11.4117L13.3332 7.89753V9.99996C13.3332 10.4602 13.7063 10.8333 14.1665 10.8333C14.6267 10.8333 14.9998 10.4602 14.9998 9.99996V5.83329C14.9998 5.37306 14.6267 4.99996 14.1665 4.99996H14.1295H9.99984Z" />
</svg>
