<svg width="20" height="20" viewBox="0 0 20 20" fill="none" xmlns="http://www.w3.org/2000/svg">
<path fill-rule="evenodd" clip-rule="evenodd" d="M8.36765 7.1488L8.36029 7.16248L3.11269 1.91488C2.78182 1.58401 2.24545 1.58392 1.91468 1.91469C1.58391 2.24546 1.58399 2.78183 1.91487 3.1127L7.01977 8.21761L6.422 8.48932L5.98005 8.04738C5.32918 7.39651 4.27391 7.39651 3.62303 8.04738L3.03378 8.63664C2.3829 9.28751 2.3829 10.3428 3.03378 10.9937L4.97614 12.936L1.79345 17.2257C1.60327 17.4821 1.62957 17.839 1.85526 18.0647C2.08096 18.2904 2.43793 18.3167 2.69427 18.1265L6.98397 14.9439L8.92633 16.8862C9.57721 17.5371 10.6325 17.5371 11.2834 16.8862L11.8726 16.297C12.5235 15.6461 12.5235 14.5908 11.8726 13.9399L11.578 13.6453L11.904 13.1019L16.8873 18.0851C17.2182 18.416 17.7545 18.4161 18.0853 18.0853C18.4161 17.7545 18.416 17.2182 18.0851 16.8873L13.0067 11.8089L13.0194 11.8005L11.8177 10.5988C11.8135 10.6017 11.8093 10.6045 11.8052 10.6074L9.57425 8.37644C9.57714 8.37231 9.58001 8.36817 9.58288 8.36403L8.36765 7.1488ZM13.2549 9.6404L14.7956 8.6133L15.9974 9.81515L16.5867 9.22589L10.6941 3.33333L10.1048 3.92259L11.3352 5.15299L10.4365 6.82203L9.20613 5.59163L9.27989 5.45465L8.92633 5.1011C8.27546 4.45023 8.27546 3.39495 8.92633 2.74408L9.51559 2.15482C10.1665 1.50395 11.2217 1.50395 11.8726 2.15482L17.7652 8.04738C18.416 8.69825 18.416 9.75353 17.7652 10.4044L17.1759 10.9937C16.525 11.6445 15.4698 11.6445 14.8189 10.9937L14.5832 10.758L14.4567 10.8422L13.2549 9.6404ZM9.47932 13.9037L10.6893 11.8871L8.27797 9.4758C8.25897 9.48488 8.23988 9.49378 8.22069 9.5025L6.06019 10.4845L4.80154 9.22589L4.21229 9.81515L10.1048 15.7077L10.6941 15.1184L9.47932 13.9037Z" fill="white"/>
</svg>
