<?xml version="1.0" encoding="utf-8"?>
<svg version="1.1" id="Layer_1" xmlns="http://www.w3.org/2000/svg"
     x="0px" y="0px" viewBox="0 0 122.88 119.72"
     style="enable-background:new 0 0 122.88 119.72" xml:space="preserve"><g><path d="M22.72,0h77.45c6.25,0,11.93,2.56,16.05,6.67c4.11,4.11,6.67,9.79,6.67,16.05v74.29c0,6.25-2.56,11.93-6.67,16.05 l-0.32,0.29c-4.09,3.94-9.64,6.38-15.73,6.38H22.72c-6.25,0-11.93-2.56-16.05-6.67l-0.3-0.32C2.43,108.64,0,103.09,0,97.01V22.71 c0-6.25,2.55-11.93,6.67-16.05C10.78,2.55,16.46,0,22.72,0L22.72,0z M75.83,73.05L75.83,73.05c-3.28-3.26-5.54-5.99-7.79-8.72 c-1.95-2.35-3.9-4.72-6.52-7.41L46.03,73.77c-0.1,0.11-0.22,0.2-0.36,0.27c-1.06,0.54-2.25,0.73-3.4,0.55 c-1.12-0.17-2.2-0.68-3.07-1.54c-1.09-1.07-1.65-2.5-1.66-3.92c-0.01-1.44,0.52-2.87,1.6-3.97c5.83-6.43,12.07-13.94,18.11-19.99 c1.24-1.23,2.69-1.84,4.15-1.83c1.44,0.01,2.85,0.6,4.05,1.76c5.34,4.94,13.32,14.33,18.28,20.06c1.06,1.08,1.6,2.49,1.6,3.9 c0,1.39-0.51,2.78-1.53,3.86l-0.1,0.1c-1.08,1.08-2.51,1.63-3.94,1.63c-1.39,0-2.78-0.51-3.86-1.54L75.83,73.05L75.83,73.05z M100.16,10.24H22.72c-3.43,0-6.54,1.41-8.81,3.67c-2.26,2.26-3.67,5.38-3.67,8.81v74.29c0,3.33,1.31,6.35,3.43,8.59l0.24,0.22 c2.26,2.26,5.38,3.67,8.81,3.67h77.45c3.32,0,6.35-1.31,8.59-3.44l0.21-0.23c2.26-2.26,3.67-5.38,3.67-8.81V22.71 c0-3.42-1.41-6.54-3.67-8.81C106.71,11.65,103.59,10.24,100.16,10.24L100.16,10.24z"/></g></svg>
