<svg width="24" height="24" viewBox="0 0 24 24" xmlns="http://www.w3.org/2000/svg">
    <path fill-rule="evenodd" clip-rule="evenodd" d="M16.5 9C18.5711 9 20.25 7.32107 20.25 5.25C20.25 3.17893 18.5711 1.5 16.5 1.5C14.4289 1.5 12.75 3.17893 12.75 5.25C12.75 7.32107 14.4289 9 16.5 9ZM16.5 7.5C17.7426 7.5 18.75 6.49264 18.75 5.25C18.75 4.00736 17.7426 3 16.5 3C15.2574 3 14.25 4.00736 14.25 5.25C14.25 6.49264 15.2574 7.5 16.5 7.5Z" />
    <path d="M16.5 18C19.8137 18 22.5 16.3211 22.5 14.25C22.5 12.1789 19.8137 10.5 16.5 10.5C15.0811 10.5 13.7772 10.8078 12.75 11.3225V13.0792C12.8404 13.0098 12.9409 12.94 13.0524 12.8703C13.8643 12.3629 15.0793 12 16.5 12C17.9207 12 19.1357 12.3629 19.9476 12.8703C20.7807 13.391 21 13.9183 21 14.25C21 14.5817 20.7807 15.109 19.9476 15.6297C19.1357 16.1371 17.9207 16.5 16.5 16.5C16.2429 16.5 15.9925 16.4881 15.75 16.4656V17.971C15.9957 17.9901 16.246 18 16.5 18Z" />
    <path fill-rule="evenodd" clip-rule="evenodd" d="M7.5 13.5C9.57107 13.5 11.25 11.8211 11.25 9.75C11.25 7.67893 9.57107 6 7.5 6C5.42893 6 3.75 7.67893 3.75 9.75C3.75 11.8211 5.42893 13.5 7.5 13.5ZM7.5 12C8.74264 12 9.75 10.9926 9.75 9.75C9.75 8.50736 8.74264 7.5 7.5 7.5C6.25736 7.5 5.25 8.50736 5.25 9.75C5.25 10.9926 6.25736 12 7.5 12Z" />
    <path fill-rule="evenodd" clip-rule="evenodd" d="M7.5 22.5C10.8137 22.5 13.5 20.8211 13.5 18.75C13.5 16.6789 10.8137 15 7.5 15C4.18629 15 1.5 16.6789 1.5 18.75C1.5 20.8211 4.18629 22.5 7.5 22.5ZM10.9476 20.1297C11.7807 19.609 12 19.0817 12 18.75C12 18.4183 11.7807 17.891 10.9476 17.3703C10.1357 16.8629 8.9207 16.5 7.5 16.5C6.0793 16.5 4.86428 16.8629 4.05236 17.3703C3.21929 17.891 3 18.4183 3 18.75C3 19.0817 3.21929 19.609 4.05236 20.1297C4.86428 20.6371 6.0793 21 7.5 21C8.9207 21 10.1357 20.6371 10.9476 20.1297Z" />
</svg>
