<svg width="22" height="22" viewBox="0 0 22 22" xmlns="http://www.w3.org/2000/svg">
<path fill-rule="evenodd" clip-rule="evenodd" d="M12.8334 6.41667C12.8334 7.42919 12.0125 8.25 11 8.25C9.9875 8.25 9.16669 7.42919 9.16669 6.41667C9.16669 5.40414 9.9875 4.58333 11 4.58333C12.0125 4.58333 12.8334 5.40414 12.8334 6.41667ZM7.33335 6.41667C7.33335 8.44171 8.97498 10.0833 11 10.0833C13.0251 10.0833 14.6667 8.44171 14.6667 6.41667C14.6667 4.39162 13.0251 2.75 11 2.75C8.97498 2.75 7.33335 4.39162 7.33335 6.41667ZM11 11C5.48749 11 3.66669 13.0625 3.66669 17.1875C3.66669 18.5625 4.2778 19.25 5.50002 19.25H13.528C14.268 20.3555 15.5282 21.0833 16.9584 21.0833C19.2365 21.0833 21.0834 19.2365 21.0834 16.9583C21.0834 14.7016 19.2712 12.8682 17.0226 12.8338C15.908 11.6113 14.0011 11 11 11ZM14.8169 13.432C13.9668 13.0083 12.7365 12.8333 11 12.8333C6.69382 12.8333 5.50002 13.9092 5.50002 17.1875C5.50002 17.2876 5.50347 17.363 5.50637 17.4167H12.8585C12.8419 17.2662 12.8334 17.1133 12.8334 16.9583C12.8334 15.4643 13.6276 14.1558 14.8169 13.432ZM17.4167 16.5H19.25V17.4167H17.4167V19.25H16.5V17.4167H14.6667V16.5H16.5V14.6667H17.4167V16.5Z"/>
</svg>
