<svg width="24" height="24" viewBox="0 0 24 24" fill="none" xmlns="http://www.w3.org/2000/svg">
<path fill-rule="evenodd" clip-rule="evenodd" d="M14 7C14 8.10457 13.1046 9 12 9C10.8954 9 10 8.10457 10 7C10 5.89543 10.8954 5 12 5C13.1046 5 14 5.89543 14 7ZM8 7C8 9.20914 9.79086 11 12 11C14.2091 11 16 9.20914 16 7C16 4.79086 14.2091 3 12 3C9.79086 3 8 4.79086 8 7ZM12 12C5.98633 12 4 14.25 4 18.75C4 20.25 4.66667 21 6 21H14.7578C15.565 22.206 16.9398 23 18.5 23C20.9853 23 23 20.9853 23 18.5C23 16.0381 21.0231 14.038 18.5701 14.0005C17.3541 12.6668 15.2739 12 12 12ZM16.1639 14.6531C15.2365 14.1909 13.8943 14 12 14C7.30232 14 6 15.1737 6 18.75C6 18.8592 6.00376 18.9414 6.00693 19H14.0275C14.0093 18.8358 14 18.669 14 18.5C14 16.8702 14.8665 15.4427 16.1639 14.6531ZM19 18H21V19H19V21H18V19H16V18H18V16H19V18Z" fill="white"/>
</svg>
