<svg width="24" height="24" viewBox="0 0 24 24" xmlns="http://www.w3.org/2000/svg">
    <path fill-rule="evenodd" clip-rule="evenodd" d="M22.5302 1.46967C22.8231 1.76256 22.8231 2.23744 22.5302 2.53033L19.5606 5.5L22.5303 8.46969C22.8232 8.76258 22.8232 9.23746 22.5303 9.53035C22.2374 9.82324 21.7625 9.82324 21.4696 9.53035L18.4999 6.56066L15.5303 9.53024C15.2374 9.82313 14.7626 9.82313 14.4697 9.53024C14.1768 9.23734 14.1768 8.76247 14.4697 8.46958L17.4392 5.5L14.4697 2.53044C14.1768 2.23755 14.1768 1.76268 14.4697 1.46978C14.7626 1.17689 15.2375 1.17689 15.5303 1.46978L18.4999 4.43934L21.4696 1.46967C21.7625 1.17678 22.2373 1.17678 22.5302 1.46967ZM7.5 13.5C9.57107 13.5 11.25 11.8211 11.25 9.75C11.25 7.67893 9.57107 6 7.5 6C5.42893 6 3.75 7.67893 3.75 9.75C3.75 11.8211 5.42893 13.5 7.5 13.5ZM7.5 12C8.74264 12 9.75 10.9926 9.75 9.75C9.75 8.50736 8.74264 7.5 7.5 7.5C6.25736 7.5 5.25 8.50736 5.25 9.75C5.25 10.9926 6.25736 12 7.5 12ZM7.5 22.5C10.8137 22.5 13.5 20.8211 13.5 18.75C13.5 16.6789 10.8137 15 7.5 15C4.18629 15 1.5 16.6789 1.5 18.75C1.5 20.8211 4.18629 22.5 7.5 22.5ZM10.9476 20.1297C11.7807 19.609 12 19.0817 12 18.75C12 18.4183 11.7807 17.891 10.9476 17.3703C10.1357 16.8629 8.9207 16.5 7.5 16.5C6.0793 16.5 4.86428 16.8629 4.05236 17.3703C3.21929 17.891 3 18.4183 3 18.75C3 19.0817 3.21929 19.609 4.05236 20.1297C4.86428 20.6371 6.0793 21 7.5 21C8.9207 21 10.1357 20.6371 10.9476 20.1297Z" />
</svg>
