<svg width="24" height="24" viewBox="0 0 24 24" xmlns="http://www.w3.org/2000/svg">
    <path fill-rule="evenodd" clip-rule="evenodd" d="M16.5 6.75C16.5 9.23528 14.4853 11.25 12 11.25C9.51472 11.25 7.5 9.23528 7.5 6.75C7.5 4.26472 9.51472 2.25 12 2.25C14.4853 2.25 16.5 4.26472 16.5 6.75ZM15 6.75C15 8.40685 13.6569 9.75 12 9.75C10.3431 9.75 9 8.40685 9 6.75C9 5.09315 10.3431 3.75 12 3.75C13.6569 3.75 15 5.09315 15 6.75Z" />
    <path fill-rule="evenodd" clip-rule="evenodd" d="M19.5 17.25C19.5 19.7353 16.1421 21.75 12 21.75C7.85786 21.75 4.5 19.7353 4.5 17.25C4.5 14.7647 7.85786 12.75 12 12.75C16.1421 12.75 19.5 14.7647 19.5 17.25ZM18 17.25C18 17.7588 17.6485 18.4756 16.5316 19.1457C15.4445 19.798 13.8459 20.25 12 20.25C10.1541 20.25 8.55549 19.798 7.46844 19.1457C6.35154 18.4756 6 17.7588 6 17.25C6 16.7412 6.35154 16.0244 7.46844 15.3543C8.55549 14.702 10.1541 14.25 12 14.25C13.8459 14.25 15.4445 14.702 16.5316 15.3543C17.6485 16.0244 18 16.7412 18 17.25Z" />
</svg>
