<svg width="24" height="24" viewBox="0 0 24 24" xmlns="http://www.w3.org/2000/svg">
    <path fill-rule="evenodd" clip-rule="evenodd" d="M20.7803 3.21967C21.0732 3.51256 21.0732 3.98744 20.7803 4.28033L17.4095 7.65114L17.4149 7.64696L15.75 9.3119V9.31066L7.06066 18H7.0619L5.5619 19.5H5.56066L4.28033 20.7803C3.98744 21.0732 3.51256 21.0732 3.21967 20.7803C2.92678 20.4874 2.92678 20.0126 3.21967 19.7197L3.5823 19.357C2.37432 18.9693 1.5 17.8368 1.5 16.5V7.5C1.5 5.84315 2.84315 4.5 4.5 4.5H14.25C15.3842 4.5 16.3714 5.12941 16.8813 6.05799L19.7197 3.21967C20.0126 2.92678 20.4874 2.92678 20.7803 3.21967ZM15.7232 7.21616C15.5905 6.52345 14.9814 6 14.25 6H4.5C3.67157 6 3 6.67157 3 7.5V16.5C3 17.3284 3.67157 18 4.5 18H4.93934L15.7232 7.21616Z" />
    <path d="M21 6.75C21 6.33579 21.3358 6 21.75 6C22.1642 6 22.5 6.33579 22.5 6.75V17.2242C22.5 18.4697 21.0699 19.1726 20.0838 18.4119L17.25 16.2258V16.5C17.25 18.1569 15.9069 19.5 14.25 19.5H9C8.58579 19.5 8.25 19.1642 8.25 18.75C8.25 18.3358 8.58579 18 9 18H14.25C15.0784 18 15.75 17.3284 15.75 16.5V12C15.75 11.5858 16.0858 11.25 16.5 11.25C16.9142 11.25 17.25 11.5858 17.25 12V14.3313L21 17.2242V6.75Z" />
</svg>
