<svg width="20" height="20" viewBox="0 0 20 20" xmlns="http://www.w3.org/2000/svg">
<path fill-rule="evenodd" clip-rule="evenodd" d="M6.21892 4.99996H6.19791L3.11278 1.91484C2.78191 1.58396 2.24554 1.58388 1.91477 1.91465C1.584 2.24542 1.58409 2.78179 1.91496 3.11266L3.80226 4.99996H3.33341C2.41294 4.99996 1.66675 5.74615 1.66675 6.66663V13.3333C1.66675 14.2538 2.41294 15 3.33341 15H12.5001C12.8673 15 13.2068 14.8812 13.4823 14.68L16.8874 18.0851C17.2183 18.416 17.7546 18.416 18.0854 18.0853C18.4162 17.7545 18.4161 17.2181 18.0852 16.8873L14.1667 12.9688V12.9478L12.5001 11.2811V11.3021L7.86457 6.66663H7.88559L6.21892 4.99996ZM12.5001 8.88547V8.33329V6.66663H10.2812L8.61457 4.99996H12.5001C13.4206 4.99996 14.1667 5.74615 14.1667 6.66663V7.38091L17.0866 5.71241C17.4862 5.48407 17.9953 5.6229 18.2236 6.02249C18.2956 6.14841 18.3334 6.29092 18.3334 6.43594V13.564C18.3334 13.8767 18.1612 14.1492 17.9064 14.2917L14.5104 10.8958L16.6667 12.128V7.87193L14.1667 9.3005V10.5521L12.5001 8.88547ZM3.33341 6.66663H5.46892L12.1356 13.3333H3.33341V6.66663Z" />
</svg>
