<?xml version="1.0" encoding="UTF-8" standalone="no"?>
<svg
   width="20"
   height="20"
   viewBox="0 0 20 20"
   version="1.1"
   id="svg12"
   sodipodi:docname="video-off.svg"
   inkscape:version="1.1.1 (c3084ef, 2021-09-22)"
   xmlns:inkscape="http://www.inkscape.org/namespaces/inkscape"
   xmlns:sodipodi="http://sodipodi.sourceforge.net/DTD/sodipodi-0.dtd"
   xmlns="http://www.w3.org/2000/svg"
   xmlns:svg="http://www.w3.org/2000/svg">
  <defs
     id="defs16" />
  <sodipodi:namedview
     id="namedview14"
     pagecolor="#ffffff"
     bordercolor="#666666"
     borderopacity="1.0"
     inkscape:pageshadow="2"
     inkscape:pageopacity="0.0"
     inkscape:pagecheckerboard="0"
     showgrid="false"
     inkscape:zoom="17.571604"
     inkscape:cx="9.0771451"
     inkscape:cy="9.1909652"
     inkscape:window-width="1280"
     inkscape:window-height="725"
     inkscape:window-x="0"
     inkscape:window-y="23"
     inkscape:window-maximized="0"
     inkscape:current-layer="svg12" />
  <path
     fill-rule="evenodd"
     clip-rule="evenodd"
     d="M 6.8465203,3.3170346 6.8268706,3.3169294 3.9569888,0.42609179 C 3.6492035,0.11604866 3.1475627,0.11328996 2.8365482,0.41991939 2.5255338,0.72654889 2.5229245,1.2264577 2.8307098,1.5364914 l 1.7556239,1.7684492 -0.438493,-0.00235 C 3.2869691,3.2979879 2.585346,3.9897187 2.5807237,4.847626 l -0.033479,6.21348 c -0.00462,0.857926 0.689506,1.557135 1.5503776,1.561741 l 8.5731667,0.04587 c 0.343425,0.0019 0.66154,-0.107188 0.920213,-0.293331 l 3.167526,3.190667 c 0.307814,0.310062 0.80939,0.312745 1.120432,0.0062 0.311042,-0.306657 0.313642,-0.806594 0.0058,-1.116563 l -3.645108,-3.671736 1.05e-4,-0.01957 -1.550321,-1.561741 -1.05e-4,0.01957 -4.312112,-4.3435555 0.019659,1.052e-4 z m 5.8549757,3.6528127 0.0028,-0.5146437 0.0083,-1.553363 -2.075231,-0.011104 -1.55035,-1.5617129 3.63395,0.019445 c 0.8609,0.0046 1.554945,0.7038055 1.550322,1.5617127 l -0.0035,0.6657241 2.739222,-1.5404655 c 0.374873,-0.2108181 0.850313,-0.078878 1.061824,0.2946912 0.0667,0.1177205 0.101343,0.2507321 0.100615,0.3858938 l -0.03579,6.643506 c -0.0016,0.291442 -0.163989,0.544557 -0.403007,0.676095 l -3.159063,-3.182048 2.010496,1.159228 0.02137,-3.9667482 -2.345305,1.3189469 -0.0063,1.1665183 z M 4.139471,4.8559666 6.1367115,4.8666536 12.33826,11.113497 4.1059925,11.069447 Z"
     id="path10"
     style="stroke-width:0.933649" />
  <text
     xml:space="preserve"
     style="font-style:normal;font-weight:normal;font-size:6.66667px;line-height:1.25;font-family:sans-serif;fill:#000000;fill-opacity:1;stroke:none"
     x="0.68292016"
     y="20.032322"
     id="text2528"><tspan
       sodipodi:role="line"
       id="tspan2526"
       x="0.68292016"
       y="20.032322"
       style="font-size:6.66667px">Video</tspan></text>
</svg>
