<svg width="24" height="24" viewBox="0 0 24 24" xmlns="http://www.w3.org/2000/svg">
    <path fill-rule="evenodd" clip-rule="evenodd" d="M17.25 16.2258V16.5C17.25 18.1569 15.9069 19.5 14.25 19.5H4.5C2.84315 19.5 1.5 18.1569 1.5 16.5V7.5C1.5 5.84315 2.84315 4.5 4.5 4.5H14.25C15.9069 4.5 17.25 5.84315 17.25 7.5V7.7742L20.0838 5.58813C21.0699 4.82739 22.5 5.53034 22.5 6.7758V17.2242C22.5 18.4697 21.0699 19.1726 20.0838 18.4119L17.25 16.2258ZM4.5 6H14.25C15.0784 6 15.75 6.67157 15.75 7.5V16.5C15.75 17.3284 15.0784 18 14.25 18H4.5C3.67157 18 3 17.3284 3 16.5V7.5C3 6.67157 3.67157 6 4.5 6ZM17.25 14.3313L21 17.2242V6.7758L17.25 9.66866V14.3313Z" />
</svg>
