<svg width="20" height="20" viewBox="0 0 20 20" fill="none" xmlns="http://www.w3.org/2000/svg">
<path fill-rule="evenodd" clip-rule="evenodd" d="M16.6666 1.66667H3.33329C2.41282 1.66667 1.66663 2.41286 1.66663 3.33334V16.6667C1.66663 17.5871 2.41282 18.3333 3.33329 18.3333H3.63257H8.56767H9.14753H15.6942H16.6666C17.5871 18.3333 18.3333 17.5871 18.3333 16.6667V3.33334C18.3333 2.41286 17.5871 1.66667 16.6666 1.66667ZM7.57977 12.3005L9.3687 14.893L12.0223 8.76728C12.2052 8.34496 12.6959 8.15091 13.1182 8.33385C13.2964 8.41106 13.4421 8.54811 13.53 8.72131L16.6666 14.9002V3.33334H3.33329V16.4665L6.208 12.3005C6.4694 11.9217 6.98838 11.8265 7.36718 12.0879C7.45035 12.1453 7.52238 12.2174 7.57977 12.3005ZM7.49996 10C6.11925 10 4.99996 8.88072 4.99996 7.5C4.99996 6.11929 6.11925 5.00001 7.49996 5.00001C8.88067 5.00001 9.99996 6.11929 9.99996 7.5C9.99996 8.88072 8.88067 10 7.49996 10ZM8.33329 7.5C8.33329 7.96024 7.9602 8.33334 7.49996 8.33334C7.03972 8.33334 6.66663 7.96024 6.66663 7.5C6.66663 7.03977 7.03972 6.66667 7.49996 6.66667C7.9602 6.66667 8.33329 7.03977 8.33329 7.5ZM12.8466 11.0572L15.6942 16.6667H10.4167L12.8466 11.0572ZM6.89389 14.2411L8.56767 16.6667H5.2201L6.89389 14.2411Z" />
</svg>
