<svg width="24" height="24" viewBox="0 0 24 24" fill="none" xmlns="http://www.w3.org/2000/svg">
<path fill-rule="evenodd" clip-rule="evenodd" d="M7.8887 6.42609L7.87494 6.43755L3.73524 2.29786C3.33819 1.9008 2.69455 1.9007 2.29763 2.29763C1.9007 2.69455 1.9008 3.33819 2.29786 3.73524L6.30688 7.74427L6 8H3C2.44772 8 2 8.44772 2 9V15C2 15.5523 2.44772 16 3 16H6L11.1799 20.3166C11.2698 20.3915 11.383 20.4325 11.5 20.4325C11.7761 20.4325 12 20.2086 12 19.9325V13.4374L14 15.4374V16C14.179 16 14.3553 15.9882 14.5281 15.9655L16.1615 17.5989C15.4909 17.8579 14.762 18 14 18V20C15.3237 20 16.5723 19.6785 17.672 19.1094L20.2648 21.7021C20.6618 22.0992 21.3055 22.0993 21.7024 21.7024C22.0993 21.3055 22.0992 20.6618 21.7021 20.2648L19.3686 17.9312C19.373 17.9272 19.3774 17.9232 19.3818 17.9192L17.9655 16.5029C17.961 16.5068 17.9565 16.5107 17.9521 16.5147L16.5332 15.0958C16.5378 15.092 16.5424 15.0882 16.547 15.0844L15.1203 13.6577C15.1153 13.6611 15.1103 13.6645 15.1052 13.6678L12 10.5626V10.5374L10 8.53739V8.56261L9.29498 7.8576L9.30874 7.84613L7.8887 6.42609ZM14 9.66261L17.7452 13.4078C17.9099 12.9699 18 12.4955 18 12C18 9.79086 16.2091 8 14 8V9.66261ZM19.248 14.9106L20.7042 16.3668C21.5237 15.1112 22 13.6112 22 12C22 7.58172 18.4183 4 14 4V6C17.3137 6 20 8.68629 20 12C20 13.0562 19.7271 14.0486 19.248 14.9106ZM12 7.66261L9.45676 5.11937L11.1799 3.68341C11.392 3.50663 11.7073 3.53529 11.8841 3.74743C11.959 3.83729 12 3.95055 12 4.06752V7.66261ZM6.7241 10L7.72692 9.16431L10 11.4374V16.7299L6.7241 14H4V10H6.7241Z" />
</svg>
