<svg width="24" height="24" viewBox="0 0 24 24" xmlns="http://www.w3.org/2000/svg">
    <path fill-rule="evenodd" clip-rule="evenodd" d="M10.956 2.46614L7.30476 6.00556C7.02491 6.27684 6.65047 6.42854 6.26071 6.42854H3C2.17157 6.42854 1.5 7.10012 1.5 7.92854V15.6428C1.5 16.4713 2.17157 17.1428 3 17.1428H6.23236C6.63888 17.1428 7.028 17.3078 7.3106 17.6001L10.9218 21.334C11.8592 22.3034 13.5 21.6397 13.5 20.2913V3.54316C13.5 2.21801 11.9074 1.54379 10.956 2.46614ZM12 3.54315L12 20.2913L8.38885 16.5573C7.82363 15.9728 7.0454 15.6428 6.23236 15.6428H3L3 7.92854H6.26071C7.04022 7.92854 7.78912 7.62513 8.34881 7.08258L12 3.54315Z" />
    <path d="M18.9755 17.4275C19.2684 17.7204 19.7464 17.7219 20.0142 17.4059C22.8511 14.059 22.8511 9.12868 20.0142 5.78184C19.7464 5.46586 19.2684 5.46734 18.9755 5.76023C18.6826 6.05312 18.6861 6.5259 18.9486 6.84626C21.2063 9.60082 21.2063 13.5869 18.9486 16.3415C18.6861 16.6618 18.6826 17.1346 18.9755 17.4275Z" />
    <path d="M16.8542 15.3062C17.1471 15.5991 17.6266 15.6014 17.8811 15.2745C19.5621 13.1156 19.5621 10.0721 17.8811 7.91319C17.6266 7.58637 17.1471 7.58866 16.8542 7.88155C16.5613 8.17444 16.5677 8.64647 16.8083 8.98361C17.9197 10.5407 17.9197 12.647 16.8083 14.2041C16.5677 14.5413 16.5613 15.0133 16.8542 15.3062Z" />
</svg>
