<svg width="24" height="24" viewBox="0 0 24 24" xmlns="http://www.w3.org/2000/svg">
    <path d="M12 20.2913L12 3.54315L8.34881 7.08258L7.30476 6.00556L10.956 2.46614C11.9074 1.54379 13.5 2.21801 13.5 3.54316V20.2913C13.5 21.6397 11.8592 22.3034 10.9218 21.334L7.3106 17.6001C7.028 17.3078 6.63888 17.1428 6.23236 17.1428H3C2.17157 17.1428 1.5 16.4713 1.5 15.6428V7.92854C1.5 7.10012 2.17157 6.42854 3 6.42854H6.26071C6.65047 6.42854 7.02491 6.27684 7.30476 6.00556L8.34881 7.08258C7.78912 7.62513 7.04022 7.92854 6.26071 7.92854H3L3 15.6428H6.23236C7.0454 15.6428 7.82363 15.9728 8.38885 16.5573L12 20.2913Z" />
    <path d="M15.6803 14.7213C15.3046 14.3456 15.3046 13.7364 15.6803 13.3607L17.0409 12.0001L15.6801 10.6393C15.3044 10.2636 15.3044 9.65441 15.6801 9.27867C16.0559 8.90294 16.6651 8.90294 17.0408 9.27867L18.4016 10.6394L19.7623 9.27867C20.138 8.90294 20.7472 8.90294 21.123 9.27868C21.4987 9.65441 21.4987 10.2636 21.123 10.6393L19.7622 12.0001L21.1228 13.3607C21.4985 13.7364 21.4985 14.3456 21.1228 14.7213C20.747 15.097 20.1378 15.097 19.7621 14.7213L18.4016 13.3608L17.041 14.7213C16.6653 15.0971 16.0561 15.0971 15.6803 14.7213Z" />
</svg>
