<svg width="20" height="20" viewBox="0 0 20 20" xmlns="http://www.w3.org/2000/svg">
    <path fill-rule="evenodd" clip-rule="evenodd" d="M1.66699 9.99999C1.66699 14.6024 5.39795 18.3333 10.0003 18.3333C14.6027 18.3333 18.3337 14.6024 18.3337 9.99999C18.3337 5.39762 14.6027 1.66666 10.0003 1.66666C5.39795 1.66666 1.66699 5.39762 1.66699 9.99999ZM16.667 10C16.667 13.6819 13.6822 16.6667 10.0003 16.6667C6.31843 16.6667 3.33366 13.6819 3.33366 10C3.33366 6.3181 6.31843 3.33334 10.0003 3.33334C13.6822 3.33334 16.667 6.3181 16.667 10ZM9.16699 5.83335C9.16699 5.37311 9.54009 5.00002 10.0003 5.00002C10.4606 5.00002 10.8337 5.37311 10.8337 5.83335V10C10.8337 10.4603 10.4606 10.8333 10.0003 10.8333C9.54009 10.8333 9.16699 10.4603 9.16699 10V5.83335ZM10.0003 12.5C9.54009 12.5 9.16699 12.8731 9.16699 13.3333C9.16699 13.7935 9.54009 14.1666 10.0003 14.1666C10.4606 14.1666 10.8337 13.7935 10.8337 13.3333C10.8337 12.8731 10.4606 12.5 10.0003 12.5Z" />
</svg>
