<svg width="24" height="24" viewBox="0 0 24 24" xmlns="http://www.w3.org/2000/svg">
    <path d="M8.46967 5.46967C8.76256 5.17678 9.23744 5.17678 9.53033 5.46967L12 7.93934L14.4697 5.46967C14.7626 5.17678 15.2374 5.17678 15.5303 5.46967C15.8232 5.76256 15.8232 6.23744 15.5303 6.53033L13.0607 9L15.5303 11.4697C15.8232 11.7626 15.8232 12.2374 15.5303 12.5303C15.2374 12.8232 14.7626 12.8232 14.4697 12.5303L12 10.0607L9.53033 12.5303C9.23744 12.8232 8.76256 12.8232 8.46967 12.5303C8.17678 12.2374 8.17678 11.7626 8.46967 11.4697L10.9393 9L8.46967 6.53033C8.17678 6.23744 8.17678 5.76256 8.46967 5.46967Z" />
    <path fill-rule="evenodd" clip-rule="evenodd" d="M21 15.75H16.1541L18.6854 21.4454C18.8536 21.8239 18.6831 22.2671 18.3046 22.4354C17.9261 22.6036 17.4829 22.4331 17.3146 22.0546L14.5126 15.75H9.4874L6.68536 22.0546C6.51713 22.4331 6.07391 22.6036 5.6954 22.4354C5.31688 22.2671 5.14641 21.8239 5.31464 21.4454L7.84593 15.75H3C2.17157 15.75 1.5 15.0784 1.5 14.25V3.75C1.5 2.92157 2.17157 2.25 3 2.25H21C21.8284 2.25 22.5 2.92157 22.5 3.75V14.25C22.5 15.0784 21.8284 15.75 21 15.75ZM3 3.75H21V14.25H15.0163C15.0052 14.2498 14.994 14.2497 14.9828 14.25H9.01716C9.00598 14.2497 8.99481 14.2498 8.98367 14.25H3V3.75Z" />
</svg>
