<svg width="24" height="24" viewBox="0 0 24 24" fill="none" xmlns="http://www.w3.org/2000/svg">
<path fill-rule="evenodd" clip-rule="evenodd" d="M4 5V14H9.0011H14.9994H20V5H4ZM16.7664 16H21C21.5523 16 22 15.5523 22 15V4C22 3.44772 21.5523 3 21 3H3C2.44772 3 2 3.44772 2 4V15C2 15.5523 2.44772 16 3 16H7.23405L5.14266 19.4857C4.85851 19.9592 5.01208 20.5735 5.48566 20.8576C5.95924 21.1418 6.5735 20.9882 6.85764 20.5146L9.56643 16H14.4341L17.1428 20.5146C17.427 20.9882 18.0413 21.1418 18.5148 20.8576C18.9884 20.5735 19.142 19.9592 18.8578 19.4857L16.7664 16Z" fill="white"/>
<path fill-rule="evenodd" clip-rule="evenodd" d="M2.14686 3.47869C2.43485 3.00744 3.05034 2.85887 3.52159 3.14686L21.5216 14.1469C21.9928 14.4348 22.1414 15.0503 21.8534 15.5216C21.5654 15.9928 20.9499 16.1414 20.4787 15.8534L2.47869 4.85343C2.00744 4.56544 1.85887 3.94995 2.14686 3.47869Z" fill="white"/>
</svg>
