<svg width="16" height="12" viewBox="0 0 16 12" fill="none" xmlns="http://www.w3.org/2000/svg">
<path opacity="0.4" d="M13.0913 6.59847C12.4227 5.88894 11.629 5.32611 10.7554 4.94212C9.88182 4.55812 8.94553 4.36048 7.99997 4.36048C7.05442 4.36048 6.11813 4.55812 5.24456 4.94212C4.371 5.32611 3.57726 5.88894 2.90869 6.59847L4.36305 8.14176C4.84061 7.63486 5.4076 7.23276 6.03163 6.95842C6.65566 6.68408 7.32451 6.54288 7.99997 6.54288C8.67544 6.54288 9.34429 6.68408 9.96832 6.95842C10.5923 7.23276 11.1593 7.63486 11.6369 8.14176L13.0913 6.59847Z" fill="white"/>
<path opacity="0.4" d="M16 3.51081C13.8766 1.26261 10.9996 0 8 0C5.00044 0 2.12337 1.26261 0 3.51081L1.45436 5.0541C3.19156 3.21432 5.54565 2.18105 8 2.18105C10.4543 2.18105 12.8084 3.21432 14.5456 5.0541L16 3.51081Z" fill="white"/>
<path d="M5.94287 9.81713L7.99996 12L10.057 9.81713C9.78693 9.53041 9.46623 9.30297 9.11328 9.1478C8.76032 8.99263 8.38201 8.91276 7.99996 8.91276C7.6179 8.91276 7.23959 8.99263 6.88663 9.1478C6.53368 9.30297 6.21298 9.53041 5.94287 9.81713Z" />
</svg>
