<!-- Generated by IcoMoon.io -->
<svg version="1.1" xmlns="http://www.w3.org/2000/svg" width="32" height="32" viewBox="0 0 32 32">
<title>window</title>
<path d="M28 4h-24c-1.105 0-2 0.896-2 2v20c0 1.104 0.895 2 2 2h24c1.104 0 2-0.896 2-2v-20c0-1.104-0.896-2-2-2zM11.562 5.5c0.552 0 0.999 0.448 0.999 1s-0.447 1-0.999 1c-0.553 0-1-0.448-1-1s0.448-1 1-1zM8.5 5.5c0.552 0 1 0.448 1 1s-0.448 1-1 1c-0.553 0-1-0.448-1-1s0.447-1 1-1zM5.499 5.5c0.553 0 1 0.448 1 1s-0.447 1-1 1c-0.552 0-0.999-0.448-0.999-1s0.447-1 0.999-1zM28 26h-24v-16.979h24v16.979zM28 7.021h-14v-1h14v1z"></path>
</svg>
