<?xml version="1.0" encoding="utf-8"?>
<!-- Generator: Adobe Illustrator 16.0.0, SVG Export Plug-In . SVG Version: 6.00 Build 0)  -->
<!DOCTYPE svg PUBLIC "-//W3C//DTD SVG 1.1//EN" "http://www.w3.org/Graphics/SVG/1.1/DTD/svg11.dtd">
<svg version="1.1" id="Layer_1" xmlns="http://www.w3.org/2000/svg" xmlns:xlink="http://www.w3.org/1999/xlink" x="0px" y="0px"
	 width="550px" height="550px" viewBox="0 0 550 550" enable-background="new 0 0 550 550" xml:space="preserve">
<g>
	<path fill="#FFFFFF" d="M405.188,83.625c-12.981-4.652-26.33-7.009-39.682-7.009c-32.229,0-64.362,14.062-92.078,39.577
		c-4.251-4.12-7.979-7.578-9.813-9.096c-22.675-18.704-49.315-28.593-77.035-28.593c-20.612,0-41.31,5.714-59.878,16.522
		c-31.396,17.634-59.658,48.545-75.659,82.785c-20.474,43.936-28.3,110.994,50.703,180.941
		c46.296,40.986,108.883,71.457,154.583,93.705l2.356,1.146c0.929,0.508,1.88,0.969,2.851,1.391l37.554,18.391
		c0,0,180.547-113.275,208.379-208.913C528.599,189.847,484.63,112.101,405.188,83.625z"/>
	<path fill="#EE4036" d="M276.211,417.891c12.285,1.695,12.34-4.02,6.492,8.115c-85.112-41.695-253.535-117.604-199.63-233.271
		c12.292-26.302,35.257-52.559,61.172-67.035c32.051-18.783,68.468-14.787,96.885,8.659c3.176,2.623,34.549,32.413,31.713,36.136
		c27.132-38.738,71.108-71.279,120.424-53.604c57.24,20.519,97.48,76.929,80.199,137.95
		c-25.957,89.207-117.41,140.075-195.729,176.312c51.723-41.762,206.95-182.596,129.942-248.605
		c-34.086-29.215-76.645-27.041-103.692,13.896c-2.963,4.49-36.04,61.062-32.605,64.044
		c-18.579-43.202-50.354-123.388-103.915-97.417C63.586,249.091,192.26,376.773,276.211,417.891z"/>
</g>
</svg>
