<?xml version="1.0" encoding="utf-8"?>
<!-- Generator: Adobe Illustrator 16.0.0, SVG Export Plug-In . SVG Version: 6.00 Build 0)  -->
<!DOCTYPE svg PUBLIC "-//W3C//DTD SVG 1.1//EN" "http://www.w3.org/Graphics/SVG/1.1/DTD/svg11.dtd">
<svg version="1.1" id="Layer_1" xmlns="http://www.w3.org/2000/svg" xmlns:xlink="http://www.w3.org/1999/xlink" x="0px" y="0px"
	 width="550px" height="550px" viewBox="-85.106 -76.564 550 550" enable-background="new -85.106 -76.564 550 550"
	 xml:space="preserve">
<path fill="#FFFFFF" d="M226.409,396.575c-57.684-0.003-142.076-23.104-190.075-88.217c-25.902-35.134-50.704-96.622-21.776-190.05
	C36.468,47.544,105.071,0,185.267,0c75.22,0,139.832,40.144,172.841,107.386c23.605,48.089,27.569,103.544,10.871,152.146
	c-16.058,46.736-50.031,83.948-98.279,107.673c-6.121,11.968-16.807,28.677-37.92,29.278c-2.09,0.06-4.211,0.092-6.361,0.092
	C226.415,396.575,226.412,396.575,226.409,396.575z"/>
<path fill="#231F20" d="M330.837,120.773C267.399-8.446,80.74,7.261,43.579,127.293c-54.931,177.416,96.324,241.47,188.338,238.823
	c7.145-0.205,11.88-13.741,16.854-23.029c2.691-0.683,5.285-1.565,7.713-2.748C355.66,292.115,364.876,190.11,330.837,120.773z
	 M323.204,225.693c-33.088,126.453-146.677,95.652-153.717,96.89C31.569,280.53-12.516,138.288,140.906,63.731
	C240.86,15.157,350.438,121.634,323.204,225.693z"/>
<path fill="#231F20" d="M104.273,176.607c0,0-0.131-0.375-0.374-1.077c-0.229-0.699-0.575-1.711-0.774-3.156
	c-0.229-1.43-0.365-3.146-0.253-5.166c0.093-2.019,0.475-4.295,1.193-6.715c1.421-4.842,4.396-10.121,8.621-14.719
	c1.045-1.164,2.171-2.273,3.365-3.329c1.18-1.08,2.421-2.104,3.726-3.053c2.567-1.98,5.394-3.602,8.241-5.134
	c2.891-1.46,5.856-2.7,8.842-3.705c1.494-0.479,2.972-0.976,4.47-1.312c1.484-0.387,2.952-0.744,4.418-0.98
	c2.913-0.568,5.761-0.85,8.448-1.03c1.353-0.042,2.661-0.093,3.928-0.096c1.265,0.044,2.482,0.088,3.658,0.13
	c2.343,0.186,4.471,0.429,6.349,0.776c1.875,0.3,3.495,0.74,4.817,1.078c1.321,0.356,2.351,0.764,3.048,0.985
	c0.696,0.243,1.068,0.401,1.068,0.401s-1.489,0.636-4.014,1.537c-1.262,0.499-2.783,0.97-4.495,1.607
	c-1.69,0.592-3.602,1.257-5.684,1.982c-4.114,1.449-8.79,3.135-13.624,5.056c-2.433,0.919-4.86,2.028-7.333,3.05
	c-2.421,1.141-4.907,2.201-7.262,3.473c-2.385,1.205-4.724,2.488-6.937,3.833c-2.194,1.372-4.342,2.736-6.304,4.195
	c-1.946,1.469-3.805,2.936-5.449,4.464c-1.623,1.536-3.154,3.057-4.418,4.605c-1.29,1.531-2.405,3.052-3.308,4.493
	c-0.926,1.427-1.652,2.806-2.225,3.936c-0.291,0.587-0.547,1.111-0.772,1.568c-0.202,0.494-0.371,0.915-0.51,1.256
	C104.433,176.244,104.273,176.607,104.273,176.607z"/>
<path fill="#231F20" d="M284.267,143.903c0,0-0.281-0.278-0.812-0.801c-0.255-0.266-0.564-0.593-0.936-0.979
	c-0.379-0.341-0.812-0.733-1.299-1.17c-0.949-0.838-2.136-1.851-3.523-2.834c-1.371-1.004-2.971-2.004-4.735-2.952
	c-1.747-0.97-3.733-1.818-5.807-2.643c-2.093-0.813-4.362-1.487-6.714-2.132c-2.36-0.632-4.864-1.102-7.412-1.565
	c-2.553-0.433-5.198-0.761-7.859-0.996c-2.659-0.311-5.359-0.375-8.035-0.539c-2.678-0.034-5.339-0.167-7.937-0.122
	c-5.205,0.001-10.173,0.167-14.527,0.343c-2.205,0.095-4.223,0.183-6.015,0.26c-1.828,0.04-3.418,0.168-4.771,0.17
	c-2.682,0.095-4.297,0.056-4.297,0.056s0.283-0.284,0.842-0.768c0.566-0.464,1.373-1.222,2.465-2.043
	c1.104-0.804,2.45-1.809,4.078-2.783c1.618-1.017,3.504-2.03,5.61-3.069c1.077-0.472,2.196-0.966,3.353-1.477
	c1.178-0.464,2.41-0.898,3.686-1.36c2.562-0.829,5.316-1.619,8.229-2.169c1.451-0.322,2.946-0.534,4.469-0.723
	c1.514-0.241,3.074-0.327,4.641-0.437c3.145-0.167,6.354-0.113,9.582,0.172c3.217,0.371,6.439,0.832,9.555,1.724
	c1.564,0.4,3.101,0.89,4.592,1.458c1.498,0.541,2.961,1.152,4.357,1.848c5.627,2.707,10.344,6.514,13.457,10.486
	c1.561,1.983,2.759,3.956,3.592,5.796c0.85,1.835,1.359,3.481,1.676,4.894c0.353,1.415,0.401,2.484,0.449,3.217
	C284.248,143.508,284.267,143.903,284.267,143.903z"/>
<path fill="#231F20" d="M271.406,98.424c0,0-0.394-0.071-1.125-0.203c-0.358-0.076-0.802-0.171-1.322-0.281
	c-0.509-0.068-1.088-0.146-1.733-0.234c-1.254-0.158-2.811-0.326-4.509-0.353c-1.696-0.059-3.582,0.019-5.575,0.231
	c-1.99,0.186-4.104,0.605-6.281,1.092c-2.188,0.51-4.445,1.234-6.75,2.029c-2.308,0.811-4.639,1.833-7.006,2.887
	c-2.351,1.083-4.72,2.303-7.052,3.611c-2.368,1.241-4.637,2.713-6.938,4.084c-2.23,1.483-4.503,2.876-6.624,4.377
	c-4.295,2.937-8.305,5.873-11.803,8.476c-1.768,1.325-3.385,2.533-4.819,3.607c-1.486,1.064-2.729,2.065-3.845,2.833
	c-2.159,1.59-3.517,2.468-3.517,2.468s0.074-0.393,0.261-1.106c0.205-0.703,0.445-1.783,0.885-3.077
	c0.457-1.287,1.004-2.877,1.799-4.601c0.762-1.75,1.749-3.65,2.9-5.698c0.623-0.998,1.271-2.037,1.938-3.109
	c0.71-1.048,1.48-2.102,2.275-3.201c1.649-2.132,3.478-4.338,5.57-6.435c1.016-1.085,2.131-2.104,3.282-3.117
	c1.112-1.051,2.353-2.005,3.583-2.978c2.505-1.912,5.186-3.676,8.012-5.262c2.865-1.508,5.786-2.946,8.863-3.966
	c1.516-0.55,3.061-1.012,4.611-1.386c1.545-0.397,3.096-0.718,4.642-0.932c6.174-0.938,12.214-0.454,17.026,1.068
	c2.41,0.759,4.509,1.712,6.236,2.764c1.733,1.035,3.084,2.108,4.142,3.096c1.088,0.97,1.735,1.824,2.187,2.403
	C271.167,98.106,271.406,98.424,271.406,98.424z"/>
<path fill="#231F20" d="M96.609,115.418c42.53-18.228,55.541-5.738,80.621,19.654C162.883,97.196,137.116,70.862,96.609,115.418z"/>
<path fill="#EC1C24" d="M276.86,192.378c15.215,18.849-14.278,89.86-72.909,95.188c-66.835,6.076-100.461-63.256-88.711-85.299
	c11.751-22.042,50.889,17.998,94.788,10.365C256.608,204.531,261.647,173.528,276.86,192.378z"/>
<g>
	<path fill="#FFFFFF" d="M215.709,215.992l2.67-1.096c-5.735,1.279-12.009,2.127-18.731,2.239l2.83,31.705
		c0.032-0.003,0.062-0.003,0.095-0.003c9.437-0.693,17.61-2.432,24.665-4.788L215.709,215.992z"/>
	<path fill="#FFFFFF" d="M235.583,209.405c-4.877,2.059-10.611,4.012-17.051,5.459l11.57,28.159
		c7.705-2.883,13.967-6.504,19.01-10.252L235.583,209.405z"/>
	<path fill="#FFFFFF" d="M179.057,215.366l-9.14,29.883c8.279,2.617,18.117,4.208,29.521,3.742l-2.824-31.667l1.514-0.135
		C191.179,217.189,184.825,216.467,179.057,215.366z"/>
	<path fill="#FFFFFF" d="M146.53,233.188c0.324,0.25,0.635,0.496,0.968,0.742c4.904,3.606,11.422,7.432,19.539,10.344l9.022-29.494
		c-7.053-1.566-13.022-3.696-17.825-5.782L146.53,233.188z"/>
	<path fill="#FFFFFF" d="M253.053,233.52l8.998,15.547c8.548-12.207,11.265-23.018,11.265-23.018l-5.991-8.068
		C264.731,221.961,260.188,227.788,253.053,233.52z"/>
	<path fill="#FFFFFF" d="M251.534,230.896c7.263-5.907,11.611-11.854,13.859-15.511l-11.824-15.92c0,0-5.594,4.339-15.18,8.722
		L251.534,230.896z"/>
	<path fill="#FFFFFF" d="M199.706,251.982c-1.418,0.062-2.863,0.156-4.236,0.156c-10.069,0-18.875-1.578-26.445-3.971l-7.981,26.09
		c11.352,5.891,25.165,9.643,41.393,8.294L199.706,251.982z"/>
	<path fill="#FFFFFF" d="M144.088,231.256l11.375-23.509c-6.764-3.206-10.5-6.001-10.5-6.001l-11.907,18.257
		C135.298,222.871,138.948,227.008,144.088,231.256z"/>
	<path fill="#FFFFFF" d="M228.392,246.854c-7.326,2.478-15.808,4.293-25.595,5.013c-0.019,0.002-0.03,0-0.051,0.002l2.715,30.405
		c0.086-0.012,0.173-0.012,0.263-0.023c13.226-1.637,23.971-5.73,32.697-10.989L228.392,246.854z"/>
	<path fill="#FFFFFF" d="M250.623,235.386c-5.185,3.823-11.573,7.5-19.369,10.439l9.779,23.79
		c8.118-5.355,14.358-11.698,19.06-17.875L250.623,235.386z"/>
	<path fill="#FFFFFF" d="M142.727,234.07c-5.191-4.206-8.969-8.314-11.431-11.367l-9.117,13.979c0,0,3.899,7.188,11.595,15.892
		L142.727,234.07z"/>
	<path fill="#FFFFFF" d="M166.141,247.195c-8.557-3.057-15.407-7.103-20.56-10.905c-0.14-0.101-0.268-0.208-0.403-0.31
		l-9.201,19.012c5.7,6.064,13.151,12.588,22.333,17.8L166.141,247.195z"/>
</g>
</svg>
