<?xml version="1.0" encoding="utf-8"?>
<!-- Generator: Adobe Illustrator 16.0.0, SVG Export Plug-In . SVG Version: 6.00 Build 0)  -->
<!DOCTYPE svg PUBLIC "-//W3C//DTD SVG 1.1//EN" "http://www.w3.org/Graphics/SVG/1.1/DTD/svg11.dtd">
<svg version="1.1" id="Layer_1" xmlns="http://www.w3.org/2000/svg" xmlns:xlink="http://www.w3.org/1999/xlink" x="0px" y="0px"
	 width="550px" height="550px" viewBox="-88.334 -76.564 550 550" enable-background="new -88.334 -76.564 550 550"
	 xml:space="preserve">
<path fill="#FFFFFF" d="M205.195,396.419c-1.295-0.003-2.603-0.073-3.889-0.215c-61.968-6.777-141.362-43.613-179.013-110.621
	c-38.89-69.21-19.705-142.131,3.232-191.118C52.813,36.195,112.636,0,181.652,0c84.112,0,155.344,51.167,181.466,130.354
	c16.575,50.254,12.934,105.046-9.995,150.332c-22.044,43.545-60.324,75.343-110.736,92.007
	c-7.234,10.374-18.539,23.728-37.188,23.728C205.195,396.419,205.199,396.419,205.195,396.419z"/>
<path fill="#231F20" d="M334.624,139.754C290.079,4.735,105.331-5.208,52.702,107.188
	c-77.797,166.125,61.499,249.302,151.879,259.188c7.021,0.772,13.487-11.833,19.614-20.246c2.727-0.302,5.38-0.818,7.914-1.645
	C335.679,310.757,358.523,212.207,334.624,139.754z M312.934,241.371c-49.52,119.23-156.473,73.693-163.525,73.95
	C20.175,255.48-3.669,110.341,156.537,58.198C260.914,24.228,353.686,143.255,312.934,241.371z"/>
<path fill="#231F20" d="M152.713,174.695c2.816,11.363-17.909,21.655-30.196,19.955c-12.287-1.705-18.079-19.972-16.376-32.262
	c1.703-12.287,12.921-25.274,25.208-23.572C143.639,140.521,149.731,162.654,152.713,174.695z"/>
<path fill="#231F20" d="M276.602,176.247c-1.098,7.917-3.318,14.209-9.545,17.624c-3.865,2.116-11.804,7.836-16.392,7.199
	c-22.074-3.06-20.84-23.358-19.063-36.192c1.778-12.833,12.934-21.888,24.906-20.23
	C268.484,146.311,278.379,163.413,276.602,176.247z"/>
<path fill="#231F20" d="M88.641,120.561c0,0,0.014-0.392,0.053-1.125c0.043-0.727,0.091-1.781,0.438-3.179
	c0.311-1.397,0.816-3.021,1.655-4.833c0.824-1.822,2.004-3.768,3.55-5.729c3.067-3.923,7.73-7.683,13.285-10.358
	c1.384-0.688,2.821-1.295,4.299-1.829c1.479-0.559,2.992-1.046,4.535-1.442c3.081-0.879,6.265-1.336,9.438-1.7
	c3.186-0.286,6.359-0.342,9.466-0.174c1.546,0.104,3.084,0.19,4.585,0.431c1.501,0.185,2.98,0.395,4.409,0.711
	c2.884,0.542,5.598,1.325,8.132,2.14c1.258,0.457,2.477,0.887,3.64,1.348c1.142,0.5,2.247,0.99,3.308,1.454
	c2.085,1.027,3.946,2.027,5.543,3.028c1.609,0.962,2.94,1.959,4.026,2.749c1.084,0.813,1.878,1.562,2.441,2.021
	c0.548,0.478,0.83,0.759,0.83,0.759s-1.596,0.039-4.244-0.053c-1.339-0.005-2.909-0.128-4.713-0.17
	c-1.765-0.072-3.763-0.16-5.94-0.254c-4.304-0.173-9.209-0.331-14.349-0.336c-2.568-0.042-5.199,0.087-7.845,0.124
	c-2.638,0.163-5.3,0.227-7.928,0.536c-2.632,0.231-5.243,0.557-7.766,0.985c-2.517,0.456-4.985,0.925-7.319,1.549
	c-2.321,0.637-4.562,1.301-6.631,2.104c-2.052,0.814-4.009,1.652-5.739,2.614c-1.739,0.934-3.316,1.921-4.673,2.916
	c-1.371,0.972-2.541,1.971-3.478,2.802c-0.484,0.43-0.906,0.816-1.281,1.157c-0.366,0.378-0.675,0.703-0.927,0.967
	C88.922,120.286,88.641,120.561,88.641,120.561z"/>
<path fill="#231F20" d="M289.562,116.91c0,0-0.291-0.267-0.832-0.761c-0.261-0.252-0.586-0.562-0.963-0.932
	c-0.389-0.323-0.83-0.692-1.326-1.108c-0.965-0.79-2.174-1.746-3.582-2.666c-1.39-0.941-3.002-1.87-4.783-2.74
	c-1.762-0.894-3.746-1.657-5.825-2.395c-2.094-0.727-4.362-1.306-6.706-1.857c-2.354-0.534-4.841-0.909-7.373-1.272
	c-2.535-0.333-5.16-0.559-7.795-0.691c-2.636-0.212-5.303-0.173-7.949-0.238c-2.643,0.068-5.275,0.032-7.84,0.171
	c-5.135,0.195-10.031,0.54-14.322,0.875c-2.179,0.176-4.166,0.339-5.931,0.481c-1.802,0.104-3.364,0.293-4.701,0.342
	c-2.645,0.194-4.237,0.215-4.237,0.215s0.268-0.293,0.803-0.789c0.539-0.478,1.311-1.257,2.355-2.107
	c1.059-0.834,2.352-1.875,3.92-2.9c1.562-1.062,3.385-2.13,5.428-3.235c1.047-0.505,2.132-1.035,3.254-1.583
	c1.145-0.499,2.343-0.973,3.589-1.478c2.5-0.914,5.187-1.793,8.041-2.443c1.418-0.372,2.889-0.636,4.383-0.879
	c1.483-0.293,3.021-0.436,4.562-0.604c3.099-0.282,6.271-0.346,9.47-0.182c3.184,0.246,6.384,0.582,9.489,1.347
	c1.562,0.338,3.092,0.761,4.588,1.272c1.494,0.478,2.96,1.026,4.367,1.664c5.654,2.462,10.449,6.046,13.672,9.852
	c1.615,1.899,2.869,3.803,3.758,5.588c0.902,1.778,1.468,3.383,1.831,4.767c0.405,1.387,0.489,2.438,0.562,3.159
	C289.531,116.518,289.562,116.91,289.562,116.91z"/>
<path fill="#EC1C24" d="M244.657,248.432c-0.231,22.367-6.695,37.815-47.271,25.51c-21.409-6.493-56.651,13.285-56.419-9.086
	c0.23-22.371,25.214-51.897,47.098-56.521C224.154,200.709,244.893,226.062,244.657,248.432z"/>
</svg>
