<?xml version="1.0" encoding="utf-8"?>
<!-- Generator: Adobe Illustrator 16.0.0, SVG Export Plug-In . SVG Version: 6.00 Build 0)  -->
<!DOCTYPE svg PUBLIC "-//W3C//DTD SVG 1.1//EN" "http://www.w3.org/Graphics/SVG/1.1/DTD/svg11.dtd">
<svg version="1.1" id="Layer_1" xmlns="http://www.w3.org/2000/svg" xmlns:xlink="http://www.w3.org/1999/xlink" x="0px" y="0px"
	 width="550px" height="550px" viewBox="-25 -25 550 550" enable-background="new -25 -25 550 550" xml:space="preserve">
<g>
	<path fill="#FFFFFF" d="M448.888,124.827c-3.846-14.126-11.569-24.497-15.752-29.332c-1.373-1.603-2.719-3.054-3.91-4.237
		l-1.593-1.596l-1.535-1.434c-2.126-2-4.332-3.691-6.609-5.07c-4.72-3.118-11.389-5.868-20.227-5.868
		c-1.163,0-2.312,0.049-3.424,0.133l-0.062,0.003c-9.865-6.591-19.97-12.406-30.076-17.309
		c-13.064-6.322-26.439-11.146-39.717-14.331c-13.902-3.352-28.289-5.053-42.928-5.056c-3.466,0-6.979,0.098-10.513,0.286
		c-2.107-2.123-4.33-4.092-6.644-5.883c-10.263-8.02-22.424-13.021-34.983-14.436c-2.59-0.309-5.243-0.463-7.892-0.463
		c-3.289,0-6.638,0.239-9.895,0.708c-3.582,0.509-6.839,1.33-8.268,1.722l-22.567,6.03c-2.87,0.806-5.265,1.599-7.361,2.431
		c-5.2,2.021-10.111,4.596-14.49,7.579c-9.864,6.654-17.857,15.614-23.002,25.702c-5.534,10.641-8.002,22.92-7.049,34.905
		c-7.376,3.692-14.348,7.506-21.018,11.497c-6.897,4.162-12.946,8.218-18.574,12.468c-5.366,4.077-12.406,9.759-19.45,17.77
		c-3.074,3.563-7.051,8.542-10.598,15.556c-1.053,2.105-1.933,4.147-2.677,6.203c-0.823,2.26-1.94,5.818-2.561,9.826
		c-0.907,5.681-0.805,11.429,0.25,16.865c-0.76,1.492-1.393,2.873-1.795,3.784l-0.265,0.619c-1.145,2.76-2.036,5.337-2.707,7.813
		c-2.722,9.974-3.098,20.354-1.088,30.013l0.218,1.062l0.301,1.044c2.008,7.049,5.499,13.152,10.374,18.147
		c0.49,0.504,1.02,0.983,1.543,1.465c-8.879,65.836,11.192,111.379,32.003,139.605c47.185,64.006,130.146,86.717,186.853,86.717
		c0.004,0,0.006,0,0.008,0c2.115,0,4.201-0.029,6.26-0.088c20.75-0.594,31.256-17.02,37.275-28.787
		c47.429-23.318,80.819-59.898,96.605-105.842c14.217-41.381,13.171-87.807-2.433-130.214c1.089-3.417,1.839-7.063,2.227-10.927
		c0.234-2.24,0.335-4.51,0.297-6.79c5.796-3.644,11.017-8.103,15.396-13.197c0.728-0.857,2.228-2.712,3.98-5.413
		c2.721-4.139,4.958-8.594,6.658-13.252c2.301-6.31,3.631-13.203,3.842-19.718C451.586,138.671,450.766,131.687,448.888,124.827z"/>
	<path fill="#231F20" d="M383.855,208.642C321.492,81.611,138,97.055,101.47,215.05c-54,174.405,94.689,237.376,185.144,234.774
		c7.022-0.201,11.682-13.51,16.568-22.641c2.646-0.672,5.194-1.543,7.579-2.703C408.256,377.078,417.316,276.801,383.855,208.642z
		 M376.351,311.781c-32.528,124.322-144.209,94.023-151.11,95.248C89.664,365.688,46.326,225.857,197.144,152.568
		C295.404,104.815,403.121,209.486,376.351,311.781z"/>
	<path fill="#231F20" d="M209.557,260.363c3.546,11.104-10.094,23.395-28.666,21.818c-12.307-1.045-19.277-18.637-18.402-30.955
		c0.88-12.312,13.427,3.426,25.028,7.645C198.468,262.852,209.557,260.363,209.557,260.363z"/>
	<path fill="#231F20" d="M155.222,250.766c0,0-0.082-0.324-0.228-0.927c-0.14-0.602-0.347-1.467-0.403-2.692
		c-0.079-1.208-0.055-2.65,0.192-4.328c0.239-1.674,0.732-3.541,1.517-5.509c1.563-3.922,4.456-8.096,8.338-11.595
		c0.959-0.89,1.987-1.728,3.062-2.514c1.07-0.812,2.185-1.566,3.348-2.255c2.291-1.452,4.774-2.584,7.266-3.64
		c2.525-0.992,5.092-1.793,7.661-2.403c1.286-0.279,2.555-0.58,3.833-0.743c1.269-0.209,2.521-0.391,3.753-0.473
		c2.479-0.251,4.876-0.263,7.134-0.201c1.127,0.073,2.222,0.128,3.277,0.229c1.047,0.131,2.059,0.266,3.042,0.394
		c1.939,0.333,3.695,0.703,5.235,1.145c1.533,0.394,2.854,0.89,3.925,1.268c1.072,0.403,1.9,0.829,2.469,1.065
		c0.563,0.256,0.854,0.417,0.854,0.417s-1.288,0.408-3.461,0.971c-1.094,0.312-2.4,0.589-3.875,0.986
		c-1.455,0.357-3.104,0.77-4.894,1.213c-3.538,0.887-7.572,1.925-11.751,3.149c-2.1,0.577-4.211,1.315-6.354,1.975
		c-2.104,0.762-4.259,1.447-6.324,2.327c-2.085,0.821-4.132,1.709-6.083,2.653c-1.939,0.975-3.833,1.942-5.586,3.008
		c-1.732,1.072-3.394,2.151-4.887,3.298c-1.473,1.151-2.867,2.305-4.045,3.497c-1.193,1.176-2.243,2.354-3.106,3.487
		c-0.884,1.12-1.593,2.211-2.162,3.11c-0.288,0.466-0.539,0.88-0.764,1.248c-0.211,0.396-0.379,0.731-0.524,1.003
		C155.385,250.474,155.222,250.766,155.222,250.766z"/>
	<path fill="#231F20" d="M336.417,255.875c0,0-0.056-0.338-0.157-0.963c-0.052-0.314-0.104-0.705-0.16-1.154
		c-0.091-0.43-0.195-0.919-0.312-1.467c-0.235-1.057-0.545-2.359-1.019-3.73c-0.44-1.392-1.043-2.894-1.791-4.433
		c-0.726-1.558-1.674-3.139-2.696-4.762c-1.037-1.61-2.274-3.218-3.582-4.854c-1.314-1.625-2.817-3.208-4.349-4.815
		c-1.553-1.582-3.221-3.141-4.944-4.646c-1.688-1.549-3.526-2.961-5.295-4.418c-1.841-1.371-3.619-2.804-5.444-4.078
		c-3.604-2.619-7.134-5.002-10.236-7.076c-1.586-1.046-3.024-2-4.305-2.849c-1.289-0.896-2.452-1.604-3.396-2.283
		c-1.897-1.28-2.995-2.12-2.995-2.12s0.336-0.058,0.965-0.107c0.625-0.041,1.565-0.157,2.733-0.176
		c1.169-0.002,2.604-0.024,4.229,0.12c1.638,0.113,3.445,0.355,5.436,0.694c0.988,0.219,2.007,0.437,3.064,0.668
		c1.049,0.265,2.127,0.592,3.24,0.913c2.192,0.714,4.504,1.548,6.793,2.636c1.17,0.504,2.314,1.108,3.459,1.75
		c1.178,0.589,2.305,1.315,3.441,2.03c2.256,1.467,4.463,3.124,6.555,4.943c2.039,1.875,4.047,3.816,5.756,6.008
		c0.887,1.062,1.697,2.17,2.444,3.315c0.769,1.129,1.478,2.29,2.093,3.475c2.536,4.71,3.895,9.726,4.051,14.045
		c0.086,2.158-0.078,4.129-0.43,5.827c-0.332,1.69-0.805,3.091-1.302,4.232c-0.466,1.157-0.973,1.918-1.31,2.455
		C336.609,255.595,336.417,255.875,336.417,255.875z"/>
	<g>
		<path fill="#EC1C24" d="M179.016,343.953c-0.38,0.447-0.537,0.592-0.648,1.521c-0.263,1.539-0.444,3.16-0.046,4.859
			c0.367,1.664,1.125,3.107,2.314,4.088c1.231,0.994,2.8,1.543,4.796,1.707c2.003,0.18,4.179,0.041,6.885-0.133
			c0.189-0.021,0.941-0.176,1.242-0.348c2.395-2.805,5.85-5.508,9.694-7.771c3.862-2.281,8.12-4.193,12.553-5.752
			c3.627-1.33,7.43-2.266,11.233-3.123c3.835-0.723,7.703-1.355,11.591-1.564c5.254-0.371,10.516-0.271,15.663,0.332
			c0,0,0.402,0.021,1.135,0.064c0.734,0.068,1.828,0.062,3.15,0.227c2.66,0.295,6.439,0.709,10.638,1.779
			c8.494,1.834,18.58,6.588,25.987,12.406c1.609,1.188,2.928,2.439,4.175,3.559c0.627,0.557,1.228,1.09,1.799,1.594
			c0.533,0.541,1.041,1.049,1.524,1.531c0.969,0.967,1.889,1.795,2.675,2.541c0.743,0.781,1.413,1.438,2.021,1.979
			c2.43,2.154,3.695,2.475,4.08,1.27c0.339-1.18-0.129-3.941-1.555-7.592c-1.508-3.592-3.907-8.16-7.555-12.527
			c0.479,0.359-1.373-2.135-5.026-5.615c-3.669-3.443-9.247-7.791-15.603-11.107c-1.604-0.779-3.203-1.615-4.819-2.344
			c-1.646-0.666-3.267-1.326-4.834-1.967c-1.612-0.529-3.177-1.047-4.654-1.541c-1.491-0.479-2.937-0.793-4.256-1.15
			c-5.312-1.307-8.972-1.771-8.972-1.771c-5.531-0.574-11.082-0.51-16.587-0.166c-4.744,0.285-9.446,1.021-14.115,1.906
			c-4.643,1.016-9.268,2.166-13.786,3.793c-5.492,1.93-10.876,4.316-16.066,7.381C188.477,335.104,183.437,338.812,179.016,343.953z
			"/>
	</g>
	<path fill="#231F20" d="M278.455,254.391c-3.547,11.104,10.095,23.393,28.664,21.818c12.309-1.045,19.277-18.637,18.404-30.955
		c-0.883-12.311-13.428,3.427-25.029,7.645C289.544,256.879,278.455,254.391,278.455,254.391z"/>
	<g>
		<path fill="#00ADEE" d="M380.642,114.527c-41.798-29.659-80.543-39.569-127.589-31.121c-0.104-0.478-0.18-0.956-0.307-1.432
			c-4.354-16.279-21.074-25.944-37.351-21.596l-22.674,6.061c-16.273,4.349-28.027,20.123-21.594,37.341
			c6.435,17.22,53.464-0.815,54.22,0.797c-119.454,35.833-150.84,80.812-120.451,84.612c14.99,1.875-19.911,5.472-16.924,33.347
			c1.499,13.999,39.377-30.024,124.433-45.292c77.646-13.938,165.601,39.481,169.23,25.879
			c7.964-29.863-57.295-44.979-41.812-39.817c72.634,24.211,88.645-22.781,60.267-50.346
			C398.131,111.059,383.021,116.215,380.642,114.527z"/>
		<path fill="#231F20" d="M420.07,132.666c-2.059-7.568-6.197-13.797-9.595-17.72c-0.849-0.988-1.645-1.854-2.368-2.571
			c-0.447-0.45-0.865-0.869-1.244-1.249c-0.457-0.43-0.871-0.814-1.235-1.155c-1.446-1.362-2.298-1.624-1.954-1.382
			c-1.503-1.423-3.689-1.531-5.564-1.388c-0.963,0.091-1.91,0.238-2.824,0.442c-0.924,0.19-1.851,0.438-2.327,0.604
			c-2.334,0.747-4.291,1.524-5.976,2.214c-1.674,0.693-3.043,1.3-4.029,1.777c-0.485,0.237-0.856,0.437-1.12,0.622
			c1.175-2.928,0.477-6.32-0.584-8.671c-0.255-0.714-0.396-0.808-0.781-1.072c-8.806-5.962-18.062-11.406-27.771-16.116
			c-10.692-5.174-22-9.374-33.709-12.183c-11.703-2.818-23.773-4.22-35.771-4.223c-5.999-0.006-11.979,0.324-17.907,0.945
			l-4.433,0.52l-2.054,0.286h-0.004l-0.678-1.281c-0.906-1.589-1.881-3.146-2.984-4.602c-2.192-2.925-4.761-5.564-7.646-7.798
			c-5.743-4.488-12.733-7.479-20.129-8.312c-3.329-0.396-6.726-0.32-10.054,0.158c-1.6,0.227-3.45,0.647-4.782,1.012l-3.701,0.986
			l-14.793,3.955l-3.697,0.988c-1.54,0.432-3.098,0.913-4.601,1.508c-3.015,1.172-5.913,2.666-8.611,4.503
			c-5.396,3.64-10.094,8.619-13.211,14.728c-3.156,6.066-4.485,13.322-3.628,20.183c0.216,1.707,0.531,3.395,0.972,5.027
			c0.225,0.813,0.446,1.632,0.729,2.415l0.412,1.185c0.216,0.548,0.46,1.144,0.728,1.703c1.108,2.287,2.753,4.375,4.623,5.978
			c0.107,0.094,0.222,0.169,0.332,0.263c-14.775,6.132-29.298,13.061-43.3,21.434c-5.418,3.269-10.756,6.767-15.936,10.675
			c-5.174,3.931-10.226,8.177-14.903,13.497c-2.323,2.695-4.583,5.616-6.499,9.408c-0.476,0.951-0.928,1.96-1.327,3.062
			c-0.474,1.298-0.905,2.854-1.132,4.316c-0.476,2.978-0.269,6.037,0.74,8.825c0.907,2.563,2.508,4.838,4.535,6.673
			c-1.283,1.195-2.53,2.479-3.697,3.894c-1.278,1.534-2.45,3.217-3.485,5.007c-0.438,0.704-1.213,2.262-1.811,3.614
			c-0.578,1.391-1.094,2.806-1.479,4.229c-1.551,5.683-1.641,11.353-0.66,16.062c0.655,2.302,1.58,4.01,3.064,5.52
			c0.753,0.783,1.8,1.536,2.756,2.032c0.966,0.504,1.89,0.822,2.861,1.038c1.911,0.449,4.109,0.397,6.597-0.224
			c2.482-0.619,5.18-1.837,7.84-3.193c1.335-0.688,2.665-1.402,3.989-2.144l2.925-1.646l3.978-2.273l7.831-4.441
			c20.7-11.66,42.322-21.03,64.991-27.429c5.659-1.604,11.363-3.048,17.111-4.305c5.751-1.226,11.589-2.417,17.13-3.139
			c11.278-1.476,22.848-1.557,34.422-0.645c28.969,2.298,57.518,10.609,86.001,20.138c7.185,2.362,14.323,4.826,21.996,7.037
			c1.972,0.557,3.808,1.056,6.099,1.569c3.674,0.822,7.498,1.396,10.901,0.968c3.369-0.414,6.339-1.785,8.558-4.357
			c1.998-2.405,2.892-5.822,3.25-9.398c0.375-3.538-0.037-7.47-1.104-10.939c-0.822-2.65-1.988-5.083-3.329-7.262
			c-0.825-1.335-1.725-2.555-2.646-3.726c2.166-0.256,4.351-0.62,6.549-1.113c2.201-0.49,4.416-1.141,6.607-1.96l1.238-0.473
			l0.453-0.189c0.598-0.262,1.2-0.496,1.796-0.79c4.757-2.205,9.378-5.425,13.077-9.728c0,0,0.714-0.84,1.771-2.461
			c1.057-1.606,2.439-4.018,3.561-7.087c1.117-3.062,1.932-6.773,2.057-10.668C421.628,140.459,421.101,136.426,420.07,132.666z
			 M102.059,184.267l-0.006,0.002l0,0C102.053,184.269,102.062,184.264,102.059,184.267z M405.406,141.023
			c-0.375,3.533-1.551,6.132-2.553,7.771c-1.027,1.639-1.814,2.452-1.814,2.452c-1.621,2.267-3.875,4.19-6.674,5.679
			c-0.701,0.371-1.43,0.72-2.188,1.032l-0.283,0.12c-0.17,0.068-0.021,0.021-0.454,0.177c-1.396,0.557-2.904,0.989-4.455,1.355
			c-3.103,0.738-6.459,1.077-9.892,1.167c-6.899,0.123-14.13-0.862-21.308-2.524c-1.18-0.274-2.355-0.592-3.535-0.901
			c-2.575-1.035-5.176-2.012-7.911-2.879c-1.027-0.317-2.032-0.621-3.265-0.93l-1.076-0.248l-0.883-0.155l-0.32-0.043l-0.643-0.059
			c-0.355-0.021-0.717-0.023-1.07-0.009c2-0.706-7.205,0.945-8.069,5.396c-3.826,4.287,4.286,14.083,2.8,11.327
			c0.314,0.24,0.648,0.464,0.986,0.668l0.605,0.333l0.293,0.146l0.816,0.361l1.02,0.391c1.182,0.43,2.064,0.697,3.021,1.01
			l2.856,0.897c1.725,0.524,3.47,1.019,5.219,1.487c4.839,2.01,9.529,4.375,13.719,7.076c5.792,3.691,10.691,8.474,12.123,12.659
			c0.061,0.189,0.157,0.458,0.195,0.602l-0.004,0.028c-0.031,0.018-0.013,0.018-0.103-0.002c-6.83-1.61-14.437-4.232-21.901-6.68
			c-30.086-10.106-61.514-19.787-94.562-22.415c-12.625-0.987-25.476-0.927-38.287,0.747c-6.5,0.854-12.57,2.108-18.691,3.409
			c-6.115,1.339-12.191,2.876-18.216,4.582c-24.104,6.786-47.348,16.889-68.956,29.068l-12.999,7.39
			c-0.017,0.011-0.066,0.032-0.057-0.009l0.008-0.041l0.251-0.455c0.49-0.837,1.05-1.662,1.721-2.461
			c1.327-1.607,3.012-3.13,5.007-4.591c1.008-0.731,2.071-1.443,3.27-2.201l1.945-1.229c0.75-0.5,1.447-0.878,2.876-2.047
			c0.383-0.335,0.816-0.693,1.496-1.486l0.514-0.657c0.204-0.276,0.478-0.708,0.682-1.079l0.309-0.602
			c0.147-0.317,0.277-0.646,0.395-0.982c0.225-0.708,0.393-1.226,0.499-2.342c0.075-1.021,0.038-1.969-0.208-3.008
			c-0.207-0.968-0.719-2.162-1.1-2.759c-0.395-0.671-0.923-1.355-1.423-1.866c-0.347-0.353-0.726-0.688-1.12-0.991
			c-0.46-0.354-0.667-0.473-0.93-0.634l-0.799-0.445c-0.396-0.193-0.723-0.333-1.097-0.48c-2.233-0.775-3.108-0.808-4.164-1
			l-1.945-0.283c-0.467-0.082-0.884-0.188-1.242-0.292c-0.408-0.131-0.243-0.078-0.283-0.09l-0.009-0.002l-0.009-0.019
			c-0.005-0.002-0.003-0.013-0.003-0.019l0.028-0.079c0.118-0.325,0.288-0.708,0.491-1.113c0.813-1.647,2.237-3.619,3.89-5.506
			c3.34-3.82,7.597-7.486,12.094-10.884c4.519-3.406,9.351-6.585,14.33-9.586l0.002,0.002c16.813-10.069,35.15-18.233,53.845-25.384
			c9.365-3.562,18.857-6.855,28.441-9.921l7.2-2.257l3.613-1.097l0.453-0.138l0.055-0.017c-5.109,11.502,7.247-15.343,4.94-14.218
			c-0.82-1.179-2.013-2.221-3.209-2.861c-1.097-0.56-0.984-0.451-1.56-0.671c-0.417-0.136-0.843-0.247-1.269-0.326
			c-0.524-0.096-0.764-0.113-0.845-0.123c-0.309-0.026-0.619-0.043-0.927-0.05c-0.966,0-1.394,0.07-1.759,0.111l-0.75,0.116
			c-0.56-1.913-0.769-2.609-0.023,0.003l-0.157,0.023c-1.012,0.184-1.692,0.35-2.404,0.519c-5.319,1.327-9.9,2.588-14.696,3.632
			c-4.724,1.034-9.417,1.869-13.854,2.228c-4.329,0.397-8.823,0.1-10.794-0.79c-1.011-0.461-0.81-0.521-0.836-0.478
			c-0.005-0.016,0.002-0.018-0.025-0.057l-0.21-0.626c-0.161-0.414-0.259-0.834-0.379-1.249c-0.229-0.833-0.374-1.663-0.485-2.483
			c-0.385-3.29,0.184-6.52,1.729-9.525c1.522-3.004,4.016-5.737,7.075-7.79c1.52-1.044,3.191-1.898,4.935-2.578
			c0.873-0.35,1.759-0.615,2.674-0.878l3.698-0.988l14.794-3.952l3.698-0.988c1.131-0.3,1.779-0.438,2.704-0.583
			c1.723-0.236,3.472-0.289,5.217-0.078c3.86,0.423,7.67,2.029,10.831,4.503c1.589,1.225,2.995,2.687,4.196,4.281
			c0.609,0.793,1.125,1.647,1.631,2.505l0.347,0.662c-0.032-0.062,0.329,0.634,0.415,0.901l0.39,1.007
			c0.558,1.304,0.979,2.75,1.395,4.208l1.278,4.33c0.237,0.645,0.337,1.54,0.695,1.98l2.081-0.347l8.381-1.395l4.176-0.65
			l2.176-0.31l3.99-0.467c5.321-0.557,10.647-0.849,15.955-0.842c21.262-0.07,42.131,5.141,61.42,14.562
			c8.767,4.255,17.267,9.239,25.463,14.801c0.385,0.167,1.361,0.184,1.586,0.16c4.689-0.432,7.496-1.95,9.066-3.926
			c0.327,0.671,1.512,1.275,3.072,1.555c1.724,0.335,4.019,0.423,6.876,0.367c1.383-0.017,3.106-0.104,4.559-0.087
			c0.531,0.041,1.056,0.093,1.568,0.188c0.487,0.119,1.084,0.151,1.41,0.699c0.378,0.631,0.683,1.196,0.977,1.798
			c0.571,0.911,1.24,1.982,1.788,3.012c1.141,2.085,2.131,4.261,2.861,6.454C405.346,133.124,405.826,137.517,405.406,141.023z"/>
	</g>
	<g>
		<path fill="#231F20" d="M298.717,149.631c-2.293-1.108-5.316-1.884-8.662-2.799c-1.74-0.307-3.554-0.693-5.482-0.98
			c-1.973-0.158-3.988-0.479-6.127-0.627c-4.306-0.198-8.955-0.195-13.891,0.114c-4.936,0.32-10.135,0.84-15.505,1.675
			c-5.369,0.734-10.897,1.845-16.513,2.98c-5.608,1.181-11.297,2.514-16.97,3.947c-22.699,5.784-45.184,13.086-62.228,18.368
			c-8.533,2.692-15.65,4.936-20.627,6.507c-5.034,1.534-7.91,2.409-7.91,2.409s2.447-1.782,6.927-4.559
			c4.476-2.779,10.965-6.601,19.018-10.673c4.022-2.042,8.399-4.224,13.121-6.342c4.719-2.113,9.729-4.28,15.003-6.316
			c5.252-2.082,10.761-4.053,16.417-5.895c5.646-1.878,11.482-3.511,17.337-5.073c5.901-1.424,11.827-2.791,17.755-3.761
			c2.964-0.496,5.895-1,8.841-1.294c2.928-0.371,5.825-0.69,8.71-0.834c5.731-0.446,11.345-0.426,16.649-0.134
			c2.646,0.099,5.242,0.495,7.725,0.76c2.482,0.349,4.878,0.916,7.155,1.336c2.272,0.558,4.436,1.196,6.466,1.8
			c2.01,0.74,3.876,1.562,5.623,2.269c3.424,1.68,6.277,3.331,8.372,5.072c2.235,1.502,3.591,3.182,4.59,4.186
			c0.959,1.036,1.468,1.587,1.468,1.587"/>
	</g>
</g>
</svg>
