<?xml version="1.0" encoding="utf-8"?>
<!-- Generator: Adobe Illustrator 16.0.0, SVG Export Plug-In . SVG Version: 6.00 Build 0)  -->
<!DOCTYPE svg PUBLIC "-//W3C//DTD SVG 1.1//EN" "http://www.w3.org/Graphics/SVG/1.1/DTD/svg11.dtd">
<svg version="1.1" id="Layer_1" xmlns="http://www.w3.org/2000/svg" xmlns:xlink="http://www.w3.org/1999/xlink" x="0px" y="0px"
	 width="550px" height="550px" viewBox="-85.106 -76.564 550 550" enable-background="new -85.106 -76.564 550 550"
	 xml:space="preserve">
<g>
	<path fill="#FFFFFF" d="M221.867,396.623h-0.646l-0.886-0.035"/>
	<path fill="#FFFFFF" d="M225.474,396.861c-57.705,0-142.117-23.114-190.135-88.254c-46.949-63.691-37.76-138.58-21.787-190.181
		C35.469,47.619,104.1,0.046,184.327,0.046c75.248,0,139.886,40.168,172.91,107.451c23.615,48.12,27.582,103.606,10.875,152.235
		c-16.066,46.768-50.051,84.003-98.323,107.739c-6.123,11.979-16.812,28.696-37.927,29.296c-2.09,0.061-4.227,0.095-6.373,0.095
		C225.485,396.861,225.478,396.861,225.474,396.861z"/>
	<path fill="#231F20" d="M329.956,120.891C266.491-8.405,79.76,7.311,42.583,127.416
		c-54.952,177.521,96.363,241.615,188.411,238.967c7.149-0.204,11.888-13.749,16.862-23.044c2.693-0.683,5.287-1.565,7.716-2.749
		C354.789,292.337,364.007,190.271,329.956,120.891z M322.319,225.875c-33.103,126.529-146.736,95.711-153.779,96.948
		C30.57,280.744-13.534,138.417,139.949,63.815C239.942,15.212,349.563,121.752,322.319,225.875z"/>
	<path fill="#231F20" d="M103.301,176.758c0,0-0.131-0.375-0.375-1.074c-0.229-0.701-0.575-1.713-0.775-3.159
		c-0.228-1.431-0.365-3.147-0.251-5.171c0.092-2.018,0.475-4.295,1.193-6.717c1.421-4.845,4.399-10.125,8.625-14.727
		c1.042-1.165,2.171-2.275,3.366-3.331c1.179-1.081,2.421-2.108,3.726-3.058c2.568-1.98,5.396-3.604,8.246-5.135
		c2.889-1.461,5.858-2.701,8.844-3.708c1.496-0.478,2.973-0.977,4.472-1.312c1.484-0.388,2.954-0.744,4.42-0.982
		c2.913-0.567,5.762-0.849,8.451-1.028c1.353-0.041,2.663-0.095,3.931-0.097c1.264,0.044,2.484,0.089,3.659,0.13
		c2.344,0.187,4.474,0.43,6.351,0.775c1.876,0.303,3.497,0.741,4.82,1.08c1.321,0.357,2.351,0.767,3.049,0.986
		c0.697,0.243,1.068,0.404,1.068,0.404s-1.488,0.635-4.015,1.537c-1.261,0.499-2.784,0.968-4.497,1.606
		c-1.69,0.591-3.602,1.258-5.686,1.985c-4.117,1.449-8.794,3.134-13.629,5.059c-2.435,0.92-4.861,2.027-7.337,3.051
		c-2.42,1.141-4.908,2.203-7.264,3.474c-2.388,1.205-4.725,2.487-6.939,3.835c-2.196,1.371-4.345,2.737-6.308,4.197
		c-1.946,1.473-3.808,2.939-5.451,4.467c-1.623,1.535-3.156,3.062-4.419,4.61c-1.291,1.532-2.407,3.052-3.311,4.495
		c-0.924,1.428-1.652,2.809-2.226,3.937c-0.29,0.587-0.545,1.112-0.771,1.57c-0.202,0.496-0.37,0.917-0.51,1.255
		C103.461,176.396,103.301,176.758,103.301,176.758z"/>
	<path fill="#231F20" d="M283.364,144.036c0,0-0.28-0.279-0.812-0.801c-0.255-0.266-0.566-0.594-0.936-0.98
		c-0.381-0.342-0.813-0.732-1.299-1.173c-0.951-0.836-2.137-1.853-3.525-2.834c-1.371-1.007-2.973-2.004-4.736-2.954
		c-1.75-0.971-3.733-1.817-5.81-2.645c-2.093-0.813-4.366-1.487-6.718-2.135c-2.361-0.629-4.867-1.101-7.415-1.563
		c-2.552-0.433-5.199-0.763-7.863-0.999c-2.657-0.312-5.362-0.376-8.035-0.536c-2.682-0.036-5.342-0.167-7.942-0.126
		c-5.209,0.004-10.176,0.167-14.53,0.345c-2.21,0.095-4.226,0.184-6.019,0.262c-1.828,0.038-3.421,0.166-4.773,0.169
		c-2.684,0.096-4.299,0.057-4.299,0.057s0.281-0.285,0.842-0.769c0.564-0.465,1.375-1.223,2.467-2.045
		c1.104-0.801,2.451-1.811,4.079-2.785c1.619-1.015,3.507-2.029,5.612-3.069c1.078-0.475,2.197-0.967,3.354-1.478
		c1.182-0.464,2.411-0.899,3.688-1.36c2.564-0.831,5.318-1.621,8.233-2.173c1.451-0.32,2.946-0.534,4.47-0.725
		c1.514-0.24,3.072-0.327,4.642-0.435c3.146-0.17,6.356-0.114,9.586,0.171c3.218,0.372,6.442,0.834,9.562,1.725
		c1.562,0.401,3.099,0.891,4.59,1.461c1.5,0.541,2.963,1.151,4.36,1.846c5.63,2.71,10.349,6.519,13.464,10.493
		c1.56,1.987,2.758,3.957,3.594,5.801c0.848,1.837,1.357,3.481,1.673,4.895c0.353,1.418,0.405,2.487,0.452,3.22
		C283.349,143.642,283.364,144.036,283.364,144.036z"/>
	<path fill="#EC1C24" d="M270.241,181.413c0,13.489-4.562,38.579-19.247,57.755c-10.294,13.443-24.716,23.202-49.642,27.357
		c-60.78,10.135-85.095-47.983-85.095-70.926c0,0,30.395,13.17,74.97,13.17C235.801,208.77,270.241,181.413,270.241,181.413z"/>
	<path fill="#231F20" d="M270.5,98.529c0,0-0.392-0.071-1.125-0.203c-0.358-0.076-0.802-0.171-1.322-0.281
		c-0.509-0.068-1.088-0.146-1.735-0.234c-1.254-0.158-2.81-0.325-4.51-0.354c-1.699-0.058-3.584,0.019-5.574,0.231
		c-1.993,0.185-4.108,0.605-6.289,1.093c-2.187,0.51-4.446,1.235-6.752,2.03c-2.307,0.81-4.637,1.834-7.008,2.888
		c-2.35,1.084-4.722,2.307-7.054,3.612c-2.369,1.241-4.639,2.716-6.938,4.088c-2.231,1.483-4.506,2.876-6.629,4.378
		c-4.295,2.938-8.306,5.877-11.806,8.483c-1.769,1.324-3.387,2.536-4.823,3.61c-1.486,1.063-2.729,2.066-3.845,2.832
		c-2.162,1.591-3.518,2.469-3.518,2.469s0.071-0.391,0.262-1.107c0.203-0.704,0.444-1.784,0.883-3.079
		c0.458-1.288,1.003-2.879,1.798-4.604c0.766-1.751,1.754-3.654,2.903-5.702c0.622-0.997,1.271-2.037,1.938-3.111
		c0.709-1.047,1.479-2.101,2.276-3.2c1.65-2.137,3.478-4.342,5.573-6.44c1.015-1.087,2.13-2.103,3.281-3.118
		c1.111-1.051,2.354-2.006,3.587-2.98c2.502-1.913,5.188-3.678,8.013-5.265c2.868-1.51,5.789-2.947,8.866-3.969
		c1.521-0.551,3.062-1.013,4.616-1.387c1.543-0.397,3.095-0.718,4.643-0.932c6.176-0.938,12.219-0.454,17.033,1.068
		c2.408,0.76,4.511,1.713,6.236,2.765c1.736,1.036,3.088,2.109,4.144,3.098c1.092,0.97,1.737,1.826,2.188,2.404
		C270.263,98.212,270.5,98.529,270.5,98.529z"/>
	<path fill="#231F20" d="M97.358,100.556c0,0,0.392-0.071,1.125-0.205c0.36-0.074,0.802-0.169,1.325-0.282
		c0.508-0.064,1.086-0.145,1.732-0.231c1.256-0.159,2.812-0.326,4.512-0.356c1.697-0.056,3.583,0.021,5.577,0.231
		c1.991,0.188,4.106,0.606,6.286,1.094c2.188,0.51,4.445,1.234,6.752,2.029c2.306,0.813,4.639,1.834,7.006,2.892
		c2.351,1.08,4.723,2.304,7.056,3.612c2.368,1.242,4.639,2.716,6.938,4.088c2.233,1.485,4.505,2.876,6.627,4.379
		c4.299,2.938,8.307,5.875,11.806,8.481c1.771,1.324,3.388,2.535,4.824,3.61c1.488,1.063,2.73,2.066,3.847,2.832
		c2.16,1.591,3.518,2.469,3.518,2.469s-0.075-0.392-0.263-1.104c-0.205-0.707-0.444-1.787-0.885-3.081
		c-0.456-1.288-1.003-2.879-1.797-4.601c-0.763-1.751-1.751-3.655-2.901-5.703c-0.625-1.001-1.272-2.04-1.939-3.111
		c-0.71-1.048-1.481-2.105-2.277-3.203c-1.649-2.134-3.479-4.34-5.574-6.438c-1.015-1.086-2.129-2.104-3.282-3.119
		c-1.114-1.052-2.354-2.008-3.586-2.981c-2.504-1.912-5.187-3.677-8.012-5.263c-2.867-1.51-5.792-2.948-8.869-3.968
		c-1.516-0.551-3.059-1.013-4.615-1.387c-1.543-0.398-3.096-0.718-4.642-0.933c-6.176-0.938-12.219-0.454-17.033,1.07
		c-2.411,0.76-4.511,1.711-6.239,2.764c-1.736,1.036-3.085,2.11-4.142,3.098c-1.09,0.971-1.736,1.826-2.187,2.405
		C97.597,100.235,97.358,100.556,97.358,100.556z"/>
</g>
</svg>
