<?xml version="1.0" encoding="utf-8"?>
<!-- Generator: Adobe Illustrator 16.0.0, SVG Export Plug-In . SVG Version: 6.00 Build 0)  -->
<!DOCTYPE svg PUBLIC "-//W3C//DTD SVG 1.1//EN" "http://www.w3.org/Graphics/SVG/1.1/DTD/svg11.dtd">
<svg version="1.1" id="Layer_1" xmlns="http://www.w3.org/2000/svg" xmlns:xlink="http://www.w3.org/1999/xlink" x="0px" y="0px"
	 width="550px" height="550px" viewBox="-85.106 -76.564 550 550" enable-background="new -85.106 -76.564 550 550"
	 xml:space="preserve">
<path fill="#FFFFFF" d="M372.248,107.851C339.151,40.429,274.366,0.178,198.949,0.178c-80.411,0-149.197,47.67-171.166,118.624
	c-16.011,51.71-25.219,126.751,21.835,190.569c48.128,65.281,132.732,88.441,190.568,88.441c0.006,0,0.013,0,0.019,0
	c2.147,0,4.292-0.033,6.383-0.094c21.169-0.604,31.88-17.354,38.017-29.355c48.385-23.785,82.444-61.1,98.547-107.961
	C399.895,211.666,395.92,156.065,372.248,107.851z"/>
<path fill="#231F20" d="M344.649,119.812C280.709-10.436,92.562,5.397,55.103,126.384c-55.37,178.83,97.09,243.395,189.835,240.728
	c7.195-0.205,11.967-13.817,16.975-23.18c2.725-0.688,5.336-1.609,7.793-2.805C369.67,292.52,378.961,189.702,344.649,119.812z
	 M336.959,225.568c-33.385,127.58-148.073,96.354-154.979,97.659C42.987,280.825-1.426,137.46,153.207,62.316
	C253.958,13.355,364.406,120.68,336.959,225.568z"/>
<path fill="#231F20" d="M162.596,162.239c4.438,11.093-15.069,24.402-27.729,24.402c-12.659,0-21.074-17.657-21.074-30.316
	c0-12.659,9.523-27.358,22.183-27.358C148.636,128.967,157.895,150.487,162.596,162.239z"/>
<path fill="#231F20" d="M288.049,158.705c0,8.158-1.366,14.828-7.185,19.149c-3.609,2.68-10.833,9.577-15.562,9.577
	c-22.736,0-24.337-20.694-24.337-33.914c0-13.222,10.003-23.938,22.343-23.938C275.649,129.579,288.049,145.482,288.049,158.705z"/>
<g>
	<path fill="#EC1C24" d="M118.379,254.148c-0.418-0.569-0.588-0.766-0.631-1.903c-0.174-1.904-0.23-3.902,0.406-5.953
		c0.598-2.013,1.649-3.72,3.172-4.839c1.573-1.124,3.509-1.684,5.92-1.74c2.424-0.07,5.022,0.252,8.26,0.669
		c0.223,0.036,1.113,0.275,1.457,0.513c2.61,3.606,6.503,7.162,10.902,10.217c4.414,3.074,9.353,5.729,14.524,7.949
		c4.23,1.896,8.709,3.317,13.197,4.643c4.537,1.166,9.12,2.226,13.768,2.767c6.275,0.834,12.607,1.089,18.845,0.728
		c0,0,0.483,0.004,1.372,0c0.886-0.026,2.197,0.061,3.808-0.041c3.224-0.174,7.804-0.4,12.942-1.405
		c10.383-1.633,22.947-6.716,32.402-13.301c2.045-1.339,3.75-2.776,5.353-4.056c0.808-0.636,1.58-1.244,2.315-1.817
		c0.692-0.616,1.352-1.206,1.976-1.765c1.26-1.11,2.444-2.059,3.461-2.92c0.963-0.896,1.837-1.649,2.612-2.268
		c3.129-2.467,4.673-2.768,5.023-1.256c0.293,1.466-0.531,4.812-2.597,9.178c-2.155,4.282-5.472,9.703-10.267,14.79
		c0.602-0.41-1.855,2.508-6.584,6.507c-4.732,3.948-11.853,8.863-19.804,12.461c-1.997,0.846-3.995,1.746-6.007,2.52
		c-2.04,0.699-4.05,1.388-5.999,2.058c-1.985,0.536-3.911,1.054-5.735,1.546c-1.836,0.481-3.602,0.758-5.222,1.104
		c-6.506,1.219-10.944,1.514-10.944,1.514c-6.701,0.304-13.359-0.182-19.938-0.999c-5.676-0.691-11.252-1.938-16.773-3.355
		c-5.477-1.586-10.922-3.322-16.192-5.649c-6.415-2.763-12.654-6.076-18.596-10.205
		C128.892,265.673,123.195,260.766,118.379,254.148z"/>
</g>
</svg>
