<?xml version="1.0" encoding="utf-8"?>
<!-- Generator: Adobe Illustrator 16.0.0, SVG Export Plug-In . SVG Version: 6.00 Build 0)  -->
<!DOCTYPE svg PUBLIC "-//W3C//DTD SVG 1.1//EN" "http://www.w3.org/Graphics/SVG/1.1/DTD/svg11.dtd">
<svg version="1.1" id="Layer_1" xmlns="http://www.w3.org/2000/svg" xmlns:xlink="http://www.w3.org/1999/xlink" x="0px" y="0px"
	 width="550px" height="550px" viewBox="-5.453 -43.611 550 550" enable-background="new -5.453 -43.611 550 550"
	 xml:space="preserve">
<g>
	<path fill="#FFFFFF" d="M539.033,125.536l-0.236-4.41l-0.07-0.95c-0.131-1.541-0.314-2.885-0.518-4.241l-0.188-1.277
		c-0.516-3.321-1.209-6.684-2.064-9.997l-0.129-0.496l-0.768-2.597c-0.354-1.174-0.729-2.387-1.395-4.135l-1.549-3.94l-1.932-3.909
		c-3.496-6.919-8.115-12.93-13.732-17.877c-9.973-8.862-22.974-13.739-36.627-13.739c-2.852,0-5.726,0.216-8.545,0.648
		c-3.854,0.557-7.061,1.471-9.771,2.292l-0.869,0.276c-2.961,0.989-6.03,2.248-8.682,3.552c-2.198,1.058-3.729,1.939-4.757,2.528
		l-1.698,0.995c-1.532,0.943-3.079,1.917-4.312,2.783c-6.645,4.589-12.059,9.314-16.732,13.873c0.765-2.915,1.189-6.082,1.18-9.509
		c0,0,3.064-25.032-19.373-40.036l-0.809-0.685c-3.489-2.853-7.258-5.47-11.118-7.73c-6.938-4.096-13.451-6.787-19.011-8.989
		l-0.439-0.171c-10.908-4.129-22.677-7.447-35.963-10.146c-6.36-1.365-12.637-2.335-18.284-3.153
		c-6.364-0.962-12.799-1.709-18.951-2.208c-6.258-0.547-12.414-1.056-18.598-1.272c-3.185-0.141-6.441-0.251-9.889-0.306
		l-8.998-0.082c-12.519,0.027-25.199,0.658-37.425,1.854c-6.056,0.542-12.25,1.299-18.868,2.312
		c-7.388,1.111-13.104,2.14-18.499,3.331c-13.461,2.837-25.344,6.344-36.33,10.723l-0.532,0.22
		c-6.153,2.587-12.749,5.502-19.722,10.083c-4.866,3.171-9.073,6.618-13.026,10.702c-3.4,3.57-6.156,7.297-8.562,11.652
		c-0.586,1.082-1.137,2.173-1.646,3.273l-0.785,1.716l-0.842,2.281c-0.215,0.623-0.418,1.245-0.607,1.852
		c-2.35-1.719-4.838-3.432-7.479-5.097l-0.524-0.322c-5.702-3.435-12.827-7.294-22.453-9.854
		c-5.214-1.389-10.601-2.096-16.007-2.096c-10.913,0-21.315,2.88-30.094,8.329c-6.69,4.103-12.474,9.527-17.18,16.128l-0.215,0.306
		c-4.437,6.384-6.787,12.113-8.176,15.863L5.047,84.42c-1.356,3.889-2.428,7.832-3.23,11.883l-0.096,0.505
		c-0.325,1.67-0.625,3.356-0.8,4.709l-0.067,0.451c-0.164,1.121-0.426,2.9-0.559,5.175c-1.37,15.543,2.08,32.108,9.647,46.524
		c3.096,6.018,6.583,11.31,10.081,15.941c-1.955,5.952-2.864,12.126-2.626,18.279c0.072,8.515,2.378,15.849,4.146,20.711
		l0.196,0.541l0.22,0.536c0.974,2.394,2.261,5.355,4.13,8.691l-0.132,0.324l0.895,0.999c0.68,1.153,1.429,2.347,2.258,3.573
		l0.324,0.48c0.093,1.317,0.216,2.443,0.316,3.363l0.095,0.877l0.147,0.872c1.044,6.198,2.673,10.754,3.457,12.946l2.447,6.951
		l0.568,1.243c1.43,3.129,2.987,5.588,3.916,7.054l0.929,1.484l0.703,0.954c2.904,3.938,5.987,7.368,9.173,10.196
		c5.392,4.91,10.327,8.037,13.392,9.854c3.624,2.188,6.618,3.604,8.251,4.38l0.308,0.147c0.856,0.394,2.042,0.943,3.526,1.484
		c3.047,1.42,5.963,2.733,8.698,3.911c7.197,53.384,35.26,97.829,82.045,129.46c40.046,27.074,93.856,43.232,143.942,43.232
		c2.178,0,4.326-0.029,6.452-0.09c21.384-0.611,32.209-17.539,38.412-29.668c57.974-28.5,95.192-75.82,106.325-134.549
		c0.164-0.078,0.865-0.402,0.865-0.402c1.965-0.874,3.977-1.775,6.506-3.021l0.656-0.332c2.99-1.558,6.542-3.512,10.356-6.227
		c2.04-1.403,3.999-2.934,5.838-4.557c2.438-2.041,4.426-4.138,5.971-5.869c2.987-3.174,4.923-6.282,6.243-8.403l0.82-1.312
		l0.449-0.812c1.752-3.202,2.785-6.058,3.471-7.944l0.271-0.738c0.826-1.969,1.6-4.137,1.752-4.582
		c1.256-3.473,2.221-7.137,2.854-10.885l0.104-0.588l0.074-0.59c0.08-0.627,0.201-1.537,0.299-2.689l0.578-0.834
		c1.902-2.817,3.434-5.396,4.672-7.875c1.57-3.027,2.562-5.539,3.443-7.859l0.248-0.689c1.389-3.934,2.402-7.892,3.018-11.769
		l0.121-0.832c1.174-8.98,0.475-17.405-2.08-25.095c2.914-3.854,5.824-8.164,8.521-12.951
		C535.574,156.998,539.641,140.858,539.033,125.536z"/>
	<path fill="#FFFFFF" d="M141.465,173.221c-12.726-30.26-88.338-127.471-96.12-63.515c-3.461,28.454,27.828,49.004,38.39,61.538
		c-4.454,0.877-8.777,0.52-12.25,2.743c-3.607,2.31-8.296,6.535-9.005,11.004c-0.667,4.252,2.356,11.406,5.266,14.609
		c5.836,6.435,10.952,9.011,16.819,13.888c-17.979-0.603-11.878,10.877-10.771,16.927c1.359,7.403,10.639,13.932,15.574,16.881
		c15.653,9.336,13.075,8.639,30.554,17.485"/>
	<path fill="#FFFFFF" d="M405.626,189.893c12.727-30.259,80.426-129.783,88.207-65.827c3.456,28.453-27.83,49.005-38.39,61.537
		c4.453,0.878,8.772,0.521,12.246,2.745c3.61,2.308,8.299,6.534,9.004,11.003c0.668,4.252-2.352,11.405-5.262,14.61
		c-5.841,6.435-10.955,9.01-16.82,13.888c17.98-0.604,11.879,10.876,10.771,16.927c-1.358,7.404-10.64,13.931-15.575,16.879
		c-15.648,9.339-12.34,9.67-29.82,18.514"/>
	<g>
		<path fill="#231F20" d="M83.363,222.282C84.658,222.767,84.334,222.643,83.363,222.282L83.363,222.282z"/>
		<path fill="#231F20" d="M78.313,190.01L78.313,190.01C78.313,190.01,78.319,190.004,78.313,190.01L78.313,190.01z"/>
		<path fill="#231F20" d="M480.94,180.494l1.819-1.797c0.713-0.685,1.424-1.467,2.137-2.197c5.678-5.93,11.354-12.578,15.965-20.774
			c4.617-8.084,7.84-18.408,7.422-28.975l-0.219-3.934c-0.105-1.258-0.297-2.279-0.449-3.426c-0.354-2.261-0.83-4.603-1.455-7.019
			l-0.551-1.866c-0.182-0.601-0.355-1.208-0.699-2.106l-0.959-2.435l-1.23-2.498c-1.682-3.324-3.93-6.318-6.66-8.707
			c-5.439-4.865-13.014-6.847-20.26-5.702c-1.827,0.252-3.612,0.773-5.396,1.311c-1.761,0.589-3.584,1.346-4.961,2.035
			c-1.629,0.775-2.479,1.311-3.67,1.981c-1.056,0.648-2.131,1.306-3.092,1.979c-7.827,5.404-13.641,11.286-19.223,17.276
			c-5.512,6.008-10.504,12.19-15.254,18.496c-7.045,9.449-13.543,19.055-19.598,29.15c-64.121-93.689-201.778-89.608-259.128-10.669
			c-7.57-12.313-15.86-23.551-24.938-34.497c-5.218-6.212-10.697-12.262-16.674-18.083c-6.015-5.81-12.401-11.437-20.393-16.473
			c-4.093-2.468-8.512-4.884-14.492-6.474c-7.172-1.912-15.563-1.356-22.019,2.69c-3.252,1.977-6.047,4.674-8.28,7.802
			c-2.3,3.306-3.625,6.384-4.571,8.951c-0.915,2.621-1.593,5.157-2.067,7.562c-0.232,1.199-0.48,2.418-0.631,3.57
			c-0.16,1.181-0.364,2.254-0.416,3.679c-1.079,10.797,1.809,21.663,6.312,30.244c4.489,8.727,10.314,15.631,16.114,21.78
			l4.731,4.806l-1.184,1.09c-5.405,5.259-9.281,12.361-8.798,19.899c-0.068,3.688,1.062,7.528,2.292,10.913
			c1.126,2.771,2.286,5.205,4.144,7.955c-0.043-0.105,1.016,1.628,3.717,4.214c2.131,1.956,1.447,1.013,1.925,1.202
			c0.29,0.006,0.76,0.065,1.448,0.297l0.472,0.168c0.002,0.012-0.009,0.012-0.034,0.033c-0.051,0.039-0.172,0.106-0.297,0.313
			c-0.042,0.062-0.072,0.142-0.098,0.24c-0.026,0.065,0.03-0.046-0.065,0.166l-0.235,0.535l-0.24,0.535
			c-0.042,0.117-0.065,0.117-0.129,0.328l-0.194,0.669c-1.155,3.886-0.798,6.634-0.537,9.024c0.74,4.398,2.038,7.422,2.415,8.628
			c0.569,1.623,1.135,3.229,1.694,4.811c0.677,1.479,1.548,2.773,2.333,4.029c1.649,2.24,3.342,4.142,4.964,5.561
			c3.257,2.99,6.229,4.917,8.723,6.396c2.491,1.502,4.572,2.463,5.593,2.951c1.136,0.526,1.651,0.715,1.388,0.48
			c3.649,1.73,7.173,3.333,10.46,4.744c3.21,1.468,6.629,2.445,9.41,3.347c2.726,0.827,5.091,1.422,7.029,1.761
			c3.29,121.516,124.154,167.086,202.566,164.834c7.239-0.207,12.039-13.924,17.077-23.336c2.728-0.689,5.354-1.588,7.812-2.781
			c60.36-29.348,87.793-78.359,92.63-128.043c0.342-0.15,0.657-0.26,1.01-0.429c1.061-0.479,2.18-0.983,3.36-1.521
			c1.081-0.547,2.22-1.12,3.416-1.725c2.365-1.299,5.021-2.397,7.844-3.771c1.915-0.855,3.798-1.678,6.267-2.891
			c2.307-1.203,4.637-2.494,6.942-4.162c1.161-0.782,2.314-1.674,3.455-2.707c1.152-0.92,2.278-2.12,3.384-3.377
			c1.131-1.123,2.131-2.834,3.143-4.439c0.924-1.688,1.484-3.682,2.244-5.55c0.248-0.563,0.787-1.933,1.296-3.384
			c0.524-1.454,1.081-3.385,1.453-5.579c0.307-2.353,0.482-5.279-0.604-8.847c-0.201-0.641-0.3-0.773-0.452-1.181l-0.202-0.484
			l-0.02-0.086c-0.016-0.118-0.046-0.208-0.079-0.283c-0.124-0.246-0.229-0.331-0.253-0.375c0-0.057-0.132-0.002,0.441-0.191
			c0.791-0.253,1.307-0.325,1.644-0.341c0.336-0.015,0.513,0.042,0.623,0.103l0.069,0.039c-0.025,0.038,0.041-0.01,0.16-0.118
			c0.095-0.078,0.18-0.149,0.254-0.216c0.3-0.255,0.457-0.392,0.457-0.392l0.592-0.58l0.295-0.292l0.149-0.145l0.072-0.072
			l0.603-0.628l0.069-0.078c0.71-0.845,1.405-1.714,2.068-2.6c1.051-1.554,2.026-3.132,2.75-4.613
			c0.838-1.59,1.35-2.853,2.099-4.824c0.732-2.079,1.306-4.204,1.647-6.362c0.561-4.293,0.414-8.722-1.274-12.736
			c-1.484-4.055-4.171-7.655-7.315-10.736c-0.369-0.298-0.714-0.617-1.061-0.932l-0.041-0.034l-0.014-0.011l-0.037-0.015
			c-0.022-0.003-0.053-0.003-0.018-0.028l0.06-0.05C480.932,180.498,480.969,180.465,480.94,180.494z M78.156,220.341l-0.036-0.018
			l-0.005-0.003c-0.156-0.057-0.054-0.021,0.189,0.072c-0.024-0.013-0.047-0.01-0.073-0.021L78.156,220.341z M114.3,258.09
			c-3.82-3.406-9.614-7.898-17.837-14.574c-3.605-2.918-6.6-5.37-9.146-8.367c-0.652-0.719-1.223-1.439-1.683-2.158
			c-0.574-0.712-0.892-1.401-1.217-2.036c-0.457-0.665-0.375-1.186-0.568-1.609c-0.084-0.442,0.057-0.802-0.021-1.132
			c-0.241-1.566-0.479-3.126-0.716-4.668c-0.087-0.568-0.117-1.022-0.126-1.403c0.133,0.05,0.258,0.096,0.376,0.141
			c-0.079-0.029-0.129-0.047-0.223-0.083l0.068,0.019l0.136,0.039l1.088,0.318l2.179,0.638l4.37,1.28
			c1.445,0.387,2.955,0.946,4.354,1.196l3.923-0.054c6.001-0.062,11.95-0.124,17.84-0.18c-2.84-2.417-3.513-3.122-4.974-4.438
			l-1.905-1.747l-0.817-0.875l-0.83-0.875c-0.24-0.261-0.669-0.673-0.653-0.724l-0.479-0.76l-0.254-0.383
			c-0.055-0.1,0.018-0.095,0.018-0.149l0.086-0.245c0.62,0.25-1.316-1.3-2.463-2.298c-5.179-4.373-9.792-8.268-13.643-11.521
			c-4.147-3.383-7.603-6.155-9.691-8.283c-2.548-2.329-2.406-2.413-2.565-2.537l-0.616-0.61c0,0,0,0-0.002,0.004l0,0
			c0,0,0,0,0.002-0.004l-0.009-0.006c-0.102-0.196-0.261-0.441-0.429-0.749c0.045-0.072,0.059-0.093-0.003-0.003
			c-0.054-0.098-0.105-0.181-0.163-0.303c-0.238-0.35-0.489-1.152-0.584-1.274l-0.002-0.025c0-0.03,0.025-0.054,0.046-0.066
			c0.012-0.045,0.044-0.072,0.075-0.095c-0.045,0.008,0.269-0.163,0.457-0.271l0.631-0.354c0.458-0.22,0.763-0.524,1.341-0.671
			l2.031-0.258c2.614-0.283,5.631-0.841,8.652-1.347l17.191-2.895l3.424-0.574c0.209-0.062,0.726-0.06,0.685-0.18l-0.388-0.433
			l-0.775-0.866l-2.626-2.936l-6.919-7.676l-7.125-7.892c-2.561-2.654-5.119-5.357-7.896-8.011l-7.985-7.667
			c-1.31-1.267-2.533-2.533-3.727-3.794c-4.785-5.038-8.905-10.174-11.448-15.232c-2.584-5.083-3.646-9.773-3.228-14.402
			c0.187-2.682,0.869-5.885,1.561-7.809c0.408-1.04,0.665-1.521,0.58-1.376l0.018-0.012c0.073,0.012-0.108-0.048,0.168,0.045
			c1.506,0.366,4.028,1.539,6.507,3.08c5.09,3.188,10.437,7.729,15.487,12.655c5.076,4.947,9.974,10.345,14.676,15.951
			c9.599,11.523,18.716,24.108,25.882,36.678c0.403,0.463,1.674,1.091,1.99,1.205c2.029,0.7,3.858,1.172,5.554,1.481
			c-2.218,4.938-4.183,10.073-5.838,15.422C118.346,214.467,114.656,237.331,114.3,258.09z M409.399,289.041
			c-33.523,128.116-148.614,96.894-155.726,98.155C113.955,344.59,69.294,200.49,224.718,124.963
			C325.979,75.75,436.99,183.62,409.399,289.041z M454.42,243.069c-0.057,0.249-0.209,0.535-0.281,0.893
			c-0.411,0.766-0.88,1.68-1.674,2.59c-1.412,1.828-3.264,3.543-4.844,4.862c-1.562,1.356-2.863,2.271-4.012,3.204
			c-1.031,0.822-1.447,1.216-1.109,1.073c-2.6,2.04-5.088,4.016-7.274,5.991c0.037-7.172-0.351-14.314-1.187-21.375
			c1.932,0.021,3.852,0.039,5.783,0.06l2.116,0.03c0.698,0.037,1.398,0.058,2.222-0.273l4.732-1.406l4.71-1.399l1.172-0.347
			l0.587-0.174l0.078-0.024c-0.152,1.178-0.523,2.942-0.998,5.624C454.397,242.602,454.361,242.805,454.42,243.069z
			 M461.054,234.686l-0.039,0.015l-0.312,0.127c-0.026,0.009-0.051,0.006-0.078,0.015l0.439-0.162L461.054,234.686z
			 M475.811,141.814c-2.771,4.941-6.844,9.927-11.566,14.841c-0.603,0.613-1.151,1.229-1.793,1.849l-2.209,2.166l-8.19,7.838
			c-2.549,2.603-5.267,5.253-7.583,7.833l-6.971,7.719l-6.646,7.36l-2.675,2.967l-0.77,0.851c-0.026,0.059-0.209,0.162-0.109,0.191
			l0.414,0.069l0.829,0.143l3.403,0.571l16.945,2.852c2.939,0.49,5.91,1.031,8.467,1.304l1.993,0.256
			c0.622,0.104,0.884,0.429,1.343,0.633l1.155,0.658l0.106,0.084l-1.115,2.198c0.02-0.046-0.062,0.179-0.034,0.132l0.017,0.008
			c0.025,0.025,0.062,0.051,0.088,0.075c-0.641,0.695-0.955,1.179-3.135,3.145c-0.929,0.862-1.923,1.785-2.973,2.758
			c-1.121,0.904-2.302,1.858-3.54,2.855c-5.076,4.052-10.155,8.341-16.008,13.188c-0.718,0.599-1.442,1.204-2.175,1.809
			l-0.812,0.677c-2.544-13.797-6.642-27.15-12.116-39.591c0.399-0.184,0.785-0.37,1.146-0.559c0.997-0.426,1.104-0.631,1.416-1.196
			c6.942-13.023,15.428-26.049,24.442-38.113c4.305-5.719,8.787-11.255,13.453-16.343c4.625-5.032,9.596-9.819,14.193-12.945
			l3.168-1.894l0.072,0.201l0.428,1.411c0.306,1.228,0.595,2.572,0.823,4.027c0.084,0.715,0.246,1.551,0.277,2.167l0.06,1.698
			C479.787,132.197,478.609,136.852,475.811,141.814z"/>
	</g>
	<path fill="#231F20" d="M237.51,236.051c3.655,11.44-16.852,23.388-29.541,22.483c-12.694-0.905-19.866-19.206-18.963-31.901
		c0.907-12.686,11.505-26.742,24.194-25.837C225.891,201.7,233.637,223.936,237.51,236.051z"/>
	<path fill="#231F20" d="M364.402,229.192c-0.58,8.178-2.423,14.77-8.565,18.685c-3.808,2.431-11.546,8.825-16.284,8.488
		c-22.8-1.626-22.92-22.483-21.977-35.735c0.944-13.257,11.739-23.287,24.11-22.403
		C354.056,199.108,365.349,215.937,364.402,229.192z"/>
	<path fill="#231F20" d="M177.205,193.782c0,0-0.007-0.347-0.016-0.987c0-0.634-0.009-1.554,0.216-2.794
		c0.199-1.233,0.557-2.677,1.191-4.305c0.625-1.626,1.551-3.386,2.792-5.184c2.475-3.58,6.341-7.105,11.046-9.729
		c1.168-0.671,2.391-1.278,3.654-1.818c1.262-0.568,2.554-1.07,3.882-1.494c2.633-0.931,5.393-1.496,8.137-1.982
		c2.765-0.416,5.526-0.628,8.247-0.65c1.357,0.015,2.701,0.007,4.021,0.136c1.322,0.081,2.621,0.187,3.879,0.391
		c2.549,0.318,4.959,0.86,7.21,1.439c1.119,0.333,2.204,0.64,3.243,0.982c1.023,0.372,2.005,0.742,2.963,1.098
		c1.872,0.781,3.549,1.556,4.995,2.352c1.451,0.749,2.663,1.551,3.651,2.18c0.986,0.652,1.72,1.268,2.237,1.637
		c0.503,0.387,0.763,0.617,0.763,0.617s-1.391,0.111-3.702,0.176c-1.169,0.064-2.545,0.04-4.121,0.1
		c-1.546,0.024-3.295,0.057-5.194,0.091c-3.76,0.075-8.048,0.188-12.529,0.455c-2.243,0.1-4.533,0.352-6.838,0.521
		c-2.287,0.282-4.61,0.474-6.889,0.882c-2.28,0.346-4.543,0.764-6.72,1.266c-2.173,0.532-4.298,1.067-6.302,1.734
		c-1.986,0.68-3.908,1.379-5.668,2.188c-1.747,0.817-3.412,1.653-4.869,2.58c-1.47,0.907-2.794,1.847-3.925,2.789
		c-1.145,0.922-2.106,1.854-2.884,2.626c-0.397,0.399-0.746,0.761-1.056,1.076c-0.303,0.349-0.551,0.649-0.758,0.887
		C177.436,193.526,177.205,193.782,177.205,193.782z"/>
	<path fill="#231F20" d="M371.652,176.605c0,0-0.3-0.188-0.852-0.535c-0.277-0.177-0.613-0.401-1.001-0.665
		c-0.392-0.222-0.843-0.474-1.345-0.76c-0.978-0.538-2.193-1.189-3.575-1.76c-1.375-0.607-2.943-1.17-4.646-1.642
		c-1.697-0.503-3.563-0.851-5.518-1.17c-1.951-0.297-4.039-0.439-6.191-0.546c-2.155-0.093-4.397-0.015-6.686,0.071
		c-2.282,0.118-4.623,0.342-6.962,0.643c-2.349,0.25-4.696,0.708-7.027,1.077c-2.313,0.484-4.634,0.881-6.864,1.418
		c-4.479,0.998-8.73,2.094-12.448,3.078c-1.892,0.507-3.611,0.97-5.14,1.376c-1.568,0.385-2.912,0.8-4.081,1.064
		c-2.285,0.592-3.683,0.869-3.683,0.869s0.185-0.3,0.577-0.821c0.393-0.51,0.945-1.316,1.729-2.229
		c0.795-0.906,1.76-2.033,2.979-3.183c1.204-1.188,2.63-2.42,4.246-3.725c0.845-0.613,1.706-1.251,2.608-1.912
		c0.92-0.628,1.909-1.236,2.915-1.878c2.05-1.206,4.271-2.42,6.673-3.444c1.187-0.56,2.438-1.031,3.711-1.476
		c1.261-0.509,2.588-0.881,3.917-1.272c2.675-0.742,5.46-1.317,8.292-1.689c2.84-0.294,5.708-0.517,8.565-0.342
		c1.425,0.042,2.838,0.168,4.23,0.375c1.395,0.178,2.774,0.424,4.107,0.754c5.368,1.256,10.17,3.633,13.609,6.461
		c1.727,1.408,3.135,2.876,4.208,4.308c1.08,1.412,1.837,2.732,2.377,3.892c0.578,1.15,0.818,2.062,1.006,2.688
		C371.568,176.265,371.652,176.605,371.652,176.605z"/>
	<g>
		<g>
			<path fill="#FAAF40" d="M195.908,96.297c0,0-1.457,0.177-4.168,0.378c-2.69,0.156-6.748,0.466-11.86,0.394
				c-5.137-0.076-11.367-0.376-18.733-1.684c-3.714-0.718-7.641-1.677-12.136-3.6c-1.13-0.534-2.272-0.992-3.5-1.815
				c-0.61-0.388-1.202-0.73-1.83-1.187l-1.936-1.611c-0.623-0.478-1.323-1.334-1.972-2.119l-0.959-1.229
				c-0.312-0.445-0.62-1.058-0.907-1.605c-0.568-1.154-1.134-2.221-1.416-3.736c-0.16-0.715-0.292-1.446-0.388-2.179l-0.067-0.55
				c0.021-0.628-0.093,1.016,0.043-1.479v-0.098l-0.012-0.4l-0.019-0.803c0.093-0.767,0.3-1.803,0.55-2.692
				c0.126-0.46,0.27-0.92,0.427-1.368l0.249-0.67l0.196-0.43c0.261-0.559,0.54-1.114,0.837-1.665
				c1.181-2.133,2.517-3.742,3.783-5.071c2.559-2.647,5.099-4.553,7.539-6.142c4.936-3.243,9.837-5.393,14.854-7.502
				c10.032-4,20.517-6.936,31.417-9.226c5.433-1.204,10.981-2.137,16.593-2.982c5.604-0.857,11.285-1.578,17.018-2.089
				c11.461-1.121,23.113-1.71,34.756-1.734l8.648,0.082c2.959,0.044,5.914,0.147,8.798,0.277c5.802,0.204,11.576,0.685,17.31,1.184
				c5.729,0.465,11.411,1.134,17.018,1.981c5.609,0.811,11.152,1.673,16.589,2.849c10.892,2.203,21.369,5.019,31.365,8.803
				c4.992,1.978,9.865,4.027,14.705,6.883c2.395,1.403,4.849,3.065,7.281,5.055c2.407,2.11,5.174,4.572,7.301,9.098
				c0.52,1.004,0.933,2.524,1.243,3.778c0.167,0.64,0.214,1.433,0.275,2.146l0.053,1.091l0.009,0.541l-0.002,0.267
				c0.023-0.18-0.189,2.699-0.111,1.518l-0.459,1.614c-0.432,1.583-1.072,3.168-1.854,4.568c-1.236,1.83-2.551,3.324-3.784,4.295
				c-1.282,1.189-2.448,1.788-3.643,2.549c-4.66,2.572-8.604,3.6-12.351,4.448c-7.425,1.613-13.651,1.947-18.804,2.091
				c-5.13,0.132-9.152-0.147-11.871-0.276c-2.727-0.18-4.179-0.349-4.179-0.349s1.327-0.652,3.802-1.743
				c2.485-1.052,6.073-2.801,10.562-4.859c4.43-2.146,9.867-4.725,15.24-8.142c2.611-1.692,5.45-3.604,7.026-5.587
				c0.746-0.905,1.146-1.929,0.677-1.675c-0.391,0.466-0.646,1.11-0.682,1.75l-0.014-1.437c0.078-1.247-0.108,1.569-0.1,1.323
				l-0.023,0.078l-0.035,0.154c-0.022,0.105-0.036,0.213-0.038,0.319c-0.031,0.201,0.056,0.454,0.022,0.606
				c-0.094,0.292,0.149,0.74,0.067,0.863c0.106,0.796-0.429,0.286-1.595-0.136c-1.209-0.465-2.674-1.013-4.43-1.487
				c-3.428-0.995-7.535-1.903-11.854-2.579c-8.663-1.466-18.321-2.383-28.354-3.125c-5.026-0.306-10.159-0.682-15.375-0.911
				c-5.229-0.198-10.522-0.396-15.859-0.598c-5.345-0.187-10.745-0.195-16.166-0.297c-5.431-0.027-10.877-0.054-16.327-0.081
				c-10.905,0.023-21.793,0.171-32.48,0.502c-5.333,0.225-10.619,0.447-15.843,0.669c-5.184,0.339-10.309,0.676-15.346,1.007
				c-9.998,0.823-19.617,1.839-28.143,3.423c-4.231,0.742-8.259,1.752-11.385,2.781c-1.614,0.492-2.846,1.07-3.574,1.337
				c-0.372,0.126-0.514,0.159-0.472-0.147c0.021-0.088,0.03-0.181,0.018-0.276c0.003-0.027-0.012-0.036-0.002-0.082l0.114-0.292
				c0.069-0.198,0.124-0.403,0.163-0.613c0.075-0.385,0.087-0.923,0.031-1.181l-0.206,0.775l-0.101,0.388l-0.026,0.096
				c0.137-2.431,0.039-0.722,0.068-1.283l-0.013-0.16c-0.023-0.212-0.081-0.426-0.167-0.625c-0.253-0.445-0.278-0.592-0.461-0.791
				c-0.068-0.078-0.225-0.186-0.267-0.198c-0.011,0-0.036,0.009-0.066,0.024c-0.036,0.036-0.222,0.069-0.068,0.256
				c0.076,0.156,0.141,0.328,0.205,0.517c0.119,0.202,0.345,0.427,0.512,0.652c0.294,0.451,0.853,0.956,1.352,1.449
				c2.133,2.02,5.028,3.787,7.742,5.463c5.608,3.24,11.045,5.756,15.525,7.842C190.655,93.958,195.908,96.297,195.908,96.297z"/>
		</g>
	</g>
	<g>
		<path fill="#EC1C24" d="M204.868,308.284c-0.392-0.459-0.553-0.609-0.667-1.566c-0.271-1.586-0.457-3.256-0.048-5.01
			c0.379-1.711,1.16-3.199,2.385-4.21c1.269-1.024,2.886-1.59,4.942-1.761c2.064-0.184,4.307-0.043,7.096,0.138
			c0.195,0.022,0.971,0.181,1.279,0.358c2.468,2.891,6.031,5.674,9.991,8.01c3.979,2.35,8.367,4.32,12.936,5.926
			c3.737,1.371,7.657,2.336,11.577,3.221c3.952,0.742,7.938,1.396,11.942,1.611c5.417,0.383,10.839,0.277,16.143-0.342
			c0,0,0.416-0.023,1.171-0.068c0.756-0.068,1.884-0.062,3.248-0.232c2.741-0.303,6.636-0.729,10.961-1.832
			c8.754-1.893,19.148-6.789,26.782-12.785c1.658-1.225,3.017-2.516,4.301-3.667c0.646-0.574,1.266-1.124,1.855-1.644
			c0.548-0.557,1.07-1.08,1.569-1.58c0.998-0.993,1.944-1.848,2.757-2.617c0.766-0.807,1.458-1.48,2.082-2.037
			c2.504-2.221,3.81-2.547,4.205-1.307c0.35,1.215-0.133,4.062-1.603,7.822c-1.554,3.7-4.027,8.41-7.785,12.912
			c0.494-0.373-1.416,2.195-5.182,5.785c-3.779,3.549-9.528,8.029-16.079,11.447c-1.649,0.805-3.298,1.666-4.964,2.414
			c-1.695,0.688-3.367,1.369-4.982,2.027c-1.662,0.547-3.271,1.08-4.797,1.588c-1.535,0.492-3.022,0.816-4.385,1.188
			c-5.474,1.346-9.245,1.824-9.245,1.824c-5.702,0.592-11.421,0.523-17.095,0.172c-4.89-0.293-9.735-1.055-14.548-1.965
			c-4.785-1.049-9.55-2.23-14.206-3.908c-5.661-1.99-11.208-4.451-16.557-7.607C214.616,317.407,209.424,313.583,204.868,308.284z"
			/>
	</g>
</g>
</svg>
