<?xml version="1.0" encoding="utf-8"?>
<!-- Generator: Adobe Illustrator 16.0.0, SVG Export Plug-In . SVG Version: 6.00 Build 0)  -->
<!DOCTYPE svg PUBLIC "-//W3C//DTD SVG 1.1//EN" "http://www.w3.org/Graphics/SVG/1.1/DTD/svg11.dtd">
<svg version="1.1" id="Layer_1" xmlns="http://www.w3.org/2000/svg" xmlns:xlink="http://www.w3.org/1999/xlink" x="0px" y="0px"
	 width="550px" height="550px" viewBox="-85.106 -76.564 550 550" enable-background="new -85.106 -76.564 550 550"
	 xml:space="preserve">
<path fill="#FFFFFF" d="M225.91,396.928c-57.737,0-142.203-23.125-190.244-88.293c-25.925-35.164-50.749-96.709-21.794-190.221
	C35.801,47.587,104.464,0,184.73,0c75.287,0,139.955,40.18,172.996,107.482c23.629,48.131,27.596,103.634,10.881,152.282
	c-16.071,46.776-50.078,84.023-98.367,107.767c-6.124,11.979-16.821,28.706-37.953,29.31c-2.09,0.06-4.215,0.088-6.366,0.088
	C225.917,396.928,225.913,396.928,225.91,396.928z"/>
<path fill="#231F20" d="M330.433,120.881C266.938-8.453,80.112,7.268,42.917,127.406c-54.981,177.57,96.41,241.688,188.504,239.038
	c7.154-0.205,11.893-13.754,16.872-23.054c2.69-0.681,5.289-1.567,7.716-2.752C355.274,292.376,364.501,190.28,330.433,120.881z
	 M322.792,225.896c-33.119,126.564-146.809,95.734-153.854,96.977C30.898,280.777-13.228,138.411,140.331,63.788
	C240.375,15.17,350.052,121.742,322.792,225.896z"/>
<path fill="#EC1C24" d="M276.246,199.727c-0.445-1.472-1.959-1.085-4.904,1.545c-0.735,0.66-1.554,1.459-2.459,2.41
	c-0.948,0.908-2.065,1.918-3.248,3.102c-0.588,0.587-1.21,1.209-1.855,1.863c-0.691,0.617-1.421,1.267-2.186,1.942
	c-1.512,1.365-3.108,2.892-5.058,4.341c-8.979,7.094-21.127,12.895-31.318,15.135c-5.033,1.304-9.558,1.81-12.744,2.172
	c-1.59,0.201-2.894,0.195-3.769,0.273c-0.878,0.055-1.362,0.081-1.362,0.081c-6.16,0.738-12.449,0.861-18.719,0.417
	c-4.637-0.259-9.247-1.031-13.816-1.912c-4.522-1.047-9.051-2.184-13.359-3.807c-5.256-1.891-10.308-4.221-14.874-7.003
	c-4.545-2.765-8.616-6.056-11.419-9.472c-0.356-0.215-1.251-0.398-1.479-0.424c-3.229-0.216-5.823-0.38-8.222-0.164
	c-2.385,0.205-4.273,0.875-5.767,2.084c-1.441,1.201-2.376,2.959-2.849,4.983c-0.511,2.073-0.335,4.056-0.047,5.929
	c0.11,1.129,0.291,1.31,0.74,1.85c5.175,6.27,11.113,10.789,17.23,14.55c6.138,3.737,12.522,6.646,19.046,8.999
	c0.646,0.238,1.3,0.443,1.95,0.667c0.492,31.371,6.18,55.905,33.856,55.851c27.244-0.059,33.552-23.312,34.673-53.889
	c1.306-0.438,2.639-0.884,4.019-1.348c1.893-0.776,3.838-1.584,5.817-2.399c1.947-0.884,3.875-1.899,5.802-2.856
	c7.666-4.043,14.426-9.348,18.881-13.545c4.442-4.246,6.705-7.287,6.133-6.849c4.445-5.326,7.406-10.896,9.289-15.272
	C276.009,204.527,276.62,201.162,276.246,199.727z"/>
<path fill="#231F20" d="M97.159,180.797c0,0-0.08-0.389-0.229-1.119c-0.127-0.722-0.332-1.774-0.335-3.235
	c-0.032-1.448,0.069-3.167,0.457-5.156c0.366-1.99,1.056-4.194,2.097-6.496c2.07-4.608,5.737-9.438,10.553-13.42
	c1.195-1.012,2.462-1.958,3.789-2.841c1.319-0.912,2.688-1.757,4.116-2.521c2.813-1.613,5.836-2.834,8.867-3.967
	c3.067-1.055,6.178-1.879,9.272-2.469c1.547-0.271,3.08-0.563,4.613-0.69c1.522-0.183,3.028-0.337,4.513-0.37
	c2.969-0.167,5.828-0.057,8.519,0.131c1.348,0.143,2.651,0.269,3.908,0.438c1.248,0.217,2.452,0.427,3.611,0.63
	c2.298,0.503,4.371,1.033,6.187,1.632c1.818,0.557,3.366,1.212,4.633,1.728c1.257,0.533,2.224,1.08,2.887,1.393
	c0.655,0.336,1.004,0.543,1.004,0.543s-1.566,0.429-4.188,0.978c-1.324,0.323-2.896,0.583-4.677,0.979
	c-1.758,0.357-3.744,0.757-5.906,1.193c-4.279,0.875-9.142,1.909-14.199,3.155c-2.543,0.581-5.096,1.348-7.688,2.025
	c-2.554,0.8-5.167,1.513-7.673,2.451c-2.533,0.871-5.024,1.826-7.402,2.858c-2.364,1.059-4.68,2.12-6.824,3.3
	c-2.129,1.191-4.172,2.392-6.013,3.684c-1.814,1.299-3.542,2.601-5.004,3.964c-1.49,1.341-2.802,2.698-3.896,4.002
	c-1.114,1.291-2.02,2.56-2.741,3.601c-0.369,0.543-0.697,1.027-0.98,1.449c-0.268,0.463-0.49,0.856-0.678,1.177
	C97.367,180.458,97.159,180.797,97.159,180.797z"/>
<path fill="#231F20" d="M280.09,172.903c0,0-0.239-0.315-0.694-0.908c-0.217-0.296-0.483-0.663-0.793-1.095
	c-0.33-0.389-0.707-0.835-1.127-1.337c-0.83-0.963-1.871-2.128-3.115-3.292c-1.217-1.183-2.672-2.394-4.289-3.572
	c-1.604-1.201-3.45-2.312-5.397-3.413c-1.963-1.09-4.126-2.068-6.364-3.029c-2.255-0.949-4.672-1.757-7.137-2.563
	c-2.475-0.775-5.051-1.462-7.656-2.059c-2.595-0.669-5.267-1.102-7.898-1.629c-2.647-0.397-5.27-0.892-7.854-1.201
	c-5.158-0.71-10.104-1.222-14.445-1.642c-2.203-0.206-4.217-0.396-6.004-0.562c-1.815-0.211-3.414-0.3-4.754-0.481
	c-2.674-0.273-4.265-0.531-4.265-0.531s0.317-0.245,0.933-0.648c0.631-0.382,1.53-1.023,2.726-1.688
	c1.206-0.647,2.676-1.46,4.424-2.206c1.744-0.786,3.751-1.534,5.981-2.278c1.132-0.321,2.311-0.656,3.523-1.007
	c1.23-0.299,2.512-0.562,3.842-0.848c2.656-0.47,5.488-0.879,8.455-1.029c1.484-0.122,2.996-0.127,4.528-0.108
	c1.538-0.032,3.095,0.096,4.66,0.201c3.144,0.263,6.317,0.755,9.479,1.475c3.135,0.809,6.271,1.703,9.242,3.013
	c1.491,0.611,2.947,1.305,4.348,2.072c1.414,0.738,2.778,1.544,4.07,2.425c5.209,3.452,9.37,7.867,11.912,12.232
	c1.277,2.18,2.198,4.298,2.773,6.239c0.592,1.934,0.873,3.637,0.996,5.079c0.154,1.451,0.057,2.521,0.006,3.251
	C280.124,172.506,280.09,172.903,280.09,172.903z"/>
<path fill="#231F20" d="M276.119,116.501c0,0-0.384-0.123-1.091-0.353c-0.344-0.124-0.77-0.279-1.271-0.46
	c-0.491-0.135-1.057-0.293-1.688-0.468c-1.221-0.327-2.744-0.704-4.422-0.965c-1.674-0.289-3.556-0.469-5.56-0.529
	c-1.997-0.088-4.153,0.04-6.385,0.226c-2.234,0.208-4.569,0.616-6.964,1.093c-2.397,0.488-4.848,1.187-7.34,1.905
	c-2.479,0.755-4.996,1.643-7.484,2.622c-2.516,0.907-4.969,2.059-7.436,3.104c-2.414,1.166-4.858,2.236-7.162,3.437
	c-4.662,2.328-9.035,4.692-12.859,6.797c-1.936,1.074-3.699,2.051-5.271,2.92c-1.614,0.851-2.986,1.675-4.196,2.283
	c-2.358,1.283-3.823,1.97-3.823,1.97s0.128-0.381,0.41-1.062c0.295-0.668,0.683-1.708,1.295-2.929
	c0.63-1.215,1.387-2.718,2.411-4.319c0.995-1.63,2.231-3.38,3.651-5.253c0.756-0.906,1.535-1.847,2.346-2.818
	c0.848-0.944,1.755-1.884,2.691-2.865c1.928-1.892,4.036-3.829,6.403-5.621c1.151-0.938,2.399-1.797,3.681-2.643
	c1.241-0.891,2.604-1.667,3.954-2.464c2.745-1.556,5.646-2.94,8.661-4.126c3.046-1.106,6.143-2.132,9.33-2.726
	c1.58-0.339,3.175-0.585,4.766-0.744c1.582-0.184,3.166-0.291,4.729-0.292c6.251-0.086,12.171,1.215,16.734,3.379
	c2.287,1.082,4.237,2.313,5.805,3.59c1.581,1.263,2.773,2.51,3.688,3.635c0.947,1.109,1.476,2.044,1.84,2.681
	C275.923,116.155,276.119,116.501,276.119,116.501z"/>
<path fill="#231F20" d="M94.018,105.801c0,0,0.392-0.073,1.125-0.208c0.36-0.079,0.803-0.175,1.325-0.289
	c0.506-0.068,1.084-0.15,1.735-0.24c1.248-0.165,2.805-0.34,4.507-0.375c1.695-0.066,3.583,0.001,5.582,0.204
	c1.99,0.176,4.109,0.585,6.292,1.062c2.187,0.5,4.453,1.213,6.763,1.998c2.313,0.8,4.654,1.813,7.027,2.855
	c2.36,1.072,4.734,2.283,7.075,3.58c2.373,1.229,4.652,2.695,6.964,4.055c2.238,1.473,4.522,2.856,6.651,4.349
	c4.312,2.918,8.338,5.836,11.851,8.427c1.779,1.315,3.402,2.518,4.846,3.587c1.494,1.057,2.741,2.051,3.86,2.813
	c2.174,1.583,3.537,2.455,3.537,2.455s-0.077-0.392-0.27-1.107c-0.208-0.702-0.457-1.778-0.9-3.072
	c-0.466-1.287-1.019-2.877-1.825-4.598c-0.77-1.748-1.765-3.645-2.928-5.687c-0.63-0.997-1.283-2.033-1.954-3.104
	c-0.715-1.044-1.493-2.096-2.296-3.194c-1.662-2.125-3.501-4.324-5.609-6.41c-1.019-1.084-2.14-2.097-3.296-3.106
	c-1.12-1.047-2.366-1.996-3.601-2.964c-2.518-1.9-5.208-3.654-8.044-5.226c-2.874-1.497-5.811-2.92-8.89-3.927
	c-1.52-0.545-3.07-0.998-4.626-1.364c-1.543-0.391-3.097-0.706-4.647-0.909c-6.182-0.91-12.228-0.396-17.038,1.152
	c-2.405,0.77-4.504,1.732-6.224,2.793c-1.736,1.046-3.079,2.125-4.132,3.12c-1.084,0.975-1.725,1.834-2.177,2.417
	C94.255,105.483,94.018,105.801,94.018,105.801z"/>
</svg>
