<?xml version="1.0" encoding="utf-8"?>
<!-- Generator: Adobe Illustrator 16.0.0, SVG Export Plug-In . SVG Version: 6.00 Build 0)  -->
<!DOCTYPE svg PUBLIC "-//W3C//DTD SVG 1.1//EN" "http://www.w3.org/Graphics/SVG/1.1/DTD/svg11.dtd">
<svg version="1.1" id="Layer_1" xmlns="http://www.w3.org/2000/svg" xmlns:xlink="http://www.w3.org/1999/xlink" x="0px" y="0px"
	 width="550px" height="550px" viewBox="-85.961 -76.564 550 550" enable-background="new -85.961 -76.564 550 550"
	 xml:space="preserve">
<path fill="#FFFFFF" d="M205.199,396.419c-0.004,0,0,0-0.004,0c-1.295-0.003-2.603-0.073-3.889-0.215"/>
<path fill="#FFFFFF" d="M225.126,397.08c-57.758,0-142.257-23.135-190.316-88.328c-25.936-35.177-50.769-96.746-21.804-190.293
	C34.943,47.605,103.633,0,183.932,0c75.313,0,140.007,40.195,173.061,107.523c23.636,48.15,27.604,103.677,10.884,152.344
	c-16.079,46.794-50.091,84.05-98.4,107.802c-6.131,11.986-16.83,28.716-37.966,29.321c-2.097,0.06-4.221,0.09-6.375,0.09
	C225.132,397.08,225.129,397.08,225.126,397.08z"/>
<path fill="#231F20" d="M329.688,120.928C266.169-8.457,79.271,7.271,42.063,127.455c-55.002,177.641,96.446,241.78,188.576,239.129
	c7.155-0.204,11.899-13.762,16.879-23.062c2.693-0.684,5.291-1.567,7.719-2.749C354.542,292.488,363.77,190.353,329.688,120.928z
	 M322.044,225.98c-33.132,126.628-146.884,95.768-153.913,97.015C30.039,280.886-14.103,138.464,139.513,63.812
	C239.595,15.176,349.314,121.789,322.044,225.98z"/>
<path fill="#231F20" d="M88.652,158.686c0,0,0.039-0.397,0.116-1.138c0.083-0.73,0.19-1.795,0.618-3.193
	c0.392-1.396,0.99-3.012,1.938-4.803c0.933-1.797,2.233-3.706,3.9-5.605c3.321-3.805,8.243-7.359,14.011-9.767
	c1.438-0.621,2.926-1.157,4.454-1.617c1.526-0.486,3.083-0.897,4.669-1.212c3.164-0.725,6.414-1.013,9.646-1.212
	c3.24-0.115,6.455,0,9.592,0.337c1.56,0.192,3.113,0.359,4.616,0.683c1.509,0.27,2.998,0.56,4.426,0.961
	c2.89,0.704,5.593,1.641,8.115,2.607c1.248,0.53,2.46,1.031,3.612,1.559c1.129,0.569,2.219,1.123,3.271,1.652
	c2.056,1.152,3.885,2.265,5.448,3.368c1.578,1.059,2.87,2.139,3.927,3c1.051,0.877,1.817,1.68,2.361,2.173
	c0.529,0.514,0.796,0.812,0.796,0.812s-1.616-0.046-4.292-0.284c-1.354-0.076-2.935-0.285-4.762-0.425
	c-1.782-0.171-3.799-0.367-5.998-0.581c-4.349-0.406-9.306-0.834-14.508-1.115c-2.596-0.184-5.27-0.194-7.945-0.301
	c-2.68,0.021-5.383-0.056-8.06,0.112c-2.673,0.093-5.338,0.28-7.913,0.576c-2.572,0.327-5.094,0.667-7.491,1.172
	c-2.386,0.519-4.69,1.073-6.827,1.773c-2.121,0.715-4.15,1.458-5.95,2.335c-1.815,0.854-3.463,1.766-4.893,2.699
	c-1.44,0.909-2.676,1.859-3.669,2.645c-0.514,0.411-0.962,0.782-1.36,1.102c-0.392,0.365-0.722,0.676-0.992,0.928
	C88.953,158.421,88.652,158.686,88.652,158.686z"/>
<path fill="#231F20" d="M284.468,157.075c0,0-0.278-0.284-0.802-0.813c-0.25-0.271-0.562-0.604-0.924-0.997
	c-0.374-0.348-0.803-0.747-1.281-1.192c-0.936-0.856-2.107-1.888-3.48-2.896c-1.356-1.026-2.938-2.055-4.693-3.031
	c-1.733-1-3.706-1.879-5.771-2.739c-2.078-0.848-4.346-1.56-6.687-2.243c-2.353-0.67-4.851-1.182-7.396-1.688
	c-2.546-0.474-5.189-0.845-7.852-1.124c-2.659-0.352-5.359-0.46-8.032-0.668c-2.683-0.077-5.347-0.252-7.948-0.248
	c-5.207-0.083-10.184,0.002-14.545,0.107c-2.216,0.061-4.234,0.116-6.029,0.164c-1.83,0.01-3.424,0.113-4.778,0.093
	c-2.687,0.052-4.299-0.013-4.299-0.013s0.282-0.279,0.853-0.753c0.573-0.458,1.393-1.203,2.501-2.007
	c1.117-0.787,2.48-1.771,4.126-2.721c1.637-0.991,3.541-1.977,5.665-2.982c1.087-0.456,2.216-0.933,3.38-1.424
	c1.188-0.446,2.428-0.86,3.715-1.301c2.582-0.79,5.346-1.537,8.274-2.041c1.456-0.299,2.955-0.487,4.481-0.651
	c1.52-0.217,3.08-0.28,4.649-0.363c3.151-0.119,6.369-0.01,9.595,0.327c3.211,0.422,6.435,0.936,9.537,1.879
	c1.562,0.426,3.084,0.94,4.572,1.535c1.487,0.566,2.943,1.201,4.331,1.92c5.591,2.801,10.251,6.688,13.308,10.715
	c1.53,2.009,2.697,4.004,3.5,5.86c0.819,1.851,1.305,3.507,1.599,4.927c0.333,1.423,0.362,2.494,0.397,3.229
	C284.455,156.679,284.468,157.075,284.468,157.075z"/>
<path fill="#EC1C24" d="M159.606,193.566c8.195-14.061,26.514-13.454,39.519-7.108c3.211,1.565,7.952-4.404,21.914-3.785
	c14.748,0.652,25.139,14.76,26.169,29.503c0.842,11.993,10.032,16.975,10.032,16.975s-9.206,15.434-20.797,38.101
	c-14.689,26.586-64.421,25.285-82.202-8.062c-10.557-19.803-21.771-35.438-21.771-35.438S143.681,220.877,159.606,193.566z"/>
<path fill="#F3CEA5" d="M233.488,231.941c0,0-0.211,0.23-0.618,0.633c-0.415,0.391-1.004,1.001-1.791,1.703
	c-0.39,0.359-0.824,0.746-1.31,1.156c-0.513,0.393-1.088,0.785-1.703,1.226c-0.614,0.44-1.293,0.877-2.008,1.358
	c-0.717,0.489-1.5,0.846-2.311,1.308c-0.812,0.44-1.678,0.866-2.573,1.327c-0.913,0.395-1.876,0.76-2.864,1.16
	c-1.974,0.834-4.149,1.369-6.405,1.983c-1.132,0.276-2.302,0.45-3.484,0.661c-0.593,0.102-1.188,0.204-1.789,0.307
	c-0.604,0.053-1.212,0.104-1.821,0.156c-1.222,0.079-2.453,0.249-3.693,0.251c-1.24,0.006-2.487-0.014-3.733-0.034
	c-1.245-0.018-2.483-0.188-3.72-0.302c-0.617-0.063-1.232-0.127-1.846-0.207c-0.608-0.095-1.213-0.221-1.815-0.33
	c-1.205-0.226-2.402-0.435-3.563-0.741c-1.158-0.326-2.301-0.637-3.41-0.992c-1.116-0.319-2.183-0.76-3.22-1.182
	c-0.518-0.212-1.029-0.422-1.534-0.63c-0.507-0.196-1-0.414-1.47-0.676c-1.9-0.979-3.681-1.884-5.206-2.96
	c-0.767-0.523-1.503-1.01-2.185-1.495c-0.666-0.521-1.283-1.033-1.852-1.522c-1.141-0.974-2.107-1.828-2.817-2.658
	c-0.735-0.785-1.264-1.452-1.638-1.881c-0.367-0.438-0.549-0.687-0.549-0.687s0.302,0.072,0.867,0.207
	c0.55,0.153,1.375,0.343,2.365,0.644c0.979,0.32,2.211,0.604,3.581,0.961c0.689,0.166,1.39,0.397,2.151,0.58
	c0.762,0.172,1.562,0.354,2.397,0.541c1.626,0.447,3.447,0.73,5.302,1.14c0.921,0.224,1.906,0.329,2.882,0.506
	c0.99,0.131,1.958,0.405,2.992,0.487c1.025,0.111,2.051,0.275,3.089,0.431c0.517,0.087,1.052,0.097,1.581,0.149
	c0.526,0.058,1.057,0.115,1.588,0.174c0.531,0.055,1.062,0.127,1.6,0.168c0.539,0.019,1.077,0.053,1.615,0.089
	c1.08,0.042,2.156,0.2,3.24,0.198c1.084,0.025,2.166,0.053,3.246,0.104c1.079,0.025,2.155-0.006,3.226-0.003
	c2.146,0.053,4.239-0.169,6.302-0.194c2.031-0.224,4.055-0.238,5.934-0.523c0.95-0.096,1.875-0.209,2.787-0.282
	c0.894-0.132,1.756-0.28,2.602-0.39c1.716-0.188,3.214-0.48,4.596-0.711c0.696-0.104,1.348-0.219,1.971-0.297
	c0.622-0.131,1.192-0.25,1.709-0.357c1.032-0.217,1.873-0.328,2.435-0.432C233.178,231.973,233.488,231.941,233.488,231.941z"/>
</svg>
