<?xml version="1.0" encoding="utf-8"?>
<!-- Generator: Adobe Illustrator 16.0.0, SVG Export Plug-In . SVG Version: 6.00 Build 0)  -->
<!DOCTYPE svg PUBLIC "-//W3C//DTD SVG 1.1//EN" "http://www.w3.org/Graphics/SVG/1.1/DTD/svg11.dtd">
<svg version="1.1" id="Layer_1" xmlns="http://www.w3.org/2000/svg" xmlns:xlink="http://www.w3.org/1999/xlink" x="0px" y="0px"
	 width="550px" height="550px" viewBox="-23.674 -24.532 550 550" enable-background="new -23.674 -24.532 550 550"
	 xml:space="preserve">
<g>
	<path fill="#FFFFFF" d="M473.386,235.012c-4.621-27.617-30.078-47.659-60.53-47.659c-1.607,0-3.303,0.054-5.07,0.179
		c2.752-13.448,4.938-27.284,5.282-40.504c0.511-19.698-3.59-54.653-36.791-67.417c-7.479-2.876-13.17-4.19-17.95-4.816
		c-0.555-0.599-2.521-2.754-2.521-2.754c-10.107-10.587-23.009-17.05-37.323-18.699c-2.48-0.302-4.979-0.456-7.432-0.456
		c-12.735,0-24.654,4.053-34.938,11.699c-3.748-0.681-7.597-1.023-11.536-1.023c-0.916,0-1.843,0.017-2.774,0.057l-0.787,0.032
		l-0.788,0.073c-39.173,3.746-47.534,33.645-51.104,46.41c-0.219,0.786-0.469,1.683-0.721,2.543
		c-16.601,6.294-25.184,17.362-29.531,25.931c-1.103,2.176-1.985,4.395-2.766,6.631c0,0,4.533-32.356-11.066-34.103
		c-1.672-0.188-3.543-0.128-5.575-0.128c-7.004,0-14.146,0.592-21.426,1.798c-4.917,0.849-10.786,1.991-17.206,4.039
		c-2.471,0.715-4.678,1.513-6.481,2.162l-2.769,0.978l-1.968,0.82c-2.268,0.94-5.056,2.096-8.07,3.649
		c-6.295,3.045-12.557,6.805-18.616,11.177l-0.569,0.414c0,0-1.61,1.268-2.146,1.681c-1.914,1.481-4.281,3.307-6.765,5.625
		l-3.752,3.381l-3.601,3.678c-2.495,2.489-4.387,4.843-5.914,6.742c-0.439,0.547-0.878,1.097-1.331,1.629l-0.444,0.521l-0.418,0.542
		c-1.804,2.333-3.367,4.578-4.746,6.557l-1.715,2.447l-1.359,2.239c-1.373,2.251-2.928,4.797-4.438,7.706
		c0,0-1.15,2.333-1.521,3.083c-1.049,2.099-2.071,4.184-2.983,6.289c0,0-0.945,2.308-1.253,3.048
		c-0.868,2.097-1.711,4.168-2.453,6.244l-0.193,0.542l-2.578,8.261c-0.792,2.658-1.359,5.102-1.814,7.064l-0.353,1.51l-1.049,4.697
		l-1.72,10.981l-0.068,0.612c-0.183,1.617-0.308,3.191-0.425,4.701l-0.11,1.399c-0.424,4.546-0.783,8.454-0.564,11.91
		c1.892,29.77,63.236,19.186,63.236,19.186c-2.288,3.304-4.299,6.84-5.962,10.6l-0.319,0.722l-0.279,0.733
		c-13.964,36.793,9.155,57.515,19.025,66.361c0.607,0.543,1.299,1.164,1.96,1.769c-1.695,17.673,4.433,30.267,10.195,37.955
		c15.767,21.03,43.896,26.274,63.685,28.392c10.748,1.148,28.11,7.161,44.902,12.979c27.361,9.478,58.373,20.219,86.666,20.219
		c22.151,0,40.464-6.534,54.416-19.418c15.047-13.882,26.63-43.384,29.822-52.098c7.805-21.301,10.997-39.146,9.695-53.375
		c7.534-12.575,11.668-18.113,18.929-20.619C466.541,288.102,477.089,257.14,473.386,235.012z"/>
	<g>
		<g>
			<path d="M241.1,140.932c-3.662-16.259-3.89-31.309,11.57-40.825c10.73-6.606,21.393-4.399,32.166,3.874
				c6.785-11.249,15.291-19.932,29.664-18.12c14.25,1.794,21.32,11.34,24.908,23.942c28.652-6.17,42.139,5.93,38.116,34.778
				c-3.606,25.956-8.946,51.668-13.161,77.544c-1.234,7.613-1.248,15.424-1.812,23.146c0.953,0.529,1.896,1.043,2.854,1.567
				c3.824-4.002,7.833-7.856,11.466-12.042c8.938-10.294,18.185-19.77,32.974-21.111c15.053-1.35,27.831,4.624,32.047,15.646
				c4.08,10.652-0.769,23.642-12.737,32.349c-4.717,3.434-9.953,6.579-15.439,8.465c-19.245,6.639-31.144,19.581-39.678,38.116
				c-5.227,11.353-15.394,20.724-24.468,29.871c-3.815,3.842-10.587,6.821-15.937,6.69c-17.846-0.416-35.461,1.992-53.161,2.528
				c-16.529,0.494-28.05-9.541-35.68-23.868c-9.495-17.8-13.101-37.369-13.211-56.988c-0.11-19.323-5.888-36.644-12.466-54.13
				c-3.808-10.121-7.654-20.236-11.112-30.488C198.943,155.008,211.473,138.688,241.1,140.932z M260.938,214.08
				c-0.72-2.656-1.446-5.452-2.247-8.221c-4.527-15.744-8.674-31.607-13.778-47.158c-2.662-8.13-8.871-13.1-18.123-11.881
				c-7.888,1.032-14.954,9.42-15.025,18.336c-0.041,4.805,1.034,9.766,2.455,14.394c2.313,7.511,5.104,14.889,8.072,22.17
				c9.312,22.872,15.646,46.133,16.708,71.214c0.614,14.715,4.794,29.852,10.246,43.655c8.738,22.087,25.672,28.752,48.772,23.024
				c6.601-1.637,13.892-0.269,20.74-1.172c8.843-1.164,19.676-0.574,25.876-5.494c10.436-8.27,20.925-19.021,25.938-31.008
				c8.24-19.777,22.118-30.562,40.793-38.256c7.605-3.125,15.145-8.215,20.629-14.286c9.756-10.774,4.281-25.32-9.99-28.67
				c-13.443-3.158-24.5,1.713-33.684,11.397c-5.187,5.463-9.57,11.823-15.301,16.595c-3.932,3.28-9.562,4.522-14.429,6.677
				c-0.792-4.661-2.804-9.499-2.163-13.958c4.527-31.791,9.941-63.454,14.251-95.267c1.006-7.423,0.653-16.128-2.448-22.638
				c-2.22-4.677-10.256-9.451-15.334-9.101c-5.064,0.361-10.451,6.458-14.188,11.223c-2.334,2.955-2.241,8.089-2.592,12.297
				c-1.375,16.659-2.473,33.34-3.74,50.013c-0.454,6.184-1.104,12.354-1.666,18.534c-1.151-0.078-2.29-0.151-3.438-0.228
				c0.224-2.935,0.493-5.861,0.662-8.795c1.556-27.477,3.595-54.948,4.425-82.454c0.432-14.067-9.197-23.069-21.732-22.795
				c-11.977,0.262-19.612,9.6-18.69,23.877c1.688,25.825,3.915,51.599,5.647,77.418c0.466,6.914,0.849,13.206,10.123,12.75
				C292.279,208.851,276.857,211.431,260.938,214.08z M245.454,120.842c-0.031,1.02-0.508,3.073-0.08,4.917
				c6.315,27.099,11.206,54.685,19.933,80.994c3.456,10.44,15.077-1.755,23.207-0.493c1.646,0.248,5.971-4.439,5.742-6.48
				c-3.017-26.974-6.252-53.96-10.287-80.809c-1.607-10.639-9.059-16.177-18.174-16.125
				C256.636,102.901,247.497,110.635,245.454,120.842z"/>
			<path fill="#A6A8AB" d="M260.938,214.08c15.919-2.649,31.341-5.229,46.771-7.805c-9.275,0.455-9.658-5.837-10.123-12.75
				c-1.733-25.819-3.961-51.593-5.648-77.418c-0.922-14.277,6.715-23.615,18.689-23.877c12.537-0.273,22.166,8.728,21.733,22.795
				c-0.831,27.505-2.87,54.977-4.425,82.454c-0.169,2.936-0.439,5.86-0.662,8.794c1.148,0.077,2.287,0.15,3.438,0.229
				c0.562-6.18,1.213-12.35,1.666-18.534c1.27-16.673,2.365-33.354,3.74-50.013c0.352-4.208,0.258-9.342,2.594-12.297
				c3.734-4.766,9.121-10.862,14.187-11.223c5.078-0.351,13.114,4.423,15.334,9.101c3.103,6.51,3.454,15.215,2.448,22.638
				c-4.311,31.813-9.725,63.475-14.251,95.268c-0.64,4.457,1.37,9.295,2.163,13.958c4.865-2.154,10.496-3.397,14.429-6.678
				c5.729-4.771,10.114-11.132,15.301-16.595c9.185-9.686,20.239-14.557,33.683-11.397c14.272,3.351,19.746,17.896,9.991,28.671
				c-5.484,6.07-13.022,11.16-20.629,14.285c-18.675,7.694-32.553,18.479-40.793,38.255c-5.014,11.988-15.503,22.739-25.938,31.01
				c-6.2,4.92-17.033,4.33-25.876,5.494c-6.851,0.902-14.141-0.466-20.74,1.172c-23.102,5.727-40.034-0.938-48.772-23.025
				c-5.452-13.805-9.632-28.941-10.246-43.655c-1.062-25.081-7.396-48.342-16.708-71.214c-2.968-7.281-5.759-14.659-8.072-22.17
				c-1.421-4.628-2.496-9.589-2.455-14.394c0.071-8.916,7.138-17.304,15.025-18.336c9.252-1.219,15.461,3.751,18.123,11.881
				c5.104,15.55,9.25,31.415,13.778,47.159C259.492,208.629,260.219,211.424,260.938,214.08z"/>
			<path fill="#A6A8AB" d="M245.454,120.842c2.043-10.207,11.183-17.941,20.341-17.997c9.115-0.051,16.565,5.486,18.174,16.125
				c4.035,26.848,7.271,53.835,10.287,80.808c0.229,2.041-4.096,6.729-5.742,6.481c-8.13-1.263-19.751,10.933-23.207,0.493
				c-8.727-26.309-13.616-53.895-19.933-80.994C244.946,123.915,245.422,121.862,245.454,120.842z"/>
			<path d="M261.941,353.963c-46.845-18.019-37.829-114.419-52.983-155.726c-7.651-20.854-15.439-51.155,12.799-59.285
				c23.483-6.776,6.6-42.876,41.247-46.189c7.599-0.313,14.476,1.629,20.625,5.819c7.33-10.785,17.694-17.998,31.414-16.274
				c7.648,0.858,14.199,4.15,19.662,9.874c16.221,18.025,10.223,6.623,31.098,14.652c39.05,15.016,3.162,102.152,1.458,132.658
				c58.265-59.521,113.663,12.805,47.86,35.464c-33.681,11.617-34.516,49.841-62.488,66.943
				C338.133,356.524,279.043,360.537,261.941,353.963z M233.767,152.423c-34.478-13.259,6.819,95.226,7.956,103.471
				c9.224,66.734,17.633,83.504,83.486,78.326c34.17-2.684,36.867-37.652,57.721-57.271c9.865-9.276,54-21.856,49.364-41.296
				c-8.477-35.559-63.27,22.593-77.033,26.671c-5.138-19.13,23.852-144.678-2.064-142.851c-35.126,2.473,6.185,97.18-30.554,91.542
				c2.094-25.919,16.409-83.392,2.877-106.093c-9.479-15.886-30.393-5.605-29.273,11.637c1.682,25.817,3.912,51.591,5.651,77.398
				c1.597,23.999,5.056,17.554-30.978,23.567C236.265,223.307,261.857,163.226,233.767,152.423z M249.643,123.097
				c-1.061,9.19,18.88,116.249,40.252,77.269c-2.991-26.723-6.195-53.425-10.195-80.02
				C276.636,100.019,251.402,107.656,249.643,123.097C249.554,123.855,249.685,122.753,249.643,123.097z"/>
		</g>
	</g>
	<g>
		<g>
			<path d="M146.761,331.268c-16.202-3.903-29.798-10.36-31.493-28.428c-1.179-12.552,5.509-21.14,17.692-27.142
				c-7.084-11.062-11.107-22.53-3.13-34.62c7.911-11.985,19.604-14.105,32.491-11.75c7.141-28.434,23.95-35.165,48.052-18.811
				c21.688,14.717,42.379,30.877,63.721,46.103c6.283,4.471,13.291,7.939,19.966,11.865c0.892-0.627,1.78-1.244,2.669-1.871
				c-1.9-5.201-3.583-10.506-5.73-15.603c-5.28-12.573-9.688-25.057-4.348-38.917c5.442-14.094,16.445-22.913,28.198-21.819
				c11.356,1.054,20.862,11.143,23.384,25.726c0.997,5.75,1.499,11.84,0.768,17.592c-2.56,20.192,3.781,36.589,16.632,52.448
				c7.87,9.703,11.784,22.967,15.973,35.15c1.761,5.121,1.435,12.514-1.042,17.254c-8.271,15.822-13.898,32.686-21.247,48.799
				c-6.86,15.037-20.964,20.94-37.187,21.443c-20.159,0.643-39.312-4.776-56.954-13.355c-17.384-8.448-35.469-10.931-54.061-12.76
				c-10.769-1.06-21.536-2.082-32.262-3.519C140.747,375.301,131.653,356.847,146.761,331.268z M221.151,345.821
				c-2.71-0.525-5.536-1.107-8.373-1.617c-16.124-2.898-32.187-6.201-48.393-8.5c-8.469-1.207-15.669,2.166-18.672,11
				c-2.56,7.533,1.841,17.575,9.805,21.591c4.287,2.159,9.215,3.39,13.992,4.159c7.76,1.253,15.619,2.011,23.458,2.568
				c24.628,1.757,48.303,6.364,71.26,16.512c13.468,5.95,28.891,8.898,43.689,10.105c23.674,1.932,37.139-10.307,42.215-33.554
				c1.455-6.646,5.902-12.579,8.123-19.128c2.867-8.443,8.186-17.896,6.516-25.635c-2.803-13.012-7.805-27.179-16.336-36.972
				c-14.095-16.141-17.636-33.356-16.271-53.512c0.557-8.201-0.672-17.213-3.691-24.822c-5.352-13.507-20.811-15.032-30.137-3.708
				c-8.774,10.656-9.297,22.726-4.672,35.243c2.607,7.068,6.371,13.817,8.123,21.063c1.198,4.981-0.172,10.582-0.398,15.896
				c-4.529-1.353-9.76-1.688-13.475-4.231c-26.508-18.121-52.514-36.98-79.142-54.909c-6.212-4.188-14.174-7.724-21.39-7.828
				c-5.176-0.069-13.01,5.021-14.938,9.736c-1.919,4.696,1.168,12.229,3.786,17.689c1.62,3.395,6.267,5.581,9.887,7.759
				c14.331,8.6,28.807,16.959,43.201,25.465c5.343,3.154,10.591,6.461,15.885,9.7c-0.571,0.996-1.151,1.981-1.727,2.979
				c-2.532-1.495-5.037-3.027-7.599-4.483c-23.954-13.542-47.694-27.523-71.992-40.43c-12.428-6.606-24.756-1.952-30.052,9.412
				c-5.064,10.858-0.068,21.833,13.149,27.323c23.902,9.904,48.01,19.308,71.926,29.168c6.41,2.643,12.221,5.075,15.921-3.435
				C230.312,315.399,225.805,330.372,221.151,345.821z M130.664,318.479c0.906,0.479,2.539,1.814,4.384,2.239
				c27.099,6.324,53.998,14.135,81.45,17.948c10.896,1.518,5.102-14.3,9.826-21.034c0.95-1.361-1.343-7.314-3.271-8.012
				c-25.534-9.229-51.166-18.262-77.028-26.506c-10.254-3.271-18.51,0.961-22.5,9.162
				C119.524,300.516,122.418,312.129,130.664,318.479z"/>
			<path fill="#FFFFFF" d="M221.151,345.821c4.654-15.449,9.161-30.422,13.681-45.392c-3.699,8.511-9.511,6.076-15.921,3.435
				c-23.916-9.86-48.024-19.264-71.926-29.168c-13.217-5.488-18.213-16.465-13.149-27.323c5.296-11.364,17.624-16.019,30.052-9.412
				c24.298,12.906,48.038,26.888,71.992,40.43c2.562,1.456,5.065,2.988,7.599,4.484c0.574-0.998,1.154-1.984,1.727-2.98
				c-5.294-3.239-10.542-6.546-15.885-9.7c-14.394-8.506-28.87-16.865-43.201-25.465c-3.621-2.179-8.267-4.364-9.887-7.759
				c-2.618-5.462-5.706-12.993-3.786-17.689c1.928-4.715,9.762-9.806,14.938-9.736c7.216,0.105,15.178,3.64,21.39,7.828
				c26.628,17.929,52.634,36.788,79.142,54.909c3.716,2.543,8.944,2.879,13.475,4.231c0.227-5.312,1.598-10.913,0.398-15.896
				c-1.752-7.246-5.516-13.995-8.123-21.063c-4.625-12.518-4.104-24.587,4.672-35.243c9.326-11.324,24.785-9.799,30.137,3.708
				c3.021,7.609,4.248,16.621,3.691,24.822c-1.363,20.153,2.178,37.371,16.271,53.512c8.531,9.793,13.533,23.96,16.336,36.972
				c1.67,7.738-3.648,17.19-6.515,25.635c-2.222,6.549-6.669,12.481-8.124,19.128c-5.076,23.247-18.541,35.485-42.215,33.554
				c-14.799-1.207-30.223-4.155-43.689-10.105c-22.957-10.146-46.631-14.754-71.26-16.512c-7.839-0.559-15.699-1.315-23.458-2.568
				c-4.777-0.771-9.705-2-13.992-4.159c-7.964-4.015-12.365-14.058-9.805-21.59c3.003-8.835,10.204-12.208,18.672-11.001
				c16.206,2.299,32.269,5.602,48.393,8.501C215.615,344.713,218.441,345.295,221.151,345.821z"/>
			<path fill="#FFFFFF" d="M130.664,318.479c-8.246-6.35-11.14-17.963-7.141-26.202c3.991-8.201,12.246-12.433,22.5-9.162
				c25.863,8.246,51.494,17.277,77.028,26.508c1.929,0.695,4.222,6.648,3.271,8.011c-4.724,6.733,1.07,22.552-9.826,21.034
				c-27.452-3.813-54.351-11.624-81.45-17.948C133.203,320.293,131.57,318.957,130.664,318.479z"/>
			<path d="M346.391,407.193c-36.876,34.049-119.351-16.671-163.104-21.347c-22.085-2.361-52.705-8.776-47.509-37.7
				c4.31-24.058-35.536-24.876-23.185-57.419c3.079-6.957,7.862-12.263,14.34-15.93c-6.429-11.342-8.314-23.829-0.701-35.367
				c4.147-6.479,10.004-10.899,17.551-13.274c23.346-6.578,10.459-6.232,26.895-21.404c30.74-28.383,93.019,42.341,119.625,57.36
				c-27.618-78.583,61.753-96.287,52.97-27.241c-4.474,35.346,29.438,52.995,32.409,85.649
				C382.391,339.991,359.858,394.766,346.391,407.193z M153.172,343.333c-27.136,25.052,88.428,35.996,96.321,38.622
				c63.938,21.243,82.69,21.113,107.175-40.233c12.707-31.844-17.467-49.718-25.84-77.096c-3.961-12.953,4.274-58.105-15.207-62.543
				c-35.641-8.115-7.713,66.734-10.149,80.885c-19.429-3.855-119.208-85.371-129.027-61.324
				c-13.317,32.602,89.891,37.43,68.583,67.895c-22.315-13.342-67.527-51.601-93.875-49.501
				c-18.439,1.474-18.47,24.771-2.516,31.396c23.9,9.912,48.005,19.307,71.915,29.167c22.236,9.183,17.99,3.224,7.443,38.2
				C217.848,372.444,175.285,322.917,153.172,343.333z M133.893,316.126c7.776,5.01,112.612,34.479,87.1-1.936
				c-25.287-9.129-50.653-18.064-76.276-26.238C125.133,281.712,120.82,307.717,133.893,316.126
				C134.531,316.534,133.602,315.937,133.893,316.126z"/>
		</g>
	</g>
	<path fill="#231F20" d="M164.683,194.081c0,0-1.604,0.268-4.304,0.899c-2.703,0.619-6.492,1.65-10.833,3.165
		c-4.313,1.604-9.204,3.655-13.943,6.553c-2.402,1.39-4.694,3.084-6.982,4.828c-2.202,1.846-4.427,3.734-6.366,5.916
		c-2.041,2.086-3.803,4.422-5.532,6.736c-0.798,1.211-1.587,2.414-2.371,3.602c-0.718,1.242-1.427,2.467-2.127,3.672
		c-0.644,1.25-1.276,2.479-1.897,3.681c-0.563,1.245-1.117,2.46-1.652,3.644c-0.553,1.188-0.949,2.401-1.441,3.541
		c-0.507,1.139-0.934,2.268-1.291,3.371c-0.761,2.189-1.501,4.213-2.037,6.051c-0.563,1.828-1.131,3.429-1.473,4.774
		c-0.766,2.68-1.31,4.229-1.31,4.229s-0.22-1.598-0.419-4.426c-0.127-1.418-0.176-3.141-0.102-5.116
		c0.026-0.991,0.051-2.049,0.08-3.162c0.117-1.111,0.242-2.275,0.367-3.492c0.203-2.455,0.767-5.073,1.373-7.852
		c0.387-1.373,0.783-2.783,1.19-4.228c0.47-1.427,1.052-2.854,1.595-4.329c1.211-2.9,2.687-5.826,4.45-8.663
		c1.817-2.803,3.871-5.538,6.219-8.021c4.673-4.991,10.365-8.99,16.134-11.605c5.746-2.695,11.511-4.029,16.422-4.578
		c4.923-0.59,9.033-0.367,11.859-0.017C163.122,193.588,164.683,194.081,164.683,194.081z"/>
	<path fill="#231F20" d="M169.893,166.578c0,0-2.356,0.213-6.373,0.914c-4.017,0.684-9.682,1.906-16.225,3.919
		c-3.26,1.057-6.743,2.28-10.315,3.792c-3.584,1.481-7.218,3.333-10.858,5.383c-3.692,1.986-7.145,4.587-10.657,7.15
		c-3.398,2.72-6.759,5.614-9.69,8.93c-1.592,1.532-2.909,3.324-4.364,4.976c-1.361,1.731-2.652,3.517-3.959,5.269
		c-1.151,1.859-2.404,3.64-3.53,5.475c-1.042,1.883-2.168,3.7-3.119,5.575c-0.92,1.899-1.826,3.766-2.711,5.595
		c-0.801,1.879-1.584,3.716-2.347,5.509c-0.758,1.802-1.288,3.63-1.958,5.353c-0.686,1.721-1.256,3.416-1.724,5.074
		c-1.022,3.289-1.968,6.322-2.629,9.071c-0.715,2.731-1.404,5.121-1.797,7.125c-0.903,3.987-1.524,6.286-1.524,6.286
		s-0.142-2.345-0.204-6.483c-0.08-2.078-0.003-4.587,0.222-7.466c0.103-1.441,0.165-2.986,0.322-4.605
		c0.228-1.61,0.467-3.305,0.717-5.071c0.417-3.563,1.367-7.347,2.376-11.349c0.601-1.985,1.216-4.021,1.846-6.105
		c0.712-2.062,1.615-4.104,2.444-6.223c0.892-2.092,1.974-4.146,2.982-6.271c1.071-2.095,2.341-4.123,3.569-6.193
		c1.376-1.978,2.709-4.021,4.219-5.941c1.589-1.858,3.036-3.857,4.793-5.583c3.347-3.612,7.153-6.763,10.994-9.691
		c3.919-2.826,8.027-5.253,12.159-7.207c4.091-2.051,8.259-3.538,12.247-4.712c3.965-1.256,7.831-1.968,11.383-2.532
		c7.121-1.091,13.112-1.06,17.25-0.772C167.579,166.032,169.893,166.578,169.893,166.578z"/>
	<path fill="#231F20" d="M171.642,141.084c0,0-0.712,0.03-2.037,0.174c-1.325,0.122-3.262,0.404-5.702,0.751
		c-4.885,0.727-11.794,2.074-19.794,4.419c-3.983,1.227-8.25,2.654-12.625,4.463c-4.39,1.763-8.854,3.97-13.32,6.46
		c-4.526,2.404-8.782,5.537-13.086,8.677c-2.051,1.709-4.228,3.295-6.15,5.195l-2.962,2.763l-2.783,2.955
		c-1.957,1.877-3.578,4.062-5.369,6.082c-1.687,2.108-3.23,4.321-4.816,6.472c-1.391,2.291-2.906,4.478-4.268,6.729
		c-1.265,2.31-2.624,4.54-3.772,6.839c-1.105,2.327-2.193,4.615-3.258,6.852c-0.955,2.304-1.886,4.555-2.795,6.75
		c-0.9,2.199-1.527,4.437-2.313,6.544c-0.379,1.061-0.754,2.103-1.122,3.126c-0.302,1.045-0.599,2.07-0.892,3.072
		c-0.589,2.018-1.153,3.945-1.692,5.783c-0.516,1.846-0.903,3.624-1.324,5.287c-0.815,3.334-1.587,6.244-2.014,8.68
		c-1.005,4.854-1.664,7.649-1.664,7.649s-0.08-2.841-0.066-7.847c-0.042-2.51,0.114-5.543,0.439-9.021
		c0.154-1.736,0.259-3.603,0.479-5.555c0.302-1.941,0.619-3.986,0.952-6.117c0.168-1.068,0.342-2.16,0.518-3.273
		c0.245-1.1,0.494-2.219,0.747-3.361c0.545-2.27,1.043-4.646,1.755-7.032c0.744-2.387,1.51-4.837,2.293-7.341
		c0.883-2.477,1.977-4.939,2.991-7.484c1.091-2.515,2.407-4.983,3.631-7.537c1.305-2.513,2.846-4.945,4.344-7.423
		c1.67-2.37,3.305-4.8,5.102-7.125c1.906-2.239,3.632-4.652,5.74-6.734l3.099-3.167l3.287-2.963
		c2.142-2.025,4.541-3.729,6.811-5.541c4.712-3.401,9.623-6.363,14.59-8.74c2.439-1.281,4.959-2.272,7.395-3.293
		c2.499-0.863,4.897-1.817,7.313-2.49c4.768-1.552,9.42-2.473,13.696-3.209c8.577-1.419,15.81-1.513,20.818-1.271
		c2.506,0.089,4.466,0.345,5.796,0.505C170.94,140.952,171.642,141.084,171.642,141.084z"/>
</g>
</svg>
