<?xml version="1.0" encoding="utf-8"?>
<!-- Generator: Adobe Illustrator 16.0.0, SVG Export Plug-In . SVG Version: 6.00 Build 0)  -->
<!DOCTYPE svg PUBLIC "-//W3C//DTD SVG 1.1//EN" "http://www.w3.org/Graphics/SVG/1.1/DTD/svg11.dtd">
<svg version="1.1" id="Layer_1" xmlns="http://www.w3.org/2000/svg" xmlns:xlink="http://www.w3.org/1999/xlink" x="0px" y="0px"
	 width="550px" height="550px" viewBox="-85.961 -76.564 550 550" enable-background="new -85.961 -76.564 550 550"
	 xml:space="preserve">
<path fill="#FFFFFF" d="M375.337,306.797c-0.469-4.74-1.526-9.275-3.114-13.497c1.934-10.411,0.559-21.495-4.283-31.819
	c-0.162-0.34-0.363-0.644-0.529-0.979c0.09-0.258,0.195-0.508,0.285-0.766c16.713-48.639,12.746-104.139-10.879-152.264
	C323.779,40.176,259.117,0,183.84,0C103.582,0,34.926,47.582,13,118.4c-28.951,93.5-4.13,155.04,21.792,190.2
	c48.036,65.161,132.493,88.283,190.222,88.283c0.004,0,0.006,0,0.01,0c2.152,0,4.275-0.029,6.371-0.089
	c13.791-0.395,23.117-7.666,29.648-15.994c4.46,2.898,10.195,5.138,17.535,5.745c8.615,3.305,19.753,7.126,32.374,7.126
	c0,0,0,0,0.003,0c8.932,0,17.656-1.896,25.936-5.638c13.137-5.941,28.543-21.57,32.572-39.955c0.826-3.771,1.148-7.541,0.989-11.231
	C374.557,327.583,376.355,317.076,375.337,306.797z"/>
<g>
	<path fill="#F0584F" d="M123.774,226.914c-0.133-0.514-0.174-0.708,0.095-1.488c0.687-2.66,2.555-5.93,5.501-7.16
		c0.738-0.258,1.528-0.408,2.366-0.422c0.419-0.006,0.85,0.022,1.293,0.09c0.441,0.049,0.896,0.112,1.365,0.229
		c1.878,0.437,3.955,1.407,6.389,2.94c0.183,0.114,0.861,0.674,1.029,0.996c1.099,4.151,2.818,8.189,4.974,11.875
		c2.216,3.649,4.833,7.021,7.983,9.825c2.338,2.166,4.933,4.062,7.761,5.638c2.824,1.573,5.798,2.97,9.003,3.939
		c4.671,1.536,9.667,2.463,14.797,2.921c0,0,0.396,0.062,1.122,0.173c0.731,0.096,1.776,0.328,3.135,0.434
		c1.356,0.113,2.974,0.361,4.838,0.463c0.937,0.052,1.923,0.105,2.956,0.164c0.518,0.029,1.047,0.062,1.587,0.094
		c0.492,0.008,0.994,0.016,1.505,0.023c1.029,0.051,2.069-0.039,3.159-0.055c1.068-0.102,2.188-0.145,3.298-0.322
		c2.239-0.285,4.545-0.75,6.822-1.439c4.569-1.343,9.059-3.521,12.936-6.031c3.222-2.205,5.746-4.355,7.771-6.165
		c2.021-1.85,3.589-3.282,4.766-4.358c2.387-2.125,3.51-2.598,3.984-1.395c0.391,1.283-0.109,4.118-1.755,7.784
		c-1.633,3.651-4.435,8.106-8.465,12.33c0.489-0.359-1.573,2.084-5.726,5.229c-2.07,1.568-4.675,3.297-7.695,4.859
		c-3.014,1.568-6.445,2.956-10.014,3.971c-1.783,0.496-3.593,0.941-5.396,1.264c-0.9,0.19-1.798,0.308-2.688,0.432
		c-0.896,0.13-1.781,0.249-2.563,0.309c-1.62,0.146-3.188,0.287-4.679,0.422c-1.494,0.119-2.933,0.129-4.254,0.189
		c-2.639,0.148-4.89,0.014-6.458-0.001c-0.786-0.021-1.404-0.022-1.828-0.052c-0.424-0.033-0.651-0.053-0.651-0.053
		c-5.439-0.601-10.915-1.764-16.291-3.489c-4.259-1.325-8.418-3.209-12.4-5.429c-3.989-2.221-7.755-4.939-11.153-8.061
		c-4.546-4.08-8.348-8.93-11.464-14.099C127.672,238.273,125.326,232.734,123.774,226.914z"/>
</g>
<path fill="#231F20" d="M329.523,120.868C266.038-8.453,79.232,7.267,42.043,127.394c-54.975,177.551,96.398,241.658,188.482,239.01
	c7.151-0.205,11.892-13.756,16.869-23.053c2.693-0.683,5.289-1.566,7.717-2.749C354.366,292.344,363.589,190.257,329.523,120.868z
	 M321.886,225.87c-33.116,126.562-146.812,95.719-153.837,96.966C30.024,280.747-14.096,138.397,139.444,63.779
	C239.479,15.169,349.143,121.729,321.886,225.87z"/>
<path fill="#231F20" d="M276.364,165.563c0,8.1-1.354,14.72-7.13,19.011c-3.582,2.66-10.756,9.507-15.449,9.507
	c-22.58,0-24.165-20.543-24.165-33.672c0-13.126,9.935-23.764,22.185-23.764S276.364,152.435,276.364,165.563z"/>
<circle fill="#231F20" cx="245.201" cy="161.605" r="77.524"/>
<circle fill="#26A9E0" cx="246.434" cy="161.772" r="57.766"/>
<g>
	<path fill="#FFFFFF" d="M276.572,307.569c-15.525-3.474-12.379-19.646,0.955-24.13c13.459-4.533,40.652-24.197,53.761-12.595
		C359.986,296.257,292.367,311.117,276.572,307.569C269.948,306.091,288.029,310.135,276.572,307.569z"/>
	<path fill="#FFFFFF" d="M281.229,333.453c-5.886-1.986-8.254-7.443-6.762-13.228c2.424-9.309,11.889-9.898,19.887-11.451
		c10.229-1.989,36.432-14.642,43.315-3.882C356.514,334.326,297.005,338.753,281.229,333.453
		C275.277,331.446,298.703,339.32,281.229,333.453z"/>
	<path fill="#FFFFFF" d="M308.943,269.859c-12.014,5.32-31.141,16.742-44.225,9.804c-15.662-8.298,4.67-24.894,12.307-30.747
		c9.563-7.334,23.516-18.04,35.6-10.223C324.712,246.505,321.934,264.117,308.943,269.859
		C298.27,274.592,319.473,265.207,308.943,269.859z"/>
	<g>
		<path fill="#FFFFFF" d="M278.879,335.802c13.021,3.411,26.643,2.778,39.871,0.032c9.053-1.876,19.919-2.785,13.27,10.552
			C322.391,365.676,269.932,361.189,278.879,335.802C294.732,339.958,275.663,344.929,278.879,335.802z"/>
		<g>
			<path fill="#231F20" d="M338.177,296.574c11.107-13.36,0.026-35.477-17.589-35.27c4.483-7.736,3.688-18.129-3.337-24.976
				c-12.551-12.231-28.678-2.877-40.715,5.812c-11.662,8.426-36.786,30.599-14.849,42.565c0.701,0.384,1.422,0.681,2.146,0.978
				c-6.666,8.979,0.023,21.068,12.973,24.43c-8.686,7.328-13.363,18.951-3.453,25.862c-0.185,1.903-0.09,3.521-0.828,5.998
				c16.658,4.278,38.404,1.689,55.099-2.328c3.437,8.539-34.906,20.703-51.631,13.824c0.112,0.169,0.208,0.332,0.325,0.504
				c2.537,3.757,6.918,1.344,10.337,3.095c12.805,4.993,24.423,9.267,37.712,3.261c8.308-3.756,21.115-19.382,13.308-28.378
				C347.342,322.459,347.934,302.955,338.177,296.574z M313.293,331.024c-8.669,1.461-21.691,3.449-32.021,2.812
				c1.09-2.74,1.408-4.738-0.642-7.666c-3.812-5.591,3.085-9.578,7.688-10.454c5.052-0.959,11.171-3.049,17.373-4.961
				c5.444-0.713,10.834-1.938,15.742-3.696c1.658-0.176,3.26-0.246,4.762-0.156c11.947-3.389,7.701,13.113,1.518,18.349
				c-1.701,1.442-3.768,2.695-6.045,3.8C318.661,329.742,315.736,330.611,313.293,331.024z M283.377,251.282
				c8.216-5.929,21.87-15.188,30.936-5.671c4.145,4.267,4.834,9.731,3.186,14.664c-1.487,0.683-3.23,1.496-5.178,2.408
				c-10.562,2.547-22.342,7.377-32.428,12.431c-3.677,0.778-6.957,1.062-9.431,0.508
				C254.759,272.141,278.645,254.705,283.377,251.282z M281.869,287.932c2.556-1.231,5.189-2.406,7.847-3.557
				c4.035-1.396,7.986-3.094,11.73-4.795c5.624-2.184,11.288-4.264,16.819-6.282c8.664-3.358,15.313,8.129,11.211,15.249
				c-1.809,2.803-4.683,5.373-8.162,7.704c-11.332,2.688-23.036,4.731-34.062,8.031c-3.281,0.983-6.538,2.755-9.427,5.003
				c-0.009,0-0.015,0-0.021,0C276.223,304.787,265.296,292.92,281.869,287.932z"/>
			<path fill="#231F20" d="M275.993,353.471c-3.812-5.691-5.179-10.645-6.95-15.042
				C266.952,346.395,270.174,351.077,275.993,353.471z"/>
		</g>
	</g>
</g>
<path fill="#FFFFFF" d="M229.84,155.754c0,7.553-6.125,13.681-13.682,13.681s-13.682-6.128-13.682-13.681
	c0-7.56,6.125-13.682,13.682-13.682S229.84,148.194,229.84,155.754z"/>
<circle fill="#FFFFFF" cx="245.292" cy="189.446" r="22.549"/>
<path fill="#231F20" d="M87.469,204.523c0,0-0.08-0.394-0.229-1.121c-0.128-0.721-0.333-1.771-0.335-3.232
	c-0.033-1.448,0.068-3.17,0.457-5.157c0.365-1.989,1.054-4.195,2.096-6.493c2.069-4.608,5.736-9.438,10.552-13.42
	c1.194-1.01,2.461-1.959,3.789-2.841c1.318-0.912,2.687-1.755,4.115-2.521c2.812-1.612,5.834-2.833,8.866-3.966
	c3.067-1.054,6.178-1.876,9.271-2.471c1.547-0.267,3.079-0.561,4.611-0.688c1.523-0.184,3.028-0.338,4.513-0.368
	c2.969-0.169,5.828-0.06,8.518,0.131c1.348,0.142,2.651,0.267,3.907,0.436c1.247,0.217,2.452,0.428,3.61,0.629
	c2.298,0.502,4.37,1.033,6.188,1.633c1.817,0.556,3.364,1.212,4.632,1.726c1.256,0.534,2.224,1.081,2.886,1.395
	c0.656,0.333,1.003,0.541,1.003,0.541s-1.565,0.428-4.186,0.979c-1.324,0.321-2.895,0.582-4.677,0.98
	c-1.757,0.356-3.744,0.754-5.905,1.194c-4.278,0.873-9.142,1.906-14.198,3.153c-2.542,0.582-5.095,1.348-7.687,2.025
	c-2.553,0.802-5.166,1.514-7.672,2.452c-2.532,0.867-5.023,1.823-7.402,2.856c-2.363,1.06-4.679,2.12-6.823,3.302
	c-2.129,1.188-4.171,2.39-6.012,3.682c-1.814,1.3-3.542,2.601-5.003,3.963c-1.49,1.339-2.803,2.699-3.895,4.002
	c-1.114,1.292-2.019,2.56-2.741,3.602c-0.368,0.54-0.698,1.027-0.98,1.448c-0.267,0.464-0.49,0.854-0.677,1.176
	C87.677,204.186,87.469,204.523,87.469,204.523z"/>
<path fill="#231F20" d="M84.328,129.534c0,0,0.392-0.074,1.125-0.208c0.359-0.08,0.801-0.175,1.324-0.288
	c0.505-0.071,1.084-0.151,1.734-0.244c1.25-0.163,2.806-0.338,4.507-0.374c1.695-0.065,3.583,0.003,5.582,0.205
	c1.989,0.175,4.109,0.585,6.292,1.06c2.188,0.502,4.454,1.214,6.763,2.001c2.312,0.799,4.653,1.812,7.025,2.854
	c2.36,1.072,4.736,2.283,7.075,3.578c2.373,1.229,4.652,2.696,6.962,4.056c2.239,1.473,4.522,2.856,6.65,4.347
	c4.312,2.918,8.337,5.837,11.85,8.426c1.778,1.318,3.402,2.518,4.846,3.586c1.493,1.057,2.74,2.052,3.859,2.815
	c2.173,1.582,3.536,2.452,3.536,2.452s-0.077-0.392-0.27-1.104c-0.208-0.704-0.458-1.781-0.9-3.073
	c-0.466-1.286-1.018-2.877-1.826-4.599c-0.769-1.746-1.764-3.643-2.927-5.686c-0.63-0.995-1.283-2.034-1.954-3.103
	c-0.715-1.045-1.493-2.097-2.295-3.195c-1.663-2.123-3.5-4.323-5.608-6.407c-1.019-1.087-2.141-2.096-3.296-3.106
	c-1.119-1.048-2.366-1.995-3.601-2.963c-2.518-1.9-5.208-3.655-8.043-5.226c-2.874-1.496-5.81-2.921-8.889-3.928
	c-1.52-0.543-3.07-0.998-4.625-1.363c-1.544-0.392-3.097-0.707-4.646-0.909c-6.182-0.911-12.227-0.398-17.036,1.152
	c-2.405,0.769-4.504,1.73-6.224,2.791c-1.736,1.048-3.079,2.126-4.133,3.121c-1.083,0.977-1.725,1.835-2.176,2.417
	C84.565,129.217,84.328,129.534,84.328,129.534z"/>
</svg>
