<?xml version="1.0" encoding="utf-8"?>
<!-- Generator: Adobe Illustrator 16.0.0, SVG Export Plug-In . SVG Version: 6.00 Build 0)  -->
<!DOCTYPE svg PUBLIC "-//W3C//DTD SVG 1.1//EN" "http://www.w3.org/Graphics/SVG/1.1/DTD/svg11.dtd">
<svg version="1.1" id="Layer_1" xmlns="http://www.w3.org/2000/svg" xmlns:xlink="http://www.w3.org/1999/xlink" x="0px" y="0px"
	 width="550px" height="550px" viewBox="-48.376 -76.564 550 550" enable-background="new -48.376 -76.564 550 550"
	 xml:space="preserve">
<g>
	<path fill="#FFFFFF" d="M431.743,107.769C398.816,40.702,334.373,0.662,259.35,0.662c-78.662,0-146.108,45.88-169.104,114.529
		c-2.232,0.292-4.457,0.718-6.662,1.284c-12.534,3.141-22.902,10.275-30.229,20.472c-3.033,0.762-6.024,1.781-8.965,3.054
		l-0.749,0.324l-0.729,0.364c-30.271,15.086-29.368,42.451-28.403,53.589C4.743,204.333,1.586,215.335,0.76,223.383
		c-2.379,23.204,12.066,42.723,23.146,55.385c4.912,5.613,11.398,17.726,17.674,29.433c17.74,33.118,42.04,78.47,86.489,78.47
		c12.626,0,35.229-7.328,54.908-18.743c39.749,20.166,83.267,28.282,117.408,28.282c0.003,0,0.006,0,0.01,0
		c2.146,0,4.26-0.031,6.344-0.09c21.061-0.601,31.718-17.27,37.822-29.206c48.123-23.659,82.01-60.778,98.023-107.392
		C459.24,211.044,455.288,155.734,431.743,107.769z"/>
	<path fill="#231F20" d="M404.543,121.122C341.271-7.762,155.096,7.904,118.03,127.624
		C63.241,304.578,214.104,368.469,305.877,365.83c7.129-0.203,11.852-13.706,16.814-22.972c2.684-0.681,5.271-1.565,7.688-2.743
		C429.302,292.021,438.492,190.278,404.543,121.122z M396.93,225.771c-33.002,126.124-146.298,95.399-153.319,96.64
		c-137.559-41.949-181.529-183.82-28.507-258.183C314.799,15.779,424.094,121.981,396.93,225.771z"/>
	<path fill="#231F20" d="M221.916,194.675c-2.102,11.635-2.143-17.935-12.76-24.578c-10.621-6.646-31.718,4.616-25.072-6.001
		c6.646-10.617,26.533-24.491,37.151-17.848C231.855,152.893,224.141,182.35,221.916,194.675z"/>
	<g>
		<path fill="#EC1C24" d="M188.117,245.891c-0.334-0.619-0.479-0.828-0.37-1.953c0.081-1.895,0.285-3.858,1.182-5.791
			c0.845-1.892,2.101-3.43,3.739-4.326c1.693-0.896,3.664-1.192,6.036-0.932c2.389,0.242,4.895,0.901,8.015,1.73
			c0.213,0.066,1.055,0.42,1.36,0.695c2.089,3.882,5.442,7.877,9.358,11.447c3.928,3.596,8.426,6.838,13.205,9.696
			c3.903,2.409,8.11,4.392,12.34,6.279c4.296,1.733,8.654,3.37,13.145,4.51c6.045,1.64,12.218,2.72,18.388,3.181
			c0,0,0.476,0.062,1.346,0.178c0.873,0.09,2.146,0.347,3.74,0.457c3.185,0.254,7.705,0.627,12.881,0.311
			c10.394-0.24,23.383-3.586,33.521-8.806c2.181-1.042,4.042-2.229,5.778-3.276c0.877-0.518,1.711-1.012,2.51-1.482
			c0.757-0.515,1.482-1.006,2.169-1.467c1.38-0.93,2.666-1.703,3.772-2.412c1.064-0.754,2.019-1.382,2.861-1.886
			c3.387-2.012,4.944-2.101,5.092-0.573c0.098,1.478-1.149,4.651-3.746,8.664c-2.675,3.918-6.637,8.801-12.004,13.161
			c0.646-0.319-2.146,2.22-7.31,5.521c-5.157,3.256-12.779,7.144-21.05,9.635c-2.068,0.567-4.148,1.188-6.226,1.685
			c-2.091,0.418-4.153,0.83-6.146,1.233c-2.024,0.262-3.979,0.521-5.836,0.763c-1.861,0.234-3.629,0.278-5.262,0.404
			c-6.543,0.342-10.935,0.053-10.935,0.053c-6.61-0.582-13.079-1.924-19.429-3.592c-5.475-1.423-10.78-3.369-16.013-5.486
			c-5.166-2.269-10.278-4.688-15.143-7.652c-5.93-3.551-11.614-7.619-16.903-12.445
			C196.921,258.566,191.976,253.006,188.117,245.891z"/>
	</g>
	<path fill="#231F20" d="M170.236,104.485c0,0,0.116-0.38,0.332-1.087c0.223-0.7,0.526-1.722,1.217-3.005
		c0.647-1.29,1.538-2.758,2.811-4.323c1.251-1.58,2.894-3.194,4.885-4.736c3.975-3.085,9.469-5.615,15.57-6.862
		c1.521-0.334,3.081-0.573,4.661-0.729c1.585-0.184,3.189-0.286,4.794-0.293c3.234-0.102,6.468,0.238,9.667,0.663
		c3.187,0.508,6.312,1.238,9.312,2.167c1.485,0.484,2.971,0.947,4.379,1.55c1.428,0.554,2.823,1.122,4.144,1.786
		c2.687,1.243,5.158,2.678,7.43,4.103c1.125,0.759,2.21,1.479,3.238,2.216c0.994,0.774,1.956,1.521,2.879,2.242
		c1.788,1.518,3.368,2.96,4.682,4.335c1.336,1.338,2.394,2.641,3.264,3.687c0.863,1.058,1.456,1.99,1.891,2.574
		c0.417,0.604,0.628,0.949,0.628,0.949s-1.58-0.357-4.143-1.102c-1.308-0.331-2.816-0.84-4.572-1.327
		c-1.716-0.507-3.651-1.086-5.755-1.716c-4.172-1.229-8.937-2.598-13.964-3.867c-2.509-0.677-5.113-1.196-7.714-1.817
		c-2.628-0.491-5.255-1.087-7.901-1.435c-2.63-0.417-5.269-0.744-7.847-0.95c-2.574-0.173-5.11-0.324-7.545-0.29
		c-2.432,0.052-4.793,0.15-7.016,0.427c-2.207,0.292-4.335,0.63-6.257,1.145c-1.942,0.482-3.729,1.062-5.3,1.7
		c-1.584,0.613-2.978,1.305-4.098,1.885c-0.578,0.303-1.093,0.577-1.542,0.813c-0.453,0.281-0.831,0.524-1.145,0.718
		C170.58,104.284,170.236,104.485,170.236,104.485z"/>
	<path fill="#231F20" d="M380.634,150.964c0,0-0.221-0.329-0.636-0.947c-0.195-0.314-0.432-0.692-0.717-1.146
		c-0.301-0.412-0.642-0.88-1.032-1.407c-0.757-1.011-1.713-2.24-2.87-3.482c-1.133-1.254-2.497-2.556-4.027-3.837
		c-1.509-1.301-3.274-2.529-5.134-3.754c-1.883-1.22-3.962-2.334-6.128-3.438c-2.184-1.096-4.533-2.061-6.925-3.026
		c-2.405-0.941-4.924-1.793-7.479-2.562c-2.528-0.84-5.156-1.451-7.733-2.149c-2.61-0.574-5.183-1.24-7.73-1.721
		c-5.079-1.049-9.965-1.891-14.256-2.599c-2.172-0.352-4.163-0.675-5.93-0.962c-1.793-0.329-3.373-0.527-4.696-0.799
		c-2.63-0.447-4.204-0.812-4.204-0.812s0.334-0.219,0.976-0.579c0.646-0.34,1.588-0.917,2.824-1.497
		c1.239-0.562,2.752-1.276,4.545-1.896c1.778-0.668,3.83-1.276,6.102-1.864c1.146-0.244,2.337-0.5,3.572-0.765
		c1.238-0.218,2.535-0.392,3.869-0.586c2.668-0.293,5.52-0.507,8.479-0.458c1.482-0.019,2.982,0.074,4.509,0.2
		c1.53,0.068,3.065,0.298,4.619,0.509c3.104,0.469,6.231,1.173,9.33,2.104c3.06,1.01,6.119,2.112,8.983,3.615
		c1.443,0.706,2.844,1.492,4.185,2.349c1.358,0.833,2.657,1.724,3.885,2.685c4.951,3.78,8.791,8.452,11.025,12.959
		c1.125,2.253,1.896,4.422,2.341,6.391c0.462,1.963,0.619,3.671,0.646,5.116c0.059,1.454-0.112,2.509-0.211,3.234
		C380.695,150.574,380.634,150.964,380.634,150.964z"/>
	<path fill="#231F20" d="M317.016,202.559c-1.257,11.752,13.353-13.197,25.412-16.585c12.059-3.388,22.885,9.951,19.497-2.11
		c-3.389-12.061-18.545-28.88-30.604-25.495C319.258,161.759,318.352,190.103,317.016,202.559z"/>
	<g>
		<g>
			<path d="M54.195,209.127c-7.146-10.712-11.481-21.491-2.977-32.639c5.903-7.731,14.2-9.102,24.258-6.125
				c1.772-9.99,5.501-18.606,16.361-21.282c10.768-2.656,18.508,2.268,24.588,10.349c18.944-12.386,32.014-7.403,37.119,14.503
				c4.598,19.71,7.871,39.721,12.007,59.542c1.219,5.828,3.38,11.469,5.11,17.19c0.832,0.113,1.661,0.226,2.492,0.338
				c1.651-3.946,3.47-7.835,4.926-11.854c3.586-9.9,7.626-19.293,17.921-24.358c10.474-5.147,21.333-4.389,27.43,2.392
				c5.894,6.545,6.001,17.25-0.21,26.845c-2.447,3.782-5.353,7.501-8.783,10.383c-12.03,10.123-17.022,22.746-18.034,38.478
				c-0.623,9.627-5.347,19.204-9.356,28.312c-1.682,3.828-5.741,7.846-9.632,9.24c-12.979,4.646-25.006,11.268-37.616,16.558
				c-11.773,4.939-22.864,0.896-32.335-7.309c-11.777-10.204-19.803-23.307-25.318-37.42c-5.435-13.897-14.401-24.78-23.991-35.559
				c-5.554-6.243-11.129-12.469-16.461-18.896C27.712,230.958,32.221,215.723,54.195,209.127z M88.777,256.35
				c-1.261-1.719-2.56-3.526-3.9-5.306c-7.631-10.09-15.017-20.375-23.006-30.17c-4.173-5.119-10.026-6.983-16.357-3.539
				c-5.401,2.933-8.167,10.937-5.747,17.382c1.302,3.475,3.453,6.756,5.761,9.699c3.746,4.771,7.809,9.314,11.963,13.741
				c13.052,13.901,24.068,28.914,31.783,46.698c4.524,10.431,11.733,20.184,19.491,28.619c12.422,13.5,26.475,13.608,41.536,3.079
				c4.306-3.01,9.937-4.045,14.626-6.593c6.052-3.294,14.022-5.869,17.127-11.132c5.229-8.856,9.812-19.511,10.099-29.543
				c0.462-16.541,7.473-28.164,18.804-38.882c4.608-4.368,8.635-10.12,10.908-16.021c4.039-10.466-3.939-19.429-15.157-17.894
				c-10.563,1.446-17.18,8.024-21.115,17.551c-2.225,5.376-3.62,11.177-6.428,16.206c-1.927,3.453-5.636,5.912-8.551,8.814
				c-1.861-3.143-4.651-6.071-5.429-9.467c-5.546-24.166-10.423-48.488-16.136-72.617c-1.335-5.628-4.001-11.806-8.04-15.641
				c-2.897-2.751-10.01-3.968-13.576-2.302c-3.548,1.66-5.741,7.546-7.121,12.014c-0.857,2.781,0.633,6.454,1.548,9.583
				c3.625,12.39,7.457,24.719,11.17,37.086c1.38,4.588,2.624,9.215,3.93,13.824c-0.846,0.262-1.687,0.523-2.539,0.787
				c-0.651-2.175-1.27-4.361-1.961-6.521c-6.498-20.238-12.642-40.604-19.669-60.66c-3.589-10.256-13.023-14.076-21.982-10.404
				c-8.56,3.509-11.478,12.357-6.851,22.394c8.372,18.142,17.124,36.106,25.531,54.229c2.251,4.858,4.272,9.283,10.831,6.394
				C109.917,243.891,99.512,250.026,88.777,256.35z M51.76,193.432c0.267,0.746,0.491,2.358,1.314,3.569
				c12.064,17.78,23.234,36.308,36.816,52.854c5.385,6.568,10.38-5.444,16.591-6.795c1.254-0.271,3.075-4.85,2.344-6.254
				c-9.656-18.612-19.464-37.164-29.821-55.395c-4.105-7.232-11.008-9.151-17.565-6.586
				C54.849,177.403,50.407,185.514,51.76,193.432z"/>
			<path fill="#FFFFFF" d="M88.777,256.35c10.735-6.322,21.139-12.459,31.544-18.588c-6.559,2.892-8.58-1.533-10.831-6.393
				c-8.407-18.123-17.159-36.087-25.531-54.229c-4.627-10.037-1.709-18.884,6.851-22.394c8.959-3.672,18.394,0.148,21.982,10.404
				c7.027,20.056,13.171,40.42,19.669,60.66c0.692,2.16,1.31,4.347,1.961,6.521c0.852-0.264,1.693-0.526,2.539-0.787
				c-1.306-4.608-2.55-9.237-3.93-13.823c-3.713-12.369-7.545-24.697-11.17-37.086c-0.915-3.13-2.406-6.802-1.548-9.583
				c1.379-4.468,3.572-10.354,7.121-12.014c3.565-1.666,10.679-0.449,13.576,2.302c4.039,3.835,6.705,10.013,8.04,15.641
				c5.713,24.128,10.589,48.452,16.136,72.618c0.778,3.395,3.568,6.323,5.429,9.467c2.915-2.903,6.625-5.362,8.551-8.815
				c2.808-5.03,4.203-10.83,6.428-16.206c3.935-9.525,10.552-16.104,21.115-17.551c11.217-1.535,19.195,7.428,15.157,17.895
				c-2.273,5.899-6.3,11.651-10.908,16.021c-11.332,10.718-18.342,22.341-18.804,38.882c-0.287,10.032-4.87,20.688-10.099,29.543
				c-3.104,5.263-11.075,7.838-17.127,11.132c-4.69,2.548-10.321,3.583-14.626,6.593c-15.061,10.529-29.114,10.422-41.536-3.078
				c-7.758-8.438-14.966-18.189-19.491-28.619c-7.715-17.785-18.73-32.799-31.783-46.699c-4.155-4.426-8.217-8.971-11.963-13.741
				c-2.309-2.944-4.459-6.226-5.761-9.7c-2.42-6.443,0.346-14.447,5.747-17.381c6.332-3.443,12.185-1.58,16.357,3.539
				c7.989,9.795,15.375,20.08,23.006,30.17C86.218,252.822,87.517,254.631,88.777,256.35z"/>
			<path fill="#FFFFFF" d="M51.76,193.432c-1.353-7.918,3.089-16.029,9.679-18.606c6.557-2.565,13.46-0.646,17.565,6.586
				c10.357,18.23,20.166,36.781,29.821,55.395c0.731,1.404-1.09,5.982-2.344,6.254c-6.211,1.351-11.207,13.363-16.591,6.795
				c-13.582-16.547-24.752-35.073-36.816-52.854C52.251,195.79,52.026,194.178,51.76,193.432z"/>
			<path d="M128.069,356.37c-38.756,0-58.984-71.981-81.361-97.556c-11.294-12.913-25.305-32.592-7.205-46.285
				c15.046-11.393-7.135-32.729,16.926-44.722c5.391-2.335,10.882-2.844,16.478-1.527c2.293-9.803,7.768-17.879,18.131-20.436
				c5.749-1.501,11.386-0.946,16.913,1.663c16.689,8.499,9.2,1.941,26.475,1.941c32.311,0,30.597,72.756,37.826,95.216
				c25.495-59.057,85.479-22.277,44.331,12.298c-21.059,17.712-11.066,45.488-26.486,65.573
				C183.703,337.098,142.223,356.37,128.069,356.37z M51.896,218.915c-28.528,0,31.309,66.747,34.416,72.372
				c25.15,45.546,35.855,55.305,81.889,33.317c23.888-11.409,16.136-37.363,25.729-57.28c4.539-9.424,32.863-30.73,24.136-43.456
				c-15.97-23.274-39.336,33.821-48.134,40.58c-9.004-12.368-22.911-110.892-41.086-102.391
				c-24.633,11.519,31.396,68.333,3.351,74.448c-5.675-19.26-11.287-64.654-27.336-77.263c-11.232-8.823-23.455,4.379-17.872,16.5
				c8.368,18.139,17.12,36.102,25.527,54.225c7.807,16.854,8.514,11.247-15.792,25.568C73.34,269.312,75.133,218.915,51.896,218.915
				z M55.21,193.378c1.781,6.913,45.832,78.55,50.43,44.528c-9.564-18.43-19.278-36.79-29.533-54.849
				C68.265,169.26,52.195,181.756,55.21,193.378C55.355,193.947,55.139,193.113,55.21,193.378z"/>
		</g>
	</g>
</g>
</svg>
