<?xml version="1.0" encoding="utf-8"?>
<!-- Generator: Adobe Illustrator 16.0.0, SVG Export Plug-In . SVG Version: 6.00 Build 0)  -->
<!DOCTYPE svg PUBLIC "-//W3C//DTD SVG 1.1//EN" "http://www.w3.org/Graphics/SVG/1.1/DTD/svg11.dtd">
<svg version="1.1" id="Layer_1" xmlns="http://www.w3.org/2000/svg" xmlns:xlink="http://www.w3.org/1999/xlink" x="0px" y="0px"
	 width="550px" height="550px" viewBox="-85.106 -76.564 550 550" enable-background="new -85.106 -76.564 550 550"
	 xml:space="preserve">
<path fill="#FFFFFF" d="M220.97,396.623l-0.887-0.035c-62.638-2.661-144.771-34.32-187.029-99.041
	c-43.651-66.855-29.273-141.315-9.528-192.007C48.528,41.355,112.677-0.117,186.956-0.117c79.85,0,147.957,45.644,177.741,119.12
	c19.989,49.314,19.995,104.539,0.015,151.521c-19.211,45.171-55.499,79.64-104.982,99.734
	c-6.901,11.461-17.949,26.365-38.111,26.365H220.97z"/>
<path fill="#231F20" d="M336.729,130.339C283.009-2.179,96.949,0.191,51.646,116.495
	c-66.967,171.903,78.372,246.062,169.728,249.945c7.098,0.302,12.747-12.777,18.33-21.632c2.716-0.481,5.347-1.178,7.834-2.174
	C349.214,301.864,365.554,201.445,336.729,130.339z M321.751,233.756c-41.721,122.955-152.091,84.407-159.155,85.139
	c-133.68-51.418-167.307-195.47-10.022-258.5C255.043,19.332,356.092,132.578,321.751,233.756z"/>
<path fill="#231F20" d="M153.935,171.317c3.587,11.215-16.52,22.931-28.965,22.042c-12.445-0.887-19.479-18.834-18.59-31.278
	c0.887-12.443,11.278-26.225,23.724-25.336C142.548,137.632,150.139,159.435,153.935,171.317z"/>
<path fill="#231F20" d="M278.362,164.6c-0.572,8.02-2.381,14.48-8.401,18.32c-3.737,2.383-11.323,8.654-15.972,8.322
	c-22.352-1.595-22.473-22.048-21.543-35.044c0.928-12.996,11.512-22.829,23.643-21.963C268.217,135.1,279.288,151.604,278.362,164.6
	z"/>
<g>
	<path fill="#EC1C24" d="M271.964,257.25c0.348,0.602,0.502,0.811,0.423,1.934c-0.032,1.881-0.185,3.849-1.023,5.793
		c-0.796,1.91-2,3.474-3.612,4.409c-1.659,0.938-3.615,1.285-5.98,1.087c-2.386-0.183-4.898-0.77-8.023-1.515
		c-0.217-0.062-1.062-0.39-1.374-0.653c-2.183-3.806-5.627-7.697-9.617-11.148c-4.006-3.479-8.569-6.59-13.405-9.307
		c-3.949-2.3-8.188-4.156-12.447-5.924c-4.323-1.615-8.705-3.13-13.206-4.144c-6.062-1.474-12.239-2.386-18.392-2.683
		c0,0-0.475-0.051-1.342-0.142c-0.872-0.065-2.145-0.289-3.736-0.354c-3.176-0.166-7.688-0.424-12.83,0.03
		c-10.342,0.517-23.187,4.188-33.139,9.654c-2.146,1.096-3.967,2.325-5.667,3.413c-0.857,0.542-1.68,1.054-2.458,1.54
		c-0.746,0.536-1.45,1.041-2.124,1.524c-1.348,0.957-2.605,1.762-3.689,2.498c-1.043,0.778-1.971,1.43-2.802,1.951
		c-3.318,2.092-4.863,2.219-5.054,0.706c-0.133-1.467,1.022-4.661,3.503-8.723c2.558-3.976,6.375-8.938,11.605-13.425
		c-0.636,0.338,2.077-2.266,7.125-5.688c5.051-3.378,12.539-7.45,20.706-10.147c2.046-0.617,4.1-1.295,6.154-1.84
		c2.068-0.473,4.109-0.938,6.088-1.393c2.003-0.318,3.946-0.625,5.788-0.917c1.844-0.279,3.604-0.368,5.228-0.536
		c6.501-0.516,10.883-0.345,10.883-0.345c6.595,0.403,13.07,1.573,19.437,3.065c5.488,1.268,10.821,3.066,16.086,5.035
		c5.201,2.125,10.36,4.395,15.279,7.223c5.994,3.379,11.766,7.273,17.155,11.942C262.863,244.863,267.933,250.266,271.964,257.25z"
		/>
</g>
<path fill="#231F20" d="M148.105,88.274c0,0,0.102,0.38,0.292,1.094c0.176,0.708,0.45,1.734,0.544,3.179
	c0.128,1.434,0.14,3.145-0.115,5.139c-0.232,1.993-0.775,4.221-1.656,6.569c-1.75,4.697-5.072,9.717-9.583,13.974
	c-1.118,1.079-2.311,2.098-3.568,3.06c-1.247,0.988-2.547,1.915-3.908,2.762c-2.681,1.781-5.599,3.187-8.528,4.505
	c-2.965,1.242-5.995,2.261-9.021,3.047c-1.515,0.368-3.015,0.756-4.524,0.983c-1.496,0.277-2.976,0.528-4.447,0.658
	c-2.926,0.358-5.767,0.436-8.443,0.423c-1.343-0.055-2.644-0.094-3.899-0.181c-1.25-0.135-2.454-0.264-3.616-0.388
	c-2.307-0.351-4.399-0.741-6.236-1.218c-1.836-0.431-3.409-0.979-4.697-1.41c-1.282-0.446-2.272-0.922-2.95-1.188
	c-0.671-0.291-1.028-0.476-1.028-0.476s1.521-0.523,4.084-1.238c1.285-0.405,2.827-0.765,4.568-1.274
	c1.718-0.467,3.658-0.993,5.773-1.563c4.179-1.146,8.932-2.483,13.854-4.045c2.476-0.74,4.96-1.667,7.482-2.503
	c2.481-0.96,5.019-1.835,7.441-2.928c2.449-1.024,4.857-2.131,7.143-3.309c2.272-1.204,4.498-2.405,6.545-3.711
	c2.031-1.317,3.979-2.639,5.715-4.038c1.718-1.407,3.342-2.808,4.703-4.251c1.385-1.426,2.599-2.854,3.595-4.219
	c1.017-1.348,1.836-2.665,2.481-3.741c0.33-0.561,0.619-1.062,0.875-1.5c0.235-0.475,0.434-0.88,0.595-1.208
	C147.92,88.622,148.105,88.274,148.105,88.274z"/>
<path fill="#231F20" d="M212.599,82.544c0,0,0.258,0.296,0.748,0.853c0.235,0.281,0.521,0.627,0.857,1.035
	c0.354,0.366,0.755,0.784,1.204,1.251c0.881,0.897,1.987,1.986,3.292,3.059c1.289,1.092,2.8,2.196,4.482,3.26
	c1.66,1.085,3.568,2.064,5.565,3.029c2.015,0.954,4.218,1.78,6.502,2.586c2.296,0.793,4.742,1.436,7.235,2.074
	c2.496,0.61,5.095,1.122,7.715,1.543c2.613,0.496,5.285,0.752,7.924,1.103c2.652,0.223,5.277,0.542,7.857,0.68
	c5.155,0.367,10.086,0.555,14.416,0.688c2.192,0.062,4.198,0.118,5.979,0.167c1.814,0.089,3.398,0.076,4.739,0.169
	c2.663,0.095,4.259,0.249,4.259,0.249s-0.297,0.26-0.884,0.699c-0.597,0.42-1.448,1.114-2.589,1.852
	c-1.147,0.718-2.555,1.619-4.236,2.47c-1.674,0.893-3.615,1.763-5.775,2.645c-1.103,0.391-2.244,0.802-3.428,1.226
	c-1.201,0.376-2.449,0.719-3.747,1.087c-2.599,0.64-5.383,1.229-8.308,1.568c-1.461,0.217-2.957,0.321-4.479,0.399
	c-1.515,0.132-3.067,0.107-4.628,0.105c-3.128-0.056-6.305-0.336-9.482-0.847c-3.158-0.595-6.324-1.28-9.344-2.383
	c-1.523-0.507-3.007-1.101-4.447-1.769c-1.443-0.642-2.851-1.351-4.187-2.139c-5.386-3.081-9.788-7.185-12.595-11.341
	c-1.404-2.075-2.452-4.114-3.146-5.997c-0.713-1.879-1.104-3.547-1.313-4.967c-0.247-1.428-0.224-2.49-0.218-3.22
	C212.589,82.937,212.599,82.544,212.599,82.544z"/>
</svg>
