<?xml version="1.0" encoding="utf-8"?>
<!-- Generator: Adobe Illustrator 16.0.0, SVG Export Plug-In . SVG Version: 6.00 Build 0)  -->
<!DOCTYPE svg PUBLIC "-//W3C//DTD SVG 1.1//EN" "http://www.w3.org/Graphics/SVG/1.1/DTD/svg11.dtd">
<svg version="1.1" id="Layer_1" xmlns="http://www.w3.org/2000/svg" xmlns:xlink="http://www.w3.org/1999/xlink" x="0px" y="0px"
	 width="550px" height="550px" viewBox="-85.106 -76.564 550 550" enable-background="new -85.106 -76.564 550 550"
	 xml:space="preserve">
<path fill="#FFFFFF" d="M224.294,395.615c-57.543,0-141.731-23.049-189.614-88C8.843,272.566-15.898,211.225,12.958,118.02
	C34.814,47.429,103.249,0,183.252,0c75.036,0,139.491,40.048,172.422,107.126c23.552,47.974,27.503,103.292,10.843,151.778
	c-16.017,46.621-49.908,83.742-98.035,107.405c-6.109,11.943-16.771,28.612-37.826,29.217c-2.09,0.06-4.205,0.089-6.353,0.089
	C224.3,395.615,224.298,395.615,224.294,395.615z"/>
<path fill="#231F20" d="M328.469,120.482C265.187-8.426,78.979,7.245,41.908,126.984c-54.799,176.985,96.089,240.888,187.879,238.25
	c7.13-0.208,11.856-13.715,16.815-22.98c2.685-0.681,5.271-1.562,7.691-2.739C353.231,291.409,362.425,189.649,328.469,120.482z
	 M320.854,225.148c-33.011,126.157-146.341,95.411-153.347,96.654C29.928,279.85-14.049,137.952,138.998,63.579
	C238.711,15.12,348.022,121.34,320.854,225.148z"/>
<path fill="#231F20" d="M151.592,172.969c3.6,11.267-16.591,23.031-29.087,22.14c-12.5-0.891-19.564-18.912-18.673-31.413
	c0.891-12.492,11.326-26.333,23.823-25.443C140.153,139.145,147.779,161.04,151.592,172.969z"/>
<path fill="#231F20" d="M276.548,166.215c-0.574,8.053-2.392,14.543-8.435,18.399c-3.753,2.392-11.371,8.688-16.037,8.357
	c-22.448-1.601-22.573-22.14-21.642-35.188c0.93-13.054,11.562-22.93,23.741-22.06C266.354,136.59,277.478,153.164,276.548,166.215z
	"/>
<path fill="#231F20" d="M89.101,115.895c0,0,0.197-0.349,0.567-0.991c0.371-0.63,0.902-1.554,1.858-2.652
	c0.922-1.11,2.125-2.338,3.715-3.584c1.58-1.251,3.537-2.459,5.826-3.513c4.568-2.11,10.488-3.344,16.714-3.191
	c1.56,0.021,3.133,0.137,4.706,0.34c1.593,0.178,3.174,0.438,4.741,0.8c3.171,0.621,6.25,1.681,9.268,2.811
	c2.995,1.214,5.871,2.625,8.585,4.206c1.344,0.811,2.688,1.595,3.926,2.5c1.265,0.859,2.496,1.726,3.634,2.67
	c2.342,1.814,4.422,3.771,6.322,5.67c0.921,0.991,1.82,1.936,2.652,2.888c0.797,0.974,1.562,1.921,2.302,2.833
	c1.406,1.882,2.616,3.637,3.587,5.28c1.004,1.601,1.74,3.111,2.354,4.321c0.601,1.228,0.968,2.27,1.262,2.941
	c0.271,0.681,0.395,1.06,0.395,1.06s-1.45-0.702-3.788-2.001c-1.199-0.622-2.554-1.456-4.157-2.323
	c-1.555-0.881-3.312-1.879-5.222-2.965c-3.788-2.137-8.123-4.546-12.741-6.914c-2.29-1.22-4.715-2.317-7.107-3.504
	c-2.446-1.068-4.87-2.241-7.377-3.173c-2.471-1-4.969-1.915-7.433-2.696c-2.471-0.746-4.904-1.461-7.288-1.98
	c-2.379-0.494-4.706-0.926-6.931-1.157c-2.219-0.213-4.365-0.361-6.361-0.292c-1.997,0.035-3.869,0.192-5.549,0.464
	c-1.68,0.243-3.188,0.604-4.416,0.917c-0.63,0.163-1.188,0.317-1.681,0.447c-0.504,0.171-0.931,0.323-1.277,0.438
	C89.48,115.776,89.101,115.895,89.101,115.895z"/>
<path fill="#231F20" d="M291.419,114.264c0,0-0.387-0.088-1.109-0.26c-0.357-0.092-0.793-0.207-1.308-0.346
	c-0.497-0.095-1.071-0.201-1.717-0.319c-1.243-0.222-2.776-0.471-4.47-0.583c-1.692-0.145-3.568-0.172-5.569-0.057
	c-1.991,0.083-4.119,0.394-6.315,0.767c-2.201,0.394-4.486,0.998-6.83,1.672c-2.334,0.687-4.713,1.589-7.121,2.519
	c-2.396,0.956-4.823,2.054-7.209,3.232c-2.427,1.118-4.763,2.465-7.125,3.714c-2.299,1.362-4.634,2.634-6.826,4.022
	c-4.424,2.702-8.57,5.428-12.188,7.834c-1.834,1.231-3.504,2.353-4.989,3.347c-1.531,0.986-2.822,1.92-3.975,2.625
	c-2.234,1.474-3.628,2.278-3.628,2.278s0.092-0.387,0.315-1.089c0.237-0.693,0.535-1.755,1.039-3.022
	c0.519-1.255,1.146-2.812,2.027-4.486c0.85-1.708,1.93-3.551,3.182-5.528c0.672-0.965,1.371-1.965,2.09-3.001
	c0.761-1.006,1.582-2.015,2.43-3.072c1.756-2.039,3.688-4.143,5.884-6.123c1.065-1.027,2.229-1.986,3.429-2.936
	c1.161-0.995,2.448-1.877,3.723-2.782c2.593-1.776,5.355-3.397,8.257-4.833c2.924-1.352,5.913-2.639,9.028-3.495
	c1.535-0.473,3.097-0.852,4.668-1.142c1.558-0.316,3.119-0.557,4.668-0.689c6.199-0.621,12.195,0.172,16.912,1.938
	c2.359,0.876,4.401,1.936,6.066,3.072c1.676,1.119,2.967,2.255,3.973,3.297c1.032,1.021,1.629,1.906,2.051,2.507
	C291.197,113.936,291.419,114.264,291.419,114.264z"/>
<g>
	<path fill="#F0584F" d="M137.265,260.023c-0.214,0.277-0.289,0.375-0.944,0.487c-2,0.546-5.06,1.273-8.214,0.548
		c-3.011-0.764-6.262-2.933-6.518-10.261c0.004-0.261,0.188-1.418,0.448-1.897c3.785-5.188,8.577-9.68,13.905-12.991
		c5.318-3.339,11.03-5.7,16.795-7.341c14.016-3.836,28.189-3.574,41.648-1.168c6.216,1.156,12.345,2.695,18.272,4.839
		c0,0,7.292,2.899,16.123,8.541c4.365,2.909,9.15,6.399,13.445,10.551c4.299,4.132,8.193,8.739,11.108,13.295
		c5.088,7.638,6.694,13.492,7.101,16.863c0.399,3.399-0.256,4.462-1.424,3.962c-2.406-0.993-6.795-8.021-14.056-14.562
		c0.51,0.928-7.581-7.56-18.289-13.011c-5.244-2.826-10.854-5.062-15.129-6.514c-4.294-1.425-7.239-2.116-7.239-2.116
		c-4.326-1.43-8.76-2.557-13.23-3.333c-11.256-2.054-22.925-2.074-33.254,0.808C149.303,249.105,141.855,253.514,137.265,260.023z"
		/>
</g>
</svg>
