<?xml version="1.0" encoding="utf-8"?>
<!-- Generator: Adobe Illustrator 16.0.0, SVG Export Plug-In . SVG Version: 6.00 Build 0)  -->
<!DOCTYPE svg PUBLIC "-//W3C//DTD SVG 1.1//EN" "http://www.w3.org/Graphics/SVG/1.1/DTD/svg11.dtd">
<svg version="1.1" id="Layer_1" xmlns="http://www.w3.org/2000/svg" xmlns:xlink="http://www.w3.org/1999/xlink" x="0px" y="0px"
	 width="550px" height="550px" viewBox="-85.106 -60.017 550 550" enable-background="new -85.106 -60.017 550 550"
	 xml:space="preserve">
<path fill="#FFFFFF" d="M358.26,107.159C325.2,39.814,260.49-0.39,185.16-0.39c-80.315,0-149.021,47.616-170.962,118.485
	C-8.917,192.74,2.227,247.009,20.843,283.776c2.24,14.188,10.557,28.049,24.308,39.6c2.642,2.222,3.657,6.07,5.568,17.295
	c1.946,11.453,4.578,26.938,14.747,41.339c15.615,26.611,66.25,47.957,87.813,47.957c25.41,0,44.236-14.791,59.025-33.646
	c4.824,0.293,9.532,0.452,14.062,0.452c0.002,0,0.006,0,0.01,0c2.153,0,4.278-0.027,6.375-0.086
	c21.142-0.606,31.842-17.339,37.978-29.322c48.32-23.761,82.34-61.033,98.418-107.836
	C385.871,210.853,381.899,155.315,358.26,107.159z"/>
<path fill="#231F20" d="M330.949,120.564C267.418-8.848,80.478,6.881,43.26,127.095c-55.014,177.678,96.467,241.83,188.619,239.18
	c7.159-0.204,11.904-13.765,16.888-23.065c2.692-0.681,5.285-1.566,7.717-2.748C355.81,292.16,365.037,190.007,330.949,120.564z
	 M323.306,225.644c-33.135,126.631-146.877,95.798-153.946,97.033c-138.125-42.119-182.278-184.57-28.627-259.24
	C240.836,14.79,350.581,121.426,323.306,225.644z"/>
<path fill="#231F20" d="M78.057,116.319c0,0,0.098-0.386,0.282-1.109c0.189-0.71,0.45-1.747,1.081-3.066
	c0.595-1.325,1.42-2.834,2.627-4.465c1.185-1.64,2.757-3.333,4.686-4.97c3.85-3.271,9.242-6.058,15.307-7.587
	c1.513-0.403,3.067-0.71,4.644-0.94c1.58-0.258,3.185-0.431,4.799-0.51c3.235-0.25,6.494-0.054,9.725,0.227
	c3.22,0.365,6.384,0.958,9.436,1.753c1.512,0.419,3.025,0.817,4.463,1.358c1.457,0.492,2.882,0.998,4.236,1.604
	c2.752,1.125,5.295,2.454,7.643,3.78c1.158,0.71,2.281,1.384,3.342,2.074c1.034,0.733,2.033,1.439,2.992,2.12
	c1.858,1.444,3.509,2.817,4.889,4.136c1.403,1.284,2.521,2.544,3.441,3.553c0.915,1.023,1.551,1.929,2.012,2.497
	c0.447,0.588,0.673,0.921,0.673,0.921s-1.598-0.285-4.207-0.915c-1.324-0.273-2.862-0.716-4.646-1.124
	c-1.742-0.434-3.709-0.927-5.848-1.461c-4.242-1.046-9.083-2.205-14.185-3.251c-2.547-0.565-5.182-0.968-7.818-1.473
	c-2.656-0.375-5.321-0.856-7.988-1.082c-2.66-0.303-5.321-0.511-7.915-0.601c-2.592-0.056-5.14-0.094-7.582,0.055
	c-2.437,0.159-4.802,0.365-7.018,0.742c-2.202,0.393-4.32,0.826-6.228,1.433c-1.923,0.57-3.689,1.233-5.237,1.943
	c-1.562,0.686-2.928,1.444-4.026,2.073c-0.566,0.333-1.071,0.63-1.511,0.889c-0.439,0.304-0.812,0.562-1.114,0.773
	C78.389,116.103,78.057,116.319,78.057,116.319z"/>
<path fill="#231F20" d="M287.028,103.677c0,0-0.361-0.164-1.043-0.47c-0.332-0.16-0.739-0.359-1.217-0.595
	c-0.478-0.187-1.021-0.403-1.629-0.647c-1.183-0.455-2.65-0.992-4.297-1.432c-1.638-0.466-3.486-0.847-5.474-1.122
	c-1.978-0.303-4.138-0.407-6.371-0.46c-2.249-0.035-4.616,0.125-7.049,0.338c-2.439,0.23-4.954,0.66-7.507,1.113
	c-2.545,0.481-5.146,1.097-7.729,1.8c-2.602,0.637-5.162,1.516-7.73,2.295c-2.523,0.903-5.066,1.705-7.494,2.649
	c-4.885,1.816-9.49,3.703-13.52,5.384c-2.035,0.854-3.904,1.643-5.56,2.341c-1.701,0.672-3.151,1.346-4.421,1.819
	c-2.481,1.022-4.016,1.551-4.016,1.551s0.17-0.365,0.522-1.016c0.374-0.63,0.864-1.623,1.604-2.776
	c0.758-1.14,1.668-2.551,2.86-4.034c1.16-1.515,2.58-3.125,4.199-4.838c0.847-0.816,1.724-1.669,2.632-2.554
	c0.941-0.844,1.95-1.682,2.982-2.558c2.119-1.671,4.432-3.373,6.974-4.906c1.252-0.807,2.58-1.527,3.946-2.235
	c1.337-0.754,2.769-1.378,4.201-2.025c2.895-1.254,5.931-2.32,9.06-3.178c3.146-0.771,6.337-1.461,9.573-1.71
	c1.604-0.168,3.218-0.243,4.814-0.229c1.596-0.014,3.18,0.051,4.736,0.216c6.229,0.581,11.982,2.513,16.287,5.157
	c2.158,1.32,3.971,2.755,5.393,4.194c1.439,1.425,2.486,2.795,3.28,4.01c0.823,1.208,1.239,2.195,1.538,2.866
	C286.874,103.308,287.028,103.677,287.028,103.677z"/>
<g>
	<g>
		<path d="M239.692,290.942c-5.336,6.43-10.916,12.652-16.469,18.897c-9.596,10.784-18.562,21.673-24.002,35.575
			c-5.517,14.116-13.546,27.227-25.332,37.434c-9.469,8.211-20.563,12.253-32.34,7.313c-12.619-5.295-24.652-11.919-37.638-16.567
			c-3.888-1.392-7.949-5.414-9.634-9.243c-4.009-9.109-8.737-18.688-9.36-28.323c-1.013-15.735-6.005-28.363-18.041-38.489
			c-3.431-2.883-6.335-6.599-8.785-10.39c-6.215-9.596-6.106-20.307-0.212-26.857c6.097-6.775,16.962-7.541,27.442-2.386
			c10.298,5.062,14.339,14.46,17.929,24.364c1.455,4.019,3.277,7.91,4.926,11.859c0.832-0.109,1.66-0.223,2.495-0.335
			c1.729-5.731,3.893-11.37,5.113-17.201c4.134-19.825,7.412-39.846,12.01-59.562c5.104-21.915,18.181-26.901,37.135-14.512
			c6.081-8.083,13.824-13.007,24.6-10.351c10.861,2.679,14.592,11.299,16.365,21.292c10.057-2.977,18.357-1.611,24.265,6.127
			c8.508,11.149,4.174,21.935-2.979,32.65C249.168,258.837,253.676,274.078,239.692,290.942z M161.032,280.884
			c6.56,2.896,8.581-1.529,10.836-6.389c8.407-18.135,17.166-36.105,25.539-54.258c4.629-10.039,1.713-18.89-6.855-22.399
			c-8.96-3.675-18.396,0.148-21.989,10.404c-7.032,20.065-13.176,40.442-19.677,60.684c-0.692,2.166-1.311,4.353-1.96,6.525
			c-0.851-0.263-1.695-0.522-2.542-0.791c1.308-4.607,2.552-9.236,3.934-13.827c3.711-12.369,7.551-24.702,11.171-37.098
			c0.919-3.131,2.407-6.805,1.549-9.585c-1.379-4.472-3.572-10.361-7.123-12.021c-3.569-1.665-10.683-0.452-13.583,2.305
			c-4.04,3.832-6.708,10.013-8.043,15.646c-5.712,24.133-10.591,48.469-16.139,72.646c-0.782,3.395-3.57,6.323-5.434,9.467
			c-2.915-2.899-6.629-5.359-8.554-8.816c-2.808-5.029-4.204-10.831-6.43-16.21c-3.938-9.532-10.557-16.108-21.124-17.56
			c-11.224-1.539-19.205,7.432-15.163,17.901c2.275,5.9,6.301,11.659,10.913,16.022c11.335,10.726,18.35,22.353,18.813,38.899
			c0.286,10.032,4.87,20.692,10.099,29.549c3.109,5.271,11.079,7.847,17.131,11.138c4.694,2.555,10.329,3.589,14.637,6.603
			c15.066,10.535,29.124,10.424,41.551-3.08c7.763-8.438,14.971-18.196,19.5-28.632c7.717-17.797,18.735-32.812,31.799-46.722
			c4.153-4.427,8.217-8.974,11.963-13.748c2.311-2.942,4.461-6.22,5.765-9.697c2.42-6.454-0.347-14.456-5.748-17.387
			c-6.335-3.448-12.19-1.584-16.366,3.538c-7.991,9.796-15.377,20.087-23.01,30.186c-1.346,1.774-2.643,3.59-3.904,5.305
			C181.851,293.151,171.441,287.017,161.032,280.884z M219.938,217.924c-6.561-2.568-13.465-0.643-17.57,6.591
			c-10.361,18.234-20.175,36.797-29.837,55.411c-0.729,1.408,1.093,5.989,2.346,6.263c6.214,1.35,11.215,13.365,16.599,6.795
			c13.59-16.553,24.765-35.084,36.83-52.877c0.826-1.207,1.051-2.821,1.314-3.562C230.974,228.613,226.526,220.502,219.938,217.924z
			"/>
		<path fill="#FFFFFF" d="M192.589,299.481c-10.738-6.33-21.147-12.467-31.557-18.599c6.56,2.896,8.581-1.53,10.836-6.389
			c8.407-18.136,17.166-36.104,25.539-54.257c4.629-10.04,1.713-18.892-6.855-22.4c-8.96-3.675-18.396,0.148-21.989,10.404
			c-7.032,20.064-13.176,40.441-19.677,60.684c-0.692,2.166-1.311,4.352-1.96,6.525c-0.851-0.262-1.695-0.522-2.542-0.791
			c1.308-4.607,2.552-9.236,3.934-13.827c3.711-12.369,7.551-24.702,11.171-37.099c0.919-3.131,2.407-6.803,1.549-9.584
			c-1.379-4.472-3.572-10.361-7.123-12.021c-3.569-1.665-10.683-0.452-13.583,2.305c-4.04,3.832-6.708,10.013-8.043,15.646
			c-5.712,24.133-10.591,48.469-16.139,72.646c-0.782,3.394-3.57,6.322-5.434,9.467c-2.915-2.9-6.629-5.36-8.554-8.817
			c-2.808-5.028-4.204-10.831-6.43-16.21c-3.938-9.532-10.557-16.109-21.124-17.559c-11.224-1.539-19.205,7.431-15.163,17.9
			c2.275,5.9,6.301,11.659,10.913,16.022c11.335,10.726,18.35,22.353,18.813,38.899c0.286,10.032,4.87,20.692,10.099,29.548
			c3.109,5.271,11.079,7.848,17.131,11.139c4.694,2.555,10.329,3.589,14.637,6.603c15.066,10.535,29.124,10.424,41.551-3.08
			c7.763-8.438,14.971-18.196,19.5-28.632c7.717-17.797,18.735-32.812,31.799-46.722c4.153-4.428,8.217-8.973,11.963-13.748
			c2.311-2.941,4.461-6.221,5.765-9.697c2.42-6.453-0.347-14.457-5.748-17.387c-6.335-3.448-12.19-1.584-16.366,3.538
			c-7.991,9.796-15.377,20.087-23.01,30.185C195.147,295.951,193.851,297.767,192.589,299.481z"/>
		<path fill="#FFFFFF" d="M229.619,236.544c1.354-7.931-3.093-16.042-9.683-18.62c-6.56-2.568-13.465-0.643-17.569,6.591
			c-10.361,18.234-20.175,36.797-29.837,55.411c-0.729,1.408,1.093,5.989,2.346,6.263c6.214,1.35,11.215,13.365,16.6,6.795
			c13.588-16.553,24.764-35.084,36.828-52.877C229.131,238.899,229.354,237.284,229.619,236.544z"/>
		<path d="M91.228,365.693c-15.424-20.092-5.426-47.884-26.494-65.604c-41.165-34.588,18.842-71.379,44.35-12.301
			c7.229-22.468,5.515-95.252,37.838-95.252c17.28,0,9.786,6.56,26.485-1.942c5.525-2.609,11.168-3.165,16.92-1.664
			c10.365,2.562,15.842,10.637,18.136,20.444c5.603-1.316,11.095-0.812,16.483,1.526c24.072,11.999,1.879,33.343,16.937,44.743
			c18.105,13.694,4.091,33.385-7.212,46.301c-22.38,25.58-42.62,97.596-81.393,97.596
			C139.123,399.541,97.626,380.263,91.228,365.693z M184.641,298.667c-24.317-14.329-23.609-8.719-15.798-25.581
			c8.408-18.127,17.165-36.094,25.536-54.242c5.586-12.127-6.643-25.337-17.88-16.507c-16.056,12.612-21.667,58.025-27.345,77.295
			c-28.057-6.123,27.994-62.957,3.351-74.48c-18.177-8.504-32.095,90.061-41.103,102.429c-8.8-6.755-32.177-63.882-48.154-40.589
			c-8.726,12.727,19.61,34.041,24.147,43.466c9.595,19.931,1.838,45.89,25.738,57.305c46.05,21.997,56.762,12.236,81.92-33.33
			c3.109-5.628,62.97-72.404,34.433-72.404C206.233,262.026,208.031,312.45,184.641,298.667z M226.173,236.481
			c3.012-11.623-13.062-24.126-20.91-10.322c-10.262,18.068-19.978,36.436-29.544,54.876
			C180.321,315.068,224.386,243.399,226.173,236.481C226.239,236.222,226.021,237.05,226.173,236.481z"/>
	</g>
</g>
<path fill="#231F20" d="M143.944,188.777c2.941,11.502-9.445-15.486-21.914-17.12c-12.474-1.634-27.036,17.464-25.401,4.991
	c1.636-12.47,14.003-33.443,26.473-31.809C135.575,146.473,140.83,176.588,143.944,188.777z"/>
<path fill="#231F20" d="M230.502,185.633c-1.262,11.802,13.406-13.254,25.519-16.656c12.107-3.402,22.979,9.992,19.576-2.116
	c-3.402-12.11-18.619-28.999-30.729-25.599C232.755,144.667,231.843,173.125,230.502,185.633z"/>
</svg>
