<?xml version="1.0" encoding="utf-8"?>
<!-- Generator: Adobe Illustrator 16.0.0, SVG Export Plug-In . SVG Version: 6.00 Build 0)  -->
<!DOCTYPE svg PUBLIC "-//W3C//DTD SVG 1.1//EN" "http://www.w3.org/Graphics/SVG/1.1/DTD/svg11.dtd">
<svg version="1.1" id="Layer_1" xmlns="http://www.w3.org/2000/svg" xmlns:xlink="http://www.w3.org/1999/xlink" x="0px" y="0px"
	 width="550px" height="550px" viewBox="-85.106 -76.564 550 550" enable-background="new -85.106 -76.564 550 550"
	 xml:space="preserve">
<path fill="#FFFFFF" d="M224.786,396.477c-57.67,0-142.044-23.1-190.028-88.19c-25.896-35.123-50.691-96.601-21.77-190.007
	C34.892,47.533,103.478,0,183.654,0c75.197,0,139.796,40.133,172.799,107.357c23.601,48.079,27.563,103.521,10.866,152.113
	c-16.051,46.725-50.019,83.927-98.254,107.644c-6.118,11.965-16.799,28.669-37.905,29.273c-2.095,0.061-4.214,0.089-6.364,0.089
	C224.792,396.477,224.79,396.477,224.786,396.477z"/>
<g>
	<path fill="#26A9E0" d="M98.1,182.815c0,0,7.379,13.48,7.142,18.91c-0.234,5.428,0.756,13.625-8.326,13.625
		c-7.104,0-9.319-7.438-9.082-12.867C88.066,197.058,98.1,182.815,98.1,182.815z"/>
	<path fill="#231F20" d="M98.1,182.815c0,0,0.742,1,1.908,2.838c0.576,0.922,1.284,2.042,2.018,3.371
		c0.74,1.326,1.57,2.833,2.348,4.552c0.773,1.727,1.62,3.597,2.128,5.855c0.131,0.563,0.227,1.168,0.274,1.82
		c0.015,0.566,0.03,1.141,0.045,1.719c0.042,1.1,0.071,2.26,0.029,3.478s-0.131,2.497-0.442,3.842
		c-0.298,1.331-0.852,2.776-1.9,4.012c-1.023,1.255-2.513,2.134-3.975,2.554c-1.468,0.431-2.922,0.524-4.285,0.471
		c-0.81-0.057-1.564-0.182-2.302-0.393c-0.741-0.221-1.464-0.529-2.136-0.92c-1.351-0.789-2.427-1.921-3.235-3.117
		c-1.572-2.451-2.159-5.109-2.352-7.613c-0.041-0.631-0.035-1.256-0.013-1.873c0.012-0.309,0.033-0.616,0.059-0.922
		c0.049-0.456,0.055-0.547,0.143-0.981c0.292-1.382,0.727-2.387,1.187-3.425c0.942-2.014,2.014-3.751,3.011-5.343
		c1.007-1.584,2.014-2.973,2.9-4.201c0.891-1.226,1.719-2.257,2.391-3.11C97.264,183.735,98.1,182.815,98.1,182.815z M98.1,182.815
		c0,0-0.583,1.093-1.603,3.006c-1.009,1.912-2.47,4.634-4.047,7.941c-0.792,1.646-1.602,3.459-2.274,5.368
		c-0.334,0.925-0.642,1.983-0.737,2.797c-0.029,0.11-0.047,0.582-0.044,0.685c0.005,0.258,0.015,0.516,0.033,0.773
		c0.033,0.52,0.097,1.039,0.168,1.561c0.279,2.076,0.968,4.187,2.138,5.771c1.129,1.6,2.812,2.524,4.648,2.614
		c1.096,0.043,2.138-0.026,3.034-0.282c0.889-0.27,1.612-0.658,2.153-1.277c1.113-1.211,1.612-3.369,1.793-5.532
		c0.098-1.091,0.141-2.207,0.229-3.335c0.04-0.532,0.078-1.061,0.117-1.581c0.008-0.433-0.015-0.9-0.083-1.378
		c-0.273-1.914-0.8-3.834-1.338-5.562c-1.104-3.474-2.207-6.363-2.969-8.385C98.543,183.973,98.1,182.815,98.1,182.815z"/>
</g>
<g>
	<path fill="#26A9E0" d="M278.317,154.134c0,0,11.211,17.487,10.904,24.499c-0.303,7.012,1.262,17.612-12.389,17.529
		c-10.675-0.062-14.073-9.696-13.766-16.708C263.365,172.446,278.317,154.134,278.317,154.134z"/>
	<path fill="#231F20" d="M278.317,154.134c0,0,0.252,0.333,0.726,0.958c0.464,0.631,1.167,1.545,1.991,2.755
		c0.83,1.206,1.837,2.675,2.906,4.417c1.076,1.738,2.27,3.72,3.418,5.985c1.135,2.275,2.363,4.749,3.09,7.775
		c0.16,0.773,0.322,1.561,0.322,2.474c0.011,0.73,0.021,1.47,0.031,2.218c0.045,1.497,0.059,3.069-0.042,4.718
		c-0.104,1.646-0.327,3.384-0.938,5.149c-0.604,1.75-1.697,3.551-3.316,4.795c-1.587,1.271-3.48,1.998-5.308,2.364
		c-1.835,0.37-3.673,0.472-5.425,0.378c-1.004-0.086-1.924-0.201-2.852-0.438c-0.923-0.234-1.841-0.528-2.712-0.947
		c-1.752-0.808-3.321-2.006-4.563-3.422c-2.472-2.886-3.635-6.399-4.056-9.727c-0.198-1.689-0.208-3.314,0.019-4.983
		c0.189-0.993,0.437-1.744,0.729-2.487c0.286-0.742,0.611-1.433,0.939-2.105c1.355-2.658,2.904-4.926,4.35-6.999
		c1.454-2.066,2.895-3.869,4.168-5.462c1.278-1.591,2.452-2.928,3.411-4.032C277.144,155.325,278.317,154.134,278.317,154.134z
		 M278.317,154.134c0,0-0.924,1.39-2.539,3.822c-0.81,1.211-1.756,2.708-2.848,4.411c-1.093,1.703-2.27,3.658-3.519,5.793
		c-1.241,2.134-2.521,4.498-3.593,7.025c-0.262,0.63-0.514,1.271-0.715,1.915c-0.217,0.634-0.357,1.323-0.436,1.808
		c-0.109,1.318,0.043,2.787,0.286,4.184c0.476,2.819,1.64,5.623,3.547,7.665c0.938,1.031,2.063,1.86,3.334,2.422
		c1.242,0.571,2.734,0.869,4.077,0.956c3.096,0.144,6.202-0.226,8.191-1.788c1.002-0.757,1.705-1.819,2.227-3.062
		c0.504-1.254,0.773-2.684,0.93-4.143c0.159-1.462,0.193-2.963,0.279-4.47c0.044-0.754,0.088-1.5,0.131-2.237
		c0.049-0.559-0.031-1.212-0.118-1.844c-0.454-2.585-1.368-5.128-2.256-7.407c-1.838-4.573-3.667-8.321-4.938-10.94
		c-0.645-1.309-1.151-2.337-1.498-3.039C278.507,154.506,278.317,154.134,278.317,154.134z"/>
</g>
<path fill="#231F20" d="M329.188,120.743C265.769-8.444,79.153,7.258,42.001,127.262c-54.918,177.373,96.3,241.411,188.291,238.766
	c7.145-0.204,11.878-13.738,16.854-23.024c2.689-0.683,5.281-1.565,7.707-2.747C354.006,292.044,363.219,190.064,329.188,120.743z
	 M321.558,225.639c-33.082,126.432-146.656,95.626-153.68,96.866C29.995,280.459-14.08,138.251,139.304,63.716
	C239.233,15.153,348.786,121.603,321.558,225.639z"/>
<path fill="#231F20" d="M102.68,176.562c0,0-0.131-0.374-0.374-1.073c-0.229-0.7-0.575-1.711-0.774-3.156
	c-0.229-1.43-0.365-3.144-0.252-5.167c0.092-2.017,0.475-4.292,1.192-6.712c1.421-4.84,4.396-10.117,8.619-14.714
	c1.044-1.163,2.171-2.272,3.364-3.328c1.18-1.08,2.42-2.105,3.725-3.055c2.565-1.979,5.392-3.601,8.24-5.131
	c2.889-1.459,5.855-2.699,8.838-3.705c1.495-0.478,2.972-0.976,4.47-1.311c1.483-0.388,2.951-0.744,4.417-0.981
	c2.913-0.567,5.76-0.848,8.447-1.026c1.353-0.042,2.661-0.095,3.927-0.098c1.264,0.045,2.483,0.089,3.657,0.131
	c2.343,0.187,4.47,0.43,6.347,0.774c1.875,0.303,3.494,0.742,4.817,1.08c1.32,0.356,2.349,0.766,3.046,0.985
	c0.697,0.243,1.068,0.403,1.068,0.403s-1.489,0.635-4.013,1.537c-1.26,0.498-2.782,0.967-4.493,1.604
	c-1.691,0.59-3.601,1.257-5.683,1.984c-4.114,1.447-8.788,3.132-13.62,5.054c-2.432,0.919-4.858,2.026-7.332,3.049
	c-2.42,1.139-4.906,2.201-7.261,3.47c-2.385,1.204-4.722,2.485-6.935,3.832c-2.195,1.37-4.342,2.734-6.303,4.194
	c-1.946,1.471-3.805,2.936-5.449,4.464c-1.622,1.533-3.152,3.058-4.416,4.606c-1.291,1.531-2.405,3.049-3.307,4.491
	c-0.925,1.427-1.652,2.806-2.225,3.933c-0.291,0.587-0.546,1.112-0.771,1.569c-0.202,0.495-0.371,0.917-0.51,1.254
	C102.84,176.201,102.68,176.562,102.68,176.562z"/>
<path fill="#231F20" d="M282.63,143.869c0,0-0.281-0.279-0.812-0.801c-0.256-0.264-0.566-0.593-0.936-0.979
	c-0.379-0.341-0.812-0.732-1.299-1.171c-0.949-0.836-2.135-1.851-3.523-2.833c-1.369-1.006-2.969-2.002-4.732-2.951
	c-1.747-0.97-3.73-1.815-5.805-2.643c-2.092-0.813-4.363-1.486-6.713-2.133c-2.36-0.629-4.863-1.101-7.412-1.563
	c-2.551-0.433-5.195-0.762-7.856-0.997c-2.657-0.312-5.358-0.377-8.031-0.537c-2.679-0.035-5.339-0.166-7.938-0.125
	c-5.202,0.003-10.167,0.167-14.521,0.344c-2.207,0.095-4.224,0.184-6.015,0.261c-1.827,0.039-3.417,0.167-4.77,0.169
	c-2.682,0.095-4.295,0.056-4.295,0.056s0.281-0.285,0.84-0.768c0.565-0.466,1.373-1.222,2.465-2.043
	c1.103-0.801,2.449-1.811,4.078-2.782c1.615-1.015,3.502-2.029,5.607-3.067c1.076-0.475,2.195-0.967,3.352-1.477
	c1.179-0.463,2.408-0.898,3.685-1.358c2.562-0.831,5.315-1.62,8.229-2.171c1.448-0.32,2.943-0.534,4.467-0.724
	c1.512-0.24,3.072-0.326,4.639-0.436c3.145-0.169,6.354-0.112,9.58,0.172c3.215,0.371,6.439,0.833,9.553,1.723
	c1.562,0.4,3.098,0.89,4.59,1.459c1.497,0.54,2.959,1.151,4.355,1.845c5.627,2.708,10.343,6.513,13.454,10.485
	c1.561,1.984,2.759,3.954,3.592,5.795c0.849,1.836,1.358,3.479,1.673,4.891c0.354,1.417,0.403,2.485,0.451,3.218
	C282.61,143.474,282.63,143.869,282.63,143.869z"/>
<path fill="#EC1C24" d="M113.778,263.947c0.602-13.463,6.279-38.303,21.797-56.787c10.876-12.962,25.712-22.056,50.781-25.09
	c61.135-7.4,82.814,51.698,81.788,74.598c0,0-29.754-14.506-74.257-16.496C149.385,238.18,113.778,263.947,113.778,263.947z"/>
<path fill="#231F20" d="M269.771,98.4c0,0-0.392-0.071-1.123-0.205c-0.358-0.074-0.801-0.169-1.322-0.279
	c-0.508-0.068-1.086-0.148-1.732-0.234c-1.255-0.157-2.809-0.323-4.508-0.353c-1.697-0.06-3.58,0.018-5.574,0.231
	c-1.99,0.184-4.104,0.605-6.281,1.091c-2.186,0.51-4.442,1.234-6.748,2.029c-2.305,0.81-4.635,1.833-7.002,2.886
	c-2.35,1.083-4.72,2.305-7.051,3.61c-2.367,1.24-4.636,2.714-6.935,4.084c-2.229,1.483-4.502,2.874-6.623,4.375
	c-4.295,2.936-8.302,5.873-11.799,8.477c-1.769,1.323-3.384,2.533-4.819,3.606c-1.486,1.062-2.729,2.064-3.844,2.83
	c-2.16,1.59-3.516,2.468-3.516,2.468s0.073-0.392,0.262-1.106c0.203-0.703,0.443-1.783,0.884-3.076
	c0.457-1.287,1.003-2.877,1.797-4.601c0.763-1.75,1.75-3.651,2.901-5.697c0.623-0.997,1.27-2.035,1.937-3.108
	c0.709-1.047,1.479-2.1,2.274-3.197c1.648-2.136,3.477-4.339,5.57-6.437c1.015-1.085,2.129-2.1,3.28-3.114
	c1.111-1.05,2.353-2.005,3.582-2.978c2.504-1.91,5.187-3.675,8.009-5.262c2.865-1.507,5.786-2.942,8.862-3.963
	c1.517-0.552,3.058-1.014,4.612-1.388c1.542-0.397,3.093-0.718,4.639-0.932c6.172-0.938,12.211-0.451,17.021,1.068
	c2.408,0.759,4.509,1.714,6.234,2.764c1.734,1.035,3.084,2.106,4.141,3.097c1.089,0.967,1.734,1.821,2.187,2.402
	C269.534,98.083,269.771,98.4,269.771,98.4z"/>
<path fill="#231F20" d="M96.741,100.426c0,0,0.392-0.071,1.125-0.205c0.359-0.074,0.801-0.169,1.323-0.281
	c0.507-0.065,1.085-0.146,1.732-0.231c1.255-0.16,2.809-0.326,4.508-0.356c1.697-0.057,3.58,0.021,5.573,0.231
	c1.99,0.187,4.105,0.605,6.282,1.092c2.186,0.51,4.443,1.234,6.748,2.029c2.304,0.812,4.636,1.833,7.002,2.889
	c2.349,1.08,4.719,2.302,7.05,3.61c2.367,1.24,4.636,2.714,6.935,4.084c2.23,1.483,4.502,2.874,6.623,4.375
	c4.295,2.936,8.302,5.87,11.799,8.474c1.768,1.323,3.384,2.533,4.82,3.606c1.486,1.062,2.729,2.064,3.844,2.83
	c2.159,1.59,3.515,2.468,3.515,2.468s-0.074-0.392-0.261-1.104c-0.205-0.706-0.445-1.786-0.884-3.079
	c-0.457-1.287-1.003-2.877-1.798-4.597c-0.762-1.75-1.75-3.651-2.9-5.698c-0.623-0.999-1.27-2.037-1.937-3.108
	c-0.709-1.047-1.48-2.103-2.275-3.2c-1.649-2.132-3.476-4.336-5.57-6.433c-1.014-1.085-2.129-2.104-3.28-3.117
	c-1.112-1.05-2.352-2.005-3.583-2.978c-2.503-1.91-5.185-3.672-8.008-5.259c-2.865-1.51-5.787-2.945-8.863-3.965
	c-1.516-0.552-3.058-1.011-4.612-1.385c-1.542-0.397-3.094-0.718-4.639-0.931c-6.172-0.938-12.211-0.454-17.021,1.068
	c-2.409,0.759-4.508,1.711-6.235,2.761c-1.735,1.038-3.084,2.109-4.141,3.096c-1.088,0.97-1.735,1.824-2.186,2.403
	C96.979,100.105,96.741,100.426,96.741,100.426z"/>
</svg>
