<?xml version="1.0" encoding="utf-8"?>
<!-- Generator: Adobe Illustrator 16.0.0, SVG Export Plug-In . SVG Version: 6.00 Build 0)  -->
<!DOCTYPE svg PUBLIC "-//W3C//DTD SVG 1.1//EN" "http://www.w3.org/Graphics/SVG/1.1/DTD/svg11.dtd">
<svg version="1.1" id="Layer_1" xmlns="http://www.w3.org/2000/svg" xmlns:xlink="http://www.w3.org/1999/xlink" x="0px" y="0px"
	 width="550px" height="550px" viewBox="-85.106 -76.564 550 550" enable-background="new -85.106 -76.564 550 550"
	 xml:space="preserve">
<path fill="#FFFFFF" d="M225.702,396.406c-57.706,0-142.129-23.11-190.148-88.245c-25.909-35.147-50.72-96.659-21.781-190.123
	C35.69,47.247,104.319-0.316,184.545-0.316c75.247,0,139.884,40.159,172.906,107.427c23.616,48.108,27.577,103.583,10.874,152.204
	c-16.062,46.757-50.051,83.979-98.314,107.713c-6.123,11.975-16.812,28.687-37.93,29.292c-2.096,0.06-4.219,0.089-6.369,0.089
	C225.709,396.406,225.706,396.406,225.702,396.406z"/>
<path fill="#231F20" d="M330.171,120.501C266.71-8.765,79.979,6.948,42.804,127.025c-54.953,177.483,96.359,241.561,188.407,238.916
	c7.149-0.204,11.888-13.747,16.864-23.039c2.691-0.685,5.285-1.567,7.712-2.748C355.002,291.909,364.222,189.866,330.171,120.501z
	 M322.535,225.463c-33.104,126.509-146.751,95.688-153.779,96.926C30.791,280.316-13.312,138.024,140.167,63.439
	C240.16,14.847,349.778,121.363,322.535,225.463z"/>
<path fill="#231F20" d="M183.969,219.432c4.404,11.012-11.367-14.107-23.93-14.107c-12.566,0-24.505,20.805-24.505,8.238
	c0-12.562,9.449-27.149,22.015-27.149C170.116,186.412,179.304,207.768,183.969,219.432z"/>
<g>
	<path fill="#EC1C24" d="M162.521,300.617c-0.612-0.348-0.846-0.448-1.354-1.465c-0.938-1.648-1.811-3.43-2.078-5.549
		c-0.285-2.061-0.039-4.037,0.878-5.67c0.962-1.664,2.481-2.966,4.636-4.008c2.161-1.062,4.642-1.833,7.734-2.787
		c0.22-0.059,1.122-0.205,1.529-0.136c3.84,2.188,8.817,3.804,14.046,4.755c5.253,0.967,10.803,1.333,16.388,1.221
		c4.602-0.029,9.229-0.582,13.83-1.229c4.577-0.812,9.153-1.739,13.575-3.158c6.013-1.823,11.836-4.188,17.326-7.08
		c0,0,0.438-0.198,1.237-0.563c0.789-0.389,2.01-0.848,3.422-1.604c2.844-1.478,6.886-3.565,11.117-6.588
		c8.707-5.731,17.974-15.491,23.812-25.321c1.3-2.048,2.25-4.048,3.17-5.859c0.469-0.905,0.917-1.771,1.344-2.596
		c0.371-0.846,0.729-1.646,1.062-2.405c0.681-1.521,1.361-2.862,1.927-4.056c0.504-1.211,0.979-2.248,1.433-3.127
		c1.811-3.51,3.086-4.412,4.021-3.197c0.867,1.205,1.496,4.567,1.426,9.356c-0.189,4.759-0.962,11.019-3.206,17.581
		c0.382-0.615-0.644,3.027-3.272,8.584c-2.655,5.512-7.065,12.873-12.772,19.393c-1.457,1.582-2.894,3.221-4.396,4.742
		c-1.557,1.469-3.086,2.918-4.57,4.32c-1.579,1.3-3.104,2.561-4.553,3.754c-1.461,1.188-2.938,2.164-4.262,3.143
		c-5.38,3.771-9.268,5.86-9.268,5.86c-5.932,3.026-12.146,5.323-18.432,7.285c-5.409,1.706-10.957,2.869-16.529,3.854
		c-5.602,0.818-11.236,1.482-16.949,1.55c-6.931,0.137-13.929-0.297-20.992-1.585C176.751,306.71,169.59,304.614,162.521,300.617z"
		/>
</g>
<path fill="#231F20" d="M73.361,174.766c0,0-0.104-0.383-0.299-1.098c-0.184-0.716-0.463-1.746-0.564-3.203
	c-0.134-1.442-0.161-3.164,0.089-5.173c0.226-2.009,0.759-4.256,1.635-6.624c1.742-4.737,5.06-9.812,9.583-14.121
	c1.118-1.092,2.32-2.125,3.579-3.099c1.247-1,2.559-1.94,3.924-2.801c2.689-1.804,5.621-3.235,8.568-4.576
	c2.983-1.268,6.022-2.309,9.067-3.114c1.523-0.376,3.033-0.774,4.549-1.012c1.508-0.288,2.998-0.546,4.473-0.686
	c2.944-0.374,5.811-0.466,8.506-0.466c1.353,0.047,2.662,0.083,3.923,0.16c1.258,0.131,2.476,0.255,3.645,0.374
	c2.327,0.341,4.435,0.728,6.286,1.2c1.849,0.424,3.44,0.967,4.736,1.395c1.3,0.439,2.298,0.917,2.977,1.184
	c0.68,0.291,1.039,0.472,1.039,0.472s-1.528,0.537-4.111,1.271c-1.285,0.409-2.837,0.783-4.594,1.302
	c-1.725,0.481-3.677,1.018-5.803,1.603c-4.202,1.175-8.98,2.546-13.934,4.14c-2.489,0.76-4.979,1.703-7.52,2.561
	c-2.493,0.979-5.049,1.873-7.479,2.982c-2.463,1.045-4.879,2.173-7.179,3.369c-2.282,1.223-4.517,2.442-6.568,3.769
	c-2.042,1.339-3.998,2.68-5.74,4.096c-1.721,1.421-3.35,2.84-4.712,4.303c-1.392,1.442-2.603,2.887-3.603,4.264
	c-1.018,1.366-1.834,2.695-2.481,3.782c-0.326,0.566-0.62,1.074-0.876,1.513c-0.234,0.481-0.43,0.891-0.59,1.22
	C73.545,174.416,73.361,174.766,73.361,174.766z"/>
<path fill="#231F20" d="M276.969,102.335c0,0-0.36-0.163-1.038-0.466c-0.332-0.16-0.742-0.362-1.217-0.593
	c-0.477-0.19-1.021-0.404-1.627-0.647c-1.181-0.457-2.646-0.991-4.291-1.43c-1.638-0.466-3.484-0.849-5.467-1.122
	c-1.977-0.303-4.139-0.406-6.369-0.46c-2.243-0.033-4.605,0.125-7.04,0.338c-2.433,0.229-4.942,0.659-7.496,1.113
	c-2.54,0.481-5.14,1.092-7.716,1.798c-2.6,0.635-5.158,1.514-7.723,2.292c-2.522,0.899-5.063,1.701-7.491,2.647
	c-4.879,1.81-9.479,3.695-13.504,5.375c-2.029,0.858-3.899,1.641-5.55,2.339c-1.703,0.674-3.146,1.345-4.416,1.819
	c-2.48,1.021-4.014,1.547-4.014,1.547s0.174-0.366,0.521-1.012c0.375-0.632,0.865-1.624,1.603-2.772
	c0.761-1.14,1.668-2.553,2.861-4.03c1.155-1.517,2.575-3.123,4.188-4.832c0.851-0.82,1.724-1.671,2.631-2.553
	c0.942-0.843,1.945-1.68,2.979-2.558c2.119-1.668,4.429-3.366,6.97-4.897c1.245-0.807,2.574-1.525,3.939-2.231
	c1.337-0.754,2.767-1.378,4.195-2.024c2.893-1.253,5.926-2.321,9.047-3.175c3.146-0.772,6.334-1.46,9.562-1.71
	c1.608-0.166,3.219-0.243,4.812-0.228c1.592-0.015,3.177,0.05,4.73,0.216c6.221,0.582,11.967,2.511,16.271,5.152
	c2.152,1.318,3.965,2.751,5.383,4.188c1.438,1.425,2.486,2.793,3.275,4.007c0.826,1.205,1.24,2.193,1.537,2.864
	C276.813,101.971,276.969,102.335,276.969,102.335z"/>
<path fill="#231F20" d="M254.644,196.476c5.186,10.663,4.326-18.327,12.775-27.622c8.452-9.298,24.755-3.716,15.457-12.168
	c-9.295-8.453-26.45-11.266-34.898-1.971C239.524,164.013,249.149,185.177,254.644,196.476z"/>
<g opacity="0.4">
	
		<image overflow="visible" enable-background="new    " width="117" height="116" xlink:href="C639C8864CE51060.png"  transform="matrix(1 0 0 1 75.3936 203.9355)">
	</image>
</g>
<g opacity="0.4">
	
		<image overflow="visible" enable-background="new    " width="117" height="116" xlink:href="C639C8864CE51061.png"  transform="matrix(1 0 0 1 245.3936 131.9355)">
	</image>
</g>
</svg>
