<?xml version="1.0" encoding="utf-8"?>
<!-- Generator: Adobe Illustrator 16.0.0, SVG Export Plug-In . SVG Version: 6.00 Build 0)  -->
<!DOCTYPE svg PUBLIC "-//W3C//DTD SVG 1.1//EN" "http://www.w3.org/Graphics/SVG/1.1/DTD/svg11.dtd">
<svg version="1.1" id="Layer_1" xmlns="http://www.w3.org/2000/svg" xmlns:xlink="http://www.w3.org/1999/xlink" x="0px" y="0px"
	 width="550px" height="550px" viewBox="-24.303 -24.532 550 550" enable-background="new -24.303 -24.532 550 550"
	 xml:space="preserve">
<g>
	<path fill="#FFFFFF" d="M286.681,448.445c-57.594,0-141.857-23.068-189.778-88.076c-25.863-35.074-50.625-96.471-21.742-189.756
		C97.035,99.961,165.532,52.49,245.603,52.49c75.099,0,139.612,40.081,172.572,107.216c23.567,48.015,27.526,103.386,10.854,151.913
		c-16.031,46.662-49.953,83.816-98.131,107.5c-6.107,11.949-16.775,28.633-37.854,29.236c-2.09,0.059-4.207,0.09-6.355,0.09
		C286.687,448.445,286.684,448.445,286.681,448.445z"/>
	<path fill="#231F20" d="M150.636,181.563c0,0,0.238-0.32,0.685-0.916c0.449-0.582,1.091-1.44,2.181-2.414
		c1.057-0.992,2.402-2.066,4.141-3.109c1.724-1.057,3.827-2.017,6.234-2.78c4.809-1.542,10.854-2.037,17.037-1.116
		c1.551,0.211,3.103,0.522,4.644,0.917c1.562,0.374,3.107,0.829,4.624,1.375c3.083,1.014,6.015,2.449,8.88,3.949
		c2.836,1.577,5.525,3.337,8.036,5.248c1.233,0.971,2.477,1.915,3.597,2.973c1.151,1.009,2.272,2.024,3.291,3.104
		c2.107,2.097,3.936,4.301,5.597,6.427c0.793,1.099,1.572,2.155,2.284,3.201c0.673,1.072,1.32,2.109,1.943,3.105
		c1.165,2.051,2.152,3.943,2.922,5.695c0.804,1.723,1.349,3.314,1.809,4.598c0.449,1.297,0.687,2.379,0.897,3.082
		c0.188,0.713,0.264,1.108,0.264,1.108s-1.362-0.876-3.528-2.463c-1.118-0.767-2.362-1.765-3.853-2.826
		c-1.439-1.063-3.064-2.278-4.835-3.597c-3.509-2.596-7.53-5.525-11.838-8.454c-2.125-1.497-4.405-2.886-6.642-4.365
		c-2.304-1.367-4.577-2.827-6.956-4.069c-2.333-1.3-4.708-2.518-7.066-3.598c-2.37-1.05-4.705-2.062-7.019-2.869
		c-2.307-0.791-4.57-1.509-6.758-2.014c-2.182-0.481-4.304-0.898-6.299-1.075c-1.989-0.208-3.875-0.279-5.577-0.22
		c-1.704,0.035-3.255,0.208-4.511,0.368c-0.649,0.087-1.227,0.172-1.732,0.238c-0.525,0.113-0.967,0.208-1.328,0.286
		C151.028,181.489,150.636,181.563,150.636,181.563z"/>
	<path fill="#231F20" d="M148.8,232.431c0,0,0.021-0.397,0.065-1.14c0.053-0.734,0.116-1.799,0.484-3.213
		c0.333-1.414,0.862-3.053,1.735-4.881c0.854-1.834,2.072-3.795,3.66-5.762c3.154-3.943,7.919-7.697,13.582-10.346
		c1.409-0.68,2.873-1.277,4.378-1.799c1.505-0.553,3.044-1.029,4.615-1.409c3.127-0.86,6.36-1.282,9.581-1.616
		c3.232-0.254,6.45-0.273,9.597-0.07c1.563,0.127,3.124,0.23,4.638,0.49c1.521,0.205,3.018,0.434,4.461,0.774
		c2.916,0.582,5.657,1.401,8.217,2.263c1.27,0.475,2.5,0.926,3.669,1.404c1.155,0.521,2.267,1.027,3.341,1.512
		c2.101,1.062,3.975,2.1,5.582,3.137c1.623,0.99,2.954,2.012,4.049,2.832c1.088,0.832,1.886,1.598,2.448,2.07
		c0.552,0.49,0.83,0.778,0.83,0.778s-1.617,0.021-4.296-0.106c-1.36-0.017-2.945-0.16-4.775-0.224
		c-1.788-0.093-3.813-0.206-6.017-0.328c-4.358-0.224-9.329-0.442-14.537-0.503c-2.602-0.072-5.271,0.029-7.951,0.035
		c-2.675,0.134-5.375,0.169-8.042,0.451c-2.669,0.205-5.319,0.504-7.883,0.904c-2.552,0.438-5.061,0.883-7.432,1.488
		c-2.361,0.617-4.642,1.266-6.744,2.055c-2.087,0.805-4.083,1.633-5.844,2.584c-1.777,0.926-3.386,1.908-4.771,2.9
		c-1.403,0.973-2.596,1.969-3.555,2.797c-0.497,0.432-0.93,0.823-1.313,1.158c-0.374,0.38-0.691,0.705-0.951,0.969
		C149.088,232.154,148.8,232.431,148.8,232.431z"/>
	<path fill="#231F20" d="M390.949,173.074c-63.343-129.016-249.71-113.332-286.813,6.511
		C49.29,356.723,200.308,420.678,292.178,418.037c7.139-0.203,11.863-13.723,16.831-22.996c2.687-0.678,5.276-1.561,7.698-2.742
		C415.731,344.15,424.931,242.305,390.949,173.074z M383.326,277.832c-33.041,126.268-146.465,95.5-153.479,96.738
		c-137.703-41.99-181.72-184.01-28.537-258.447C301.109,67.625,410.516,173.934,383.326,277.832z"/>
	<path fill="#231F20" d="M335.564,212.002c0,8.1-1.353,14.723-7.129,19.016c-3.583,2.662-10.758,9.508-15.456,9.508
		c-22.579,0-24.167-20.547-24.167-33.676s9.938-23.773,22.188-23.773C323.253,183.077,335.564,198.869,335.564,212.002z"/>
	<g>
		<path fill="#EC1C24" d="M167.078,306.783c-0.415-0.568-0.585-0.76-0.626-1.893c-0.175-1.889-0.228-3.873,0.4-5.912
			c0.596-1.998,1.639-3.691,3.155-4.805c1.561-1.115,3.484-1.672,5.877-1.729c2.407-0.07,4.985,0.25,8.201,0.666
			c0.222,0.035,1.108,0.273,1.446,0.508c2.593,3.58,6.459,7.111,10.829,10.148c4.382,3.053,9.287,5.686,14.423,7.893
			c4.202,1.883,8.649,3.293,13.104,4.607c4.509,1.156,9.059,2.211,13.674,2.748c6.234,0.826,12.52,1.078,18.716,0.721
			c0,0,0.479,0.002,1.362,0c0.878-0.025,2.179,0.061,3.781-0.041c3.196-0.174,7.747-0.4,12.848-1.395
			c10.312-1.625,22.789-6.672,32.183-13.209c2.026-1.326,3.722-2.756,5.312-4.027c0.803-0.629,1.566-1.236,2.298-1.805
			c0.688-0.613,1.345-1.199,1.966-1.756c1.246-1.102,2.424-2.041,3.435-2.895c0.956-0.893,1.821-1.641,2.594-2.252
			c3.106-2.451,4.64-2.748,4.993-1.246c0.288,1.453-0.526,4.775-2.581,9.113c-2.136,4.252-5.437,9.635-10.19,14.686
			c0.592-0.404-1.849,2.494-6.539,6.465c-4.705,3.918-11.771,8.801-19.664,12.371c-1.983,0.84-3.969,1.734-5.968,2.5
			c-2.024,0.697-4.019,1.379-5.956,2.045c-1.976,0.531-3.89,1.043-5.697,1.535c-1.825,0.479-3.575,0.75-5.187,1.096
			c-6.46,1.209-10.868,1.502-10.868,1.502c-6.651,0.303-13.267-0.18-19.803-0.99c-5.635-0.688-11.17-1.924-16.651-3.334
			c-5.44-1.574-10.851-3.299-16.084-5.609c-6.366-2.744-12.564-6.037-18.464-10.135
			C177.518,318.225,171.858,313.352,167.078,306.783z"/>
	</g>
</g>
</svg>
