<?xml version="1.0" encoding="utf-8"?>
<!-- Generator: Adobe Illustrator 16.0.0, SVG Export Plug-In . SVG Version: 6.00 Build 0)  -->
<!DOCTYPE svg PUBLIC "-//W3C//DTD SVG 1.1//EN" "http://www.w3.org/Graphics/SVG/1.1/DTD/svg11.dtd">
<svg version="1.1" id="Layer_1" xmlns="http://www.w3.org/2000/svg" xmlns:xlink="http://www.w3.org/1999/xlink" x="0px" y="0px"
	 width="550px" height="550px" viewBox="-119.308 -76.564 550 550" enable-background="new -119.308 -76.564 550 550"
	 xml:space="preserve">
<g>
	<path fill="#FFFFFF" d="M140.842,259.042c20.366-14.509,6.453-36.763-15.368-35.445c-22.026,1.311-72.598-11.715-84.756,13.486
		C14.1,292.255,120.135,273.82,140.842,259.042C149.534,252.854,125.826,269.757,140.842,259.042z"/>
	<path fill="#FFFFFF" d="M149.131,300.481c7.344-6.5,7.588-16.066,2.084-23.809c-8.894-12.441-22.859-7.644-35.291-5.155
		c-15.898,3.181-60.975,0.028-64.655,20.233C41.166,347.005,129.48,317.868,149.131,300.481
		C156.55,293.911,127.365,319.739,149.131,300.481z"/>
	<path fill="#FFFFFF" d="M72.341,222.192c20.393,0.729,54.574,6.287,69.414-11.936c17.749-21.795-21.172-34.349-35.565-38.506
		c-18.035-5.209-44.348-12.815-57.23,6.118C36.08,196.793,50.293,221.419,72.341,222.192
		C90.467,222.841,54.478,221.567,72.341,222.192z"/>
	<path fill="#FFFFFF" d="M153.889,302.581c-16.783,12.916-36.78,20.15-57.432,23.991c-14.13,2.635-30.314,7.81-12.997,23.728
		C108.512,373.317,181.493,335.102,153.889,302.581C133.447,318.313,163.816,314.275,153.889,302.581z"/>
	<g>
		<path fill="#FFFFFF" d="M218.669,143.649c-19.17-12.041-36.05-28.306-42.514-50.614c-6.091-21.04-1.184-50.615-30.806-53.14
			c-26.652-2.301-29.416,33.986-28.386,52.597c1.549,28.178,14.586,52.062,37.711,68.378c-12.181,2.087-24.363,4.18-36.543,6.27
			c15.276,6.637,61.725,34.374,31.275,52.982c17.727,12.784,17.201,30.643,0.359,43.938c18.104,12.907,13,21.332,18.259,40.032
			c5.771,20.531,6.353,35.973-20.394,41.562c40.551-5.911,106.982-4.194,118.687-55.019c2.496-10.832,2.358-22.149,1.183-33.135
			c-1.539-14.22,4.803-27.101,5.207-41.146C273.657,183.565,244.028,159.545,218.669,143.649
			C192.694,127.336,234.169,153.365,218.669,143.649z"/>
		<path fill="#FFFFFF" d="M140.615,387.494c2.171-1.104,4.34-2.322,6.484-3.641c11.734-2.444,32.728-4.51,44.623-5.678
			c9.722-0.956,13.568-1.353,16.611-1.962c67.221-12.716,96.483-48.533,97.836-119.719c0.092-4.818,1.099-10.639,2.168-16.804
			c2.883-16.69,6.48-37.458-3.703-59.669c-11.806-25.739-37.366-52.957-64.045-68.335l-0.219-0.168l-1.02-0.641
			c-16.979-10.732-23.158-20.396-28.316-44.557c-6.011-39.878-31.678-65.578-65.625-65.578c-5.088,0-10.346,0.597-15.622,1.775
			c-34.767,7.756-54.046,40.524-51.566,87.652c0.601,11.399,2.707,24.751,6.543,37.76c-3.499-0.341-6.849-0.509-10.114-0.509
			c-38.864,0-54.842,23.876-60.908,38.103c-6.27,14.71-6.545,30.86-1.62,45.295c-6.903,9.824-11.15,21.776-11.977,34.765
			c-1.038,16.193,3.489,31.422,12.351,43.338c-0.531,7.477,0.354,15.352,2.698,23.35c4.068,13.879,12.147,26.453,22.511,35.696
			c1.398,5.847,3.959,11.559,7.651,16.938c13.191,19.216,38.652,30.388,55.914,31.141c1.221,0.054,2.427,0.08,3.614,0.08
			c12.427,0,24.443-2.899,35.713-8.623"/>
		<path fill="#231F20" d="M277.766,192.342c-10.037-21.886-32.566-44.32-53.376-55.859c-0.295-0.221-0.575-0.428-0.831-0.621
			c-26.339-16.649-35.521-35.17-41.634-64.337c-3.315-23.511-17.322-46.49-45.699-40.156c-49.61,11.066-25.081,120.18,0.976,123.172
			c-12.129,2.126-24.266,4.188-36.403,6.254c-22.027-5.441-49.221-8.646-59.864,16.322c-6.162,14.455-1.271,30.441,9.701,39.282
			c-25.539,10.25-28.694,49.963-4.916,63.24c-10.34,15.362,1.769,44.087,21.163,52.481c-6.086,18.129,21.523,33.777,35.678,34.395
			c9.444,0.417,17.42-1.695,24.652-5.369c0,0.012-0.002,0.025,0,0.034c-0.002-0.009,0.006-0.022,0.004-0.036
			c2.748-1.396,5.395-3.009,7.963-4.818c18.287-5.097,62.05-7.953,67.428-9.113c55.609-10.455,72.977-36.941,74.007-91.276
			C277.02,234.681,287.309,213.152,277.766,192.342z M50.553,189.215c7.534-19.648,32.582-14.041,47.85-10.113
			c8.812,2.266,53.341,13.944,32.734,28.579c-3.228,2.297-8.035,3.867-13.742,4.912c-17.504-1.493-37.366-1.641-54.101,0.91
			c-3.312-0.188-6.308-0.362-8.831-0.484C49.231,206.643,47.051,198.071,50.553,189.215z M60.901,232.923
			c9.089-0.303,18.396-0.61,27.707-0.733c6.406,0.289,13.135,0.44,19.783,0.097c4.522,0.12,9.013,0.312,13.441,0.617
			c24.941-2.332,18.954,18.59,18.288,27.658c-0.597,0.455-1.184,0.904-1.743,1.33c-4.959-1.284-10.067-1.793-14.83-1.339
			c-17.727,1.689-35.724,5.71-53.544,8.507c-6.438-1.391-12.141-3.514-16.406-6.643C43.553,254.263,46.468,233.11,60.901,232.923z
			 M68.962,287.849c2.106-1.033,4.446-1.889,6.938-2.618c8.096-0.327,16.578-1.729,24.844-3.938c10.043-0.873,20.067-1.43,27.9-3.03
			c7.135-1.456,19.396,0.354,17.134,10.993c-1.256,5.629,0.376,8.416,3.564,11.875c-14.508,7.146-34.487,11.959-47.807,14.984
			c-3.761,0.854-8.477,1.311-13.211,2.083c-3.926-0.276-7.628-0.901-10.92-2.04C65.461,312.048,49.771,289.971,68.962,287.849z
			 M155.84,335.794c-26,12.812-69.962,14.246-69.962,1.807c24.999-3.814,55.777-12.289,77.254-27.11
			c1.78,7.685,3.121,13.859,3.221,14.248C164.197,328.278,160.329,332.041,155.84,335.794z M162.52,219.865
			c0.067-0.103,0.106-0.207,0.172-0.312C162.7,219.607,162.64,219.657,162.52,219.865z M249.001,306.497
			c-11.982,15.092-31.705,19.286-49.642,22.665c-6.252,1.376-32.013,13.52-37.185,8.872c5.177,3.663,28.547-7.562,18.721-28.005
			c-1.782-8.325-4.832-13.434-5.207-23.274c0.006,0.103-9.381-25.433-11.584-23.883c11.205-12.959,10.665-31.014-1.412-43.322
			c11.305-18.524-0.622-38.056-17.117-47.907c-0.118-0.088-1.532,0.104-3.176,0.385c10.535-2.451,31.195-7.506,34.351-5.975
			c-31.016-23.392-60.317-50.249-49.885-95.066c7.186-29.938,32.71-24.183,36.775,2.441c4.155,34.713,27.053,59.17,56.685,77.897
			c9.725,2.246,15.367,2.839,18.262,2.377c15.498,21.883,23.021,49.957,16.224,77.922
			C248.858,256.118,265.907,285.204,249.001,306.497z"/>
	</g>
</g>
</svg>
