<?xml version="1.0" encoding="utf-8"?>
<!-- Generator: Adobe Illustrator 16.0.0, SVG Export Plug-In . SVG Version: 6.00 Build 0)  -->
<!DOCTYPE svg PUBLIC "-//W3C//DTD SVG 1.1//EN" "http://www.w3.org/Graphics/SVG/1.1/DTD/svg11.dtd">
<svg version="1.1" id="Layer_1" xmlns="http://www.w3.org/2000/svg" xmlns:xlink="http://www.w3.org/1999/xlink" x="0px" y="0px"
	 width="550px" height="550px" viewBox="-25 -25 550 550" enable-background="new -25 -25 550 550" xml:space="preserve">
<g>
	<path fill="#FFFFFF" d="M408.907,216.767c-18.509-37.7-48.32-67.012-85.167-84.189c-10.82-6.583-10.241-15.138,0.883-17.768
		c17.299-4.089,25.402-22.61,13.566-37.413c-18.651-23.316-43.651-51.155-87.496-50.936c-48.265,0.241-81.341,42.486-93.678,71.126
		c-9.15,21.248,12.894,27.865,12.894,27.865l10.511,1.749c-0.035,0.101-0.086,0.196-0.122,0.297
		c-46.708,17.722-80.958,53.219-95.305,99.565c-27.275,88.092-3.893,146.068,20.53,179.195
		c45.257,61.387,124.825,83.172,179.214,83.172c0.002,0,0.005,0,0.008,0c2.026,0,4.024-0.026,6.002-0.084
		c19.901-0.569,29.978-16.324,35.751-27.608c45.491-22.367,77.519-57.451,92.659-101.519
		C434.904,314.395,431.165,262.109,408.907,216.767z"/>
	<path fill="#231F20" stroke="#231F20" stroke-width="0.5" stroke-miterlimit="10" d="M383.198,229.39
		c-19.742-40.212-52.142-65.529-87.949-77.347c1.13-1.391,1.799-2.904,1.799-4.565c0-20.302-20.521-36.758-45.829-36.758
		c-25.312,0-45.829,16.456-45.829,36.758c0,0.66,0.107,1.298,0.293,1.916c-42.697,11.328-79.305,40.847-93.329,86.142
		C60.561,402.812,203.174,463.21,289.93,460.714c6.737-0.19,11.204-12.959,15.895-21.717c2.535-0.646,4.98-1.479,7.27-2.59
		C406.601,390.942,415.288,294.762,383.198,229.39z M257.501,168.728c-74.127,0-134.221,59.667-134.221,133.267
		c0,18.479,3.793,36.072,10.638,52.069c-39.84-56.656-26.048-131.684,70.202-178.455c35.526-17.268,72.341-13.749,103.05,2.584
		C291.802,172.109,275.053,168.728,257.501,168.728z"/>
	<polygon fill="#F6921E" points="227.802,74.527 243.17,101.162 219.12,82.002 	"/>
	<polygon fill="#F6921E" points="315.88,88.135 275.327,102.365 310.677,77.926 	"/>
	<polygon fill="#F6921E" points="288.73,62.536 263.866,97.587 278.588,57.21 	"/>
	<polygon fill="#BE1E2D" points="249.727,52.994 253.755,95.78 238.566,55.579 	"/>
	<polygon fill="#BE1E2D" points="189.227,88.122 228.25,106.124 185.858,99.069 	"/>
</g>
</svg>
