<?xml version="1.0" encoding="utf-8"?>
<!-- Generator: Adobe Illustrator 16.0.0, SVG Export Plug-In . SVG Version: 6.00 Build 0)  -->
<!DOCTYPE svg PUBLIC "-//W3C//DTD SVG 1.1//EN" "http://www.w3.org/Graphics/SVG/1.1/DTD/svg11.dtd">
<svg version="1.1" id="Layer_1" xmlns="http://www.w3.org/2000/svg" xmlns:xlink="http://www.w3.org/1999/xlink" x="0px" y="0px"
	 width="550px" height="550px" viewBox="-119.308 -76.564 550 550" enable-background="new -119.308 -76.564 550 550"
	 xml:space="preserve">
<g>
	<path fill="#FFFFFF" d="M170.544,137.515c-20.367,14.509-6.455,36.763,15.367,35.446c22.026-1.311,72.6,11.714,84.758-13.486
		C297.285,104.302,191.251,122.738,170.544,137.515C161.852,143.705,185.56,126.801,170.544,137.515z"/>
	<path fill="#FFFFFF" d="M162.255,96.077c-7.345,6.5-7.59,16.066-2.086,23.809c8.896,12.441,22.86,7.643,35.291,5.155
		c15.899-3.181,60.977-0.028,64.656-20.233C270.22,49.553,181.905,78.69,162.255,96.077
		C154.837,102.647,184.021,76.819,162.255,96.077z"/>
	<path fill="#FFFFFF" d="M239.044,174.366c-20.393-0.729-54.571-6.287-69.414,11.935c-17.746,21.795,21.174,34.35,35.566,38.506
		c18.034,5.209,44.348,12.816,57.229-6.117C275.306,199.764,261.093,175.138,239.044,174.366
		C220.919,173.717,256.907,174.991,239.044,174.366z"/>
	<path fill="#FFFFFF" d="M157.497,93.978c16.782-12.917,36.779-20.151,57.432-23.992c14.131-2.635,30.313-7.809,12.996-23.727
		C202.874,23.241,129.894,61.457,157.497,93.978C177.938,78.245,147.569,82.283,157.497,93.978z"/>
	<g>
		<path fill="#FFFFFF" d="M92.718,252.908c19.169,12.041,36.049,28.307,42.513,50.615c6.091,21.039,1.184,50.614,30.805,53.139
			c26.652,2.301,29.416-33.986,28.387-52.596c-1.551-28.18-14.588-52.062-37.713-68.379c12.183-2.088,24.364-4.181,36.545-6.271
			c-15.277-6.637-61.725-34.374-31.276-52.983c-17.726-12.784-17.2-30.642-0.359-43.938c-18.104-12.907-12.999-21.332-18.258-40.033
			c-5.771-20.531-6.353-35.972,20.394-41.561c-40.553,5.912-106.982,4.196-118.688,55.019c-2.496,10.832-2.359,22.149-1.183,33.135
			c1.54,14.219-4.803,27.1-5.206,41.146C37.729,212.992,67.358,237.014,92.718,252.908
			C118.691,269.221,77.217,243.191,92.718,252.908z"/>
		<path fill="#FFFFFF" d="M170.771,9.064c-2.172,1.105-4.34,2.323-6.484,3.641c-11.731,2.444-32.728,4.51-44.623,5.678
			c-9.721,0.956-13.568,1.352-16.61,1.962C35.832,33.059,6.568,68.877,5.217,140.062c-0.093,4.819-1.099,10.639-2.168,16.804
			c-2.884,16.69-6.481,37.458,3.703,59.669c11.805,25.738,37.366,52.957,64.044,68.335l0.219,0.169l1.02,0.639
			c16.979,10.733,23.158,20.396,28.316,44.558c6.011,39.879,31.678,65.578,65.624,65.578c5.088,0,10.346-0.599,15.622-1.775
			c34.767-7.756,54.046-40.525,51.565-87.652c-0.601-11.399-2.707-24.752-6.544-37.76c3.499,0.34,6.849,0.509,10.114,0.509
			c38.864,0,54.842-23.876,60.908-38.102c6.27-14.71,6.545-30.86,1.619-45.295c6.902-9.824,11.149-21.776,11.978-34.765
			c1.037-16.193-3.489-31.422-12.351-43.338c0.531-7.476-0.354-15.351-2.698-23.349c-4.067-13.879-12.147-26.453-22.511-35.696
			c-1.397-5.847-3.959-11.559-7.65-16.938c-13.191-19.216-38.652-30.387-55.914-31.14c-1.221-0.054-2.426-0.08-3.613-0.08
			c-12.428,0-24.442,2.899-35.713,8.623"/>
		<path fill="#231F20" d="M33.621,204.215c10.037,21.887,32.566,44.321,53.376,55.86c0.295,0.221,0.575,0.429,0.831,0.62
			c26.339,16.649,35.521,35.17,41.635,64.338c3.314,23.511,17.321,46.489,45.697,40.155c49.61-11.065,25.081-120.181-0.976-123.173
			c12.129-2.125,24.266-4.188,36.403-6.255c22.026,5.441,49.221,8.646,59.862-16.321c6.162-14.455,1.271-30.441-9.7-39.282
			c25.539-10.25,28.693-49.963,4.916-63.24c10.34-15.362-1.771-44.087-21.164-52.482c6.088-18.129-21.521-33.777-35.679-34.394
			c-9.442-0.417-17.42,1.695-24.651,5.369c0-0.012,0.002-0.025,0-0.034c0.002,0.009-0.006,0.022-0.004,0.036
			c-2.748,1.396-5.395,3.009-7.964,4.818c-18.286,5.097-62.049,7.953-67.427,9.114C53.167,59.8,35.801,86.287,34.771,140.622
			C34.366,161.877,24.077,183.406,33.621,204.215z M260.833,207.342c-7.533,19.649-32.582,14.041-47.851,10.115
			c-8.812-2.266-53.341-13.945-32.733-28.58c3.228-2.297,8.034-3.867,13.741-4.913c17.504,1.494,37.365,1.641,54.101-0.909
			c3.312,0.188,6.309,0.362,8.832,0.484C262.154,189.916,264.335,198.487,260.833,207.342z M250.484,163.634
			c-9.089,0.304-18.396,0.611-27.707,0.734c-6.405-0.289-13.135-0.44-19.783-0.096c-4.521-0.121-9.013-0.312-13.44-0.618
			c-24.941,2.332-18.954-18.59-18.288-27.658c0.598-0.455,1.184-0.905,1.743-1.33c4.961,1.284,10.067,1.793,14.83,1.339
			c17.727-1.69,35.725-5.71,53.545-8.507c6.438,1.39,12.142,3.514,16.406,6.643C267.833,142.295,264.917,163.448,250.484,163.634z
			 M242.423,108.709c-2.104,1.033-4.445,1.888-6.938,2.618c-8.097,0.327-16.578,1.729-24.844,3.938
			c-10.044,0.874-20.067,1.43-27.9,3.031c-7.136,1.456-19.395-0.354-17.135-10.994c1.256-5.628-0.376-8.416-3.564-11.875
			c14.508-7.146,34.487-11.958,47.807-14.984c3.761-0.853,8.478-1.31,13.211-2.083c3.926,0.277,7.629,0.902,10.921,2.04
			C245.925,84.51,261.615,106.587,242.423,108.709z M155.544,60.764c26-12.812,69.963-14.247,69.963-1.807
			c-24.998,3.814-55.776,12.289-77.252,27.11c-1.78-7.684-3.121-13.859-3.221-14.248C147.189,68.28,151.057,64.517,155.544,60.764z
			 M148.866,176.693c-0.066,0.103-0.107,0.207-0.172,0.312C148.686,176.951,148.747,176.901,148.866,176.693z M62.385,90.061
			C74.368,74.97,94.09,70.775,112.027,67.396c6.252-1.376,32.013-13.519,37.185-8.872c-5.177-3.663-28.547,7.563-18.721,28.005
			c1.782,8.326,4.832,13.434,5.207,23.274c-0.006-0.102,9.381,25.433,11.584,23.884c-11.205,12.959-10.665,31.013,1.412,43.322
			c-11.304,18.524,0.622,38.056,17.116,47.907c0.118,0.088,1.532-0.104,3.176-0.385c-10.535,2.451-31.194,7.506-34.351,5.975
			c31.017,23.391,60.317,50.249,49.885,95.066c-7.186,29.937-32.71,24.183-36.773-2.441c-4.156-34.713-27.054-59.17-56.686-77.898
			c-9.724-2.244-15.367-2.838-18.262-2.377c-15.498-21.883-23.021-49.957-16.223-77.92C62.527,140.44,45.479,111.354,62.385,90.061z
			"/>
	</g>
</g>
</svg>
